<svg width="661" height="64" fill="none" xmlns="http://www.w3.org/2000/svg"><g clip-path="url(#clip0_4110_2642)" fill="#000"><path d="M53.805 43.2h.935l-1.269 17.674a93.06 93.06 0 01-9.55 2.102 70.202 70.202 0 01-9.416.895 2.44 2.44 0 01-.4.045h-.824c-4.831 0-9.261-.738-13.335-2.192-4.074-1.477-7.59-3.535-10.53-6.175a28.291 28.291 0 01-6.9-9.53C.846 42.327.022 38.256.022 33.804s.78-8.725 2.316-12.573c1.558-3.848 3.762-7.182 6.611-9.978 2.872-2.797 6.322-5.011 10.374-6.577 4.051-1.589 8.593-2.372 13.624-2.372h.556a66.63 66.63 0 019.906.828c3.273.514 6.634 1.253 10.085 2.148l1.269 17.718h-.935c-.357-1.186-.958-2.662-1.759-4.407-.801-1.745-1.848-3.49-3.139-5.258-1.291-1.767-2.827-3.378-4.63-4.854-1.803-1.477-3.896-2.573-6.255-3.267l-.179-.089a30.608 30.608 0 00-2.203-.313 18.909 18.909 0 00-1.826-.112c-2.716 0-5.053.693-7.057 2.058-2.003 1.365-3.673 3.311-5.008 5.817-1.336 2.505-2.338 5.526-2.983 9.083-.646 3.535-.98 7.494-.98 11.834s.379 8.323 1.09 11.79c.735 3.468 1.804 6.399 3.184 8.792 1.38 2.394 3.095 4.251 5.098 5.504 2.004 1.253 4.274 1.88 6.812 1.88.468 0 1.046-.023 1.67-.09.645-.045 1.313-.157 2.048-.291l.289-.157a17.913 17.913 0 004.363-1.946c1.314-.828 2.538-1.767 3.606-2.819a25.778 25.778 0 002.917-3.356 33.27 33.27 0 002.248-3.534 40.406 40.406 0 001.603-3.311c.445-1.052.779-1.97 1.024-2.73l.044-.022zm44.433 18.97v.605H79.494v-6.13c-.646.716-1.291 1.387-1.96 1.969a17.494 17.494 0 01-3.405 2.438c-2.137 1.141-4.386 1.723-6.745 1.723-3.139 0-5.7-.94-7.636-2.819-1.959-1.88-2.938-4.295-2.938-7.226 0-3.49 1.491-6.51 4.452-9.105 2.983-2.573 9.06-5.728 18.232-9.486v-2.886c0-3.02-.379-5.19-1.09-6.488-.713-1.32-1.915-1.969-3.563-1.969-1.358 0-2.47.425-3.383 1.276-.89.85-1.336 1.901-1.336 3.176 0 .671.022 1.454.067 2.35.044.917.089 1.476.089 1.722 0 1.969-.512 3.557-1.559 4.765-1.023 1.208-2.404 1.812-4.118 1.812-1.558 0-2.805-.514-3.74-1.566-.957-1.029-1.424-2.394-1.424-4.116 0-3.647 1.647-6.712 4.942-9.128 3.294-2.416 7.524-3.624 12.71-3.624 2.895 0 5.544.38 7.881 1.163 2.36.783 4.296 1.924 5.788 3.4a10.283 10.283 0 012.605 4.251c.511 1.611.756 4.05.756 7.338v14.117c0 3.624.958 7.181 2.76 10.18l1.337 2.214.022.045zm-19.501-8.769c.49-1.141.757-3.982.757-8.524v-7.74c-2.293.984-4.052 2.505-5.231 4.586-1.203 2.103-1.804 4.653-1.804 7.674 0 1.722.334 3.11.98 4.116.645 1.029 1.491 1.544 2.56 1.544 1.336 0 2.27-.56 2.76-1.678l-.022.022zm51.668 3.177c-.756.962-1.691 1.902-2.738 2.774-1.068.895-2.27 1.656-3.584 2.327-1.335.671-2.782 1.186-4.385 1.589a21.75 21.75 0 01-5.054.581c-1.78 0-3.606-.246-5.275-.738a13.235 13.235 0 01-4.364-2.237c-1.246-.985-2.226-2.26-2.96-3.781-.735-1.521-1.091-3.311-1.091-5.347V22.26h-5.276v-1.007l1.514-.044h.089c4.007-.247 14.358-1.79 18.009-11.007.178-.403.334-.828.445-1.253h.846l-.044 11.678h12.555v1.655h-12.555v29.196c0 2.214.489 3.87 1.469 4.944.957 1.074 2.337 1.633 4.118 1.633 1.648 0 3.117-.179 4.43-.537 1.314-.358 2.449-.873 3.339-1.499l.468.627.044-.068z"/><path d="M164.777 51.165s-4.586 11.119-15.783 12.55h-.067c-.356.023-.69.068-1.046.068h-.29c-.846.044-1.714.067-2.604 0-5.61-.291-10.24-2.305-13.869-5.996-3.962-4.027-5.944-9.307-5.944-15.817 0-3.356.668-6.532 1.982-9.553 1.335-3.02 3.205-5.615 5.654-7.785a21.965 21.965 0 016.834-4.139 22.207 22.207 0 017.836-1.432c4.719 0 8.637 1.208 11.732 3.58 3.094 2.371 4.652 5.347 4.652 8.926 0 2.014-.668 3.67-1.981 5.011-1.313 1.343-2.961 2.014-4.92 2.014-1.758 0-3.205-.627-4.385-1.88-1.18-1.275-1.759-2.796-1.759-4.653 0-4.071-.378-6.734-1.113-7.964-.734-1.253-2.026-1.857-3.851-1.857-2.115 0-3.695.917-4.786 2.73-1.091 1.834-1.625 4.519-1.625 8.053 0 6.399 1.625 11.589 4.875 15.638 3.25 4.027 7.368 6.04 12.377 6.04 1.113 0 2.182-.134 3.183-.447.401-.112.802-.268 1.18-.425 1.314-.581 2.583-1.499 3.762-2.73l-.044.068z"/><path d="M214.53 62.194v.67h-24.109v-.67a25.566 25.566 0 004.052-13.826V31.969c0-1.901-.512-3.445-1.492-4.586-1.002-1.14-2.515-1.723-4.541-1.723-1.358 0-2.605.247-3.785.716a8.336 8.336 0 00-3.027 2.036v19.822c0 4.944 1.402 9.798 4.051 13.982v.671h-24.086v-.67a24.45 24.45 0 004.408-14.006V15.347c0-3.893-1.314-7.651-3.718-10.694v-.581L181.138 0l.512.447V26.22c.891-.918 1.892-1.768 3.005-2.595 1.091-.828 2.271-1.522 3.54-2.148a21.432 21.432 0 014.074-1.454 19.08 19.08 0 014.586-.537c1.847 0 3.584.29 5.209.872 1.602.582 3.005 1.387 4.185 2.439a11.543 11.543 0 012.805 3.78c.69 1.477 1.024 3.088 1.024 4.855v15.974c0 7.181 2.782 12.237 3.94 14.027l.512.716v.045zm63.444-5.616c-.757.962-1.692 1.902-2.738 2.774-1.069.895-2.271 1.656-3.584 2.327-1.336.671-2.783 1.186-4.385 1.589a21.75 21.75 0 01-5.054.581c-1.781 0-3.606-.246-5.276-.738a13.24 13.24 0 01-4.363-2.237c-1.246-.985-2.226-2.26-2.961-3.781-.734-1.521-1.09-3.311-1.09-5.347V22.26h-5.276v-1.007l1.514-.044h.089c4.007-.247 14.358-1.79 18.009-11.007.178-.403.334-.828.445-1.253h.846l-.045 11.678h12.556v1.655h-12.556v29.196c0 2.214.49 3.87 1.47 4.944.957 1.074 2.337 1.633 4.118 1.633 1.647 0 3.117-.179 4.43-.537 1.313-.358 2.449-.873 3.339-1.499l.468.627.044-.068z"/><path d="M328.218 62.194v.67h-24.109v-.67a25.565 25.565 0 004.051-13.826V31.969c0-1.901-.489-3.445-1.491-4.586-1.002-1.14-2.516-1.723-4.541-1.723-1.358 0-2.605.247-3.785.716a8.336 8.336 0 00-3.027 2.036v19.822c0 4.944 1.402 9.798 4.051 13.982v.671h-24.086v-.67a24.457 24.457 0 004.407-14.006V15.347c0-3.893-1.313-7.651-3.717-10.694v-.581L294.826 0l.512.447V26.22a26.498 26.498 0 013.005-2.595c1.091-.828 2.271-1.522 3.562-2.148a21.432 21.432 0 014.074-1.454 19.08 19.08 0 014.586-.537c1.847 0 3.584.29 5.209.872 1.603.582 3.005 1.387 4.185 2.439a11.543 11.543 0 012.805 3.78c.69 1.477 1.024 3.088 1.024 4.855v15.974c0 7.181 2.782 12.237 3.94 14.027l.512.716-.022.045z"/><path d="M366.062 52.395l.668.581a28.976 28.976 0 01-3.539 4.542 19.455 19.455 0 01-4.408 3.422c-1.625.94-3.45 1.656-5.432 2.17-1.981.493-4.207.739-6.656.739-3.272 0-6.211-.537-8.86-1.588-2.627-1.074-4.875-2.55-6.745-4.475-1.87-1.924-3.294-4.183-4.296-6.8-1.002-2.64-1.492-5.504-1.492-8.636 0-3.356.557-6.421 1.648-9.24 1.09-2.819 2.649-5.213 4.652-7.226 2.004-2.014 4.408-3.58 7.213-4.698 2.805-1.119 5.899-1.678 9.283-1.678 3.138 0 5.921.514 8.37 1.544 2.449 1.029 4.519 2.416 6.211 4.183 1.692 1.768 2.983 3.848 3.873 6.22.891 2.37 1.336 4.921 1.336 7.628h-26.669a4.07 4.07 0 00-.045.627c.112 2.64.512 4.944 1.203 6.935.69 1.991 1.625 3.669 2.804 5.056 1.18 1.387 2.605 2.394 4.275 3.087 1.669.694 3.517 1.03 5.587 1.03a19.49 19.49 0 003.54-.314c1.09-.201 2.114-.47 3.049-.805a17.402 17.402 0 002.494-1.119 18.23 18.23 0 001.936-1.208v.023zM341.197 37.74l6.767-.492c2.649-.202 4.675-2.483 4.519-5.146a55.837 55.837 0 00-.178-2.349c-.2-1.946-.512-3.535-.935-4.743-.423-1.208-.979-2.103-1.647-2.662-.668-.56-1.492-.828-2.449-.828-1.046 0-1.937.38-2.694 1.119-.756.738-1.38 1.812-1.87 3.221-.489 1.387-.845 3.11-1.09 5.101a60.255 60.255 0 00-.423 6.779zm114.622 19.712a71.44 71.44 0 01-3.985 2.035c-1.558.739-3.384 1.455-5.432 2.126-2.048.67-4.363 1.208-6.901 1.655-2.56.448-5.365.671-8.437.671-4.964 0-9.438-.738-13.468-2.214-4.007-1.477-7.435-3.558-10.284-6.22-2.85-2.662-5.031-5.884-6.567-9.62-1.559-3.736-2.315-7.852-2.315-12.371 0-4.52.756-8.591 2.315-12.417 1.536-3.825 3.74-7.114 6.589-9.91 2.849-2.774 6.322-4.967 10.418-6.533 4.096-1.566 8.682-2.371 13.78-2.371h.645c3.317.044 6.612.335 9.84.85a97.045 97.045 0 019.951 2.147L453.236 23h-.935c-.356-1.186-.957-2.662-1.758-4.407-.802-1.745-1.848-3.49-3.139-5.258-1.291-1.767-2.827-3.378-4.63-4.854-1.803-1.477-3.896-2.573-6.256-3.267l-.2-.134a34.007 34.007 0 00-2.182-.313 18.45 18.45 0 00-1.803-.112c-2.782 0-5.209.716-7.235 2.125-2.025 1.41-3.695 3.379-5.008 5.906-1.314 2.528-2.271 5.571-2.894 9.083-.624 3.535-.935 7.406-.935 11.634 0 4.564.378 8.59 1.113 12.103.757 3.49 1.803 6.42 3.183 8.77 1.38 2.349 3.05 4.139 5.031 5.347 1.981 1.208 4.163 1.834 6.589 1.834 2.471-.09 4.43-.626 5.877-1.61 1.447-.985 2.16-2.327 2.16-3.983v-1.342a29.03 29.03 0 00-6.901-18.793v-.782h22.483v22.46l.023.046zm39.803-31.702c0 1.544-.49 2.842-1.514 3.87-1.024 1.03-2.271 1.544-3.785 1.544-1.291 0-2.894-.537-4.786-1.655-.178-.112-.356-.201-.534-.313a5.173 5.173 0 00-.512-.336c-4.875-2.796-6.678 0-6.678 0s-1.603 2.461-1.87 5.011v14.027a25.25 25.25 0 004.474 14.363v.582h-24.509v-.582a24.945 24.945 0 004.407-14.161V35.124c0-4.027-1.469-7.92-4.096-10.94v-.626l19.323-4.072.423.448v9.642l.334-1.052c1.068-2.818 2.693-5.033 4.897-6.644 2.182-1.61 4.653-2.416 7.436-2.416 2.025 0 3.695.582 5.031 1.767 1.313 1.186 1.981 2.685 1.981 4.475l-.022.044z"/><path d="M538.319 41.678c0 3.177-.601 6.13-1.826 8.837a21.135 21.135 0 01-5.031 7.025c-2.137 1.969-4.697 3.512-7.635 4.631-2.939 1.119-6.145 1.678-9.573 1.678-3.428 0-6.611-.56-9.528-1.678-2.916-1.119-5.453-2.662-7.591-4.631a20.924 20.924 0 01-5.031-7.025c-1.202-2.707-1.825-5.66-1.825-8.837 0-3.176.623-6.085 1.848-8.792a21.842 21.842 0 015.053-7.047c2.137-1.969 4.675-3.535 7.591-4.653 2.916-1.119 6.077-1.678 9.483-1.678 3.406 0 6.634.56 9.573 1.678 2.938 1.118 5.498 2.662 7.635 4.653 2.137 1.991 3.829 4.318 5.031 7.047 1.202 2.707 1.826 5.638 1.826 8.792zm-16.184 0c0-6.756-.646-11.857-1.915-15.324-1.291-3.468-3.272-5.19-5.943-5.19-2.672 0-4.631 1.722-5.877 5.19-1.247 3.467-1.87 8.568-1.87 15.324 0 6.757.623 11.902 1.87 15.347 1.246 3.446 3.227 5.168 5.899 5.168 2.671 0 4.652-1.722 5.921-5.168 1.269-3.445 1.892-8.568 1.892-15.347h.023zm65.425 0c0 3.177-.601 6.13-1.825 8.837a21.135 21.135 0 01-5.031 7.025c-2.137 1.969-4.697 3.512-7.636 4.631-2.938 1.119-6.144 1.678-9.572 1.678-3.428 0-6.612-.56-9.528-1.678-2.916-1.119-5.454-2.662-7.591-4.631a20.91 20.91 0 01-5.031-7.025c-1.202-2.707-1.825-5.66-1.825-8.837 0-3.176.623-6.085 1.847-8.792a21.86 21.86 0 015.054-7.047c2.137-1.969 4.675-3.535 7.591-4.653 2.916-1.119 6.077-1.678 9.483-1.678 3.406 0 6.634.56 9.572 1.678 2.939 1.118 5.499 2.662 7.636 4.653 2.137 1.991 3.829 4.318 5.031 7.047 1.202 2.707 1.825 5.638 1.825 8.792zm-16.184 0c0-6.756-.645-11.857-1.914-15.324-1.291-3.468-3.272-5.19-5.944-5.19-2.671 0-4.63 1.722-5.877 5.19-1.246 3.467-1.87 8.568-1.87 15.324 0 6.757.624 11.902 1.87 15.347 1.247 3.446 3.228 5.168 5.899 5.168 2.672 0 4.653-1.722 5.922-5.168 1.269-3.445 1.892-8.568 1.892-15.347h.022z"/><path d="M625.916 20.582v.537l-.646.76a53.397 53.397 0 00-7.925 12.73l-12.466 28.233h-4.475l-13.156-29.195a71.621 71.621 0 00-6.3-11.186l-.913-1.342v-.537h25.668v.537l-1.715 2.908a8.344 8.344 0 00-.601 7.226l6.412 16.622 5.476-12.573c2.827-6.488.935-11.32-.156-13.266l-.601-.94v-.537h11.375l.023.023zm33.258 31.813l.668.581a28.976 28.976 0 01-3.539 4.542 19.455 19.455 0 01-4.408 3.422c-1.625.94-3.451 1.656-5.432 2.17-1.981.493-4.207.739-6.656.739-3.272 0-6.211-.537-8.86-1.588-2.627-1.074-4.875-2.55-6.745-4.475-1.87-1.924-3.295-4.183-4.296-6.8-1.002-2.64-1.492-5.504-1.492-8.636 0-3.356.557-6.421 1.648-9.24 1.09-2.819 2.649-5.213 4.652-7.226 2.004-2.014 4.408-3.58 7.213-4.698 2.805-1.119 5.899-1.678 9.283-1.678 3.138 0 5.921.514 8.37 1.544 2.448 1.029 4.519 2.416 6.211 4.183 1.691 1.768 2.983 3.848 3.873 6.22.891 2.37 1.336 4.921 1.336 7.628h-26.669a4.07 4.07 0 00-.045.627c.112 2.64.512 4.944 1.203 6.935.69 1.991 1.625 3.669 2.804 5.056 1.18 1.387 2.605 2.394 4.275 3.087 1.669.694 3.517 1.03 5.587 1.03a19.49 19.49 0 003.54-.314c1.09-.201 2.114-.47 3.049-.805a17.402 17.402 0 002.494-1.119 18.23 18.23 0 001.936-1.208v.023zM634.331 37.74l6.767-.492c2.649-.202 4.675-2.483 4.519-5.146a55.837 55.837 0 00-.178-2.349c-.2-1.946-.512-3.535-.935-4.743-.423-1.208-.979-2.103-1.647-2.662-.668-.56-1.492-.828-2.449-.828-1.046 0-1.937.38-2.693 1.119-.757.738-1.381 1.812-1.87 3.221-.49 1.387-.846 3.11-1.091 5.101a60.255 60.255 0 00-.423 6.779z"/></g><defs><clipPath id="clip0_4110_2642"><path fill="#fff" transform="scale(1.00061)" d="M0 0h660.6v63.9H0z"/></clipPath></defs></svg>