<svg width="55" height="55" fill="none" xmlns="http://www.w3.org/2000/svg"><g clip-path="url(#clip0_2036_3569)"><path d="M27.5 55C42.688 55 55 42.688 55 27.5S42.688 0 27.5 0 0 12.312 0 27.5 12.312 55 27.5 55z" fill="#fff"/><path d="M35.91 50.115s6.267-.345 8.399-2.304c2.35 5.38 7.684 6.763 6.532 7.189-9.17-.323-14.93-4.885-14.93-4.885z" fill="#fff"/><path d="M13.399 27.465c-.288-.011-.841-.011-1.106-.011h-3.33c-.265 0-.818 0-1.094.011v-.956c-.887.715-1.613 1.175-3.203 2.028-.323-.818-.415-.99-.691-1.336 1.647-.853 2.488-1.395 3.479-2.224 1.175-.98 1.809-1.74 2.684-3.214l1.29.438c.127.046.23.16.23.276 0 .115-.08.161-.299.219 1.302 1.82 2.927 2.995 5.934 4.274-.334.369-.461.553-.853 1.313-1.233-.599-2.154-1.117-3.03-1.75v.944l-.011-.012zm-5.623 2.443c-.576 0-1.394.011-1.935.046V28.57c.541.012 1.36.046 1.935.046h6.141l.207-.288 1.014.922c.08.07.115.127.115.184 0 .127-.08.185-.357.277l-1.82 5.035-1.44-.37 1.67-4.446H7.788l-.012-.023zm4.517-3.733c.207 0 .414 0 .622-.011-.956-.738-1.613-1.44-2.35-2.535-.669 1.014-1.325 1.728-2.293 2.535.23.011.46.011.691.011h3.33zm12.534-3.629c.115.023.184.092.184.184s-.069.15-.276.254c-.334.898-.495 1.37-.6 1.578a6.856 6.856 0 001.671-.61l.565 1.232c-.968.426-1.648.622-2.73.807-.254.68-.68 1.728-1.176 2.8a20.944 20.944 0 01-1.37 2.58c-.277.472-.485.806-.611 1.014-.507-.438-.738-.576-1.256-.784 1.117-1.52 2.131-3.41 2.938-5.518-.288.046-.53.057-.968.057a17.6 17.6 0 01-1.36-.057l-.022-1.406a11.275 11.275 0 002.823.07c.402-1.176.667-2.132.713-2.627l1.464.437.011-.011zm3.007 5.426c-.426.288-.541.461-.541.864 0 .288.011.473.092 1.118.046.288.057.368.092.806.011.162.023.22.023.277.864.345 1.786.898 3.064 1.866-.403.334-.633.576-.979 1.095-.76-.703-.83-.76-2.062-1.521-.127 1.37-.922 2.004-2.57 2.004-1.508 0-2.488-.76-2.488-1.947 0-1.186 1.014-2.027 2.489-2.027.438 0 .737.046 1.129.15-.046-.335-.046-.427-.08-.784-.047-.323-.07-.899-.07-1.06 0-.76.265-1.198 1.014-1.716l.876.887.011-.012zm-2.95 3.733c-.633 0-1.082.323-1.082.783 0 .461.415.738 1.221.738.495 0 .852-.139 1.014-.392.115-.161.15-.46.15-.91a4 4 0 00-1.302-.22zm2.19-6.348c1.555.288 2.315.565 3.652 1.37l-.738 1.245c-1.186-.818-1.993-1.163-3.306-1.405l.392-1.198v-.012zm8.629.115c.126.023.195.115.195.208 0 .092-.08.16-.299.23-.196 1.106-.288 2.097-.357 3.468h.069c1.037-1.51 2.788-2.443 4.574-2.443 1.97 0 3.18 1.049 3.18 2.788 0 1.648-.991 2.915-2.846 3.653-.807.322-2.085.622-3.422.817a6.452 6.452 0 00-.403-1.52c1.475-.15 2.442-.346 3.318-.692 1.163-.472 1.855-1.313 1.855-2.292 0-.922-.61-1.452-1.66-1.452-1.22 0-2.269.473-3.34 1.51-.634.599-1.13 1.428-1.267 2.073l-1.43-.023c-.01-.703-.01-.852-.01-1.175 0-1.014.069-2.2.23-3.894.046-.415.046-.542.08-1.048.012-.254.023-.415.058-.553l1.498.357-.023-.012zm-.242-2.995c1.29.346 2.246.806 3.387 1.601l-.83 1.256c-1.014-.772-1.935-1.256-3.214-1.636l.668-1.233-.011.012zm13.433 9.217v1.854h-1.855v-1.854h1.855zm-.023-8.675l-.23 7.212h-1.337l-.23-7.212h1.808-.011z" fill="#000"/></g><defs><clipPath id="clip0_2036_3569"><path fill="#fff" d="M0 0h55v55H0z"/></clipPath></defs></svg>