<svg width="74" height="21" fill="none" xmlns="http://www.w3.org/2000/svg"><g clip-path="url(#clip0_2036_3531)" fill="#040000"><path d="M3.36 9.38c.81-.5 1.62-.68 2.42-.52.8.16 1.43.6 1.89 1.35.47.75.59 1.52.36 2.3-.23.78-.76 1.44-1.6 1.96l-1.62 1 2.26 3.65-1.68 1.04L0 11.46l3.36-2.08zm1.9 3.99c.45-.28.73-.6.86-.96.12-.36.06-.74-.19-1.15-.5-.8-1.26-.88-2.29-.24l-1.15.71 1.5 2.42 1.26-.78h.01zm7.4-8.64c.89-.36 1.72-.4 2.48-.13s1.3.8 1.62 1.59c.22.54.27 1.07.15 1.58-.12.51-.4 1-.86 1.45.37.04.73.16 1.08.34.35.19.83.54 1.45 1.07 1.04.92 1.79 1.54 2.25 1.86l-2.05.82c-.22-.15-.55-.41-.97-.77-.93-.8-1.59-1.33-1.98-1.58-.39-.25-.72-.41-1.01-.46a1.54 1.54 0 00-.87.09l-.67.27 1.61 4.01-1.83.74-3.81-9.5 3.42-1.37-.01-.01zm1.21 4.22c.48-.19.81-.46.99-.81.18-.35.18-.73.02-1.15-.17-.43-.44-.71-.8-.81-.36-.11-.79-.06-1.29.14l-1.14.46 1.06 2.64 1.17-.47h-.01zM26.61.8l.32 1.51-4.54.96.56 2.63 4.34-.92.32 1.51-4.34.92.6 2.84 4.64-.98.32 1.51-6.57 1.39-2.12-10.01L26.61.79V.8zm8.74-.8c1-.02 1.96.21 2.89.69l.04 1.76c-1.07-.62-2.02-.92-2.84-.9-.5 0-.89.11-1.16.31-.28.2-.41.46-.41.78 0 .39.28.74.81 1.05.15.09.72.36 1.71.79.85.38 1.46.8 1.84 1.28.38.48.58 1.05.59 1.73.02.88-.28 1.59-.9 2.15-.62.55-1.43.84-2.44.86-.65.01-1.22-.05-1.69-.18s-1.01-.37-1.6-.71l-.04-1.95c1.11.88 2.15 1.32 3.12 1.3.48 0 .87-.12 1.17-.34.29-.22.44-.5.43-.84 0-.47-.28-.85-.8-1.14-.43-.23-.99-.5-1.68-.81-.81-.35-1.42-.76-1.83-1.24-.41-.48-.62-1.04-.63-1.69-.02-.86.29-1.55.92-2.07.63-.52 1.47-.79 2.52-.82L35.35 0zm14.06 1.3l-.22 1.53-4.59-.67-.39 2.66 4.39.64-.22 1.53-4.39-.64-.42 2.88 4.69.69-.22 1.53-6.65-.97L42.87.36l6.54.96V1.3zm5.9 1.51l3.32 8.77 2.41-6.72 1.82.65-3.45 9.63-1.6-.57-3.31-8.89-2.45 6.83-1.82-.65 3.45-9.63 1.63.58zm18.46 8.94l-.8 1.32-3.11-1.88-4.49 7.43-1.69-1.02 4.49-7.43-3.11-1.88.8-1.32 7.91 4.78z"/></g><defs><clipPath id="clip0_2036_3531"><path fill="#fff" d="M0 0h73.77v20.16H0z"/></clipPath></defs></svg>