<svg width="305" height="120" fill="none" xmlns="http://www.w3.org/2000/svg"><g clip-path="url(#clip0_2036_3592)"><path d="M269.62 0c0 3.04-2.46 5.5-5.5 5.5s-5.5-2.46-5.5-5.5H0v120h258.62c0-3.04 2.46-5.5 5.5-5.5s5.5 2.46 5.5 5.5H305V0h-35.38z" fill="#036EB8"/><path d="M282.02 86.63c0-.5.06-1 .17-1.48.11-.48.31-1 .58-1.56h1.61c-.31.55-.54 1.05-.68 1.51-.14.46-.21.95-.21 1.45 0 .63.13 1.2.39 1.71s.63.9 1.1 1.18c.47.28 1 .42 1.58.42.58 0 1.12-.14 1.59-.42.47-.28.83-.67 1.09-1.18.26-.51.38-1.08.38-1.71 0-.49-.07-.95-.21-1.39-.14-.44-.39-1-.76-1.67h1.61c.3.58.51 1.1.64 1.59s.19 1.04.19 1.69c0 .93-.19 1.77-.56 2.51-.37.74-.91 1.32-1.61 1.74-.7.42-1.47.63-2.3.63-.89 0-1.69-.22-2.41-.65a4.3 4.3 0 01-1.64-1.79c-.38-.76-.58-1.62-.58-2.57l.03-.01zm0-10.1c0-.92.19-1.75.57-2.48.38-.73.92-1.32 1.64-1.76.72-.44 1.5-.65 2.35-.65.85 0 1.6.21 2.31.64.71.43 1.26 1.01 1.65 1.75.39.74.59 1.58.59 2.51 0 .93-.2 1.75-.6 2.5-.4.75-.94 1.34-1.64 1.76-.7.42-1.47.63-2.31.63-.84 0-1.58-.21-2.29-.63-.71-.42-1.27-1-1.67-1.73-.4-.73-.59-1.58-.59-2.54h-.01zm4.55 3.13c.59 0 1.12-.13 1.59-.4s.83-.64 1.09-1.11c.26-.47.39-1.01.39-1.62 0-.91-.29-1.66-.86-2.24-.57-.58-1.31-.88-2.21-.88-.59 0-1.12.13-1.59.4-.47.26-.84.64-1.09 1.12-.26.48-.39 1.02-.39 1.62 0 .6.13 1.14.39 1.62.26.48.62.85 1.09 1.11.47.26 1 .39 1.59.39v-.01zm-4.44-12.05h5.16c.53 0 .95-.08 1.26-.24.31-.16.57-.42.77-.78.2-.36.3-.78.3-1.26 0-.52-.1-.97-.29-1.34-.19-.37-.46-.63-.79-.8-.33-.17-.79-.25-1.38-.25h-5.05v-1.71h5.27c1.19 0 2.11.36 2.75 1.07.64.71.96 1.73.96 3.03 0 .82-.15 1.53-.44 2.14-.29.6-.71 1.06-1.27 1.38-.55.32-1.2.48-1.95.48h-5.33v-1.72h.03zm0-12.48c0-.83.24-1.5.72-2.02s1.1-.78 1.86-.78 1.39.26 1.86.79c.47.53.71 1.22.71 2.08v1.65H291v1.71h-8.87v-3.43zm3.81.42c0-.46-.11-.81-.31-1.07-.21-.26-.52-.38-.93-.38-.82 0-1.23.53-1.23 1.57v1.17h2.47v-1.29zm-3.92-9.91c0-.92.19-1.74.57-2.48.38-.74.92-1.32 1.64-1.75.72-.43 1.5-.65 2.35-.65.85 0 1.6.21 2.31.64.71.43 1.26 1.01 1.65 1.75.39.74.59 1.58.59 2.51 0 .93-.2 1.75-.6 2.5-.4.75-.94 1.34-1.64 1.75a4.5 4.5 0 01-2.31.63c-.84 0-1.58-.21-2.29-.63-.71-.42-1.27-1-1.67-1.73-.4-.73-.59-1.58-.59-2.54h-.01zm4.55 3.13c.59 0 1.12-.13 1.59-.4s.83-.64 1.09-1.12c.26-.47.39-1.01.39-1.62 0-.91-.29-1.66-.86-2.24-.57-.59-1.31-.88-2.21-.88-.59 0-1.12.13-1.59.4s-.84.64-1.09 1.12c-.26.48-.39 1.02-.39 1.62 0 .6.13 1.14.39 1.62.26.48.62.85 1.09 1.11.47.26 1 .39 1.59.39zm-4.44-11.91l6.19-5.27h-6.19v-1.68H291v1.47l-6.29 5.3H291v1.68h-8.87v-1.5z" fill="#000"/><path d="M78 0H0v120h78V0z" fill="#DFDBBB"/><path d="M264.12 7.38v.5" stroke="#040000" stroke-linecap="round" stroke-linejoin="round"/><path d="M264.12 10.92v99.68" stroke="#040000" stroke-linecap="round" stroke-linejoin="round" stroke-dasharray="1.01 3.04"/><path d="M264.12 112.12v.5" stroke="#040000" stroke-linecap="round" stroke-linejoin="round"/><path d="M100.13 25.27c1.98 0 3.58.49 4.8 1.48 1.22.99 1.82 2.29 1.82 3.92 0 2.2-1 3.83-2.99 4.91 1.14.41 2.01 1.08 2.59 2 .58.92.87 2.03.87 3.3 0 1.9-.66 3.44-1.99 4.61-1.33 1.17-3.08 1.76-5.24 1.76-1.71 0-3.35-.4-4.92-1.21v-3.77c.87.58 1.67 1 2.39 1.26.73.26 1.47.39 2.22.39 1 0 1.82-.28 2.46-.85.64-.57.96-1.31.96-2.22 0-1-.35-1.8-1.06-2.4-.71-.6-1.67-.9-2.9-.9h-.25v-3.33h.18c1.14 0 2.04-.25 2.68-.76.64-.51.97-1.19.97-2.05 0-.86-.31-1.53-.94-2.05-.62-.52-1.42-.77-2.39-.77-1.21 0-2.47.32-3.8.97V26.2c1.34-.62 2.85-.93 4.52-.93h.02zm22.53 0c-1.14.95-2.41 2.36-3.79 4.22-1.39 1.86-2.37 3.49-2.97 4.89.8-.34 1.61-.51 2.45-.51 1.1 0 2.11.28 3.01.83.9.56 1.61 1.33 2.11 2.32.5.99.75 2.08.75 3.29 0 1.28-.3 2.45-.89 3.51a6.564 6.564 0 01-2.45 2.51c-1.04.61-2.18.91-3.4.91-2.08 0-3.77-.7-5.07-2.11-1.3-1.41-1.94-3.23-1.94-5.48 0-2.25.67-4.63 2.02-7.19 1.34-2.55 3.18-4.95 5.5-7.19h4.68-.01zm-8.2 15.04c0 .99.28 1.81.84 2.45.56.64 1.27.97 2.15.97.88 0 1.55-.3 2.08-.91.53-.61.8-1.41.8-2.42 0-.94-.27-1.72-.82-2.34-.55-.62-1.25-.93-2.12-.93-.87 0-1.54.3-2.09.91-.56.61-.84 1.36-.84 2.26v.01zm14.35 2.45c.82 0 1.47.3 1.96.9.49.6.74 1.41.74 2.43 0 1.34-.44 2.53-1.33 3.56-.89 1.03-2 1.67-3.34 1.89v-.81c.98-.83 1.47-1.91 1.47-3.24v-.23l-.03-.25c-1.16-.21-1.73-.92-1.73-2.1 0-.6.22-1.11.65-1.53.43-.42.97-.63 1.62-.63l-.01.01zm11.65-17.49c2.17 0 3.89.98 5.16 2.93 1.27 1.95 1.91 4.62 1.91 8s-.63 6.11-1.89 8.08c-1.26 1.97-2.97 2.96-5.15 2.96s-3.95-.98-5.24-2.94c-1.28-1.96-1.92-4.64-1.92-8.04 0-3.4.64-6.07 1.92-8.04 1.28-1.97 3.01-2.95 5.21-2.95zm-3.14 11.11c0 4.9 1.05 7.34 3.14 7.34s3.07-2.58 3.07-7.73c0-4.81-1.03-7.22-3.1-7.22-2.07 0-3.11 2.53-3.11 7.6v.01zm20.97-11.11c2.17 0 3.89.98 5.16 2.93 1.27 1.95 1.91 4.62 1.91 8s-.63 6.11-1.89 8.08c-1.26 1.97-2.97 2.96-5.15 2.96s-3.95-.98-5.24-2.94c-1.28-1.96-1.92-4.64-1.92-8.04 0-3.4.64-6.07 1.92-8.04 1.28-1.97 3.01-2.95 5.21-2.95zm-3.14 11.11c0 4.9 1.05 7.34 3.14 7.34s3.07-2.58 3.07-7.73c0-4.81-1.03-7.22-3.1-7.22-2.07 0-3.11 2.53-3.11 7.6v.01zm20.34-11.11c2.17 0 3.89.98 5.16 2.93 1.27 1.95 1.91 4.62 1.91 8s-.63 6.11-1.89 8.08c-1.26 1.97-2.97 2.96-5.15 2.96s-3.95-.98-5.24-2.94c-1.28-1.96-1.92-4.64-1.92-8.04 0-3.4.64-6.07 1.92-8.04 1.28-1.97 3.01-2.95 5.21-2.95zm-3.14 11.11c0 4.9 1.05 7.34 3.14 7.34s3.07-2.58 3.07-7.73c0-4.81-1.03-7.22-3.1-7.22-2.07 0-3.11 2.53-3.11 7.6v.01zm15.99 7.95c0 1.92.02 3.03.05 3.69h-1.71c.02-.63.05-1.79.05-3.06v-7.33c0-2.45-.02-2.59-.05-3.06.83.03 2.06.06 3.12.06h6.47c1.07 0 2.31-.03 3.12-.06-.02.47-.03.61-.03 3.06v6.19c0 .34.02.94.03 1.55.02.31.02.55.02.69 0 .94-.24 1.4-.86 1.68-.46.2-1.05.25-2.61.25-.05-.96-.06-1.08-.3-1.81.69.05 1.05.06 1.52.06.5 0 .58-.09.58-.66v-3.59h-9.4v2.34zm0-8.21v4.4h3.83v-4.4h-3.83zm5.45 4.4h3.96v-4.4h-3.96v4.4zm-91.63 22.01c2.92 0 5.28.73 7.07 2.18 1.79 1.45 2.69 3.38 2.69 5.77 0 3.24-1.47 5.65-4.41 7.23 1.69.6 2.96 1.58 3.82 2.95.86 1.36 1.29 2.99 1.29 4.87 0 2.8-.98 5.06-2.94 6.79-1.96 1.73-4.53 2.59-7.73 2.59-2.52 0-4.93-.59-7.25-1.78v-5.56c1.28.86 2.46 1.48 3.52 1.86 1.07.38 2.16.58 3.28.58 1.48 0 2.69-.42 3.63-1.25.94-.83 1.41-1.92 1.41-3.26 0-1.48-.52-2.66-1.56-3.54-1.04-.88-2.46-1.32-4.27-1.32h-.36v-4.9h.27c1.69 0 3-.37 3.95-1.12.95-.75 1.42-1.75 1.42-3.02s-.46-2.26-1.38-3.02c-.92-.76-2.09-1.14-3.52-1.14-1.78 0-3.65.47-5.6 1.42v-4.95c1.97-.92 4.19-1.38 6.67-1.38zm23.5 0c2.92 0 5.28.73 7.07 2.18 1.79 1.45 2.69 3.38 2.69 5.77 0 3.24-1.47 5.65-4.41 7.23 1.69.6 2.96 1.58 3.82 2.95.86 1.36 1.29 2.99 1.29 4.87 0 2.8-.98 5.06-2.94 6.79-1.96 1.73-4.53 2.59-7.73 2.59-2.52 0-4.93-.59-7.25-1.78v-5.56c1.28.86 2.46 1.48 3.52 1.86 1.07.38 2.16.58 3.28.58 1.48 0 2.69-.42 3.63-1.25.94-.83 1.41-1.92 1.41-3.26 0-1.48-.52-2.66-1.56-3.54-1.04-.88-2.46-1.32-4.27-1.32h-.36v-4.9h.27c1.69 0 3-.37 3.95-1.12.95-.75 1.42-1.75 1.42-3.02s-.46-2.26-1.38-3.02c-.92-.76-2.09-1.14-3.52-1.14-1.78 0-3.65.47-5.6 1.42v-4.95c1.97-.92 4.19-1.38 6.67-1.38zm18.77 25.78c1.21 0 2.17.44 2.89 1.32.72.88 1.08 2.08 1.08 3.58 0 1.97-.66 3.72-1.97 5.25-1.31 1.53-2.95 2.46-4.93 2.79v-1.2c1.45-1.22 2.17-2.81 2.17-4.77v-.34l-.04-.36c-1.7-.32-2.55-1.35-2.55-3.1 0-.89.32-1.64.96-2.26.64-.62 1.44-.93 2.38-.93l.01.02zm18.1-25.78c2.82 0 5.12.82 6.9 2.46 1.78 1.64 2.68 3.77 2.68 6.37 0 2.85-1.3 5.08-3.89 6.71 1.63.86 2.8 1.92 3.52 3.19.72 1.27 1.08 2.75 1.08 4.45 0 1.7-.44 3.33-1.33 4.73-.89 1.41-2.12 2.5-3.71 3.29-1.58.78-3.34 1.17-5.26 1.17-3.01 0-5.49-.86-7.44-2.58-1.95-1.72-2.93-3.92-2.93-6.62 0-1.79.38-3.31 1.15-4.55.77-1.24 1.93-2.27 3.48-3.08-2.59-1.64-3.89-3.89-3.89-6.76 0-2.59.9-4.7 2.7-6.34 1.8-1.63 4.11-2.45 6.92-2.45l.02.01zm-4.49 22.91c0 1.55.41 2.77 1.22 3.66.81.89 1.91 1.33 3.28 1.33 1.37 0 2.45-.45 3.24-1.34.79-.9 1.19-2.08 1.19-3.56s-.41-2.69-1.22-3.64c-.81-.95-1.87-1.42-3.16-1.42s-2.45.45-3.29 1.34c-.84.89-1.25 2.11-1.25 3.63h-.01zm.65-13.98c0 1.36.36 2.47 1.08 3.33.72.87 1.64 1.3 2.76 1.3 1.12 0 1.99-.45 2.71-1.34.72-.9 1.08-1.99 1.08-3.29 0-1.37-.34-2.46-1.03-3.25-.69-.8-1.61-1.2-2.77-1.2s-2.11.39-2.8 1.17c-.69.78-1.04 1.88-1.04 3.28h.01zm37.33-8.93v18.41h2.69v4.63h-2.69v8.92h-5.78v-8.92h-12.9v-3.71l15.36-19.34h3.32v.01zm-5.92 9.58l-6.98 8.83h7.12v-8.83h-.14zm24.06-9.58c3.19 0 5.73 1.44 7.6 4.32 1.88 2.88 2.81 6.81 2.81 11.79 0 4.98-.93 9-2.78 11.91-1.85 2.91-4.38 4.36-7.59 4.36s-5.83-1.44-7.72-4.33c-1.89-2.88-2.84-6.83-2.84-11.85s.94-8.95 2.82-11.85c1.88-2.9 4.44-4.35 7.68-4.35h.02zm-4.63 16.38c0 7.21 1.54 10.82 4.63 10.82s4.52-3.8 4.52-11.39c0-7.09-1.52-10.64-4.56-10.64-3.04 0-4.59 3.74-4.59 11.21zm22.64 11.73c0 2.82.02 4.46.07 5.44h-2.52c.02-.93.07-2.64.07-4.51v-10.8c0-3.61-.02-3.82-.07-4.51 1.23.05 3.03.09 4.6.09h9.53c1.57 0 3.4-.05 4.6-.09-.02.69-.05.9-.05 4.51v9.11c0 .51.02 1.39.05 2.29.02.46.02.81.02 1.02 0 1.39-.35 2.06-1.27 2.47-.67.3-1.55.37-3.84.37-.07-1.41-.09-1.6-.44-2.66 1.02.07 1.55.09 2.24.09.74 0 .86-.14.86-.97v-5.3h-13.86v3.45h.01zm0-12.1v6.48h5.64v-6.48h-5.64zm8.02 6.47h5.83v-6.48h-5.83v6.48z" fill="#040000"/><path d="M89.5 35.5h115" stroke="#fff" stroke-miterlimit="10"/><path d="M66.33 88.83h-54v4h54v-4z" fill="#FCBF42"/><path d="M24.61 28.76c-1.56 1.18-3 2.86-3.53 4.08.39-.17.87-.26 1.41-.26 2 0 3.38 1.58 3.38 3.87 0 2.42-1.5 4.08-3.67 4.08-2.29 0-3.81-1.71-3.81-4.32 0-2.8 1.66-5.62 4.39-7.45h1.83zm-.53 7.74c0-1.5-.79-2.53-1.95-2.53S20.17 35 20.17 36.5c0 1.5.83 2.54 2 2.54s1.92-1.02 1.92-2.54h-.01zm7.95 4.71h-1.51c.03-.72.04-1.53.04-3.52v-5.7c0-2.26-.01-2.88-.04-3.39.79.04 1.96.06 2.98.06h6.46c1.02 0 2.19-.01 2.99-.06-.04.51-.04 1.23-.04 3.39v5.7c0 2.25 0 2.8.04 3.54h-1.51v-.57h-9.41v.55zm9.41-11.19h-9.41v9.27h9.41v-9.27zm-6.29 8.01h-1.49c.03-.34.03-.84.03-1.59v-3.55c0-.48-.01-1.05-.03-1.32.33.01.63.03 1.08.03h3.87c.43 0 .75-.02 1.08-.03-.03.27-.04.84-.04 1.32v3.34c0 .71.01 1.21.04 1.56h-1.5v-.48h-3.04v.72zm3.05-5.09h-3.04v3h3.04v-3zm13.57-4.36c.19.07.29.15.29.27 0 .13-.11.2-.51.29-.54 1.42-.97 2.22-1.84 3.4-.88 1.22-1.5 1.88-2.71 2.82-.41-.62-.48-.71-.96-1.21 1.14-.92 1.73-1.51 2.52-2.61.88-1.2 1.29-1.99 1.81-3.51l1.41.56-.01-.01zm1.05 6.72c-.22 1.02-.46 1.65-.9 2.49-.99 1.86-2.29 2.87-5.13 3.96-.18-.51-.32-.79-.65-1.29 1.95-.75 2.89-1.3 3.71-2.22.71-.79 1.11-1.62 1.44-2.94-.78 0-1.95.03-2.56.04v-1.47c.64.03 1.92.04 2.7.04h5.22l.25-.31.96.96c.09.09.13.17.13.25 0 .11-.06.15-.25.22l-.12.04c-.21 2.43-.29 3.08-.54 4.19-.27 1.15-.54 1.59-1.21 1.92-.42.19-.93.29-1.82.29-.18 0-.43-.02-.78-.04-.06-.71-.11-.95-.3-1.56.17.02.63.06.9.06.96 0 1.17-.06 1.42-.38.25-.33.5-1.12.65-2.29.08-.53.12-1 .18-1.96h-3.3zm2.84-7.58c.51 1.42.96 2.33 1.74 3.33.75.99 1.33 1.48 2.91 2.49-.51.48-.63.63-1 1.22-1.56-1.07-2.31-1.75-3.12-2.85-.81-1.08-1.27-2.01-1.84-3.73l1.32-.45-.01-.01zM18.1 61.21h-1.51c.03-.72.04-1.53.04-3.52v-5.7c0-2.26-.01-2.88-.04-3.39.79.04 1.96.06 2.98.06h6.46c1.02 0 2.19-.01 2.99-.06-.04.51-.04 1.23-.04 3.39v5.7c0 2.25 0 2.8.04 3.54h-1.51v-.57H18.1v.55zm9.41-11.19H18.1v9.27h9.41v-9.27zm-6.29 8.01h-1.49c.03-.34.03-.84.03-1.59v-3.55c0-.48-.01-1.05-.03-1.32.33.01.63.03 1.08.03h3.87c.43 0 .75-.02 1.08-.03-.03.27-.04.84-.04 1.32v3.34c0 .71.01 1.21.04 1.56h-1.5v-.48h-3.04v.72zm3.05-5.09h-3.04v3h3.04v-3zm11.34 1.71c.03-.46.04-1.08.04-1.88-.82.92-1.65 1.51-2.95 2.15-.2-.42-.39-.75-.65-1.07 1.37-.74 2.07-1.2 2.8-1.92h-.9c-.44 0-1.07.01-1.5.03v-1.28c.39.02 1.06.02 1.5.02h.12a12.5 12.5 0 00-1.25-1.77l.96-.69c.6.58 1.02 1.11 1.51 1.92l-.84.54h1.18v-.62c0-1.19-.01-1.82-.04-2.25l1.42.1c.17.02.26.06.26.15s-.08.17-.29.3c-.02.42-.02.93-.02 1.7v.62h1.05l-.73-.32c.55-.99.79-1.5 1.08-2.28l1.23.47c.15.06.2.09.2.16s-.03.09-.09.12-.15.06-.2.08c-.52.88-.55.93-1.12 1.77h.12c.43 0 1.11 0 1.49-.02v1.28c-.42-.02-1.05-.03-1.49-.03h-1.53v.12c1.1.43 1.68.76 2.49 1.42l-.83 1.02c-.45-.46-.88-.81-1.67-1.3.02.62.02 1.11.03 1.46h-1.41.03zm-1.43 4.86L33 58.83c.3-.38.67-.93 1.04-1.54h-.08c-.44 0-1.07.02-1.5.03v-1.27c.43.01 1.06.03 1.5.03h.76c.29-.54.53-1.06.69-1.48l1.32.64c.11.04.17.12.17.2 0 .12-.13.18-.46.19-.09.15-.17.3-.25.45h2.34c.43 0 1.07-.01 1.49-.03v1.27c-.35-.01-.84-.03-1.25-.03-.3.58-.62 1.16-1 1.68.38.19.75.4 1.14.63l-.81 1.17c-.44-.3-.86-.57-1.26-.81-.94.78-2.17 1.26-4.06 1.73-.18-.58-.22-.69-.58-1.2 1.56-.33 2.61-.67 3.41-1.2-.33-.17-.66-.31-.99-.45l-.41.68-.03-.01zm1.29-2.22c-.1.2-.22.39-.34.6.48.15.94.33 1.41.52.3-.34.54-.73.76-1.12h-1.83zm10.82-5.19c-.27-.01-.66-.03-1.05-.03-.13 1.12-.34 2.25-.64 3.34-.23.79-.53 1.58-.93 2.29.62.92 1.32 1.56 2.8 2.64-.46.39-.63.58-.99 1.15-.99-.73-1.96-1.69-2.64-2.59-.87 1.09-2.06 2.03-3.45 2.76-.29-.57-.32-.63-.75-1.15 1.79-1.05 2.65-1.77 3.42-2.83-.57-1.07-.93-2.25-1.12-3.44-.25.51-.55 1.02-.9 1.54-.38-.42-.52-.54-1.06-.9.83-1.12 1.18-1.86 1.65-3.29.42-1.26.63-2.17.92-3.85l1.28.4c.21.06.25.09.25.17 0 .11-.08.17-.33.24-.17.79-.32 1.5-.48 2.13h2.25c.57 0 1.33-.01 1.79-.04v1.46h-.02zm-4.44-.04l-.03.1c.2 1.43.48 2.83 1.05 4.16.62-1.33.87-2.82 1.07-4.26h-2.09zm11.31 2.61c-.32.42-.66.81-1.04 1.17.34.02.83.03 1.12.03h4.54l.17-.21.84.76c.1.11.13.17.13.26 0 .07-.01.13-.08.18-.06.04-.25.1-.33.12-.27 2.42-.45 3.1-.88 3.78-.25.39-.57.6-1.05.71-.3.06-.69.09-1.75.09-.04-.67-.1-.9-.31-1.5.34.03.75.03.88.03.66 0 .9-.1 1.09-.51.22-.46.39-1.16.54-2.37h-1.98c-.61 1.5-1.09 2.15-2.13 2.9-.96.69-1.84 1.06-3.7 1.57-.18-.58-.32-.93-.56-1.32 1.91-.44 2.85-.83 3.69-1.53.54-.45.84-.83 1.18-1.62h-.3c-.41 0-.87.02-1.18.03v-1.32c-.08.06-.14.14-.21.2-.84.79-1.52 1.26-3.03 2.04-.25-.51-.42-.77-.86-1.21 1.46-.71 2.49-1.4 3.32-2.27-.83 0-2.17.03-2.99.06v-1.46c.77.03 2.13.06 2.99.06h1.06c.23-.34.45-.73.65-1.15h-.6c-.82 0-2.17.03-2.98.06v-1.46c.55.02 1.42.04 2.17.06-.58-1.04-.87-1.44-1.44-2.03l1.06-.71c.79.74 1.18 1.23 1.75 2.25l-.83.48h1.41c.21-.67.36-1.3.71-3.09l1.37.31c.19.04.29.11.29.21 0 .1-.09.17-.32.24-.24 1.11-.41 1.8-.54 2.33h1.92l-.51-.41c.87-.92 1.14-1.26 1.83-2.38l1.33.69c.09.05.15.12.15.2 0 .11-.08.13-.33.15-.88 1.06-1.11 1.33-1.54 1.75h.17c.95 0 2.22-.03 2.99-.06v1.46c-.79-.03-2.07-.06-2.99-.06h-.66c.21.4.43.79.7 1.15h.99c.95 0 2.22-.03 2.99-.06v1.46c-.74-.03-1.89-.06-2.78-.06.79.74 1.63 1.26 3.06 1.92-.4.44-.63.75-.87 1.22-1.73-.96-2.75-1.71-3.69-2.81l-.29-.33h-4.36.02zm1.41-2.49c-.17.42-.35.79-.54 1.15h2.58c-.19-.38-.39-.75-.55-1.15h-1.49zM20.1 78.76c-1.56 1.18-3 2.86-3.53 4.08.39-.17.87-.26 1.41-.26 2 0 3.38 1.58 3.38 3.87 0 2.42-1.5 4.08-3.67 4.08-2.29 0-3.81-1.71-3.81-4.32 0-2.8 1.66-5.62 4.39-7.45h1.83zm-.53 7.74c0-1.5-.79-2.53-1.95-2.53S15.66 85 15.66 86.5c0 1.5.83 2.54 2 2.54s1.92-1.02 1.92-2.54h-.01zm8.75-4.88c0 1.54-1 2.75-2.29 2.75s-2.29-1.2-2.29-2.75 1-2.74 2.29-2.74 2.29 1.2 2.29 2.74zm4.5-2.65l-6.64 11.4h-1.44l6.64-11.4h1.44zm-7.87 2.65c0 .98.45 1.64 1.08 1.64.63 0 1.06-.66 1.06-1.64 0-.98-.43-1.63-1.06-1.63-.63 0-1.08.67-1.08 1.63zm8.87 6.09c0 1.53-1 2.75-2.28 2.75-1.28 0-2.29-1.21-2.29-2.75s1-2.76 2.29-2.76 2.28 1.21 2.28 2.76zm-3.36 0c0 .96.44 1.64 1.07 1.64.63 0 1.08-.68 1.08-1.64 0-.96-.44-1.63-1.08-1.63-.64 0-1.07.67-1.07 1.63zm11.53-8.95c2.94 0 4.92 2.37 4.92 5.91s-1.98 5.91-4.92 5.91-4.91-2.38-4.91-5.91c0-3.53 1.96-5.91 4.91-5.91zM42 89.04c1.88 0 3.04-1.69 3.04-4.38s-1.17-4.38-3.04-4.38-3.06 1.69-3.06 4.38 1.17 4.38 3.06 4.38zm13.54-5.33v1.52h-4.58v5.14h-1.77v-11.4h6.75v1.51h-4.98v3.22h4.58v.01zm8.76 0v1.52h-4.58v5.14h-1.77v-11.4h6.75v1.51h-4.98v3.22h4.58v.01z" fill="#000"/></g><defs><clipPath id="clip0_2036_3592"><path fill="#fff" d="M0 0h305v120H0z"/></clipPath></defs></svg>