<svg width="305" height="120" fill="none" xmlns="http://www.w3.org/2000/svg"><g clip-path="url(#clip0_2036_3542)"><path d="M269.62 0c0 3.04-2.46 5.5-5.5 5.5s-5.5-2.46-5.5-5.5H0v120h258.62c0-3.04 2.46-5.5 5.5-5.5s5.5 2.46 5.5 5.5H305V0h-35.38z" fill="#F9B1BF"/><path d="M282.02 86.63c0-.5.06-1 .17-1.48.11-.48.31-1 .58-1.56h1.61c-.31.55-.54 1.05-.68 1.51-.14.46-.21.95-.21 1.45 0 .63.13 1.2.39 1.71s.63.9 1.1 1.18c.47.28 1 .42 1.58.42.58 0 1.12-.14 1.59-.42.47-.28.83-.67 1.09-1.18.26-.51.38-1.08.38-1.71 0-.49-.07-.95-.21-1.39-.14-.44-.39-1-.76-1.67h1.61c.3.58.51 1.1.64 1.59s.19 1.04.19 1.69c0 .93-.19 1.77-.56 2.51-.37.74-.91 1.32-1.61 1.74-.7.42-1.47.63-2.3.63-.89 0-1.69-.22-2.41-.65a4.3 4.3 0 01-1.64-1.79c-.38-.76-.58-1.62-.58-2.57l.03-.01zm0-10.1c0-.92.19-1.75.57-2.48.38-.73.92-1.32 1.64-1.76.72-.44 1.5-.65 2.35-.65.85 0 1.6.21 2.31.64.71.43 1.26 1.01 1.65 1.75.39.74.59 1.58.59 2.51 0 .93-.2 1.75-.6 2.5-.4.75-.94 1.34-1.64 1.76-.7.42-1.47.63-2.31.63-.84 0-1.58-.21-2.29-.63-.71-.42-1.27-1-1.67-1.73-.4-.73-.59-1.58-.59-2.54h-.01zm4.55 3.13c.59 0 1.12-.13 1.59-.4s.83-.64 1.09-1.11c.26-.47.39-1.01.39-1.62 0-.91-.29-1.66-.86-2.24-.57-.58-1.31-.88-2.21-.88-.59 0-1.12.13-1.59.4-.47.26-.84.64-1.09 1.12-.26.48-.39 1.02-.39 1.62 0 .6.13 1.14.39 1.62.26.48.62.85 1.09 1.11.47.26 1 .39 1.59.39v-.01zm-4.44-12.05h5.16c.53 0 .95-.08 1.26-.24.31-.16.57-.42.77-.78.2-.36.3-.78.3-1.26 0-.52-.1-.97-.29-1.34-.19-.37-.46-.63-.79-.8-.33-.17-.79-.25-1.38-.25h-5.05v-1.71h5.27c1.19 0 2.11.36 2.75 1.07.64.71.96 1.73.96 3.03 0 .82-.15 1.53-.44 2.14-.29.6-.71 1.06-1.27 1.38-.55.32-1.2.48-1.95.48h-5.33v-1.72h.03zm0-12.48c0-.83.24-1.5.72-2.02s1.1-.78 1.86-.78 1.39.26 1.86.79c.47.53.71 1.22.71 2.08v1.65H291v1.71h-8.87v-3.43zm3.81.42c0-.46-.11-.81-.31-1.07-.21-.26-.52-.38-.93-.38-.82 0-1.23.53-1.23 1.57v1.17h2.47v-1.29zm-3.92-9.91c0-.92.19-1.74.57-2.48.38-.74.92-1.32 1.64-1.75.72-.43 1.5-.65 2.35-.65.85 0 1.6.21 2.31.64.71.43 1.26 1.01 1.65 1.75.39.74.59 1.58.59 2.51 0 .93-.2 1.75-.6 2.5-.4.75-.94 1.34-1.64 1.75a4.5 4.5 0 01-2.31.63c-.84 0-1.58-.21-2.29-.63-.71-.42-1.27-1-1.67-1.73-.4-.73-.59-1.58-.59-2.54h-.01zm4.55 3.13c.59 0 1.12-.13 1.59-.4s.83-.64 1.09-1.12c.26-.47.39-1.01.39-1.62 0-.91-.29-1.66-.86-2.24-.57-.59-1.31-.88-2.21-.88-.59 0-1.12.13-1.59.4s-.84.64-1.09 1.12c-.26.48-.39 1.02-.39 1.62 0 .6.13 1.14.39 1.62.26.48.62.85 1.09 1.11.47.26 1 .39 1.59.39zm-4.44-11.91l6.19-5.27h-6.19v-1.68H291v1.47l-6.29 5.3H291v1.68h-8.87v-1.5z" fill="#000"/><path d="M83.72 36.1v50.2h-9.2V36.1h9.2zm40.68 0v8.48h-15.92V55.4l.93-.07h.75c3.07 0 5.84.66 8.34 1.99 2.49 1.33 4.44 3.19 5.84 5.59 1.4 2.4 2.1 5.09 2.1 8.08 0 4.72-1.59 8.56-4.76 11.52-3.17 2.96-7.35 4.44-12.52 4.44-4.6 0-8.67-.95-12.22-2.84V75.7c3.74 2.3 7.32 3.45 10.74 3.45 2.68 0 4.92-.75 6.72-2.25 1.8-1.5 2.7-3.4 2.7-5.7 0-2.59-1.03-4.61-3.09-6.05-2.06-1.45-4.86-2.17-8.41-2.17-1.68 0-3.53.22-5.57.65V36.1h24.37zm16.76 23.23c1.02 0 1.97.26 2.87.77.89.51 1.6 1.22 2.12 2.13.52.91.78 1.87.78 2.9a5.7 5.7 0 01-.77 2.88 5.75 5.75 0 01-2.12 2.12c-.9.52-1.86.78-2.88.78-1.02 0-2.02-.26-2.92-.77-.9-.51-1.61-1.22-2.13-2.12-.52-.9-.77-1.86-.77-2.89s.26-2.02.79-2.92c.53-.9 1.24-1.61 2.15-2.12.91-.51 1.87-.76 2.88-.76zm16.26 0l-17.1 25.75h-3.02l17.1-25.75h3.02zm-19.02 5.8c0 .78.27 1.45.81 2 .54.56 1.19.84 1.96.84s1.4-.27 1.92-.82c.53-.54.79-1.22.79-2.02s-.26-1.46-.78-2.02-1.17-.84-1.93-.84-1.4.28-1.95.84c-.55.56-.82 1.23-.82 2.01v.01zm15.2 8.35c1.02 0 1.98.26 2.88.79.9.53 1.61 1.24 2.12 2.13.51.89.76 1.86.76 2.9 0 1.04-.26 1.99-.77 2.88a5.77 5.77 0 01-2.11 2.11c-.89.52-1.85.78-2.88.78-1.03 0-2.01-.25-2.91-.76-.9-.51-1.61-1.21-2.13-2.11-.52-.9-.78-1.86-.78-2.89s.26-2 .79-2.9c.53-.9 1.25-1.62 2.16-2.14a5.71 5.71 0 012.87-.78v-.01zm-2.77 5.83c0 .81.28 1.49.83 2.03.55.54 1.2.81 1.94.81s1.38-.27 1.92-.8.81-1.21.81-2.04c0-.75-.27-1.42-.8-2-.53-.58-1.18-.87-1.93-.87s-1.42.29-1.96.86c-.54.57-.81 1.25-.81 2.01zm27.97-19.98c2.6 0 4.94.54 7.02 1.61 2.08 1.07 3.73 2.62 4.97 4.64 1.23 2.02 1.85 4.23 1.85 6.64 0 2.41-.6 4.52-1.81 6.53-1.2 2.01-2.86 3.56-4.96 4.67-2.1 1.11-4.47 1.66-7.11 1.66-2.64 0-4.96-.56-7.09-1.69s-3.78-2.67-4.97-4.64c-1.19-1.97-1.78-4.15-1.78-6.53s.59-4.46 1.78-6.49c1.19-2.03 2.82-3.6 4.91-4.72 2.08-1.12 4.48-1.68 7.19-1.68zm-8.86 12.88c0 1.67.38 3.16 1.13 4.49a7.87 7.87 0 003.15 3.09c1.34.73 2.87 1.1 4.57 1.1 2.58 0 4.69-.81 6.35-2.43 1.66-1.62 2.49-3.7 2.49-6.25 0-1.67-.37-3.17-1.12-4.5a7.796 7.796 0 00-3.16-3.1c-1.36-.73-2.89-1.1-4.59-1.1-1.7 0-3.23.37-4.59 1.1-1.36.74-2.4 1.77-3.14 3.09-.74 1.32-1.1 2.82-1.1 4.5l.01.01zm44.76-12.56v3.79h-10.46v6.49h10.46v3.83h-10.46v11h-4.85v-25.1h15.31v-.01zm21.93 0v3.79h-10.46v6.49h10.46v3.83h-10.46v11h-4.85v-25.1h15.31v-.01z" fill="#040000"/><path d="M46 0H0v120h46V0z" fill="#FCBF42"/><path d="M21.63 15.08l1.04.96c.08.08.1.15.1.21 0 .13-.17.24-.55.36-.27.5-.55.98-.87 1.44-.29.43-.62.82-.96 1.21v.81c.13.08.29.15.42.23.33-.36.63-.72.9-1.12.21-.29.39-.58.57-.89l1.22.83c.09.06.13.13.13.21 0 .12-.12.17-.44.15-.58.69-.88 1.02-1.33 1.48.32.24.39.3 1.33 1.17l-1 1.11c-.54-.63-1.12-1.25-1.8-1.74v2.4c0 1.38.02 2.42.04 3.09h-1.48c.03-.67.04-1.71.04-3.09v-3.18c-.53.51-1.02.92-1.71 1.44-.27-.62-.53-1.06-.78-1.35 2-1.44 3.13-2.57 4.05-4.07h-2.5c-.41 0-.88.02-1.2.03v-1.39c.33.01.87.01 1.2.01H19v-.9c0-.67 0-.85-.03-1.38l1.46.09c.17.01.27.07.27.15 0 .11-.09.18-.3.3v1.74h1.02l.22-.32-.01.01zm7.86-.55l.96.88c.08.06.11.14.11.21 0 .11 0 .12-.36.26 0 1.96 0 3.91-.08 5.86-.03 1.05-.06 3.29-.66 4.32-.56.96-1.74.88-2.71.88h-.44c-.09-.86-.1-.95-.34-1.61.527.02.86.03 1 .03 1.05 0 1.26-.17 1.46-1.17.19-1.07.29-3.42.29-7.53v-.45h-2.04v1.72c0 3.39-.45 5.16-1.74 6.73-.75.95-1.46 1.53-2.77 2.34-.27-.54-.44-.78-.89-1.25 1.43-.87 2.1-1.47 2.76-2.43.87-1.31 1.18-2.73 1.18-5.49V16.2c-.62.01-1.23.01-1.84.04v-1.47c.63.03 1.65.04 2.38.04h3.46l.27-.32v.04zM19.05 44.89h-1.51c.007-.48.02-1.654.04-3.52v-5.7c-.007-1.92-.02-3.05-.04-3.39.79.04 1.96.06 2.98.06h6.46c1.02 0 2.19-.01 2.99-.06-.02.346-.033 1.477-.04 3.39v5.7c.007 1.847.02 3.027.04 3.54h-1.51v-.57h-9.41v.55zm9.41-11.19h-9.41v9.27h9.41V33.7zm-6.29 8.01h-1.49c.03-.34.03-.84.03-1.59v-3.55c0-.48-.01-1.05-.03-1.32.33.01.63.03 1.08.03h3.87c.43 0 .75-.02 1.08-.03-.03.27-.04.84-.04 1.32v3.34c0 .71.01 1.21.04 1.56h-1.5v-.48h-3.04v.72zm3.05-5.09h-3.04v3h3.04v-3zm-.5 12.41c.2.09.21.11.21.2 0 .1-.04.15-.33.25-.12.24-.33.62-.63 1.14h2.96l.24-.27 1.18.99c.18.15.2.16.2.25 0 .12-.06.17-.36.3-1.09 3-2.17 4.72-4.02 6.39-.96.87-1.79 1.44-3.65 2.54-.31-.62-.43-.78-1.05-1.31 3.83-2.01 5.7-4.02 6.97-7.47h-3.3c-.88 1.31-2.14 2.61-3.48 3.63-.39-.58-.43-.63-1.09-1.18 1.42-1 2.55-2.14 3.43-3.51.66-1.02 1.05-1.8 1.3-2.59l1.41.64h.01zm-.12 15.24c.15.01.25.07.25.15 0 .09-.08.17-.29.3-.01.6-.01 1.11-.01 2.57v5.83c0 1.29.01 2.22.04 3.07h-1.71c.03-.66.04-1.69.04-3.07v-5.83c0-1.7-.01-2.64-.06-3.12l1.72.11.02-.01zm-3.04 23c.11.04.15.09.15.17 0 .09-.04.15-.27.25-.96 2.16-1.41 2.82-2.82 4.2-.3-.62-.62-.98-1.11-1.33 1.49-1.41 2-2.16 2.61-3.81l1.44.53v-.01zm3 2.23c0 1.33.01 2.41.04 3.07h-1.67c.03-.67.04-1.69.04-3.07v-3.9h-3.25c-.49 0-1.35.01-1.8.04V84.1c.45.03 1.21.04 1.8.04h3.25c-.01-1.54-.03-2.46-.06-2.76l1.71.11c.15.01.24.07.24.17 0 .07-.08.15-.29.28 0 .23-.02.38-.03 2.21h3.22c.57 0 1.35-.01 1.8-.04v1.54c-.46-.03-1.3-.04-1.8-.04h-3.22v3.9l.02-.01zm2.19-2.76c1.39 1 2.4 2.06 3.3 3.48l-1.35 1.11c-.78-1.39-1.65-2.44-2.98-3.6l1.04-.99h-.01zm3.64-4.69c0 .85-.67 1.53-1.53 1.53s-1.53-.68-1.53-1.53.69-1.53 1.53-1.53c.84 0 1.53.69 1.53 1.53zm-2.32 0c0 .45.34.81.79.81s.81-.36.81-.81c0-.45-.36-.79-.81-.79-.45 0-.79.34-.79.79zm-8.58 15.39c1.56.81 2.13 1.23 3.16 2.37l-1.18 1.3c-1.08-1.2-1.86-1.83-2.97-2.43l.99-1.25v.01zm-.57 8.46c2.26-.96 3.55-1.7 5.26-2.99 2-1.53 3.17-2.71 4.71-4.81.3.53.55.86 1.04 1.42-1.98 2.38-3.09 3.48-4.84 4.8-1.47 1.11-2.58 1.79-4.71 2.87-.06.21-.12.31-.23.31-.07 0-.19-.07-.25-.18l-.97-1.42h-.01z" fill="#000"/><path d="M264.12 7.38v.5" stroke="#040000" stroke-linecap="round" stroke-linejoin="round"/><path d="M264.12 10.92v99.68" stroke="#040000" stroke-linecap="round" stroke-linejoin="round" stroke-dasharray="1.01 3.04"/><path d="M264.12 112.12v.5" stroke="#040000" stroke-linecap="round" stroke-linejoin="round"/></g><defs><clipPath id="clip0_2036_3542"><path fill="#fff" d="M0 0h305v120H0z"/></clipPath></defs></svg>