<svg width="31" height="31" fill="none" xmlns="http://www.w3.org/2000/svg"><g clip-path="url(#clip0_2036_3566)" fill="#000"><path d="M15.76 0h-.52a1.03 1.03 0 00-1.03 1.03v28.94c0 .569.461 1.03 1.03 1.03h.52a1.03 1.03 0 001.03-1.03V1.03A1.03 1.03 0 0015.76 0z"/><path d="M0 15.24v.52c0 .569.461 1.03 1.03 1.03h28.94A1.03 1.03 0 0031 15.76v-.52a1.03 1.03 0 00-1.03-1.03H1.03A1.03 1.03 0 000 15.24z"/></g><defs><clipPath id="clip0_2036_3566"><path fill="#fff" d="M0 0h31v31H0z"/></clipPath></defs></svg>