<svg width="268" height="256" fill="none" xmlns="http://www.w3.org/2000/svg"><path d="M27.174 98.437c.057.19.569.426.759.464.17.029.568-.227.995.076.133.095.104.285.142.332.2.209 1.868.948 2.409 1.432.644.578.407 1.014 1.555.881.256-.028 1.384-.341 1.555-.474.218-.17.066-.426.19-.616.094-.142.445-.208.615-.332.351-.265.588-1.052.825-1.46.598-1.005 1.27-1.972 1.868-2.986l-.54-.2c-.048-.332.085-.92.474-.948.275-.019.455.2.74.142-.067-.246.236-.36.265-.483.066-.228-.645-.417.085-.853.2-.114.56-.143.579-.162.019-.019.01-.16.075-.256.048-.076.162-.113.19-.218.114-.37-.35-1.043-.654-1.204-.161-.085-.389-.047-.408-.066-.047-.038.066-.455-.066-.673-.285-.465-1.128-.75-1.223-.94-.086-.18-.038-.322-.076-.464-.01-.047-.702-.588-.74-.606-.938-.304-.445-.39-.74-.674-.104-.094-1.052-.663-1.28-.806-.36-.218-1.118-.71-1.469-.825-.057-.019-.133 0-.2 0 .115.38-.445 1.12-.814.882-.712-.455.227-1.204.132-1.28-.36.048-.682-.218-1.005-.275-.208-.028-.464.048-.663-.01-.285-.084-.38-.265-.958-.388-.285-.057-.531-.218-.872-.133.18.939-.692.636-1.015 1.081-.502.692-.967 1.716-1.432 2.475-.16.265-1.156 1.507-.92 1.697 1.195.389.133 1.356-.672.673.037.247-.219.436-.256.626-.057.237.132.36.132.522 0 .037-.133.445-.151.464-.029.029-.2 0-.304.029-.54.19-.73.597-.9 1.109.037.123.52.455.673.55.701.445 1.336.929 1.886 1.612.218.275.617 1.08.806 1.223.086.066.143-.057.266-.02.332.096.37.285.53.55-.094.153-.454.342-.398.532m8.031.199c-.379-.218-.72-1.024-.123-1.195.816-.237 1.043.958.123 1.195zm.266-2.958c-.332.094-.427-.304-.74-.266-.066-.72.636-1.128 1.072-.455.057.19-.18.683-.332.73m.208-2.702c-.493.028-.881-.067-.938-.588.313-.313.18-.626.72-.474.522.152.18.702.209 1.071m.882 4.153c-.674-.493-.598-.844.133-1.185.872.36.692.939-.133 1.185zm1.744-5.376c.332.275.39.664.342 1.072-.399.094-.787.331-1.062-.076-.427-.654.19-.787.72-.996zm-2.076 2.56l-.076-.673c.294-.37.531-.474 1.014-.398.342.825-.104 1.157-.938 1.071zm.93-3.764c.047.38.17.55 0 .939h-.864c-.682-.768-.028-1.328.863-.939zm-2.21-1.488c.161-.048.768.047.863.142.038.038.16.483.142.597-.047.152-.702.38-.863.332-.398-.114-.502-.967-.142-1.062m-1.555 6.997c.18.029.294-.123.465-.142.89-.085.834 1.422-.266 1.214-.313-.086-.19-.797-.2-1.072zm0-1.886v-.806c.389-.143.55-.143.939 0 .094.881-.076 1.137-.94.805zm.133-2.703a2.054 2.054 0 010-1.071c.35.019.73-.123.938.199.038.654-.256 1.005-.938.872zm-.133-3.764c.465-.19.958-.246 1.062.35 0 .039-.114.428-.133.447-.066.066-.588.18-.73.142-.322-.209-.19-.598-.2-.939zm0 11.378c.057-.076.284-.313.341-.332.588-.17.835.948.389 1.072-.474.132-1.128-.228-.74-.74m-2.948-4.987c-.133-.474.388-.958.862-.863.086.019.19.161.351.123v.939c-.218-.076-.445.151-.587.123-.124-.019-.588-.2-.626-.322zm1.204-3.565v.73l-.209.199c-1.356.379-1.071-1.517.209-.93zm0 9.159c-.759.218-1.233.028-.939-.806h.939v.806zm0-2.902c-.114.39-.996.57-1.072.01-.094-.692.143-.825.806-.74-.019.304.37.399.275.73m.607 4.381c-.38-.104-.303-.958.275-1.072.522-.104.834 1.375-.275 1.072zm.389-2.693c-.654.067-.815-1.09-.389-1.204.683-.19 1.261.806.389 1.204zm.284-3.631c.38.616-.37.787-.881.673-.19-.645.464-1.347.881-.673zm-.019-2.03c-.227.067-.796.048-.862-.198-.057-.21-.048-.797.199-.863.929-.256 1.109.938.663 1.062zm.218-3.63c.124.672-.483.995-1.08.938-.408-.996.227-1.185 1.08-.939zm-2.161-1.556c.654-.227.749.503.673 1.015-.18-.038-.304.142-.465.142-.625 0-.948-.891-.208-1.157zm-.607 5.063c-.19.285-1.043.294-1.147-.075-.114-.418.199-.607.464-.863.36.208 1.034.407.673.938m-1.128 2.617c-.028-.104.218-.56.341-.588a.639.639 0 01.474.057c.759.465-.322 1.385-.806.531m.797-5.243c-.275.19-.531-.152-.815-.076.113-.341.113-.464 0-.806.19.048.303-.142.474-.142.038 0 .445.133.464.152.02.019.142.407.133.445-.01.057-.2.38-.256.427zm-.076-3.84c.683.664.133 1.252-.74 1.071-.075-.644 0-1.052.74-1.071zm-.806 11.311c.057-.085.436-.274.54-.274.039 0 .446.132.465.151.02.02.142.408.133.446-.019.114-.275.483-.389.56-.16.103-.597 0-.664-.077-.104-.095-.199-.625-.085-.806zm-1.27-.815c-.124-.958 1.071-1.128 1.062-.076-.399.597-.57.247-1.062.076zm-.133-2.892c.265-.56.626-.711 1.204-.474 0 .711-.768 1.147-1.204.474zm.93-3.3c.274.598.16 1.148-.598.93-.673-.2-.161-1.223.597-.93zm-.807-2.768c.484-.36.588-.019 1.081.076.2 1.033-1.28 1.593-1.213.332 0-.171-.029-.285.132-.408zm-1.28 1.422c.285-.455 1.233.114.948.55-.047.067-.36.38-.417.398-.104.029-.56-.104-.588-.132-.142-.133-.057-.636.057-.806M25.23 94.18c-.322-.21-.208-.456-.218-.797l.872-.133c.57.512-.028 1.337-.654.93zm1.148-2.058c.018-.066.265-.322.331-.341.38-.114.797.275.863.606.095.531-1.517.844-1.194-.265zm.047 3.29c-.19-.294.047-.53.076-.806h.796c-.085.36.256.209.275.332.048.588-.825.958-1.147.474zm19.996 18.546c-.199-.74-.483-1.479-.71-2.219.227.749.511 1.479.71 2.219z" fill="#fff"/><path d="M42.401 94.265c-.626.815-1.27 2.114-1.82 3.034-.067.114-.228.2-.323.35-.303.522-.493 1.13-.426 1.736.019.209.094.578.132.806.18 1.024 1.385 3.451-.606 3.167-.768-.105-1.224-1.186-1.612-1.754-.418.55-.74 1.374-1.366 1.735-.208.123-1.137.502-1.355.54-.427.076-.892-.019-1.318.029a.467.467 0 00-.2.208c-.37.816-.749 1.963-.938 2.835-.75 3.451-.768 7.946-.161 11.435.19 1.09.938 2.465-.209 3.29-.939-.114-1.536-.91-1.877-1.745-.512-1.251-.759-3.034-.873-4.39l-.275-.606c-.218 1.043-.625 2.038-.92 3.053-1.384 4.75-2.512 9.652-3.251 14.535-.048.303-.247.777-.275 1.071-.038.408.037.863 0 1.28.805-.057 1.706.076 2.493 0 .313-.028.93-.303 1.214-.284.275.019.92.36.995.625.238.816-.701 1.347-1.327 1.612-.256.105-1.08.427-1.29.465-.673.123-1.65-.085-2.36 0-.067.417-.323 1.583 0 1.82 1.043.541 2.105 1.375 3.195 1.792 2.133.816 5.234.294 7.32-.578 3.195-1.327 5.83-4.959 5.518-8.495-.02-.237-.247-.541-.133-.873-.227-.047-.341.114-.474.275-.616.73-1.157 2.029-1.754 2.826-.19.256-.75.72-1.062.663-.161-.028-.702-.455-.749-.606-.19-.664.303-1.849.588-2.485 1.725-3.83 5.556-6.058 6.921-10.05 1.005-2.939.465-5.3-.265-8.182-.711-.626-1.214-.816-1.072-1.906.19-1.422 1.413-3.072 2.494-3.973.635-.531 1.403-.825 2.086-1.28 2.674-1.754 6.656-5.67 7.528-8.78.436-1.564.588-3.925-.512-5.234-.37-.445-1.147-.834-1.706-.986-1.859-.493-4.248.02-6.021.683-1.034.389-3.357 1.489-4.001 2.332M33.1 78.753c-.114.427-.768.323-.797.36-.019.02 0 .152-.075.257-.57.929-1.319 1.962-1.802 2.92-.104.199-.2.341-.152.588l.531-.75c.645-.322 1.062.475.673 1.015.863.256 1.726.54 2.57.872.209.086.427.275.597.342.36.142.057-.228.057-.332 0-.294.455-.493.74-.465l.35.465-.142.607-.398.142c.265-.047.711.38.872.38.095 0 .436-.21.56-.228.038 0 .426.113.445.132l.133.351c.029.161-.209.256-.057.455.029.038.654.512.692.522 1.024.332.512.436.74.682.047.048.91.626 1.024.664.607.209.114.142.38.569.047.085.568.72.606.74.161.094.474.151.673.199 0 .37-.095.825.408.806l.673-1.214c-1.1-.057-.787-1.308.266-1.071v.256c.265.094.559-.39.55-.607 0-.351-.437-.607.208-.996.266-.161.341-.038.389-.038.275-.047.55-.976.673-1.194.076-.133.313-.256.408-.399.569-.92 1.024-1.905 1.687-2.759-.16-.294-.464-.132-.673-.265-.398-.247.067-.958.465-1.015l.749.531c-.029-.275.256-.483.275-.74.019-.246-.152-.388-.152-.54 0-.047.133-.445.152-.464.133-.133.768-.124.796-.152.029-.029 0-.114.029-.17.114-.2.284-.342.37-.58.246-.71.151-.33.492-.72.18-.208 1.09-1.849 1.214-2.152.057-.142.275-.74.2-.806l-.399-.208v-.664c0-.123.408-.057.408-.408-.256-1.014-.664-1.944-1.09-2.892l-.797-.151c.038-.162-.114-.266-.133-.351-.019-.124.133-.237.114-.37-.019-.114-.275-.493-.389-.56-.256-.16-.36.038-.474.029-.095 0-.284-.161-.464-.095v-.806c-.266-.01-.427-.227-.674-.35-.142-.067-.625-.162-.663-.219-.038-.047.019-.19-.02-.237-.104-.113-1.166-.388-1.402-.426-.143-.02-.323.019-.475 0v.673h-.805l-.133-.673c-.048-.057-.133.104-.218.123-1.024.17-1.679.36-2.56.806-.143.076-.285.161-.456.151.2.73.095 1.1-.739 1.081l-.076-.265c-.085-.114-.711.294-.806.474-.066.228.351.38.398.55.038.142-.19.284-.132.455-.56.01-1.015-.161-1.195.493-.066.247-.076.778-.294.986-.038.038-.209 0-.303.029-.39.113-1.811 2.986-2.105 3.489l.73-.398c.502.322.73.872 0 1.061-.303.076-.834-.445-.73-.663 0 .01-.142.028-.2.133-.132.208-.246.426-.198.673h.256c.066.682.085 1.28-.73 1.223-.247-.02-.256-.256-.541.133-.398.559-.028.843-.076.995m-1.1 3.025c-.095-.778.105-1.195.939-1.072.35.72-.209 1.186-.939 1.072zm16.716-9.283c.067-.066.588-.18.73-.142.399.114.237 1.309-.388 1.195l-.342-.133s-.151-.417-.151-.465c0-.047.132-.445.151-.464m.067 2.702c.208-.057.796-.047.862.2.275.985-1.033 1.127-1.204.52-.028-.085.2-.682.342-.72zm-1.423 2.418c-.151-.35-.246-.93.209-1.062 1.119-.322.939 1.375-.209 1.062zm0-6.542c.465-.342 1.072-.076.93.53-.133.579-.57.513-1.062.484.038-.284-.114-.834.132-1.014zm0 2.768c.351-.047.712.057.939.342l-.133.73c-.995.113-1.11-.2-.806-1.081m-1.611 4.778v-.113c.123-.124.16-.427.34-.474 1.404-.39.892 2.085-.34.587zm.132-3.09c.332-.437.465-.36.939-.2v.806c-.228-.019-.341.19-.588.124-.389-.105-.645-.36-.35-.73zm.01-5.708s.483-.171.588-.133c.455.133.36.72.208 1.071-.417.038-.853-.057-.929-.493 0-.038.114-.426.133-.445zm.199 2.56c.948-.275 1.09 1.697 0 1.052-.474-.284-.474-.91 0-1.052zm-.958 10.894c-.815.133-.995-1.024-.388-1.195.559-.161 1.09.958.388 1.195zm-.73-14.744c.086-.294.673-.199.93-.199-.02.303.37.398.274.73-.18.597-1.47.455-1.204-.53zm1.072 5.452c.075.36-.095.683-.399.882-.208.133-.398-.152-.673-.076-.047-.853.303-1.024 1.081-.806m-1.09-2.825c.398.009.483-.228.862.009.54.341.048 1.08-.521.92-.237-.067-.408-.702-.341-.939m.142 5.537c.246.02.597-.076.806.067.426.275-.105 1.166-.683.815-.408-.256-.227-.502-.133-.872m-.132 2.816c.379.01 1.393-.162 1.204.464-.01.048-.332.38-.398.418-.54.34-.967-.351-.816-.882m-2.683 6.466c-.104-1.08.057-1.602 1.071-.872.038.777-.331.986-1.071.872zm1.071-3.176c-.16.616-.995.692-1.071.151-.085-.606.18-.967.806-.872-.02.313.35.38.265.72zm-1.071-6.116l.939-.133c.094.531-.076 1.356-.73.93-.313-.209-.21-.446-.21-.797zm0-2.702l.939-.133.132.806c-.872.37-1.175.465-1.071-.673zm1.356 7.348c.019-.057.417-.455.474-.474.303-.095.682.294.597.597-.142.493-1.251.493-1.062-.123m.72-5.063c-.691.2-1.137-.825-.255-1.062.284-.076.426.142.588.332.066.227-.152.588-.332.73zm.21 1.764v.938c-.806.209-1.148-.114-.806-.938h.805zm-.076 6.59c-.92.255-1.148-.883-.522-1.063.759-.227.958.948.522 1.062zm.066-14.944c.18.503.55.674-.076 1.053-.38.227-.635.208-.834-.2-.446-.89.133-.928.92-.853m-.143 2.693l.266.73c-.209.446-1.176.54-1.214.01-.047-.588.408-.806.948-.74zm-2.152-4.039c.36-.114.626-.218.948.057.37.322.256.977-.341 1.014-.825.048-.588-.436-.607-1.08m.806 3.773c-.237 0-.72.076-.797-.208-.37-1.328 1.413-1.053.797.208zm0 8.353c-.645.124-.948-.17-.939-.806.863-.303 1.318-.16.939.806zm-4.987 1.015c-.02-.256.132-.38.142-.607.332 0 .578-.085.806.2.54.672-.892 1.099-.948.407zm.132-6.201c1.043-.275 1.043.161.806 1.014-.853.143-1.204-.208-.806-1.014zm.209 9.368c-.313-.086-.18-.787-.209-1.072 1.261-.303 1.148 1.337.209 1.072zm1.147-5.253c.493-.085 1.223.256.882.815-.038.057-.228.247-.285.256-.104.029-.55-.104-.587-.132a3.675 3.675 0 01-.133-.342c-.029-.132.209-.37.123-.588m.01 2.826c.075-.076.502-.18.663-.076.664.417.105 1.517-.682.948-.228-.161-.105-.758.01-.872m1.82-1.498c.663.284.55.863 0 1.214-.655-.124-.645-.475-.598-1.072l.607-.142h-.01zm-.598-2.2c.01-.057.2-.389.256-.427.683-.455 1.138.863.607 1.015-.133.038-.664-.076-.73-.142-.019-.02-.142-.408-.133-.446zm.123 5.035h.806c.105.37.36 1.005-.199 1.08-.89.124-.853-.379-.606-1.08zm.133 3.85c-.379-.19-.133-.674-.123-1.006.228-.019.35-.16.597-.142.664.047.38 1.583-.474 1.157m.076-17.721c1.043-.303.986 1.204-.01 1.071-.559-.076-.388-.957.01-1.071zm-.341 2.825s.161 0 .265-.066c.17-.095.209-.341.54-.142.55.341.285 1.232-.34 1.413-.36-.114-.655-1.034-.465-1.205zm0 2.826l.872-.133c.322.209.19.597.2.939-.181-.029-.295.123-.465.142-.484.047-.825-.54-.607-.948zm-.142-1.015c.066.209-.446.55-.617.588-.607.152-.834-.882-.246-1.062.227-.066.806.275.863.465m-.873-3.157c.54-.418.797.331.74.805-.389.076-.635.313-.939-.066-.265-.332-.095-.512.2-.74zm.74 5.527l-.133.939c-.341-.02-.73.123-.939-.2-.038-.834.36-.938 1.072-.739zm-.939 8.22h.73c.465.257.114 1.091-.275 1.205a3.63 3.63 0 01-.455-.142 3.33 3.33 0 01-.151-.465c-.02-.256.142-.38.142-.607m-.531-5.86c-.304.2-.636-.018-.939-.075v-.939c.797-.35 1.394.2.939 1.015zm-.939-6.523l.939-.142c-.02.18.114.294.142.465.085.588-.427.948-.948.682-.465-.227-.142-.625-.123-1.005m-1.157 1.347c.427-.124.91.332.872.74-.047.511-.72.303-1.08.331-.172-.284-.133-.977.208-1.071zm.863 3.27c-.076.418-.456.598-.854.475-.464-.133-.256-.588-.208-.93.18.03.303-.151.464-.151.038 0 .446.133.465.152.019.019.142.407.133.445m-.854 2.266c.854-.246 1.27.854.38 1.053-.806.18-.958-.882-.38-1.053zm.256 2.703c.237.218.503.36.474.72-.066.778-1.213.436-1.223-.275 0-.436.503-.265.75-.455m-.873-.284c-.294-.067-.635.332-.882 0-.322-.436-.104-.607-.066-1.081h.73c.322.095.19.787.208 1.071m-.72-3.887c.93-.275.957 1.555-.029 1.09-.53-.256-.37-.976.029-1.09zm-1.565 1.479l.806.133c-.019.256.076.597-.056.806-.124.199-.57.18-.75.066-.312-.2-.047-.74 0-1.014m.351 2.711c.93-.218.598 1.09.247 1.195-.958.265-1.015-1.015-.247-1.195zM47.17 65.242c.54.284 1.498.891 1.972 1.261.475.38.882.939 1.347 1.347.095.085.17.246.332.199.076-.02.19-.209.275-.266 1.346-2.048 2.579-4.162 3.859-6.248.502-.816 1.213-1.688 1.659-2.513.133-.237.275-.436.199-.73-1.015-1.308-2.143-2.332-3.83-2.636-.171-.028-.37.029-.54 0-.219-.028-.37-.218-.665-.133-.644.702-1.062 1.66-1.574 2.466-1.128 1.801-2.285 3.565-3.365 5.385-.124.209-.949 1.29-.787 1.432.398.066.768.237 1.128.427m-2.902-2.987a71.13 71.13 0 00-1.327 2.105c-.19.199-.512.284-.844.341.342-.057.654-.142.844-.341.427-.711.882-1.404 1.327-2.105zm-8.097 5.613c-.313.322-.597.664-.853 1.005-.076.095-.133.2-.2.303.067-.094.124-.199.2-.303.256-.35.54-.683.853-1.005zm13.209 98.93l-.048.029s.019-.01.048-.029zm4.92-113.531c.692.151 1.953.815 2.512 1.26.475.38.882.94 1.347 1.347.095.085.17.246.332.199.483-.38.749-.806.882-1.413-.105-1.29-.408-3.242-1.755-3.783-.53-.218-1.232-.275-1.801-.18-.616.104-1.877.758-2.228 1.28-.19.284-.237.635-.417.93.294.416.74.274 1.118.36M32.36 153.619c.218.275.455.55.693.834-.238-.284-.465-.559-.693-.834-.388-.484-.777-.967-1.166-1.46.38.493.768.976 1.166 1.46zm62.464-32.266c.029.465.18 1.157.247 1.641.19 1.337.56 3.157 1.166 4.361.161.323.465.683.834.787.133.038.275 0 .39.019.91.19 1.895.18 2.834.266 4.267.417 8.533.919 12.8 1.346.152.019.284.171.398.133.342-.095.171-.958.209-1.28.588-5.272 6.049-8.989 11.122-8.154.189.028.862.294.938.275.294-.086.171-.531.209-.74.834-4.845 1.839-8.4 4.2-12.781.55-1.014 1.47-1.868 1.328-3.119-.617-5.452-3.053-10.847-8.723-12.573-5.263-1.602-10.838.57-15.133 3.68-2.095 1.516-3.849 3.337-5.461 5.318-.531.645-1.081 1.261-1.546 1.953-.028.209 0 .237.199.199.266-.037.484-.246.74-.341 3.527-1.299 7.339-.863 10.562 1.034 3.878 2.285 6.154 7.414 5.481 11.776-1.679 10.846-15.721 14.81-22.168 5.726-.19-.265-.228-.682-.607-.806.02.427-.028.863 0 1.28m-2.513-8.827c-.881-.095-1.772-.17-2.673-.246.9.066 1.792.151 2.674.246zm-25.874 18.992c.938-.949 2-1.878 3.3-2.295.037-.379-.02-.208-.2-.265-.787-.237-1.621-.332-2.399-.569-.275-.086-.521-.142-.701-.38-.162-.218-.294-.559-.143-.815.256-.417.474-.322.816-.398.294-.067.455-.19.815-.142 1.972.265 3.973.72 5.926.948 1.972.227 3.783-.038 5.66-.142 4.542-.247 9.273.208 13.758.407.152 0 .294 0 .398.142l.19-.322c-.284-.664-.569-1.356-.777-2.057-.626-2.162-.816-4.4-.693-6.571.038-.787-.075-1.659 0-2.427.029-.323.237-.873.275-1.204.029-.237-.019-.503 0-.74-1.147-.028-2.294.038-3.441 0-.91-.028-1.859-.18-2.835-.142-4.675.17-9.35.066-13.9.929-3.3.626-6.504 1.726-8.382 4.693-.17.275-.56.844-.673 1.081-.313.626-.626 2.674-.56 3.357.19 2.161 1.129 4.314 2.56 5.926.313.35.702.654 1.015 1.005m52.784-43.255c-.114 0-.228.01-.351.019.161 0 .322-.01.474-.01h-.133M63.554 133.67h-.028c-.104 0-.209 0-.313.009-.275.019-.569.048-.882.095.313-.038.607-.076.882-.095.114 0 .218-.009.332-.009m65.716-9.159c-.294-.398-.436-.977-.882-1.214.019.427-.028.863 0 1.28.105 1.612.617 4.115 1.242 5.632.086.199.332.778.446.901.199.227 1.451.901 1.754.939 2.095.284 4.229.35 6.343.531 3.878.341 7.822.758 11.719.948.474.019 1.46.066 1.868-.019.597-.133 1.621-.996 2.105-1.394 7.196-5.879 12.696-17.493 10.894-26.795-1.1-5.689-4.447-10.078-10.42-11.008-1.252-.19-2.522-.01-3.774.142-6.163.74-12.022 5.396-15.635 10.241-.303.407-.587.853-.881 1.28.085.199.246 0 .36-.048a12.211 12.211 0 019.756-.095c4.798 2.048 7.728 7.434 7.007 12.535-.919 6.438-6.817 11.292-13.274 10.704-.512-.047-.815-.038-1.346-.132-2.816-.522-5.575-2.153-7.273-4.447m-79.748 42.136s0-.057-.038-.067a1.105 1.105 0 00-.18-.322.843.843 0 01.18.322c.038.019.047.038.038.067zm11.283-8.164c-1.157-.977-2.418-1.128-3.755-1.64-1.726-.664-3.394-1.555-5.006-2.399-.787.882-1.47 1.906-1.802 3.053-.322 1.119-.502 2.494-.294 3.612.816 4.39 5.007 7.842 8.894 9.567.91.408 4.105 1.659 4.93 1.546 2.01-.256 4.02-.19 6.069-.275 3.034-.124 6.125-.38 9.159-.541 4.304-.227 8.628-.208 12.942-.398l.74-.275c-.92-.142-1.84-.246-2.74-.427-1.679-.341-3.367-.862-5.035-1.299-8.43-2.247-17.323-4.873-24.093-10.534m-20.499-15.35l-1.346-2.02c-.19-.047-.313.219-.474.332-1.953 1.47-4.674 2.456-7.073 2.636-.673.048-1.404-.038-2.096 0-.123.123.56 1.536.692 1.802 2.2 4.209 6.808 9.434 10.496 12.42 1.878 1.517 4.41 3.499 6.647 4.4.17.066.275.17.493.114l-.408-1.679c-.208-2.892.57-5.281 2.228-7.613.21-.294.598-.389.465-.873-.35-.464-.815-.948-1.138-1.422-.227-.341-.35-.929-.74-1.147-2.92-1.678-5.11-3.774-7.215-6.4-.16-.199-.379-.351-.54-.541m67.925 26.274c.351-.048 1.688.094 2.162.132 1.1.095 2.152.342 3.233.266 6.609-.436 13.132-1.147 19.674-1.887.569-.066 1.157.057 1.745-.142.17-.048.512-.835.692-1.062.739-.948 2.057-2.171 2.968-2.958.208-.18.455-.436.606-.673-.199 0-.388 0-.587.018-2.959.38-5.642.418-8.648.512-12.6.418-25.277.001-37.726-.805-7.936-.522-15.75-1.48-23.59-2.684-.237-.038-.39-.123-.598-.142.18.322.692.616 1.034.787 1.45.768 3.024 1.337 4.541 1.934 9.5 3.717 19.77 6.002 29.81 6.58 1.574.086 3.224.323 4.713.133m35.46 37.461c.209 0 .427.001.635-.009-.227 0-.464.009-.692.009h.057zm-90.937-69.878c1.129-.778 2.788-1.489 4.542-2.048-1.754.569-3.413 1.27-4.542 2.048zm99.11 44.933c-6.172.881-12.354 1.849-18.593 2.692-3.404.465-6.836.749-10.24 1.214-7.101.986-14.279 1.365-21.428 2.02-6.428.587-13.028 1.441-19.541 1.488-.171 0-.503-.066-.607.067l1.28.341c10.088.995 20.252 1.526 30.464 1.877 3.129.105 6.258.332 9.434.275 8.258-.151 16.507-.426 24.661-1.081 9.074-.73 18.072-2.01 27.079-3.508 4.371-.73 8.714-1.365 13.075-2.152.143-.029.323.028.474 0 .105-.341.19-.759.332-1.081 1.148-2.645 4.532-4.997 7.301-5.632a7.053 7.053 0 011.261-.161c-.351-.626-1.071-.872-1.612-1.28-.199-.142-.351-.398-.54-.541-1.015-.73-2.134-1.355-3.167-2.067-2.674.892-5.461 1.574-8.22 2.134a553.779 553.779 0 01-31.403 5.385M51.38 193.242c.313.199.616.379.91.55.806.484 1.622.939 2.447 1.365a38.758 38.758 0 01-2.447-1.374c-.294-.171-.597-.361-.91-.55" fill="#fff"/><path d="M78.184 186.766c2.75-.104 5.49-.085 8.23-.265 10.847-.711 21.665-2.01 32.474-2.968 4.637-.408 9.387-1.005 14.014-1.621 7.244-.958 14.469-2.048 21.694-3.101 9.756-1.422 19.645-3.157 29.383-5.11 1.555-.313 3.1-.749 4.646-1.081.047-.038-.199-.285-.266-.332-3.119-2.2-7.803-4.049-11.501-4.94-5.66-1.365-12.165-.474-17.816.294-12.297 1.65-24.67 2.977-37.053 4.181-7.576.74-15.265 1.129-22.907 1.48-10.42.483-20.831.815-31.27 1.204-4.096.151-8.344.142-12.393.407-1.479.095-3.944.133-5.395 0-.294-.028-1.033-.199-1.213-.407-.351-.408-.247-1.328.284-1.47.133-.038.275.01.389-.009.92-.209 2-.19 2.968-.266.825-.066 1.735-.209 2.56-.275.35-.028.72.019 1.08 0 .266-.009.21.019.2-.265-.91-.37-1.887-.986-2.693-1.555-.417-.294-1.242-1.157-1.707-1.261-.56-.124-2.437-.067-3.081-.019-.417.028-1.043.208-1.48.275-1.355.218-1.27.379-2.313 1.062-.275.18-.616.218-.863.35-.787.408-1.962 1.555-2.36 2.361-1.49 3.034-.816 5.879 1.62 8.097 1.319 1.205 2.456 2.067 4.106 2.76 2.56 1.08 4.902 1.573 7.614 1.953 7.547 1.052 15.379.834 23.05.531m55.788-85.172c-.123-.067-.161-.143-.18-.228.01.076.057.161.18.228zm-87.997 85.02s.028.076.038.123c-.01-.038-.02-.085-.038-.123zm-4.077-18.347a3.867 3.867 0 00.796.171c-.076 0-.142-.019-.199-.028a8.942 8.942 0 01-.597-.143zm1.507.038c.048-.047.095-.104.161-.132a.707.707 0 00-.16.132zm61.924 37.888c2.351.161 4.731.285 7.082.37h.057-.066a222.483 222.483 0 01-7.083-.37M5.566 107.662l.047-.066-.54-2.01c.028-.076.028-.152.028-.228 0 .076 0 .142-.028.228l.54 2.01s-.028.047-.047.066zm-2.722 15.227c.095-.246.39-.654.655-1.042-.266.388-.55.796-.655 1.042zm5.263-16.44c.151-.105.388-.2.559-.237a16.7 16.7 0 015.774-.427c.673.066 1.517.474 2.153.54 1.308.152 3.166-.151 4.427-.569 1.935-.635 3.698-2.882 3.869-4.892.019-.237-.123-.36-.142-.54-.02-.219.038-.465 0-.683-.105-.768-.892-1.915-1.489-2.418-1.83-1.564-5.12-2.219-7.452-1.934-2.39.294-5.101 1.242-6.694 3.138-1.773 2.105-1.868 4.959-1.328 7.529.02.104.247.483.323.483M22.32 88.33c-.038.53.028 1.09 0 1.62l.265.067c.076-.275.275-.616.427-.853 2.692-4.38 5.414-8.865 7.955-13.34.436-.778.853-.73.123-1.64-.54-.665-2.096-1.85-2.92-2.068-.73-.19-1.944-.161-2.608.18-1.47.74-2.54 2.503-2.94 4.068-.985 3.85-.018 8.069-.293 11.965m-11.065 47.569zm6.884-8.353c-.237-3.129-3.48-6.125-6.543-6.533-.246-.028-1.308-.133-1.47-.114-.53.086-1.213.133-1.706.313-2.579.929-3.897 3.281-3.366 5.936.408 2.019 2.238 4.029 4.001 5.034 1.593.911 4.258 1.167 5.983.493 2.2-.862 3.271-2.797 3.1-5.129z" fill="#fff"/><path d="M21.779 136.164c.209-1.574.427-3.129.683-4.713a118.45 118.45 0 016.798-24.595c.388-.976.825-1.934 1.26-2.892-.53-1.289-1.611-2-2.872-2.493-.303.18-.152.455-.228.72-.53 1.916-1.754 3.821-3.347 5.007a6.953 6.953 0 01-2.967 1.28c-.048.208.047.218.132.341.73.958 1.48 1.46 2.001 2.721 1.602 3.916.36 7.936-2.94 10.487-.293.227-.748.502-1.07.606-.067.408.331.693.52 1.024 1.584 2.845 1.641 6.704-.52 9.283-1.29 1.545-3.452 2.645-5.452 2.768-.18.124-.323.636-.342.863-.095.873.038 1.925 0 2.835-.057 1.318-.085 2.342 0 3.632.104 1.555.076 3.034.266 4.589 1.716 14.051 10.012 26.216 23.315 31.535l1.754.597s-.123-.711-.162-.853c-.55-2.171-.303-4.39.626-6.428.323-.711.72-1.394 1.29-1.954-.313-.35-.816-.36-1.214-.531-12.089-5.252-19.152-21.229-17.512-33.829m-17.541-4.665z" fill="#fff"/><path d="M5.812 119.524c.455-.237.948-.55 1.413-.74 2-.806 4.779-.645 6.789.095 1.119.417 2.2 1.204 3.261 1.735a5.96 5.96 0 001.546-.882c2.209-1.801 2.986-4.541 1.83-7.215-1.48-3.404-6.685-4.532-9.984-4.039-1.565.227-2.959.91-4.229 1.773-1.242 1.678-2.56 3.47-2.314 5.708.086.72.958 2.569 1.366 3.214.085.132.199.246.322.351zm233.482 68.257s0 .047-.019.076a.17.17 0 01.019-.076zM80.27 215.941c-.407-.304-1.668-.247-2.2-.18-4.778.578-12.297 4.077-15.928 7.253-.484.427-1.859 1.697-1.679 2.351.029.105.399.323.465.323.161 0 .986-.417 1.195-.531 3.12-1.735 5.708-3.66 9.111-5.044 2.722-1.1 5.282-1.517 8.003-2.38.275-.086.938-.313 1.11-.512.369-.427.407-.929-.067-1.28m26.406 4.987a12.343 12.343 0 01-.948-.939c.303.332.616.655.948.939zm-3.016 28.274a74.28 74.28 0 012.541.095h.095-.095a73.335 73.335 0 00-2.541-.095zm-10.931-31.308c-1.337-1.015-3.774-1.631-5.395-1.754-.342-.029-1.024-.048-1.337.019-.38.085-.844.436-.901.853-.095.73.702.986 1.28 1.157 1.66.057 3.176.758 4.74 1.185.683.18 1.973.635 2.181-.332.114-.512-.199-.834-.588-1.128m-9.358-6.542h.948c-.227 0-.464-.01-.692-.01h-.256m23.467 37.841a.61.61 0 01.19-.029c-.067 0-.133.019-.19.029zm61.895-27.259c2.067-.607 4.115-1.451 6.22-1.878 5.309-1.071 12.477-.607 17.597 1.413 1.337.531 2.712 1.479 3.992 1.934.512.18.863.247 1.384.019.455-.948-.18-1.564-.862-2.152-4.258-3.622-13.284-4.532-18.603-4.039-2.788.256-6.827 1.1-9.283 2.579-.881.531-1.934 1.612-.445 2.124zm11.084-9.899zm23.163 17.996c.493.768 1.328 3.034 2.171 3.214.939.209 1.233-.616 1.129-1.403-.162-1.223-1.024-2.636-1.821-3.565-.407-.474-1.356-1.479-2-1.337-.901.208-.892 1.109-.465 1.782.256.417.73.882.996 1.299m-20.803-18.024c-.17 0-.341-.019-.521-.019-.361 0-.73.019-1.1.038.54-.019 1.081-.028 1.621-.019zM38.628 246.528a1.91 1.91 0 00-.01.332c0-.114 0-.228.01-.332.085-.74.597-2.114 1.033-3.186-.427 1.072-.948 2.446-1.033 3.186zm.663 1.877c.18.162.389.275.636.332.056.01.104.019.151.019-.047 0-.104 0-.152-.019a1.315 1.315 0 01-.635-.332zm116.167-26.889a48.467 48.467 0 00-2.692 2.219c.019-.019.047-.038.066-.057a44.885 44.885 0 012.626-2.162zM46.905 120.367zm15.189-65.792c0 .162-.019.313-.038.456 0 .028-.01.056-.019.085 0-.029.01-.057.02-.085.018-.143.028-.294.037-.456zm-3.11 164.959zm.711 29.402c.446 0 .901-.019 1.366-.057-.493.038-.958.057-1.423.048h.057v.009zm19.968-37.376c-.54.057-1.09.133-1.63.209.54-.085 1.09-.152 1.63-.209zM49 228.333a55.55 55.55 0 012.826-2.977A46.134 46.134 0 0049 228.333zm-4.238 20.67h.294-1.28c.332 0 .654.009.986.009m162.731-91.553c-3.357 2.598-2.731 7.538-1.887 11.179.057.227-.019.512.199.739l3.906 3.907c.437-.437.75-.939 1.214-1.356 1.062-.948 2.854-1.802 4.21-2.266.54-.19 1.109-.275 1.659-.437.161-.151-.341-1.621-.408-1.953-.455-2.427-.635-5.613-1.545-7.888-1.271-3.186-4.627-4.058-7.348-1.944" fill="#fff"/><path d="M196.845 145.607v.133c.379.313.597.645.787 1.1.626 1.536.73 4.029.436 5.632-.161.863-.626 1.64-.815 2.493l3.148-1.498c1.299-.739 2.579-1.545 3.859-2.342.407-.256.815-.654 1.308-.853 1.28-.512 1.801.55 1.052 1.593-.512.711-1.517 1.432-2.218 1.953-2.702 2.02-5.699 3.527-8.856 4.76l-2.74.901c.142.123.256.284.408.407.938.73 2.228 1.337 3.233 2.02a77.974 77.974 0 015.66 4.314c.133.114.171.256.408.199-.019-.237.028-.512 0-.74a16.69 16.69 0 01-.133-2.56c.086-4.01 1.697-7.262 5.518-8.903 1.461-.625 2.703-.682 4.258-.464.36.047.73.369 1.147.275.019-1.603-.597-3.271-1.612-4.513-2.778-3.395-8.22-4.665-12.335-5.187-1.015-.133-1.679.816-2.494 1.28m13.853 32.066c-.238 2.665 1.716 5.376 4.276 6.107 1.194.341 4.001.464 5.233.293.579-.075 3.262-1.583 3.774-2.019 2.465-2.067 2.93-4.978 1.261-7.737-.654-1.081-2.294-2.219-3.546-2.38-1.071-.142-2.522-.208-3.622-.114-3.11.285-7.064 2.399-7.367 5.841m12.051 9.368c-.872 1.896-.882 3.555.474 5.196 1.498 1.82 4.342 2.417 6.542 2.085 2.361-.35 4.466-1.592 5.528-3.773.313-.645 1.195-2.693 1.28-3.3.066-.54-.171-1.782-.427-2.275-.995-1.916-3.517-2.74-5.556-2.494-2.522.304-6.732 2.133-7.841 4.551m-21.144-44.989c.616.085 1.261.199 1.915.35a25.656 25.656 0 00-1.915-.35h-.218.218zm17.854 26.946c-.095-.332-.086-.711-.133-1.015.057.304.038.683.133 1.015zm-52.793-42.325c1.185-.247 2.37-.503 3.565-.759-1.195.247-2.38.503-3.565.759zm-7.917 7.291c3.792.171 7.642.417 11.453.54 2.892-.113 5.879.143 8.761 0 .266-.009.209.019.199-.265-1.052-.313-2.038-.806-3.062-1.185-3.859-1.451-7.927-2.968-11.814-4.229-.948-.303-1.877-.654-2.844-.91-.256.076-.749.957-.958 1.204-1.138 1.394-2.37 2.664-3.565 3.982-.19.209-.512.275-.683.531-.057.199.19.322.332.341.635.086 1.489-.038 2.162 0" fill="#fff"/><path d="M175.322 129.934c3.053 1.195 5.945 2.333 8.903 3.764.123.057.199.209.304.237.464.143.938-.075 1.327-.123a52.453 52.453 0 004.836-.825c.625-.142 2.114-.815 2.654-.455.086.057.275.427.256.531-.075.417-.54.797-.881 1.005-2.181 1.328-6.476 2.067-9.017 2.304-9.084.844-18.413.304-27.487-.133-7.405-.35-14.772-.787-22.111-1.479-11.89-1.119-23.647-3.072-35.575-3.906-5.556-.389-11.396-1.128-16.971-.806-2.19.123-4.314.076-6.476.398-3.992.598-8.695 3.584-9.235 7.889.18.664.18 1.299.474 1.962.275.636.521.93 1.214 1.081.967.209 2.085.237 2.986.38 2.892.464 5.822.711 8.742.967 9.832.863 19.674 1.868 29.507 2.702 12.003 1.014 24.045 1.669 36.124 2.285 4.2.209 8.77.683 12.933.408 2.095-.143 4.304.142 6.333 0 3.632-.266 7.51-.029 11.189-.266 6.153-.398 15.208-1.498 20.546-4.921 1.318-.844 2.313-2.342 3.081-3.65.892-1.527 1.11-4.798.531-6.428-1.365-3.859-4.721-6.069-8.666-6.562-6.077-.758-12.089.863-18.034 1.773l-1.166.38c.332.019.598.265.901.379.939.36 1.82.749 2.788 1.128m11.984-6.552h-.085c.483 0 .967.019 1.45.048-.455-.019-.91-.048-1.365-.048zm44.44 73.207c.009.18-.123.294-.142.465-.181 1.583.009 3.716.606 5.195 1.043 2.617 4.296 3.632 6.723 2.267 2.076-1.167 3.868-3.736 4.134-6.107.038-.341-.029-.73 0-1.08 0-.143.142-.266.142-.399 0-.275-.351-1.507-.474-1.82-.294-.74-1.062-1.631-1.688-2.086-.739-.54-.938-.55-1.82-.607-.142 0-.256-.142-.38-.123a5.21 5.21 0 00-.635.18c-1.081.408-2.133 1.839-3.091 2.56-.976.74-2.152 1.327-3.366 1.555m12.288-4.437a8.88 8.88 0 011.223 2.038 8.54 8.54 0 00-1.223-2.038zm-5.186-2.579c.066 0 .133.009.199.028l-.199-.028zm17.341 42.145c.057-.152.143-.294.171-.455-.038.161-.114.303-.171.455zm-27.316-52.471c-.019.086-.085.228-.151.37.057-.142.132-.284.151-.37zm33.432 62.284c-1.707-2.484-3.432-4.949-5.044-7.49-.019-.029-.047-.067-.066-.104.028.037.047.075.066.104 1.612 2.541 3.337 5.016 5.044 7.49zm-31.014-61.819h-.227.464c-.075 0-.151-.01-.237-.01m-2.399.37l1.015-.199-1.015.199zm9.785 3.84a2.767 2.767 0 00-.227-.445c.076.132.151.284.227.445z" fill="#fff"/><path d="M56.955 153.828c5.566 2.266 10.894 3.489 16.782 4.238 7.5.957 15.029 1.896 22.633 2.294 7.386.389 14.8.531 22.234.673 3.432.067 6.836-.018 10.24-.142 4.352-.161 8.419-.294 12.676-.938.664-.105 1.508-.162 2.134-.294.578-.124 3.148-1.954 3.944-2.39 7.671-4.181 16.289-5.632 24.917-5.139.873.048 1.811.256 2.693.408 4.665.806 8.97 2.323 13.189 4.466.436.218.825.588 1.365.664 1.432-.427 2.693-.645 3.708-1.821 1.754-2.029 2.37-4.523 1.886-7.149-.151-.815-.313-1.526-1.005-2.076-.132.104-.275.17-.426.237-4.485 1.811-9.254 2.683-13.995 3.119-7.652.702-15.616.967-23.306.673-2.104-.076-4.247-.047-6.333-.132a983.768 983.768 0 01-35.176-2.02c-13.322-1.005-26.596-2.342-39.889-3.508-3.622-.313-7.49-.664-11.055-1.347-1.186-.227-2.598-.512-3.746-.834-.606-.171-2.085-.616-2.228-1.27-.227-1.072.673-1.205 1.536-1.129a51.4 51.4 0 013.366.408c.142.019.323-.019.474 0 .067-.066-.246-.683-.275-.872-.17-1.28-.057-1.773.114-2.987.019-.152.029-.294.019-.446-.246.019-.512-.028-.74 0-1.65.199-3.754.702-5.328 1.28-3.688 1.347-6.685 3.907-7.272 7.955.151.702.123 1.451.294 2.134.74 3.053 3.858 4.845 6.58 5.954" fill="#fff"/><path d="M229.717 203.88c.095-.559-.237-1.052-.379-1.574-.389-1.488-.559-2.863-.427-4.428.019-.208.228-.455.133-.739-1.745.038-3.764-.228-5.31-1.1-3.128-1.763-4.92-4.579-4.105-8.249.076-.332.341-.645.246-1.033h-4.247c-.067 0-.986-.237-1.185-.294-4.523-1.204-7.206-5.708-6.268-10.259.067-.332.399-.683.19-1.034-1.356-1.356-2.892-2.484-4.181-3.906-8.761-7.282-18.594-14.763-30.322-16.166-3.366-.398-7.016-.417-10.373 0-8.628 1.09-16.185 4.561-22.642 10.373-.54.483-1.147.91-1.621 1.479-.114.133-.256.171-.199.408.512-.019 1.043.028 1.555 0 1.64-.095 3.385-.399 4.978-.541a26.44 26.44 0 002.408-.294c2.958-.493 5.964-.825 8.912-1.327 1.669-.285 3.395-.616 4.988-.806 4.352-.512 7.974-.863 12.402-.408 5.404.569 10.941 3.158 15.559 6.002 3.565 2.2 7.262 4.769 10.515 7.405.512.417 1.109 1.119 1.621 1.479.474.332 1.356.578 1.934.891 4.191 2.323 7.822 7.093 9.994 11.302 3.366 4.058 6.931 8.069 10.107 12.269.275.37 1.024 1.773 1.365 1.878.37.104 1.707-.143 2.124-.275.73-.247 1.47-.882 2.238-1.062m30.398 50.726zm2.152-8.135c-.209.066-.56.796-.74 1.014-.986 1.185-2.683 2.039-4.181 2.352.123.853.578 1.355 1.346 1.687.209.095.816.313 1.015.332.379.048 1.659.057 2.01-.019.152-.028.777-.455.901-.588.881-.938 1.071-2.901.512-4.029-.076-.162-.702-.806-.854-.759m-26.984-29.762c.152.038.294.351.427.389.094.028 1.498-.693 1.725-.825 1.697-.977 3.897-2.826 5.006-4.428.152-.218.617-.939.617-1.147l-.484-.74-.066.939c-.863.104-1.366-.617-.541-1.148.237-.151.361.209.541 0l-1.963-2.891c-.948.037-.607.512-.739.995-.067.247-.636.266-.863.199-.218-.057-.161-.389-.285-.398-.569.019-1.09.209-1.678.152l-.076.265c-.256-.038-.559.038-.806 0-.246-.038-.284-.227-.417-.256-.37-.104-1.005 0-1.394-.284-.057.597-.578.578-1.081.54 0-.341-.056-.645.133-.938-.322-.01-.597-.266-.901-.389-.132-.048-.312.019-.455-.086-.17-.113-.341-.758-.73-.758-.294 0-.91.607-1.232.796-.399.237-.948.522-1.394.56.085.588-.085.986-.73.796-.152-.038-.294-.351-.427-.389-.104-.028-.237.114-.389.133-.275.038-1.204.057-1.28.342-.028.113.124.246.133.398.086.891.048 1.754.74 2.493.464.503.474.105.758.996.01.038.361.54.389.569.038.028.521-.152.749.189.218.323-.038.693-.047.882 0 .048.512.787.644.607l.067-.275c.142-.019.663.076.73.142.019.019.142.427.142.455-.047.152-.427.38-.531.55.256.332.408.825.806 1.015-.104-1.128 1.318-.986 1.071.133l-.938.208c.445.55.758 1.214 1.289 1.678l2.75-.673c-.085-.588.085-.986.73-.796zm4.798-8.23c.303-.048.635-.275.948-.076.256.303.199.882-.133 1.081-.484.303-.92-.597-.806-1.015m.123 2.769c.323-.19.636.019.948.076.143.853-.208 1.204-1.014.806-.114-.18-.123-.759.066-.882zm-1.479-1.204c.133-.474 1.565-.19.872.739-.113.152-.218.152-.398.124l-.341-.133c-.066-.066-.18-.588-.142-.73m.009 2.958c.038-.246.294-.408.484-.455.474-.123.882.588.322 1.005-.436.332-.891.038-.815-.54m-1.337 1.943c0-.256-.095-.853.208-.938 1.186-.323 1.176 1.574-.208.938zm.133-2.692l-.133-.939c1.289-.503 1.555 1.1.133.939zm.341-3.916c.066 0 .446.132.455.151.095.095.209.873.142.93-.436.056-.635.208-1.071 0 .009-.456-.18-1.148.474-1.081zm-.749 7.955c-.816.341-1.252.094-1.214-.806l.607-.143c.569.143.683.37.607.949zm-.474-2.56c-.237.066-.654-.38-.721-.617-.028-.113.095-.55.133-.578.019-.019.408-.142.446-.133.132.019.578.342.616.474-.076.256-.209.787-.474.863m-.73-3.774c.265.067.483-.189.72-.123.787.199.408 1.072 0 1.195-.104.028-.55-.104-.588-.133-.094-.085-.208-.872-.142-.929m-9.358-.55c-.076-.066-.313-.284-.332-.351 0-.028.123-.436.142-.455.038-.028.484-.171.588-.133.673.199.266 1.451-.398.939zm2.076 1.337s-.474.161-.578.133c-.901-.237-.398-1.148.379-.92.067.019.323.275.342.341 0 .029-.124.436-.143.455m1.897-3.773c.796-.029 1.156.284.806 1.071-.835.114-1.129-.303-.806-1.071zm-1.214 1.413c.085-.067.645.056.673.075.019.019.161.493.133.588-.019.057-.322.379-.398.417-.209.133-.398-.142-.673-.075-.038-.294 0-.835.265-1.015m.455 3.963c-.938.161-1.062-.597-.521-1.194.161-.048.777.047.863.132.019.019.132.55.132.579a.61.61 0 01-.474.474m.958 1.498c-.465-.285-.332-.721-.332-1.195.389-.085.768-.133 1.015.266.312.521-.266.806-.683.929zm.398-2.826c-.711.209-1.052-1.005-.379-1.194 1.005-.294.882 1.043.379 1.194zm3.925-2.683c.256-.085.73.711.266 1.072-.597.474-1.185-.778-.266-1.072zm-1.479 1.356c.816-.237.948 1.081.522 1.195-.218.057-.797.047-.863-.199-.085-.313 0-.892.341-.996zm-1.488 1.479c.663-.19 1.09.455.673.939-.408.464-.948.17-1.138-.342.199-.123.294-.549.465-.597zm.73 6.599c-.342 0-.835.095-1.015-.265-.37-.74.711-1.091 1.081-.55.19.275-.152.531-.076.815m-1.194-3.034c-.124-.455.654-.91 1.071-.739-.019.275.256.341.284.597.086.844-1.289.36-1.355.142zm1.204-5.186c-.588.066-1.176 0-1.062-.721l.133-.341s.483-.171.587-.133c.171.048.493.55.493.73 0 .171-.18.285-.142.465m.882 2.967c.578-.17.986.996.114 1.195-.275.067-.417.029-.588-.189-.37-.456.19-.674.484-1.006m.587 3.765l-.73.132c-.483-.303-.369-.597-.208-1.071h.663s0 .161.067.265c.133.219.303.285.208.674zm.143-4.39c-.029-.105.104-.55.132-.588.019-.019.418-.152.465-.152.161 0 .284.19.465.142v.939c-.342.028-.949.047-1.072-.351m.133 2.115h.939l.132.872c-.72.597-1.242-.076-1.071-.872zm11.122 24.386c-.664-.076-1.356-.171-2.01-.351.663.18 1.355.275 2.01.351h.189-.189zm5.584-4.257l.152-.73.739.113.541-.521-.066-.872.208-.199h.455c.56-1.489.721-3.035.408-4.59-.284-.085-.37.313-.597.266-.076-.019-.446-.247-.474-.341-.086-.285.085-.598.256-.806l.673.076c-.142-.332-.247-.674-.427-.996-.18-.332-1.365-2.162-1.555-2.228-.114-.038-.284 0-.313-.019-.028-.029.019-.417-.019-.588-.047-.209-.265-.398-.37-.578-.037-.057 0-.152-.018-.171-.067-.076-.674.133-.873-.133-.407-.55.057-.673.057-.882 0-.037-.417-.597-.455-.606-.199-.057-.265.208-.417.256-.18.047-.398 0-.588.009l-.133-.872.541-.408-3.85-5.575c-.758-.142-.787-.303-1.204.389-.066.104.114.256.066.455-.199.806-.701.322-.853.36-.047.01-.379.332-.417.398-.19.294.104.806-.332 1.015-.379.19-.787-.123-1.157.465-.151.237-.028.663-.066.948-.398 0-.759.038-1.128-.124l-.626.465.398.275c.066.616-.237.929-.872.872-.361-.104-.038-.815-.408-.673-.616.247-1.308.74-1.953 1.015-.228.094-.664.151-.816.256-.151.104-.104.322-.189.483-.218.398-1.043.417-1.015-.142-.369.218-.891.123-1.204.474.389.36.901.152.948.806.019.209-.113.341-.113.408 0 .038.36.493.445.606.939-.853 1.47.37.607 1.015l.607.74c.199-.143.218-.304.208-.531.768-.304 1.062.161.939.938-.303.067-.332.142-.673.076-.19-.038-.256-.123-.133.133.275.559 1.043 1.403 1.413 1.953.455.673.882 1.356 1.346 2.02.067.094.057.237.076.256.029.028.711.056.797.35l-.105.541.588.72c.73-.445 1.233.503.616 1.024l.664.873c-.152-.768.939-.655 1.081-.199.028.104-.427.843-.673.739.123.199.199.474.341.673.161.228.465.38.607.541-.123-.844.436-1.271 1.071-.598-.019.768-.436.749-1.071.598.009.009-.019.17.066.265.304.361.806.683 1.28.673v-.398c.455 0 .55-.313.873.133.113.161.189.512.208.531.038.038.228-.019.332 0 .493.114.882.199 1.413.133-.086-1.148 1.024-1.366 1.081-.133.341-.161.73-.19 1.081-.332.388-.152.711-.332 1.118-.493.181-.076.844-.474.882-.597m2.285-4.902c.029.341.048.957-.351 1.071-.019 0-.436-.123-.455-.142-.019-.019-.142-.408-.132-.446.085-.483.502-.55.938-.493m-16.725-7.281s-.484.17-.588.132c-.484-.142-.36-.834-.209-1.204l.939.133c.067.057-.047.844-.142.929m1.564 3.935c-.587.957-1.498-.616-.806-.806.446-.123 1.119.303.806.806zm-.275-3.508c.076.066.313.284.332.351.029.104-.104.549-.133.587-.009.01-.322.133-.35.133-.133.029-.37-.208-.588-.123-.133-.522.152-1.403.739-.939m.332-1.906l-.872.143c-.531-.598-.104-1.148.664-.93.379.114.35.493.208.787zm.484.418c.389-.105.787.066.863.474.038.199-.342.445-.474.588-.598.047-.844-.949-.389-1.072m.853 3.423a3.077 3.077 0 01-.19.493c-.094.152-.237.152-.398.123a.61.61 0 01-.474-.474c-.047-.275.048-.635.332-.72.104-.029.55.104.588.132.019.019.142.408.133.446m-.294 3.205c-.702.332-.844-.361-.759-.958l.598-.133c.379.342.768.806.161 1.091zm1.668-7.832c.086.958-.056 1.043-.938.796l-.133-.587c.303-.484.597-.37 1.071-.209zm0 6.334c-.218-.086-.455.151-.587.123-.019 0-.332-.123-.351-.133-.029-.038-.171-.493-.142-.588.085-.294.587-.36.862-.199.351.218-.085.465.209.797m-.133-3.774c.503 1.109-.531 1.782-1.062.607.228-.512.474-.702 1.062-.607zm.266 6.248c-.019.067-.408.455-.474.474-.607.18-1.223-.787-.655-1.052.057-.029.484-.161.522-.161.038 0 .446.132.464.151.038.038.171.484.133.588m.294-10.287c.36-.114.797-.294 1.015.133.237.474-.162.559-.209.938l-.806-.132v-.939zm.455 2.569l.342.133s.085.379.275.465c-.2.531-.531.72-1.072.464 0-.417-.171-1.175.455-1.062zm-.455 2.949l.939.133c.028 1.375-1.138 1.166-.939-.133zm.588 6.599c-.237.067-.37-.151-.597-.133v-.938l.455-.133.616.465c.095.227-.332.682-.483.73m-.579-3.546c.029-.105.408-.332.465-.332.095 0 .559.341.597.464.275.949-1.384 1.005-1.062-.132zm2.152-10.051c-.028.313.361.399.266.73-.095.332-.626.399-.939.342-.265-.645-.066-1.1.673-1.072zm-.673 2.835c.825-.114.873.18.806.939-.768.275-1.157-.161-.806-.939zm.465 3.897c-.389.123-.579-.777-.465-1.071l.465-.133c.408.265.483 1.052 0 1.204zm.474 8.021c-.104.37-.929.247-1.062-.142-.085-.284.256-.701.474-.863.095.038.436.124.455.143.095.094.18.701.142.862m-.739-3.707c.085-.019.379.133.464.199.484.361.133.531.133 1.015-.91.066-1.28-.531-.597-1.214zm.597-1.811c-.398.294-.502.095-.938.067-.095-.636.199-1.195.853-.787.389.237.493.426.085.72zm.408-10.448c.218.085.455-.152.588-.124.663.124.663.939 0 1.062-.038 0-.427-.113-.446-.132-.076-.076-.199-.749-.142-.797m.739 6.457c-.445.123-.559-.152-.73-.484-.028-.142.38-.559.474-.587.266-.076.427.132.579.331-.171.19-.048.664-.323.74zm.342 2.503c-.142.996-1.897-.427-.598-.73.569-.133.664.247.598.73zm-.01 2.816l-.607.332c-.398-.294-.559-.54-.464-1.062.626-.265 1.214-.047 1.071.73zm-.938 5.67c-.228-.171-.105-.597-.133-.882.218.076.455-.151.588-.123.967.18.417 1.659-.455 1.005zm.938-2.636c-.616.105-.938-.151-1.071-.73.645-.806 1.242-.123 1.071.73zm-.806-11.112c-.36-.18-.388-1.053-.057-1.138.219-.057.797-.047.863.199.152.56-.189 1.252-.806.939zm4.058 3.176c.067-.066.512-.189.674-.076.199.143.36.655.199.882-.076.123-.446.313-.617.199-.113-.076-.369-.436-.388-.559 0-.038.114-.427.132-.446zm.93 2.826c.066.436 0 .844-.484.929-.038 0-.427-.114-.446-.133-.018-.019-.142-.408-.132-.446.113-.597.607-.54 1.062-.35zm-.93 2.692s.427-.142.456-.142c.512.152.701 1.166.142 1.337-.237.066-.673-.303-.73-.474-.038-.142.066-.654.132-.721zm-1.498 2.418v-.938c.181.037.304-.143.474-.143.048 0 .446.133.465.152.019.019.142.398.152.455.066.664-.636.455-1.081.474m.929-2.835s-.408.142-.446.133c-.388-.066-.531-.341-.474-.721a.599.599 0 01.465-.474c.341-.066.607.323.607.598 0 .038-.133.445-.152.464zm.133-2.958c-.323-.009-.455.455-.806.209-.218-.152-.332-.626-.199-.882.275-.541.644-.095 1.005.009v.664zm-.929-2.56c.075-.218-.152-.455-.124-.588 0-.019.124-.332.133-.351.019-.019.427-.142.455-.142.067.019.285.247.351.332.417.54-.303.863-.806.74m.332-3.888c.171-.047.294-.019.398.123.36.493.142.844-.275 1.214-.635-.256-.938-1.119-.123-1.327m-.759-.882l-.132.597h-.939c-.152-1.128.284-1.451 1.071-.597zm-.72 2.361c.512-.114.853.246.616.749-.493 1.033-1.782-.484-.616-.749zm.246 3.887c-.825-.227-.919-.673-.256-1.204.806.237.996.683.256 1.204zm-.73 10.307c.076-.56.711-.304 1.081-.2v.939c-.597.076-1.176-.019-1.081-.739zm.332-2.077c-.559-.076-.445-.967.152-1.071.161-.029.682.322.72.474-.123.531-.331.673-.872.597zm.872-3.043c-.047.17-.55.388-.73.331-.132-.038-.445-.483-.474-.616 0-.038.114-.427.133-.446.038-.028.484-.17.588-.132.208.057.54.625.474.863m-.047-2.75c-.067.095-.427.275-.541.275-.038 0-.446-.133-.465-.152-.075-.076-.075-.863 0-.939h.797c-.01.332.455.456.209.806m.815 7.415c-.18-.048-.654-.597-.607-.863a.61.61 0 01.474-.474c.123-.019.531.085.579.133.019.019.284.55.275.578-.048.228-.503.683-.731.616m.892.74c-.076-.284.142-.427.332-.588.227-.066.587.152.73.332.199.692-.825 1.138-1.062.247m0-2.826c-.086-.37.113-.654.474-.721.123-.019.55.209.578.342.237.863-.853 1.27-1.052.379zm3.745-5.973l.133.341s-.114.427-.133.446c-.01.009-.322.132-.351.132-.142.029-.265-.17-.455-.123v-.939c.057-.056.73.076.796.143m-.777 2.702c.066-.066.512-.19.673-.076.247.171.304.721.266 1.015-.427.161-.645.161-1.072 0-.066-.067.048-.844.142-.93m.911 3.025c.047.171 0 .408.009.588-.398.095-.787.332-1.062-.076-.578-.891.863-1.166 1.053-.512zm-1.47-7.092l-.133.939c-1.289.037-1.223-1.48.133-.939zm-.929 2.702s.408-.142.445-.133c.598.114.74.901.086 1.138-.342.123-.654-.076-.683-.408 0-.104.114-.559.152-.597zm.929 3.764h-.73c-.607-.663-.171-1.375.73-.938v.938zm-.73 2.826l-.474-.588.483-.616h.105c.17.161.55.104.616.341.028.104.028.578 0 .588-.019.019-.161 0-.265.066-.143.085-.171.285-.465.199m9.69 12.279c.275-.361.417-.825.73-1.157l.019-.265-6.002-8.96a9.257 9.257 0 01-2.095 1.678c-.92.55-1.678.749-2.608 1.166-.132.057-.246.171-.218.322l6.002 9.235.275.143c1.517-.361 2.92-.892 3.906-2.162m-65.877-42.752c-2.086.246-4.181.464-6.229.711 2.048-.247 4.134-.465 6.229-.711zm-46.146 3.925c.151 0 .303 0 .436.019a6.49 6.49 0 00-.436-.019zm18.489-.929z" fill="#fff"/><path d="M223.251 209.607c-.048-.635-.048-1.109-.133-1.754-.047-.351.19-.588.142-.948-.057-.484-.597-.797-.881-1.147-2.011-2.513-4.087-5.016-6.069-7.548-.275-.35-1.735-2.512-1.886-2.56-.218-.028-.304.218-.465.332-1.062.74-1.612-.995-1.858-1.773-.323-.995-.493-1.811-.986-2.787-1.318-2.617-3.366-4.94-5.367-7.026-.863-.901-1.678-1.593-2.787-2.2-1.887-1.033-3.329-1.109-5.367-1.365-.123-.019-1.034.104-1.214.133-2.152.398-5.603 2.721-5.859 5.053-.692 6.144 6.637 9.491 11.141 11.909 1.536.825 3.527 1.413 5.243 1.1.682-.123 1.574-.446 2.228-.74.55-.246 1.716-1.062 2.219-1.024.057 0 .445.133.464.152.029.028.285.787.285.863.028.351-.323.948-.541 1.213-.417.522-1.223 1.129-1.849 1.394-.095.038-.284 0-.18.218.104.228 1.252.882 1.555 1.138 2.693 2.276 4.627 4.665 7.832 6.457 1.375.768 2.93 1.46 4.494 1.631.095-.285-.123-.531-.133-.74" fill="#fff"/><path d="M187.97 188.966c-.047-.247-.057-1.527-.36-1.527-.237.114-.664.218-.939.266-2.654.446-5.29.995-7.955 1.479-13.814 2.532-27.534 4.238-41.51 4.987-5.84.313-11.88.057-17.654.408-.455.028-1.034.028-1.489 0-5.651-.303-11.339-.465-16.971-.815-5.528-.342-11.103-.569-16.574-1.214-4.475-.522-8.922-1.034-13.322-2.039-.89-.199-2.105-.701-2.986-.787-1.12-.113-2.38-.066-3.508-.132-4.371-.266-8.828-.247-13.094-1.185l-2.2-.427c-.057.227.085.265.2.408 2.37 2.844 8.438 5.442 11.917 6.807 7.604 2.987 16.318 4.172 24.33 5.718 8.884 1.706 17.645 2.531 26.681 2.967 4.323.209 8.732.351 13.065.408 10.117.133 20.177-.18 30.189-.683 7.102-.35 14.147-.825 21.163-1.612 2.285-.256 4.579-.559 6.864-.815 4.589-.521 9.169-1.043 13.749-1.621.35-.048.862.17 1.014-.266l-1.934-.957c-3.584-2.162-7.784-4.969-8.685-9.368m36.921 24.273c-.569-.124-1.138-.2-1.707-.285.569.085 1.147.171 1.707.294.104.133.227.237.351.36-.114-.113-.247-.227-.351-.36" fill="#fff"/><path d="M27.307 94.606h-.797c-.028.275-.265.512-.076.806.323.484 1.195.114 1.148-.474-.02-.123-.37.028-.275-.332zm1.346-4.048c-.75-.294-1.27.73-.597.929.758.218.862-.332.597-.93zm-.929 3.299c.436.673 1.213.247 1.204-.474-.578-.237-.939-.085-1.204.474zm2.152 4.589c.114-.076.37-.445.389-.56 0-.037-.114-.426-.133-.445a2.964 2.964 0 00-.464-.151c-.105 0-.484.19-.54.274-.115.171-.02.702.084.806.076.076.503.18.664.076zm-2.304-6.058c-.066-.342-.483-.721-.863-.607-.066.019-.313.265-.332.341-.322 1.119 1.3.806 1.195.266zm-.474-2.238c.057-.019.37-.322.417-.398.285-.436-.663-1.005-.948-.55-.114.17-.199.673-.057.806.029.028.493.16.588.133m-2.076 3.252c0 .331-.105.587.218.796.626.408 1.232-.408.654-.93l-.872.134zm3.906-5.528c-.493-.085-.588-.436-1.08-.076-.162.123-.124.237-.134.408-.066 1.251 1.413.701 1.214-.332zm-1.071 8.884c.502.18.663.531 1.062-.076 0-1.062-1.186-.882-1.062.076zm18.261-18.716c-.18.047-.218.35-.341.474v.113c1.232 1.489 1.744-.976.34-.587zm1.138-5.936c.493.029.929.095 1.062-.483.142-.607-.465-.873-.93-.531-.246.18-.094.73-.132 1.014zm-.408 4.039v-.806c-.484-.16-.607-.237-.939.2-.284.37-.038.625.351.73.247.066.36-.143.588-.124zM29.933 86.253c-.73.019-.816.427-.74 1.072.863.18 1.423-.408.74-1.072zm50.745-47.834c-.341-.047-1.128.142-1.413.341-.749.512-.673 1.252-.199 1.954 1.309 1.934 2.94 3.773 4.172 5.783.085.142.066.256.066.408-.578-.086-1.128.18-1.678.275-4.314.702-8.666 1.251-12.942 2.266-.55.133-1.48.076-1.64.777-.266 1.148 1.327 1.043 2.076.996 5.831-.332 11.776-.322 17.617-.55 1.11-.038 2.427.142 3.48-.152 1.128-.313.701-1.431.331-2.18-.72-1.47-1.934-3.13-2.474-4.656-.048-.142-.086-.256-.067-.407.152 0 .294 0 .446-.02 3.593-.701 7.187-1.251 10.78-1.858.607-.104 1.28-.095 1.868-.284.522-.171.721-.55.484-1.043-.73-.304-1.47-.218-2.21-.275-3.934-.323-7.888-.55-11.842-.806-2.256-.152-4.627-.237-6.855-.54m-38.95 47.53c.74.104 1.11-.095 1.071-.872-1.024-.73-1.175-.2-1.071.872zm4.399-12.553c1.081.644.94-1.328-.009-1.053-.465.142-.465.759.01 1.053zm.588-2.675c.152-.35.247-.938-.208-1.07-.104-.03-.55.104-.588.132-.02.02-.142.408-.133.446.085.426.512.521.93.493zm1.479 4.182l.133-.73c-.227-.284-.588-.389-.938-.341-.304.882-.19 1.194.805 1.08M35.319 76.27c.74-.19.512-.74 0-1.063l-.73.398c-.105.218.426.74.73.664zm13.767-2.703c.625.114.787-1.09.388-1.195-.142-.038-.663.076-.73.142a2.971 2.971 0 00-.151.465c0 .047.132.446.151.465l.342.132v-.01zm-17.057 8.23c.73.104 1.289-.351.938-1.072-.834-.123-1.033.294-.938 1.072zm17.645-6.391c-.067-.246-.655-.256-.863-.199-.142.038-.36.635-.342.72.171.607 1.47.465 1.205-.52zm-2.067 1.147c-.456.133-.36.712-.209 1.062 1.147.313 1.327-1.384.209-1.061zM37.148 91.496c.171-.379.038-.55 0-.938-.89-.399-1.545.16-.862.929h.862v.01zm-2.835 1.897c-.388-.143-.55-.143-.938 0v.805c.863.332 1.033.076.938-.805zm-.73 3.764c1.09.208 1.157-1.309.266-1.214-.17.02-.285.17-.465.142.02.275-.114.986.2 1.072zm2.541-3.499l.076.673c.835.086 1.28-.246.939-1.071-.483-.076-.72.038-1.015.398zm-1.052-3.508c.161.047.825-.18.863-.332.019-.114-.105-.56-.142-.597-.095-.095-.702-.19-.863-.142-.36.104-.256.948.142 1.062m-.958 9.709c.446-.124.19-1.243-.389-1.072-.056.019-.284.256-.34.332-.39.502.255.872.739.74m-.616-9.425a2.054 2.054 0 000 1.071c.682.133.976-.218.938-.872-.208-.322-.588-.19-.938-.2zm.075-1.755c.133.039.664-.075.73-.141.02-.02.143-.408.133-.446-.114-.597-.607-.54-1.062-.35.02.34-.123.73.2.938zm9.302-54.025c.265.048 1.488-.777 1.792-.995 1.706-1.214 3.347-2.598 5.044-3.83.114-.086.133-.19.341-.134.02.152-.028.332 0 .475.73 4.039 1.242 8.192 2.02 12.23.028.124-.029.285 0 .408.075.37.388 1.423.758 1.536.209.057.986 0 1.119-.132.047-.048.294-.72.284-.863-.16-5.49.2-11.075 0-16.555 0-.237-.132-.38-.142-.53-.047-1.006.105-1.86 0-2.826-.066-.607.076-1.489-.758-1.669-.75-.161-1.935.673-2.655.939L47.246 24.5l-.341-.066c-.029-.294-.152-.588-.2-.873-.435-2.313-.682-4.674-1.07-6.997-.219-1.327-.399-2.825-.702-4.143-.161-.683-.351-1.546-1.242-1.29-.171.048-.427.702-.465.882-.123.73-.085 1.546-.152 2.266-.483 5.357-.834 10.762-1.213 16.138-.038.587-.095 1.185-.133 1.744-.057.768 0 1.356.427 2 .17.257.445.418.74.475m-7.823 62.805c-.597.17-.256.977.123 1.195.92-.247.683-1.432-.123-1.195zm6.656-14.487c.076.54.91.464 1.071-.152.086-.342-.284-.408-.265-.72-.626-.096-.891.265-.806.872zm-3.101 9.898c.048-.408-.01-.796-.34-1.071-.532.208-1.148.332-.721.995.265.418.663.171 1.061.076zm-3.906 2.56c.304-.028.408.36.74.266.151-.038.389-.54.332-.73-.437-.674-1.138-.256-1.072.455m1.954.559c-.73.341-.816.692-.133 1.185.825-.246 1.014-.815.133-1.185zm-1.224-4.049c-.54-.151-.407.162-.72.475.057.521.436.625.938.587-.037-.37.313-.92-.208-1.071m-4.314-3.091c.17 0 .284-.18.464-.142.076-.503-.019-1.242-.673-1.015-.74.266-.417 1.157.209 1.157zm1.963.398c-.854-.246-1.49-.057-1.082.939.598.057 1.205-.275 1.081-.939zm-.873 2.569c-.246.067-.256.655-.199.864.066.246.635.265.863.199.445-.124.265-1.318-.664-1.062zm-2.57-2.711c-.16 0-.275.19-.474.142.114.342.114.465 0 .806.285-.085.531.266.816.067.057-.038.246-.36.256-.427 0-.038-.114-.427-.133-.446a2.971 2.971 0 00-.465-.151m-.132 5.679c-.123.038-.37.493-.342.588.493.853 1.565-.067.806-.531a.638.638 0 00-.474-.057m-.322-2.095c.104.37.948.36 1.147.075.351-.53-.322-.73-.673-.938-.265.256-.578.445-.465.862m3.698 2.229c-.417-.674-1.071.038-.881.673.512.104 1.26-.057.881-.673zm-.683 2.427c-.417.114-.265 1.27.39 1.204.872-.408.284-1.394-.39-1.204zm-.815-5.803l.2-.199v-.73c-1.271-.588-1.556 1.309-.2.93zm.208 2.835v-.938c-.16.047-.265-.105-.35-.124-.474-.104-.986.39-.863.863.038.123.503.304.626.322.142.029.36-.199.588-.123zm-1.08 2.494c.076.56.957.38 1.071-.01.095-.331-.294-.426-.275-.73-.663-.085-.9.048-.806.74M61.705 46.09c3.546-3.585 7.15-7.112 10.695-10.696.114-.113.143-.294.266-.407 4.4-4.428 8.856-8.809 13.255-13.246.294-.389.313-1.223-.066-1.546-.598-.512-1.508-.274-2.228-.331a77.36 77.36 0 01-5.538-.655 3.043 3.043 0 00-.587-.018c-.124-.105 1.763-2.323 1.953-2.56 3.337-4.248 6.779-8.373 10.097-12.64.152-.198.39-.35.531-.54.257-.341.712-1.26.598-1.668-.02-.076-.266-.313-.332-.332-.645-.19-1.233.502-1.669.862-1.934 1.574-3.792 3.366-5.584 5.045-5.737 5.338-11.454 10.818-17.077 16.147-.113.104-.256.123-.34.199-.437.398-1.082 1.09-.93 1.735.01.047.247.588.266.607.018.019.559.256.606.265.446.095 1.11-.019 1.603.02 1.801.113 3.584-.124 5.376.141l1.953.067c-.351.455-.664.957-1.015 1.412-3.811 4.93-7.69 9.88-11.567 14.791-.531.664-1.28 1.318-1.745 2.02-.72 1.072.398 2.162 1.48 1.346m-29.194 54.026c-.578.114-.654.967-.275 1.071 1.11.313.797-1.166.275-1.071zm-.892-.417v-.806h-.938c-.294.834.18 1.024.939.806zm6.875-18.66c-.228-.284-.474-.208-.806-.199 0 .228-.161.35-.142.607.057.701 1.488.265.948-.408zM242.527 223.82l-.939-.133c-.199 1.309.977 1.517.939.133zm-3.423-.123c-.284.085-.379.436-.332.72a.597.597 0 00.465.474c.161.029.303.038.398-.123.038-.057.171-.436.19-.493 0-.038-.114-.427-.133-.446-.038-.028-.484-.17-.588-.132zm2.939 5.385l-.455.133v.938c.228-.018.351.2.597.133.152-.047.579-.512.484-.73l-.616-.464-.01-.01zm.617-7.746c-.19-.086-.237-.427-.275-.465l-.332-.133c-.626-.113-.446.645-.455 1.062.54.256.872.076 1.071-.464m-.066-3.044c-.209-.417-.655-.237-1.015-.133v.939l.806.133c.047-.389.446-.474.209-.939zm-3.253 8.097l-.597.133c-.085.597.047 1.299.759.958.606-.285.218-.749-.162-1.091zm1.357 1.328s-.465.132-.522.161c-.578.265.047 1.233.654 1.052.067-.019.455-.407.474-.474.029-.104-.104-.55-.132-.588a2.984 2.984 0 00-.465-.151M42.809 74.657l-.133-.806-.939.133c-.104 1.128.2 1.034 1.072.673zM243.873 228.94c0-.484.351-.645-.133-1.015-.085-.066-.379-.227-.464-.199-.683.683-.313 1.28.597 1.214zm-.085-3.755c-.664-.398-.958.152-.853.787.436.029.54.228.938-.066.408-.294.304-.484-.085-.721zm1.081-8.78c.663-.123.663-.938 0-1.062-.133-.028-.37.209-.588.124-.057.057.066.73.142.796.019.019.408.142.446.133m-1.451 14.032c-.228.152-.559.579-.474.863.133.389.967.512 1.062.142.047-.161-.048-.768-.142-.862-.019-.019-.361-.105-.456-.143m.598-13.018c.095-.331-.303-.426-.266-.73-.73-.028-.938.436-.673 1.072.304.057.835-.01.939-.342zm-.133 3.044c.067-.759.029-1.053-.806-.939-.351.778.029 1.214.806.939zm-.806 1.887c-.114.294.076 1.194.465 1.071.483-.152.407-.939 0-1.204l-.465.133zm-10.59-14.004c-.105-.029-.55.104-.588.132l-.133.342c-.114.72.474.796 1.062.72-.038-.18.142-.303.142-.464 0-.18-.322-.683-.493-.73m3.053 3.896v-.938c-.18.038-.303-.142-.474-.142-.038 0-.446.132-.465.151-.038.038-.17.484-.132.588.113.398.72.379 1.071.351m.133 2.617l-.133-.872h-.939c-.17.796.351 1.469 1.072.872zm8.353 18.868c-.635-.673-1.204-.247-1.072.597.636.152 1.053.171 1.072-.597zm9.225-3.442c.399-.114.38-.73.351-1.071-.436-.067-.844 0-.938.493 0 .038.113.426.132.445.019.019.427.143.455.143m-8.742-12.26c-.331.095-.303.958.057 1.138.617.313.958-.379.806-.939-.066-.256-.645-.265-.863-.199zm-5.138 3.897c.132-.142.512-.389.474-.588-.076-.408-.474-.588-.863-.474-.446.123-.209 1.119.389 1.071m-5.528-8.239c.872-.199.464-1.365-.114-1.195-.294.332-.844.55-.483 1.005.17.219.322.247.587.19m.219 1.64h-.664c-.161.474-.275.759.208 1.062l.73-.132c.095-.389-.075-.456-.208-.674-.066-.104-.057-.246-.066-.265m7.149 4.314c-.475-.161-.768-.275-1.072.209l.133.587c.882.247 1.014.162.939-.796zm-.209 5.528c-.275-.161-.778-.095-.863.199-.029.104.104.559.142.588.01.009.323.132.351.132.133.029.37-.208.588-.123-.304-.341.142-.578-.209-.796m.057-2.968c-.578-.095-.834.085-1.062.607.531 1.175 1.565.512 1.062-.607zm-4.978-1.346c-.151.369-.265 1.062.209 1.204.104.028.55-.105.588-.133.095-.085.209-.872.142-.929l-.939-.133v-.009zm1.556 4.171c-.693.2.218 1.764.805.806.313-.512-.36-.938-.805-.806zm.379-1.621s.332-.123.351-.133c.038-.037.161-.483.132-.587-.019-.067-.246-.285-.332-.351-.587-.455-.872.417-.739.938.218-.075.455.152.588.124m.275-3.746c-.768-.218-1.195.332-.664.93l.863-.143c.142-.293.17-.682-.209-.787m9.33 6.732a.61.61 0 00-.474.474c-.057.38.085.645.474.721.038 0 .427-.114.446-.133a3.08 3.08 0 00.151-.464c0-.275-.265-.655-.607-.598m1.223 7.007c-.189.152-.417.294-.331.588.237.882 1.261.436 1.062-.246-.143-.181-.503-.399-.731-.332m.143-2.978c-.36.067-.56.351-.474.721.208.882 1.289.474 1.052-.379-.038-.133-.464-.361-.578-.342zm-1.479 1.489a.608.608 0 00-.474.474c-.048.266.426.806.606.863.228.066.683-.389.73-.616 0-.029-.256-.56-.275-.579-.047-.047-.455-.161-.578-.132m-1.849 1.792c-.094.72.474.815 1.081.739v-.939c-.37-.104-1.005-.36-1.081.2zm.133-8.686c-.066.067-.066.863 0 .939.019.019.427.152.465.152.113 0 .483-.18.54-.275.237-.351-.218-.484-.209-.806h-.796v-.01zm6.116 1.072s.331-.123.35-.133c.019-.019.143-.408.133-.445l-.133-.342c-.066-.066-.739-.208-.796-.142v.939c.19-.048.313.151.455.123m-5.774 4.466c-.598.113-.711.995-.152 1.071.55.076.759-.066.872-.597-.047-.152-.559-.503-.72-.474z" fill="#231815"/><path d="M266.031 245.447a2.792 2.792 0 00-.464-.483 2.77 2.77 0 01-.228-.219 2.92 2.92 0 01-.294-.521 5.33 5.33 0 00-.35-.635 312.869 312.869 0 00-2.475-3.622c-1.422-2.067-2.892-4.2-4.248-6.343-.047-.067-.123-.19-.218-.342-.18-.275-.626-.957-.787-1.242.01-.019.038-.066.048-.104.057-.133.132-.284.17-.484.749-3.508.029-6.58-2.332-9.974a1804.31 1804.31 0 01-6.381-9.245c-1.375-2-2.75-3.991-4.125-5.982-.189-.266-.36-.55-.54-.835-.047-.076-.095-.161-.152-.237.086-.104.18-.218.285-.322.18-.199.36-.398.521-.635 1.318-1.811 2.096-4.077 2.247-6.552.209-3.423-2.019-7.092-5.082-8.353-.645-.266-1.176-.323-1.688-.389-.066 0-.132-.019-.199-.019.218-.512.323-.796.351-1.024.19-1.47-.227-3.622-.938-4.817-1.546-2.597-4.476-4.152-7.851-4.152-.256 0-.522 0-.778.028-.038 0-.066 0-.104.01l-.683.132c.645-3.745-1.441-7.964-4.864-9.737-1.336-.692-2.408-.835-3.555-.986-.36-.048-.74-.095-1.147-.171a4.078 4.078 0 00-.048-.37c-.095-.521-.18-1.043-.275-1.564-.322-1.859-.654-3.774-1.062-5.632-.407-1.849-.863-3.527-2.199-5.139.379-1.65.151-3.688-.617-5.556-2.152-5.187-8.874-7.908-14.061-8.685.161-.294.323-.607.455-.939 1.423-3.556 1.28-7.367-.398-10.439-2.171-3.992-5.518-6.267-10.211-6.969a30.401 30.401 0 00-4.457-.313c-4.598 0-9.168.901-13.587 1.764-1.849.36-3.669.749-5.433 1.128l-1.573.332-2.096-.588s-.047-.01-.066-.019l-.493-.095 1.763-3.622c2.01-4.731 2.94-9.842 2.646-14.421-.351-5.518-2.485-10.031-6.173-13.037-2.712-2.219-5.907-3.338-9.5-3.338-6.211 0-13.331 3.565-18.148 9.084l-.322.322c-.455-1.773-.882-3.195-1.906-4.997-2.788-4.911-7.471-7.623-13.189-7.623-2.266 0-4.608.427-6.95 1.27-10.135 3.651-17.2 14.033-19.712 22.699-.028.086-.047.18-.066.275h-.104a82.825 82.825 0 00-8.828-.493 66.35 66.35 0 00-3.422.086c-.579.028-1.195.038-1.84.038-.891 0-1.801.009-2.645.094-.455.048-.967.143-1.47.228-.38.066-.768.142-1.11.18-3.849.493-7.49 1.934-9.983 3.935-3.688 2.977-4.371 8.41-3.129 12.24.692 2.153 1.802 3.414 2.968 4.751.028.028.047.057.075.085-3.166.266-8.172 1.688-10.704 3.432-3.138 2.162-5.186 5.272-5.642 8.486l-.056-.057c-.162-.161-.323-.322-.493-.483-1.167-1.091-2.485-2.361-3.404-3.651a33.559 33.559 0 01-.882-1.422v-.019c.673-1.014 1.365-2.057 1.716-3.347.626-2.256.626-4.323 0-6.343a4.806 4.806 0 00-.256-.692c1.84-2.285 3.499-4.58 4.181-7.263.778-3.043.323-5.537-.275-7.775-.123-.455-.275-.9-.417-1.337a21.996 21.996 0 01-.407-1.289c.54-.815 1.46-1.346 2.427-1.915.502-.294 1.014-.598 1.488-.948 2.845-2.086 6.457-6.059 7.548-9.311.881-2.617.853-5.376-.067-7.377-1.194-2.607-3.64-3.982-7.073-3.982-1.176 0-2.465.17-3.736.502.171-.274.342-.54.522-.815.294-.455.578-.9.853-1.365a195.5 195.5 0 001.982-3.366c.521-.891 1.033-1.783 1.564-2.665.18-.293.37-.597.579-.91.72-1.1 1.536-2.36 1.678-3.754.066-.692-.01-1.83-.17-2.532-.105-.436-.276-.882-.446-1.308-.076-.2-.152-.38-.219-.56a552.907 552.907 0 005.414-8.467c.427-.682.844-1.384 1.261-2.086.446-.749.91-1.536 1.385-2.275.152-.237.303-.427.464-.636.417-.521.892-1.118 1.043-2.2.19-1.336-.246-3.223-.777-4.399-1.015-2.256-3.072-3.593-5.518-3.593-1.309 0-2.636.38-3.85 1.1-1.014.597-1.498 1.11-2.076 2.171-1.261 2.333-2.826 4.779-4.343 7.15-.464.73-.929 1.45-1.375 2.16-.35.56-.71 1.11-1.071 1.67-.512.787-1.033 1.602-1.536 2.417-.133.057-.503.105-.702.133-.227.029-.464.057-.692.114-2.342.626-4.74 2.285-6.258 4.323-.426.57-.758 1.176-1.08 1.764-.19.341-.37.683-.57.996-1.156-1.043-2.474-2.105-4.143-2.504a7.778 7.778 0 00-1.792-.218c-2.636 0-4.978 1.442-6.608 4.068-2.039 3.28-1.85 8.287-1.698 11.937l.02.578v.133c.085 2.124.16 4.125 0 6.23-.01.18-.01.36-.01.53-.133 0-.266 0-.398.01-.237 0-.474.01-.711.01-.171 0-.342 0-.512-.01a15.577 15.577 0 00-.92-.028c-.872 0-1.678.094-2.674.313-6.428 1.403-10.316 6.627-9.453 12.695.019.161.076.304.114.408.01.028.028.066.038.095a.939.939 0 000 .398l.389 1.47s-.057.037-.086.066c-2.076 1.839-3.754 4.987-3.973 7.471-.16 1.84.844 4.352 1.859 5.632.104.133.246.266.408.408.047.047.123.114.19.171-.105.161-.238.36-.333.502-.275.398-.53.768-.644 1.072-.427 1.071-.598 2.417-.664 3.128-.104 1.176.332 2.949.815 3.992 1.441 3.12 3.613 4.987 7.49 6.448.19.075.38.113.55.151h.038c-.227 3.945-.36 8.173.152 12.487 2.01 16.925 13.691 30.701 29.772 35.11.54.143.578.19.787.408.133.142.313.332.597.569.237.19.484.351.72.502.276.171.522.332.702.512.057.057.124.105.2.152l2 1.081c0 .152 0 .332.038.522.72 3.29 4.41 5.499 6.609 6.817 9.055 5.433 19.304 7.31 29.203 9.13 1.413.256 2.825.522 4.228.787 5.813 1.11 11.397 1.887 17.598 2.447 2.939.265 5.954.407 8.619.512l-4.845 12.439a8.269 8.269 0 01-.398-.426 16.256 16.256 0 00-.996-1.005c-5.67-5.045-13.369-7.823-21.656-7.823-1.337 0-2.692.076-4.039.218-11.226 1.205-22.888 7.576-31.184 17.048-3.784 4.324-7.102 9.529-9.103 14.298-.626 1.498-1.355 3.338-1.47 4.333-.142 1.261.56 2.797 1.935 3.091a1.5 1.5 0 00.37.038h.322l.057.019c.123.047.303.114.56.133 1.118.076 2.322.114 3.697.114 1.66 0 3.366-.057 5.016-.105 1.64-.057 3.328-.104 4.968-.104 1.223 0 2.304.028 3.31.095.625.038 1.146.057 1.64.057.492 0 .957-.019 1.431-.057.256-.019.531-.029.825-.029.626 0 1.27.048 1.896.086.54.038 1.1.076 1.65.085 1.261.028 2.627.038 4.181.038 1.555 0 3.234-.009 4.846-.028 1.611-.01 3.223-.029 4.826-.029 3.034 0 5.48.048 7.69.152 1.46.066 3.005.095 4.863.095 1.498 0 3.006-.019 4.513-.038 1.498-.019 2.996-.038 4.494-.038 2.03 0 3.698.038 5.263.123h.095c.274 0 .493-.066.644-.104.067-.019.124-.038.161-.038.152 0 .304-.01.446-.01.474 0 .948.038 1.441.076.417.038.844.067 1.271.076.483.01.967.019 1.45.019.664 0 1.318 0 1.982-.019.654 0 1.309-.019 1.963-.019.455 0 .91 0 1.356.01h.019a.803.803 0 00.293-.057c.844-.323 1.764-.806 2.143-1.944.199-.588.19-1.119.18-1.583 0-.209 0-.408.01-.607.645-8.259 1.185-16.678 1.707-24.823l.18-2.806c.095-1.527.218-3.063.332-4.599.123-1.545.246-3.138.341-4.693.019-.237 0-.474 0-.692 0-.171-.019-.351-.01-.503h9.444c.066.294.142.579.218.853.076.285.152.569.209.854 1.621 7.547 3.413 15.208 5.139 22.613.843 3.613 1.687 7.225 2.512 10.837.123.522.209 1.053.294 1.612.085.512.171 1.053.285 1.574.075.37.635 1.764.824 2.077.076.132.579.796.816.976.104.076.654.399.939.465.701.152 1.498.218 2.512.218.597 0 1.204-.019 1.783-.047.587-.019 1.147-.048 1.687-.048.418 0 .787.01 1.11.038h.066c4.03-.047 8.287-.066 13.028-.066 7.158 0 14.468.057 21.542.104 7.092.047 14.421.104 21.608.104.483 0 .967 0 1.441-.019.474 0 .939-.019 1.413-.019.426 0 .853 0 1.28.029.303.009.645.028.995.028.882 0 1.555-.066 2.067-.208.854-.237 1.527-1.195 1.622-1.935.123-.995.028-2.882 0-3.252-.275-4.797-1.688-10.031-3.973-14.743-5.689-11.701-16.678-18.688-29.402-18.688-1.441 0-2.92.085-4.39.265-8.676 1.043-17.778 5.281-24.965 11.653-.095.085-.256.256-.455.455-.133.142-.37.389-.588.607l-8.628-16.479h.209c.294 0 .587.009.872.009.227 0 .446 0 .664-.009.445-.019.976-.076 1.536-.142.663-.076 1.355-.152 1.896-.152.133 0 .256 0 .37.019.483.047 1.052.076 1.744.076.797 0 1.631-.029 2.409-.067 2.825-.113 5.698-.341 8.467-.549a333.61 333.61 0 015.556-.399c5.85-.36 11.728-1.09 17.417-1.792 1.356-.17 2.702-.332 4.058-.502 1.081-.133 2.181-.256 3.281-.37 3.043-.341 6.182-.683 9.178-1.242a10.04 10.04 0 001.005-.266c.294-.085.768-.227.967-.256.104.029.303.105.427.143.256.095.493.18.673.218.37.085.702.142 1.024.199.948.171 1.631.284 2.531.863 1.489.957 2.788 2.19 4.153 3.489 1.366 1.299 2.788 2.645 4.419 3.698 2.19 1.412 4.124 2.351 5.764 2.787.702.19 1.413.294 2.096.398.389.057.758.114 1.119.19.028.028.066.057.094.085.057.048.105.095.152.152.247.313.484.721.702 1.109.189.342.398.683.616 1.005a8171.078 8171.078 0 0111.179 16.034c.351.512.711 1.081 1.09 1.687.616.986 1.252 2.001 1.915 2.816.531.645 1.84 1.442 2.513 1.698.929.36 1.925.502 2.863.616.067 0 .133.009.209.009.085 0 .171 0 .266-.009h.018c2.532 3.935 5.083 7.813 7.69 11.766.123.19.265.38.427.569.142.18.275.351.379.512.066.095.133.247.199.408.095.218.209.474.37.702.559.777 1.479 1.403 2.74 1.848.758.266 1.489.351 2.209.437.19.019.389.047.588.075.057 0 .123.01.199.01.389 0 1.09-.114 1.29-.152 1.773-.36 3.555-1.868 4.238-3.593.37-.939.597-2.522.521-3.537-.057-.806-.37-2.019-.891-2.759m-20.764-51.276a8.544 8.544 0 00-1.224-2.038 8.884 8.884 0 011.224 2.038zM47.085 118.528zM62.056 55.03a5.5 5.5 0 00.038-.455c0 .162-.019.313-.038.456 0 .028-.01.056-.019.085 0-.029.01-.057.02-.085zm-.37-3.024c.038.114.067.227.095.341-.028-.114-.066-.237-.094-.341zM38.629 246.528a1.23 1.23 0 000 .332v-.332c.085-.74.597-2.114 1.033-3.186-.427 1.072-.948 2.446-1.033 3.186zm1.498 2.219h-.048c-.047 0-.104 0-.16-.019a1.333 1.333 0 01-.636-.332l-.17-.171a.73.73 0 00.17.171c.18.161.389.275.635.332.057.009.104.019.161.019h.171-.133m4.646.256c-.332 0-.663 0-.986-.01.427 0 .853.01 1.28.01h-.294zM49 228.333a55.55 55.55 0 012.826-2.977A46.134 46.134 0 0049 228.333zm30.663-16.773c-.54.057-1.09.133-1.63.209a32.45 32.45 0 011.63-.209zm-16.839 5.594zm-3.128 31.782h-.057c.464 0 .938-.009 1.422-.057-.474.038-.92.057-1.365.057zm9.984.124h-.37.882-.512zm10.666-31.839c-.17.189-.834.426-1.11.512-2.71.863-5.27 1.27-8.002 2.38-3.403 1.384-5.992 3.299-9.111 5.044-.209.114-1.034.531-1.195.531-.066 0-.436-.218-.464-.323-.19-.654 1.185-1.934 1.678-2.351 3.631-3.176 11.15-6.666 15.929-7.253.53-.067 1.801-.124 2.2.18.473.36.436.853.066 1.28m3.024-5.869h.256c.228 0 .465 0 .692.009h-.948m8.534 37.898h-.02.105-.085zm1.431-30.237c-.208.967-1.498.512-2.18.332-1.574-.427-3.091-1.128-4.741-1.185-.579-.161-1.375-.427-1.28-1.157.057-.417.512-.768.9-.853.304-.067.996-.048 1.337-.019 1.622.123 4.059.739 5.395 1.754.39.294.702.626.588 1.128m13.341 1.906c-.332-.284-.636-.616-.948-.939.303.332.616.655.948.939zm-.417 28.369h-.057.094-.037zm.749-.152c-.067 0-.133.019-.19.028-.057.019-.114.029-.171.048.057-.019.114-.038.171-.048a.61.61 0 01.19-.028zm104.751.028h-.626.626zm-9.32-22.234c.654-.151 1.593.854 2 1.337.797.929 1.66 2.342 1.821 3.565.104.787-.19 1.612-1.129 1.403-.843-.18-1.678-2.446-2.171-3.214-.265-.407-.73-.882-.995-1.299-.418-.673-.437-1.583.464-1.782m-20.774-14.981c.171 0 .342.019.522.019-.541 0-1.081 0-1.622.019.37-.01.74-.028 1.1-.028m-4.295.255zm-8.201 7.567c2.446-1.479 6.485-2.323 9.282-2.579 5.319-.484 14.346.417 18.603 4.039.682.588 1.318 1.204.863 2.152-.512.228-.873.161-1.385-.019-1.28-.455-2.655-1.403-3.991-1.934-5.111-2.02-12.279-2.484-17.598-1.413-2.105.427-4.153 1.271-6.22 1.878-1.489-.512-.436-1.593.446-2.124zm-16.394 3.944s.048-.047.067-.057a.398.398 0 01-.067.057c-.028.028-.066.057-.095.095l.095-.095zm-7.319 25.325h-.247.256M257.29 234.06c1.611 2.541 3.337 5.016 5.044 7.49-1.707-2.484-3.433-4.949-5.044-7.49zm-.901-2.778c-.038.161-.114.303-.171.455.057-.152.142-.294.171-.455zm-17.095-43.501s0 .047-.019.076c0 .028-.019.056-.029.094.01-.038.019-.066.029-.094a.17.17 0 01.019-.076zm-.427 1.811h-.246.246zm-.398-6.106c.076.132.152.284.227.445a2.767 2.767 0 00-.227-.445zm-.256 8.998c.142-.057.493-.152.635-.181.133-.019.237.114.379.124.882.047 1.081.066 1.821.606.626.456 1.394 1.347 1.688 2.086.123.313.474 1.555.474 1.821 0 .142-.133.256-.143.398-.019.351.048.74 0 1.081-.265 2.37-2.057 4.949-4.134 6.106-2.427 1.356-5.679.351-6.722-2.266-.588-1.489-.787-3.612-.607-5.196.019-.171.161-.284.142-.464 1.214-.228 2.38-.816 3.366-1.555.958-.721 2.01-2.162 3.091-2.56m-7.111-12.744h.228c.076 0 .152.01.237.01h-.465c-.161 0-.332 0-.493.019.161-.01.332-.019.493-.019m-2.199-.484c.066-.313.113-.635.142-.957 0-.105.019-.218.019-.323 0 .105-.01.218-.019.323a8.235 8.235 0 01-.142.957c-.019.086-.086.228-.152.37.057-.142.133-.284.152-.37zm1.725 3.215c2.039-.247 4.551.568 5.556 2.493.256.493.493 1.735.427 2.276-.085.616-.967 2.655-1.28 3.299-1.062 2.181-3.167 3.423-5.528 3.774-2.199.332-5.044-.265-6.542-2.086-1.356-1.64-1.346-3.3-.474-5.196 1.109-2.418 5.319-4.247 7.841-4.551m-10.771-13.52h.104-.237.124m-.351.009c-.095-.332-.085-.711-.133-1.015.057.304.038.683.133 1.015zm2.219 2.968c1.251.161 2.891 1.299 3.546 2.38 1.678 2.759 1.204 5.66-1.261 7.736-.512.437-3.196 1.944-3.774 2.02-1.233.171-4.039.047-5.234-.294-2.55-.73-4.503-3.451-4.276-6.106.303-3.442 4.257-5.547 7.367-5.841 1.091-.104 2.541-.028 3.622.114m-6.855-12.544c.91 2.276 1.081 5.461 1.545 7.889.057.322.569 1.792.408 1.953-.54.161-1.119.246-1.659.436-1.346.465-3.148 1.318-4.21 2.266-.464.408-.777.92-1.213 1.356l-3.907-3.906c-.218-.237-.152-.512-.199-.74-.844-3.641-1.47-8.581 1.887-11.179 2.721-2.104 6.077-1.242 7.348 1.944m-3.167-9.927c1.015 1.242 1.631 2.911 1.612 4.513-.408.095-.777-.218-1.138-.275-1.545-.218-2.787-.161-4.257.465-3.821 1.64-5.433 4.892-5.518 8.903a16.82 16.82 0 00.133 2.56c.028.237-.029.502 0 .739-.228.057-.266-.085-.408-.199a81.27 81.27 0 00-5.661-4.314c-.995-.682-2.294-1.289-3.233-2.019-.151-.114-.265-.275-.407-.408l2.74-.901c3.157-1.223 6.153-2.73 8.855-4.759.702-.522 1.707-1.242 2.219-1.954.749-1.043.228-2.104-1.052-1.592-.493.199-.901.597-1.309.853-1.28.796-2.55 1.602-3.859 2.342l-3.148 1.498c.18-.853.655-1.631.816-2.494.294-1.612.189-4.105-.436-5.632-.19-.455-.399-.787-.787-1.1v-.132c.815-.474 1.488-1.413 2.493-1.28 4.115.521 9.548 1.792 12.336 5.186m-10.155-7.481h.123a21.42 21.42 0 011.916.351 25.697 25.697 0 00-1.916-.351c-.076-.009-.142 0-.218 0h.095zm-14.194-18.622c.455 0 .91.029 1.366.048-.484-.019-.968-.048-1.451-.048h.085zm-14.506 4.637c5.954-.91 11.956-2.532 18.033-1.773 3.945.493 7.301 2.702 8.666 6.561.579 1.631.361 4.902-.531 6.429-.777 1.317-1.763 2.806-3.081 3.65-5.338 3.423-14.393 4.523-20.546 4.921-3.679.237-7.557 0-11.189.265-2.029.143-4.238-.142-6.333 0-4.163.275-8.733-.189-12.933-.407-12.079-.617-24.121-1.271-36.124-2.285-9.842-.835-19.674-1.84-29.507-2.703-2.92-.256-5.85-.502-8.742-.967-.91-.142-2.02-.17-2.986-.379-.693-.152-.939-.446-1.214-1.081-.294-.664-.294-1.289-.474-1.963.54-4.304 5.243-7.291 9.235-7.888 2.162-.323 4.286-.275 6.476-.398 5.584-.323 11.415.417 16.972.805 11.937.835 23.694 2.788 35.574 3.907 7.339.692 14.706 1.119 22.111 1.479 9.074.436 18.404.977 27.487.133 2.531-.237 6.836-.977 9.017-2.304.351-.209.815-.588.881-1.005.019-.105-.17-.474-.256-.531-.54-.361-2.029.313-2.654.455a51.437 51.437 0 01-4.836.825c-.389.047-.872.265-1.327.123-.105-.028-.18-.18-.304-.237-2.958-1.432-5.85-2.57-8.903-3.764-.957-.379-1.839-.759-2.787-1.128-.304-.114-.56-.361-.901-.38l1.166-.379.01.019zm-16.527 5.575c.171-.256.493-.332.683-.531 1.195-1.318 2.427-2.588 3.565-3.982.209-.256.702-1.138.958-1.204.957.265 1.896.607 2.844.91 3.888 1.261 7.955 2.778 11.814 4.229 1.024.379 2.01.881 3.053 1.185.01.284.057.256-.199.265-2.882.143-5.869-.104-8.761 0-3.802-.132-7.661-.379-11.454-.54-.673-.029-1.526.095-2.161 0-.143-.019-.399-.133-.332-.341m10.401-6.95c1.185-.247 2.37-.503 3.565-.759-1.195.256-2.38.503-3.565.759zm-13.881-35.148h.152-.341.189zm-18.84 10.107c-.123-.066-.161-.142-.18-.228.01.076.057.162.18.228zm2.56 27.345c.541.094.835.085 1.347.132 6.457.588 12.354-4.266 13.274-10.704.73-5.101-2.209-10.496-7.007-12.535a12.211 12.211 0 00-9.756.095c-.114.047-.266.247-.361.047.294-.426.569-.862.882-1.28 3.613-4.844 9.472-9.49 15.635-10.24 1.252-.151 2.522-.331 3.774-.142 5.973.93 9.32 5.32 10.42 11.008 1.801 9.302-3.698 20.907-10.894 26.795-.493.398-1.508 1.261-2.105 1.394-.417.095-1.404.047-1.868.019-3.897-.19-7.841-.607-11.719-.948-2.115-.181-4.248-.247-6.343-.531-.304-.038-1.555-.721-1.754-.939-.114-.133-.361-.702-.446-.901-.626-1.517-1.128-4.02-1.242-5.632-.029-.426.028-.863 0-1.28.436.237.578.806.882 1.214 1.706 2.294 4.456 3.925 7.272 4.447m-17.275-40.695h.132c-.161 0-.322.01-.474.01.114 0 .237-.02.351-.02m-24.434 31.792c.38.123.418.54.607.806 6.457 9.083 20.49 5.129 22.168-5.727.673-4.352-1.602-9.491-5.48-11.776-3.224-1.896-7.036-2.332-10.563-1.033-.256.094-.464.303-.739.341-.209.028-.237 0-.199-.199.464-.692 1.024-1.309 1.545-1.953 1.612-1.982 3.366-3.802 5.461-5.32 4.296-3.11 9.871-5.28 15.133-3.678 5.67 1.725 8.107 7.12 8.723 12.572.142 1.252-.787 2.105-1.328 3.12-2.36 4.38-3.366 7.936-4.2 12.781-.038.218.095.663-.209.739-.075.019-.739-.237-.938-.275-5.073-.834-10.534 2.883-11.122 8.154-.038.332.133 1.185-.209 1.28-.113.029-.246-.123-.398-.132-4.266-.427-8.533-.93-12.8-1.347-.938-.095-1.924-.076-2.835-.265-.114-.019-.256.019-.389-.019-.37-.105-.663-.455-.834-.787-.607-1.204-.967-3.025-1.166-4.362-.066-.483-.218-1.175-.247-1.64-.028-.417.029-.863 0-1.28m-2.474-7.538c-.882-.095-1.773-.17-2.674-.246.9.066 1.792.151 2.674.246zm-29.45 12.061c-.057-.683.256-2.731.56-3.357.113-.227.502-.806.673-1.081 1.877-2.967 5.082-4.067 8.382-4.693 4.55-.853 9.225-.759 13.9-.929.976-.038 1.924.114 2.834.142 1.148.028 2.295-.028 3.442 0-.019.237.029.512 0 .74-.038.331-.246.881-.275 1.204-.066.777.047 1.64 0 2.427-.114 2.181.066 4.418.692 6.571.2.701.493 1.384.778 2.057l-.19.323c-.104-.143-.246-.133-.398-.143-4.485-.199-9.216-.644-13.758-.407-1.877.104-3.688.369-5.66.142-1.953-.228-3.954-.683-5.926-.948-.36-.048-.522.076-.816.142-.34.076-.55-.019-.815.398-.161.256-.028.597.142.816.18.237.418.293.702.379.787.237 1.612.332 2.399.569.19.057.246-.114.199.265-1.3.417-2.361 1.337-3.3 2.295-.313-.351-.701-.655-1.014-1.005a10.42 10.42 0 01-2.56-5.926m.35 9.111c.105 0 .21-.009.313-.009h.029c-.114 0-.228 0-.332.009-.275.019-.569.048-.882.095.313-.038.607-.076.882-.095m-10.449 3.3c1.129-.778 2.788-1.489 4.542-2.048-1.754.569-3.413 1.27-4.542 2.048zm4.57.806c1.575-.578 3.68-1.081 5.33-1.28.236-.029.502.019.739 0 .01.152 0 .294-.02.455-.17 1.214-.284 1.716-.113 2.987.028.189.341.806.275.872-.152-.019-.332.028-.474 0a44.827 44.827 0 00-3.366-.408c-.863-.076-1.764.057-1.536 1.129.142.654 1.621 1.099 2.228 1.27 1.147.322 2.56.607 3.745.834 3.565.674 7.434 1.024 11.056 1.347 13.293 1.157 26.567 2.503 39.888 3.498 11.7.882 23.391 1.555 35.177 2.02 2.086.085 4.228.057 6.333.133 7.699.294 15.654.028 23.306-.673 4.74-.437 9.5-1.309 13.994-3.12a1.69 1.69 0 00.427-.237c.702.56.853 1.261 1.005 2.077.484 2.617-.133 5.12-1.887 7.149-1.014 1.175-2.275 1.393-3.707 1.82-.54-.076-.929-.446-1.365-.664-4.22-2.142-8.524-3.659-13.189-4.465-.872-.152-1.821-.361-2.693-.408-8.628-.493-17.247.958-24.917 5.139-.797.436-3.366 2.266-3.944 2.389-.626.133-1.47.19-2.134.294-4.257.645-8.325.778-12.677.939-3.403.123-6.807.208-10.24.142-7.433-.152-14.857-.284-22.234-.673-7.604-.398-15.132-1.337-22.632-2.295-5.897-.749-11.226-1.972-16.782-4.238-2.712-1.109-5.84-2.901-6.58-5.954-.17-.692-.142-1.441-.294-2.134.588-4.039 3.584-6.608 7.272-7.955m16.365 24.899c-1.517-.598-3.09-1.166-4.541-1.934-.332-.181-.844-.475-1.034-.787.218.019.37.104.597.142 7.842 1.204 15.654 2.171 23.59 2.683 12.449.815 25.126 1.233 37.727.806 3.015-.104 5.689-.133 8.647-.512.199-.028.389-.028.588-.019a2.911 2.911 0 01-.607.673c-.91.797-2.228 2.01-2.967 2.958-.181.228-.522 1.015-.693 1.062-.587.209-1.175.086-1.744.143-6.542.739-13.066 1.45-19.674 1.886-1.081.067-2.134-.18-3.233-.265-.475-.038-1.811-.18-2.162-.133-1.498.19-3.148-.038-4.713-.133-10.03-.578-20.309-2.863-29.81-6.58m18.992 8.069l-.74.275c-4.314.19-8.637.171-12.942.398-3.034.161-6.125.417-9.159.541-2.038.085-4.058.009-6.068.275-.825.104-4.02-1.148-4.93-1.546-3.888-1.735-8.078-5.177-8.894-9.567-.209-1.128-.028-2.493.294-3.612.332-1.147 1.015-2.171 1.802-3.053 1.611.844 3.28 1.735 5.006 2.399 1.337.512 2.588.663 3.754 1.64 6.77 5.67 15.664 8.296 24.093 10.534 1.66.446 3.356.958 5.034 1.299.901.18 1.82.284 2.74.427m-44.59-20.699c.388.219.502.806.739 1.148.322.474.777.957 1.138 1.422.142.484-.247.569-.465.872-1.66 2.333-2.437 4.722-2.228 7.614l.407 1.678c-.218.057-.331-.047-.492-.114-2.238-.9-4.77-2.882-6.647-4.399-3.688-2.987-8.296-8.211-10.496-12.411-.133-.266-.816-1.679-.692-1.802.683-.038 1.413.048 2.095 0 2.399-.18 5.12-1.166 7.073-2.636.152-.113.285-.388.474-.332l1.347 2.02c.161.19.38.341.54.54 2.105 2.617 4.295 4.713 7.216 6.4m1.213 16.195s-.057-.067-.085-.095c.028.028.057.066.085.095a.841.841 0 01.18.322c.038.019.048.038.038.067 0-.029 0-.057-.038-.067a1.103 1.103 0 00-.18-.322zm.095.55l-.047.028s.019-.009.047-.028zm-1.327.009h-.228.237m-15.018-12.345l-.693-.834c-.388-.484-.777-.967-1.166-1.46.38.493.768.976 1.166 1.46.218.275.456.55.693.834zm13.368-40.495c-.199-.74-.483-1.479-.71-2.219.227.749.511 1.479.71 2.219zm4.277-25.562h.151-.265.114zm1.725 2.854c.57.151 1.337.54 1.707.986 1.1 1.308.948 3.67.512 5.234-.872 3.11-4.855 7.025-7.528 8.779-.683.456-1.451.75-2.086 1.28-1.081.901-2.304 2.551-2.494 3.973-.142 1.081.36 1.28 1.071 1.906.73 2.882 1.262 5.243.266 8.183-1.365 3.991-5.205 6.229-6.922 10.05-.284.635-.777 1.82-.587 2.484.047.161.578.578.749.607.303.057.872-.408 1.062-.664.597-.796 1.137-2.095 1.754-2.825.132-.152.246-.313.474-.275-.105.332.113.635.132.872.313 3.537-2.332 7.168-5.518 8.495-2.095.873-5.186 1.385-7.32.579-1.09-.417-2.152-1.252-3.195-1.792-.322-.237-.057-1.403 0-1.821.711-.085 1.688.124 2.361 0 .209-.038 1.034-.36 1.29-.464.635-.266 1.564-.797 1.327-1.612-.076-.266-.72-.607-.995-.626-.285-.019-.901.247-1.214.275-.787.076-1.688-.066-2.494 0 .029-.417-.038-.872 0-1.28.029-.294.228-.768.275-1.071.74-4.883 1.868-9.785 3.252-14.535.294-1.024.702-2.02.92-3.053l.275.606c.114 1.347.35 3.139.872 4.39.342.835.939 1.631 1.878 1.745 1.147-.825.407-2.2.208-3.29-.607-3.489-.588-7.984.161-11.435.19-.872.57-2.029.94-2.835a.386.386 0 01.198-.208c.427-.048.9.047 1.318-.029.218-.038 1.147-.417 1.346-.531.626-.36.949-1.176 1.366-1.735.389.569.844 1.65 1.612 1.754 1.99.285.787-2.152.606-3.167-.038-.237-.113-.597-.132-.806-.067-.616.114-1.213.426-1.735.095-.16.247-.237.323-.35.55-.92 1.185-2.22 1.82-3.035.645-.844 2.968-1.943 4.001-2.332 1.773-.654 4.163-1.166 6.021-.673m-25.42 6.087c-.123-.038-.18.085-.265.019-.19-.142-.579-.958-.806-1.223-.56-.683-1.195-1.166-1.887-1.612-.152-.095-.635-.427-.673-.55.17-.512.36-.93.9-1.11.105-.037.276 0 .304-.028a3.33 3.33 0 00.152-.464c0-.162-.19-.285-.133-.522.047-.18.303-.38.256-.626.806.674 1.877-.284.673-.673-.227-.199.759-1.432.92-1.697.465-.759.93-1.783 1.432-2.475.322-.436 1.194-.142 1.014-1.08.341-.076.588.075.872.132.579.123.674.303.958.389.2.057.455-.02.664.01.322.047.654.312 1.005.274.095.076-.844.835-.133 1.28.37.237.93-.502.815-.882.067 0 .143-.018.2 0 .35.124 1.1.607 1.47.825.236.143 1.175.702 1.28.806.303.285-.2.38.739.674.047.019.73.559.74.606.037.143-.01.285.075.465.086.18.939.474 1.223.939.133.218.02.635.067.673.019.019.246-.02.407.066.313.161.768.834.654 1.204-.028.095-.151.142-.19.218-.056.105-.056.237-.075.256-.019.02-.38.048-.578.162-.73.436-.02.616-.086.853-.038.123-.331.237-.265.484-.285.066-.465-.162-.74-.143-.379.029-.521.617-.474.948l.54.2c-.597 1.004-1.27 1.972-1.867 2.986-.247.408-.474 1.204-.825 1.46-.17.124-.522.19-.616.332-.124.19.019.446-.19.616-.161.133-1.299.437-1.555.475-1.147.132-.91-.294-1.555-.873-.54-.483-2.21-1.223-2.408-1.431-.038-.038 0-.237-.142-.332-.437-.304-.825-.048-.996-.076-.19-.029-.702-.275-.759-.465-.056-.19.304-.388.399-.53-.162-.266-.209-.446-.531-.55m29.516-49.409h-.095.095zm-2.959 4.011c.351-.512 1.612-1.166 2.229-1.28a3.427 3.427 0 011.801.18c1.346.54 1.65 2.494 1.754 3.783-.133.607-.398 1.024-.882 1.413-.16.047-.237-.114-.331-.2-.465-.407-.882-.966-1.347-1.345-.56-.446-1.82-1.11-2.513-1.261-.379-.086-.824.056-1.118-.36.18-.285.227-.646.417-.93m-6.789 11.425c1.09-1.82 2.238-3.593 3.366-5.385.512-.816.939-1.764 1.574-2.466.294-.085.446.105.664.133.18.02.379-.038.54 0 1.688.313 2.816 1.328 3.83 2.636.077.294-.066.484-.198.73-.446.825-1.157 1.697-1.66 2.513-1.28 2.076-2.512 4.2-3.859 6.248-.085.066-.199.247-.275.266-.16.047-.237-.114-.331-.2-.465-.398-.882-.967-1.347-1.346-.474-.37-1.432-.977-1.972-1.261-.36-.19-.73-.35-1.128-.427-.152-.142.663-1.223.787-1.431m-3.878.948c-.19.199-.512.284-.844.341.341-.057.654-.142.844-.341zm-7.614 4.513c-.076.095-.133.2-.199.303.066-.094.123-.199.2-.303zm-1.621 8.76c.815.058.796-.54.73-1.203h-.256c-.048-.256.066-.484.199-.683.057-.095.2-.114.2-.133.303-.502 1.725-3.366 2.104-3.489.104-.028.265.01.303-.028.218-.209.228-.73.294-.986.171-.655.626-.484 1.195-.493-.057-.171.17-.313.133-.456-.048-.17-.465-.322-.398-.55.085-.17.71-.587.805-.474l.076.266c.835.019.939-.35.74-1.08.17.009.313-.077.455-.153.882-.445 1.536-.635 2.56-.806.085-.009.17-.18.218-.123l.133.673h.806v-.673c.151.02.332-.028.474 0 .227.038 1.299.304 1.403.427.038.047-.019.19.019.237.047.047.521.142.664.218.246.123.407.332.663.35v.807c.2-.067.38.094.474.094.114 0 .218-.19.474-.028.114.076.37.446.39.56.018.132-.133.237-.114.37.018.085.17.189.132.35l.797.152c.426.948.834 1.877 1.09 2.892 0 .36-.398.284-.417.407v.664l.408.209c.075.066-.133.663-.2.806-.123.313-1.033 1.953-1.213 2.152-.342.389-.247 0-.493.72-.086.247-.256.39-.37.579-.029.057 0 .142-.029.17-.028.029-.654.02-.796.152a2.964 2.964 0 00-.152.465c0 .151.171.294.152.54-.019.256-.303.465-.275.74l-.749-.531c-.398.057-.863.758-.465 1.005.21.133.512-.029.674.265-.664.863-1.12 1.84-1.688 2.76-.095.151-.332.265-.408.398-.123.218-.398 1.147-.673 1.194-.047 0-.123-.123-.389.038-.654.389-.218.645-.208.996 0 .218-.285.692-.55.607v-.256c-1.062-.237-1.375 1.014-.275 1.071l-.673 1.214c-.503.019-.408-.436-.408-.806-.2-.048-.512-.105-.673-.2-.038-.028-.56-.663-.607-.739-.256-.427.227-.36-.38-.569-.113-.038-.985-.616-1.023-.663-.228-.237.284-.351-.74-.683-.038-.01-.673-.484-.692-.522-.142-.199.085-.294.066-.455l-.132-.35s-.399-.133-.446-.133c-.123.019-.465.227-.56.227-.16 0-.606-.426-.872-.379l.398-.142.143-.607-.351-.465c-.285-.028-.73.171-.74.465 0 .104.304.484-.056.332-.171-.067-.399-.266-.598-.341a34.1 34.1 0 00-2.57-.873c.39-.54-.028-1.337-.673-1.014l-.53.749c-.048-.247.047-.39.151-.588.484-.948 1.233-1.991 1.802-2.92.066-.105.057-.247.076-.257.028-.037.682.067.796-.36.047-.151-.332-.445.076-.995.275-.39.284-.152.54-.133m-6.57-8.372h.123-.17.047zm-4.495 7.13c.399-1.565 1.47-3.319 2.94-4.068.663-.341 1.877-.37 2.607-.18.825.218 2.38 1.394 2.92 2.067.73.91.323.863-.123 1.64-2.54 4.476-5.262 8.96-7.955 13.34-.151.247-.35.589-.426.854l-.266-.066c.029-.531-.038-1.09 0-1.621.275-3.897-.692-8.117.294-11.966M9.112 98.437c1.593-1.897 4.304-2.854 6.694-3.139 2.342-.284 5.632.37 7.452 1.935.588.502 1.384 1.65 1.489 2.417.028.218-.029.455 0 .683.019.18.161.294.142.54-.17 2.02-1.944 4.258-3.869 4.893-1.26.417-3.11.711-4.427.569-.636-.076-1.48-.474-2.153-.541a17.201 17.201 0 00-5.774.427 2.01 2.01 0 00-.569.237c-.076 0-.294-.379-.322-.483-.54-2.579-.446-5.433 1.327-7.529m-4.01 6.912c0 .076 0 .142-.029.228l.54 2.01s-.028.047-.047.066c0 0 .029-.038.048-.066l-.54-2.01c.028-.076.028-.152.028-.228zm-2.247 17.541c.094-.247.388-.654.654-1.043-.266.389-.55.796-.654 1.043zm.132 6.476c.37.806.797 1.507 1.27 2.133a11.02 11.02 0 01-1.27-2.133zm1.148-13.416c-.256-2.238 1.07-4.04 2.313-5.708 1.261-.863 2.664-1.536 4.229-1.773 3.29-.493 8.505.635 9.984 4.039 1.166 2.674.379 5.414-1.83 7.215a5.83 5.83 0 01-1.546.882c-1.052-.531-2.142-1.318-3.261-1.735-2-.74-4.788-.901-6.789-.095-.465.19-.958.503-1.413.74a1.655 1.655 0 01-.322-.351c-.417-.645-1.29-2.494-1.365-3.214zm7.14 19.939zm-2.2-3.717c-1.755-1.005-3.594-3.005-4.002-5.034-.53-2.655.787-5.007 3.366-5.936.503-.18 1.185-.227 1.707-.313.152-.028 1.223.076 1.47.114 3.062.408 6.305 3.404 6.542 6.533.17 2.332-.901 4.267-3.1 5.129-1.726.674-4.39.418-5.984-.493zm30.17 40.297c-.93 2.038-1.176 4.257-.626 6.428.038.142.199.806.16.853l-1.753-.597c-13.303-5.319-21.599-17.474-23.315-31.535-.19-1.555-.161-3.034-.266-4.589-.085-1.299-.056-2.314 0-3.632.038-.91-.104-1.962 0-2.835.029-.227.162-.749.351-.863 2.01-.123 4.162-1.223 5.452-2.768 2.152-2.579 2.105-6.438.521-9.283-.19-.341-.587-.625-.521-1.024.332-.104.787-.388 1.071-.606 3.31-2.541 4.542-6.562 2.94-10.487-.512-1.251-1.27-1.763-2-2.721-.086-.114-.19-.133-.134-.341a6.953 6.953 0 002.968-1.28c1.593-1.186 2.816-3.091 3.347-5.007.076-.265-.076-.54.228-.72 1.26.493 2.341 1.204 2.872 2.493-.436.958-.881 1.916-1.26 2.892a118.782 118.782 0 00-6.799 24.595 161.156 161.156 0 00-.683 4.713c-1.63 12.591 5.424 28.577 17.522 33.829.398.171.91.181 1.214.531-.56.56-.958 1.233-1.29 1.954zm-1.252-7.074c-6.533-4.115-11.311-12.269-12.8-21.835l.56.331c1.042 3.888 3.432 7.064 5.992 10.231 3.413 4.219 9.263 9.804 14.753 11.994-.996.228-1.991.711-2.883 1.147l-.379.19a1.06 1.06 0 00-.275.19 1.31 1.31 0 01-.303-.029c-.72-.133-2.105-.616-4.656-2.228m5.576 2.797a.682.682 0 00-.162.133c.048-.048.095-.105.162-.133zm-.873.256c-.076 0-.142-.019-.199-.028a8.942 8.942 0 01-.597-.143 3.867 3.867 0 00.796.171zm3.28 18.176s.03.076.039.123c-.01-.038-.02-.085-.038-.123zm-2.569-5.11c-2.436-2.21-3.11-5.054-1.621-8.088.389-.797 1.564-1.953 2.36-2.361.247-.133.589-.171.864-.351 1.043-.673.957-.834 2.313-1.062.427-.066 1.062-.246 1.48-.275.654-.047 2.521-.104 3.08.019.465.104 1.29.967 1.707 1.261.816.569 1.783 1.185 2.693 1.555.01.285.057.256-.199.266-.36.019-.73-.029-1.08 0-.826.066-1.736.208-2.551.275-.968.075-2.039.056-2.968.265-.114.029-.256-.028-.389.01-.53.142-.635 1.061-.284 1.469.18.209.92.379 1.213.408 1.46.133 3.916.095 5.395 0 4.049-.266 8.297-.256 12.393-.408 10.439-.398 20.85-.73 31.27-1.204 7.642-.351 15.331-.749 22.907-1.479 12.392-1.204 24.756-2.532 37.053-4.181 5.642-.759 12.156-1.65 17.816-.294 3.698.891 8.372 2.74 11.501 4.94.067.047.323.293.266.331-1.555.332-3.091.768-4.646 1.081a553.176 553.176 0 01-29.383 5.111c-7.235 1.052-14.45 2.143-21.694 3.1-4.627.607-9.377 1.204-14.014 1.622-10.808.957-21.617 2.256-32.474 2.967-2.73.18-5.48.152-8.23.266-7.67.303-15.492.512-23.04-.531-2.72-.379-5.053-.872-7.613-1.953-1.66-.702-2.788-1.565-4.106-2.759m148.092-7.121c1.033.711 2.152 1.337 3.166 2.067.199.142.351.389.541.54.55.408 1.261.655 1.612 1.28a5.71 5.71 0 00-1.261.161c-2.778.636-6.154 2.987-7.301 5.633-.142.322-.228.739-.332 1.08-.152.029-.322-.028-.474 0-4.362.797-8.704 1.432-13.075 2.153-9.007 1.498-18.005 2.778-27.079 3.508-8.154.654-16.403.929-24.661 1.081-3.177.057-6.306-.171-9.435-.275-10.211-.351-20.375-.882-30.464-1.878l-1.28-.341c.105-.133.427-.066.607-.066 6.505-.048 13.113-.901 19.542-1.489 7.149-.654 14.336-1.033 21.428-2.019 3.394-.474 6.836-.759 10.24-1.214 6.239-.844 12.421-1.811 18.593-2.693a553.779 553.779 0 0031.403-5.385c2.759-.56 5.546-1.242 8.22-2.134m-139.216 19.39c-.294-.171-.598-.36-.91-.55.312.199.615.379.91.55.805.484 1.62.939 2.446 1.375a39.28 39.28 0 01-2.447-1.375zm59.391 55.514h-.199c-.407 0-.806 0-1.204-.009.398 0 .806.009 1.204.009h.361-.162zm.797-42.733h-.057.066-.009zm31.241.284h-.056c.227 0 .464.001.692-.009-.209 0-.427.009-.636.009zm4.542-.284a6.461 6.461 0 00-.436-.019c.152 0 .303 0 .436.019zm1.669.066h-.455.635-.171m37.803-3.299c2.048-.247 4.134-.465 6.229-.711-2.086.246-4.181.464-6.229.711zm9.842-3.774c-4.58.569-9.159 1.1-13.748 1.622-2.286.256-4.59.559-6.865.815-7.016.787-14.061 1.261-21.163 1.612-10.012.502-20.072.815-30.189.683a375.91 375.91 0 01-13.065-.408c-9.036-.436-17.797-1.261-26.681-2.968-8.012-1.545-16.725-2.731-24.33-5.717-3.48-1.366-9.547-3.964-11.918-6.808-.114-.133-.256-.171-.199-.408l2.2.427c4.266.948 8.723.92 13.094 1.185 1.118.067 2.389.029 3.508.133.872.085 2.095.588 2.987.787 4.399 1.005 8.846 1.517 13.321 2.038 5.47.645 11.055.873 16.574 1.214 5.641.351 11.321.512 16.971.815.456.029 1.034.029 1.489 0 5.774-.35 11.814-.094 17.655-.407 13.975-.749 27.686-2.446 41.51-4.988 2.654-.483 5.3-1.033 7.954-1.479.285-.047.702-.151.939-.265.294 0 .304 1.28.36 1.526.911 4.4 5.111 7.206 8.695 9.368l1.934.958c-.152.436-.654.218-1.014.265m21.286 9.15c-3.205-1.783-5.139-4.172-7.832-6.457-.304-.256-1.451-.92-1.555-1.138-.104-.218.085-.18.18-.218.616-.265 1.422-.872 1.849-1.394.218-.275.569-.872.54-1.213 0-.076-.256-.835-.284-.863a3.912 3.912 0 00-.465-.152c-.502-.038-1.668.778-2.218 1.024-.655.294-1.536.616-2.228.74-1.717.313-3.708-.275-5.244-1.1-4.503-2.418-11.833-5.765-11.14-11.909.265-2.332 3.707-4.655 5.859-5.053.18-.038 1.1-.152 1.214-.133 2.038.265 3.489.332 5.366 1.365 1.11.607 1.916 1.299 2.788 2.2 2 2.086 4.048 4.418 5.366 7.026.493.976.664 1.782.986 2.787.247.778.797 2.513 1.859 1.773.161-.114.246-.37.464-.332.152.038 1.622 2.21 1.887 2.56 1.972 2.532 4.058 5.035 6.068 7.548.285.35.816.663.882 1.147.048.36-.19.597-.142.948.085.645.085 1.119.133 1.754.019.209.227.455.132.74-1.564-.171-3.119-.873-4.494-1.631m6.021 4.504c-.569-.124-1.138-.2-1.707-.285.569.085 1.147.171 1.707.285.104.132.237.237.351.36-.114-.114-.247-.228-.351-.36zm.474-8.022c-.341-.095-1.081-1.507-1.365-1.877-3.177-4.2-6.742-8.202-10.108-12.269-2.171-4.2-5.802-8.97-9.993-11.302-.579-.322-1.46-.559-1.934-.891-.512-.361-1.11-1.062-1.622-1.479-3.252-2.636-6.95-5.206-10.515-7.406-4.617-2.844-10.154-5.432-15.559-6.001-4.428-.465-8.05-.114-12.402.407-1.592.19-3.318.522-4.987.806-2.949.503-5.954.835-8.912 1.328-.882.151-1.536.208-2.409.284-1.593.142-3.347.455-4.977.541-.512.028-1.043-.029-1.555 0-.057-.228.085-.266.199-.408.474-.569 1.081-.996 1.621-1.479 6.457-5.812 14.014-9.292 22.642-10.373 3.366-.427 7.016-.408 10.373 0 11.728 1.403 21.56 8.884 30.321 16.166 1.29 1.422 2.826 2.551 4.182 3.906.218.351-.114.711-.19 1.034-.939 4.56 1.754 9.055 6.267 10.259.209.057 1.129.294 1.185.294h4.248c.095.389-.17.701-.246 1.033-.816 3.66.976 6.486 4.105 8.249 1.546.872 3.565 1.138 5.31 1.1.095.284-.123.531-.142.74-.124 1.555.037 2.929.436 4.427.132.522.474 1.005.379 1.574-.768.18-1.517.816-2.238 1.062-.417.142-1.754.389-2.124.275m5.187 11.264l.939-.208c.237-1.119-1.176-1.252-1.072-.133-.389-.19-.54-.683-.806-1.015.104-.17.484-.398.531-.55 0-.028-.123-.436-.142-.455-.066-.066-.588-.17-.73-.142l-.067.275c-.132.19-.644-.559-.644-.607 0-.199.265-.569.047-.882-.227-.331-.711-.161-.749-.189a8.726 8.726 0 01-.389-.569c-.284-.882-.294-.493-.758-.996-.692-.739-.645-1.602-.74-2.493-.019-.152-.17-.285-.132-.398.075-.285 1.005-.304 1.28-.342.151-.019.284-.161.388-.133.142.038.275.351.427.389.654.19.815-.199.73-.796.446-.038 1.005-.323 1.394-.56.322-.189.929-.796 1.232-.796.389 0 .569.645.73.758.152.095.323.029.456.086.303.114.568.37.9.388-.199.294-.132.607-.132.939.502.038 1.024.067 1.08-.54.389.275 1.034.18 1.394.284.124.038.171.228.417.256.247.038.55-.038.806 0l.076-.265c.588.057 1.11-.124 1.678-.152.124.019.067.341.285.398.227.067.787.048.863-.199.142-.493-.209-.958.739-.995l1.963 2.891c-.18.209-.303-.161-.541 0-.815.531-.322 1.261.541 1.148l.066-.939.484.74c0 .208-.465.929-.616 1.147-1.11 1.602-3.3 3.451-5.007 4.428-.227.132-1.631.853-1.725.825-.124-.038-.275-.351-.427-.389-.654-.19-.815.199-.73.796l-2.75.673c-.531-.464-.853-1.128-1.289-1.678zm15.275 21.902h-.114c-.664-.075-1.356-.17-2.01-.35.663.18 1.356.275 2.01.35h.189-.075zm2.379-2.835c-.057-1.232-1.166-1.014-1.081.133-.53.057-.929-.019-1.412-.133-.105-.028-.294.038-.332 0-.019-.019-.095-.369-.209-.53-.322-.446-.417-.133-.872-.133v.398c-.474 0-.977-.313-1.289-.673-.086-.104-.048-.256-.067-.266-.133-.161-.445-.313-.607-.54-.142-.199-.218-.474-.341-.673.247.104.702-.636.673-.74-.133-.455-1.232-.569-1.081.199l-.663-.872c.616-.512.104-1.47-.617-1.024l-.588-.721.105-.54c-.086-.294-.759-.322-.797-.351-.019-.019 0-.161-.076-.256-.474-.664-.891-1.346-1.346-2.019-.379-.55-1.138-1.394-1.413-1.954-.123-.256-.057-.17.133-.132.341.075.37 0 .673-.076.123-.768-.17-1.233-.938-.939.009.228 0 .389-.209.531l-.607-.74c.863-.644.332-1.867-.607-1.014-.085-.104-.445-.569-.445-.607 0-.066.132-.199.114-.408-.048-.654-.569-.445-.949-.805.313-.342.844-.256 1.205-.475-.019.56.796.541 1.014.143.085-.152.038-.38.19-.484.161-.104.597-.161.815-.256.645-.275 1.337-.768 1.953-1.014.37-.143.048.569.408.673.626.057.929-.256.872-.872l-.398-.275.626-.465c.37.171.73.133 1.128.123.038-.284-.085-.711.066-.948.361-.588.778-.275 1.157-.465.436-.218.142-.72.332-1.014.038-.066.37-.379.417-.398.152-.038.654.445.854-.361.047-.189-.133-.35-.067-.455.427-.692.446-.54 1.204-.388l3.85 5.575-.541.407.133.873c.19-.01.417.038.588-.01.152-.047.218-.313.417-.256.038.01.455.569.455.607 0 .209-.464.332-.057.882.2.265.806.057.873.133.019.028-.01.113.019.18.104.18.322.369.369.578.038.171 0 .559.019.588.029.028.2-.019.313.019.19.066 1.366 1.896 1.555 2.228.18.313.285.664.427.996l-.673-.076c-.171.218-.342.521-.256.806.028.094.398.322.474.341.227.047.313-.351.597-.265.313 1.554.152 3.1-.408 4.579h-.455l-.208.209.066.872-.54.521-.74-.113-.152.73c-.038.132-.701.531-.881.597-.408.161-.73.341-1.119.493-.351.142-.74.171-1.081.332m7.509 11.842l-6.002-9.235c-.018-.151.095-.265.219-.322.929-.417 1.687-.607 2.607-1.166.768-.465 1.489-1.015 2.095-1.678l6.002 8.96-.019.265c-.313.332-.455.796-.73 1.157-.986 1.27-2.389 1.801-3.906 2.162l-.275-.143h.009zm3.139 6.998c-.105-.029-.218-.048-.323-.086.105.029.218.057.323.086zm2.067.284h-.095.199-.104zm1.735-3.432c-.124.123-.749.55-.901.588-.351.075-1.631.066-2.01.019-.199-.029-.806-.247-1.015-.332-.758-.332-1.223-.844-1.346-1.688 1.498-.313 3.195-1.176 4.181-2.351.18-.218.531-.948.74-1.015.152-.047.777.597.853.759.55 1.128.37 3.091-.512 4.029" fill="#231815"/><path d="M111.483 249.306c-.407 0-.806 0-1.204-.009.398 0 .806.009 1.204.009zm41.292-25.562s-.066.057-.095.095l.095-.095zm77.824-43.985c.161-.009.332-.009.493-.019-.161 0-.332 0-.493.019zm20.015 53.154c.105-.067.247-.057.266-.067.019-.019.028-.493 0-.588-.066-.237-.446-.18-.616-.331h-.105l-.483.606.474.588c.294.086.322-.114.464-.199m-.464-2.636h.73v-.929c-.901-.427-1.337.275-.73.929zm-3.793-2.55c-.104-.029-.55.104-.588.132-.018.019-.142.408-.132.446.019.133.341.578.474.616.18.048.682-.17.73-.331.066-.237-.275-.806-.474-.863m4.38-2.968l.133-.939c-1.356-.54-1.422.977-.133.939zm-.265 2.759c.654-.237.512-1.024-.086-1.138-.037 0-.426.114-.445.133-.038.038-.161.493-.152.597.029.332.332.531.683.408zm1.877 3.973c-.009-.19.038-.417-.009-.588-.19-.654-1.631-.379-1.053.512.266.417.664.171 1.062.076zm0-2.693c.038-.284-.009-.844-.265-1.014-.162-.105-.598.009-.674.075-.094.086-.208.873-.142.93.427.161.645.161 1.072 0m-4.646-7.936s-.436.123-.455.142c-.01.009-.133.322-.133.351-.029.132.209.369.123.588.503.123 1.223-.2.806-.74-.066-.076-.284-.313-.351-.332m1.166 2.484c.171.105.531-.076.617-.199.151-.227 0-.749-.199-.882-.162-.104-.598.01-.674.076-.018.019-.142.408-.132.446.019.123.275.483.388.559zm.19 2.75c.474-.085.559-.503.484-.929-.465-.19-.958-.247-1.062.351 0 .037.113.426.132.445.019.019.408.142.446.133zm.142 2.968c.569-.171.37-1.186-.142-1.337-.028 0-.436.123-.455.142-.076.076-.18.578-.133.721.048.17.484.549.73.474zm-4.911.483c.142.579.465.835 1.071.73.171-.863-.426-1.536-1.071-.73zm1.83-7.348c-.664.54-.579.977.246 1.204.749-.521.56-.967-.246-1.204zm-1.242 9.709c-.133-.028-.37.209-.588.123.019.285-.104.711.133.882.872.654 1.422-.825.455-1.005zm-.124-4.333l.607-.332c.152-.777-.445-1.005-1.071-.73-.086.522.066.768.464 1.062zm.01-6.722c-.095.028-.502.445-.474.587.171.332.294.598.73.484.275-.076.142-.559.322-.74-.151-.199-.312-.407-.578-.331zm1.944-3.11l.132-.598c-.777-.853-1.223-.531-1.071.598h.939zm-13.938-5.651c.417-.484 0-1.129-.673-.939-.171.047-.275.484-.465.597.19.512.73.806 1.138.342zm14.952 7.272c.417-.36.636-.721.275-1.214-.104-.142-.227-.161-.398-.123-.815.218-.512 1.072.123 1.328m-.986.91c.237-.503-.104-.863-.616-.749-1.166.265.114 1.782.616.749zm1.318 9.083s-.417-.152-.464-.152c-.162 0-.285.19-.465.143v.938c.446-.019 1.147.19 1.081-.474a2.12 2.12 0 00-.152-.455zm-.872-5.537c-.133.256-.019.73.199.882.351.237.483-.218.806-.209v-.664c-.361-.104-.73-.55-1.005-.009zm-2.409-.114c-1.299.303.456 1.726.598.73.066-.483-.029-.863-.598-.73zm-2.711 2.693c-.057 0-.436.227-.465.332-.322 1.147 1.337 1.09 1.062.132-.038-.123-.502-.464-.597-.464zM40.846 81.93c.56-.351.674-.93 0-1.214l-.606.142c-.048.597-.067.948.597 1.072m-1.802 1.156c.778.57 1.347-.53.683-.948-.161-.104-.597 0-.664.076-.114.114-.237.711-.01.872m1.945 1.546c.559-.076.303-.711.199-1.081h-.806c-.237.692-.285 1.204.607 1.08zm.132-5.528c.531-.152.076-1.47-.607-1.014-.057.037-.246.37-.256.426 0 .038.114.427.133.446.066.066.588.18.73.142zm-2.076 1.204s.483.17.588.133c.047-.02.246-.2.284-.256.341-.56-.389-.9-.882-.816.086.219-.151.456-.123.588 0 .02.123.332.133.342m-.55-4.021c.227-.853.237-1.28-.806-1.014-.398.806-.047 1.157.806 1.014zm-.806 7.272c.019.295-.114.987.209 1.072.948.266 1.052-1.375-.21-1.071zm2.152-5.925l.133-.939c-.72-.199-1.11-.095-1.072.74.209.322.598.19.94.199zm-.597-3.765c-.588.171-.36 1.214.246 1.063.171-.048.683-.39.617-.588-.057-.19-.636-.531-.863-.465m1.745 12.374c-.256-.02-.38.132-.598.142-.01.332-.256.815.123 1.005.854.426 1.138-1.1.474-1.157m1.546-5.784c.38-.967-.076-1.109-.939-.806 0 .636.294.93.939.806zm-2.56-8.486c.057-.474-.2-1.223-.74-.805-.294.227-.464.407-.199.74.304.378.55.141.939.065zm.606-1.214c.996.133 1.063-1.374.01-1.07-.398.113-.569.995-.01 1.07zm-1.535 15.219s.426.142.455.142c.389-.114.74-.948.275-1.204h-.73c0 .227-.17.35-.142.597 0 .057.132.446.151.465m1.802-9.691c.17-.018.284-.17.464-.142-.019-.341.124-.73-.199-.938l-.872.132c-.218.408.114.996.607.948zm-.133-2.568c.626-.181.891-1.072.341-1.414-.331-.208-.37.038-.54.142-.104.067-.247.057-.266.067-.19.17.105 1.08.465 1.204zm2.702 9.85c-.626.18-.389 1.318.522 1.062.436-.123.237-1.29-.522-1.062zm.721-2.105c.085-.293-.285-.682-.598-.597-.056.019-.455.417-.474.474-.19.616.92.616 1.062.123m.636.617c-.607.18-.427 1.327.388 1.204.702-.237.17-1.365-.388-1.204zm.862-13.009c.095-.332-.294-.427-.275-.73-.256 0-.853-.095-.929.2-.275.985 1.024 1.127 1.204.53zm-3.688 8.41c.645.427.825-.398.73-.929l-.939.133c0 .341-.104.588.209.796zm.588-5.376c.616-1.26-1.176-1.536-.796-.208.075.284.559.208.796.208zm1.612 3.451c-.152-.19-.294-.417-.588-.331-.882.237-.436 1.26.246 1.061.18-.142.399-.502.332-.73m-.113 3.423v-.938h-.806c-.342.825 0 1.147.806.938zm-.086-8.239c.626-.38.256-.55.076-1.053-.787-.075-1.365-.047-.92.854.209.417.465.426.835.199m.227 2.37l-.265-.73c-.531-.066-.996.152-.948.74.038.53 1.005.436 1.213-.01zm-1.82-3.698c.588-.037.701-.692.341-1.014-.322-.284-.588-.17-.948-.057.01.635-.218 1.128.607 1.08m2.351 8.145c.57.351 1.11-.54.683-.815-.218-.133-.56-.038-.806-.066-.095.37-.285.625.133.872m186.918 137.178c.066.228 1.431.711 1.356-.142-.029-.256-.304-.322-.285-.597-.417-.171-1.195.275-1.071.739zM44.772 72.097c.568.161 1.062-.578.521-.92-.38-.237-.465 0-.863-.009-.066.237.105.872.342.939m.331 2.759c.304-.2.474-.512.399-.882-.778-.218-1.129-.047-1.081.806.275-.076.464.209.673.076m.142 5.528c.057-.038.38-.37.398-.418.19-.626-.834-.455-1.204-.464-.152.521.266 1.213.816.882m181.703 128.075c-.104-.028-.55.105-.588.133a3.641 3.641 0 00-.142.455c.019.067.246.285.332.351.663.512 1.062-.74.398-.939zm1.488 1.489c-.777-.228-1.28.683-.379.92.114.028.55-.095.578-.133.019-.019.143-.427.143-.455-.019-.067-.275-.323-.342-.342m8.221 1.062c.408-.113.777-.995 0-1.194-.247-.067-.455.189-.721.123-.066.057.048.844.143.929.037.038.483.171.587.133m.74-1.602c.436.208.635.056 1.071 0 .067-.057-.047-.844-.142-.93a3.564 3.564 0 00-.455-.151c-.654-.067-.455.625-.474 1.081zm-6.068-1.347c.35-.787 0-1.109-.806-1.071-.323.768-.029 1.185.806 1.071zm5.176 4.324s-.426.113-.445.132c-.038.038-.161.475-.133.579.066.246.484.692.721.616.265-.076.407-.607.474-.863-.038-.132-.484-.455-.617-.474m.019 2.958l-.606.143c-.038.9.388 1.147 1.213.806.086-.579-.038-.816-.607-.949zm-2.436-4.446c.426-.114.294-1.442-.522-1.195-.341.104-.426.683-.341.995.066.256.645.266.863.2zm3.309.417l.132.938c1.423.162 1.157-1.441-.132-.938zm-4.513 5.651c-.38-.55-1.461-.199-1.091.55.18.36.673.265 1.015.265-.076-.284.265-.54.076-.815zm2.427-7.538c.464-.37 0-1.157-.266-1.071-.919.293-.332 1.555.266 1.071zm-4.921 3.233c0 .474-.133.92.332 1.195.417-.133.996-.417.683-.929-.247-.399-.626-.351-1.015-.266zm.341-2.825c-.663.189-.332 1.403.38 1.194.502-.142.625-1.488-.38-1.194zm-1.479 1.346c-.54.597-.426 1.356.522 1.195a.564.564 0 00.474-.474c0-.029-.114-.56-.133-.579-.085-.085-.701-.18-.863-.132m.465-1.698c.066-.047.379-.369.398-.417.028-.104-.114-.569-.133-.588-.028-.019-.578-.142-.673-.076-.256.181-.303.721-.265 1.015.274-.066.464.209.673.076m7.888 4.504c-.303.085-.199.682-.208.938 1.384.645 1.394-1.261.208-.938zM36.798 80.44c.89-.198.474-1.298-.38-1.052-.578.171-.426 1.233.38 1.053zm.35 2.371c.029-.36-.237-.512-.474-.72-.237.19-.749.019-.749.455 0 .701 1.157 1.043 1.223.265zm-1.555-2.086h-.73c-.038.465-.256.636.067 1.072.237.322.588-.076.882 0-.02-.285.123-.977-.21-1.072m-.558-1.735c.986.474.957-1.356.028-1.09-.398.114-.56.834-.028 1.09zm2.636-5.47c.53.265 1.033-.095.947-.683-.028-.17-.16-.285-.142-.465l-.938.142c-.02.38-.342.778.123 1.005m-.114 4.514v.938c.304.057.635.275.939.076.455-.806-.152-1.365-.939-1.014zm-.882-1.499c-.16 0-.284.18-.464.152-.057.341-.256.797.208.93.398.113.778-.058.854-.475 0-.038-.114-.426-.133-.445a2.964 2.964 0 00-.465-.152m.607-1.954c.038-.407-.455-.853-.872-.739-.332.095-.38.787-.209 1.072.351-.029 1.034.18 1.081-.332zm201.956 136.288c.17.028.284.028.398-.124.683-.938-.74-1.213-.872-.739-.038.142.076.664.142.73l.341.133h-.009zM33.508 80.394c.18.113.625.132.749-.067.133-.218.038-.56.066-.806l-.806-.133c-.047.275-.313.816 0 1.015M241.18 211.295c-.312-.057-.625-.266-.948-.076-.199.123-.18.702-.066.882.806.398 1.157.047 1.014-.806zm-1.611 2.218c.549-.417.151-1.128-.323-1.005-.199.048-.455.219-.483.456-.076.578.369.872.815.54M34.105 83.276c.35-.095.683-1.403-.247-1.195-.768.18-.71 1.46.247 1.195zm206.81 126.198c.332-.208.389-.777.133-1.081-.313-.199-.636.019-.948.076-.105.417.322 1.318.815 1.015" fill="#231815"/></svg>