<svg width="152" height="73" fill="none" xmlns="http://www.w3.org/2000/svg"><g clip-path="url(#clip0_4110_2713)" fill="#000"><path d="M58.983 44.773c.1.075.198.151.305.22.107.067.213.128.32.189.106.06.22.113.335.159a2.8 2.8 0 00.35.136c.114.038.236.084.358.114.13.038.259.068.396.09.13.031.266.054.403.069.13.015.267.03.404.038h.403c.168 0 .328 0 .503-.015.145-.008.29-.03.434-.046.145-.015.29-.038.434-.068.145-.03.29-.06.426-.099.145-.037.282-.075.419-.12.137-.046.274-.1.411-.152.122-.053.244-.106.366-.167.121-.06.243-.121.357-.182.115-.068.229-.144.335-.212.115-.076.221-.151.328-.227a5.42 5.42 0 00.304-.25c.092-.083.183-.174.274-.265a4.47 4.47 0 00.244-.288c.076-.099.152-.197.228-.303a7.25 7.25 0 00.198-.318 4.57 4.57 0 00.176-.334c.053-.12.099-.242.144-.363.046-.121.076-.25.107-.371.03-.13.06-.25.076-.38.023-.128.038-.257.046-.386.007-.128.023-.257.023-.386s0-.25-.016-.371c-.007-.121-.03-.243-.045-.364a4.895 4.895 0 00-.084-.356 2.737 2.737 0 00-.107-.356 6.698 6.698 0 00-.152-.34 3.988 3.988 0 00-.22-.395 3.2 3.2 0 00-.267-.364 3.1 3.1 0 00-.305-.325 4.07 4.07 0 00-.335-.296c-.099-.075-.198-.159-.304-.227a4.706 4.706 0 00-.328-.197c-.106-.06-.228-.114-.342-.167-.115-.053-.229-.106-.358-.151a6.76 6.76 0 00-.366-.121 6.753 6.753 0 00-.419-.099 3.834 3.834 0 00-.426-.068 7.407 7.407 0 00-.426-.038c-.145 0-.29-.015-.434-.015-.145 0-.29.008-.434.023a6.99 6.99 0 00-.434.038c-.145.015-.29.045-.426.068-.145.03-.29.06-.427.09a6.664 6.664 0 00-.419.122 3.708 3.708 0 00-.403.159 5.144 5.144 0 00-.358.167 5.11 5.11 0 00-.35.189c-.114.068-.229.136-.335.212a8.68 8.68 0 00-.32.235 3.284 3.284 0 00-.297.258 4.8 4.8 0 00-.51.56 4.479 4.479 0 00-.213.31 4.639 4.639 0 00-.198.327c-.061.113-.122.22-.175.333a2.87 2.87 0 00-.137.356 3.343 3.343 0 00-.115.364c-.03.12-.06.25-.083.37-.023.122-.03.25-.046.38-.008.128-.023.25-.023.378 0 .13 0 .258.015.38.008.128.023.257.046.378.023.129.046.25.076.371a3.39 3.39 0 00.267.712c.068.137.137.265.22.387.077.128.168.242.26.363.09.114.19.227.296.334.107.106.221.197.335.288"/><path d="M97.683 45.91c-.129-.122-.129-.32-.076-.463.054-.144.183-.288.366-.303.16 0 .32.038.487.023.16-.008.32-.053.48-.069l.403-.022c.137-.008.274.023.411.007.137-.015.274-.022.404-.038.137-.015.266-.053.403-.068.137-.015.267-.038.404-.053s.274-.022.403-.045c.138-.023.267-.06.396-.084.137-.022.274-.015.404-.037.137-.023.259-.106.388-.13.13-.03.267-.037.396-.067.13-.03.274 0 .411-.038.13-.03.252-.121.381-.152.129-.03.274-.015.403-.053.13-.038.259-.068.389-.106.129-.038.243-.129.373-.174.129-.038.259-.068.388-.114.13-.045.267-.06.388-.106.13-.045.244-.121.374-.174.129-.045.266-.053.395-.106.122-.053.229-.152.351-.205.121-.053.251-.098.373-.151.122-.053.251-.106.365-.167.122-.06.236-.129.358-.19.122-.06.251-.105.366-.173.114-.069.236-.13.35-.197.114-.069.198-.19.312-.258.114-.076.251-.106.365-.182.115-.076.191-.197.297-.273.107-.075.229-.143.335-.227.107-.083.221-.159.32-.242.107-.084.206-.175.305-.258.106-.09.19-.197.289-.288.099-.09.206-.166.304-.265.099-.098.191-.19.282-.288.092-.098.183-.197.267-.303.091-.098.175-.204.259-.31.083-.106.167-.212.243-.319.084-.106.168-.212.244-.318.076-.113.16-.212.236-.325.068-.114.152-.22.221-.341.068-.114.083-.258.144-.38.061-.12.145-.226.206-.348.053-.12.122-.242.167-.363.054-.122.099-.25.145-.38.046-.128.091-.25.129-.378.039-.129.046-.265.084-.394.031-.129.084-.257.114-.386.023-.129.023-.265.038-.402.023-.128.077-.257.092-.394.015-.128-.008-.272 0-.401.007-.129.023-.265.03-.402 0-.136.031-.265.031-.401s.03-.258.023-.379c0-.129-.038-.258-.046-.379-.008-.129-.031-.25-.046-.379-.015-.128 0-.257-.023-.386-.022-.129-.061-.25-.091-.371a.262.262 0 01.061-.22c.061-.076.122-.159.213-.166.198-.016.198 0 .396-.016.198-.015.198.03.404.016.198-.016.198-.076.395-.091.198-.015.198.022.396.007s.198-.023.396-.038.198.023.396.008.198-.076.396-.091.206.053.404.045c.198-.015.198-.053.396-.068.198-.015.198.008.403 0l.396-.03c.198-.015.198 0 .396-.008.198-.015.198-.06.396-.075s.205.022.403.015c.198-.015.198-.068.396-.076.198-.015.198 0 .396-.008.198-.015.198-.03.396-.037.198-.016.198 0 .396-.023.198-.015.198 0 .396-.015s.198 0 .396-.015c.198-.016.198-.03.396-.046.198-.015.205.03.403.015.198-.015.198-.06.396-.076.198-.015.198-.03.396-.045s.198.015.404 0c.198-.015.198-.038.396-.053.197-.015.205.023.403.008.198-.016.198 0 .396-.016.198-.015.198-.037.396-.045.198-.015.205.008.403 0 .198-.015.198-.023.404-.038.206-.015.198-.053.396-.068a.437.437 0 00.289-.121c.076-.084.152-.175.152-.296 0-.007-.007-.007-.007-.023 0-.098-.061-.174-.122-.257a11.244 11.244 0 00-.221-.288c-.114-.144-.061-.182-.175-.326-.106-.144-.167-.106-.274-.25-.114-.144-.061-.181-.167-.333-.084-.106-.16-.22-.237-.326-.076-.113-.205-.197-.274-.31-.068-.114-.106-.258-.167-.372-.069-.12-.16-.227-.221-.348-.061-.121-.122-.242-.175-.371-.053-.13-.061-.265-.107-.394-.045-.13-.083-.258-.129-.387-.046-.128-.084-.257-.122-.386-.03-.129-.076-.258-.106-.394-.023-.136-.023-.273-.039-.409-.022-.136-.083-.265-.099-.394-.015-.136-.007-.273-.015-.41 0-.135.031-.272.031-.408 0-.197.015-.197.015-.402 0-.204-.031-.197-.031-.394s-.022-.197-.022-.401c0-.205.015-.197.015-.402 0-.204-.015-.197-.015-.401 0-.205-.023-.197-.023-.402 0-.204.053-.197.053-.401v-1.205c0-.204-.015-.197-.015-.401 0-.205.03-.197.03-.402v-.401c0-.205-.053-.197-.053-.402 0-.204.03-.197.03-.401 0-.205-.022-.197-.022-.402 0-.204.022-.197.022-.401 0-.205-.038-.197-.038-.402 0-.204.061-.197.061-.401 0-.205-.068-.197-.068-.402 0-.204.007-.197.007-.401 0-.205.038-.197.038-.402v-.401c0-.205-.045-.197-.045-.402 0-.205.03-.197.03-.401 0-.205.031-.197.031-.402v-.402c0-.204-.008-.204-.008-.401 0-.197-.023-.204-.023-.401 0-.197.031-.197.031-.402 0-.205-.016-.197-.016-.402 0-.204.016-.197.016-.401v-.803a.495.495 0 00-.145-.333c-.091-.084-.076-.099-.167-.182a.235.235 0 00-.221-.046c-.198.053-.183.099-.381.152-.198.053-.205.023-.396.076-.198.053-.205.03-.396.083-.198.053-.182.09-.38.144-.198.053-.191.076-.381.129-.198.053-.206.007-.404.06-.198.053-.182.099-.38.152-.198.053-.206 0-.404.053-.198.053-.198.06-.388.113-.198.053-.191.084-.381.137-.198.053-.205.03-.396.083-.198.053-.205.03-.396.083-.198.053-.182.091-.38.144-.198.053-.191.069-.389.122-.198.053-.19.075-.388.128-.198.053-.206.016-.403.069l-.389.106c-.198.053-.19.068-.388.12-.198.054-.19.069-.388.122-.198.053-.198.045-.396.099-.198.053-.191.068-.389.12-.198.054-.198.061-.388.114-.198.053-.205.016-.403.069-.198.053-.191.075-.389.128-.198.053-.198.046-.396.091-.198.053-.205.015-.403.076-.198.053-.175.121-.373.174-.198.053-.213 0-.411.046-.198.053-.29.257-.29.454 0 .046-.045.046-.045.099 0 .113.038.25.114.333.099.099.198.197.282.296.091.106.175.212.258.325.084.114.191.205.267.319.076.113.145.234.205.356.069.12.107.257.16.378.061.122.145.235.191.372.045.128.099.257.137.386.038.129.03.273.068.409.038.129.092.258.122.394.031.129.061.265.084.401.023.137.061.266.076.41.015.136-.008.272 0 .416.015.137.076.265.084.41.007.136 0 .272 0 .416 0 .136-.016.273-.016.417 0 .197.023.197.023.401 0 .205-.015.205-.015.402v.803c0 .197-.008.204-.008.401v.402c0 .197-.022.204-.022.401 0 .197.015.205.015.402 0 .197.015.204.015.401 0 .197-.038.205-.038.402 0 .197-.015.204-.015.401v.41c0 .204.023.204.023.409 0 .128.015.265.007.393 0 .13-.045.266-.053.387-.008.129-.03.257-.046.386-.015.129-.023.265-.038.387a6.669 6.669 0 01-.084.386c-.03.129-.03.265-.06.386a5.868 5.868 0 01-.107.379c-.038.129-.114.242-.16.356-.046.129-.03.273-.084.386-.053.13-.106.25-.16.364-.06.121-.137.235-.19.341a3.758 3.758 0 01-.19.34c-.076.122-.183.206-.244.304-.091.136-.205.25-.35.25s-.274-.106-.366-.242c-.068-.099-.137-.205-.213-.303-.076-.099-.167-.182-.251-.273-.076-.091-.168-.174-.251-.265-.084-.091-.145-.197-.236-.28-.092-.084-.213-.13-.305-.213-.106-.09-.213-.166-.32-.25-.106-.083-.182-.204-.297-.288-.114-.075-.236-.128-.357-.204-.115-.068-.244-.114-.366-.174-.122-.061-.236-.137-.358-.19-.122-.06-.228-.144-.358-.197-.121-.053-.251-.113-.38-.159-.13-.045-.267-.053-.396-.09-.13-.039-.259-.084-.388-.114-.13-.03-.275-.023-.404-.046s-.266-.06-.396-.083c-.129-.023-.266-.068-.403-.084-.137-.015-.274-.007-.404-.015-.137-.007-.266-.045-.403-.053h-.412c-.137 0-.274 0-.411.008-.137 0-.274.015-.411.023-.129.007-.266.007-.396.022-.129.015-.259.076-.388.091a7.6 7.6 0 00-.396.053c-.129.023-.259.038-.388.06l-.389.069c-.129.03-.258.053-.388.083-.129.03-.251.069-.381.099-.129.03-.251.068-.38.106-.122.038-.252.068-.389.114-.121.037-.251.075-.388.12-.122.046-.251.092-.381.137-.121.046-.258.076-.388.129-.122.045-.243.106-.373.151-.122.046-.244.106-.373.16-.122.045-.266.06-.388.113-.122.053-.236.136-.358.19-.122.053-.236.136-.358.189-.122.053-.266.068-.388.121-.122.053-.26.083-.389.136-.144.061-.121.122-.266.182-.13.053-.274.06-.396.114-.13.053-.244.144-.365.197-.13.053-.26.106-.381.159-.13.053-.251.121-.373.167-.13.053-.259.106-.38.159-.13.053-.26.106-.382.151-.137.053-.266.084-.395.129-.137.046-.274.076-.396.114-.137.038-.267.098-.389.128-.144.038-.289.038-.41.061-.153.03-.282.076-.404.083-.137.008-.267-.053-.396-.053-.137 0-.267 0-.389-.015a2.809 2.809 0 01-.38-.076c-.13-.03-.267-.037-.38-.09a1.91 1.91 0 01-.351-.182c-.107-.076-.198-.174-.29-.265-.09-.091-.182-.182-.258-.288-.023-.038-.069-.076-.084-.114-.046-.129-.03-.273-.053-.394-.03-.136-.069-.257-.069-.386 0-.137.015-.265.046-.394.03-.129.068-.25.13-.371.052-.114.098-.243.182-.356.076-.099.213-.16.312-.258.091-.09.152-.22.267-.295.106-.076.213-.152.335-.213.114-.06.236-.113.357-.166.115-.053.244-.099.373-.137l.381-.113a.318.318 0 01.168.015c.121.03.236.106.358.136.121.03.25.06.373.084.121.03.258.015.38.045.122.023.244.076.373.099.122.022.252.037.381.053.13.022.259.03.38.045.13.015.252.053.374.068.13.015.251.068.373.076.13.015.266-.023.396-.015.13.007.259.053.388.06.13.008.267-.022.396-.022.13 0 .259.015.396.022.13 0 .259.038.396.038.13 0 .259 0 .396-.007.13 0 .259-.03.396-.038.13 0 .266.015.396 0 .137-.008.266-.038.403-.046.137-.007.267-.03.404-.037.137-.016.274 0 .403-.008.137-.015.267-.023.404-.046.137-.015.266-.06.396-.083.137-.023.258-.068.395-.09.13-.023.275.007.404-.016.137-.023.259-.098.388-.121.13-.03.259-.076.389-.106.129-.03.266-.053.396-.084.129-.03.266-.053.395-.09.13-.038.252-.091.381-.13.13-.037.251-.083.381-.128.129-.045.266-.045.396-.09.129-.046.243-.122.365-.168.122-.045.251-.09.373-.143.122-.054.252-.107.373-.16.122-.053.267-.06.389-.113.121-.06.236-.13.357-.19.122-.06.236-.128.358-.19.122-.06.221-.15.343-.219.114-.068.236-.128.35-.197.114-.068.236-.128.35-.197.115-.075.206-.174.313-.257.106-.076.198-.182.304-.265.107-.084.221-.16.32-.243.106-.083.198-.182.297-.265.099-.09.221-.16.32-.25s.22-.16.312-.258l.274-.295c.091-.098.167-.212.251-.31.084-.107.145-.228.229-.334.083-.106.159-.212.236-.326.076-.113.137-.227.205-.34.069-.114.175-.205.244-.326.061-.114.099-.25.152-.372.061-.12.099-.25.152-.37.054-.122.122-.243.168-.364.045-.122.114-.243.152-.372.038-.128.031-.265.061-.401.03-.129.122-.25.145-.379a6.88 6.88 0 00.053-.401c.023-.13.015-.266.03-.402.016-.129 0-.265.008-.401 0-.137.015-.266.015-.402v-.788c-.015-.129-.015-.265-.038-.394-.015-.129-.084-.257-.114-.386-.023-.129-.046-.258-.076-.387-.031-.128-.099-.25-.137-.37-.038-.13-.069-.258-.114-.38a7.036 7.036 0 00-.153-.363c-.053-.121-.068-.258-.122-.379-.06-.114-.159-.212-.22-.326-.061-.113-.115-.242-.191-.348-.068-.106-.167-.205-.251-.31-.076-.107-.145-.22-.228-.327-.084-.098-.137-.227-.229-.325-.091-.106-.228-.16-.335-.265-.099-.099-.16-.235-.266-.326-.107-.091-.251-.13-.366-.22-.106-.09-.198-.197-.312-.28-.114-.084-.221-.167-.342-.243a5.817 5.817 0 00-.358-.22c-.122-.068-.259-.105-.381-.174-.091-.045-.099-.159-.107-.204-.015-.091.023-.182.099-.258.145-.151.16-.129.305-.28.145-.152.122-.174.266-.318.145-.152.153-.137.297-.288.145-.144.115-.174.259-.326.145-.144.13-.159.274-.303.145-.151.175-.121.32-.265.145-.152.137-.16.282-.31.144-.152.167-.122.312-.273.145-.152.099-.197.244-.341.091-.076.198-.13.281-.182.099-.06.206-.114.305-.144.183-.053.381.015.586.068.084.023.206.038.366.144.091.06.19.144.312.242.091.076.205.152.312.25l.282.28c.083.092.159.205.258.311.084.091.138.197.221.28.084.084.213.122.297.205l.267.243c.038.03.061.075.091.106.084.075.175.136.267.204.106.084.197.19.312.258.114.068.236.121.365.182.13.06.229.136.358.19.122.052.266.06.396.098.129.037.244.113.381.151.137.038.274.076.411.106.137.03.281.06.418.076.145.015.29.03.427.038.144.007.289 0 .426 0 .145 0 .282-.053.427-.06.137-.008.274.007.403-.016.137-.023.267-.038.396-.068a7.387 7.387 0 00.769-.235c.129-.045.251-.09.373-.152.122-.053.221-.143.335-.204.114-.06.251-.091.358-.167.107-.068.213-.151.32-.235.106-.083.19-.174.289-.265.099-.083.198-.174.289-.265.092-.098.206-.182.297-.288.084-.106.13-.242.213-.356.077-.113.191-.204.259-.318.069-.114.122-.242.183-.364.061-.12.076-.265.122-.394.053-.12.145-.22.183-.34.038-.122.038-.258.068-.38.031-.128.084-.242.107-.37.015-.13.03-.258.038-.38V4.03c0-.151-.023-.295-.046-.44a4 4 0 00-.091-.43 3.675 3.675 0 00-.13-.425c-.053-.136-.182-.243-.251-.371-.061-.106-.107-.22-.167-.319-.069-.098-.115-.22-.191-.318a8.495 8.495 0 00-.243-.272c-.084-.091-.191-.152-.29-.235a4.192 4.192 0 00-.281-.243 5.726 5.726 0 00-.335-.235c-.115-.068-.221-.159-.351-.22-.122-.06-.251-.105-.38-.158-.122-.053-.267-.076-.396-.114-.13-.045-.259-.076-.396-.114-.114-.03-.236-.053-.35-.075-.122-.023-.229-.099-.351-.114a6.259 6.259 0 00-.358-.038c-.121-.007-.243 0-.365 0-.137 0-.266.053-.404.06-.137 0-.274-.052-.403-.037-.137.015-.259.076-.396.09-.137.016-.274-.007-.403.016-.13.023-.267.06-.396.09-.13.031-.252.092-.389.13-.129.037-.251.09-.38.128-.13.038-.267.046-.396.084-.13.045-.252.098-.373.151-.122.053-.236.137-.358.19-.122.053-.267.06-.388.113-.122.053-.244.106-.366.167-.122.06-.221.151-.343.22-.121.068-.228.151-.342.22-.114.068-.236.128-.35.196-.115.068-.252.114-.358.182-.114.076-.206.174-.32.25-.114.076-.244.121-.358.197-.114.076-.213.167-.32.25-.106.083-.228.152-.327.235-.107.083-.221.159-.327.242-.107.084-.176.212-.275.296-.106.09-.197.19-.296.273-.107.09-.206.174-.305.265-.107.09-.206.182-.297.272-.107.099-.213.175-.304.266-.107.098-.214.181-.297.265a8.785 8.785 0 00-.275.288c-.121.128-.228.22-.281.287-.008.016.023.061.015.069-.099.083-.213.174-.32.265-.099.083-.243.129-.358.22-.106.083-.182.212-.297.295-.106.083-.251.129-.365.212-.114.083-.221.167-.343.243-.114.075-.205.196-.319.272-.122.076-.274.091-.389.16-.122.068-.236.15-.358.219-.121.068-.258.106-.388.167-.129.06-.251.12-.381.174-.129.053-.258.121-.388.159-.137.038-.274.06-.411.083-.145.023-.282.061-.411.061-.145 0-.289.023-.419 0-.129-.015-.251-.083-.381-.09-.129-.016-.266.007-.395 0-.13-.009-.267 0-.396 0-.13 0-.259-.077-.389-.084-.121 0-.243.045-.365.045s-.244-.023-.366-.023c-.121 0-.243-.015-.365-.015s-.244.046-.365.053c-.138.008-.275-.007-.404 0-.137.008-.274 0-.411.015-.137.016-.267.038-.404.061-.137.015-.274.03-.403.046-.137.015-.26.075-.396.098-.137.023-.274.023-.404.045-.13.023-.266.038-.396.061-.137.03-.258.076-.388.106s-.274.023-.403.053c-.13.03-.26.091-.389.121-.13.038-.266.061-.396.091-.129.038-.243.114-.373.16-.13.037-.258.068-.388.105-.13.046-.259.084-.38.13-.13.045-.26.075-.389.128-.13.053-.259.09-.38.136-.123.053-.23.144-.35.197a6.791 6.791 0 00-.366.175c-.122.06-.267.075-.381.136-.122.06-.244.121-.358.182-.114.068-.205.182-.32.257-.114.069-.228.137-.342.213-.114.075-.229.143-.343.22-.114.075-.205.173-.312.25-.107.082-.228.143-.335.226-.107.084-.244.144-.343.235-.106.091-.205.19-.312.28-.106.091-.183.213-.281.304-.1.098-.199.197-.29.295a5.483 5.483 0 00-.29.303c-.09.106-.197.197-.28.303a5.491 5.491 0 00-.245.341c-.083.114-.167.22-.243.333-.076.114-.114.258-.183.372-.068.12-.16.227-.228.348-.061.121-.16.227-.221.356-.061.129-.061.273-.114.402a.342.342 0 01-.282.212c-.053 0-.198 0-.274-.129-.076-.114-.145-.227-.228-.34-.077-.114-.115-.258-.199-.364-.083-.114-.182-.205-.266-.311-.084-.106-.183-.205-.274-.31-.091-.107-.198-.19-.29-.296-.09-.099-.16-.228-.258-.326-.1-.098-.206-.19-.305-.28-.099-.091-.228-.152-.335-.243a9.23 9.23 0 00-.32-.257c-.106-.084-.19-.19-.297-.273-.106-.076-.22-.151-.327-.235-.106-.076-.205-.174-.32-.25-.114-.076-.22-.151-.335-.22-.114-.068-.258-.083-.38-.151-.115-.068-.236-.129-.35-.19-.122-.06-.244-.113-.366-.166-.122-.053-.213-.167-.343-.22-.121-.053-.266-.068-.388-.121-.122-.053-.251-.098-.373-.152-.122-.045-.251-.09-.38-.136-.13-.045-.26-.076-.389-.114-.13-.037-.251-.09-.38-.128-.123-.038-.244-.106-.366-.137-.122-.03-.267-.007-.396-.038-.13-.03-.251-.068-.38-.098-.13-.023-.252-.046-.381-.068-.13-.023-.252-.06-.381-.084-.13-.015-.259 0-.388-.015-.13-.015-.252-.09-.381-.106-.13-.015-.267.038-.396.023-.13-.008-.259-.038-.388-.046-.13 0-.26-.053-.389-.06-.129 0-.258.015-.388.007h-.396c-.13 0-.259.016-.388.023-.13 0-.259 0-.388.015-.13 0-.26.008-.389.023-.13.008-.266.008-.396.023s-.266 0-.395.015c-.13.015-.26.053-.389.068-.13.015-.259.038-.396.053-.13.023-.266.023-.396.046-.13.022-.258.053-.388.075-.13.023-.244.106-.373.137-.13.03-.266.015-.396.045s-.244.099-.373.137c-.13.03-.251.075-.38.113-.13.038-.267.03-.389.076-.122.038-.244.098-.365.144-.122.045-.26.06-.381.106-.122.045-.229.136-.35.182-.122.045-.26.06-.381.113-.122.053-.251.091-.365.144-.122.053-.237.122-.35.182-.123.06-.214.16-.328.22-.114.06-.236.114-.35.174-.115.06-.236.114-.35.174-.115.069-.252.099-.358.167-.115.068-.221.144-.328.212-.114.068-.198.174-.304.25-.107.076-.244.106-.35.182-.107.076-.168.212-.275.288-.106.076-.228.129-.327.212-.107.083-.206.159-.305.25-.099.083-.205.159-.304.25-.1.083-.183.19-.282.273-.099.09-.19.19-.29.288-.098.098-.182.197-.273.295-.092.099-.206.182-.297.28-.092.099-.168.212-.252.319a9.336 9.336 0 00-.258.31c-.084.106-.19.197-.267.303-.076.106-.175.205-.259.318-.076.114-.144.228-.22.341-.077.114-.138.235-.206.349-.069.113-.137.235-.206.348-.068.114-.099.25-.167.371l-.183.364c-.06.121-.167.22-.228.34-.069.145-.175.198-.274.198-.061 0-.145-.015-.221-.174-.061-.122-.175-.22-.236-.341-.061-.121-.1-.258-.168-.371-.068-.122-.13-.243-.205-.357-.076-.113-.145-.234-.221-.348-.076-.114-.168-.212-.251-.326-.084-.113-.198-.19-.29-.295-.083-.106-.137-.243-.228-.349-.091-.106-.175-.212-.266-.31-.092-.099-.198-.19-.297-.288a9.933 9.933 0 00-.297-.28c-.1-.091-.221-.167-.32-.258-.107-.091-.183-.212-.29-.295-.106-.084-.22-.152-.327-.235-.106-.084-.228-.137-.343-.213-.106-.075-.198-.181-.312-.25-.114-.075-.22-.151-.335-.22-.114-.067-.258-.09-.373-.15-.114-.069-.205-.175-.327-.243-.122-.06-.259-.076-.38-.136-.123-.053-.237-.13-.359-.182-.121-.053-.258-.076-.38-.13-.122-.052-.229-.15-.358-.196-.122-.045-.26-.076-.389-.114-.129-.045-.243-.113-.373-.151-.129-.038-.258-.084-.388-.121-.122-.038-.266-.008-.396-.046-.122-.03-.243-.098-.373-.129-.13-.03-.259-.037-.388-.06-.13-.023-.244-.091-.373-.114-.13-.023-.267 0-.396-.023-.13-.022-.251-.06-.38-.075-.13-.015-.26 0-.39-.015-.129-.016-.258 0-.387-.008-.13-.008-.26-.06-.389-.068-.13 0-.259.03-.388.022-.13 0-.259-.037-.388-.037-.13 0-.26-.016-.389-.016s-.258.008-.388.016c-.13 0-.259.03-.388.037-.13 0-.26.023-.389.03-.129.008-.266-.03-.395-.014-.13.015-.26.037-.396.053-.13.015-.26.06-.389.075-.13.015-.258.053-.388.076s-.266 0-.396.023-.251.076-.38.106c-.13.023-.26.038-.389.068-.13.03-.266.038-.388.068-.13.03-.259.069-.38.099-.13.038-.244.106-.374.144-.13.038-.251.075-.373.12a6.27 6.27 0 00-.373.122c-.122.046-.267.046-.388.091-.122.046-.229.144-.35.197-.122.053-.26.068-.374.121-.121.053-.228.137-.342.197-.122.053-.267.053-.38.114-.123.06-.245.106-.359.167-.114.06-.236.12-.35.181-.114.06-.22.144-.335.205-.114.068-.213.159-.32.227-.114.068-.251.099-.358.167-.106.068-.213.151-.32.227-.106.076-.205.167-.312.242-.106.076-.213.144-.32.228-.106.075-.205.166-.304.25-.099.083-.22.144-.32.227-.099.083-.182.19-.281.273-.1.083-.206.159-.305.25-.099.09-.183.204-.274.295-.099.091-.228.16-.32.258-.091.098-.137.242-.22.34-.092.1-.19.19-.275.296-.083.106-.205.182-.289.288-.084.106-.16.22-.244.326-.083.106-.152.22-.228.333-.076.114-.13.235-.206.349-.076.113-.175.204-.25.318-.07.113-.115.25-.184.363-.068.114-.121.243-.182.357-.069.12-.16.22-.221.333-.061.121-.114.242-.175.363-.061.13-.114.258-.168.387-.053.129-.083.265-.13.394l-.16.386c-.045.129-.12.258-.159.387-.038.136-.084.265-.122.401-.038.136-.03.28-.06.417-.031.136-.084.265-.115.401-.03.144-.114.25-.206.288-.053.015-.16 0-.25-.083-.092-.084-.214-.137-.313-.22-.099-.076-.183-.167-.29-.242-.098-.076-.197-.167-.304-.243-.106-.068-.236-.106-.35-.174a4.928 4.928 0 00-.335-.19c-.114-.06-.213-.136-.327-.196-.115-.061-.229-.114-.343-.175-.114-.053-.236-.098-.35-.151-.114-.053-.229-.114-.35-.16-.122-.045-.236-.105-.358-.15-.122-.046-.229-.114-.35-.16-.122-.038-.252-.045-.381-.09-.13-.039-.267-.069-.404-.107-.13-.038-.259-.113-.396-.151-.137-.038-.274-.046-.41-.076-.138-.03-.267-.083-.404-.114-.137-.03-.274-.075-.411-.098-.138-.023-.29 0-.427-.015-.167-.03-.19-.182-.198-.235a.313.313 0 01.213-.326c.137-.053.26-.136.389-.19.137-.052.289-.06.419-.113.129-.06.258-.129.388-.19.13-.06.259-.128.38-.189.13-.068.244-.159.366-.227.114-.06.259-.083.373-.152.114-.068.213-.159.327-.227.115-.068.252-.106.358-.182.114-.075.221-.159.328-.235.114-.075.22-.159.32-.234.106-.084.197-.182.304-.265.107-.084.228-.144.327-.228.1-.09.19-.19.29-.28.099-.091.19-.19.281-.28.092-.091.19-.175.274-.266l.26-.28c.083-.098.129-.227.205-.326.076-.106.144-.212.213-.318.076-.106.16-.197.229-.303.068-.106.129-.22.19-.326.06-.113.099-.234.16-.348.053-.114.144-.212.19-.333.053-.122.099-.25.145-.38.045-.128.068-.257.106-.386.038-.128.054-.265.084-.393.03-.13.076-.258.099-.387.023-.136.076-.257.091-.394.016-.136 0-.273.008-.401.008-.137 0-.266 0-.402 0-.144 0-.28-.015-.424-.008-.144.023-.288 0-.424-.015-.144-.084-.273-.107-.41a8.104 8.104 0 00-.106-.409c-.038-.136-.054-.272-.1-.409a6.026 6.026 0 00-.144-.394c-.053-.128-.084-.272-.145-.401-.06-.129-.144-.242-.22-.364-.069-.113-.176-.204-.252-.31-.076-.106-.114-.243-.205-.349-.084-.098-.19-.19-.282-.288-.091-.098-.206-.166-.305-.265a3.336 3.336 0 00-.297-.265c-.099-.083-.175-.212-.281-.288-.107-.083-.244-.113-.358-.19-.107-.075-.19-.196-.305-.264-.114-.069-.258-.091-.373-.16-.122-.068-.213-.174-.342-.242a17.02 17.02 0 00-.373-.182 19.111 19.111 0 00-.381-.159c-.13-.053-.259-.09-.388-.144-.13-.045-.267-.076-.396-.113a6.021 6.021 0 00-.396-.122c-.13-.037-.267-.06-.404-.09-.13-.038-.266-.054-.403-.084-.13-.03-.26-.09-.396-.121-.137-.03-.274-.046-.411-.068-.137-.023-.267-.084-.404-.106-.13-.023-.266-.008-.403-.03-.13-.016-.267 0-.404-.023l-.396-.046c-.13-.015-.259-.06-.396-.068-.13-.008-.259-.053-.396-.06-.129-.008-.266.015-.403.007-.13 0-.267-.038-.396-.038-.13 0-.267.008-.404.008-.129 0-.266-.03-.395-.03-.13 0-.267.037-.396.037-.13 0-.267-.03-.404-.03-.13 0-.266.053-.403.06-.13 0-.267-.022-.404-.015h-.404c-.129.008-.266.046-.395.061-.206.015-.206-.023-.412-.008-.205.016-.197.084-.403.099-.206.015-.206 0-.411.015-.206.015-.206-.015-.411 0-.206.015-.198.053-.404.068-.206.015-.206.023-.403.038-.206.015-.206-.045-.412-.03-.205.015-.197.045-.403.053l-.404.03c-.205.015-.205-.023-.41-.007-.206.015-.199.03-.404.037-.206.016-.206 0-.404.016-.205.015-.198.068-.403.075-.206.016-.206-.045-.411-.03l-.404.03c-.206.016-.198.061-.403.076-.206.015-.206.023-.412.038-.205.015-.205 0-.41.015-.206.015-.199.03-.404.046-.206.015-.206-.016-.412 0-.205.015-.205 0-.403.015-.206.015-.206 0-.411.015l-.411.03c-.206.015-.198.038-.404.053-.205.015-.205.008-.41.023l-.404.03c-.206.015-.198.046-.404.06-.206.016-.206-.045-.411-.03-.206.016-.198.054-.404.069-.205.015-.205 0-.41.023-.206.015-.206.045-.404.06-.206.015-.206-.015-.411 0-.206.015-.206.023-.412.038-.205.015-.198.038-.403.053-.206.015-.206-.023-.411-.015-.206.015-.206.038-.404.053-.205.015-.205-.008-.41 0-.207.015-.207.045-.404.06-.206.016-.206 0-.412.023-.205.015-.205-.007-.41 0-.206.015-.206-.015-.412 0-.205.015-.205.03-.411.046-.206.015-.206.03-.404.045-.205.015-.205.008-.41.023-.206.015-.206 0-.412.015-.205.015-.205 0-.411.015-.107.008-.206.137-.206.243v.303c0 .083.046.174.092.242.076.114.16.212.228.326.069.113.145.227.213.34.069.114.122.236.19.35.07.113.145.219.214.34.068.121.107.243.167.364.061.121.107.242.16.363.061.122.145.228.198.349l.16.364c.053.12.076.257.122.378.053.122.084.25.13.38.045.128.136.234.182.355.046.129.076.258.122.379.038.129.046.265.084.394.038.129.114.242.152.371.038.129.038.265.069.394.03.129.083.25.114.379.03.129.076.257.106.386s.008.265.038.402c.023.129.054.257.077.394.022.128.068.257.09.386.016.129.016.265.031.394.016.129.038.265.054.394.015.129-.023.265-.016.401.008.13.03.266.03.394 0 .13.016.266.016.394 0 .13.046.265.046.394 0 .197-.015.197-.015.394s.03.197.03.402v.394c0 .197-.023.197-.023.394s.015.197.015.393c0 .197-.015.197-.015.394s-.015.197-.015.394v.394c0 .197.023.197.023.402 0 .204.015.197.015.401 0 .205-.038.197-.038.394s.038.197.038.394v.402c0 .204-.038.197-.038.394v.803c0 .204.03.197.03.401v.402c0 .204.038.197.038.394s-.022.197-.022.394-.008.197-.008.401c0 .205.03.197.03.402v.394c0 .197-.06.197-.06.401 0 .205.007.197.007.402v1.204c0 .205.053.197.053.402 0 .204-.045.204-.045.401 0 .197.03.205.03.402 0 .136-.023.265-.023.401 0 .137-.038.265-.045.394 0 .137.023.265.007.402-.007.128-.045.265-.053.394-.015.136-.023.265-.038.394-.015.128 0 .265-.015.401s-.061.258-.076.394c-.023.129 0 .273-.023.402-.023.128-.054.265-.076.393-.023.13-.092.25-.122.387-.03.129-.015.265-.053.401-.031.13-.077.258-.115.387-.03.128-.091.25-.122.378-.038.13-.03.273-.068.394-.038.13-.091.25-.137.38-.038.128-.114.242-.152.37-.046.13-.107.243-.153.372-.045.12-.053.265-.106.386-.046.121-.13.235-.183.356-.053.121-.068.265-.122.386-.053.122-.13.235-.183.356a5.174 5.174 0 01-.175.357c-.06.12-.099.25-.16.363-.06.121-.106.25-.167.364-.06.114-.16.22-.228.333-.069.114-.115.243-.183.356l-.206.341a.447.447 0 00-.053.22c0 .151.015.151.015.31 0 .061 0 .099.046.137.046.038.091.09.145.083.205-.015.205 0 .403-.007.198-.016.198-.076.396-.084.198-.015.206.023.404 0 .197-.015.197-.038.403-.053.198-.015.206.015.404 0 .198-.015.198-.038.403-.053.198-.015.206.023.404.015.205-.015.198-.053.403-.068.206-.015.206.03.404.015.205-.015.198-.068.403-.083.206-.015.206 0 .404-.015.205-.015.205.015.403 0 .198-.015.198-.06.404-.076l.403-.03c.198-.015.198-.008.404-.023.205-.015.205 0 .403-.015l.404-.03c.205-.016.205-.023.403-.038.206-.015.206.03.404.015.198-.015.206 0 .403-.008.198-.007.198-.06.404-.068l.404-.03c.205-.015.197-.03.403-.046l.404-.03c.205-.015.205.053.41.038.206-.015.199-.06.404-.076.206-.015.198-.03.404-.045.198-.015.205.038.403.022.206-.015.198-.068.404-.083.205-.015.205.03.411.015.198-.015.206 0 .403-.007.206-.016.206-.008.404-.023.206-.015.198-.053.403-.06.206-.016.206 0 .404-.023.206-.016.206 0 .404 0 .197 0 .205-.016.403-.023.206-.015.198-.06.404-.076.205-.015.205-.03.403-.038.206-.015.206.046.411.038.206-.015.206-.023.404-.038.13-.007.266-.038.396-.045.13-.008.266-.008.396-.015.137-.008.266-.069.396-.084a6.36 6.36 0 00.396-.038c.137-.015.274.016.403 0 .137-.015.266-.06.396-.075.137-.016.266.007.404 0 .129-.016.266 0 .403-.016.13-.015.259-.06.396-.075.13-.015.266 0 .396-.023.13-.015.259-.076.388-.099.13-.015.267-.037.396-.06.13-.015.266-.045.396-.068.13-.023.274.03.404 0 .129-.023.25-.099.388-.121.13-.023.274.015.403-.008.13-.023.26-.068.389-.091.129-.023.258-.06.388-.083.13-.023.266-.038.396-.06.13-.031.259-.077.38-.107.13-.03.267-.015.396-.045.13-.03.26-.053.389-.084.13-.03.25-.098.38-.136.13-.03.267-.038.396-.076.13-.038.244-.129.366-.166.13-.038.259-.061.38-.107.13-.038.252-.075.381-.12.13-.046.267-.046.388-.092.13-.045.252-.098.373-.144.122-.045.244-.12.358-.166.122-.053.244-.106.358-.16.122-.052.259-.075.373-.136.122-.053.252-.083.373-.144.122-.06.236-.12.35-.181.122-.061.237-.122.35-.182.115-.061.199-.182.313-.25.114-.069.228-.13.335-.205.114-.076.244-.114.35-.19.107-.075.183-.189.29-.272.106-.083.205-.16.304-.242.099-.084.206-.16.305-.25.099-.091.236-.137.327-.228.091-.09.167-.204.251-.303.092-.098.153-.212.236-.31.084-.099.183-.19.26-.296.075-.106.144-.22.22-.326.076-.106.16-.212.228-.325.069-.114.145-.22.206-.341.06-.114.099-.25.152-.371a.33.33 0 01.259-.197c.046 0 .137.015.213.136.069.106.19.182.267.28.076.106.137.212.213.318.076.099.122.228.205.326.084.099.214.152.297.25.084.091.16.197.244.296.091.09.16.197.251.288.092.09.213.144.312.227.092.083.19.159.29.242.099.084.16.197.266.28.107.084.236.13.343.205.106.076.175.212.282.288.106.076.258.09.373.167.114.075.213.159.327.227.114.068.236.129.35.19.114.06.213.158.335.219.122.06.229.136.35.197.122.06.252.083.374.136.121.053.25.076.38.13.122.052.252.098.373.143.122.045.236.121.366.167.13.045.266.038.396.083.13.038.243.121.373.16.13.037.266.067.403.105.137.038.267.068.404.099.137.03.266.068.403.098s.282 0 .42.023c.136.023.266.083.403.106.137.023.274.03.41.045.138.016.275.038.412.046.137.015.274.053.411.06.137.008.282-.037.419-.03.137 0 .274.015.419.023.137 0 .274.03.418.03h.42c.136 0 .273 0 .418-.015.137 0 .274-.045.419-.053.129-.008.266-.023.395-.03.138-.015.267-.03.396-.046.13-.015.267 0 .396-.023.13-.015.267-.015.396-.037.13-.023.26-.084.389-.106.129-.023.274 0 .403-.023.13-.023.259-.053.388-.076.13-.03.244-.121.373-.151.13-.03.267-.016.396-.053.13-.03.26-.076.381-.114.13-.038.267-.053.388-.091.13-.038.252-.076.381-.121.122-.046.236-.121.365-.167.122-.045.244-.098.366-.151l.365-.16c.122-.053.26-.06.381-.113.122-.053.244-.106.358-.16l.358-.173c.122-.061.205-.175.32-.235.114-.06.25-.091.365-.16.114-.068.22-.143.335-.212.114-.068.213-.151.32-.22.114-.067.22-.136.335-.211.106-.076.236-.13.342-.205.107-.076.198-.174.305-.257.107-.084.22-.137.327-.22.107-.084.221-.144.32-.227.1-.084.198-.175.297-.266.099-.083.168-.204.267-.287.098-.091.235-.144.327-.243.099-.09.198-.182.29-.28.09-.099.144-.235.235-.334.092-.098.213-.166.305-.272.084-.099.175-.205.259-.31.083-.107.114-.25.198-.357.083-.106.198-.19.274-.303.076-.114.121-.242.198-.356.076-.114.175-.204.243-.326.069-.113.137-.235.206-.348.068-.114.122-.243.183-.356.06-.122.129-.235.19-.356.06-.122.122-.243.183-.364.068-.144.19-.235.289-.235.053 0 .152.053.22.197.062.121.145.235.206.356.069.121.153.227.221.349.069.12.107.257.183.37l.228.342c.076.113.137.242.221.348.084.106.183.205.267.31.083.107.198.19.289.296.091.106.183.205.274.303.091.099.206.182.304.28.1.1.176.213.275.304.099.09.19.197.289.288.106.09.213.166.32.25.106.083.22.151.327.234.107.076.198.182.305.258.106.076.228.136.342.205.114.068.244.113.358.181.114.069.236.13.35.19.114.06.221.144.343.204.114.06.236.13.35.182.122.06.251.099.373.152.122.053.221.159.343.212.122.053.274.038.396.083.122.046.228.152.358.19.121.045.266.037.395.083.13.038.252.106.374.144.13.038.274.053.41.083.138.038.26.099.397.129s.274.053.41.083c.138.03.275.046.412.076.137.03.274.06.411.083.137.023.282.016.419.03.137.016.282 0 .419.016.137.015.274.075.41.09.138.008.275.031.42.039.136 0 .274.007.418.015.137 0 .282-.038.419-.038s.274.015.419.007c.137 0 .281 0 .418-.007.138 0 .275-.03.42-.046.129-.007.266-.03.395-.045.13-.015.267.008.404 0 .13-.015.259-.083.388-.099.13-.015.274.023.404 0 .129-.022.266-.037.395-.06.13-.023.252-.099.381-.121.13-.023.267-.016.396-.046.13-.03.266-.038.396-.068l.388-.09c.13-.031.244-.122.373-.16.13-.038.267-.038.396-.076.13-.038.251-.098.373-.136.13-.046.244-.106.366-.152.122-.045.243-.113.365-.159.122-.045.267-.053.388-.106.122-.053.229-.136.35-.19.123-.052.26-.075.374-.128.122-.06.228-.129.35-.19.114-.06.251-.083.365-.15.115-.062.214-.152.328-.22.114-.061.243-.107.358-.175.114-.068.19-.19.297-.265.114-.068.243-.114.35-.182.114-.076.228-.129.335-.204.106-.076.228-.137.335-.212.106-.076.19-.182.297-.258.106-.083.213-.152.32-.235.099-.083.205-.167.304-.25.1-.083.175-.197.267-.288.015-.015.045-.023.06-.038.1-.09.214-.159.328-.159.122 0 .266.068.343.16a.482.482 0 01.099.363c-.016.136-.046.28-.054.417 0 .136.023.28.023.424 0 .144-.03.28-.023.417 0 .143 0 .28.023.416.015.137.015.28.038.417.023.136.084.273.114.401.03.137.069.273.107.402.038.136.053.28.099.409.046.129.16.235.22.364.062.128.123.25.191.37.069.13.091.281.175.402.076.122.16.243.252.356.09.114.22.197.32.303.09.107.197.213.296.311.107.099.183.227.297.318.107.091.236.16.358.25.076.053.069.144.069.197a.344.344 0 01-.1.243c-.083.083-.137.204-.213.295-.084.091-.182.167-.251.258a3.63 3.63 0 00-.213.295c-.069.106-.107.22-.16.326-.06.114-.13.227-.183.348-.045.122-.106.243-.144.364-.038.121 0 .265-.03.394-.024.129-.054.25-.062.386-.007.13-.007.258-.007.394 0 .144-.03.288-.023.424.015.144.076.273.106.41.03.136.016.288.054.416.045.137.106.265.167.387.061.128.168.227.244.348.076.114.152.235.236.341.084.106.152.242.251.34.099.1.198.198.305.289.106.09.258.121.373.204.114.084.205.197.327.273.107.068.19.16.213.265.03.114.038.25-.023.356a.493.493 0 01-.289.228s-.015-.038-.023-.038c-.122.038-.236.106-.358.144a6.982 6.982 0 00-.365.128c-.122.046-.259.046-.373.091-.122.046-.244.091-.358.144-.122.046-.236.106-.35.152-.122.053-.221.144-.335.197a6.912 6.912 0 00-.343.174c-.13.068-.274.099-.396.167-.13.068-.243.151-.365.227-.122.076-.267.121-.389.197-.121.076-.25.144-.373.22-.121.083-.198.22-.32.303-.114.083-.243.151-.357.242-.114.083-.244.16-.35.25-.115.09-.244.16-.358.25-.114.09-.213.197-.32.295-.114.099-.251.137-.327.107-.092-.038-.122-.152-.122-.258v-.386c0-.197-.008-.19-.008-.387s.03-.19.03-.386c0-.197-.053-.19-.053-.386 0-.197.016-.197.016-.387s.03-.197.03-.386c0-.121-.076-.22-.167-.303-.092-.084-.092-.084-.176-.167-.053-.053-.114-.098-.182-.083-.19.053-.183.075-.381.129-.19.053-.198.015-.396.068-.19.053-.19.068-.38.12l-.381.107c-.19.053-.19.045-.389.098l-.38.107c-.19.053-.198.03-.389.075-.19.053-.182.091-.373.137-.19.053-.19.053-.388.106-.19.053-.198.03-.388.083-.19.053-.183.076-.381.129-.19.053-.198.023-.396.076-.19.053-.19.068-.38.113-.19.053-.19.053-.389.106-.19.053-.19.069-.38.122-.19.053-.199.045-.389.098-.19.053-.19.068-.38.114-.19.053-.198.022-.389.075-.19.053-.198.023-.396.069-.19.053-.183.083-.373.136-.19.053-.198.03-.388.076-.19.053-.198.03-.388.083-.19.053-.183.099-.374.152-.19.053-.205.015-.395.068-.19.053-.19.068-.381.113-.19.053-.183.091-.373.144-.19.053-.198.038-.388.084-.198.053-.198.045-.389.09-.198.054-.198.03-.396.084-.198.053-.198.045-.388.098-.091.023-.183.122-.183.22 0 .129.038.129.038.25 0 .114.061.197.145.28.091.099.13.243.213.341.092.099.213.167.297.265.084.106.122.243.198.349.076.106.213.174.29.288.076.113.106.242.175.363.068.114.129.235.19.349a5.6 5.6 0 01.175.356c.053.121.114.242.16.364.053.12.099.25.137.37.046.13.084.25.122.38.038.128.053.257.084.386.03.129.076.258.099.386.022.13.03.265.045.394.015.13.015.265.03.394.016.129.054.258.061.394 0 .129.031.265.031.394 0 .205-.046.205-.046.402 0 .197.03.204.03.401 0 .197.031.205.031.402 0 .197-.03.204-.03.401 0 .197.038.205.038.402 0 .197-.061.204-.061.401 0 .197.015.205.015.402 0 .197.046.204.046.401 0 .197-.061.205-.061.402 0 .197.046.204.046.401v.402c0 .197-.046.204-.046.401 0 .197.015.205.015.402 0 .197-.015.204-.015.401v.402c0 .197-.015.204-.015.401 0 .197.015.205.015.41 0 .204.015.204.015.409v.401c0 .136-.038.265-.046.402-.007.136.054.272.038.409-.015.136-.045.265-.06.401-.016.136-.061.265-.084.394-.023.129-.061.265-.084.394-.023.129.015.28-.015.41-.03.128-.069.264-.1.393-.03.129-.12.243-.159.371-.038.13-.038.265-.084.394-.038.129-.106.25-.152.379s-.099.25-.145.379c-.045.129-.045.273-.091.394-.053.12-.16.227-.213.348-.053.121-.076.258-.137.379-.053.121-.145.227-.206.349-.06.12-.114.242-.182.363-.07.114-.092.258-.16.371-.069.114-.19.197-.26.319-.06.098-.129.189-.235.189-.054 0-.168 0-.236-.091-.115-.144-.1-.16-.206-.303-.114-.144-.13-.129-.244-.28-.083-.106-.152-.228-.228-.341-.076-.114-.114-.25-.183-.364-.068-.114-.16-.22-.22-.34-.069-.122-.168-.22-.229-.342-.06-.12-.099-.257-.152-.379-.053-.12-.1-.25-.145-.378-.046-.129-.106-.25-.152-.379-.038-.129-.023-.273-.053-.41-.03-.128-.076-.257-.107-.393-.03-.129-.03-.273-.046-.402-.015-.128-.068-.265-.076-.401-.015-.136 0-.273 0-.41 0-.136-.053-.264-.053-.408 0-.205.007-.205.007-.402v-.401c0-.197-.022-.197-.022-.402 0-.204.015-.197.015-.401 0-.205.038-.197.038-.402 0-.204-.015-.197-.015-.401v-.402c0-.204-.03-.204-.03-.401v-.402c0-.197.053-.204.053-.401 0-.197-.016-.205-.016-.402 0-.197-.015-.205-.015-.401 0-.197.038-.205.038-.402v-.803c0-.205-.023-.205-.023-.401 0-.198-.03-.205-.03-.402 0-.197-.023-.205-.023-.402 0-.197.015-.204.015-.401 0-.197.054-.205.054-.402 0-.197-.069-.204-.069-.401 0-.197.046-.205.046-.402v-.401c0-.197.015-.205.015-.402 0-.197-.06-.204-.06-.401 0-.197.007-.205.007-.402 0-.197.03-.204.03-.401v-.402c0-.197-.038-.204-.038-.401v-.402c0-.197.015-.204.015-.401v-.402c0-.197-.015-.204-.015-.401 0-.197.053-.205.053-.402 0-.197.023-.204.023-.401v-.402c0-.197-.068-.204-.068-.409 0-.204.06-.204.06-.401 0-.197-.053-.205-.053-.402 0-.197.008-.205.008-.41 0-.204.03-.204.03-.408a.469.469 0 00-.152-.318c-.038-.038-.023-.06-.06-.099-.115-.106-.282-.113-.427-.076-.198.053-.19.069-.388.114-.199.053-.214 0-.412.046-.198.053-.198.045-.396.098-.198.053-.19.06-.388.114-.198.053-.183.098-.38.151-.198.053-.214 0-.412.053-.198.053-.198.06-.388.114-.198.053-.19.09-.388.144-.198.053-.213 0-.404.053-.198.053-.198.06-.396.106-.198.053-.205.038-.403.09-.198.054-.19.092-.38.137-.199.053-.191.076-.39.121-.197.053-.197.046-.395.099-.198.053-.213 0-.411.053-.198.053-.183.121-.373.174-.198.053-.206 0-.404.06-.198.054-.198.039-.396.092s-.19.068-.388.12c-.198.054-.19.084-.388.13-.198.053-.198.053-.396.098-.198.053-.214.008-.404.06-.198.054-.198.046-.396.1l-.396.105c-.198.053-.182.114-.38.167-.198.053-.206.015-.404.068-.198.053-.198.038-.396.091s-.205.038-.403.09c-.198.054-.19.077-.389.13-.091.022-.152.113-.152.212v.28a.47.47 0 00.13.31c.09.092.16.213.25.311.085.099.183.19.267.288.084.106.153.212.236.318.076.106.19.19.267.296.068.113.13.227.198.34.068.114.144.22.205.342a4.9 4.9 0 01.175.356c.054.12.054.265.1.386.053.121.129.227.174.356.046.121.084.25.122.371.038.13.038.266.069.394.03.13.122.243.145.372.022.128.03.265.045.394.023.128.061.257.076.386.016.129-.038.265-.03.401 0 .13.076.258.076.394 0 .205-.046.205-.046.41 0 .204.023.204.023.408 0 .205-.007.205-.007.41 0 .204.007.204.007.409 0 .204.015.204.015.409 0 .204-.053.204-.053.409 0 .204.015.204.015.409s-.023.205-.023.409c0 .205.031.205.031.41 0 .204.038.204.038.408 0 .205-.069.205-.069.41 0 .204.039.204.039.408 0 .205.015.205.015.41 0 .204-.03.204-.03.409v.818c0 .204.007.204.007.409 0 .204.015.204.015.409s-.03.205-.03.409c0 .205.023.205.023.41 0 .136.03.272.022.4-.007.137-.03.266-.045.402s-.061.265-.084.394c-.023.136-.015.273-.046.402-.03.128-.068.265-.099.386-.038.129-.121.242-.16.371-.045.129-.09.25-.137.371a8.59 8.59 0 01-.16.364c-.053.129-.068.265-.129.379-.06.121-.114.25-.175.356-.069.121-.183.204-.251.31-.1.167-.229.175-.335.137-.046-.015-.198-.06-.168-.258.03-.204-.007-.212.015-.416.03-.205.077-.197.1-.402.03-.204.022-.204.045-.409s.023-.205.053-.41c.023-.204.054-.204.077-.408.022-.205.03-.205.053-.41.03-.204 0-.204.023-.416.03-.204.053-.204.083-.409.03-.205.039-.205.061-.41.03-.204.008-.204.038-.416.023-.204 0-.204.03-.416.024-.205.039-.205.062-.41.03-.204.007-.204.038-.416.023-.205.06-.197.091-.41.023-.204-.015-.211.008-.416.03-.205.023-.205.053-.417 0-.06 0-.113-.038-.159-.046-.045-.099-.083-.16-.076-.13.008-.122.038-.251.046a.152.152 0 00-.122.053c-.137.144-.175.106-.304.25-.137.144-.115.16-.252.303-.137.144-.144.129-.281.273-.138.144-.122.151-.26.295-.136.144-.152.129-.289.265-.137.144-.144.137-.274.28-.137.145-.099.175-.236.319-.137.144-.13.144-.266.288-.137.144-.137.144-.274.28-.137.144-.122.151-.26.295-.136.144-.19.091-.327.235-.09.099-.144.228-.243.326-.092.091-.213.167-.312.258-.1.09-.176.204-.275.295-.098.091-.22.16-.32.243-.098.09-.182.197-.281.287-.099.084-.19.19-.297.273-.107.084-.236.136-.343.22-.106.083-.22.151-.327.235-.106.083-.198.181-.304.265-.107.076-.221.151-.328.227-.106.076-.228.137-.342.205-.115.075-.221.159-.328.227-.114.068-.228.144-.343.212-.114.068-.25.099-.365.16-.114.067-.22.15-.343.211-.114.06-.243.106-.365.167-.122.06-.22.151-.343.212-.121.06-.236.129-.357.182l-.366.159c-.122.053-.236.121-.365.174-.122.053-.252.091-.373.144-.122.053-.244.121-.366.167-.122.045-.274.038-.396.083-.13.046-.251.091-.38.136-.13.038-.244.122-.374.16-.129.038-.258.06-.388.098-.13.038-.266.046-.396.083-.13.038-.259.061-.388.091-.13.03-.259.076-.388.099-.13.023-.252.106-.381.129-.13.03-.267.022-.404.045-.129.023-.266.038-.395.053-.13.023-.26.06-.396.083-.13.016-.275-.007-.404 0-.13.016-.266.046-.396.061-.091.008-.183 0-.244-.06a.326.326 0 01-.106-.243c0-.205.046-.205.046-.41 0-.204-.046-.204-.046-.408v-.402c0-.197.03-.204.03-.409 0-.204-.023-.204-.023-.409 0-.204-.007-.204-.007-.409 0-.204-.023-.204-.023-.41 0-.204.053-.204.053-.4 0-.198-.053-.205-.053-.41 0-.204.023-.204.023-.409 0-.204.038-.204.038-.401 0-.197-.023-.205-.023-.41 0-.204.038-.204.038-.4 0-.198-.03-.205-.03-.402 0-.197.023-.205.023-.402 0-.197-.016-.204-.016-.401 0-.197.016-.205.016-.402 0-.197-.03-.205-.03-.401 0-.197.03-.205.03-.402 0-.197-.016-.205-.016-.41 0-.204.016-.204.016-.4 0-.198-.054-.205-.054-.41 0-.204-.015-.204-.015-.409 0-.204.015-.204.015-.401 0-.197.038-.205.038-.41v-.4c0-.198.016-.205.016-.41s-.038-.205-.038-.41v-.408c0-.205-.03-.205-.03-.41 0-.204.075-.204.075-.4 0-.198-.053-.205-.053-.41 0-.204.023-.204.023-.409s-.03-.205-.03-.41c0-.204.037-.204.037-.408 0-.205-.06-.205-.06-.41 0-.204.022-.204.022-.408 0-.205.03-.205.03-.41 0-.204-.014-.204-.014-.4 0-.198.007-.206.007-.402v-.41c0-.204-.023-.204-.023-.409 0-.204.038-.204.038-.409 0-.204-.045-.204-.045-.409 0-.204.023-.204.023-.409 0-.204.038-.204.038-.409v-.41c0-.204-.016-.204-.016-.408 0-.205.008-.205.008-.41 0-.204-.046-.204-.046-.408 0-.205.008-.205.008-.41 0-.136-.015-.272-.015-.401 0-.136.045-.265.053-.401 0-.137 0-.273.008-.402.007-.136 0-.273.015-.402.015-.136.03-.265.053-.401.015-.136.092-.258.114-.394.023-.136 0-.273.023-.41.023-.128.084-.257.114-.385.023-.13.016-.273.046-.402s.076-.258.107-.386c.038-.13.068-.258.106-.387.038-.128.122-.242.16-.37.038-.13.023-.274.069-.402.045-.13.152-.228.198-.356.045-.13.045-.273.091-.394.053-.122.107-.243.16-.372.053-.12.145-.227.198-.356.053-.12.068-.265.13-.386.06-.121.152-.22.212-.34.061-.122.13-.236.19-.357.062-.121.115-.242.184-.364l.205-.34c.069-.114.114-.243.183-.357.068-.113.175-.212.243-.325.069-.114.145-.228.221-.341.076-.114.092-.265.175-.371.077-.114.19-.197.267-.311.053-.076.045-.174.045-.265 0-.137.016-.137.016-.273 0-.06.007-.129-.03-.167-.039-.038-.115-.015-.168-.015-.198.015-.198.015-.396.023-.198.015-.198-.008-.404 0-.198.015-.198 0-.403.008-.198.015-.198.037-.396.053-.198.015-.198.037-.396.053-.198.015-.206-.053-.404-.038-.197.015-.197.075-.395.09-.198.016-.198 0-.396.016-.198.015-.206-.046-.404-.03-.198.015-.198.068-.396.083s-.198 0-.403.007c-.198.016-.198.03-.396.046l-.396.03c-.198.015-.198 0-.396.015l-.396.03c-.198.016-.198.03-.396.038s-.205-.022-.403-.007c-.198.015-.198.023-.396.038s-.198-.015-.404 0c-.198.015-.198.06-.396.075-.198.016-.198 0-.403.016-.198.015-.198.038-.396.045-.198.015-.198 0-.404.015-.198.015-.198.008-.396.023s-.198.008-.403.023c-.198.015-.198.023-.396.038s-.206-.023-.404 0c-.198.015-.198.022-.395.037-.199.016-.206-.022-.404-.007-.198.015-.198.083-.396.098-.198.016-.206-.022-.404-.007-.197.015-.197.03-.395.045s-.198.03-.396.046c-.198.015-.206-.03-.404-.015l-.403.03-.404.03c-.198.015-.206 0-.403.015-.198.015-.198.023-.404.038-.206.015-.206-.007-.404 0-.205.015-.197.06-.395.076-.198.015-.198.038-.404.045a.407.407 0 00-.274.13.396.396 0 00-.122.28v.053c0 .083.03.151.084.227.076.114.099.257.167.371.077.114.168.212.236.326.069.113.168.212.237.326.068.113.129.234.19.356.068.12.13.234.198.348.06.121.114.242.175.364.06.12.13.235.183.356.06.121.099.25.152.371.053.121.122.242.175.364.053.12.107.25.152.37.046.122.107.243.153.372.045.129.045.265.083.394.046.129.122.242.16.371.038.129.046.265.084.394.038.129.107.25.145.379.03.129.076.258.106.386.03.13 0 .273.03.402.023.129.084.257.107.386.023.129.023.265.046.402.023.128.069.257.084.394l.045.401c.016.129.016.265.03.402.008.136-.037.272-.03.401 0 .137.069.265.076.402 0 .128-.053.265-.053.401 0 .197.046.197.046.394v.394c0 .197-.03.197-.03.394s.022.197.022.394v.788c0 .197.015.197.015.394v.788c0 .197-.015.197-.015.394v.394c0 .197.023.197.023.393 0 .197-.038.197-.038.402 0 .205.053.197.053.394s-.03.197-.03.394-.015.197-.015.394v.795c0 .197-.016.197-.016.394s.046.197.046.394.023.197.023.394-.046.197-.046.394.008.197.008.394.03.197.03.401c0 .205-.06.197-.06.402 0 .205.053.197.053.401 0 .205-.023.197-.023.402 0 .205.015.197.015.402 0 .204-.023.197-.023.401 0 .205.054.197.054.402 0 .204-.038.197-.038.401 0 .136-.016.265-.023.402 0 .136-.023.265-.03.401 0 .136.053.273.037.402-.007.128-.068.265-.084.394-.015.136.016.272 0 .401-.015.136-.045.265-.068.394-.015.136-.03.265-.053.394s-.03.265-.054.394c-.022.129-.038.265-.068.394-.023.129-.091.257-.114.386-.03.129-.076.258-.107.387-.03.128-.06.257-.099.386-.03.129-.068.258-.107.386-.038.13-.022.273-.06.394l-.115.387c-.038.128-.083.25-.129.378-.046.13-.099.25-.145.372-.045.12-.13.235-.182.356-.054.12-.1.25-.153.37-.053.122-.053.266-.106.395-.054.121-.145.227-.206.348-.053.121-.091.25-.145.371-.06.122-.16.22-.22.341-.061.122-.092.258-.153.372-.06.113-.137.227-.205.348-.069.114-.145.227-.213.341-.069.114-.122.235-.198.349-.038.068-.03.151-.03.234 0 .152-.054.152-.054.311 0 .053.069.083.107.129a.152.152 0 00.121.053s.008.038.016.038c.198-.016.198-.016.403-.03.206-.016.206.007.404 0 .198-.016.198-.076.396-.091.198-.016.198-.023.403-.038.198-.016.206.03.404.022.198-.015.205 0 .403 0 .198-.015.198-.075.396-.09.198-.016.206.052.404.037.197-.015.197-.06.395-.076.198-.015.198 0 .404-.015.198-.015.206.03.404.016.197-.016.197-.069.395-.084s.198-.007.404-.022c.198-.016.206.037.403.022.198-.015.198-.068.396-.083s.206.007.404 0c.198-.015.198-.023.404-.038.197-.015.205 0 .403 0 .198-.015.198-.023.404-.038.198-.015.205 0 .403-.015.198-.015.198-.038.396-.053.206-.015.206.008.404 0 .197-.008.197-.015.403-.03.198-.015.206 0 .404-.008.197-.015.197-.007.403-.023.198-.015.198-.007.404-.022.198-.016.198-.053.396-.061.198-.015.205.015.403 0 .198-.015.206 0 .404-.015.197-.015.197-.084.395-.099s.206.03.404.016c.198-.016.206-.008.404-.023.197-.015.197-.023.403-.038.198-.015.198-.03.396-.046.198-.015.205.016.403 0 .198-.015.198 0 .404-.015.198-.015.198-.038.396-.053s.198-.053.396-.068c.198-.015.205.008.403 0 .198-.015.206 0 .404-.015.198-.015.198-.045.403-.053.198-.015.206.038.404.03.198-.015.198 0 .404-.015.197-.015.197-.03.403-.038l.404-.03c.197-.015.197-.023.403-.038.198-.015.198-.03.404-.046.205-.015.205-.007.403-.022.206-.015.206-.008.404-.023.205-.015.198-.045.403-.06.198-.016.206.007.404 0 .205-.016.205.03.403.015.206-.015.198-.023.404-.038.198-.015.198-.068.396-.084.198-.015.205.008.403 0 .198-.015.206.008.404 0 .198-.015.198-.015.403-.022.198-.016.198-.053.396-.069.198-.015.206.023.404.008.205-.015.198-.053.403-.068.198-.015.206-.008.404-.023.205-.015.205.023.403 0 .206-.015.206.015.404 0 .198-.015.198-.03.403-.045.206-.015.206 0 .404-.015.205-.016.198-.069.403-.084.206-.015.206.015.404 0 .206-.015.206-.015.403-.022.206-.016.206 0 .404-.016.206-.015.198-.037.404-.053.197-.015.197-.007.395-.022.198-.016.198-.038.396-.053.198-.016.198-.008.396-.023s.206.038.404.023l.396-.03c.198-.016.205 0 .403-.016.198-.015.198-.083.396-.098l.404-.03c.198-.016.198 0 .403-.008.198-.015.206.03.404.015.198-.015.198-.076.396-.091.197-.015.205.03.403.015.198-.015.198-.03.396-.045.198-.016.206 0 .403-.016.198-.015.198 0 .404-.022.206-.023.198-.038.396-.053s.206.007.404 0c.197-.008.197-.06.395-.076l.404-.03c.198-.015.198 0 .404-.015.205-.016.197-.03.403-.046.198-.015.206.015.404 0 .198-.015.198.008.403 0 .198-.015.198-.03.396-.038.198-.015.198 0 .403-.015.198-.015.198-.023.404-.038.198-.015.198-.022.403-.038.199-.015.199 0 .404-.015.198-.015.198-.038.404-.045.198-.015.198-.023.403-.038.198-.015.198-.03.404-.046.198-.015.205.03.403.016.198-.016.206-.008.404-.023.198-.015.205-.008.403-.023.198-.015.198-.083.396-.098.206-.016.206.053.411.038.206-.016.198-.069.404-.084.198-.015.205.03.403.015l.404-.03c.205-.015.198-.023.403-.038.206-.015.198-.053.404-.068.206-.015.206-.023.403-.03.206-.015.206-.015.404-.023.206-.015.206.053.411.038l.404-.03c.205-.016.205-.016.403-.023.206-.015.206-.03.404-.046.205-.015.198-.045.403-.06.206-.016.206-.023.404-.038.205-.015.205 0 .403-.023l.404-.03c.205-.015.205.015.41 0 .206-.015.199-.038.404-.053l.404-.03.404-.03c.205-.016.205 0 .403-.016.206-.015.206-.008.411-.023.206-.015.206 0 .404-.015.205-.015.198-.068.403-.083.206-.015.206.015.404 0 .205-.015.205.007.41 0 .207-.015.199-.046.404-.06.206-.016.206.014.412 0 .205-.016.205 0 .41-.008.206-.016.199-.061.404-.076.206-.015.206.03.411.015.206-.015.198-.06.404-.076.206-.015.206-.007.403-.022.206-.016.206.015.412 0 .205-.016.205-.023.41-.038.206-.015.206 0 .412-.015.114-.008.213-.084.29-.16.075-.083.144-.181.144-.295 0-.015-.015-.015-.015-.03 0-.091 0-.197-.054-.265-.076-.114-.167-.205-.243-.319-.076-.113-.153-.22-.221-.333-.069-.114-.152-.22-.22-.341-.07-.114-.115-.242-.184-.364-.06-.12-.106-.25-.16-.37-.06-.122-.114-.243-.175-.364-.053-.122-.152-.228-.205-.349-.053-.121-.092-.257-.137-.379-.046-.129-.084-.257-.13-.379-.045-.128-.053-.265-.091-.393l-.114-.387c-.038-.129-.061-.257-.092-.394-.03-.129-.121-.25-.152-.379-.03-.128-.069-.265-.091-.393a6.408 6.408 0 01-.054-.402c-.022-.129-.038-.265-.06-.402-.016-.136.015-.272 0-.401a6.797 6.797 0 01-.039-.401c0-.137-.038-.266-.038-.402s-.023-.265-.023-.402c0-.197.039-.197.039-.394v-.787c0-.197-.038-.197-.038-.402 0-.204.038-.197.038-.401 0-.205-.03-.197-.03-.402 0-.204.03-.197.03-.401 0-.205.03-.197.03-.402 0-.205-.046-.197-.046-.401 0-.205.008-.197.008-.402 0-.205.03-.197.03-.402 0-.204-.038-.197-.038-.401v-.401c0-.205.016-.198.016-.402 0-.205-.016-.197-.016-.394s-.007-.197-.007-.394v-.401c0-.205.053-.197.053-.402 0-.205-.008-.197-.008-.401 0-.205-.022-.197-.022-.402 0-.205-.008-.197-.008-.402 0-.204-.015-.197-.015-.401 0-.205.045-.197.045-.401 0-.205.008-.198.008-.402 0-.205.008-.197.008-.402 0-.204-.023-.197-.023-.401 0-.205-.015-.197-.015-.402 0-.12.06-.22.152-.303.091-.083.175-.174.274-.25.099-.075.183-.174.282-.25.099-.068.22-.113.327-.181.107-.061.22-.114.335-.175.114-.06.213-.128.335-.174.114-.053.236-.09.358-.136.122-.046.236-.091.358-.13.122-.037.228-.113.358-.143.121-.03.25-.06.373-.083.121-.023.258 0 .388-.016.13-.015.251 0 .38-.015.13-.007.26-.053.381-.053.13 0 .26-.015.389 0 .13.008.25.084.373.106.13.023.259.03.373.061.122.038.243.09.35.151.114.053.213.144.312.213.107.075.236.113.328.204.099.099.198.212.281.326.084.114.13.258.19.386.061.13.168.235.214.38.046.135.06.28.091.423.023.137.046.28.061.425.015.136.008.28.008.431 0 .197.007.197.007.402 0 .204-.015.197-.015.394s.023.197.023.394-.023.197-.023.394.015.197.015.394v1.182c0 .196-.015.196-.015.393s.03.197.03.394-.03.197-.03.394.03.197.03.394v.788c0 .197-.03.197-.03.394s.008.197.008.402v.787c0 .197-.016.197-.016.402 0 .204.038.197.038.401 0 .205.023.197.023.402 0 .205-.053.197-.053.401v.402c0 .129.023.265.023.394v.394c0 .129-.038.258-.046.394-.015.129-.038.257-.053.386s0 .265-.023.394c-.015.129-.015.265-.038.394a6.931 6.931 0 01-.076.386c-.023.13-.1.25-.13.38-.03.128-.053.257-.083.386a4.86 4.86 0 01-.1.378c-.037.13-.106.243-.144.364-.038.129-.069.258-.114.379-.046.121-.107.242-.152.363-.046.122-.084.25-.13.372l-.16.363c-.053.121-.106.243-.16.356-.053.122-.114.235-.175.349-.06.114-.122.227-.19.348-.061.114-.13.228-.198.341-.061.114-.076.258-.145.371-.068.114-.175.205-.243.311a.456.456 0 00-.076.243v.257c0 .06.015.136.06.182.038.038.122.007.175 0 .206-.015.206.038.412.023.198-.016.198-.038.403-.046.206-.015.198-.053.404-.068.205-.015.205.015.403 0 .198-.015.206 0 .404-.008.205-.015.198-.06.403-.068.206-.015.206.046.411.03.206-.015.198-.052.404-.068.206-.015.206 0 .403 0 .206-.015.206.016.404 0 .206-.015.198-.068.404-.075.205-.016.205.015.41 0 .206-.016.206 0 .404-.016.206-.015.198-.053.404-.068.205-.015.205 0 .403-.015.206-.015.198-.045.404-.06.205-.016.205.022.41.007.206-.015.206 0 .404 0 .206-.015.206-.015.404-.023.206-.015.206-.038.404-.053.205-.015.205 0 .41-.007.206-.015.199-.069.404-.084.206-.015.206.038.411.023.206-.015.206 0 .404-.023.205-.015.198-.053.403-.068.206-.015.206.023.411.015.206-.015.198-.037.404-.053.206-.015.206.008.411 0 .206-.015.206 0 .404-.022.205-.016.205-.03.403-.046.206-.015.206-.038.404-.053.205-.015.205.023.411.008.205-.016.205-.03.403-.046.206-.015.206-.045.404-.06.206-.015.206 0 .411-.015.114-.008.236-.038.312-.114a.462.462 0 00.107-.318c0-.016.03-.016.03-.03 0-.1-.061-.19-.122-.266-.083-.106-.159-.22-.236-.333l-.228-.341c-.076-.114-.129-.242-.206-.356-.068-.114-.175-.212-.243-.333-.069-.122-.092-.266-.152-.387-.061-.121-.176-.22-.236-.34-.061-.122-.107-.25-.16-.38-.054-.128-.107-.25-.16-.378a10.053 10.053 0 01-.152-.38c-.046-.128-.054-.272-.092-.4-.046-.13-.099-.258-.137-.387-.038-.129-.061-.265-.099-.394-.03-.129-.122-.25-.152-.386-.031-.137 0-.28-.023-.417-.023-.136-.091-.265-.114-.394-.023-.136-.061-.265-.084-.401-.015-.137 0-.273-.015-.41-.015-.136-.015-.272-.023-.409-.008-.136-.06-.272-.069-.409 0-.136.046-.272.046-.409 0-.197-.038-.197-.038-.401v-.803c0-.197-.007-.197-.007-.402v-.401c0-.197.06-.197.06-.402 0-.204-.03-.197-.03-.401 0-.205-.03-.197-.03-.402v-.401c0-.205.022-.205.022-.402 0-.197.03-.197.03-.401 0-.205-.007-.197-.007-.402v-.401c0-.205.015-.197.015-.402 0-.205-.053-.205-.053-.401v-.402c0-.197.038-.205.038-.402 0-.197.015-.204.015-.401v-.401c0-.198-.007-.205-.007-.402v-.402c0-.204-.008-.204-.008-.401 0-.197.015-.205.015-.402 0-.136-.038-.272-.053-.409a3.427 3.427 0 00-.053-.401 6.426 6.426 0 00-.061-.402c-.03-.136-.038-.272-.076-.401s-.054-.273-.1-.402a7.869 7.869 0 00-.144-.386c-.046-.129-.137-.235-.19-.364-.054-.121-.092-.257-.168-.379-.068-.113-.122-.25-.213-.363-.084-.114-.183-.212-.274-.318-.091-.106-.22-.182-.312-.28-.1-.107-.221-.19-.312-.281M88.76 23.41c.03-.152.175-.228.267-.25.022 0 .053-.054.083-.054.054 0 .107.06.16.121.1.106.236.175.343.273.106.099.213.197.327.288.115.09.206.212.328.295.076.053.099.114.091.205-.007.114-.046.212-.152.265-.122.06-.244.129-.358.197-.122.068-.244.121-.358.197-.114.068-.22.16-.335.235-.114.076-.236.06-.35.038-.122-.03-.259-.068-.32-.174a.476.476 0 01-.03-.372c.045-.136.13-.257.167-.401.038-.137.015-.296.046-.432.03-.136.053-.28.084-.424m2.215 15.409c0-.137.053-.273.084-.417.03-.136.16-.257.304-.257.023 0 .046.053.069.053.16.03.335.022.495.053.16.022.327.053.487.068.122.015.236.068.35.076.122.007.236.015.358.015s.236-.023.358-.023.236-.015.35-.023c.137-.007.274-.007.411-.023.138-.015.267-.045.404-.068.13-.015.274 0 .411-.03.137-.023.259-.098.396-.121.13-.023.267-.038.404-.06.137-.031.281 0 .41-.031.13-.03.252-.114.389-.152.13-.03.274-.015.411-.045.13-.03.267-.06.396-.099.13-.037.244-.128.38-.166.13-.038.267-.06.397-.106.13-.038.266-.053.403-.091.13-.038.251-.114.388-.16.13-.045.275-.045.404-.09.122-.046.228-.129.35-.167.122-.038.251-.068.373-.106.13-.038.252-.076.373-.114.13-.037.252-.083.366-.12.129-.039.259-.054.381-.092.129-.038.251-.075.373-.106.129-.038.236-.129.357-.159.13-.038.267-.03.389-.06.129-.038.243-.122.358-.144.137-.03.266-.038.38-.061.153-.03.282-.038.381-.045.129-.008.259-.016.381-.016.129 0 .258-.015.388 0 .129.016.259.053.381.076.129.023.251.053.373.099.121.045.243.09.358.144.114.06.228.12.327.197.107.075.205.166.289.257.084.091.16.205.221.31.061.107.107.228.145.35.038.113.053.242.076.37.015.122.076.243.076.38 0 .143-.038.28-.061.416a4.051 4.051 0 01-.099.409 3.326 3.326 0 01-.145.394c-.06.129-.129.242-.205.364-.076.113-.13.242-.221.356-.084.106-.198.197-.297.295-.099.099-.175.212-.289.31-.107.092-.244.145-.358.228-.114.083-.206.19-.327.265-.115.068-.236.136-.351.205-.114.068-.243.113-.365.174-.122.06-.259.083-.381.144-.122.053-.236.121-.365.174-.122.046-.252.106-.381.152-.129.045-.266.053-.396.09-.129.038-.251.091-.388.13-.13.03-.259.052-.396.083-.13.03-.251.106-.388.128-.13.023-.267.038-.404.061-.129.023-.274 0-.411.015-.129.015-.259.099-.396.114s-.274-.008-.411 0c-.137.015-.267.03-.411.038-.13.007-.267-.023-.396-.015-.13 0-.267.075-.396.075-.137 0-.266-.068-.396-.068-.137 0-.266.038-.396.038-.137 0-.266-.03-.396-.038-.137 0-.266-.015-.396-.03a7.119 7.119 0 01-.396-.06c-.13-.016-.266.014-.403-.008-.13-.023-.259-.084-.389-.106-.129-.023-.273 0-.395-.03-.13-.031-.252-.084-.381-.122-.13-.038-.259-.06-.38-.106-.13-.045-.252-.09-.374-.136-.122-.046-.243-.114-.358-.167-.121-.053-.236-.121-.35-.182-.122-.06-.244-.106-.35-.167-.114-.068-.206-.174-.305-.242-.114-.076-.243-.114-.342-.182-.107-.083-.214-.151-.305-.235-.099-.09-.175-.197-.259-.295-.091-.099-.19-.182-.259-.288-.076-.106-.106-.235-.167-.348-.061-.114-.091-.235-.13-.356-.038-.122-.09-.243-.106-.372-.023-.128-.061-.25-.061-.386m5.17-21.568c0-.137.038-.265.038-.402 0-.136-.03-.265-.03-.401 0-.137.06-.265.06-.394 0-.137-.03-.265-.023-.402.008-.136.023-.265.03-.401.008-.137.07-.265.077-.394l.046-.394c.015-.136.007-.273.03-.394.023-.136.038-.265.061-.394.023-.136.06-.265.091-.386.03-.137.038-.265.077-.387.038-.136.099-.25.144-.37.046-.13.038-.274.084-.395.053-.129.122-.242.183-.356.068-.129.182-.22.258-.333.084-.122.122-.265.214-.372.099-.106.236-.166.342-.25.107-.09.221-.166.343-.234.122-.076.22-.19.35-.243.13-.053.267-.09.404-.129.13-.037.274-.037.419-.06.137-.023.274-.068.418-.076.137-.008.274.03.404.038.137 0 .274-.03.403-.015.137.023.267.06.389.098.129.038.251.099.373.152.121.06.236.121.342.204.107.076.191.182.29.28.091.092.175.198.251.304.076.106.198.19.259.31.061.106.076.243.129.364.046.114.145.22.19.34.039.115.061.25.099.38.031.12.054.25.084.378.031.122.061.25.084.38.023.12.068.25.084.378.023.129.015.258.03.386.015.13.031.25.046.387.015.128.03.257.038.386s.023.258.03.386l.023.387v.386c0 .129-.007.258-.007.387 0 .128-.008.257-.008.386 0 .144.046.28.046.417 0 .144-.038.28-.038.416 0 .144-.023.28-.031.417 0 .144-.015.28-.023.417-.007.144-.023.28-.038.416-.015.144 0 .28-.015.417-.015.144-.053.273-.076.409-.023.144-.008.28-.031.417-.022.136-.091.265-.121.401-.031.137-.031.28-.061.41-.038.136-.084.272-.122.393-.046.137-.114.258-.16.379-.053.136-.145.242-.206.356-.068.129-.114.258-.198.371-.083.122-.159.235-.251.341-.091.106-.213.174-.32.265-.106.091-.205.182-.327.258a2.44 2.44 0 01-.373.182c-.129.053-.244.144-.381.182-.129.037-.274.053-.411.075-.137.023-.282 0-.419 0-.137.008-.274.076-.395.076-.138 0-.267-.053-.396-.068a2.285 2.285 0 01-.396-.076c-.13-.038-.244-.113-.358-.174-.122-.053-.267-.068-.38-.144-.107-.076-.168-.212-.267-.303-.092-.091-.214-.16-.297-.273-.076-.106-.13-.227-.198-.34-.061-.114-.13-.236-.183-.364-.053-.122-.084-.25-.13-.387-.045-.12-.129-.242-.167-.378-.038-.13-.03-.266-.06-.41-.031-.128-.107-.25-.13-.386-.023-.129-.023-.265-.046-.41-.023-.128-.053-.264-.069-.4a6.44 6.44 0 01-.03-.41c-.015-.136 0-.272-.015-.409-.008-.136 0-.272-.015-.409 0-.136-.03-.265-.038-.409 0-.136.038-.273.038-.409 0-.136-.069-.273-.069-.41M78.938 21.72c0 .136-.038.265-.038.401 0 .137.038.265.03.402 0 .136-.052.265-.06.394 0 .136.03.265.03.401 0 .137-.015.265-.022.394 0 .137-.054.265-.061.394 0 .136-.015.265-.023.394s.008.265 0 .394l-.023.394c-.008.129-.038.265-.046.394-.015.129 0 .265-.022.394-.016.136-.061.257-.077.386-.015.137.023.273 0 .402-.015.128-.053.265-.068.394-.023.128-.092.257-.114.378-.023.13.015.273-.016.402-.022.129-.106.25-.129.379l-.091.386c-.03.129-.008.273-.046.394-.038.129-.084.25-.122.379-.038.129-.107.242-.145.363-.045.13-.06.258-.106.38-.046.128-.145.234-.19.348-.054.128-.069.265-.13.378-.06.122-.137.235-.206.349a3.555 3.555 0 01-.22.333 3.45 3.45 0 01-.236.318c-.084.107-.19.19-.282.28-.091.1-.19.183-.297.266-.107.083-.183.204-.297.273-.114.068-.251.09-.373.151-.122.053-.228.152-.358.19-.122.038-.259.053-.396.075-.13.023-.266.03-.396.038a3.745 3.745 0 01-.41.008c-.138 0-.282 0-.412-.023-.137-.023-.266-.083-.396-.121a2.453 2.453 0 01-.73-.379 3.377 3.377 0 01-.313-.265 5.51 5.51 0 01-.282-.303c-.083-.106-.152-.22-.236-.341-.068-.106-.13-.235-.198-.356-.06-.114-.114-.242-.175-.371-.053-.122-.16-.228-.205-.356-.054-.122-.069-.265-.115-.394-.045-.122-.076-.258-.114-.394a26.507 26.507 0 01-.114-.394l-.091-.394c-.03-.129-.084-.258-.115-.394-.03-.129-.03-.265-.06-.402-.023-.128-.076-.257-.1-.393-.022-.13 0-.273-.022-.41-.015-.128-.076-.265-.092-.401l-.045-.402c-.016-.128-.008-.272-.023-.409-.015-.136 0-.272 0-.409-.015-.136-.046-.265-.053-.401-.008-.137-.03-.265-.038-.41-.008-.136.015-.272.007-.409 0-.136-.03-.265-.038-.401v-.41c0-.136-.053-.272-.06-.408v-.41c0-.136.037-.272.037-.408 0-.137-.068-.273-.068-.41 0-.136.038-.265.038-.401s-.008-.265 0-.394c0-.136.038-.265.046-.394 0-.136-.061-.265-.054-.401 0-.13.076-.265.084-.394 0-.137-.03-.265-.023-.394 0-.13.038-.265.046-.394l.023-.394c.007-.129.038-.265.045-.394.008-.129-.023-.265-.015-.394.015-.136.069-.258.076-.386.015-.137-.023-.273-.007-.402.015-.136.053-.258.068-.386.015-.13.023-.265.038-.394l.069-.387c.022-.128.06-.257.084-.386.022-.129.06-.258.09-.386.031-.13.039-.265.07-.387.03-.128.106-.25.136-.37.038-.13.023-.266.061-.395s.061-.257.107-.379c.038-.128.106-.242.152-.363.046-.129.076-.258.122-.379.053-.129.145-.235.198-.348.06-.122.13-.235.198-.349.068-.121.122-.242.19-.348.076-.114.175-.205.251-.303.084-.107.168-.213.26-.303.09-.099.167-.22.266-.296.106-.083.22-.151.335-.22.114-.068.243-.106.365-.159.122-.053.244-.106.366-.151.122-.038.243-.106.38-.13a3.51 3.51 0 01.396-.045c.084 0 .168.053.252.053.129 0 .266-.06.395-.045.13.015.244.106.374.136.129.03.243.076.365.13.122.052.259.052.373.12.107.069.19.175.297.258.099.083.22.144.312.235.084.09.175.19.26.295.075.099.113.235.19.341.068.106.129.22.197.333.061.114.13.22.183.341.053.114.122.228.168.349.053.121.068.258.114.394.045.121.13.235.175.371.038.129.069.258.106.394.039.129.031.265.07.402.03.128.052.265.083.393.03.13.084.258.114.394.023.13.068.258.091.394.023.13.023.265.046.402.023.129.053.265.069.401.015.137.053.266.068.402.015.129-.023.273-.007.409l.045.402c.015.136.015.265.03.409.008.136.016.272.031.409.008.136.03.265.038.409 0 .136-.015.273-.007.409 0 .136 0 .273.007.409 0 .136.061.265.061.409 0 .136-.023.273-.023.41 0 .136.023.272.023.408 0 .137.03.273.03.41m-27.5 1.863c0 .136-.038.265-.038.394 0 .136.038.265.03.401 0 .137-.053.266-.053.394 0 .137.03.265.03.394 0 .137-.015.265-.022.394 0 .137-.054.265-.061.394 0 .129-.016.265-.023.394-.008.136.007.265 0 .394l-.023.394c-.008.129-.038.265-.046.394-.015.129 0 .265-.023.394-.015.129-.06.257-.076.386-.015.137.023.273 0 .402-.015.136-.053.265-.068.394-.023.136-.092.257-.114.378-.023.13.015.273-.016.402-.023.129-.106.25-.13.379l-.09.386c-.03.129-.008.273-.046.394-.038.129-.084.25-.122.379-.038.129-.107.242-.145.364-.045.128-.06.265-.106.378-.046.13-.145.235-.19.349-.054.129-.07.265-.13.379-.06.12-.137.234-.206.348a3.614 3.614 0 01-.22.333 3.61 3.61 0 01-.236.319c-.084.106-.19.189-.282.28a4.69 4.69 0 01-.297.265c-.107.083-.183.205-.297.273-.114.068-.251.09-.373.151-.122.053-.228.152-.358.19-.122.038-.266.053-.396.075-.13.023-.266.03-.396.038a2.487 2.487 0 01-.41 0c-.138 0-.283 0-.412-.022-.137-.023-.267-.084-.396-.122a2.405 2.405 0 01-.38-.166 2.091 2.091 0 01-.35-.22 4.721 4.721 0 01-.32-.265 3.5 3.5 0 01-.275-.303c-.084-.106-.152-.22-.236-.341-.076-.114-.13-.235-.198-.356-.06-.114-.114-.243-.175-.371-.053-.122-.152-.228-.205-.356-.046-.122-.069-.266-.115-.394-.045-.122-.076-.258-.114-.394a5.959 5.959 0 01-.106-.394l-.092-.394c-.03-.129-.084-.258-.114-.394-.03-.129-.03-.265-.06-.402-.024-.128-.077-.257-.1-.394-.023-.128 0-.272-.023-.409-.023-.128-.076-.265-.091-.401l-.046-.402c-.015-.128-.007-.272-.023-.409-.015-.136 0-.273 0-.409-.015-.136-.045-.265-.053-.401-.008-.137-.03-.266-.038-.41-.008-.136.015-.272.008-.409 0-.136-.03-.265-.038-.401v-.41c0-.136-.054-.272-.061-.408v-.41c0-.136.038-.272.038-.409 0-.136-.069-.272-.069-.409 0-.136.038-.265.038-.393v-.394c0-.137.038-.266.046-.394 0-.137-.06-.265-.053-.394 0-.137.076-.265.084-.394 0-.137-.031-.265-.023-.394 0-.137.038-.265.045-.394l.023-.394c.008-.129.038-.265.046-.394.007-.129-.023-.265-.015-.394.015-.136.06-.258.076-.386.015-.137-.023-.273-.008-.402s.053-.257.069-.386c.015-.129.023-.265.045-.394l.069-.386c.023-.13.06-.258.084-.387.022-.129.06-.257.091-.386.03-.129.038-.265.069-.387.03-.128.106-.25.136-.37.031-.13.023-.266.061-.395.038-.128.061-.257.1-.378.037-.13.106-.243.152-.364.045-.129.076-.258.122-.379.053-.129.144-.235.197-.348.061-.122.13-.235.198-.349.069-.121.122-.242.19-.348.077-.114.176-.205.252-.303.084-.106.167-.213.259-.303.091-.099.167-.22.266-.296.107-.083.221-.151.335-.22.115-.068.244-.106.366-.159.122-.053.244-.106.365-.151.122-.038.244-.106.381-.129.13-.023.266-.038.396-.046.084 0 .167.054.251.054.137 0 .267-.061.396-.046.13.015.251.106.373.136.13.03.244.076.366.13.121.052.258.06.373.128.106.068.19.174.297.258.099.083.22.144.312.235.084.09.175.189.259.295.076.098.121.227.19.34.069.107.13.22.198.334.06.114.13.22.183.341.053.114.121.227.167.349.053.12.069.257.114.394.046.12.13.234.175.37.038.13.069.258.107.395.038.128.03.265.069.401.03.129.053.265.076.402.03.128.084.257.114.394.023.128.068.257.091.394.023.128.023.265.046.401.023.129.053.265.069.402.015.128.053.265.068.401.015.136-.023.273-.008.41l.046.4c.008.137.015.273.03.41.008.136.016.273.031.409.008.136.03.265.038.409.008.136-.015.273-.008.41 0 .135 0 .272.008.408 0 .137.061.265.069.41 0 .136-.023.272-.023.408 0 .137.023.273.03.41 0 .136.03.272.03.409m-29.662-8.326c-.038.136-.114.257-.168.394-.046.136-.06.28-.114.409-.053.129-.16.235-.22.363-.062.13-.1.266-.176.387a5.583 5.583 0 01-.236.348c-.084.114-.206.197-.29.31-.09.107-.182.213-.289.32-.099.098-.182.219-.297.31-.106.09-.213.19-.327.272a5.85 5.85 0 01-.358.235c-.122.076-.228.167-.358.235-.122.068-.266.106-.396.167-.114.053-.213.159-.342.204-.122.046-.251.076-.373.122-.122.037-.26.03-.389.06-.121.038-.236.121-.365.152-.13.03-.267 0-.396.022a6.8 6.8 0 01-.388.053c-.13.016-.252.091-.38.099-.13.015-.26.015-.397.023-.213.015-.213-.015-.434 0-.213.015-.213.045-.426.06s-.221-.03-.434-.015-.213.06-.426.076a.334.334 0 01-.244-.099.325.325 0 01-.091-.235v-.401c0-.197.022-.205.022-.401v-.402c0-.197-.053-.205-.053-.402 0-.197.046-.204.046-.401 0-.197-.054-.197-.054-.402 0-.204.016-.197.016-.401 0-.205.007-.205.007-.402v-.401c0-.197-.023-.205-.023-.402 0-.197.016-.204.016-.401v-1.606c0-.197.015-.205.015-.402 0-.197.015-.204.015-.401 0-.197.015-.205.015-.402 0-.197-.053-.204-.053-.401 0-.197.03-.205.03-.402 0-.197.016-.204.016-.401v-.803c0-.197-.03-.205-.03-.402 0-.197.022-.204.022-.401 0-.197-.03-.205-.03-.402 0-.197.038-.204.038-.401 0-.197-.038-.205-.038-.402v-.401c0-.197.022-.205.022-.41 0-.204.03-.204.03-.409 0-.204-.022-.204-.022-.409 0-.113.038-.22.114-.303.076-.083.183-.098.297-.106.213-.015.213-.038.427-.045.213-.015.213 0 .426-.023.213-.015.213-.06.426-.076.214-.015.214 0 .434-.015.213-.015.221.03.434.015.13-.007.244-.083.366-.083.13 0 .251.03.373.03h.38c.13 0 .252.053.374.06.129.008.258-.037.38-.022.13.015.244.106.358.136.13.03.259.016.373.053.122.038.236.099.35.144.122.046.236.091.35.144.115.053.221.13.328.19.114.06.244.09.35.159.107.076.183.182.282.265.099.083.228.129.312.22.091.09.16.197.244.295.076.099.167.197.236.303.068.106.13.22.198.334.06.113.106.234.16.348.053.114.091.235.137.356.045.121.106.235.137.364.038.12.03.257.053.386.03.121.099.242.122.364.023.129.06.25.084.379.023.128.007.257.03.386.015.129.053.25.061.379.015.128-.015.257-.008.386v.386c0 .13.03.258.03.387 0 .136-.022.272-.03.409 0 .136 0 .273-.007.409-.008.136.023.28 0 .417-.015.136-.046.272-.061.409-.015.136-.076.265-.1.401a5.975 5.975 0 01-.075.402c-.03.136-.023.28-.054.409m-7.971 21.19c-.091 0-.175-.061-.236-.114-.061-.061-.137-.137-.137-.228 0-.197.053-.197.053-.401 0-.205-.038-.197-.038-.402v-.401c0-.205.046-.197.046-.402v-.401c0-.205-.023-.205-.023-.402v-.401c0-.205.015-.197.015-.402 0-.204-.023-.197-.023-.401 0-.205.03-.205.03-.402 0-.197-.053-.204-.053-.401 0-.197.016-.205.016-.402 0-.197.053-.204.053-.401 0-.197-.061-.197-.061-.402 0-.204.053-.197.053-.401v-.402c0-.197-.053-.197-.053-.401 0-.205.015-.205.015-.402 0-.197.03-.204.03-.401 0-.197-.03-.205-.03-.402 0-.197.046-.205.046-.401 0-.197-.046-.197-.046-.402 0-.205.015-.197.015-.402 0-.204.008-.197.008-.401v-.402c0-.197.023-.204.023-.401v-.402c0-.197-.053-.204-.053-.401 0-.197.045-.205.045-.402 0-.197-.053-.204-.053-.401 0-.197.015-.205.015-.402 0-.197.008-.204.008-.401v-.402c0-.197-.023-.204-.023-.409 0-.204.023-.204.023-.401 0-.114.053-.235.122-.319a.47.47 0 01.304-.151l.396-.03.396-.03c.198-.016.198 0 .396-.016.198-.015.198 0 .396-.007.198-.015.198 0 .396-.015.16-.016.312-.069.464-.076.16 0 .32.023.472.023.145 0 .29.015.427.022.144 0 .281.015.426.03.145.008.282.03.419.046.144.015.29.008.426.038.145.023.274.076.411.106.137.03.29.038.419.076.122.038.229.113.35.159.122.045.252.06.366.106.122.053.228.113.342.166.115.061.213.137.32.205.107.068.198.16.297.235.107.076.22.136.312.212.1.083.198.16.29.25.098.099.175.227.266.34.091.107.19.213.274.327.084.113.152.242.22.363.07.122.184.228.245.356.06.13.106.265.16.402.053.129.053.28.098.417.038.12.13.227.168.348.03.121.023.25.046.379.022.121.06.242.076.371.023.121 0 .25.023.379.015.121.099.242.106.371.015.129-.046.258-.038.386.008.13.053.25.061.38 0 .128-.015.25-.015.378v.409c0 .136-.023.273-.03.41-.008.136.03.28.015.408-.016.137-.069.273-.084.402-.015.136.015.28-.008.416-.023.137-.068.266-.091.402-.03.136-.046.273-.076.401-.038.137-.076.266-.115.394-.038.13-.098.25-.144.38-.046.128-.107.242-.16.37-.053.122-.091.25-.152.372-.061.12-.16.212-.229.333-.068.114-.099.25-.175.364-.076.113-.145.227-.228.333-.084.106-.19.19-.274.288-.092.098-.168.22-.274.318-.1.09-.229.159-.335.25-.107.083-.221.159-.335.242-.115.076-.214.175-.335.25-.115.076-.252.122-.373.19-.122.06-.237.136-.366.197-.122.06-.236.151-.366.204-.121.053-.258.084-.388.137-.13.045-.266.053-.403.09-.13.038-.26.084-.396.114-.13.03-.251.099-.389.129-.129.03-.266.053-.403.076-.13.023-.274-.015-.419 0-.137.023-.259.106-.396.12-.137.016-.274-.037-.418-.022a7.066 7.066 0 01-.412.03c-.213.016-.213.076-.426.091-.213.016-.22-.03-.434-.007-.213.015-.213.038-.426.068-.213.023-.213.023-.434.038"/><path d="M110.947 54.84a.908.908 0 01.054-.454.8.8 0 01.297-.34.83.83 0 01.426-.16c.198-.015.198 0 .404-.015.197-.015.197-.008.395-.023s.198-.023.396-.038l.396-.03c.198-.015.198-.008.404-.023.198-.015.198-.007.403-.022.206-.016.198-.016.404-.03l.403-.031c.206-.015.198-.023.396-.03l.396-.03c.198-.016.198 0 .404-.016.198-.015.198-.023.396-.038s.198 0 .403-.015c.206-.015.198-.023.404-.03.205-.008.198-.015.403-.03.198-.016.198 0 .404-.023.198-.015.198-.023.403-.03.206-.008.198 0 .404-.023l.403-.03.404-.03c.198-.016.198-.023.403-.031.198-.015.198 0 .404-.023.198-.015.198-.007.403-.023l.404-.03c.198-.015.198-.023.396-.03.198-.015.198-.008.403-.023l.404-.03c.205-.015.198 0 .403-.015.198-.015.198-.03.404-.046.198-.015.198-.015.403-.023.198-.015.206 0 .404-.015.206-.015.198-.022.404-.03.197-.015.205 0 .403-.023l.404-.03c.205-.015.198-.023.403-.038.206-.015.206 0 .404-.015a.695.695 0 00.35-.121.77.77 0 00.244-.273.651.651 0 00.091-.356c0-.129-.023-.258-.031-.386-.007-.13-.022-.258-.03-.387a6.386 6.386 0 00-.053-.386c-.016-.129-.031-.258-.054-.386a5.84 5.84 0 00-.076-.387c-.023-.129-.045-.257-.076-.379a6.603 6.603 0 00-.099-.378c-.038-.13-.084-.243-.129-.372-.038-.12-.076-.25-.122-.37a7.973 7.973 0 00-.152-.364c-.054-.13-.099-.258-.16-.387s-.13-.25-.191-.371a8.36 8.36 0 00-.198-.371c-.068-.121-.129-.243-.205-.364a11.571 11.571 0 00-.229-.348c-.076-.114-.167-.228-.251-.334-.084-.113-.175-.22-.259-.325l-.274-.319c-.091-.106-.19-.204-.289-.303a824.95 824.95 0 00-.297-.295h-.008c-.099-.084-.198-.167-.297-.258-.099-.083-.198-.174-.304-.257-.107-.084-.221-.152-.328-.228-.106-.075-.213-.159-.327-.227-.114-.068-.228-.144-.343-.204-.114-.069-.236-.122-.357-.182-.115-.06-.236-.121-.358-.182-.122-.06-.236-.121-.358-.174-.122-.053-.244-.099-.373-.152-.122-.045-.244-.106-.373-.151-.122-.046-.251-.076-.381-.122-.122-.037-.251-.083-.381-.113a6.984 6.984 0 00-.38-.099c-.13-.03-.259-.06-.389-.083a6.81 6.81 0 00-.388-.076 6.847 6.847 0 00-.388-.06c-.13-.015-.259-.023-.396-.038-.13-.015-.259-.038-.396-.046-.129-.007-.266-.007-.396-.015-.129 0-.259-.015-.396-.015-.129 0-.266-.008-.396-.008h-.396c-.129 0-.266.008-.396.016-.129 0-.266.007-.395.022-.138.008-.275.023-.412.03l-.411.046c-.137.015-.274.03-.411.053a7.755 7.755 0 00-.411.06l-.411.069a7.791 7.791 0 00-.411.076c-.137.03-.274.053-.404.09-.137.03-.266.076-.403.107-.137.038-.267.068-.404.106-.137.038-.266.075-.396.113a8.473 8.473 0 00-.396.13l-.388.136-.388.159c-.13.053-.259.106-.381.159-.129.053-.244.113-.373.174-.122.06-.251.114-.373.174-.122.06-.244.129-.358.197-.122.06-.244.129-.358.197-.122.068-.236.136-.358.205-.114.068-.236.136-.35.212a5.449 5.449 0 00-.335.235 5.12 5.12 0 00-.327.242c-.115.083-.221.16-.328.242-.106.084-.213.175-.319.258-.107.083-.206.174-.313.265-.106.091-.198.19-.297.28-.099.091-.198.19-.296.28-.092.092-.191.183-.282.281-.092.099-.168.205-.259.303-.091.099-.183.197-.267.296l-.243.31c-.084.106-.168.205-.244.318-.076.114-.144.228-.221.334-.076.106-.159.212-.228.325-.069.114-.129.228-.198.341l-.206.341c-.06.114-.129.235-.19.356-.061.122-.122.235-.175.356-.061.122-.107.243-.16.364-.053.121-.114.242-.16.364-.045.12-.084.242-.129.363a6.6 6.6 0 00-.13.364l-.114.371c-.038.121-.076.25-.106.371-.031.122-.069.25-.099.38l-.092.378c-.03.129-.045.25-.076.379-.023.129-.053.25-.076.379-.023.128-.031.257-.046.386s-.03.258-.038.386c-.015.129-.03.258-.038.387l-.023.386c0 .129-.015.258-.023.386 0 .13-.007.258-.007.387 0 .136 0 .28.007.416 0 .137 0 .28.016.417.007.136.022.28.03.417.015.136.031.272.053.409.016.136.031.273.054.409.023.136.038.273.061.409.022.136.053.273.083.41.031.135.069.264.099.4.031.137.069.266.107.402.038.136.068.265.114.402.046.128.099.257.152.386.046.129.084.265.137.386.054.13.115.258.168.38.061.128.129.242.198.37.061.121.122.25.19.372.069.12.145.234.221.356.076.12.152.235.228.348.077.114.153.235.229.349l.251.333a9.385 9.385 0 00.548.621c.092.099.191.205.29.303.099.099.205.182.312.28.099.084.198.175.297.258.099.083.198.174.304.25.107.076.213.16.32.235.107.076.221.144.327.212.115.068.229.136.335.204.115.069.221.137.343.198.114.06.236.12.35.181.115.06.236.114.358.167.122.053.236.114.358.167.122.053.244.098.365.144.122.045.244.09.374.136.121.045.251.083.373.121.129.038.266.076.403.114.137.038.267.076.404.106l.411.09c.137.031.274.039.419.069.137.023.274.053.411.068l.418.046.419.045c.137.008.282.008.419.015.137 0 .282.023.419.03.137 0 .281-.007.418-.007h.823c.137 0 .274-.015.411-.023.137-.007.274-.03.411-.038.137-.015.274-.015.411-.03.137-.015.274-.023.411-.038.137-.015.274-.038.404-.053.137-.023.274-.045.403-.068.137-.023.267-.053.404-.076.137-.03.266-.045.403-.076.137-.03.267-.06.396-.098.137-.03.267-.06.396-.099.13-.037.267-.075.396-.113.13-.038.259-.084.381-.121.129-.038.251-.084.381-.13.129-.045.251-.09.38-.136.13-.045.251-.098.373-.151.122-.053.244-.114.366-.167.122-.053.243-.106.365-.166.122-.061.244-.114.366-.175.121-.06.236-.136.35-.197l.342-.204c.122-.076.252-.144.366-.22.114-.076.236-.166.35-.25.114-.083.244-.159.358-.242.114-.084.228-.174.343-.265.114-.091.22-.182.327-.273.107-.091.221-.182.327-.28.107-.099.214-.19.313-.288.106-.099.198-.205.297-.31.091-.092.175-.19.266-.281.084-.091.167-.19.259-.288.084-.099.175-.19.259-.288.083-.098.167-.197.243-.295l.236-.303a9.34 9.34 0 00.229-.311c.076-.106.152-.205.228-.31.076-.107.145-.213.213-.319.077-.106.145-.212.214-.326a.205.205 0 00-.046-.28c-.069-.045-.069-.045-.13-.09a.704.704 0 00-.403-.13.742.742 0 00-.411.122c-.092.06-.175.136-.274.197-.092.06-.198.106-.297.174-.092.06-.183.129-.282.19a5.23 5.23 0 01-.358.189c-.114.06-.243.12-.365.181s-.244.114-.373.175c-.122.053-.252.106-.373.159-.115.045-.229.098-.351.144a4.82 4.82 0 01-.357.12c-.122.039-.236.077-.358.107-.122.038-.236.076-.358.106s-.244.068-.366.09c-.137.031-.274.054-.411.084-.137.03-.274.06-.419.084-.137.022-.274.045-.418.06-.137.015-.282.038-.419.053s-.282.015-.426.03c-.137.008-.274.03-.412.03h-.411a8.06 8.06 0 01-.411-.014c-.137 0-.274-.015-.411-.023-.137-.015-.274-.038-.411-.053a44.269 44.269 0 01-.404-.068c-.137-.03-.274-.053-.403-.091a25.641 25.641 0 01-.396-.114 22.44 22.44 0 01-.396-.136c-.129-.053-.259-.114-.381-.167a5.92 5.92 0 01-.731-.401 3.544 3.544 0 01-.335-.25 3.718 3.718 0 01-.319-.266 5.324 5.324 0 01-.305-.287c-.091-.091-.183-.182-.274-.28-.084-.1-.175-.19-.259-.296-.084-.099-.16-.205-.236-.31a5.135 5.135 0 01-.221-.327c-.068-.106-.137-.22-.205-.333a7.136 7.136 0 01-.175-.348c-.054-.121-.107-.235-.153-.364a3.758 3.758 0 01-.114-.371c-.03-.129-.053-.258-.084-.379-.03-.129-.076-.25-.099-.371-.03-.129-.06-.25-.083-.379-.031-.129-.046-.258-.076-.379-.023-.129-.054-.257-.077-.379-.022-.128-.038-.257-.061-.378-.022-.137-.053-.258-.076-.38-.022-.136-.03-.264-.045-.378m-.115-2.5v-.401c0-.137.023-.266.023-.402s0-.273.016-.401c.007-.137.022-.266.038-.402.007-.136.022-.265.03-.394.015-.136.015-.265.031-.394l.045-.394c.015-.136.038-.265.053-.394l.069-.416c.023-.144.038-.28.069-.417.022-.136.053-.28.076-.41.03-.136.053-.28.083-.408.031-.137.061-.28.099-.41.038-.136.092-.272.13-.4.046-.137.076-.274.122-.402.045-.137.106-.266.16-.394a2.9 2.9 0 01.175-.387c.068-.128.137-.25.205-.37.076-.122.16-.236.244-.342.091-.113.183-.22.274-.318a2.793 2.793 0 01.685-.477 2.462 2.462 0 01.807-.205h.191a2.343 2.343 0 01.791.144c.122.053.244.106.358.182.107.076.206.167.305.273.084.098.175.197.251.318.069.106.13.227.19.356a3.506 3.506 0 01.297.727c.038.114.061.243.092.364.03.113.068.235.091.363l.069.372.068.37c.015.122.046.243.061.372.015.121.023.25.038.379l.046.432.045.431c.008.145.008.288.016.432.007.137.015.28 0 .417a2.7 2.7 0 01-.229.795c-.061.13-.137.243-.213.357a2.637 2.637 0 01-.259.325 3.396 3.396 0 01-.647.523c-.122.076-.236.152-.365.205-.13.053-.259.098-.396.136a2.35 2.35 0 01-.411.09c-.191.024-.191.016-.381.039-.19.03-.19.038-.381.06-.19.03-.19.023-.38.053-.191.023-.191.016-.389.046-.19.023-.19.023-.38.053l-.381.06c-.191.03-.191.03-.381.053-.19.03-.19.023-.388.053l-.388.061a.34.34 0 01-.252-.083.311.311 0 01-.106-.235m25.78-40.704l.404-.03c.198-.016.198-.016.403-.03l.404-.031c.198-.015.198 0 .403-.023l.404-.03c.198-.015.205-.008.403-.023l.404-.03c.198-.016.198-.016.403-.03.198-.016.198-.016.404-.03.198-.016.205-.008.403-.024l.404-.03c.198-.015.198-.023.403-.038.198-.015.198-.007.404-.022.205-.016.205-.008.403-.023.198-.015.198-.023.404-.038l.403-.03c.198-.016.206 0 .404-.016.198-.015.198-.022.403-.037.198-.016.206 0 .404-.016l.404-.03c.198-.015.198-.023.403-.038.206-.015.206-.007.404-.022.198-.016.205-.008.403-.023.198-.015.198-.023.404-.03.198-.016.198-.016.403-.03l.404-.031c.198-.015.205 0 .403-.023l.404-.03.403-.03.404-.03c.198-.016.198-.016.403-.024l.404-.03.403-.03c.206-.015.206 0 .404-.023.205-.015.205-.023.403-.03.206-.015.206 0 .404-.015a.727.727 0 00.35-.13.693.693 0 00.251-.264.63.63 0 00.084-.356c0-.13-.015-.258-.023-.394-.007-.13-.03-.258-.045-.387-.016-.128-.023-.257-.038-.386-.016-.129-.046-.258-.069-.386-.023-.13-.03-.258-.061-.387-.03-.129-.068-.25-.099-.379l-.091-.378c-.038-.13-.076-.25-.114-.372-.038-.12-.084-.25-.122-.37a8.018 8.018 0 00-.152-.364c-.054-.13-.099-.266-.16-.387a5.492 5.492 0 00-.191-.37 8.14 8.14 0 00-.198-.365 5.34 5.34 0 00-.213-.356c-.076-.12-.152-.234-.228-.348-.076-.114-.168-.227-.251-.333-.084-.114-.168-.228-.252-.334a9.92 9.92 0 00-.274-.31c-.091-.099-.198-.197-.297-.296-.099-.098-.198-.197-.304-.288-.099-.09-.191-.182-.297-.265-.099-.083-.213-.159-.32-.242-.107-.084-.206-.167-.32-.243-.106-.075-.221-.151-.327-.227l-.343-.205c-.114-.068-.228-.128-.35-.197-.114-.06-.236-.128-.358-.181-.122-.06-.244-.099-.365-.16l-.366-.159c-.122-.053-.251-.098-.373-.143-.122-.046-.251-.084-.381-.13-.121-.037-.251-.083-.38-.113-.13-.038-.251-.076-.381-.106l-.388-.09c-.13-.031-.259-.039-.389-.061l-.388-.069c-.129-.015-.259-.038-.396-.053a58.04 58.04 0 00-.396-.045c-.129-.008-.266 0-.396-.015-.129 0-.258-.023-.395-.023h-.792c-.13 0-.267.008-.396.015-.13 0-.267.015-.396.023l-.411.023-.411.045c-.137.015-.275.03-.412.053-.137.015-.274.046-.411.068-.137.023-.274.038-.411.06-.137.024-.274.061-.403.092-.137.03-.274.053-.404.083a6.57 6.57 0 00-.403.099c-.137.037-.267.083-.396.113a5.966 5.966 0 00-.396.121c-.13.038-.267.084-.396.122l-.396.136c-.129.045-.259.106-.388.16-.13.052-.259.105-.381.158-.129.053-.251.114-.373.174l-.366.182c-.121.06-.251.114-.365.175-.122.068-.236.143-.35.212-.122.068-.244.128-.358.204a8.665 8.665 0 01-.343.22c-.114.076-.228.151-.335.227a5.463 5.463 0 00-.335.235c-.114.083-.213.167-.32.25-.106.083-.22.167-.319.25-.107.09-.206.182-.305.265-.099.091-.205.182-.304.273-.099.09-.191.19-.29.288l-.281.28c-.092.099-.183.19-.274.296-.084.098-.176.204-.259.303-.084.106-.16.212-.244.318-.084.106-.16.212-.244.318-.076.106-.152.22-.228.326-.076.106-.152.22-.228.325-.069.114-.13.235-.198.349-.069.114-.13.227-.198.348-.061.114-.137.228-.198.349a7.362 7.362 0 00-.168.364c-.061.12-.122.234-.175.356-.053.12-.107.242-.152.37-.046.122-.084.243-.13.364-.045.122-.099.243-.137.364-.038.121-.076.242-.114.371-.038.121-.068.25-.099.371-.03.122-.076.25-.106.372-.031.128-.046.257-.077.378a7.25 7.25 0 00-.076.38c-.023.128-.038.257-.061.386-.022.128-.045.257-.061.386l-.045.386c-.015.13-.031.258-.038.387-.008.129-.023.257-.031.386v.386c0 .13-.015.258-.015.387 0 .136.008.272.015.416 0 .137 0 .28.008.417 0 .136.023.273.038.417.015.136.023.272.038.409.015.136.023.28.046.409.023.136.038.273.068.41.023.136.053.272.084.408.03.136.061.273.099.402.038.136.068.265.107.401.038.129.083.265.129.394s.084.265.129.394c.046.129.107.25.16.379.054.129.107.258.168.379.061.128.106.257.175.378.061.122.137.243.205.364.069.121.13.242.198.364.077.12.145.235.229.348.076.114.167.22.251.334.084.113.168.227.251.333.084.106.175.22.267.326.091.106.19.204.282.303.098.098.19.204.289.303.099.098.205.181.312.28.099.083.198.174.297.258.099.083.205.166.304.242.107.076.214.16.32.227.107.076.213.152.328.227.114.069.22.137.335.205.114.068.236.121.35.182.114.06.228.129.342.19.115.06.244.105.358.158.122.053.236.114.358.16.122.052.244.098.366.151.121.046.243.09.373.136.122.046.251.076.373.122.129.038.266.083.403.12.137.039.267.069.404.107l.411.09c.137.031.274.054.411.076.137.023.274.046.419.061.137.015.274.038.419.053l.418.046c.137.007.282.022.419.03h.419c.137 0 .282.015.419.015h.411c.137 0 .274-.008.411-.015.137 0 .274-.015.411-.023.137-.007.274-.023.411-.038.137-.015.274-.022.411-.038.137-.015.274-.038.404-.053l.403-.045c.137-.023.274-.045.404-.068.137-.023.274-.046.403-.076.137-.023.267-.053.404-.076.137-.03.266-.053.403-.083.138-.03.267-.068.396-.106l.396-.114.389-.113.38-.137c.13-.045.252-.09.381-.136.122-.046.244-.106.365-.16.122-.052.252-.105.366-.158.122-.053.251-.106.365-.16.122-.06.236-.128.351-.196.121-.061.236-.122.357-.182l.343-.205c.122-.075.251-.144.366-.22.121-.075.228-.166.35-.25.114-.083.243-.151.358-.242.114-.083.22-.182.335-.265.114-.09.228-.174.335-.265.106-.091.213-.19.319-.28.107-.099.214-.19.313-.288.106-.099.197-.205.296-.311l.275-.273c.083-.09.167-.197.251-.295.084-.099.175-.19.259-.288.083-.098.16-.197.243-.296.084-.098.16-.197.244-.302l.236-.303c.076-.107.152-.205.228-.311.077-.106.145-.212.214-.318.076-.106.152-.205.22-.319a.205.205 0 00-.061-.28c-.06-.045-.068-.045-.129-.09a.643.643 0 00-.396-.137.724.724 0 00-.403.129c-.092.06-.191.113-.29.181a9.12 9.12 0 01-.289.182 9.12 9.12 0 01-.289.182c-.115.068-.236.129-.358.197-.114.06-.236.129-.358.182l-.366.182c-.121.053-.251.106-.38.159-.114.045-.236.083-.358.129a4.831 4.831 0 01-.358.12c-.114.039-.236.084-.358.122-.122.038-.243.068-.365.106-.122.03-.244.053-.366.084-.137.03-.266.075-.411.105-.137.03-.274.038-.419.061-.137.023-.274.046-.418.06-.137.016-.274.046-.419.061-.137.016-.282.016-.426.03-.137.008-.275.023-.412.03-.137 0-.274.008-.411 0-.137 0-.274-.014-.411-.022-.137 0-.274-.015-.411-.03l-.411-.046c-.137-.022-.274-.037-.411-.068a5.965 5.965 0 01-.396-.098 3.347 3.347 0 01-.396-.106c-.13-.046-.267-.091-.396-.144-.129-.053-.251-.114-.381-.175a4.156 4.156 0 01-.365-.189c-.122-.068-.244-.136-.358-.212-.114-.076-.236-.152-.343-.235-.114-.083-.213-.174-.319-.265a3.561 3.561 0 01-.305-.288 3.065 3.065 0 01-.266-.288 4.515 4.515 0 01-.236-.31c-.077-.099-.16-.205-.229-.31-.076-.107-.145-.22-.213-.327-.069-.106-.129-.22-.198-.34a14.615 14.615 0 01-.183-.35c-.053-.113-.106-.234-.16-.355a6.855 6.855 0 01-.144-.364c-.046-.113-.099-.235-.137-.356-.038-.121-.069-.242-.107-.371a5.02 5.02 0 01-.106-.371c-.031-.121-.054-.25-.084-.371a6.19 6.19 0 01-.084-.372c-.023-.12-.03-.25-.053-.378-.016-.13-.054-.25-.069-.38-.015-.128-.023-.25-.038-.378-.114-1.106.761-.977.761-.977m-.791-1.515V9.75c0-.136.015-.265.022-.402 0-.136.016-.265.023-.401l.023-.402c.008-.136.008-.265.023-.401l.046-.394c.015-.136.023-.265.038-.394.015-.136.045-.265.061-.394.023-.144.03-.28.045-.417.023-.143.054-.28.077-.416.022-.144.053-.28.076-.417l.091-.409c.03-.136.061-.28.091-.41.038-.135.084-.272.13-.4.045-.137.084-.273.129-.402a4.96 4.96 0 01.335-.773c.069-.129.137-.25.213-.363.077-.122.153-.243.236-.349.092-.114.191-.212.29-.31.099-.099.205-.19.32-.273a1.896 1.896 0 01.753-.356c.13-.03.274-.046.411-.053.061 0 .13-.016.191-.016.137 0 .274.023.403.046.137.023.267.06.389.114.121.053.243.113.357.189a2.003 2.003 0 01.549.598c.068.107.144.22.213.349.053.114.106.242.16.379.045.113.083.227.122.356.038.113.076.235.106.363.031.114.061.243.084.364.023.121.046.242.068.371.023.121.038.243.061.371.016.122.046.243.061.372.015.12.023.25.038.378.016.137.031.28.038.432.016.144.023.288.031.432.007.144.03.288.038.432.007.136 0 .28-.023.417a2.556 2.556 0 01-.076.409 2.381 2.381 0 01-.152.386 2.634 2.634 0 01-.465.69c-.091.106-.198.189-.312.28a2.493 2.493 0 01-.708.44c-.129.052-.259.113-.388.15-.13.039-.274.061-.411.076-.191.023-.191.038-.381.061-.191.03-.191.015-.388.045-.191.03-.191.023-.381.053-.191.023-.191.038-.381.061-.19.03-.19.023-.381.053l-.388.046c-.19.03-.19.022-.388.045-.19.023-.19.03-.388.053s-.191.03-.389.053c-.091.008-.182-.008-.251-.076a.28.28 0 01-.091-.234z"/></g><defs><clipPath id="clip0_4110_2713"><path fill="#fff" d="M0 0h152v73H0z"/></clipPath></defs></svg>