<svg width="251" height="120" fill="none" xmlns="http://www.w3.org/2000/svg"><g clip-path="url(#clip0_2036_3749)" fill="#fff"><path d="M97.18 73.599c.164.124.327.25.503.361.175.112.35.212.526.312.176.1.364.186.552.261.189.087.377.162.578.224.188.062.388.137.589.187.213.062.427.112.652.15.214.05.439.087.665.112.213.024.439.05.665.062h.665c.276 0 .539 0 .828-.025.238-.013.476-.05.715-.075.238-.025.477-.062.715-.112s.477-.1.702-.162c.239-.062.464-.124.69-.2.226-.074.452-.161.678-.248.2-.087.401-.174.602-.274.201-.1.401-.2.589-.299.189-.112.377-.237.552-.349.189-.124.364-.249.54-.373.175-.137.351-.274.502-.411.15-.137.301-.287.451-.436.138-.15.276-.311.402-.473.125-.162.25-.324.376-.499.113-.174.226-.348.326-.522.1-.175.201-.362.289-.549.087-.199.163-.398.238-.597.075-.2.125-.411.175-.61.051-.212.101-.411.126-.623.038-.212.063-.424.075-.635.013-.212.038-.424.038-.635 0-.212 0-.411-.025-.61-.013-.2-.05-.4-.076-.598a7.31 7.31 0 00-.138-.586c-.05-.199-.1-.398-.175-.585-.075-.187-.163-.373-.251-.56a6.595 6.595 0 00-.364-.648 5.262 5.262 0 00-.439-.598 4.996 4.996 0 00-.502-.535 6.453 6.453 0 00-.552-.486c-.163-.124-.326-.261-.501-.373a7.826 7.826 0 00-.54-.324c-.175-.1-.376-.187-.564-.274a6.466 6.466 0 00-.59-.25 11.387 11.387 0 00-.602-.199 11.231 11.231 0 00-.69-.161 6.366 6.366 0 00-.702-.113c-.226-.024-.465-.05-.703-.062-.238 0-.477-.025-.715-.025s-.477.013-.715.038c-.238.012-.477.037-.715.062s-.477.075-.702.112c-.239.05-.477.1-.703.15a10.87 10.87 0 00-.69.199 6.151 6.151 0 00-.665.261c-.2.087-.401.175-.59.274-.2.1-.388.2-.576.312a8.06 8.06 0 00-.552.348c-.176.125-.352.25-.527.386a5.412 5.412 0 00-.49.424c-.15.15-.3.299-.438.448-.138.15-.276.311-.402.473a7.334 7.334 0 00-.351.51c-.113.175-.226.35-.326.536-.1.187-.2.362-.289.548a4.704 4.704 0 00-.225.586 5.277 5.277 0 00-.189.597c-.05.2-.1.411-.138.61-.037.2-.05.412-.075.623-.013.212-.038.411-.038.623 0 .212 0 .423.025.623.013.211.038.423.076.622.037.212.075.411.125.61.05.2.113.399.188.598.076.2.15.386.251.573.113.224.226.436.364.635.126.212.276.399.427.598.15.187.313.374.489.548.175.174.364.324.552.473"/><path d="M160.944 75.467c-.214-.2-.214-.523-.126-.76.088-.236.301-.473.602-.498.264 0 .527.063.803.038.264-.013.527-.088.79-.112l.665-.038c.226-.012.452.038.678.013.225-.025.451-.038.664-.063.226-.025.44-.087.665-.112.226-.025.439-.062.665-.087.226-.025.452-.037.665-.075.226-.037.439-.1.652-.137.226-.037.452-.024.665-.062.226-.037.427-.174.64-.212.213-.05.439-.062.652-.112.213-.05.452 0 .678-.062.213-.05.414-.2.627-.249.213-.05.451-.025.665-.087.213-.063.426-.112.639-.175.214-.062.402-.211.615-.286.213-.062.427-.112.64-.187.213-.075.439-.1.64-.174.213-.075.401-.2.614-.287.214-.074.439-.087.653-.174.2-.087.376-.249.577-.336.2-.087.414-.162.614-.25.201-.086.414-.174.602-.273.201-.1.389-.212.59-.311.201-.1.414-.175.602-.287.188-.112.389-.212.577-.324.188-.112.326-.311.515-.423.188-.125.413-.174.602-.299.188-.124.313-.324.489-.448.176-.125.376-.237.552-.374.175-.137.364-.261.527-.398.175-.137.338-.287.501-.424.176-.15.314-.324.477-.473.163-.15.339-.274.502-.436.163-.162.314-.311.464-.473a8.31 8.31 0 00.439-.498c.151-.162.289-.337.427-.51.138-.175.276-.35.401-.524.138-.174.276-.349.401-.523.126-.187.264-.349.389-.535.113-.187.251-.362.364-.56.113-.188.138-.424.238-.623.101-.2.239-.374.339-.573.088-.2.201-.399.276-.598.088-.2.163-.411.238-.623.076-.212.151-.41.214-.622.062-.212.075-.436.138-.648.05-.212.138-.423.188-.635.038-.212.038-.436.063-.66.037-.212.125-.424.15-.648.025-.211-.012-.448 0-.66.013-.212.038-.436.05-.66 0-.224.05-.436.05-.66 0-.224.051-.423.038-.623 0-.211-.063-.423-.075-.622-.013-.212-.05-.411-.075-.623-.025-.212 0-.423-.038-.635-.038-.212-.1-.41-.151-.61a.427.427 0 01.101-.361c.1-.125.2-.262.351-.274.326-.025.326 0 .652-.025s.326.05.665.025c.326-.025.326-.125.652-.15.327-.025.327.038.653.013s.326-.038.652-.063c.326-.024.326.038.652.013.327-.025.327-.125.653-.15.326-.024.338.088.665.075.326-.025.326-.087.652-.112.326-.025.326.013.665 0l.652-.05c.326-.025.326 0 .652-.012.326-.025.326-.1.653-.125.326-.024.338.038.664.025.327-.025.327-.112.653-.124.326-.025.326 0 .652-.013.326-.025.326-.05.652-.062.327-.025.327 0 .653-.037.326-.025.326 0 .652-.025s.326 0 .652-.025.326-.05.653-.075c.326-.025.338.05.664.025.327-.025.327-.1.653-.124.326-.025.326-.05.652-.075.326-.025.326.025.665 0 .326-.025.326-.063.652-.087.326-.025.339.037.665.012.326-.025.326 0 .652-.025.327-.025.327-.062.653-.075.326-.025.338.013.665 0 .326-.025.326-.037.664-.062.339-.025.326-.087.653-.112a.719.719 0 00.476-.2c.126-.136.251-.286.251-.485 0-.012-.012-.012-.012-.037 0-.162-.101-.287-.201-.424a16.514 16.514 0 00-.364-.473c-.188-.236-.1-.299-.288-.535-.176-.237-.276-.175-.452-.411-.188-.237-.1-.3-.276-.548-.138-.175-.263-.361-.389-.536-.125-.187-.338-.324-.451-.51-.113-.187-.176-.424-.276-.61-.113-.2-.264-.374-.364-.573-.1-.2-.201-.399-.289-.61-.087-.212-.1-.436-.175-.648-.076-.212-.138-.424-.214-.635-.075-.212-.137-.424-.2-.635-.05-.212-.126-.424-.176-.648-.037-.224-.037-.448-.063-.672-.037-.225-.138-.436-.163-.648-.025-.224-.012-.448-.025-.672 0-.225.05-.449.05-.673 0-.324.026-.324.026-.66s-.051-.324-.051-.648c0-.323-.037-.323-.037-.66 0-.336.025-.323.025-.66 0-.336-.025-.323-.025-.66 0-.336-.038-.323-.038-.66 0-.336.088-.324.088-.66v-1.98c0-.336-.025-.324-.025-.66s.05-.324.05-.66v-.66c0-.336-.088-.324-.088-.66s.05-.324.05-.66-.037-.324-.037-.66.037-.324.037-.66-.062-.324-.062-.66.1-.324.1-.66-.113-.324-.113-.66.013-.324.013-.66.062-.324.062-.66v-.66c0-.336-.075-.324-.075-.66s.05-.324.05-.66.05-.324.05-.66v-.66c0-.336-.012-.336-.012-.66s-.038-.336-.038-.66.05-.324.05-.66-.025-.324-.025-.66c0-.337.025-.324.025-.66v-1.32c0-.2-.1-.411-.238-.548-.15-.137-.125-.162-.276-.3-.088-.086-.251-.111-.364-.074-.326.087-.301.162-.627.25-.326.086-.339.037-.652.124-.326.087-.339.05-.652.137-.327.087-.302.15-.628.236-.326.087-.313.125-.627.212-.326.087-.339.012-.665.1-.326.087-.301.161-.627.249-.326.087-.339 0-.665.087s-.326.1-.64.187c-.326.087-.313.137-.627.224-.326.087-.339.05-.652.137-.326.087-.339.05-.652.137-.327.087-.301.15-.628.236-.326.088-.313.113-.639.2-.327.087-.314.124-.64.211s-.339.025-.665.112c-.326.088-.326.088-.64.175-.326.087-.313.112-.64.199-.326.087-.313.112-.639.2-.326.086-.326.074-.653.161-.326.087-.313.112-.639.2-.326.087-.327.1-.64.186-.326.087-.339.025-.665.112s-.314.125-.64.212-.326.075-.652.15c-.326.087-.339.024-.665.124-.326.087-.288.2-.615.286-.326.088-.351 0-.677.075-.326.087-.477.424-.477.747 0 .075-.075.075-.075.162 0 .187.063.411.188.548.163.162.326.324.464.486.151.174.289.349.427.535.138.187.314.337.439.523.125.187.238.386.339.586.113.199.175.423.263.622.1.2.238.386.314.61.075.212.163.424.226.636.062.211.05.448.112.672.063.212.151.424.201.648.05.211.1.436.138.66.038.224.1.436.126.672.025.224-.013.449 0 .685.025.224.125.436.138.673.012.224 0 .448 0 .685 0 .224-.026.448-.026.684 0 .324.038.324.038.66 0 .337-.025.337-.025.66v1.32c0 .324-.013.337-.013.66v.66c0 .324-.037.337-.037.66 0 .325.025.337.025.66 0 .325.025.337.025.66 0 .325-.063.337-.063.66 0 .325-.025.337-.025.66v.673c0 .337.038.337.038.673 0 .211.025.436.012.647 0 .212-.075.436-.087.635-.013.212-.051.424-.076.636-.025.211-.037.435-.062.635-.038.211-.088.423-.138.635-.051.212-.051.436-.101.635-.05.212-.113.423-.175.623-.063.211-.189.398-.264.585-.075.212-.05.448-.138.635-.088.212-.175.41-.263.598-.101.199-.226.386-.314.56-.1.2-.201.386-.313.56-.126.2-.302.337-.402.499-.15.224-.339.41-.577.41-.238 0-.452-.174-.602-.398-.113-.162-.226-.336-.351-.498-.126-.162-.276-.299-.414-.448-.126-.15-.276-.287-.414-.436-.138-.15-.239-.324-.389-.461-.151-.137-.351-.212-.502-.349-.175-.15-.351-.274-.527-.41-.175-.138-.301-.337-.489-.474-.188-.124-.389-.212-.59-.336-.188-.112-.401-.187-.602-.286-.2-.1-.389-.225-.589-.312-.201-.1-.377-.236-.59-.324-.201-.087-.414-.186-.627-.261-.213-.075-.439-.087-.652-.15-.214-.062-.427-.137-.64-.186-.213-.05-.452-.038-.665-.075-.213-.038-.439-.1-.652-.137-.214-.037-.439-.112-.665-.137-.226-.025-.452-.012-.665-.025-.226-.012-.439-.075-.665-.087h-.677c-.226 0-.452 0-.678.012-.225 0-.451.025-.677.038-.213.012-.439.012-.652.037-.214.025-.427.125-.64.15-.213.024-.427.05-.652.087-.214.037-.427.062-.64.1l-.64.111c-.213.05-.426.087-.64.137-.213.05-.414.112-.627.162-.213.05-.414.112-.627.175-.201.062-.414.112-.64.186-.201.063-.414.125-.64.2-.2.074-.414.15-.627.224-.201.075-.426.124-.64.212-.2.074-.401.174-.614.248-.201.075-.402.175-.615.262-.201.075-.439.1-.64.187-.2.087-.389.224-.589.311-.201.087-.389.224-.59.312-.201.087-.439.112-.64.199-.2.087-.426.137-.639.224-.239.1-.201.2-.439.299-.214.087-.452.1-.653.187-.213.087-.401.236-.602.323-.213.088-.426.175-.627.262-.213.087-.414.2-.615.274-.213.087-.426.174-.627.261-.213.088-.426.175-.627.25-.226.087-.439.136-.652.211-.226.075-.452.125-.653.187-.226.062-.439.162-.64.212-.238.062-.476.062-.677.1-.251.05-.464.124-.665.136-.226.013-.439-.087-.652-.087-.226 0-.439 0-.64-.025a4.639 4.639 0 01-.627-.124c-.213-.05-.439-.063-.627-.15-.201-.087-.402-.174-.577-.299-.176-.124-.326-.286-.477-.435a3.762 3.762 0 01-.426-.474c-.038-.062-.113-.124-.138-.186-.076-.212-.051-.449-.088-.648-.05-.224-.113-.424-.113-.635 0-.224.025-.436.075-.648.05-.212.113-.41.213-.61.088-.187.163-.398.301-.585.126-.162.352-.262.515-.424.15-.15.251-.36.439-.485a4.07 4.07 0 01.552-.35c.188-.099.389-.186.589-.273a4.46 4.46 0 01.615-.224c.201-.063.414-.125.627-.187a.525.525 0 01.276.025c.201.05.389.174.59.224.2.05.414.1.614.137.201.05.427.025.628.075.2.037.401.124.614.162.201.037.414.062.628.087.213.037.426.05.627.075.213.025.414.087.614.112.214.024.414.112.615.124.213.025.439-.037.652-.025.214.013.427.087.64.1.213.012.439-.038.652-.038.214 0 .427.025.653.038.213 0 .426.062.652.062.213 0 .427 0 .652-.012.214 0 .427-.05.653-.063.213 0 .439.025.652 0 .226-.012.439-.062.665-.074.226-.013.439-.05.665-.063.225-.025.451 0 .665-.012.225-.025.439-.037.664-.075.226-.025.439-.1.653-.137.225-.037.426-.112.652-.15.213-.036.452.013.665-.024.226-.037.426-.162.64-.2.213-.05.426-.124.639-.174.214-.05.439-.087.653-.137.213-.05.439-.087.652-.15.213-.061.414-.149.627-.21.213-.063.414-.138.627-.212.214-.075.439-.075.653-.15.213-.075.401-.2.602-.274.201-.075.414-.15.614-.236.201-.088.414-.175.615-.262.201-.087.439-.1.64-.187.201-.1.389-.211.59-.311.2-.1.388-.212.589-.311.201-.1.364-.25.565-.362.188-.112.388-.211.577-.323.188-.113.388-.212.577-.324.188-.125.338-.287.514-.424.176-.124.326-.298.502-.435.175-.138.364-.262.527-.399.175-.137.326-.299.489-.436.163-.15.364-.261.527-.41.163-.15.363-.262.514-.424l.452-.486c.15-.162.276-.349.414-.51.138-.175.238-.374.376-.548.138-.175.263-.35.389-.536.125-.187.226-.373.338-.56.113-.187.289-.337.402-.536.1-.187.163-.41.251-.61.1-.2.163-.411.251-.61.087-.2.2-.399.276-.598.075-.2.188-.399.251-.61.062-.212.05-.436.1-.66.05-.212.201-.411.238-.623.038-.212.063-.436.088-.66.038-.212.025-.436.05-.66.025-.212 0-.436.013-.66 0-.224.025-.436.025-.66v-1.295c-.025-.212-.025-.436-.063-.648-.025-.211-.138-.423-.188-.635-.038-.212-.075-.423-.125-.635-.051-.212-.164-.41-.226-.61-.063-.212-.113-.424-.188-.623-.076-.2-.164-.398-.251-.598-.088-.199-.113-.423-.201-.622-.1-.187-.263-.349-.364-.536-.1-.187-.188-.398-.313-.573-.113-.174-.276-.336-.414-.51-.126-.175-.239-.361-.377-.536-.138-.162-.226-.373-.376-.535-.151-.174-.376-.262-.552-.436-.163-.162-.263-.386-.439-.535-.176-.15-.414-.212-.602-.362-.176-.15-.326-.323-.515-.46-.188-.137-.363-.274-.564-.399a9.19 9.19 0 00-.59-.361c-.2-.112-.426-.175-.627-.287-.15-.074-.163-.261-.175-.336-.026-.15.037-.299.163-.423.238-.25.263-.212.501-.461.239-.249.201-.286.439-.523.239-.25.251-.224.49-.473.238-.237.188-.287.426-.536.239-.236.213-.261.452-.498.238-.249.288-.2.527-.436.238-.249.225-.261.464-.51.238-.25.276-.2.514-.449s.163-.323.402-.56c.15-.125.326-.212.464-.299.163-.1.338-.187.501-.236.302-.088.628.024.966.112.138.037.339.062.602.236.151.1.314.237.515.399.15.124.339.249.514.41l.464.461c.138.15.264.337.427.511.138.15.226.324.364.46.138.138.351.2.489.337l.439.399c.063.05.1.124.15.174.138.124.289.224.439.336.176.137.327.311.515.424.188.112.389.199.602.298.213.1.376.225.589.312.201.087.439.1.653.162.213.062.401.186.627.249.226.062.452.124.677.174.226.05.465.1.69.125.239.025.477.05.703.062.238.012.476 0 .702 0 .239 0 .464-.087.703-.1.226-.012.451.013.665-.025.225-.037.439-.062.652-.112.213-.05.426-.112.64-.174a9.04 9.04 0 00.627-.212c.213-.074.414-.15.615-.249.2-.087.363-.237.552-.336.188-.1.413-.15.589-.274.176-.112.351-.25.527-.386.176-.137.314-.287.477-.436.163-.137.326-.286.476-.436.151-.162.339-.299.49-.473.138-.175.213-.399.351-.585.125-.187.313-.337.426-.524.113-.186.201-.398.301-.597.101-.2.126-.436.201-.648.088-.199.238-.36.301-.56.063-.2.063-.424.113-.623.05-.212.138-.398.176-.61.025-.212.05-.423.062-.623v-.635c0-.249-.037-.486-.075-.722a6.739 6.739 0 00-.15-.71 6.443 6.443 0 00-.214-.697c-.087-.225-.301-.399-.414-.61-.1-.175-.175-.362-.276-.524-.113-.162-.188-.36-.313-.523-.126-.15-.264-.299-.402-.448-.138-.15-.313-.249-.476-.386-.151-.137-.301-.274-.464-.399a8.858 8.858 0 00-.552-.386c-.189-.112-.364-.261-.577-.36-.201-.1-.414-.175-.628-.262-.2-.087-.439-.125-.652-.187-.213-.075-.426-.125-.652-.187-.188-.05-.389-.087-.577-.124-.201-.038-.377-.162-.577-.187-.201-.025-.402-.05-.59-.062-.201-.013-.401 0-.602 0-.226 0-.439.087-.665.1-.226 0-.452-.088-.665-.063-.226.025-.426.124-.652.15-.226.024-.452-.013-.665.024-.213.038-.439.1-.652.15-.213.05-.414.15-.64.211-.213.063-.414.15-.627.212-.213.062-.439.075-.652.137a8.676 8.676 0 00-.615.25c-.201.086-.389.223-.59.31-.2.088-.439.1-.64.187-.2.087-.401.175-.602.274-.2.1-.363.25-.564.361-.201.113-.376.25-.565.362-.188.112-.389.211-.577.323-.188.112-.414.187-.589.3-.188.124-.339.286-.527.41-.188.125-.402.2-.59.324-.188.125-.351.274-.527.41-.175.138-.376.25-.539.387-.176.137-.364.262-.539.399-.176.136-.289.348-.452.485-.176.15-.326.312-.489.449-.176.149-.339.286-.502.435-.176.15-.339.3-.489.449-.176.162-.351.286-.502.436-.176.161-.351.298-.489.435-.176.175-.326.337-.452.474-.2.211-.376.36-.464.473-.012.025.038.1.025.112-.163.137-.351.286-.527.436-.163.137-.401.212-.589.361-.176.137-.301.349-.49.486-.175.137-.413.211-.602.348-.188.137-.363.274-.564.399-.188.124-.339.324-.527.448-.201.125-.452.15-.64.262-.2.112-.389.249-.589.36-.201.113-.427.175-.64.275-.213.1-.414.199-.627.286-.214.087-.427.2-.64.262-.226.062-.452.1-.677.137-.239.037-.465.1-.678.1-.238 0-.477.037-.69 0-.213-.026-.414-.138-.627-.15-.213-.025-.439.012-.652 0-.214-.012-.439 0-.653 0-.213 0-.426-.125-.639-.137-.201 0-.402.075-.603.075-.2 0-.401-.038-.602-.038-.2 0-.401-.025-.602-.025-.2 0-.401.075-.602.088-.226.012-.451-.013-.665 0-.226.012-.451 0-.677.025-.226.024-.439.062-.665.1a61.36 61.36 0 00-.665.074c-.226.025-.426.124-.652.162-.226.037-.452.037-.665.074-.213.038-.439.063-.652.1-.226.05-.427.125-.64.174-.213.05-.452.038-.665.088-.213.05-.426.149-.64.199-.213.062-.439.1-.652.15-.213.062-.401.186-.615.26-.213.063-.426.113-.639.175-.214.075-.427.137-.628.212-.213.075-.426.124-.639.211-.214.088-.427.15-.628.225-.2.087-.376.236-.577.323-.2.088-.401.187-.602.287-.2.1-.439.124-.627.224-.201.1-.401.2-.59.299-.188.112-.338.299-.526.423a12.69 12.69 0 00-.565.349c-.188.125-.376.237-.564.361-.189.125-.339.287-.515.411-.175.137-.376.237-.552.374-.175.137-.401.236-.564.386-.176.15-.339.311-.514.46-.176.15-.302.35-.465.499-.163.162-.326.323-.476.485a9.198 9.198 0 00-.477.498c-.151.175-.326.324-.464.499a9.341 9.341 0 00-.402.56c-.138.187-.276.361-.401.548-.125.187-.188.423-.301.61-.113.2-.263.374-.376.573-.101.2-.264.374-.364.585-.101.212-.101.449-.188.66a.565.565 0 01-.464.35c-.088 0-.327 0-.452-.213-.125-.186-.238-.373-.376-.56-.126-.187-.189-.423-.327-.598-.138-.187-.301-.336-.439-.51-.138-.175-.301-.337-.451-.511-.151-.174-.326-.311-.477-.486-.15-.162-.263-.373-.426-.535-.163-.162-.339-.312-.502-.46-.163-.15-.376-.25-.552-.4a15.76 15.76 0 00-.527-.423c-.176-.137-.314-.311-.489-.448-.176-.125-.364-.25-.54-.386-.175-.125-.338-.287-.526-.411-.189-.125-.364-.25-.552-.361-.189-.112-.427-.137-.628-.25-.188-.111-.388-.211-.577-.31-.2-.1-.401-.188-.602-.275-.2-.087-.351-.274-.564-.36-.201-.088-.439-.113-.64-.2-.201-.087-.414-.162-.615-.25a33.88 33.88 0 00-.627-.223c-.213-.075-.426-.125-.64-.187-.213-.062-.414-.15-.627-.212-.201-.062-.401-.174-.602-.224-.201-.05-.439-.012-.652-.062-.214-.05-.414-.112-.628-.162-.213-.037-.414-.075-.627-.112-.213-.038-.414-.1-.627-.137-.213-.025-.426 0-.64-.025-.213-.025-.414-.15-.627-.174-.213-.025-.439.062-.652.037-.214-.013-.427-.062-.64-.075-.213 0-.427-.087-.64-.1-.213 0-.426.026-.64.013h-.652c-.213 0-.426.025-.64.037-.213 0-.426 0-.639.025-.214 0-.427.013-.64.038-.213.012-.439.012-.652.037-.214.025-.439 0-.653.025-.213.025-.426.087-.64.112-.213.025-.426.062-.652.087-.213.037-.439.037-.652.075-.213.037-.427.087-.64.124-.213.038-.401.175-.615.225-.213.05-.439.025-.652.074-.213.05-.401.162-.615.224-.213.05-.413.125-.627.187-.213.063-.439.05-.639.125-.201.062-.402.162-.603.236-.2.075-.426.1-.627.175-.201.075-.376.224-.577.299-.201.074-.426.1-.627.186-.201.088-.414.15-.602.237-.201.087-.389.2-.577.299-.201.1-.351.262-.54.361-.188.1-.389.187-.577.287-.188.1-.389.186-.577.286-.188.112-.414.162-.589.274-.188.112-.364.236-.54.349-.188.112-.326.286-.501.41-.176.125-.402.175-.578.3-.175.124-.276.348-.451.473-.176.124-.376.211-.54.348-.175.137-.338.262-.501.411-.163.137-.339.262-.502.411-.163.137-.301.312-.464.449-.163.149-.314.31-.477.473-.163.162-.301.324-.452.485-.15.162-.338.3-.489.461-.15.162-.276.349-.414.523-.15.175-.288.336-.426.51-.138.175-.314.325-.439.499-.126.174-.289.336-.427.523-.125.187-.238.374-.364.56-.125.187-.225.386-.338.573-.113.187-.226.386-.339.573-.113.187-.163.411-.276.61l-.301.598c-.1.2-.276.361-.376.56-.113.237-.289.324-.452.324-.1 0-.238-.025-.364-.286-.1-.2-.288-.361-.389-.56-.1-.2-.163-.424-.276-.61-.112-.2-.213-.4-.338-.586-.126-.187-.239-.386-.364-.573-.125-.187-.276-.349-.414-.535-.138-.187-.326-.312-.477-.486-.138-.174-.225-.399-.376-.573-.15-.174-.288-.349-.439-.51-.15-.162-.326-.312-.49-.474a13.862 13.862 0 00-.489-.46c-.163-.15-.363-.274-.526-.424-.176-.15-.301-.349-.477-.486s-.364-.249-.54-.386c-.175-.137-.376-.224-.564-.348-.176-.125-.326-.3-.514-.411-.188-.125-.364-.25-.552-.361-.188-.113-.427-.15-.615-.25-.188-.112-.339-.286-.54-.398-.2-.1-.426-.125-.627-.224-.2-.087-.388-.212-.59-.299-.2-.087-.426-.125-.626-.212-.201-.087-.377-.249-.59-.324-.2-.074-.426-.124-.64-.186-.213-.075-.401-.187-.614-.25-.214-.062-.427-.136-.64-.199-.2-.062-.44-.012-.652-.074-.201-.05-.402-.162-.615-.212-.213-.05-.427-.062-.64-.1-.213-.037-.401-.15-.614-.186-.214-.038-.44 0-.653-.038-.213-.037-.414-.1-.627-.124-.213-.025-.427 0-.64-.025-.213-.025-.426 0-.64-.013-.213-.012-.426-.1-.64-.112-.213 0-.426.05-.64.037-.212 0-.426-.062-.639-.062-.213 0-.426-.025-.64-.025-.213 0-.426.013-.64.025-.213 0-.426.05-.64.063-.212 0-.426.037-.639.05-.213.012-.439-.05-.652-.026-.213.025-.427.063-.653.088-.213.024-.426.1-.64.124-.213.025-.426.087-.639.125-.213.037-.439 0-.652.037-.213.037-.414.125-.627.174-.214.038-.427.063-.64.112-.213.05-.44.063-.64.113-.213.05-.427.112-.627.161-.213.063-.402.175-.615.237a8.878 8.878 0 00-.615.2 8.86 8.86 0 00-.614.199c-.201.074-.44.074-.64.149s-.376.237-.577.324c-.2.087-.427.112-.615.199-.2.087-.376.224-.564.324-.2.087-.44.087-.627.187-.201.1-.402.174-.59.274-.188.1-.389.199-.577.299-.188.1-.364.236-.552.336-.188.112-.351.261-.527.373-.188.112-.414.162-.59.274-.175.112-.35.25-.526.374-.176.124-.339.274-.515.398-.175.125-.35.237-.526.374-.176.124-.34.274-.502.41-.163.138-.364.238-.527.374-.163.137-.301.312-.464.449-.163.137-.339.261-.502.41-.163.15-.301.337-.452.487-.163.149-.376.261-.526.423-.151.162-.226.398-.364.56-.15.162-.314.312-.452.486s-.339.299-.477.473c-.138.175-.263.361-.401.536-.138.174-.25.36-.376.548-.126.186-.214.386-.339.573-.125.186-.289.336-.414.523-.113.186-.188.41-.301.597-.113.187-.2.399-.301.586-.113.199-.264.36-.364.547-.1.2-.188.4-.288.598-.1.212-.189.424-.276.635-.088.212-.138.436-.214.648l-.263.635c-.075.212-.2.423-.263.635-.063.224-.139.436-.201.66-.063.224-.05.461-.1.685-.05.224-.138.436-.189.66-.05.237-.188.411-.338.473-.088.025-.264 0-.414-.137-.15-.136-.352-.224-.515-.36-.163-.125-.3-.275-.476-.4-.163-.124-.327-.273-.502-.398-.176-.112-.389-.174-.577-.286a7.775 7.775 0 00-.552-.311c-.188-.1-.351-.225-.54-.324-.188-.1-.376-.187-.564-.287-.188-.087-.389-.162-.577-.249-.188-.087-.376-.187-.577-.261-.2-.075-.389-.175-.59-.25-.2-.074-.376-.186-.577-.26-.2-.063-.414-.076-.627-.15-.213-.063-.439-.112-.665-.175-.213-.062-.426-.186-.652-.249-.226-.062-.452-.074-.678-.124-.225-.05-.438-.137-.664-.187-.226-.05-.452-.125-.678-.162-.225-.037-.476 0-.702-.025-.276-.05-.314-.299-.326-.386a.515.515 0 01.35-.535c.227-.087.427-.224.64-.312.226-.087.477-.1.69-.186.214-.1.427-.212.64-.312.214-.1.427-.212.627-.311.214-.112.402-.262.603-.374.188-.1.426-.137.614-.249.188-.112.352-.261.54-.373.188-.113.414-.175.59-.3.188-.124.363-.26.539-.385.188-.125.364-.262.527-.386.175-.137.326-.3.501-.436.176-.137.377-.237.54-.374.163-.15.313-.311.476-.46.163-.15.314-.312.465-.461.15-.15.313-.287.451-.436l.427-.461c.138-.162.213-.374.338-.536.126-.174.239-.348.352-.523.125-.174.263-.323.376-.498.113-.174.213-.36.314-.535.1-.187.163-.386.263-.573.088-.187.238-.349.314-.548.087-.2.163-.411.238-.623.075-.211.113-.423.176-.635.062-.212.087-.436.138-.647.05-.212.125-.424.163-.636.037-.224.125-.423.15-.647.025-.224 0-.448.013-.66.012-.224 0-.436 0-.66 0-.237 0-.46-.025-.698-.013-.236.037-.473 0-.697-.026-.237-.138-.448-.176-.672-.05-.224-.113-.449-.176-.673-.062-.224-.087-.448-.163-.672a9.893 9.893 0 00-.238-.648c-.088-.212-.138-.448-.238-.66-.1-.212-.239-.398-.364-.598-.113-.186-.289-.336-.414-.51-.126-.175-.188-.399-.339-.573-.138-.162-.313-.311-.464-.473-.15-.162-.339-.274-.502-.436a5.519 5.519 0 00-.489-.436c-.163-.137-.288-.349-.464-.473-.176-.137-.401-.187-.59-.312-.175-.124-.313-.323-.502-.435-.188-.113-.426-.15-.614-.262-.2-.112-.351-.286-.565-.399-.2-.1-.401-.199-.614-.298a26.032 26.032 0 00-.628-.262c-.213-.087-.426-.15-.64-.237-.212-.074-.438-.124-.652-.186a9.944 9.944 0 00-.652-.2c-.213-.062-.439-.1-.665-.149-.213-.062-.439-.087-.665-.137-.213-.05-.426-.15-.652-.2-.226-.05-.452-.074-.677-.111-.226-.038-.44-.137-.665-.175-.213-.037-.44-.012-.665-.05-.213-.024-.439 0-.665-.037l-.652-.075c-.213-.024-.427-.1-.652-.112-.214-.012-.427-.087-.653-.1-.213-.012-.439.026-.665.013-.213 0-.439-.062-.652-.062-.213 0-.439.012-.665.012-.213 0-.439-.05-.652-.05-.213 0-.44.063-.652.063-.214 0-.44-.05-.665-.05-.214 0-.44.087-.665.1-.213 0-.44-.038-.665-.025h-.665c-.213.012-.439.074-.652.1-.339.024-.339-.038-.677-.013-.34.025-.327.137-.665.162-.339.025-.339 0-.678.025-.338.025-.338-.025-.677 0s-.326.087-.665.112c-.339.025-.339.037-.665.062-.338.025-.338-.075-.677-.05-.339.025-.326.075-.665.087l-.665.05c-.339.025-.339-.037-.677-.012-.339.025-.326.05-.665.062-.339.025-.339 0-.665.025-.339.025-.326.112-.665.124-.338.025-.338-.074-.677-.05l-.665.05c-.339.025-.326.1-.665.125-.339.025-.339.037-.677.062-.339.025-.339 0-.678.025-.338.025-.326.05-.664.075-.34.025-.34-.025-.678 0-.339.025-.339 0-.665.025-.338.025-.338 0-.677.025l-.678.05c-.338.024-.326.062-.664.087-.34.025-.34.012-.678.037l-.665.05c-.338.025-.326.075-.665.1-.338.024-.338-.075-.677-.05-.339.025-.326.087-.665.112-.338.025-.338 0-.677.037-.339.025-.339.075-.665.1-.339.025-.339-.025-.677 0-.34.025-.34.037-.678.062s-.326.062-.665.087c-.338.025-.338-.037-.677-.025-.339.025-.339.063-.665.087-.339.025-.339-.012-.677 0-.339.025-.339.075-.665.1-.339.025-.339 0-.678.037-.338.025-.338-.012-.677 0-.339.025-.339-.024-.677 0-.339.025-.339.05-.678.075-.338.025-.338.05-.665.075-.338.025-.338.012-.677.037-.339.025-.339 0-.677.025-.339.025-.339 0-.678.025-.175.013-.338.224-.338.399v.498c0 .137.075.286.15.398.126.187.264.349.376.536.113.186.239.373.352.56.113.187.2.386.313.573.113.187.239.361.352.56.112.2.175.399.276.598.1.2.175.399.263.598.1.2.238.373.326.573l.264.598c.087.199.125.423.2.622.088.2.138.411.213.623.076.212.226.386.302.585.075.212.125.423.2.623.063.212.076.436.138.647.063.212.188.399.251.61.063.212.063.436.113.648.05.212.138.411.188.623.05.211.126.423.176.635.05.212.012.436.063.66.037.212.087.423.125.648.038.211.113.423.15.635.026.211.026.436.05.647.026.212.063.436.089.648.025.212-.038.436-.026.66.013.212.05.436.05.647 0 .212.026.436.026.648 0 .212.075.436.075.648 0 .323-.025.323-.025.647s.05.324.05.66v.648c0 .324-.038.324-.038.647 0 .324.026.324.026.648s-.026.324-.026.647c0 .324-.025.324-.025.648v.648c0 .323.038.323.038.66 0 .336.025.323.025.66 0 .336-.063.323-.063.647s.063.324.063.648v.66c0 .336-.063.324-.063.647v1.32c0 .337.05.324.05.66v.66c0 .337.063.324.063.648s-.037.324-.037.648c0 .323-.013.323-.013.66 0 .336.05.323.05.66v.647c0 .324-.1.324-.1.66s.012.324.012.66v1.98c0 .337.088.324.088.66 0 .337-.075.337-.075.66 0 .324.05.337.05.66 0 .224-.037.436-.037.66 0 .225-.063.436-.076.648 0 .224.038.436.013.66-.013.212-.075.436-.088.648-.025.224-.038.435-.063.647-.025.212 0 .436-.025.66-.025.224-.1.424-.125.648-.038.211 0 .448-.038.66-.038.212-.088.436-.125.647-.038.212-.15.411-.201.635-.05.212-.025.436-.088.66-.05.212-.125.424-.188.636-.05.211-.15.41-.2.622-.063.212-.05.449-.114.648-.062.212-.15.41-.225.622-.063.212-.189.399-.251.61-.076.212-.176.4-.251.61-.075.2-.088.437-.176.636-.075.2-.213.386-.3.585-.089.2-.114.436-.202.636-.087.199-.213.386-.3.585a8.373 8.373 0 01-.29.585c-.1.2-.162.411-.263.598-.1.2-.175.41-.276.598-.1.186-.263.36-.376.547-.113.187-.188.399-.301.586l-.339.56a.733.733 0 00-.088.361c0 .25.026.25.026.511 0 .1 0 .162.075.224s.15.15.238.137c.339-.025.339 0 .665-.012.326-.025.326-.125.652-.137.326-.025.339.037.665 0 .326-.025.326-.063.665-.087.326-.025.339.024.665 0 .326-.025.326-.063.665-.088.326-.025.338.038.665.025.338-.025.326-.087.664-.112.34-.025.34.05.665.025.339-.025.326-.112.665-.137.339-.025.339 0 .665-.025.339-.025.339.025.665 0s.326-.1.665-.124l.665-.05c.326-.025.326-.013.664-.038.34-.024.34 0 .665-.024l.665-.05c.339-.025.339-.038.665-.063.339-.024.339.05.665.025s.338 0 .665-.012c.326-.013.326-.1.665-.112l.664-.05c.339-.025.327-.05.665-.075l.665-.05c.339-.024.339.088.677.063.34-.025.327-.1.665-.125.339-.025.326-.05.665-.075.326-.024.339.063.665.038.339-.025.326-.112.665-.137.338-.025.338.05.677.025.326-.025.339 0 .665-.013.339-.025.339-.012.665-.037.339-.025.326-.087.665-.1.338-.025.338 0 .665-.037.338-.025.338 0 .664 0 .327 0 .34-.025.665-.037.339-.025.326-.1.665-.125.339-.025.339-.05.665-.062.339-.025.339.075.677.062.34-.025.34-.037.665-.062.213-.013.44-.062.652-.075.214-.012.44-.012.653-.025.226-.012.439-.112.652-.137.226-.012.44-.037.652-.062.226-.025.452.025.665 0 .226-.025.44-.1.653-.125.225-.025.439.013.665 0 .213-.025.439 0 .664-.025.214-.024.427-.1.653-.124.213-.025.439 0 .652-.037.213-.025.426-.125.64-.162.213-.025.439-.063.652-.1.213-.025.439-.075.652-.112.214-.037.452.05.665 0 .213-.037.414-.162.64-.2.213-.037.452.026.665-.012.213-.037.426-.112.64-.15.213-.036.426-.099.64-.136.212-.037.438-.062.652-.1.213-.05.426-.124.627-.174.213-.05.439-.025.652-.075.213-.05.427-.087.64-.137.213-.05.414-.162.627-.224.213-.05.44-.062.652-.125.214-.062.402-.211.602-.274.214-.062.427-.1.628-.174.213-.062.414-.124.627-.2.213-.074.439-.074.64-.148.213-.075.414-.162.614-.237.201-.075.402-.2.59-.274.2-.087.401-.174.59-.262.2-.087.426-.124.614-.224.2-.087.414-.137.615-.236.2-.1.389-.2.577-.3.2-.099.389-.199.577-.298.188-.1.326-.299.514-.411.188-.112.377-.212.552-.336.188-.125.402-.187.577-.312.176-.124.301-.311.477-.448s.339-.262.502-.399c.163-.136.338-.261.502-.41.163-.15.388-.225.539-.374.15-.15.276-.336.414-.498.15-.162.25-.349.389-.51.138-.163.3-.312.426-.486.126-.175.239-.362.364-.536.126-.174.263-.349.376-.535.113-.187.239-.362.339-.56.1-.188.163-.412.25-.611a.545.545 0 01.427-.324c.076 0 .226.025.352.224.113.175.313.3.439.461.125.174.225.349.351.523.125.162.2.374.339.536.138.161.35.249.489.41.138.15.263.324.401.486.15.15.264.324.414.474.15.149.352.236.515.373.15.137.313.262.476.399.163.137.264.323.44.46.175.137.388.212.564.337.175.124.288.348.464.473.176.124.426.15.615.274.188.124.35.261.539.373.188.113.389.212.577.312.188.1.351.261.552.36.2.1.376.225.577.325.2.1.414.137.615.224.2.087.414.124.627.212.2.087.414.161.615.236.2.075.389.2.602.274.213.075.439.062.652.137.213.062.401.2.615.262.213.062.439.112.665.174.225.062.439.112.664.162.226.05.44.112.665.162.226.05.464 0 .69.037.226.038.44.137.665.175.226.037.452.05.677.074.226.025.452.063.678.075.226.025.451.087.677.1.226.012.464-.063.69-.05.226 0 .452.025.69.037.226 0 .452.05.69.05h.69c.226 0 .452 0 .69-.025.226 0 .451-.075.69-.087.213-.013.439-.037.652-.05l.653-.075c.213-.025.438 0 .652-.037.213-.025.439-.025.652-.062.213-.038.427-.137.64-.175.213-.037.451 0 .665-.037.213-.037.426-.087.64-.125.213-.05.4-.199.614-.249.213-.05.44-.025.652-.087.214-.05.427-.124.628-.187.213-.062.439-.087.64-.149.213-.062.413-.125.627-.2.2-.074.389-.199.602-.273.2-.075.401-.162.602-.25l.602-.26c.2-.088.427-.1.627-.188.2-.087.402-.174.59-.261.2-.1.389-.187.59-.287.2-.1.338-.286.526-.386.188-.1.414-.15.602-.261.189-.112.364-.237.552-.349.188-.112.352-.249.527-.361.188-.112.364-.224.552-.349.176-.124.389-.211.565-.336.175-.124.326-.286.501-.423.176-.137.364-.224.54-.361.175-.137.364-.237.527-.374.163-.137.326-.287.489-.436.163-.137.276-.336.439-.473.163-.15.389-.237.54-.399.162-.15.326-.299.476-.46.15-.162.238-.387.389-.548.15-.162.351-.274.502-.449.138-.162.288-.336.426-.51.138-.175.188-.411.326-.586.138-.174.326-.311.452-.498.125-.187.2-.398.326-.585.126-.187.289-.336.401-.536.113-.186.226-.386.34-.572.112-.187.2-.399.3-.586.1-.199.213-.386.314-.585l.3-.598c.114-.236.315-.386.478-.386.087 0 .251.087.363.324.101.2.239.386.339.585.113.2.251.374.364.573.113.2.176.423.301.61l.376.56c.126.188.226.4.364.574.138.174.301.336.439.51.138.175.326.312.477.486.15.174.301.336.451.498.151.162.339.299.502.46.163.163.289.35.452.499.163.15.313.324.476.473.176.15.352.274.527.411.176.137.364.25.54.386.175.125.326.299.501.423.176.125.377.225.565.337.188.112.401.187.59.299.188.112.388.211.577.311.188.1.363.237.564.336.188.1.389.212.577.3.201.099.414.161.615.248s.364.262.564.349c.201.087.452.062.653.137.2.075.376.249.589.311.201.075.439.062.652.137.214.062.414.174.615.237.213.062.452.087.678.137.225.062.426.162.652.212.226.05.451.087.677.136.226.05.452.075.678.125.225.05.451.1.677.137.226.037.464.025.69.05.226.025.464 0 .69.025.226.025.452.124.677.15.226.012.452.049.69.061.226 0 .452.013.69.025.226 0 .464-.062.69-.062.226 0 .452.025.69.013.226 0 .464 0 .69-.013.226 0 .452-.05.69-.075.213-.012.439-.05.652-.074.214-.025.439.012.665 0 .213-.025.427-.137.64-.162.213-.025.451.037.665 0 .213-.038.439-.063.652-.1.213-.037.414-.162.627-.2.213-.037.439-.024.653-.074.213-.05.439-.062.652-.112l.64-.15c.213-.05.401-.199.614-.26.214-.063.439-.063.653-.125.213-.063.414-.162.614-.225.214-.074.402-.174.602-.249.201-.074.402-.187.603-.261.2-.075.439-.087.639-.175.201-.087.377-.224.577-.31.201-.088.427-.125.615-.213.201-.1.376-.211.577-.31.188-.1.414-.138.602-.25.188-.1.351-.25.54-.361.188-.1.401-.175.589-.287.188-.112.314-.31.489-.435.189-.112.402-.187.577-.3.189-.124.377-.211.552-.336.176-.124.377-.224.552-.348.176-.125.314-.3.49-.424.175-.137.351-.249.526-.386.163-.137.339-.274.502-.41.163-.138.289-.325.439-.474.025-.025.075-.037.101-.062.163-.15.351-.262.539-.262a.8.8 0 01.564.262c.126.137.189.373.164.598-.026.224-.076.46-.088.684 0 .225.037.461.037.698 0 .236-.05.46-.037.685 0 .236 0 .46.037.685.025.224.025.46.063.685.038.224.138.448.188.66.05.224.113.448.176.66.063.224.088.46.163.672.075.212.263.386.364.598.1.212.2.411.313.61.113.212.151.461.289.66.125.2.263.399.414.586.15.186.364.323.527.498.15.174.326.348.489.51.176.162.301.374.489.523.176.15.389.262.59.411.125.087.113.237.113.324 0 .15-.051.274-.163.398-.138.138-.226.337-.352.486-.138.15-.301.274-.414.424-.125.161-.251.323-.351.485-.113.175-.176.361-.263.536-.101.187-.214.373-.301.573-.076.199-.176.398-.239.597-.062.2 0 .436-.05.648-.038.212-.088.41-.1.635-.013.212-.013.423-.013.648 0 .236-.05.473-.037.697.025.237.125.448.175.672.05.225.025.474.088.685.075.225.176.436.276.636.1.211.276.373.401.572.126.187.251.386.389.56.138.175.251.4.414.561.163.162.326.324.502.474.176.149.426.199.615.336.188.137.338.323.539.448.176.112.314.262.351.436.05.187.063.41-.037.585a.815.815 0 01-.477.374s-.025-.063-.038-.063c-.2.063-.389.175-.589.237-.201.062-.402.137-.602.212-.201.075-.427.075-.615.15a8.147 8.147 0 00-.59.236c-.2.075-.388.174-.577.249-.2.087-.363.237-.552.324a11.97 11.97 0 00-.564.286c-.213.112-.452.162-.652.274-.214.112-.402.25-.603.374-.2.124-.439.199-.639.323-.201.125-.414.237-.615.362-.201.137-.326.36-.527.498-.188.137-.401.249-.589.398-.189.137-.402.262-.577.411-.189.15-.402.262-.59.411-.188.15-.351.324-.527.486-.188.162-.414.224-.539.174-.151-.062-.201-.249-.201-.423v-.635c0-.324-.013-.312-.013-.635 0-.324.051-.312.051-.636 0-.323-.088-.31-.088-.635 0-.323.025-.323.025-.635 0-.311.05-.323.05-.635 0-.2-.125-.361-.276-.498-.15-.137-.15-.137-.288-.274-.088-.087-.189-.162-.301-.137-.314.087-.302.125-.628.212-.313.087-.326.025-.652.112-.314.087-.314.112-.627.2l-.627.173c-.314.088-.314.075-.64.162l-.627.175c-.314.087-.327.05-.64.124-.314.087-.301.15-.615.224-.313.088-.313.088-.64.175-.313.087-.326.05-.639.137-.314.087-.301.124-.628.211-.313.088-.326.038-.652.125-.313.087-.313.112-.627.187-.314.087-.314.087-.64.174-.313.087-.313.112-.627.2-.314.087-.326.074-.64.161-.313.087-.313.112-.627.187-.314.087-.326.037-.64.125-.313.087-.326.037-.652.112-.314.087-.301.137-.615.224-.313.087-.326.05-.64.124-.313.087-.326.05-.639.137-.314.087-.301.162-.615.25-.314.087-.339.024-.652.111-.314.088-.314.113-.627.187-.314.087-.302.15-.615.237-.314.087-.326.062-.64.137-.326.087-.326.075-.64.15-.326.086-.326.05-.652.136-.326.087-.326.075-.64.162-.15.038-.301.2-.301.361 0 .212.063.212.063.411 0 .187.1.324.238.461.151.162.214.399.351.56.151.162.352.274.49.436.138.175.2.399.326.573.125.174.351.287.477.473.125.187.175.399.288.598.113.187.213.386.314.573.1.187.2.386.288.585.088.2.188.399.264.598.087.2.163.411.225.61.076.212.138.411.201.623.063.212.088.423.138.635.05.212.126.424.163.635.038.212.05.436.075.648.026.212.026.436.051.647.025.212.087.424.1.648 0 .212.05.436.05.648 0 .336-.075.336-.075.66 0 .323.05.336.05.66 0 .323.05.336.05.66 0 .323-.05.336-.05.66 0 .323.063.336.063.66 0 .323-.101.336-.101.66 0 .323.026.336.026.66 0 .323.075.336.075.66s-.101.336-.101.66c0 .323.076.336.076.66v.66c0 .323-.076.336-.076.66s.026.336.026.66-.026.336-.026.66v.66c0 .324-.025.336-.025.66s.025.336.025.672c0 .337.026.337.026.673v.66c0 .224-.063.436-.076.66-.012.224.088.448.063.672-.025.225-.075.436-.1.66-.025.225-.101.436-.138.648-.038.212-.101.436-.138.648-.038.211.025.46-.025.672-.051.212-.113.436-.163.648-.051.211-.201.398-.264.61-.063.211-.063.436-.138.647-.063.212-.176.411-.251.623-.075.212-.163.411-.238.623-.075.211-.075.448-.151.647-.087.2-.263.374-.351.573-.088.199-.125.424-.226.623-.088.199-.238.373-.338.573-.101.199-.189.398-.301.597-.113.187-.151.424-.264.611-.113.186-.314.323-.426.523-.101.162-.214.311-.389.311-.088 0-.276 0-.389-.149-.188-.237-.163-.262-.339-.499-.188-.236-.213-.211-.401-.46-.138-.175-.251-.374-.377-.561-.125-.187-.188-.411-.301-.598-.113-.186-.263-.361-.363-.56-.113-.199-.276-.361-.377-.56-.1-.2-.163-.424-.251-.623a9.357 9.357 0 01-.238-.623c-.075-.211-.176-.411-.251-.622-.063-.212-.038-.449-.088-.673-.05-.212-.125-.423-.175-.647-.051-.212-.05-.449-.076-.66-.025-.212-.112-.436-.125-.66-.025-.225 0-.449 0-.673 0-.224-.088-.436-.088-.672 0-.337.013-.337.013-.66v-.66c0-.324-.038-.324-.038-.66 0-.337.025-.324.025-.66 0-.337.063-.324.063-.661 0-.336-.025-.323-.025-.66v-.66c0-.336-.05-.336-.05-.66v-.66c0-.323.087-.336.087-.66 0-.323-.025-.336-.025-.66 0-.323-.025-.336-.025-.66s.063-.336.063-.66v-1.32c0-.336-.038-.336-.038-.66s-.05-.336-.05-.66-.037-.336-.037-.66.025-.336.025-.66.087-.336.087-.66-.112-.336-.112-.66.075-.336.075-.66v-.66c0-.324.025-.336.025-.66s-.1-.336-.1-.66.012-.336.012-.66.05-.336.05-.66v-.66c0-.324-.062-.336-.062-.66v-.66c0-.324.025-.336.025-.66v-.66c0-.324-.025-.336-.025-.66s.087-.336.087-.66.038-.337.038-.66v-.66c0-.324-.113-.337-.113-.673s.1-.336.1-.66-.087-.336-.087-.66.012-.336.012-.672c0-.337.05-.337.05-.673 0-.199-.113-.386-.251-.523-.062-.062-.037-.1-.1-.162-.188-.174-.464-.187-.702-.124-.327.087-.314.112-.64.187-.326.087-.351 0-.678.074-.326.088-.326.075-.652.162-.326.087-.313.1-.64.187-.326.087-.301.162-.627.249s-.351 0-.677.087c-.326.087-.326.1-.64.187-.326.087-.314.15-.64.237s-.351 0-.665.087c-.326.087-.326.1-.652.174-.326.087-.339.062-.665.15-.326.087-.313.149-.627.224-.326.087-.314.124-.64.199-.326.087-.326.075-.652.162-.326.087-.351 0-.677.087-.327.087-.301.2-.615.287-.326.087-.339 0-.665.1-.326.086-.326.061-.652.149-.326.087-.314.112-.64.199-.326.087-.314.137-.64.212-.326.087-.326.087-.652.161-.326.088-.351.013-.665.1-.326.087-.326.075-.652.162l-.653.174c-.326.088-.3.187-.627.274-.326.087-.338.025-.665.112-.326.087-.326.063-.652.15s-.339.062-.665.15c-.326.086-.313.124-.64.21-.15.038-.25.188-.25.35v.46a.78.78 0 00.213.511c.15.15.263.349.414.51.138.162.3.312.439.474.138.174.25.349.389.523.125.174.313.311.439.486.113.186.213.373.326.56.113.187.238.361.339.56.1.187.2.386.288.586.088.199.088.436.163.635.088.199.213.373.289.585.075.2.138.411.2.61.063.212.063.436.113.648.05.212.201.398.239.61.037.212.05.436.075.648.038.211.1.423.125.635.025.211-.062.436-.05.66 0 .211.126.423.126.647 0 .337-.076.337-.076.673s.038.336.038.672c0 .337-.013.337-.013.673s.013.336.013.672c0 .337.025.337.025.673s-.088.336-.088.672.025.336.025.673c0 .336-.037.336-.037.672s.05.336.05.673c0 .336.063.336.063.672s-.113.336-.113.673c0 .336.063.336.063.672s.025.336.025.673c0 .336-.05.336-.05.672v1.345c0 .336.012.336.012.672 0 .337.025.337.025.673s-.05.336-.05.672c0 .337.037.337.037.673 0 .224.05.448.038.66-.012.224-.05.436-.075.66-.025.224-.1.436-.138.647-.038.225-.025.449-.075.661-.05.211-.113.435-.163.635-.063.211-.201.398-.264.61-.075.212-.15.411-.226.61-.088.212-.175.411-.263.598-.088.212-.113.436-.213.622-.1.2-.189.411-.289.586-.113.199-.3.336-.414.51-.163.274-.376.287-.552.225-.075-.025-.326-.1-.276-.424.05-.336-.012-.349.025-.685.05-.336.126-.324.163-.66.05-.336.038-.336.076-.672.037-.337.037-.337.088-.673.037-.336.087-.336.125-.672.038-.337.05-.337.088-.673.05-.336 0-.336.037-.685.05-.336.088-.336.138-.672.05-.336.063-.336.1-.673.05-.336.013-.336.063-.685.038-.336 0-.336.05-.685.038-.336.063-.336.101-.672.05-.336.013-.336.063-.685.037-.336.1-.324.15-.672.038-.337-.025-.349.013-.685.05-.337.037-.337.088-.685 0-.1 0-.187-.063-.262-.075-.074-.163-.137-.264-.124-.213.012-.2.062-.413.074-.088 0-.138.025-.201.088-.226.236-.289.174-.502.411-.226.236-.188.261-.414.498-.226.236-.238.211-.464.448-.226.237-.2.249-.427.486-.225.236-.25.211-.476.436-.226.236-.239.224-.452.46-.226.237-.163.287-.389.523-.226.237-.213.237-.439.474-.226.236-.226.236-.451.46-.226.237-.201.249-.427.486-.226.237-.314.149-.54.386-.15.162-.238.374-.4.536-.151.149-.352.274-.515.423-.163.149-.289.336-.452.486-.163.149-.364.261-.527.398-.163.15-.3.324-.464.473-.163.137-.313.312-.489.449-.175.137-.389.224-.564.361-.176.137-.364.249-.54.386-.175.137-.326.299-.502.436-.175.124-.363.249-.539.373-.176.125-.376.225-.565.337-.188.124-.363.261-.539.373-.188.112-.376.237-.564.349-.189.112-.414.162-.603.261-.188.113-.363.249-.564.349-.188.1-.401.174-.602.274-.2.1-.364.249-.565.349-.2.099-.388.211-.59.299l-.601.261c-.201.087-.39.199-.602.287-.201.087-.414.149-.615.236-.2.087-.402.199-.602.274-.201.075-.452.062-.653.137-.213.075-.413.15-.627.224-.213.063-.401.2-.615.262-.213.062-.426.099-.64.162-.212.062-.438.074-.651.137-.214.062-.427.099-.64.149-.213.05-.427.125-.64.162-.213.037-.414.174-.627.212-.213.05-.44.037-.665.074-.213.038-.44.063-.652.088-.214.037-.427.099-.653.137-.213.025-.451-.013-.665 0-.213.025-.439.074-.652.099-.15.013-.3 0-.401-.099a.536.536 0 01-.176-.399c0-.336.075-.336.075-.672 0-.337-.075-.337-.075-.673v-.66c0-.324.05-.336.05-.672 0-.337-.037-.337-.037-.673s-.013-.336-.013-.672c0-.337-.037-.337-.037-.673s.087-.336.087-.66-.087-.336-.087-.672.037-.336.037-.673c0-.336.063-.336.063-.66s-.038-.336-.038-.672.063-.336.063-.66-.05-.336-.05-.66.037-.337.037-.66c0-.324-.025-.337-.025-.66 0-.324.025-.337.025-.66 0-.324-.05-.337-.05-.66 0-.324.05-.337.05-.66 0-.324-.025-.337-.025-.673s.025-.336.025-.66-.087-.336-.087-.672c0-.337-.025-.337-.025-.673s.025-.336.025-.66.062-.336.062-.672v-.66c0-.324.025-.337.025-.673s-.062-.336-.062-.672v-.673c0-.336-.05-.336-.05-.672 0-.337.125-.337.125-.66 0-.324-.088-.337-.088-.673s.038-.336.038-.672c0-.337-.05-.337-.05-.673s.062-.336.062-.672c0-.337-.1-.337-.1-.673s.038-.336.038-.672.05-.336.05-.673c0-.336-.025-.336-.025-.66 0-.323.012-.336.012-.66v-.672c0-.336-.037-.336-.037-.673 0-.336.062-.336.062-.672s-.075-.336-.075-.673c0-.336.038-.336.038-.672s.062-.336.062-.673v-.672c0-.336-.025-.336-.025-.673 0-.336.013-.336.013-.672s-.075-.336-.075-.672c0-.337.012-.337.012-.673 0-.224-.025-.448-.025-.66 0-.224.075-.436.088-.66 0-.224 0-.448.012-.66.013-.224 0-.448.025-.66.025-.224.05-.436.088-.66.025-.224.15-.424.188-.648.038-.224 0-.448.038-.672.038-.212.138-.424.188-.635.038-.212.025-.449.075-.66.05-.212.126-.424.176-.635.063-.212.113-.424.176-.635.062-.212.2-.399.263-.61.063-.212.038-.45.113-.66.075-.213.25-.374.326-.586.075-.212.075-.448.15-.648.089-.199.176-.398.264-.61.088-.2.239-.374.326-.585.088-.2.113-.436.214-.635.1-.2.25-.361.35-.56.101-.2.214-.387.314-.586.1-.2.189-.398.302-.598l.338-.56c.113-.187.188-.399.301-.586.113-.186.289-.348.402-.535.113-.187.238-.373.363-.56.126-.187.151-.436.289-.61.125-.187.314-.324.439-.511.088-.125.075-.287.075-.436 0-.224.025-.224.025-.448 0-.1.013-.212-.05-.274-.063-.063-.188-.025-.276-.025-.326.025-.326.025-.652.037-.326.025-.326-.012-.665 0-.326.025-.326 0-.665.013-.326.024-.326.062-.652.087-.326.025-.326.062-.652.087-.326.025-.34-.087-.665-.062-.326.025-.326.124-.653.15-.326.024-.326 0-.652.024-.326.025-.338-.075-.665-.05-.326.025-.326.112-.652.137-.326.025-.326 0-.665.013-.326.025-.326.05-.652.074l-.653.05c-.326.025-.326 0-.652.025l-.652.05c-.326.025-.326.05-.652.062-.326.013-.34-.037-.665-.012-.326.025-.326.037-.652.062-.327.025-.327-.025-.665 0-.326.025-.326.1-.653.125-.326.024-.326 0-.664.024-.327.025-.327.063-.653.075-.326.025-.326 0-.665.025-.326.025-.326.013-.652.037-.326.025-.326.013-.665.038-.326.025-.326.037-.652.062s-.339-.037-.665 0c-.326.025-.326.037-.652.062s-.339-.037-.665-.012c-.326.025-.326.137-.652.162-.327.025-.34-.038-.665-.013-.326.025-.326.05-.653.075-.326.025-.326.05-.652.075-.326.025-.339-.05-.665-.025l-.665.05-.664.05c-.327.024-.34 0-.665.024-.326.025-.326.038-.665.063s-.339-.013-.665 0c-.339.025-.326.1-.652.124-.326.025-.326.062-.665.075a.67.67 0 00-.452.212c-.125.137-.2.274-.2.46v.087c0 .138.05.25.137.374.126.187.164.423.276.61.126.187.276.349.39.536.112.187.275.349.388.535.113.187.214.386.314.586.113.199.213.386.326.573.1.199.188.398.288.597.1.2.214.386.302.585.1.2.163.412.25.61.088.2.201.4.289.599.088.199.176.41.25.61.076.199.176.398.252.61.075.212.075.436.138.648.075.211.2.398.263.61.063.211.075.436.138.647.063.212.176.411.239.623.05.212.125.423.175.635.05.212 0 .448.05.66.038.212.138.423.176.635.038.212.038.436.075.66.038.212.113.424.138.648l.075.66c.026.212.026.436.05.66.013.224-.062.448-.05.66 0 .224.113.436.126.66 0 .212-.088.436-.088.66 0 .324.075.324.075.647v.648c0 .324-.05.324-.05.648 0 .323.038.324.038.647v1.295c0 .324.025.324.025.648v1.295c0 .324-.025.324-.025.648v.647c0 .324.037.324.037.648s-.062.324-.062.66.088.324.088.647c0 .324-.05.324-.05.648s-.026.324-.026.648v1.307c0 .324-.025.324-.025.648 0 .323.075.323.075.647s.038.324.038.648-.075.324-.075.647c0 .324.012.324.012.648s.05.324.05.66-.1.324-.1.66.088.324.088.66-.038.324-.038.66.025.324.025.66-.037.324-.037.66.088.324.088.66-.063.324-.063.66c0 .224-.025.436-.038.66 0 .224-.037.436-.05.66 0 .224.088.449.063.66-.013.212-.113.436-.138.648-.025.224.025.448 0 .66-.025.224-.075.436-.113.647-.025.225-.05.436-.088.648-.037.212-.05.436-.088.648-.037.211-.062.435-.113.647-.037.212-.15.424-.188.635-.05.212-.125.424-.175.635-.05.212-.1.424-.163.636-.05.211-.113.423-.176.635-.063.211-.038.448-.1.647l-.189.635c-.062.212-.138.411-.213.623-.075.212-.163.411-.238.61-.075.199-.213.386-.301.586-.088.199-.163.41-.251.61-.088.199-.088.436-.176.647-.088.2-.238.374-.338.573-.088.199-.151.411-.239.61-.1.2-.263.361-.364.561-.1.199-.15.423-.25.61s-.226.374-.34.573c-.112.187-.238.373-.35.56-.113.187-.201.386-.327.573-.062.112-.05.249-.05.386 0 .249-.087.249-.087.511 0 .087.112.137.175.211.063.063.113.088.2.088 0 0 .013.062.026.062l.665-.05c.338-.025.338.012.665 0 .326-.025.326-.125.652-.149.326-.025.326-.038.665-.063.326-.025.338.05.665.038.326-.025.338 0 .664 0 .327-.025.327-.125.653-.15.326-.025.338.087.665.063.326-.025.326-.1.652-.125.326-.025.326 0 .665-.025.326-.025.338.05.665.025.326-.025.326-.112.652-.137.326-.025.326-.012.665-.037.326-.025.338.062.665.037.326-.025.326-.112.652-.137.326-.025.339.012.665 0 .326-.025.326-.037.665-.062.326-.025.338 0 .664 0 .327-.025.327-.038.665-.063.326-.024.339 0 .665-.024.326-.025.326-.063.652-.088.34-.025.34.013.665 0 .326-.012.326-.025.665-.049.326-.025.339 0 .665-.013.326-.025.326-.012.665-.037.326-.025.326-.013.665-.038.326-.025.326-.087.652-.099.326-.025.339.025.665 0s.338 0 .665-.025c.326-.025.326-.137.652-.162.326-.025.339.05.665.025s.338-.013.665-.037c.326-.025.326-.038.665-.063.326-.025.326-.05.652-.074.326-.025.338.024.665 0 .326-.025.326 0 .665-.025.326-.025.326-.063.652-.088.326-.024.326-.087.652-.112.326-.025.339.013.665 0 .326-.025.339 0 .665-.025.326-.024.326-.074.665-.087.326-.025.338.063.665.05.326-.025.326 0 .664-.025.326-.025.326-.05.665-.062l.665-.05c.326-.025.326-.037.665-.062.326-.025.326-.05.665-.075.338-.025.338-.012.665-.037.338-.025.338-.013.664-.038.34-.024.327-.074.665-.099.326-.025.339.012.665 0 .339-.025.339.05.665.025.339-.025.326-.038.665-.063.326-.024.326-.112.652-.137.326-.024.339.013.665 0 .326-.024.339.013.665 0 .326-.024.326-.024.665-.037.326-.025.326-.087.652-.112.326-.025.339.037.665.012.339-.024.326-.087.665-.112.326-.025.338-.012.665-.037.338-.025.338.037.664 0 .34-.025.34.025.665 0 .326-.025.326-.05.665-.075.339-.025.339 0 .665-.025.339-.025.326-.112.665-.137.338-.025.338.025.665 0 .338-.025.338-.025.664-.037.34-.025.34 0 .665-.025.34-.025.326-.062.665-.087.326-.025.326-.012.652-.037.327-.025.327-.063.653-.088.326-.024.326-.012.652-.037.326-.025.339.062.665.037l.652-.049c.326-.025.339 0 .665-.025s.326-.137.652-.162l.665-.05c.326-.025.326 0 .665-.012.326-.025.339.049.665.024.326-.024.326-.124.652-.149.326-.025.339.05.665.025s.326-.05.652-.075c.327-.025.339 0 .665-.025s.326 0 .665-.037.326-.062.652-.087c.327-.025.339.012.665 0 .326-.013.326-.1.653-.125l.664-.05c.327-.024.327 0 .665-.024.339-.025.326-.05.665-.075.326-.025.339.025.665 0s.326.012.665 0c.326-.025.326-.05.652-.062.326-.025.326 0 .665-.025.326-.025.326-.038.665-.063.326-.025.326-.037.665-.062.326-.025.326 0 .665-.025.326-.025.326-.062.664-.075.327-.024.327-.037.665-.062.326-.025.326-.05.665-.075.326-.024.339.05.665.025s.339-.012.665-.037c.326-.025.338-.012.665-.037.326-.025.326-.137.652-.162.339-.025.339.087.677.062.339-.025.326-.112.665-.137.326-.025.339.05.665.025l.665-.05c.339-.025.326-.037.665-.062.338-.025.326-.087.665-.112.338-.025.338-.038.664-.05.339-.025.339-.025.665-.037.339-.025.339.087.678.062l.665-.05c.338-.025.338-.025.664-.037.339-.025.339-.05.665-.075.339-.025.326-.075.665-.1.339-.025.339-.037.665-.062.339-.025.339 0 .665-.037l.665-.05c.338-.025.338.025.677 0s.326-.062.665-.087l.665-.05.665-.05c.338-.025.338 0 .664-.025.339-.025.339-.012.678-.037.339-.025.339 0 .665-.025.338-.025.326-.112.665-.137.338-.025.338.025.664 0 .339-.025.339.012.678 0 .338-.025.326-.075.665-.1.338-.025.338.025.677 0s.339 0 .677-.012c.339-.025.327-.1.665-.125.339-.025.339.05.678.025.338-.025.326-.099.664-.124.339-.025.339-.013.665-.038.339-.025.339.025.678 0 .338-.025.338-.037.677-.062s.339 0 .677-.025c.189-.012.352-.137.477-.261.126-.137.239-.299.239-.486 0-.025-.026-.025-.026-.05 0-.149 0-.324-.087-.436-.126-.186-.276-.336-.402-.523-.125-.187-.251-.361-.364-.548-.112-.186-.25-.361-.363-.56-.113-.187-.189-.399-.301-.598-.101-.199-.176-.411-.264-.61-.1-.199-.188-.399-.288-.598-.088-.199-.251-.373-.339-.573-.088-.199-.151-.423-.226-.622-.075-.212-.138-.424-.213-.623-.075-.212-.088-.436-.151-.648l-.188-.635c-.063-.211-.1-.423-.15-.647-.051-.212-.201-.411-.251-.623-.05-.212-.113-.436-.151-.647-.037-.212-.062-.436-.088-.66-.037-.212-.062-.436-.1-.661-.025-.224.025-.448 0-.66-.025-.224-.05-.435-.063-.66 0-.224-.062-.435-.062-.66 0-.224-.038-.436-.038-.66 0-.323.063-.323.063-.647v-1.295c0-.324-.063-.324-.063-.66 0-.337.063-.324.063-.66 0-.337-.05-.324-.05-.66 0-.337.05-.324.05-.66 0-.337.05-.324.05-.66 0-.337-.075-.324-.075-.66 0-.337.012-.324.012-.66 0-.337.05-.324.05-.66 0-.337-.062-.324-.062-.66v-.66c0-.337.025-.324.025-.66 0-.337-.025-.324-.025-.648s-.013-.324-.013-.648v-.66c0-.336.088-.324.088-.66s-.013-.324-.013-.66-.037-.324-.037-.66-.013-.324-.013-.66-.025-.324-.025-.66.075-.324.075-.66.013-.324.013-.66.012-.324.012-.66-.037-.324-.037-.66-.025-.324-.025-.66c0-.2.1-.361.251-.498.15-.137.288-.287.451-.411.163-.125.301-.287.464-.411.163-.112.364-.187.54-.299.175-.1.364-.187.552-.286.188-.1.351-.212.552-.287.188-.087.389-.15.589-.224.201-.075.389-.15.59-.212.201-.062.376-.186.589-.236.201-.05.414-.1.615-.137.201-.038.427 0 .64-.025.213-.025.414 0 .627-.025.213-.012.427-.087.627-.087.214 0 .427-.025.64 0 .213.012.414.137.615.174.213.038.426.05.614.1.201.062.402.15.577.249.189.087.352.236.515.349.175.124.389.186.539.336.163.162.326.348.464.535.138.187.214.424.314.635.1.212.276.386.351.623.075.224.1.46.151.697.037.225.075.461.1.698.025.224.013.46.013.71 0 .323.012.323.012.66 0 .336-.025.323-.025.647s.038.324.038.648-.038.324-.038.647c0 .324.025.324.025.648v1.943c0 .323-.025.323-.025.647s.05.324.05.648-.05.324-.05.647c0 .324.05.324.05.648v1.295c0 .324-.05.324-.05.648 0 .323.013.323.013.66v1.295c0 .324-.026.324-.026.66s.063.324.063.66.038.324.038.66-.088.324-.088.66v.66c0 .212.038.436.038.648v.647c0 .212-.063.423-.076.648-.025.211-.062.423-.087.635-.026.211 0 .436-.038.647-.025.212-.025.436-.063.648-.037.212-.075.423-.125.635-.038.212-.163.411-.214.623-.05.211-.087.423-.137.635-.051.212-.101.423-.164.622-.062.212-.175.399-.238.598-.063.212-.113.424-.188.623s-.176.398-.251.598c-.075.199-.138.411-.213.61l-.264.598c-.087.199-.175.398-.263.585a8.073 8.073 0 01-.289.573 27.439 27.439 0 01-.639 1.133c-.101.187-.126.423-.239.61-.113.187-.288.336-.401.511a.75.75 0 00-.126.398v.424c0 .099.026.224.101.299.063.062.2.012.288 0 .339-.025.339.062.678.037.326-.025.326-.062.665-.075.338-.025.326-.087.664-.112.339-.025.339.025.665 0s.339 0 .665-.012c.339-.025.326-.1.665-.112.339-.025.339.074.677.049.339-.024.327-.087.665-.112.339-.025.339 0 .665 0 .339-.025.339.025.665 0 .339-.025.326-.112.665-.124.338-.025.338.025.677 0s.339 0 .665-.025c.339-.025.326-.087.665-.112.339-.025.339 0 .665-.025.338-.025.326-.075.665-.1.338-.025.338.038.677.013s.339 0 .665 0c.338-.025.338-.025.665-.038.338-.024.338-.062.664-.087.339-.025.339 0 .678-.012.339-.025.326-.112.665-.137.338-.025.338.062.677.037s.339 0 .665-.037c.339-.025.326-.087.665-.112.338-.025.338.037.677.025.339-.025.326-.063.665-.088.339-.024.339.013.677 0 .339-.024.339 0 .665-.037.339-.025.339-.05.665-.075.339-.025.339-.062.665-.087.339-.025.339.038.677.013.339-.025.339-.05.665-.075.339-.025.339-.075.665-.1.339-.025.339 0 .677-.025.189-.012.389-.062.515-.186.125-.137.175-.324.175-.523 0-.025.051-.025.051-.05 0-.162-.101-.312-.201-.436a8.309 8.309 0 01-.389-.548l-.376-.56c-.126-.187-.214-.399-.339-.586-.113-.187-.289-.348-.401-.548-.113-.199-.151-.436-.251-.635-.101-.199-.289-.361-.389-.56-.101-.199-.176-.411-.264-.623-.087-.212-.175-.411-.263-.623a19.819 19.819 0 01-.251-.622c-.075-.212-.088-.449-.15-.66-.076-.212-.164-.424-.226-.635-.063-.212-.101-.436-.163-.648-.051-.212-.201-.411-.251-.635-.05-.224 0-.461-.038-.685-.038-.224-.15-.436-.188-.648-.038-.224-.1-.435-.138-.66-.025-.224 0-.448-.025-.672-.025-.224-.025-.448-.038-.672-.012-.225-.1-.449-.113-.673 0-.224.076-.448.076-.672 0-.324-.063-.324-.063-.66v-1.32c0-.324-.013-.324-.013-.66v-.66c0-.324.101-.324.101-.66 0-.337-.05-.324-.05-.66 0-.337-.051-.325-.051-.66v-.66c0-.337.038-.337.038-.66 0-.325.05-.325.05-.66 0-.337-.012-.325-.012-.66v-.66c0-.337.025-.325.025-.66 0-.337-.088-.337-.088-.66v-.66c0-.325.063-.337.063-.66 0-.325.025-.337.025-.66v-.661c0-.324-.013-.336-.013-.66v-.66c0-.336-.012-.336-.012-.66s.025-.336.025-.66c0-.224-.063-.448-.088-.672a5.597 5.597 0 00-.088-.66 10.825 10.825 0 00-.1-.66c-.05-.225-.063-.449-.126-.66-.062-.212-.088-.449-.163-.66-.075-.212-.15-.424-.238-.636-.075-.212-.226-.386-.314-.597-.088-.2-.15-.424-.276-.623-.113-.187-.2-.411-.351-.598-.138-.187-.301-.349-.452-.523-.15-.174-.363-.299-.514-.46-.163-.175-.364-.312-.514-.462m-15.053-36.724c.05-.25.288-.374.439-.411.037 0 .087-.087.138-.087.087 0 .175.1.263.199.163.174.389.286.565.448.175.162.351.324.539.473.188.15.339.35.539.486.126.087.163.187.151.336-.013.187-.075.349-.251.436-.201.1-.401.212-.59.324-.2.112-.401.2-.589.324-.188.112-.364.261-.552.386-.188.124-.389.1-.577.062-.201-.05-.427-.112-.527-.286-.1-.162-.113-.399-.05-.61.075-.225.213-.424.276-.66.063-.225.025-.486.075-.71.05-.225.088-.461.138-.698m3.65 25.33c0-.224.088-.448.138-.685.051-.224.264-.423.502-.423.038 0 .076.087.113.087.264.05.552.037.816.087.263.037.539.087.802.112.201.025.389.112.577.125.201.012.389.025.59.025.201 0 .389-.038.59-.038.2 0 .388-.025.577-.037.225-.013.451-.013.677-.037.226-.025.439-.075.665-.113.213-.024.451 0 .677-.05.226-.037.427-.161.653-.198.213-.038.439-.063.664-.1.226-.05.465 0 .678-.05.213-.05.414-.187.64-.249.213-.05.451-.025.677-.075.213-.05.439-.1.652-.162.214-.062.402-.211.627-.274.214-.062.44-.1.653-.174.213-.062.439-.087.665-.15.213-.062.414-.186.639-.26.214-.076.452-.076.665-.15.201-.075.377-.212.577-.274.201-.063.414-.112.615-.175.213-.062.414-.124.615-.187.213-.062.414-.137.602-.199.213-.062.426-.087.627-.15.213-.061.414-.124.615-.173.213-.063.388-.212.589-.262.213-.062.439-.05.64-.1.213-.062.401-.199.59-.236.225-.05.439-.063.627-.1.251-.05.464-.062.627-.075.213-.012.426-.025.627-.025.213 0 .427-.024.64 0 .213.025.426.088.627.125.213.037.414.087.615.162.201.075.401.15.589.236.189.1.377.2.54.324.175.125.339.274.477.424.137.15.263.336.363.51.101.175.176.374.239.573.062.187.087.399.125.61.025.2.126.399.126.623 0 .237-.063.46-.101.685-.037.224-.1.448-.163.672-.063.225-.15.436-.238.648a5.644 5.644 0 01-.339.598c-.125.186-.213.398-.364.585-.138.174-.326.324-.489.486-.163.162-.288.348-.477.51-.175.15-.401.237-.589.374-.188.137-.339.311-.54.436-.188.112-.388.224-.577.336-.188.112-.401.187-.602.286-.201.1-.426.137-.627.237-.201.087-.389.2-.602.287-.201.074-.414.174-.627.249-.214.074-.439.087-.653.149-.213.062-.414.15-.639.212-.214.05-.427.087-.653.137-.213.05-.414.174-.639.211-.214.038-.44.063-.665.1-.214.037-.452 0-.678.025-.213.025-.426.162-.652.187-.226.025-.452-.013-.677 0-.226.025-.439.05-.678.062-.213.012-.439-.037-.652-.025-.213 0-.439.125-.652.125-.226 0-.439-.112-.653-.112-.226 0-.439.062-.652.062-.226 0-.439-.05-.652-.063-.226 0-.439-.024-.653-.05a11.737 11.737 0 01-.652-.099c-.213-.025-.439.025-.665-.012-.213-.038-.426-.137-.64-.175-.213-.037-.451 0-.652-.05-.213-.05-.414-.136-.627-.199-.213-.062-.427-.1-.627-.174-.214-.075-.414-.15-.615-.224-.201-.075-.401-.187-.59-.274-.2-.087-.388-.2-.577-.3-.2-.099-.401-.173-.577-.273-.188-.112-.338-.287-.501-.399-.189-.124-.402-.186-.565-.298-.176-.137-.351-.25-.502-.386-.163-.15-.288-.324-.426-.486-.151-.162-.314-.3-.427-.473-.125-.175-.175-.386-.276-.573-.1-.187-.15-.386-.213-.586-.063-.199-.15-.398-.176-.61-.037-.212-.1-.41-.1-.635m8.518-35.454c0-.225.062-.436.062-.66 0-.225-.05-.436-.05-.66 0-.225.101-.436.101-.648 0-.224-.051-.436-.038-.66.013-.224.038-.436.05-.66.013-.224.113-.436.126-.648l.075-.647c.025-.224.012-.449.05-.648.038-.224.063-.436.1-.647.038-.225.101-.436.151-.635.05-.225.063-.436.125-.636.063-.224.163-.41.239-.61.075-.212.062-.448.138-.647.088-.212.2-.399.301-.586.113-.212.301-.36.426-.548.138-.199.201-.436.352-.61.163-.174.388-.274.564-.41a3.52 3.52 0 01.564-.387c.201-.124.364-.311.578-.398.213-.088.439-.15.664-.212.214-.062.452-.062.69-.1.226-.037.452-.112.69-.124.226-.013.452.05.665.062.226 0 .452-.05.665-.025.226.037.439.1.64.162.213.062.414.162.614.249.201.1.389.2.565.336.175.125.313.3.477.461.15.15.288.324.414.498.125.174.326.311.426.51.1.175.125.4.213.599.076.186.239.36.314.56.063.187.1.41.163.623.05.199.088.41.138.622.05.2.1.411.138.623.038.2.113.41.138.623.038.211.025.423.05.635.025.211.05.41.075.635.025.211.051.423.063.635.013.212.038.423.05.635l.038.635v.635c0 .212-.013.424-.013.635 0 .212-.012.424-.012.636 0 .236.075.46.075.684 0 .237-.063.461-.063.685 0 .237-.037.461-.05.685 0 .237-.025.461-.037.685-.013.237-.038.461-.063.685-.025.237 0 .46-.025.685-.025.237-.088.448-.126.673-.037.236-.012.46-.05.684-.038.225-.15.436-.201.66-.05.225-.05.461-.1.673-.063.224-.138.448-.201.648-.075.224-.188.423-.263.622-.088.224-.238.399-.339.586-.113.211-.188.423-.326.61-.138.199-.263.386-.414.56-.15.175-.351.287-.527.436-.175.15-.338.299-.539.423a4.006 4.006 0 01-.615.3c-.213.086-.401.236-.627.298-.213.063-.452.087-.677.125-.226.037-.465 0-.69 0-.226.012-.452.124-.653.124-.225 0-.439-.087-.652-.112a3.766 3.766 0 01-.652-.124c-.214-.063-.402-.187-.59-.287-.201-.087-.439-.112-.627-.236-.176-.125-.276-.35-.439-.498-.151-.15-.351-.262-.489-.449-.126-.174-.214-.373-.327-.56-.1-.187-.213-.386-.301-.598-.087-.2-.138-.41-.213-.635-.075-.2-.213-.399-.276-.623-.063-.212-.05-.436-.1-.672-.05-.212-.176-.411-.213-.635-.038-.212-.038-.436-.076-.673-.037-.212-.087-.436-.113-.66-.025-.212-.037-.436-.05-.672-.025-.224 0-.449-.025-.673-.012-.224 0-.448-.025-.672 0-.224-.05-.436-.063-.673 0-.224.063-.448.063-.672 0-.224-.113-.449-.113-.673m-28.363 7.373c0 .224-.062.435-.062.66 0 .224.062.436.05.66 0 .224-.088.435-.1.647 0 .224.05.436.05.66 0 .224-.025.436-.038.648 0 .224-.088.436-.1.647 0 .225-.025.436-.038.648-.012.212.013.436 0 .648l-.038.647c-.012.212-.062.436-.075.648-.025.211 0 .436-.037.647-.025.224-.101.424-.126.635-.025.224.038.449 0 .66-.025.212-.088.436-.113.648-.037.212-.15.423-.188.623-.038.211.025.448-.025.66-.038.211-.176.41-.213.622l-.151.635c-.05.212-.012.449-.075.648-.063.212-.138.411-.201.623-.062.211-.175.398-.238.597-.075.212-.1.424-.176.623-.075.212-.238.386-.313.573-.088.212-.113.436-.214.623-.1.199-.225.386-.338.572-.113.2-.239.374-.364.548a5.788 5.788 0 01-.389.523c-.138.175-.314.312-.464.461a4.146 4.146 0 01-.489.436c-.176.137-.301.336-.49.448-.188.113-.414.15-.614.25-.201.087-.377.249-.59.31-.201.063-.426.088-.652.125-.213.038-.439.05-.652.063-.226.012-.452.024-.678.012-.226 0-.464 0-.677-.037-.226-.038-.439-.137-.653-.2a5.58 5.58 0 01-.627-.261 4.1 4.1 0 01-.577-.361c-.175-.137-.351-.274-.514-.436a8.725 8.725 0 01-.464-.498c-.138-.175-.251-.361-.389-.56-.113-.175-.213-.387-.326-.586-.101-.187-.188-.398-.289-.61-.088-.2-.263-.374-.338-.585-.088-.2-.113-.436-.189-.648-.075-.2-.125-.423-.188-.648a43.82 43.82 0 01-.188-.647c-.05-.212-.1-.424-.15-.648-.051-.211-.138-.423-.189-.647-.05-.212-.05-.436-.1-.66-.038-.212-.125-.424-.163-.648-.038-.212 0-.448-.038-.672-.025-.212-.125-.436-.15-.66l-.076-.66c-.025-.212-.012-.449-.037-.673-.025-.224 0-.448 0-.672-.025-.224-.075-.436-.088-.66-.012-.224-.05-.436-.063-.673-.012-.224.025-.448.013-.672 0-.224-.05-.436-.063-.66v-.673c0-.224-.088-.448-.1-.672v-.673c0-.224.063-.448.063-.672 0-.224-.113-.449-.113-.673 0-.224.062-.436.062-.66 0-.224-.012-.436 0-.647 0-.224.063-.436.076-.648 0-.224-.101-.436-.088-.66 0-.212.125-.436.138-.648 0-.224-.05-.435-.038-.647 0-.212.063-.436.075-.648l.038-.647c.013-.212.063-.436.075-.648.013-.212-.037-.436-.025-.647.025-.224.113-.424.126-.635.025-.225-.038-.449-.013-.66.025-.225.088-.424.113-.636.025-.211.038-.436.063-.647l.113-.635c.037-.212.1-.424.138-.636.037-.211.1-.423.15-.635.05-.211.063-.435.113-.635.05-.211.176-.41.226-.61.063-.212.037-.436.1-.648.063-.211.101-.423.176-.622.063-.212.175-.399.251-.598.075-.212.125-.423.2-.623.088-.211.239-.386.327-.572.1-.2.213-.387.326-.573.113-.2.2-.399.313-.573.126-.187.289-.336.414-.498.138-.175.276-.349.427-.498.15-.162.276-.361.439-.486.175-.137.364-.25.552-.361.188-.112.401-.175.602-.262.201-.087.401-.174.602-.249.201-.062.401-.174.627-.212a5.8 5.8 0 01.653-.074c.138 0 .276.087.414.087.213 0 .439-.1.652-.075.213.025.401.175.615.224a3.5 3.5 0 01.602.212c.2.087.426.087.614.2.176.111.314.286.49.423.163.137.363.236.514.386.138.15.288.311.426.486.126.161.189.386.314.56.113.174.213.361.326.548.1.187.213.361.301.56.088.187.201.374.276.573.088.2.113.424.188.648.076.199.214.386.289.61.063.212.113.423.175.647.063.212.051.436.113.66.051.212.088.436.138.648.051.212.138.424.189.648.037.211.112.423.15.647.038.212.038.436.075.66.038.212.088.436.113.66.025.224.088.436.113.66.025.212-.037.449-.012.673l.075.66c.025.224.025.436.05.672.013.224.025.449.05.673.013.224.05.436.063.672 0 .224-.025.448-.013.673 0 .224 0 .448.013.672 0 .224.1.436.1.673 0 .224-.037.448-.037.672 0 .224.037.448.037.673 0 .224.05.448.05.672m-45.31 3.064c0 .224-.062.435-.062.647 0 .224.062.436.05.66 0 .224-.088.436-.088.648 0 .224.05.436.05.647 0 .224-.025.436-.037.648 0 .224-.088.436-.1.648 0 .211-.026.435-.038.647-.013.224.012.436 0 .648l-.038.647c-.013.212-.063.436-.075.648-.025.212 0 .436-.038.647-.025.212-.1.424-.125.635-.026.225.037.449 0 .66-.026.225-.088.436-.113.648-.038.224-.15.423-.189.623-.037.211.026.448-.025.66-.037.211-.175.41-.213.622l-.15.636c-.05.211-.013.448-.076.647-.062.212-.138.411-.2.623-.063.212-.176.398-.239.598-.075.211-.1.435-.175.622-.075.212-.239.386-.314.573-.088.212-.113.436-.213.623-.1.199-.226.386-.339.572a5.87 5.87 0 01-.364.549 5.53 5.53 0 01-.389.522c-.137.175-.313.312-.464.461-.163.162-.326.3-.489.436-.175.137-.3.336-.49.449-.187.112-.413.149-.614.248-.2.088-.376.25-.59.312-.2.062-.438.087-.652.124-.213.038-.439.05-.652.063-.226.012-.451.025-.677 0-.226 0-.465 0-.678-.038-.225-.037-.439-.137-.652-.199a3.993 3.993 0 01-.627-.274 3.44 3.44 0 01-.577-.361 8.118 8.118 0 01-.527-.436 5.787 5.787 0 01-.452-.498c-.138-.174-.25-.361-.389-.56-.125-.187-.213-.386-.326-.586-.1-.187-.188-.398-.288-.61-.088-.2-.251-.374-.339-.585-.075-.2-.113-.436-.188-.648-.075-.2-.126-.423-.188-.647-.063-.212-.126-.424-.176-.648-.05-.212-.1-.423-.15-.648-.05-.211-.138-.423-.189-.647-.05-.212-.05-.436-.1-.66-.038-.212-.125-.424-.163-.648-.038-.211 0-.448-.038-.672-.037-.212-.125-.436-.15-.66l-.076-.66c-.025-.212-.012-.449-.037-.673-.025-.224 0-.448 0-.672-.025-.224-.075-.436-.088-.66-.013-.224-.05-.436-.063-.673-.012-.224.025-.448.013-.672 0-.224-.05-.436-.063-.66v-.673c0-.224-.088-.448-.1-.672v-.673c0-.224.063-.448.063-.672 0-.224-.113-.449-.113-.673 0-.224.062-.435.062-.647v-.648c0-.224.063-.436.076-.647 0-.224-.1-.436-.088-.648 0-.224.125-.436.138-.648 0-.224-.05-.435-.038-.647 0-.224.063-.436.075-.648l.038-.647c.013-.212.063-.436.075-.648.013-.212-.037-.436-.025-.647.025-.224.1-.424.126-.635.025-.225-.038-.449-.013-.66.025-.212.088-.424.113-.636.025-.211.038-.435.075-.647l.113-.635c.038-.212.1-.424.138-.635.038-.212.1-.424.15-.636.05-.211.063-.435.114-.635.05-.211.175-.41.225-.61.05-.212.038-.436.1-.647.064-.212.101-.424.164-.623.063-.212.175-.399.25-.598.076-.211.126-.423.201-.622.088-.212.239-.387.327-.573.1-.2.213-.386.326-.573.113-.2.2-.399.313-.573.126-.187.289-.336.414-.498.138-.175.276-.349.427-.498.15-.162.276-.361.439-.486.175-.137.364-.25.552-.361.188-.112.401-.175.602-.262.2-.087.401-.174.602-.249.2-.062.401-.174.627-.211.214-.038.44-.063.653-.075.138 0 .276.087.414.087.225 0 .439-.1.652-.075.213.025.414.175.615.224a3.5 3.5 0 01.602.212c.2.087.426.1.614.212.176.112.314.286.49.423.163.137.363.237.514.386.138.15.288.312.426.486.126.162.201.374.314.56.113.175.213.362.326.548.1.187.213.361.301.56.088.188.2.374.276.574.088.199.113.423.188.647.076.2.214.386.289.61.063.212.113.424.175.648.063.212.05.436.113.66.05.212.088.436.126.66.05.212.138.423.188.648.038.211.113.423.15.647.038.212.038.436.076.66.037.212.088.436.113.66.025.212.088.436.113.66.025.224-.038.448-.013.673l.075.66c.013.224.025.448.05.672.013.224.026.449.05.673.013.224.05.436.063.672.013.224-.025.449-.012.673 0 .224 0 .448.012.672 0 .224.1.436.113.673 0 .224-.037.448-.037.672 0 .224.037.448.05.673 0 .224.05.448.05.672M35.914 25.106c-.062.224-.188.423-.276.647-.075.225-.1.461-.188.673-.088.212-.263.386-.364.598-.1.211-.163.435-.288.635a9.595 9.595 0 01-.389.573c-.138.186-.339.323-.477.51-.15.175-.3.349-.476.523-.163.162-.301.361-.49.51-.175.15-.35.312-.539.45a9.51 9.51 0 01-.59.385c-.2.125-.376.274-.59.386-.2.112-.438.175-.651.274-.189.087-.352.262-.565.337-.2.074-.414.124-.615.199-.2.062-.426.05-.64.1-.2.062-.388.199-.602.248-.213.05-.439 0-.652.038-.213.037-.426.062-.64.087-.213.025-.414.15-.627.162-.213.025-.426.025-.652.037-.351.025-.351-.025-.715 0-.351.025-.351.075-.703.1-.35.025-.363-.05-.715-.025-.35.025-.35.1-.702.125-.15.012-.289-.063-.402-.162a.534.534 0 01-.15-.386v-.66c0-.324.038-.337.038-.66v-.66c0-.324-.088-.337-.088-.66 0-.324.075-.337.075-.66 0-.324-.088-.324-.088-.66 0-.337.025-.324.025-.66 0-.337.013-.337.013-.66v-.66c0-.325-.038-.337-.038-.66 0-.325.025-.337.025-.66v-2.64c0-.325.025-.337.025-.66 0-.325.026-.337.026-.66 0-.325.025-.337.025-.66 0-.325-.088-.337-.088-.661s.05-.336.05-.66.025-.336.025-.66v-1.32c0-.324-.05-.336-.05-.66s.038-.336.038-.66-.05-.336-.05-.66.062-.336.062-.66-.063-.336-.063-.66v-.66c0-.324.038-.336.038-.673 0-.336.05-.336.05-.672s-.037-.336-.037-.673c0-.186.062-.36.188-.498.125-.137.3-.162.489-.174.351-.025.351-.062.702-.075.352-.025.352 0 .703-.037.351-.025.351-.1.702-.125.352-.025.352 0 .715-.025.352-.025.364.05.715.025.214-.012.402-.137.602-.137.214 0 .414.05.615.05h.627c.214 0 .414.087.615.1.213.012.427-.063.627-.038.213.025.402.175.59.224.213.05.426.025.614.088.201.062.39.162.578.236.2.075.389.15.577.237.188.087.363.212.539.311.188.1.401.15.577.262.176.124.301.299.464.436.163.137.376.211.514.36.151.15.264.325.402.486.125.162.276.324.389.499.113.174.213.36.326.547.1.187.176.387.263.573.088.187.15.386.226.586.075.199.176.386.226.598.063.199.05.423.088.635.05.199.163.398.2.597.038.212.1.411.139.623.037.212.012.423.05.635.025.212.088.411.1.623.025.212-.025.423-.012.635v.635c0 .212.05.423.05.635 0 .224-.038.448-.05.673 0 .224 0 .448-.013.672-.013.224.038.46 0 .685-.025.224-.075.448-.1.673-.026.224-.126.435-.163.66-.038.224-.076.448-.126.66-.05.224-.038.46-.088.672M22.755 60.025c-.15 0-.288-.1-.389-.187-.1-.1-.225-.224-.225-.373 0-.324.088-.324.088-.66 0-.337-.063-.324-.063-.66v-.66c0-.337.075-.324.075-.66v-.66c0-.337-.038-.337-.038-.66v-.66c0-.337.026-.325.026-.66 0-.337-.038-.325-.038-.66 0-.337.05-.337.05-.66 0-.325-.088-.337-.088-.66 0-.325.025-.337.025-.66 0-.325.088-.337.088-.66 0-.325-.1-.325-.1-.66 0-.337.088-.325.088-.66v-.66c0-.325-.088-.325-.088-.66 0-.337.025-.337.025-.66 0-.325.05-.337.05-.661s-.05-.336-.05-.66.075-.336.075-.66-.075-.324-.075-.66.025-.324.025-.66.012-.324.012-.66v-.66c0-.324.038-.336.038-.66v-.66c0-.324-.088-.336-.088-.66s.076-.336.076-.66-.088-.336-.088-.66.025-.337.025-.66c0-.324.012-.337.012-.66v-.66c0-.324-.037-.337-.037-.673s.037-.336.037-.66c0-.187.088-.386.201-.523a.776.776 0 01.502-.249l.652-.05.652-.05c.327-.024.327 0 .653-.024.326-.025.326 0 .652-.013.326-.025.326 0 .652-.025.264-.025.515-.112.766-.124.263 0 .526.037.777.037.239 0 .477.025.703.037.238 0 .464.025.702.05.239.013.465.05.69.075.239.025.477.012.703.062.238.038.451.125.677.174.226.05.477.063.69.125.2.062.376.187.577.262.2.074.414.1.602.174.201.087.377.187.565.274.188.1.351.224.527.336.175.112.326.262.489.386.175.125.364.224.514.349.163.137.326.261.477.41.163.163.288.374.439.561.15.175.314.349.452.536.137.187.25.398.363.598.113.199.301.373.402.585.1.212.175.436.263.66.088.212.088.46.163.685.063.199.213.373.276.573.05.199.038.41.075.622.038.2.1.399.126.61.037.2 0 .411.037.623.026.2.164.399.176.61.025.212-.075.424-.063.636.013.211.088.41.1.622 0 .212-.024.411-.024.623v.672c0 .224-.038.449-.05.673-.013.224.05.46.025.672-.026.224-.113.449-.138.66-.026.224.025.461-.013.685-.038.224-.113.436-.15.66-.05.224-.076.449-.126.66-.063.224-.125.436-.188.648-.063.212-.163.41-.238.623-.076.211-.176.398-.264.61-.088.199-.15.41-.25.61-.101.2-.264.349-.377.548-.113.187-.163.41-.289.598-.125.186-.238.373-.376.548-.138.174-.313.31-.451.473-.151.162-.277.36-.452.523-.163.15-.377.261-.552.41-.176.138-.364.262-.552.4-.188.124-.351.286-.552.41-.188.125-.414.2-.615.312-.2.1-.389.224-.602.323-.2.1-.389.25-.602.337-.2.087-.426.137-.64.224-.213.075-.439.087-.665.15-.213.061-.426.136-.652.186-.213.05-.414.162-.64.212-.213.05-.439.087-.664.124-.214.038-.452-.025-.69 0-.226.038-.427.175-.653.2-.226.024-.451-.063-.69-.038-.225.025-.451.038-.677.05-.351.025-.351.125-.703.15-.35.024-.363-.05-.715-.013-.35.025-.35.062-.702.112-.351.037-.351.037-.715.062"/><path d="M182.796 90.15a1.48 1.48 0 01.088-.748c.1-.224.275-.423.489-.56.2-.137.439-.25.702-.262.326-.025.326 0 .665-.025.326-.025.326-.012.652-.037.327-.025.327-.037.653-.062l.652-.05c.326-.025.326-.013.665-.037.326-.025.326-.013.665-.038l.665-.05.664-.05c.339-.024.327-.037.653-.05l.652-.049c.326-.025.326 0 .665-.025.326-.025.326-.037.652-.062s.326 0 .665-.025.326-.037.665-.05c.339-.012.326-.025.665-.05.326-.025.326 0 .665-.037.326-.025.326-.037.664-.05.339-.012.327 0 .665-.037l.665-.05.665-.05c.326-.025.326-.037.665-.05.326-.025.326 0 .665-.037.326-.025.326-.012.664-.037l.665-.05c.326-.025.326-.038.653-.05.326-.025.326-.012.664-.037l.665-.05c.339-.025.326 0 .665-.025.326-.025.326-.05.665-.075.326-.025.326-.025.665-.037.326-.025.339 0 .665-.025.338-.025.326-.037.665-.05.326-.025.338 0 .664-.037l.665-.05c.339-.025.326-.037.665-.062s.339 0 .665-.025c.213-.013.414-.087.577-.2.176-.112.301-.274.401-.448.101-.174.163-.373.151-.585 0-.212-.038-.424-.05-.635-.013-.212-.038-.424-.05-.635a11.53 11.53 0 00-.088-.635c-.025-.212-.05-.424-.088-.636-.038-.211-.075-.423-.125-.635-.038-.211-.076-.423-.126-.622-.05-.212-.1-.411-.163-.623-.063-.212-.138-.399-.213-.61-.063-.2-.126-.411-.201-.61-.075-.2-.163-.399-.251-.598-.088-.212-.163-.424-.263-.635-.101-.212-.214-.411-.314-.61-.1-.2-.213-.411-.326-.61-.113-.2-.213-.4-.339-.599-.125-.199-.251-.386-.376-.572-.125-.187-.276-.374-.414-.548-.138-.187-.289-.362-.427-.536l-.451-.523a9.198 9.198 0 00-.477-.498l-.489-.486h-.013c-.163-.137-.326-.274-.489-.423-.163-.137-.326-.286-.502-.423-.175-.137-.363-.25-.539-.374-.176-.125-.351-.262-.539-.374-.189-.112-.377-.236-.565-.336-.188-.112-.389-.2-.589-.299-.189-.1-.389-.2-.59-.299-.201-.1-.389-.199-.59-.286-.2-.087-.401-.162-.614-.25-.201-.074-.402-.174-.615-.248-.201-.075-.414-.125-.627-.2-.201-.062-.414-.136-.627-.186a11.585 11.585 0 00-.628-.162c-.213-.05-.426-.1-.639-.137-.214-.05-.427-.087-.64-.125a11.324 11.324 0 00-.64-.1c-.213-.024-.426-.037-.652-.062-.213-.025-.427-.062-.653-.074-.213-.013-.439-.013-.652-.025-.213 0-.426-.025-.652-.025-.213 0-.439-.013-.652-.013h-.653c-.213 0-.439.013-.652.025-.213 0-.439.013-.652.038-.226.012-.452.037-.678.05l-.677.074c-.226.025-.452.05-.678.087-.225.025-.451.063-.677.1l-.677.112c-.226.037-.452.075-.678.125-.225.05-.451.087-.665.15-.225.049-.439.124-.664.173-.226.063-.439.112-.665.175-.226.062-.439.124-.653.187-.213.062-.439.136-.652.211l-.64.224-.639.262c-.214.087-.427.174-.628.261-.213.088-.401.187-.614.287-.201.1-.414.187-.615.286-.201.1-.401.212-.59.324-.2.1-.401.212-.589.324-.201.112-.389.224-.59.336-.188.112-.389.224-.577.349a8.63 8.63 0 00-.552.386c-.188.124-.363.261-.539.398-.188.137-.364.262-.539.399-.176.137-.352.286-.527.423-.176.137-.339.287-.515.436-.175.15-.326.311-.489.46-.163.15-.326.312-.489.462-.151.15-.314.299-.464.46-.151.162-.276.337-.427.499-.15.162-.301.323-.439.485-.138.175-.276.349-.401.51-.138.175-.276.337-.402.524-.125.187-.238.374-.363.548-.126.174-.264.349-.377.535-.113.187-.213.374-.326.56l-.339.561c-.1.187-.213.386-.313.585-.101.2-.201.386-.289.586-.1.199-.175.398-.263.598-.088.199-.188.398-.264.597-.075.2-.138.399-.213.598-.075.2-.15.398-.213.598-.063.199-.126.41-.188.61-.063.2-.126.411-.176.61-.05.2-.113.411-.163.623-.05.212-.1.41-.151.623-.05.211-.075.41-.125.622-.038.212-.088.411-.125.623-.038.212-.051.423-.076.635-.025.212-.05.423-.062.635-.025.212-.051.424-.063.635l-.038.635c0 .212-.025.424-.037.635 0 .212-.013.424-.013.636 0 .224 0 .46.013.684 0 .225 0 .461.025.685.012.225.037.461.05.685.025.224.05.449.088.673.025.224.05.448.088.672.037.224.062.449.1.673.038.224.088.448.138.672.05.224.113.436.163.66.05.224.113.436.176.66.062.225.112.436.188.66.075.212.163.424.251.636.075.211.138.435.225.635.088.211.189.423.276.622.101.212.214.399.327.61.1.2.2.411.313.611.113.199.238.386.364.585.125.199.251.386.376.573.126.187.251.386.377.573.138.186.276.361.414.548.138.174.288.348.439.523.15.174.301.336.464.498.15.162.313.336.476.498.164.162.339.299.515.461.163.137.326.286.489.423.163.137.326.287.502.411.175.125.351.262.527.386.175.125.363.237.539.349.188.112.376.224.552.336.188.112.364.224.564.324.189.099.389.199.577.299.189.099.389.187.59.274.201.087.389.187.59.274.2.087.401.162.602.236.2.075.401.15.614.224.201.075.414.137.615.2.213.062.439.124.665.187.226.062.439.124.665.174l.677.149c.226.05.452.063.69.112.226.038.452.088.678.112l.689.075.69.075c.226.012.465.012.69.025.226 0 .465.037.69.05.226 0 .464-.013.69-.013h1.355c.226 0 .452-.025.677-.037.226-.013.452-.05.678-.062.226-.025.451-.025.677-.05.226-.025.452-.038.678-.063.225-.024.451-.062.664-.087.226-.037.452-.074.665-.112.226-.037.439-.087.665-.124.226-.05.439-.075.665-.125.226-.05.439-.1.652-.162.226-.05.439-.099.653-.162.213-.062.439-.124.652-.186.213-.063.426-.137.627-.2.213-.062.414-.137.627-.211.214-.075.414-.15.628-.225.213-.074.414-.161.614-.249.201-.087.402-.186.602-.274.201-.087.402-.174.602-.274.201-.099.402-.186.603-.286.2-.1.388-.224.577-.324l.564-.336c.201-.125.414-.237.602-.361.188-.125.389-.274.577-.411.188-.137.402-.262.59-.399.188-.137.376-.286.564-.436.189-.149.364-.298.54-.448.175-.149.364-.299.539-.461.176-.161.351-.311.515-.473.175-.162.326-.336.489-.51.15-.15.288-.312.439-.461.138-.15.276-.312.426-.473.138-.162.289-.312.427-.474.138-.162.276-.323.401-.485l.389-.498c.126-.162.251-.337.376-.511.126-.174.251-.336.377-.511.125-.174.238-.348.351-.523.125-.174.238-.348.351-.535a.333.333 0 00-.075-.46c-.113-.076-.113-.076-.213-.15a1.172 1.172 0 00-.665-.212 1.22 1.22 0 00-.678.2c-.15.099-.288.223-.451.323-.151.1-.326.174-.489.286-.151.1-.301.212-.464.312-.189.112-.389.211-.59.311-.188.1-.401.199-.602.299-.201.1-.402.187-.615.286-.201.088-.414.175-.615.262-.188.075-.376.162-.577.237-.188.074-.388.136-.589.199-.201.062-.389.124-.59.174-.2.062-.389.125-.589.174-.201.05-.402.113-.602.15-.226.05-.452.087-.678.137-.226.05-.451.099-.69.137-.226.037-.451.075-.69.099-.226.025-.464.063-.69.088-.225.025-.464.025-.702.049-.226.013-.452.05-.678.05h-.677c-.226 0-.452-.012-.677-.025-.226 0-.452-.025-.678-.037-.226-.025-.451-.062-.677-.087-.226-.038-.452-.075-.665-.112-.226-.05-.452-.087-.665-.15a42.96 42.96 0 01-.652-.186c-.226-.075-.439-.15-.652-.225-.214-.087-.427-.186-.628-.274a9.04 9.04 0 01-.614-.311c-.201-.112-.402-.224-.59-.349a5.64 5.64 0 01-.552-.411 6.099 6.099 0 01-.527-.436 8.595 8.595 0 01-.501-.473 14.67 14.67 0 01-.452-.46c-.138-.162-.289-.312-.427-.486-.138-.162-.263-.336-.388-.51a7.889 7.889 0 01-.364-.536 21.215 21.215 0 01-.339-.548c-.1-.187-.201-.386-.288-.573-.088-.2-.176-.386-.251-.598a5.406 5.406 0 01-.188-.61c-.051-.212-.088-.423-.138-.623-.051-.211-.126-.41-.164-.61-.05-.212-.1-.41-.138-.622-.05-.212-.075-.424-.125-.623-.038-.212-.088-.424-.125-.623-.038-.212-.063-.423-.101-.623-.037-.224-.088-.423-.125-.622-.038-.224-.05-.436-.075-.623m-.189-4.11v-.66c0-.224.038-.435.038-.66 0-.224 0-.448.025-.66.013-.224.038-.435.063-.66.012-.224.037-.435.05-.647.025-.224.025-.436.05-.648l.075-.647c.026-.224.063-.436.088-.648l.113-.685c.038-.236.063-.46.113-.685.038-.224.088-.46.125-.672.051-.224.088-.46.138-.673.051-.224.101-.46.164-.672.062-.224.15-.448.213-.66.075-.224.125-.449.2-.66.076-.224.176-.436.264-.648a5.05 5.05 0 01.288-.635c.113-.212.226-.41.339-.61.126-.2.264-.386.402-.56.15-.187.301-.362.451-.523.163-.162.351-.3.54-.436a4.04 4.04 0 01.589-.35 3.16 3.16 0 01.652-.223c.214-.05.452-.1.678-.112h.313a3.874 3.874 0 011.305.236c.201.087.401.175.59.3.175.124.338.273.501.448.138.161.289.323.414.523.113.174.214.373.314.585.1.187.201.386.288.61.076.187.138.374.201.585.063.187.101.399.151.598.05.187.113.386.15.598.038.2.076.398.113.61.038.2.075.399.113.61.025.2.075.399.1.61.026.2.038.412.063.623l.075.71.076.71c.012.236.012.473.025.71.012.224.025.46 0 .685a4.34 4.34 0 01-.377 1.307 4.43 4.43 0 01-.351.585 4.457 4.457 0 01-.426.536 5.931 5.931 0 01-.502.46 4.59 4.59 0 01-.565.4c-.2.124-.388.248-.602.335a5.71 5.71 0 01-.652.225 3.83 3.83 0 01-.677.15c-.314.037-.314.024-.628.061-.313.05-.313.063-.627.1-.313.05-.313.037-.627.087-.314.038-.314.025-.64.075-.313.037-.313.037-.627.087l-.627.1c-.314.05-.314.05-.627.087-.314.05-.314.037-.64.087l-.64.1a.558.558 0 01-.414-.137.509.509 0 01-.176-.386m42.689-58.494l.665-.05.664-.05.665-.049c.326-.025.326 0 .665-.037l.665-.05c.326-.025.339-.013.665-.037l.665-.05.665-.05.664-.05c.327-.025.339-.012.665-.037l.665-.05c.326-.025.326-.037.665-.062.326-.025.326-.013.665-.038.338-.025.338-.012.665-.037.326-.025.326-.037.664-.062l.665-.05c.326-.025.339 0 .665-.025s.326-.037.665-.062c.326-.025.339 0 .665-.025l.665-.05c.326-.025.326-.037.665-.062.338-.025.338-.013.664-.038.327-.025.339-.012.665-.037.326-.025.326-.037.665-.05l.665-.05.665-.05c.326-.024.339 0 .665-.037l.665-.05.664-.05c.339-.024.339-.024.665-.05.326-.024.326-.024.665-.037.339-.024.326-.024.665-.05l.665-.05c.338-.024.338 0 .665-.037.338-.024.338-.037.664-.05.339-.024.339 0 .665-.024.214-.013.402-.1.577-.212.176-.112.327-.262.414-.436a1.03 1.03 0 00.138-.585c0-.212-.025-.424-.037-.648-.013-.212-.051-.423-.076-.635-.025-.212-.037-.423-.062-.635-.025-.212-.076-.423-.113-.635-.038-.212-.05-.424-.101-.635-.05-.212-.112-.411-.163-.623-.05-.212-.1-.41-.15-.623-.063-.211-.126-.41-.188-.61-.063-.199-.138-.41-.201-.61-.075-.2-.163-.398-.251-.598-.088-.212-.163-.436-.263-.635a9.608 9.608 0 00-.314-.61c-.1-.2-.213-.399-.326-.598a9.291 9.291 0 00-.351-.585 22.99 22.99 0 00-.377-.573c-.125-.187-.276-.374-.414-.548a21.027 21.027 0 00-.414-.548 17.94 17.94 0 00-.451-.51c-.151-.162-.326-.324-.489-.486-.164-.162-.327-.324-.502-.473-.163-.15-.314-.3-.489-.436-.164-.137-.352-.262-.527-.399-.176-.137-.339-.274-.527-.398-.176-.125-.364-.25-.54-.374l-.564-.336c-.188-.112-.376-.212-.577-.324-.188-.1-.389-.212-.59-.299-.2-.1-.401-.162-.602-.261l-.602-.262c-.201-.087-.414-.162-.615-.236-.2-.075-.414-.137-.627-.212-.201-.062-.414-.137-.627-.187-.213-.062-.414-.124-.627-.174l-.64-.15c-.213-.05-.427-.062-.64-.1l-.64-.111c-.213-.025-.426-.063-.652-.088-.213-.024-.426-.05-.652-.074-.213-.013-.439 0-.652-.025-.214 0-.427-.038-.653-.038h-1.304c-.214 0-.439.013-.653.025-.213 0-.439.025-.652.038l-.677.037-.678.075c-.226.025-.451.05-.677.087-.226.025-.452.075-.678.112-.225.037-.451.062-.677.1-.226.037-.452.1-.665.15-.226.049-.451.086-.665.136-.225.05-.439.1-.664.162-.226.062-.44.137-.653.187a9.867 9.867 0 00-.652.199c-.213.062-.439.137-.652.2-.214.074-.427.149-.653.223-.213.075-.426.175-.639.262-.214.087-.427.174-.628.261a9.097 9.097 0 00-.614.287l-.602.299c-.201.1-.414.187-.603.286-.2.112-.388.237-.577.349-.2.112-.401.212-.589.336-.188.125-.377.25-.565.361-.188.125-.376.25-.552.374a8.837 8.837 0 00-.552.386c-.188.137-.351.274-.526.41-.176.138-.364.275-.527.412-.176.15-.339.299-.502.436-.163.15-.339.299-.502.448-.163.15-.314.311-.477.473l-.464.461c-.15.162-.301.311-.451.486l-.427.498c-.138.174-.263.349-.401.523-.138.174-.264.349-.402.523-.125.174-.251.361-.376.535-.125.175-.251.362-.376.536-.113.187-.214.386-.326.573-.113.187-.214.373-.327.573-.1.186-.225.373-.326.573-.1.199-.188.398-.276.597-.1.2-.2.386-.288.585-.088.2-.176.399-.251.61-.075.2-.138.4-.213.599-.076.199-.163.398-.226.597-.063.2-.126.399-.188.61-.063.2-.113.411-.163.61-.051.2-.126.412-.176.61-.05.213-.075.424-.126.624-.05.211-.087.41-.125.622-.038.212-.063.424-.1.635-.038.212-.076.424-.101.636l-.075.635c-.025.211-.05.423-.063.635-.012.211-.037.423-.05.635v.635c0 .212-.025.423-.025.635 0 .224.013.448.025.685 0 .224 0 .46.013.685 0 .224.037.448.062.685.026.224.038.448.063.672.025.225.038.461.075.673.038.224.063.448.113.672.038.224.088.449.138.673.05.224.101.448.163.66.063.224.113.436.176.66.063.212.138.436.213.647.076.212.138.436.214.648.075.212.175.41.263.623.088.211.176.423.276.622.1.212.176.424.288.623.101.2.226.398.339.598.113.199.213.398.326.597.126.2.239.386.377.573.125.187.276.361.414.548a16 16 0 00.853 1.083c.15.175.313.337.464.499.163.162.313.336.476.498.163.162.339.299.515.46.163.138.326.287.489.424.163.137.339.274.502.399.175.124.351.261.527.373.175.125.351.25.539.374.188.112.364.224.552.336.188.112.389.2.577.299.188.1.376.212.564.311.189.1.402.175.59.262.201.087.389.187.59.261.2.088.401.162.602.25.2.074.401.149.614.224.201.074.414.124.615.199.213.062.439.137.665.2.226.061.439.111.665.173l.677.15c.226.05.452.087.678.124.225.038.451.075.69.1.225.025.451.062.689.087l.69.075c.226.012.465.037.69.05h.69c.226 0 .464.025.69.025h.678c.225 0 .451-.013.677-.025.226 0 .452-.025.677-.038.226-.012.452-.037.678-.062.226-.025.451-.037.677-.062.226-.025.452-.062.665-.087l.665-.075c.226-.037.451-.075.665-.112a10.6 10.6 0 00.665-.125c.225-.037.439-.087.664-.124.226-.05.439-.087.665-.137.226-.05.439-.112.653-.175.213-.062.439-.124.652-.186l.64-.187c.213-.075.414-.15.627-.224.213-.075.414-.15.627-.224.201-.075.402-.175.602-.262.201-.087.414-.174.602-.261.201-.088.414-.175.602-.262.201-.1.389-.212.578-.324.2-.1.388-.2.589-.299l.565-.336c.2-.124.414-.236.602-.361.2-.125.376-.274.577-.411.188-.137.401-.25.589-.398.188-.138.364-.3.552-.436.188-.15.377-.287.552-.436.176-.15.351-.312.527-.461.176-.162.351-.311.514-.473.176-.162.327-.337.49-.51l.451-.45c.138-.149.276-.323.414-.485.138-.162.289-.311.427-.473.138-.162.263-.324.401-.486.138-.162.264-.324.402-.498l.388-.498c.126-.174.251-.336.377-.51.125-.175.238-.35.351-.524.125-.174.251-.336.364-.523.1-.15.05-.36-.101-.46-.1-.075-.112-.075-.213-.15a1.06 1.06 0 00-.652-.224 1.2 1.2 0 00-.665.212c-.151.1-.314.187-.477.299-.15.1-.313.199-.476.298-.151.1-.314.2-.477.3-.188.111-.389.211-.59.323-.188.1-.388.212-.589.299l-.602.299c-.201.087-.414.174-.628.261-.188.075-.388.137-.589.212-.188.075-.389.137-.59.2-.188.062-.389.136-.589.199-.201.062-.402.112-.602.174-.201.05-.402.087-.603.137-.225.05-.439.124-.677.174-.226.05-.452.063-.69.1-.226.037-.451.075-.69.1-.226.024-.451.074-.69.1-.226.024-.464.024-.702.049-.226.012-.452.037-.678.05-.225 0-.451.012-.677 0-.226 0-.452-.025-.677-.038-.226 0-.452-.025-.678-.05l-.677-.074c-.226-.037-.452-.062-.678-.112-.225-.05-.439-.1-.652-.162-.226-.05-.439-.1-.652-.174-.213-.075-.439-.15-.653-.237-.213-.087-.413-.187-.627-.287a7.202 7.202 0 01-.602-.31 9.034 9.034 0 01-.589-.35c-.189-.124-.389-.249-.565-.386-.188-.137-.351-.286-.527-.435a6.026 6.026 0 01-.502-.474c-.15-.15-.301-.298-.439-.473a7.656 7.656 0 01-.388-.51c-.126-.162-.264-.337-.377-.511-.125-.174-.238-.361-.351-.536-.113-.174-.213-.36-.326-.56a20.983 20.983 0 01-.301-.573c-.088-.187-.176-.386-.264-.585-.088-.2-.163-.399-.238-.598-.075-.187-.163-.386-.226-.585-.063-.2-.113-.399-.175-.61a8.428 8.428 0 01-.176-.61c-.05-.2-.088-.412-.138-.61-.05-.2-.1-.412-.138-.611-.038-.2-.05-.411-.088-.623-.025-.211-.088-.41-.113-.622-.025-.212-.037-.411-.063-.623-.188-1.818 1.255-1.607 1.255-1.607m-1.305-2.49v-.66c0-.224.025-.436.038-.66 0-.224.025-.436.038-.66l.037-.66c.013-.224.013-.436.038-.66l.075-.648c.025-.224.038-.436.063-.647.025-.225.075-.436.1-.648.038-.237.05-.46.075-.685.038-.236.088-.46.126-.685.038-.236.088-.46.125-.685l.151-.672c.05-.224.1-.461.15-.673a9.99 9.99 0 01.214-.66c.075-.224.138-.448.213-.66.075-.224.163-.448.251-.647.1-.225.201-.424.301-.623a6.98 6.98 0 01.351-.598c.126-.199.251-.398.389-.573.151-.186.314-.348.477-.51.163-.162.338-.312.527-.449a3.57 3.57 0 01.589-.36c.213-.1.427-.175.652-.225a4.03 4.03 0 01.678-.087c.1 0 .213-.025.313-.025.226 0 .452.037.665.075.226.037.439.1.64.187s.401.186.59.31c.175.125.338.275.501.45.138.161.276.335.402.535.113.174.238.36.351.573a9.833 9.833 0 01.464 1.208c.063.186.126.386.176.597.05.187.1.399.138.598.037.2.075.399.113.61.037.2.062.399.1.61.025.2.075.399.1.61.025.2.038.412.063.623.025.224.05.461.063.71.025.237.037.473.05.71.013.237.05.473.063.71.012.224 0 .46-.038.685a4.294 4.294 0 01-.125.672 3.993 3.993 0 01-.251.635c-.101.2-.213.411-.339.598a4.457 4.457 0 01-.426.536c-.151.174-.327.311-.515.46a4.033 4.033 0 01-1.166.722c-.214.088-.427.188-.64.25-.213.062-.452.1-.678.124-.313.038-.313.063-.627.1-.313.05-.313.025-.64.075-.313.05-.313.037-.627.087-.313.037-.313.062-.627.1-.314.05-.314.037-.627.087l-.64.074c-.314.05-.314.038-.64.075-.313.037-.313.05-.639.087-.327.038-.314.05-.64.087-.151.013-.301-.012-.414-.124a.465.465 0 01-.151-.386z"/></g><defs><clipPath id="clip0_2036_3749"><path fill="#fff" d="M0 0h250.435v120H0z"/></clipPath></defs></svg>