<svg width="95" height="45" fill="none" xmlns="http://www.w3.org/2000/svg"><g clip-path="url(#clip0_4008_490)" fill="#000"><path d="M36.865 27.6a2.786 2.786 0 00.39.252c.066.037.138.07.21.098.07.033.142.06.218.084.072.023.148.051.224.07.08.023.162.042.247.056a3.347 3.347 0 00.505.065h.252c.105 0 .204 0 .314-.009.09-.005.18-.019.271-.028.09-.01.181-.023.271-.042.09-.019.181-.037.267-.06a4.25 4.25 0 00.262-.075c.085-.028.17-.061.257-.094.076-.033.152-.065.228-.103.076-.037.152-.074.224-.112.071-.042.142-.088.209-.13.071-.047.138-.094.205-.14.066-.052.133-.103.19-.155.057-.051.114-.107.171-.163a2.34 2.34 0 00.152-.178c.048-.06.096-.12.143-.186.043-.066.086-.131.124-.196a3.36 3.36 0 00.11-.206c.033-.075.061-.15.09-.224.028-.075.047-.154.066-.229.02-.08.039-.154.048-.233.014-.08.024-.16.029-.239.004-.079.014-.158.014-.238 0-.08 0-.154-.01-.229-.004-.074-.019-.149-.028-.224a2.986 2.986 0 00-.053-.22 1.675 1.675 0 00-.066-.219 4.86 4.86 0 00-.095-.21 2.45 2.45 0 00-.305-.467 1.923 1.923 0 00-.19-.2 2.508 2.508 0 00-.21-.183c-.061-.047-.123-.098-.19-.14a2.738 2.738 0 00-.204-.121c-.067-.038-.143-.07-.215-.103a2.478 2.478 0 00-.223-.093c-.076-.029-.153-.052-.229-.075a4.34 4.34 0 00-.261-.06 2.424 2.424 0 00-.267-.043 4.684 4.684 0 00-.266-.023c-.09 0-.181-.01-.272-.01-.09 0-.18.005-.27.014a5.39 5.39 0 00-.272.024c-.09.01-.18.028-.267.042l-.266.056c-.09.023-.176.046-.262.075-.085.028-.171.06-.252.098a3.254 3.254 0 00-.224.102 3.225 3.225 0 00-.428.248c-.067.047-.133.093-.2.145a2.058 2.058 0 00-.185.158 5.472 5.472 0 00-.167.168 2.748 2.748 0 00-.152.178c-.048.06-.09.126-.133.191-.043.066-.086.131-.124.201-.038.07-.076.136-.11.206a1.82 1.82 0 00-.085.22 1.925 1.925 0 00-.072.223 3.637 3.637 0 00-.052.23c-.014.074-.019.153-.029.233-.004.08-.014.154-.014.233 0 .08 0 .159.01.234.005.08.014.159.028.233.015.08.029.154.048.229a2.033 2.033 0 00.166.439c.043.084.086.163.138.238.048.08.105.15.162.224.057.07.12.14.186.206.066.065.138.121.21.177"/><path d="M61.052 28.3c-.08-.075-.08-.196-.047-.285.033-.088.114-.177.228-.187.1 0 .2.024.305.015.1-.005.2-.033.3-.043l.252-.014c.085-.004.171.014.257.005.085-.01.17-.014.252-.023.086-.01.166-.033.252-.042.086-.01.167-.024.252-.033.086-.01.172-.014.252-.028.086-.014.167-.037.248-.051.085-.014.171-.01.252-.024.086-.014.162-.065.243-.08.08-.018.166-.023.247-.041.081-.019.171 0 .257-.024.081-.018.157-.074.238-.093.081-.019.171-.01.252-.033.081-.023.162-.042.243-.065.08-.023.152-.08.233-.107.081-.024.162-.042.243-.07.08-.028.166-.038.242-.066.081-.028.153-.075.234-.107.08-.028.166-.033.247-.066.076-.032.143-.093.219-.126.076-.032.157-.06.233-.093.076-.033.157-.065.229-.103.076-.037.147-.08.223-.117.076-.037.157-.065.229-.107.071-.042.147-.08.219-.121.071-.042.123-.117.195-.16.071-.046.157-.064.228-.111.072-.047.12-.122.186-.168.066-.047.142-.09.21-.14.066-.052.137-.098.199-.15.067-.051.128-.107.19-.159.067-.056.12-.121.181-.177.062-.056.129-.103.19-.164.062-.06.12-.116.176-.177.058-.06.115-.122.167-.187a5.424 5.424 0 00.314-.388c.052-.065.105-.13.152-.196.048-.07.1-.13.148-.2.043-.07.095-.136.138-.21.043-.07.052-.16.09-.234.038-.075.09-.14.129-.215.033-.075.076-.15.105-.224.033-.075.061-.154.09-.234.028-.079.057-.154.08-.233.025-.08.03-.163.053-.243.02-.08.052-.159.072-.238.014-.08.014-.164.023-.248.015-.079.048-.158.057-.242.01-.08-.004-.168 0-.248.005-.08.015-.163.02-.247 0-.085.019-.164.019-.248 0-.084.019-.159.014-.233 0-.08-.024-.16-.029-.234-.005-.08-.019-.154-.028-.233-.01-.08 0-.16-.015-.239-.014-.079-.038-.154-.057-.228a.16.16 0 01.038-.136c.038-.047.076-.098.134-.103.123-.009.123 0 .247-.009.124-.01.124.019.252.01.124-.01.124-.047.248-.057.123-.009.123.014.247.005.124-.01.124-.014.248-.023.123-.01.123.014.247.004.124-.009.124-.046.248-.056.123-.009.128.033.252.028.123-.009.123-.032.247-.042.124-.009.124.005.252 0l.248-.018c.124-.01.124 0 .247-.005.124-.01.124-.037.248-.047.123-.01.128.014.252.01.124-.01.124-.042.247-.047.124-.01.124 0 .248-.005.124-.01.124-.018.247-.023.124-.01.124 0 .248-.014.123-.01.123 0 .247-.01.124-.009.124 0 .248-.009.123-.01.123-.018.247-.028.124-.01.128.019.252.01.124-.01.124-.038.248-.047.123-.01.123-.019.247-.028.124-.01.124.01.252 0 .124-.01.124-.024.248-.033.123-.01.128.014.252.005.124-.01.124 0 .247-.01.124-.009.124-.023.248-.028.124-.009.128.005.252 0 .124-.009.124-.014.252-.023.129-.01.124-.033.248-.042a.275.275 0 00.18-.075c.048-.051.096-.107.096-.182 0-.005-.005-.005-.005-.014 0-.06-.038-.107-.076-.159a7.115 7.115 0 00-.138-.177c-.072-.089-.038-.112-.11-.2-.066-.09-.104-.066-.171-.155-.071-.089-.038-.112-.105-.205-.052-.066-.1-.136-.147-.201-.048-.07-.129-.122-.172-.192-.042-.07-.066-.159-.104-.229-.043-.074-.1-.14-.138-.214a3.373 3.373 0 01-.11-.23c-.033-.079-.038-.163-.066-.242-.029-.08-.053-.159-.081-.238-.029-.08-.052-.159-.076-.238-.02-.08-.048-.16-.067-.243-.014-.084-.014-.168-.024-.252-.014-.085-.052-.164-.062-.243-.01-.084-.004-.168-.01-.252 0-.085.02-.169.02-.253 0-.121.01-.121.01-.247s-.02-.122-.02-.243-.014-.121-.014-.248c0-.126.01-.12.01-.247 0-.126-.01-.121-.01-.247 0-.127-.014-.122-.014-.248s.033-.121.033-.248v-.742c0-.126-.01-.121-.01-.248 0-.126.02-.121.02-.247v-.248c0-.126-.034-.121-.034-.247s.02-.121.02-.248c0-.126-.015-.121-.015-.247s.014-.122.014-.248-.023-.121-.023-.247.038-.121.038-.248c0-.126-.043-.121-.043-.247s.005-.122.005-.248.023-.121.023-.247V8.91c0-.126-.028-.121-.028-.247s.019-.122.019-.248.019-.121.019-.247V7.92c0-.126-.005-.126-.005-.247 0-.122-.014-.126-.014-.248 0-.121.019-.121.019-.247s-.01-.122-.01-.248.01-.121.01-.247v-.495a.304.304 0 00-.09-.206c-.058-.051-.048-.06-.105-.112-.033-.033-.095-.042-.138-.028-.124.033-.114.06-.238.094-.124.032-.129.014-.248.046-.123.033-.128.019-.247.052-.124.032-.114.056-.238.088-.124.033-.119.047-.238.08-.124.032-.128.004-.252.037s-.114.06-.238.094c-.124.032-.128 0-.252.032-.124.033-.124.038-.243.07-.124.033-.119.052-.238.084-.124.033-.128.019-.247.052-.124.032-.129.018-.248.051-.123.033-.114.056-.238.089-.123.032-.119.042-.242.074-.124.033-.12.047-.243.08-.124.033-.128.01-.252.042l-.243.065c-.124.033-.119.042-.242.075-.124.033-.12.042-.243.075-.124.032-.124.028-.248.06-.123.033-.119.042-.242.075-.124.033-.124.038-.243.07-.124.033-.129.01-.252.042-.124.033-.12.047-.243.08-.124.032-.124.028-.247.056-.124.032-.129.009-.253.046-.123.033-.109.075-.233.108-.123.032-.133 0-.257.028-.123.032-.18.159-.18.28 0 .028-.03.028-.03.06 0 .07.025.155.072.206a2.972 2.972 0 01.338.383c.053.07.12.126.167.196.047.07.09.145.128.22.043.074.067.159.1.233.038.075.09.145.12.23.028.078.06.158.085.237.023.08.019.168.043.252.023.08.057.16.076.243.019.08.038.164.052.248.014.084.038.163.048.252.01.084-.005.168 0 .257.01.084.047.163.052.252.005.084 0 .168 0 .257 0 .084-.01.168-.01.257 0 .121.015.121.015.247s-.01.126-.01.248v.495c0 .121-.005.126-.005.247v.248c0 .121-.014.126-.014.247 0 .122.01.126.01.248 0 .121.01.126.01.247 0 .122-.025.126-.025.248 0 .121-.01.126-.01.247v.253c0 .126.015.126.015.252 0 .079.01.163.005.242 0 .08-.029.164-.033.239-.005.079-.02.158-.029.238-.01.08-.014.163-.024.238a4.23 4.23 0 01-.052.238c-.02.08-.02.164-.038.238-.02.08-.043.16-.067.234-.024.08-.071.15-.1.22-.028.079-.019.167-.052.238a5.43 5.43 0 01-.1.224c-.038.074-.086.144-.119.21a2.244 2.244 0 01-.119.21c-.047.075-.114.126-.152.187-.057.084-.129.154-.22.154-.09 0-.17-.066-.227-.15-.043-.06-.086-.126-.134-.186-.047-.061-.104-.113-.157-.169-.047-.056-.104-.107-.157-.163-.052-.056-.09-.121-.147-.173-.057-.051-.134-.08-.19-.13-.067-.056-.134-.103-.2-.155-.067-.051-.115-.126-.186-.177-.072-.047-.148-.08-.224-.126-.071-.042-.152-.07-.228-.108-.076-.037-.148-.084-.224-.116-.076-.038-.143-.089-.224-.122-.076-.032-.157-.07-.237-.098-.081-.028-.167-.032-.248-.056-.08-.023-.162-.051-.243-.07-.08-.019-.17-.014-.252-.028-.08-.014-.166-.037-.247-.051-.081-.014-.167-.042-.252-.052-.086-.009-.172-.004-.253-.009-.085-.005-.166-.028-.252-.033h-.257c-.085 0-.171 0-.257.005-.085 0-.171.01-.257.014-.08.005-.166.005-.247.014-.081.01-.162.047-.243.056-.08.01-.162.019-.247.033-.081.014-.162.023-.243.037l-.243.042c-.08.019-.161.033-.242.052-.081.018-.157.041-.238.06-.081.019-.157.042-.238.066-.076.023-.157.042-.243.07-.076.023-.157.046-.242.074l-.239.084c-.076.028-.161.047-.242.08-.076.028-.152.065-.233.093-.077.028-.153.066-.234.098-.076.028-.166.038-.242.07-.076.033-.148.084-.224.117-.076.033-.147.084-.224.117-.076.032-.166.042-.242.075-.076.032-.162.05-.243.084-.09.037-.076.074-.166.112-.081.032-.172.037-.248.07-.08.032-.152.088-.228.121l-.238.098c-.081.033-.157.075-.233.103-.081.033-.162.065-.238.098a7.669 7.669 0 01-.238.093c-.086.033-.167.052-.248.08-.085.028-.171.047-.247.07-.086.023-.167.06-.243.08-.09.023-.18.023-.257.037-.095.018-.176.046-.252.051-.086.005-.166-.033-.247-.033-.086 0-.167 0-.243-.009a1.823 1.823 0 01-.238-.047c-.08-.018-.167-.023-.238-.056a1.2 1.2 0 01-.219-.112c-.067-.047-.124-.107-.18-.163a1.442 1.442 0 01-.162-.178c-.015-.023-.043-.046-.053-.07-.028-.08-.019-.168-.033-.243-.02-.084-.043-.158-.043-.238 0-.084.01-.163.029-.243.019-.08.042-.154.08-.229.034-.07.062-.149.115-.219.047-.06.133-.098.195-.159.057-.056.095-.135.166-.182.067-.047.134-.093.21-.13.071-.038.147-.07.223-.103.072-.033.153-.061.234-.085l.237-.07a.199.199 0 01.105.01c.076.018.148.065.224.084.076.019.157.037.233.051.076.019.162.01.238.028.076.014.152.047.233.061.076.014.157.023.238.033.08.014.162.018.238.028.08.009.157.032.233.042.081.01.157.042.233.046.081.01.167-.014.248-.009.08.005.161.033.242.037.081.005.167-.014.248-.014.08 0 .162.01.247.014.081 0 .162.024.248.024.08 0 .162 0 .247-.005.081 0 .162-.018.248-.023.08 0 .166.01.247 0 .086-.005.167-.024.252-.028.086-.005.167-.019.252-.024.086-.009.172 0 .253-.004.085-.01.166-.014.252-.028.086-.01.166-.038.247-.052.086-.014.162-.042.248-.056.08-.014.171.005.252-.009.086-.014.162-.06.243-.075.08-.018.162-.046.242-.065.081-.019.167-.033.248-.052.08-.018.166-.032.247-.056.081-.023.157-.056.238-.079.081-.023.157-.051.238-.08.081-.027.167-.027.248-.055.08-.028.152-.075.228-.103.076-.028.157-.056.233-.089l.233-.098c.076-.033.167-.037.243-.07.076-.037.148-.08.224-.117.076-.037.147-.08.223-.116.076-.038.138-.094.215-.136.07-.042.147-.08.218-.121.072-.042.148-.08.22-.122.07-.046.128-.107.194-.159.067-.046.124-.112.19-.163.067-.051.139-.098.2-.15.067-.05.124-.111.186-.163.062-.056.138-.098.2-.154.062-.056.138-.098.195-.159l.171-.182c.057-.06.105-.13.157-.191.053-.066.09-.14.143-.206.052-.065.1-.13.148-.2.047-.07.085-.14.128-.21.043-.07.11-.127.153-.202.037-.07.061-.154.095-.228.038-.075.061-.155.095-.23.033-.074.076-.149.105-.223.028-.075.07-.15.095-.23.023-.079.019-.163.038-.247.019-.08.076-.154.09-.233.014-.08.024-.164.033-.248.015-.08.01-.163.02-.247.009-.08 0-.164.004-.248 0-.084.01-.163.01-.247v-.486c-.01-.08-.01-.163-.024-.243-.01-.08-.052-.159-.071-.238-.015-.08-.029-.159-.048-.238-.019-.08-.062-.154-.086-.229-.023-.08-.043-.159-.071-.233a4.57 4.57 0 00-.095-.225c-.034-.074-.043-.158-.076-.233-.038-.07-.1-.13-.138-.2-.038-.071-.072-.15-.12-.216-.042-.065-.104-.126-.156-.191-.048-.066-.09-.136-.143-.201-.052-.06-.086-.14-.143-.2-.057-.066-.143-.099-.21-.164-.061-.061-.1-.145-.166-.201-.066-.056-.157-.08-.228-.135-.067-.057-.124-.122-.195-.173-.072-.052-.138-.103-.214-.15a3.518 3.518 0 00-.224-.135c-.076-.042-.162-.066-.238-.108-.057-.028-.062-.098-.067-.126-.01-.056.015-.112.062-.158.09-.094.1-.08.19-.173.091-.094.077-.108.167-.196.09-.094.095-.084.186-.178.09-.089.071-.107.162-.2.09-.09.08-.099.17-.187.091-.094.11-.075.2-.164.091-.093.086-.098.177-.191.09-.094.104-.075.195-.168.09-.094.062-.122.152-.21.057-.047.124-.08.176-.113a.873.873 0 01.19-.088c.115-.033.238.009.367.042.052.014.128.023.228.088.057.038.12.09.195.15.058.046.129.093.196.154l.176.173c.052.056.1.126.161.191.053.056.086.122.138.173.053.051.134.075.186.126.052.047.11.098.166.15.024.018.039.046.058.065.052.047.11.084.166.126.067.051.124.117.195.159.072.042.148.074.229.112.08.037.142.084.223.117.076.032.167.037.248.06.08.024.152.07.238.094.085.023.171.046.257.065a2.648 2.648 0 00.528.07c.09.005.18 0 .266 0 .09 0 .176-.033.267-.037.085-.005.171.004.252-.01.086-.014.167-.023.248-.042.08-.018.161-.042.242-.065.081-.023.162-.051.238-.08a1.74 1.74 0 00.233-.093c.076-.033.138-.089.21-.126.071-.037.157-.056.223-.103.067-.042.134-.093.2-.144.067-.052.12-.108.181-.164.062-.051.124-.107.18-.163.058-.061.13-.112.186-.178.053-.065.081-.15.134-.22.047-.07.119-.125.161-.195.043-.07.077-.15.115-.225.038-.074.047-.163.076-.242.033-.075.09-.136.114-.21.024-.075.024-.16.043-.234.019-.08.052-.15.066-.229.01-.08.02-.159.024-.233v-.239c0-.093-.014-.182-.028-.27a2.408 2.408 0 00-.057-.267c-.024-.088-.048-.177-.081-.261-.034-.084-.114-.15-.157-.229-.038-.065-.067-.135-.105-.196-.043-.06-.071-.136-.119-.196a4.822 4.822 0 00-.152-.168c-.053-.056-.12-.094-.181-.145a2.668 2.668 0 00-.176-.15 3.529 3.529 0 00-.21-.144c-.07-.042-.138-.098-.218-.136-.077-.037-.157-.065-.238-.098-.076-.033-.167-.047-.248-.07-.08-.028-.162-.047-.247-.07-.072-.019-.148-.033-.22-.047-.075-.014-.142-.06-.218-.07-.076-.009-.152-.018-.224-.023-.076-.005-.152 0-.228 0-.086 0-.167.033-.252.037-.086 0-.172-.032-.252-.023-.086.01-.162.047-.248.056-.086.01-.171-.005-.252.01-.081.013-.167.037-.248.055-.08.02-.157.056-.242.08-.081.023-.157.056-.238.08-.081.023-.167.027-.248.05-.08.029-.157.061-.233.094-.076.033-.147.084-.224.117-.076.032-.166.037-.242.07a5.035 5.035 0 00-.229.102c-.076.038-.138.094-.214.136-.076.042-.142.093-.214.135-.071.042-.147.08-.219.122-.071.042-.157.07-.223.112-.072.047-.129.107-.2.154-.072.047-.153.075-.224.121-.071.047-.133.103-.2.154-.066.052-.142.094-.204.145-.067.052-.138.098-.205.15-.067.051-.11.13-.171.182-.067.056-.124.117-.186.168a6.416 6.416 0 00-.19.163 3.274 3.274 0 00-.186.169c-.067.06-.133.107-.19.163-.067.06-.133.112-.186.163a5.122 5.122 0 00-.171.178c-.076.08-.143.135-.176.177-.005.01.014.038.01.042-.063.052-.134.108-.2.164-.062.051-.153.08-.224.135-.067.052-.114.131-.186.182-.066.052-.157.08-.228.131-.072.051-.138.103-.214.15-.072.046-.129.121-.2.168-.076.046-.171.056-.243.098-.076.042-.147.093-.224.135-.076.042-.161.066-.242.103-.081.037-.157.075-.238.107-.081.033-.162.075-.243.098-.085.024-.171.038-.257.052-.09.014-.176.037-.257.037-.09 0-.18.014-.261 0-.081-.01-.157-.051-.238-.056-.081-.01-.167.005-.248 0-.08-.005-.166 0-.247 0-.081 0-.162-.047-.243-.051-.076 0-.152.028-.228.028-.076 0-.153-.014-.229-.014-.076 0-.152-.01-.228-.01-.076 0-.152.028-.229.033-.085.005-.17-.005-.252 0-.085.005-.171 0-.257.01-.085.009-.166.023-.252.037l-.252.028c-.086.01-.162.046-.248.06-.085.015-.17.015-.252.029-.08.014-.166.023-.247.037-.086.019-.162.047-.243.065-.08.019-.171.014-.252.033-.081.019-.162.056-.243.075-.08.023-.166.037-.247.056-.081.023-.153.07-.233.098-.081.023-.162.042-.243.065-.081.028-.162.052-.238.08-.08.028-.162.046-.243.079-.08.033-.162.056-.238.084-.076.033-.142.089-.218.121-.077.033-.153.07-.229.108-.076.037-.166.047-.238.084l-.224.112c-.07.042-.128.112-.2.159-.07.042-.142.084-.213.13-.072.047-.143.09-.215.136-.071.047-.128.107-.195.154-.066.051-.143.089-.21.14-.066.052-.151.089-.213.145-.067.056-.129.117-.195.173-.067.056-.115.13-.176.187-.062.06-.124.12-.181.182-.062.06-.124.121-.181.186-.057.066-.124.122-.176.187a3.11 3.11 0 00-.152.21c-.053.07-.105.136-.153.206-.047.07-.071.159-.114.229-.043.074-.1.14-.143.215-.038.074-.1.14-.138.219-.038.08-.038.168-.071.248a.213.213 0 01-.176.13c-.033 0-.124 0-.171-.08-.048-.07-.09-.14-.143-.21-.048-.07-.072-.158-.124-.223-.052-.07-.114-.127-.167-.192-.052-.065-.114-.126-.17-.191-.058-.066-.124-.117-.182-.182-.057-.061-.1-.14-.161-.201-.062-.061-.129-.117-.19-.173-.063-.056-.143-.093-.21-.15a5.842 5.842 0 00-.2-.158c-.067-.052-.119-.117-.186-.168-.066-.047-.138-.094-.204-.145-.067-.047-.129-.108-.2-.154-.071-.047-.138-.094-.21-.136-.07-.042-.161-.051-.237-.093-.072-.042-.148-.08-.22-.117a4.67 4.67 0 00-.228-.103c-.076-.032-.133-.102-.214-.135-.076-.033-.166-.042-.242-.075-.077-.032-.157-.06-.234-.093-.076-.028-.157-.056-.238-.084-.08-.028-.161-.047-.242-.07-.081-.024-.157-.056-.238-.08-.076-.023-.152-.065-.229-.084-.076-.018-.166-.004-.247-.023-.08-.019-.157-.042-.238-.06l-.238-.043c-.08-.014-.157-.037-.238-.051-.08-.01-.162 0-.242-.01-.081-.009-.157-.056-.238-.065-.081-.01-.167.023-.248.014-.08-.005-.162-.023-.243-.028-.08 0-.161-.033-.242-.037-.081 0-.162.01-.243.004h-.247c-.081 0-.162.01-.243.014-.081 0-.162 0-.243.01-.08 0-.161.004-.242.014-.081.004-.167.004-.248.014-.08.01-.166 0-.247.01-.081.008-.162.032-.243.041-.08.01-.162.023-.248.033-.08.014-.166.014-.247.028-.08.014-.162.033-.243.047-.08.014-.152.065-.233.084-.08.018-.166.009-.247.028-.081.018-.153.06-.233.084-.081.018-.157.046-.238.07-.081.023-.167.018-.243.046-.076.024-.152.061-.228.09-.077.027-.162.037-.238.065-.076.028-.143.084-.22.112-.075.028-.161.037-.237.07-.076.032-.157.056-.229.088-.076.033-.147.075-.218.112-.077.038-.134.099-.205.136-.072.037-.148.07-.219.107-.071.038-.148.07-.219.108-.071.042-.157.06-.224.102-.07.042-.138.09-.204.131-.072.042-.124.108-.19.154-.067.047-.153.066-.22.112-.066.047-.104.131-.17.178-.067.047-.143.08-.205.13-.067.052-.129.099-.19.155-.063.051-.13.098-.191.154-.062.051-.114.117-.176.168-.062.056-.119.117-.18.177-.063.061-.115.122-.172.183-.057.06-.129.112-.186.172-.057.061-.105.131-.157.196-.057.066-.11.127-.162.192-.052.065-.119.121-.166.187-.048.065-.11.126-.162.196-.047.07-.09.14-.138.21-.048.07-.086.145-.128.215l-.129.215c-.043.07-.062.154-.105.228l-.114.225c-.038.074-.104.135-.143.21-.042.089-.109.121-.17.121-.039 0-.091-.01-.139-.107-.038-.075-.11-.136-.147-.21-.038-.075-.062-.16-.105-.23-.043-.074-.081-.149-.129-.219-.047-.07-.09-.144-.137-.214-.048-.07-.105-.131-.158-.201-.052-.07-.123-.117-.18-.182-.053-.066-.086-.15-.143-.215-.057-.066-.11-.131-.167-.192-.057-.06-.123-.116-.185-.177a6.271 6.271 0 00-.186-.173c-.062-.056-.138-.103-.2-.159-.066-.056-.114-.13-.18-.182-.067-.051-.139-.093-.205-.145-.067-.051-.143-.084-.214-.13-.067-.047-.124-.112-.195-.154-.072-.047-.138-.094-.21-.136-.071-.042-.162-.056-.233-.093-.071-.042-.128-.108-.205-.15-.076-.037-.161-.046-.237-.084-.077-.032-.148-.08-.224-.112-.076-.033-.162-.047-.238-.08-.076-.032-.143-.093-.224-.12-.076-.029-.162-.047-.242-.07-.081-.029-.153-.07-.234-.094-.08-.024-.161-.052-.242-.075-.076-.023-.167-.005-.248-.028-.076-.019-.152-.06-.233-.08-.08-.018-.162-.023-.243-.037-.08-.014-.152-.056-.233-.07-.08-.014-.166 0-.247-.014-.081-.014-.157-.037-.238-.046-.081-.01-.162 0-.243-.01-.08-.01-.162 0-.242-.004-.081-.005-.162-.038-.243-.042-.081 0-.162.018-.243.014-.08 0-.162-.024-.243-.024-.08 0-.161-.01-.242-.01-.081 0-.162.006-.243.01-.08 0-.162.019-.243.024-.08 0-.161.014-.242.018-.081.005-.167-.018-.248-.01-.08.01-.162.024-.247.034-.081.009-.162.037-.243.046-.08.01-.162.033-.243.047-.08.014-.166 0-.247.014-.08.014-.157.047-.238.065-.08.014-.162.024-.243.042-.08.02-.166.024-.242.042l-.238.061c-.081.024-.152.066-.233.089a3.365 3.365 0 00-.234.075 3.4 3.4 0 00-.233.074c-.076.028-.166.028-.242.056-.077.028-.143.09-.22.122-.076.032-.161.042-.233.075-.076.032-.142.084-.214.12-.076.034-.166.034-.238.071-.076.037-.152.065-.223.103-.072.037-.148.074-.22.112-.07.037-.137.089-.209.126-.07.042-.133.098-.2.14-.07.042-.156.06-.223.103-.067.042-.133.093-.2.14-.067.047-.128.103-.195.15-.067.046-.133.088-.2.14-.067.046-.128.102-.19.153-.062.052-.138.09-.2.14-.062.052-.114.117-.176.169-.062.051-.129.098-.19.154-.062.056-.115.126-.172.182-.062.056-.143.098-.2.159-.057.06-.085.15-.138.21-.057.06-.119.117-.17.182-.053.065-.13.112-.182.178-.052.065-.1.135-.152.2-.052.066-.095.136-.143.206-.047.07-.08.145-.128.215s-.11.126-.157.196c-.043.07-.072.154-.114.224-.043.07-.077.15-.115.22-.043.074-.1.135-.138.205-.038.075-.071.15-.11.224-.037.08-.07.159-.104.238-.033.08-.052.164-.08.243l-.1.238c-.03.08-.077.159-.1.238-.024.084-.053.164-.077.248-.023.084-.019.173-.038.257-.019.084-.052.163-.071.247-.02.089-.072.154-.129.178-.033.009-.1 0-.157-.052-.057-.051-.133-.084-.195-.135-.062-.047-.114-.103-.18-.15-.063-.046-.124-.102-.191-.149-.067-.042-.148-.065-.219-.107-.066-.043-.138-.08-.21-.117-.07-.037-.133-.084-.204-.122-.071-.037-.143-.07-.214-.107-.071-.033-.147-.06-.219-.093-.071-.033-.143-.07-.219-.098-.076-.028-.147-.066-.223-.094-.077-.028-.143-.07-.22-.098-.075-.023-.156-.028-.237-.056-.081-.023-.167-.042-.253-.065-.08-.024-.161-.07-.247-.094-.086-.023-.171-.028-.257-.046-.085-.02-.166-.052-.252-.07-.086-.02-.171-.047-.257-.061-.086-.014-.18 0-.266-.01-.105-.018-.12-.112-.124-.144-.01-.075.033-.164.133-.201.086-.033.162-.084.243-.117.085-.033.18-.037.261-.07.081-.037.162-.08.243-.117.081-.037.162-.08.238-.116.08-.043.152-.098.228-.14.072-.038.162-.052.234-.094.071-.042.133-.098.204-.14.072-.042.157-.065.224-.112.071-.047.138-.098.204-.145a3.15 3.15 0 00.2-.145c.067-.051.124-.112.19-.163.067-.051.143-.089.205-.14.062-.056.12-.117.181-.173.062-.056.12-.117.176-.173.057-.056.12-.107.172-.163l.161-.173c.053-.06.081-.14.129-.2.047-.066.09-.132.133-.197.048-.065.1-.121.143-.187.043-.065.08-.135.119-.2.038-.07.062-.145.1-.215.033-.07.09-.131.119-.206.033-.075.061-.154.09-.233.029-.08.043-.16.067-.239.023-.079.033-.163.052-.242.02-.08.048-.16.062-.239.014-.084.047-.158.057-.242.01-.084 0-.169.005-.248.004-.084 0-.163 0-.247 0-.09 0-.173-.01-.262-.005-.089.014-.177 0-.261-.01-.09-.052-.169-.066-.253a5.864 5.864 0 00-.067-.252c-.024-.084-.033-.168-.062-.252a3.653 3.653 0 00-.09-.243c-.034-.08-.053-.168-.09-.247-.039-.08-.091-.15-.139-.224-.043-.07-.11-.127-.157-.192s-.071-.15-.128-.215c-.053-.06-.12-.117-.176-.177-.057-.061-.129-.103-.19-.164a2.085 2.085 0 00-.186-.163c-.062-.052-.11-.13-.176-.178-.067-.051-.152-.07-.224-.116-.066-.047-.119-.122-.19-.164-.072-.042-.162-.056-.233-.098-.077-.042-.134-.107-.215-.15a10.324 10.324 0 00-.233-.111 7.807 7.807 0 00-.238-.098c-.08-.033-.162-.057-.242-.09-.081-.027-.167-.046-.248-.07a3.82 3.82 0 00-.247-.074c-.081-.023-.167-.037-.252-.056-.081-.023-.167-.033-.253-.051-.08-.02-.161-.056-.247-.075-.086-.019-.171-.028-.257-.042-.086-.014-.167-.051-.252-.066-.081-.014-.167-.004-.252-.018-.081-.01-.167 0-.253-.014l-.247-.028c-.081-.01-.162-.038-.248-.042-.08-.005-.161-.033-.247-.038-.08-.004-.167.01-.252.005-.081 0-.167-.023-.248-.023-.08 0-.166.004-.252.004-.08 0-.166-.018-.247-.018-.081 0-.167.023-.248.023-.08 0-.166-.019-.252-.019-.08 0-.167.033-.252.038-.081 0-.167-.014-.252-.01h-.253c-.08.005-.166.028-.247.038-.128.01-.128-.014-.257-.005-.129.01-.124.051-.252.06-.129.01-.129 0-.257.01-.129.01-.129-.01-.257 0-.129.01-.124.033-.252.042-.129.01-.129.014-.252.024-.129.009-.129-.029-.258-.02-.128.01-.123.029-.252.034l-.252.018c-.128.01-.128-.014-.257-.004-.128.009-.124.018-.252.023-.129.01-.129 0-.252.01-.129.009-.124.041-.252.046-.129.01-.129-.028-.257-.019l-.253.019c-.128.01-.123.037-.252.047-.128.009-.128.014-.257.023-.128.01-.128 0-.257.01-.128.009-.123.018-.252.027-.128.01-.128-.009-.257 0-.128.01-.128 0-.252.01-.129.009-.129 0-.257.009l-.257.019c-.129.009-.124.023-.252.032-.129.01-.129.005-.257.014l-.252.02c-.129.008-.124.027-.253.036-.128.01-.128-.028-.257-.018-.128.01-.123.032-.252.042-.128.01-.128 0-.257.014-.128.01-.128.028-.252.037-.128.01-.128-.01-.257 0-.128.01-.128.014-.257.024-.128.009-.124.023-.252.032-.129.01-.129-.014-.257-.01-.129.01-.129.024-.252.034-.129.009-.129-.005-.257 0-.129.009-.129.028-.252.037-.129.01-.129 0-.257.014-.129.01-.129-.005-.257 0-.129.01-.129-.01-.257 0-.129.01-.129.019-.257.028-.129.01-.129.019-.252.028-.129.01-.129.005-.257.014-.129.01-.129 0-.257.01-.129.009-.129 0-.257.009-.067.004-.129.084-.129.15v.186a.29.29 0 00.057.15c.048.07.1.13.143.2.043.07.09.14.133.21.043.07.076.145.12.215.042.07.09.136.132.21.043.075.067.15.105.224.038.075.067.15.1.225.038.074.09.14.124.214l.1.225c.033.074.047.158.076.233.033.075.052.154.08.234.03.079.086.144.115.219.029.08.048.159.076.234.024.079.029.163.052.242.024.08.072.15.096.23.023.079.023.163.042.242.02.08.053.154.072.234.019.079.047.158.066.238.02.08.005.163.024.247.015.08.034.159.048.243.014.08.043.159.057.238.01.08.01.164.019.243.01.08.024.164.033.243.01.08-.014.163-.01.247.006.08.02.164.02.243 0 .08.01.164.01.243 0 .08.028.164.028.243 0 .121-.01.121-.01.243 0 .121.02.121.02.247v.243c0 .121-.015.121-.015.243 0 .121.01.121.01.243 0 .121-.01.121-.01.243 0 .121-.01.121-.01.243v.242c0 .122.015.122.015.248s.01.121.01.247-.024.122-.024.243c0 .122.023.122.023.243v.248c0 .126-.023.12-.023.242v.495c0 .127.019.122.019.248v.247c0 .127.023.122.023.243 0 .122-.014.122-.014.243 0 .122-.005.122-.005.248s.02.121.02.247v.243c0 .121-.039.121-.039.248 0 .126.005.12.005.247v.742c0 .127.033.122.033.248s-.028.126-.028.248c0 .12.019.126.019.247 0 .084-.014.163-.014.247 0 .085-.024.164-.029.243 0 .084.014.164.005.248-.005.08-.029.163-.033.243-.01.084-.015.163-.024.243-.01.079 0 .163-.01.247-.01.084-.038.159-.047.243-.015.08 0 .168-.015.247-.014.08-.033.164-.047.243-.015.08-.057.154-.076.238-.02.08-.01.164-.034.248-.019.08-.047.159-.071.238-.02.08-.057.154-.076.234-.024.079-.02.168-.043.242-.024.08-.057.155-.086.234-.023.08-.071.15-.095.229-.028.08-.066.15-.095.229-.029.074-.033.163-.067.238-.028.075-.08.145-.114.22-.033.074-.043.163-.076.237-.033.075-.08.145-.114.22a3.47 3.47 0 01-.11.22c-.038.074-.062.153-.1.224-.038.074-.066.154-.104.224-.038.07-.1.135-.143.205-.043.07-.071.15-.114.22l-.129.21a.273.273 0 00-.033.135c0 .094.01.094.01.192 0 .037 0 .06.028.084.029.023.057.056.09.051.129-.01.129 0 .253-.005.123-.009.123-.046.247-.05.124-.01.129.013.252 0 .124-.01.124-.024.253-.034.123-.009.128.01.252 0 .123-.009.123-.023.252-.032.124-.01.128.014.252.01.129-.01.124-.034.252-.043.129-.01.129.019.253.01.128-.01.123-.043.252-.052.128-.01.128 0 .252-.01.128-.009.128.01.252 0 .124-.009.124-.037.252-.046l.253-.019c.123-.009.123-.004.252-.014.128-.009.128 0 .252-.009l.252-.019c.129-.01.129-.014.252-.023.129-.01.129.019.253.01.123-.01.128 0 .252-.005s.124-.038.252-.042l.252-.02c.129-.008.124-.018.252-.027l.253-.019c.128-.01.128.033.257.024.128-.01.123-.038.252-.047.128-.01.123-.019.252-.028.124-.01.128.023.252.014.129-.01.124-.042.252-.052.129-.009.129.02.257.01.124-.01.129 0 .253-.005.128-.01.128-.005.252-.014.128-.01.123-.033.252-.037.128-.01.128 0 .252-.014.129-.01.129 0 .252 0 .124 0 .129-.01.253-.014.128-.01.123-.038.252-.047.128-.01.128-.019.252-.023.128-.01.128.028.257.023.128-.01.128-.014.252-.023.081-.005.167-.024.248-.028.08-.005.166-.005.247-.01.086-.004.167-.042.247-.051.086-.005.167-.014.248-.023.086-.01.171.009.252 0 .086-.01.167-.038.248-.047.085-.01.166.005.252 0 .08-.01.166 0 .252-.01.08-.009.162-.037.247-.046.081-.01.167 0 .248-.014.08-.01.162-.047.243-.06.08-.01.166-.024.247-.038.08-.01.167-.028.247-.042.081-.014.172.018.253 0 .08-.014.157-.06.242-.075.081-.014.172.01.253-.005.08-.014.161-.042.242-.056.081-.014.162-.037.243-.051.08-.014.166-.023.247-.037.081-.02.162-.047.238-.066.081-.018.167-.01.248-.028.08-.018.162-.033.242-.051.081-.019.157-.06.238-.084.081-.019.167-.024.248-.047.08-.023.152-.08.228-.103.081-.023.162-.037.238-.065.081-.023.157-.047.238-.075.081-.028.167-.028.243-.056.08-.028.157-.06.233-.088.076-.029.152-.075.224-.103l.223-.098c.076-.033.162-.047.233-.084.077-.033.157-.052.234-.09.076-.037.147-.074.218-.111a9.41 9.41 0 00.22-.112c.07-.038.123-.112.195-.154.07-.042.142-.08.209-.127.071-.046.152-.07.219-.116.066-.047.114-.117.18-.168.067-.052.129-.098.19-.15.063-.051.13-.098.191-.154.062-.056.148-.084.205-.14.057-.056.105-.126.157-.187.057-.06.095-.13.147-.191.053-.061.115-.117.162-.182.048-.066.09-.136.138-.201.048-.066.1-.131.143-.201.043-.07.09-.136.128-.21.039-.07.062-.154.096-.229a.207.207 0 01.161-.121c.029 0 .086.009.134.084.043.065.119.112.166.172.048.066.086.131.133.197.048.06.077.14.129.2.052.061.133.094.185.155.053.055.1.12.153.182.057.056.1.121.157.177.057.056.133.089.195.14.057.052.119.098.18.15.063.051.1.121.167.172.067.052.148.08.214.127.067.046.11.13.177.177.066.047.161.056.233.103.071.046.133.098.204.14.072.042.148.08.22.117.07.037.132.098.209.135.076.037.142.084.218.121.077.038.158.052.234.084.076.033.157.047.238.08.076.032.157.06.233.089.076.028.147.074.228.102.081.028.167.024.248.052.08.023.152.074.233.098.08.023.166.042.252.065s.167.042.252.06c.086.02.167.043.252.062.086.018.176 0 .262.014.086.014.167.05.252.065.086.014.172.019.257.028.086.01.171.023.257.028.086.01.172.033.257.037.086.005.176-.023.262-.018.085 0 .171.009.262.014.085 0 .17.018.261.018h.262c.086 0 .171 0 .262-.009.085 0 .171-.028.261-.033.081-.004.167-.014.248-.018l.247-.028c.081-.01.167 0 .248-.014.08-.01.166-.01.247-.024.081-.014.162-.051.243-.065.08-.014.171 0 .252-.014.081-.014.162-.033.243-.047.08-.019.152-.075.233-.093.08-.019.167-.01.248-.033.08-.019.161-.047.237-.07.081-.023.167-.033.243-.056.081-.023.157-.047.238-.075.076-.028.148-.075.228-.102.077-.029.153-.061.229-.094l.228-.098c.076-.033.162-.037.238-.07.076-.033.152-.065.224-.098l.224-.108c.076-.037.128-.107.2-.144.07-.038.156-.056.228-.098.071-.042.138-.089.21-.131.07-.042.132-.093.199-.135.071-.043.138-.085.21-.131.066-.047.147-.08.213-.126.067-.047.124-.108.19-.16.067-.05.139-.083.205-.135.067-.05.138-.088.2-.14.062-.051.124-.107.186-.163.062-.052.105-.126.166-.178.062-.056.148-.088.205-.149.062-.056.124-.112.18-.173.058-.06.091-.145.148-.205.057-.061.134-.103.19-.168.053-.061.11-.127.163-.192.052-.065.07-.154.123-.22.053-.065.124-.116.172-.186.047-.07.076-.15.123-.22.048-.07.11-.126.153-.2.042-.07.085-.145.128-.215s.076-.15.114-.22c.038-.075.081-.145.12-.22l.113-.223c.043-.09.12-.145.181-.145.034 0 .095.033.138.121.038.075.09.145.129.22.042.074.095.14.138.215.042.074.066.158.114.228l.143.21c.047.07.085.15.138.215.052.066.114.126.166.192.053.065.124.117.181.182.057.065.114.126.171.187.058.06.129.112.19.172.063.061.11.131.172.187.062.056.119.122.18.178.068.056.134.102.2.154.067.051.139.093.205.145.067.046.124.112.19.158.067.047.143.084.215.127.071.042.152.07.223.112.072.042.148.079.22.116.07.038.137.09.214.126.07.038.147.08.218.113.076.037.157.06.233.093.077.033.139.098.215.13.076.033.171.024.247.052.076.028.143.093.224.117.076.028.166.023.247.051.081.023.157.066.233.089.081.023.172.033.257.051.086.024.162.061.248.08.086.018.171.032.257.051.085.019.171.028.257.047.085.018.171.037.257.051.085.014.176.01.261.019.086.01.176 0 .262.01.086.009.171.046.257.055.086.005.171.019.262.023.086 0 .171.005.261.01.086 0 .177-.024.262-.024.086 0 .172.01.262.005.086 0 .176 0 .262-.005.085 0 .171-.018.261-.027.081-.005.167-.02.248-.028.08-.01.166.004.252 0 .081-.01.162-.052.243-.061.08-.01.171.014.252 0 .08-.014.167-.024.247-.038.081-.014.157-.06.238-.074.081-.014.167-.01.248-.028.08-.019.166-.024.247-.042l.243-.056c.08-.02.152-.075.233-.099.081-.023.167-.023.248-.046.08-.024.157-.06.233-.084.08-.028.152-.066.228-.094.076-.028.152-.07.228-.098.077-.028.167-.032.243-.065.076-.033.143-.084.22-.117.075-.032.16-.046.232-.08.076-.037.143-.079.22-.116.07-.037.156-.051.228-.093.071-.038.133-.094.204-.136.072-.037.153-.065.224-.107.071-.042.119-.117.185-.164.072-.042.153-.07.22-.112.07-.046.142-.08.209-.126.066-.046.142-.084.21-.13.066-.047.118-.113.185-.16.066-.05.133-.093.2-.144.061-.052.128-.103.19-.154.062-.052.11-.122.166-.178.01-.009.029-.014.038-.023.062-.056.134-.098.205-.098.076 0 .167.042.214.098a.29.29 0 01.062.224c-.01.084-.029.173-.033.257 0 .084.014.173.014.262 0 .088-.019.172-.014.256 0 .089 0 .173.014.257.01.084.01.173.024.257.014.084.052.168.071.248.02.084.043.168.067.247.024.084.033.173.062.252.028.08.1.145.138.224.038.08.076.155.119.23.042.079.057.172.11.247.047.074.099.15.156.22.057.07.138.12.2.186.057.065.124.13.186.191.066.061.114.14.185.197.067.056.148.098.224.154.047.032.043.088.043.121a.21.21 0 01-.062.15c-.053.05-.086.126-.133.182-.053.056-.115.103-.157.159-.048.06-.096.12-.134.182-.042.065-.066.135-.1.2-.038.07-.08.14-.114.215-.028.075-.066.15-.09.224-.024.075 0 .164-.02.243-.014.08-.033.154-.037.238-.005.08-.005.16-.005.243 0 .089-.02.178-.014.262.01.088.047.168.066.252.02.084.01.177.034.257.028.084.066.163.104.238.038.08.105.14.152.215.048.07.096.145.148.21.052.065.095.15.157.21s.124.121.19.178c.067.056.162.074.234.126.07.051.128.121.204.168.067.042.12.098.133.163a.29.29 0 01-.014.22.308.308 0 01-.18.14s-.01-.023-.015-.023c-.076.023-.148.065-.224.088a4.269 4.269 0 00-.228.08c-.076.028-.162.028-.233.056-.076.028-.153.056-.224.088-.076.028-.147.066-.219.094-.076.032-.138.088-.21.121-.07.033-.142.07-.213.108-.081.042-.172.06-.248.102-.08.042-.152.094-.228.14-.076.047-.167.075-.243.122-.076.046-.157.089-.233.135-.076.052-.124.136-.2.187-.071.051-.152.093-.224.15-.07.05-.152.098-.218.154-.072.056-.153.098-.224.154-.071.056-.133.121-.2.182-.071.06-.157.084-.205.065-.057-.023-.076-.093-.076-.159v-.238c0-.121-.004-.117-.004-.238 0-.121.019-.117.019-.238 0-.122-.034-.117-.034-.238 0-.122.01-.122.01-.238 0-.117.019-.122.019-.239 0-.074-.048-.135-.105-.186-.057-.052-.057-.052-.11-.103-.033-.033-.07-.06-.114-.052-.118.033-.114.047-.237.08-.12.033-.124.01-.248.042-.119.033-.119.042-.238.075l-.238.065c-.119.033-.119.028-.242.06l-.238.066c-.12.033-.124.019-.243.047-.119.033-.114.056-.233.084l-.243.065c-.119.033-.124.019-.242.052-.12.032-.115.046-.238.079-.12.033-.124.014-.248.047-.119.032-.119.042-.238.07l-.242.065c-.12.033-.12.042-.239.075-.118.033-.123.028-.242.06-.12.033-.12.043-.238.07-.119.033-.124.015-.243.047-.119.033-.123.014-.247.042-.12.033-.114.052-.233.084-.12.033-.124.02-.243.047-.119.033-.124.019-.243.052-.119.032-.114.06-.233.093-.119.033-.128.01-.247.042-.12.033-.12.042-.238.07-.12.033-.114.056-.233.089-.12.032-.124.023-.243.051-.124.033-.124.028-.243.056-.124.033-.124.019-.247.052-.124.032-.124.027-.243.06-.057.014-.114.075-.114.136 0 .079.024.079.024.154 0 .07.038.121.09.172.057.061.08.15.133.21.057.061.133.103.186.164.052.066.076.15.124.215.047.065.133.107.18.177.048.07.067.15.11.225.043.07.08.144.119.214.038.07.076.145.11.22.033.075.07.15.1.224a5.733 5.733 0 01.161.462c.024.08.033.16.052.239.02.079.048.158.062.238.014.08.02.163.029.242.01.08.01.164.019.243.01.08.033.16.038.243 0 .08.019.164.019.243 0 .126-.029.126-.029.248 0 .121.02.126.02.247s.018.126.018.248c0 .121-.019.126-.019.247s.024.126.024.248c0 .121-.038.126-.038.247s.01.126.01.248c0 .121.028.126.028.247 0 .122-.038.126-.038.248 0 .121.029.126.029.247v.248c0 .121-.029.126-.029.247 0 .122.01.126.01.248 0 .121-.01.126-.01.247v.248c0 .121-.01.126-.01.247 0 .122.01.126.01.252 0 .127.01.127.01.253v.247c0 .084-.024.163-.029.248-.005.084.033.168.024.252-.01.084-.029.163-.038.247-.01.084-.038.164-.053.243-.014.08-.038.164-.052.243-.014.08.01.173-.01.252-.019.08-.042.164-.061.243-.02.08-.076.15-.1.229-.024.08-.024.163-.053.243-.023.079-.066.154-.095.233-.028.08-.062.154-.09.234-.029.079-.029.168-.057.242-.034.075-.1.14-.133.215-.034.075-.048.16-.086.234-.033.075-.09.14-.129.215-.038.074-.071.149-.114.224-.043.07-.057.158-.1.229-.043.07-.119.121-.162.196-.038.06-.08.117-.147.117-.033 0-.105 0-.148-.057-.071-.088-.062-.098-.128-.186-.071-.09-.081-.08-.152-.173-.053-.066-.096-.14-.143-.21-.048-.07-.072-.154-.114-.224-.043-.07-.1-.136-.138-.21-.043-.075-.105-.136-.143-.21-.038-.075-.062-.16-.095-.234a3.426 3.426 0 01-.09-.234c-.03-.08-.067-.154-.096-.233-.024-.08-.014-.168-.033-.252-.02-.08-.048-.16-.067-.243-.019-.08-.019-.168-.028-.248-.01-.08-.043-.163-.048-.247-.01-.084 0-.168 0-.252 0-.085-.033-.164-.033-.253 0-.126.005-.126.005-.247v-.248c0-.121-.015-.121-.015-.247s.01-.122.01-.248.024-.121.024-.247-.01-.122-.01-.248v-.247c0-.126-.019-.126-.019-.248v-.247c0-.122.033-.126.033-.248 0-.121-.01-.126-.01-.247 0-.122-.009-.126-.009-.248 0-.121.024-.126.024-.247v-.495c0-.126-.014-.126-.014-.248 0-.121-.02-.126-.02-.247 0-.122-.014-.126-.014-.248 0-.121.01-.126.01-.247 0-.122.033-.126.033-.248 0-.121-.042-.126-.042-.247 0-.122.028-.126.028-.248v-.247c0-.122.01-.126.01-.248 0-.121-.038-.126-.038-.247 0-.122.004-.127.004-.248s.02-.126.02-.247v-.248c0-.121-.024-.126-.024-.247v-.248c0-.121.009-.126.009-.247v-.248c0-.121-.01-.126-.01-.248 0-.12.034-.125.034-.247 0-.121.014-.126.014-.247v-.248c0-.121-.043-.126-.043-.252s.038-.126.038-.248c0-.121-.033-.126-.033-.247 0-.122.005-.126.005-.252s.019-.126.019-.253a.287.287 0 00-.095-.196c-.024-.023-.015-.037-.038-.06-.072-.066-.176-.07-.267-.047-.124.033-.119.042-.243.07-.123.033-.133 0-.256.028-.124.033-.124.028-.248.06-.124.033-.119.038-.243.07-.123.033-.114.061-.238.094-.123.033-.133 0-.257.033-.123.032-.123.037-.242.07-.124.033-.12.056-.243.089-.124.032-.133 0-.252.032-.124.033-.124.038-.248.066-.123.032-.128.023-.252.056-.123.032-.119.056-.238.084-.123.032-.119.046-.242.074-.124.033-.124.029-.248.061-.124.033-.133 0-.257.033-.123.033-.114.075-.233.107-.124.033-.128 0-.252.038-.124.032-.124.023-.248.056-.123.032-.119.042-.242.074-.124.033-.12.052-.243.08-.124.032-.124.032-.247.06-.124.033-.134.005-.253.038-.123.033-.123.028-.247.06l-.247.066c-.124.033-.115.07-.238.103-.124.032-.129.01-.253.042-.123.032-.123.023-.247.056s-.129.023-.252.056c-.124.033-.12.047-.243.08-.057.013-.095.07-.095.13v.173c0 .07.033.14.08.191.058.056.1.131.158.192.052.06.114.116.166.177.053.066.096.13.148.196.047.066.119.117.166.182.043.07.081.14.124.21.043.07.09.136.129.21a3 3 0 01.109.22c.033.075.033.164.062.238.033.075.08.14.11.22.028.075.052.154.075.229.024.08.024.163.043.243.02.079.076.149.09.228.015.08.02.164.03.243.013.08.037.159.047.238.01.08-.024.164-.02.248 0 .08.048.159.048.243 0 .126-.028.126-.028.252s.014.126.014.252-.005.126-.005.252.005.126.005.252c0 .127.01.127.01.253s-.034.126-.034.252.01.126.01.252-.014.126-.014.252.019.126.019.252.023.126.023.253c0 .126-.042.126-.042.252s.023.126.023.252.01.126.01.252-.02.126-.02.252v.505c0 .126.006.126.006.252s.01.126.01.252-.02.126-.02.252.014.126.014.252c0 .084.02.168.015.248-.005.084-.02.163-.029.247-.01.084-.038.164-.052.243-.014.084-.01.168-.029.248-.019.08-.043.163-.062.238-.023.08-.076.15-.1.229-.028.08-.057.154-.085.228-.034.08-.067.155-.1.225-.034.08-.043.163-.081.233-.038.075-.072.154-.11.22-.042.074-.114.126-.157.191-.061.103-.142.108-.209.084-.029-.01-.124-.037-.105-.159.02-.126-.004-.13.01-.256.019-.127.047-.122.062-.248.019-.126.014-.126.028-.252.015-.126.015-.126.034-.252.014-.126.033-.126.047-.252.014-.127.02-.127.034-.253.019-.126 0-.126.014-.257.019-.126.033-.126.052-.252.02-.126.024-.126.038-.252.02-.126.005-.126.024-.257.014-.126 0-.126.019-.257.014-.126.024-.126.038-.252.02-.126.005-.126.024-.257.014-.126.038-.121.057-.252.014-.126-.01-.13.005-.257.019-.126.014-.126.033-.256 0-.038 0-.07-.024-.099-.028-.028-.062-.05-.1-.046-.08.004-.076.023-.157.028a.095.095 0 00-.076.032c-.086.09-.11.066-.19.155-.086.088-.072.098-.157.186-.086.09-.09.08-.176.169-.086.088-.076.093-.162.182-.086.088-.095.079-.18.163-.087.089-.091.084-.172.173-.086.089-.062.107-.148.196-.085.089-.08.089-.166.178-.086.088-.086.088-.172.172-.085.089-.076.094-.161.182-.086.09-.12.056-.205.145-.057.06-.09.14-.152.201-.057.056-.134.103-.195.159-.062.056-.11.126-.172.182-.062.056-.138.098-.2.15-.061.055-.114.12-.176.177-.062.051-.119.117-.185.168-.067.051-.148.084-.214.135-.067.052-.138.094-.205.145-.067.052-.124.112-.19.163-.067.047-.138.094-.205.14-.066.047-.143.085-.214.127-.071.046-.138.098-.205.14-.071.042-.142.089-.214.13-.071.043-.157.061-.228.099-.072.042-.138.093-.214.13-.072.038-.153.066-.229.103-.076.037-.138.094-.214.13-.076.038-.147.08-.223.113l-.229.098c-.076.033-.148.075-.228.108-.076.032-.157.056-.233.088-.077.033-.153.075-.229.103-.076.028-.171.023-.247.051l-.238.084c-.081.024-.153.075-.233.098-.081.024-.162.038-.243.061-.081.023-.167.028-.248.051-.08.024-.161.038-.242.057-.081.018-.162.046-.243.06-.08.014-.157.066-.238.08-.08.018-.166.014-.252.028-.081.014-.167.023-.248.032-.08.014-.161.038-.247.052-.08.01-.171-.005-.252 0-.081.01-.167.028-.248.037-.057.005-.114 0-.152-.037a.2.2 0 01-.066-.15c0-.126.028-.126.028-.252s-.028-.126-.028-.252v-.248c0-.121.018-.126.018-.252s-.014-.126-.014-.252-.005-.126-.005-.252-.014-.126-.014-.252.034-.126.034-.248c0-.121-.034-.126-.034-.252s.015-.126.015-.252.023-.126.023-.248c0-.121-.014-.126-.014-.252s.024-.126.024-.247c0-.122-.02-.126-.02-.248 0-.121.015-.126.015-.247 0-.122-.01-.127-.01-.248s.01-.126.01-.247c0-.122-.019-.127-.019-.248s.019-.126.019-.247c0-.122-.01-.127-.01-.253s.01-.126.01-.247c0-.122-.033-.126-.033-.252s-.01-.126-.01-.252c0-.127.01-.127.01-.248s.023-.126.023-.252v-.248c0-.121.01-.126.01-.252s-.024-.126-.024-.252v-.252c0-.126-.019-.126-.019-.252 0-.127.048-.127.048-.248s-.034-.126-.034-.252.015-.126.015-.252-.02-.126-.02-.252c0-.127.024-.127.024-.253s-.038-.126-.038-.252.015-.126.015-.252.019-.126.019-.252-.01-.126-.01-.248c0-.121.005-.126.005-.247v-.252c0-.126-.014-.126-.014-.252 0-.127.023-.127.023-.253s-.028-.126-.028-.252.014-.126.014-.252.024-.126.024-.252v-.252c0-.127-.01-.127-.01-.253s.005-.126.005-.252-.028-.126-.028-.252.005-.126.005-.252c0-.084-.01-.168-.01-.248 0-.084.029-.163.033-.247 0-.084 0-.168.005-.248.005-.084 0-.168.01-.247a4.21 4.21 0 01.033-.248c.01-.084.057-.158.071-.242.015-.085 0-.169.015-.253.014-.08.052-.159.07-.238.015-.08.01-.168.03-.247.018-.08.047-.16.066-.238.024-.08.043-.16.067-.239.023-.08.076-.15.1-.229.023-.079.014-.168.042-.247.029-.08.096-.14.124-.22.029-.079.029-.168.057-.242.034-.075.067-.15.1-.23.034-.074.09-.14.124-.219.033-.074.043-.163.08-.238.039-.075.096-.135.134-.21.038-.075.08-.145.119-.22.038-.074.071-.149.114-.224l.129-.21c.043-.07.071-.15.114-.22.043-.07.11-.13.152-.2.043-.07.09-.14.138-.21.048-.07.057-.164.11-.23.047-.07.119-.12.166-.19.034-.047.029-.108.029-.164 0-.084.01-.084.01-.168 0-.038.004-.08-.02-.103-.024-.023-.071-.01-.105-.01-.123.01-.123.01-.247.015-.124.01-.124-.005-.252 0-.124.01-.124 0-.252.005-.124.009-.124.023-.248.032-.123.01-.123.023-.247.033-.124.01-.129-.033-.253-.023-.123.009-.123.046-.247.056-.124.009-.124 0-.247.009-.124.01-.129-.028-.253-.019-.123.01-.123.042-.247.052-.124.009-.124 0-.252.004-.124.01-.124.019-.248.028l-.247.019c-.124.01-.124 0-.248.01l-.247.018c-.124.01-.124.019-.247.023-.124.005-.129-.014-.253-.004-.123.009-.123.014-.247.023-.124.01-.124-.01-.252 0-.124.01-.124.037-.248.047-.123.009-.123 0-.252.009-.124.01-.124.023-.247.028-.124.01-.124 0-.253.01-.123.009-.123.004-.247.013-.124.01-.124.005-.252.014-.124.01-.124.014-.248.024-.123.01-.128-.014-.252 0-.124.01-.124.014-.247.023-.124.01-.129-.014-.252-.005-.124.01-.124.052-.248.061-.124.01-.128-.014-.252-.005-.124.01-.124.02-.248.028-.123.01-.123.02-.247.029-.124.009-.128-.02-.252-.01l-.253.019c-.128.01-.123.01-.252.018-.123.01-.128 0-.252.01s-.124.014-.252.023c-.129.01-.129-.004-.252 0-.129.01-.124.038-.248.047-.123.01-.123.023-.252.028a.255.255 0 00-.171.08.242.242 0 00-.076.172v.033c0 .051.019.093.052.14.047.07.062.159.105.229.047.07.104.13.147.2s.105.131.148.201.08.145.119.22c.043.075.08.145.123.215.038.074.072.15.11.224.038.075.08.145.114.22.038.074.062.153.095.228.034.075.076.15.11.224.033.075.066.154.095.23.028.074.066.149.095.228.029.08.029.163.052.243.029.08.076.15.1.229.024.079.029.163.053.242.023.08.066.155.09.234.019.08.048.159.067.238.019.08 0 .168.019.248.014.08.052.158.066.238.015.08.015.163.029.247.014.08.043.16.052.243l.029.248c.01.08.01.163.019.247.005.084-.024.168-.02.248 0 .084.044.163.048.247 0 .08-.033.164-.033.248 0 .121.029.121.029.243v.242c0 .122-.02.122-.02.243 0 .122.015.122.015.243v.486c0 .121.01.121.01.243v.485c0 .122-.01.122-.01.243v.243c0 .121.014.121.014.243 0 .121-.024.121-.024.247s.034.122.034.243c0 .122-.02.122-.02.243s-.009.121-.009.243v.49c0 .122-.01.122-.01.243s.03.121.03.243c0 .121.013.121.013.243 0 .121-.028.121-.028.242 0 .122.005.122.005.243 0 .122.019.122.019.248s-.038.121-.038.247c0 .127.033.122.033.248s-.014.121-.014.247c0 .127.01.122.01.248s-.015.121-.015.247c0 .127.033.122.033.248s-.024.121-.024.247c0 .084-.01.164-.014.248 0 .084-.014.163-.019.248 0 .084.033.168.024.247-.005.08-.043.163-.052.243-.01.084.009.168 0 .247-.01.084-.03.164-.043.243-.01.084-.02.164-.034.243-.014.08-.019.164-.033.243-.014.08-.024.163-.043.243-.014.08-.057.158-.071.238-.02.08-.048.159-.067.238-.019.08-.038.159-.062.238-.019.08-.043.159-.066.238-.024.08-.015.169-.038.243l-.072.238c-.023.08-.052.154-.08.234-.03.08-.063.154-.091.229-.029.074-.08.145-.114.22-.034.074-.062.153-.095.228-.034.075-.034.163-.067.243-.033.075-.09.14-.128.215-.034.074-.058.154-.09.228-.039.075-.1.136-.139.21-.038.075-.057.16-.095.23s-.086.14-.129.214c-.042.07-.09.14-.133.21-.043.07-.076.145-.124.215-.023.042-.019.094-.019.145 0 .093-.033.093-.033.192 0 .032.043.05.067.079a.095.095 0 00.076.033s.005.023.01.023l.252-.019c.128-.01.128.005.252 0 .123-.01.123-.046.247-.056.124-.01.124-.014.252-.023.124-.01.129.019.253.014.123-.01.128 0 .252 0 .124-.01.124-.047.247-.056.124-.01.129.032.252.023.124-.01.124-.037.248-.047.124-.009.124 0 .252-.009.124-.01.129.019.252.01.124-.01.124-.042.248-.052.123-.01.123-.005.252-.014.124-.01.129.024.252.014.124-.01.124-.042.248-.051.123-.01.128.004.252 0 .124-.01.124-.014.252-.024.124-.009.128 0 .252 0 .124-.009.124-.014.253-.023.123-.01.128 0 .252-.01.123-.009.123-.023.247-.032.129-.01.129.005.252 0 .124-.005.124-.01.253-.019.123-.009.128 0 .252-.004.123-.01.123-.005.252-.014.124-.01.124-.005.252-.014.124-.01.124-.033.248-.038.123-.009.128.01.252 0 .123-.009.128 0 .252-.009.124-.01.124-.051.247-.06.124-.01.129.018.253.009.123-.01.128-.005.252-.014.124-.01.124-.014.252-.024.124-.01.124-.019.247-.028.124-.01.129.01.253 0 .123-.01.123 0 .252-.01.124-.008.124-.023.247-.032.124-.01.124-.032.248-.042.123-.01.128.005.252 0 .124-.01.128 0 .252-.01.124-.009.124-.027.252-.032.124-.01.129.023.253.019.123-.01.123 0 .252-.01.123-.009.123-.018.252-.023l.252-.019c.124-.009.124-.014.252-.023.124-.01.124-.019.253-.028.128-.01.128-.005.252-.014.128-.01.128-.005.252-.014.129-.01.124-.028.252-.037.124-.01.129.004.252 0 .129-.01.129.018.253.009.128-.01.123-.014.252-.023.124-.01.124-.042.247-.052.124-.009.129.005.253 0 .123-.009.128.005.252 0 .123-.009.123-.009.252-.014.124-.01.124-.032.247-.042.124-.01.129.014.252.005.129-.01.124-.033.253-.042.123-.01.128-.005.252-.014.128-.01.128.014.252 0 .129-.01.129.01.252 0 .124-.01.124-.019.253-.028.128-.01.128 0 .252-.01.128-.009.123-.041.252-.05.129-.01.129.008.252 0 .129-.01.129-.01.252-.015.129-.01.129 0 .253-.01.128-.008.123-.022.252-.032.123-.01.123-.005.247-.014.124-.01.124-.023.248-.033.123-.009.123-.004.247-.014.124-.009.129.024.252.014l.248-.018c.123-.01.128 0 .252-.01.124-.009.124-.051.247-.06l.253-.019c.123-.01.123 0 .252-.005.124-.009.128.019.252.01.124-.01.124-.047.248-.056.123-.01.128.018.252.009.123-.01.123-.019.247-.028.124-.01.129 0 .252-.01.124-.009.124 0 .252-.013.129-.014.124-.024.248-.033.124-.01.129.005.252 0 .124-.005.124-.037.248-.047l.252-.019c.124-.009.124 0 .252-.009.129-.01.124-.019.252-.028.124-.01.129.01.252 0 .124-.01.124.005.253 0 .123-.01.123-.018.247-.023.124-.01.124 0 .252-.01.124-.009.124-.014.252-.023.124-.01.124-.014.253-.023.123-.01.123 0 .252-.01.124-.009.124-.023.252-.028.124-.009.124-.014.252-.023.124-.01.124-.019.252-.028.124-.01.129.019.253.01.123-.01.128-.005.252-.015.124-.009.128-.004.252-.014.124-.009.124-.051.248-.06.128-.01.128.032.257.023.128-.01.123-.042.252-.051.123-.01.128.018.252.009l.252-.019c.129-.009.124-.014.252-.023.129-.01.124-.033.253-.042.128-.01.128-.014.252-.019.128-.01.128-.01.252-.014.129-.01.129.033.257.024l.252-.02c.129-.008.129-.008.252-.013.129-.01.129-.019.253-.028.128-.01.123-.028.252-.038.128-.009.128-.014.252-.023.128-.01.128 0 .252-.014l.252-.019c.129-.009.129.01.257 0 .129-.009.124-.023.252-.032l.253-.019.252-.019c.128-.009.128 0 .252-.009.129-.01.129-.005.257-.014.129-.01.129 0 .252-.01.129-.009.124-.041.252-.05.129-.01.129.009.253 0 .128-.01.128.004.257 0 .128-.01.123-.029.252-.038.128-.01.128.01.257 0 .128-.01.128 0 .257-.005.128-.009.123-.037.252-.046.128-.01.128.018.257.009.128-.01.124-.037.252-.047.129-.01.129-.004.252-.014.129-.01.129.01.257 0 .129-.01.129-.014.257-.023.129-.01.129 0 .257-.01.072-.004.133-.05.181-.098.048-.05.09-.112.09-.182 0-.009-.009-.009-.009-.018 0-.056 0-.122-.033-.164-.048-.07-.105-.126-.153-.196-.047-.07-.095-.135-.138-.205-.042-.07-.095-.136-.138-.21-.042-.07-.071-.15-.114-.225-.038-.074-.066-.154-.1-.229-.038-.074-.071-.149-.11-.224-.032-.074-.094-.14-.128-.215-.033-.074-.057-.158-.085-.233-.029-.08-.053-.159-.081-.233-.029-.08-.034-.164-.057-.243l-.072-.239c-.023-.079-.038-.158-.057-.242-.019-.08-.076-.154-.095-.234-.019-.08-.043-.163-.057-.243a3.934 3.934 0 01-.033-.247c-.015-.08-.024-.164-.038-.248-.01-.084.01-.168 0-.247-.01-.084-.02-.164-.024-.248 0-.084-.024-.163-.024-.247 0-.084-.014-.164-.014-.248 0-.121.023-.121.023-.243v-.485c0-.122-.023-.122-.023-.248s.023-.121.023-.247-.019-.122-.019-.248.02-.121.02-.247.019-.122.019-.248-.029-.121-.029-.247.005-.122.005-.248.019-.121.019-.247-.024-.122-.024-.248v-.247c0-.126.01-.122.01-.248s-.01-.121-.01-.243c0-.121-.005-.121-.005-.242v-.248c0-.126.034-.121.034-.247 0-.127-.005-.122-.005-.248s-.015-.121-.015-.248c0-.126-.004-.121-.004-.247s-.01-.122-.01-.248.029-.121.029-.247.005-.122.005-.248.004-.121.004-.247-.014-.122-.014-.248-.01-.121-.01-.247c0-.075.039-.136.096-.187.057-.051.11-.107.171-.154.062-.047.114-.107.176-.154.062-.042.138-.07.205-.112.066-.038.138-.07.209-.108.071-.037.133-.079.21-.107.07-.033.147-.056.223-.084.076-.028.148-.056.224-.08.076-.023.143-.07.223-.088.076-.019.157-.038.233-.052.077-.014.162 0 .243-.009.081-.01.157 0 .238-.01.081-.004.162-.032.238-.032.081 0 .162-.01.243 0 .08.005.157.051.233.065.08.014.162.02.233.038.076.023.152.056.219.093.071.033.133.089.195.13.067.048.148.071.205.127.062.06.123.13.176.2.052.07.08.16.119.239.038.08.104.145.133.234.029.084.038.172.057.261.014.084.029.173.038.262.01.084.005.172.005.266 0 .121.005.121.005.247s-.01.122-.01.243c0 .122.014.122.014.243s-.014.121-.014.243c0 .121.01.121.01.243v.728c0 .122-.01.122-.01.243s.02.121.02.243c0 .121-.02.121-.02.243 0 .121.02.121.02.242v.486c0 .122-.02.122-.02.243s.005.121.005.248v.485c0 .122-.01.122-.01.248s.024.121.024.247.014.122.014.248-.033.121-.033.247v.248c0 .08.014.163.014.243v.242c0 .08-.023.16-.028.243-.01.08-.024.159-.033.238-.01.08 0 .164-.015.243-.01.08-.01.164-.024.243-.014.08-.028.159-.047.238-.014.08-.062.154-.081.234-.019.08-.033.159-.052.238a3.33 3.33 0 01-.062.233c-.024.08-.067.15-.09.225-.024.079-.043.158-.072.233-.029.075-.067.15-.095.224-.029.075-.053.154-.081.23l-.1.223c-.033.075-.067.15-.1.22a2.715 2.715 0 01-.11.215 10.959 10.959 0 01-.242.425c-.038.07-.048.158-.09.228-.043.07-.11.126-.153.192a.278.278 0 00-.047.15v.158c0 .037.01.084.038.112.024.023.076.005.11 0 .128-.01.128.023.256.014.124-.01.124-.023.252-.028.129-.01.124-.033.253-.042.128-.01.128.01.252 0 .123-.01.128 0 .252-.005.128-.009.124-.037.252-.042.129-.009.129.028.257.02.129-.01.124-.034.252-.043.129-.01.129 0 .253 0 .128-.01.128.01.252 0 .128-.01.123-.042.252-.047.128-.009.128.01.257 0 .128-.009.128 0 .252-.009.129-.01.124-.033.252-.042.129-.01.129 0 .253-.01.128-.009.123-.027.252-.037.128-.01.128.014.257.005.128-.01.128 0 .252 0 .128-.01.128-.01.252-.014.129-.01.129-.023.252-.033.129-.01.129 0 .257-.005.129-.009.124-.042.253-.05.128-.01.128.023.257.013.128-.01.128 0 .252-.014.128-.01.123-.032.252-.042.128-.01.128.014.257.01.128-.01.123-.024.252-.033.129-.01.129.004.257 0 .129-.01.129 0 .252-.014.129-.01.129-.019.252-.028.129-.01.129-.024.253-.033.128-.01.128.014.257.005.128-.01.128-.019.252-.028.128-.01.128-.028.252-.038.129-.009.129 0 .257-.009.071-.005.147-.023.195-.07a.282.282 0 00.067-.196c0-.01.019-.01.019-.019 0-.06-.038-.117-.076-.163a3.215 3.215 0 01-.148-.206l-.143-.21c-.047-.07-.08-.15-.128-.22-.043-.07-.11-.13-.152-.205-.043-.075-.058-.163-.096-.238-.038-.075-.11-.136-.147-.21-.038-.075-.067-.154-.1-.234-.033-.08-.067-.154-.1-.233-.033-.08-.067-.159-.095-.234-.029-.08-.033-.168-.057-.247-.029-.08-.062-.159-.086-.238-.024-.08-.038-.164-.062-.243-.019-.08-.076-.154-.095-.238-.019-.084 0-.173-.014-.257-.014-.084-.057-.164-.072-.243-.014-.084-.038-.163-.052-.248-.01-.084 0-.168-.01-.252-.009-.084-.009-.168-.014-.252-.005-.084-.038-.168-.043-.252 0-.084.029-.168.029-.252 0-.122-.024-.122-.024-.248v-.495c0-.121-.005-.121-.005-.247v-.248c0-.121.038-.121.038-.247 0-.127-.019-.122-.019-.248s-.019-.121-.019-.247v-.248c0-.126.015-.126.015-.247 0-.122.019-.122.019-.248s-.005-.121-.005-.247v-.248c0-.126.01-.121.01-.247 0-.127-.034-.127-.034-.248v-.248c0-.12.024-.125.024-.247 0-.121.01-.126.01-.247v-.248c0-.121-.005-.126-.005-.248v-.247c0-.126-.005-.126-.005-.247 0-.122.01-.127.01-.248 0-.084-.024-.168-.034-.252a2.092 2.092 0 00-.033-.248 3.9 3.9 0 00-.038-.247c-.02-.084-.024-.168-.048-.248-.024-.08-.033-.168-.062-.247a4.822 4.822 0 00-.09-.238c-.029-.08-.086-.145-.119-.225-.033-.074-.057-.158-.105-.233-.043-.07-.076-.154-.133-.224-.052-.07-.114-.131-.171-.196-.057-.066-.138-.112-.195-.173-.062-.066-.138-.117-.196-.173m-5.71-13.772c.02-.093.11-.14.167-.154.014 0 .033-.033.052-.033.033 0 .067.038.1.075.062.066.148.108.214.168.067.061.133.122.205.178.071.056.128.13.204.182.048.033.062.07.057.126-.004.07-.028.13-.095.163-.076.038-.152.08-.223.122-.076.042-.153.075-.224.121-.071.042-.138.098-.21.145-.07.047-.147.037-.218.023-.076-.018-.162-.042-.2-.107a.29.29 0 01-.02-.229c.03-.084.082-.159.106-.247.023-.084.01-.182.028-.266.02-.085.034-.173.053-.262m1.384 9.499c0-.084.034-.168.053-.257.019-.084.1-.159.19-.159.014 0 .029.033.043.033.1.018.21.014.31.032.099.014.204.033.304.043.076.009.147.041.218.046.077.005.148.01.224.01.076 0 .148-.014.224-.014.076 0 .147-.01.219-.014.085-.005.171-.005.257-.014.085-.01.166-.029.252-.043.08-.009.171 0 .257-.018.086-.014.162-.06.247-.075.081-.014.167-.023.253-.037.085-.019.175 0 .256-.019.081-.019.157-.07.243-.093.081-.02.171-.01.257-.028.081-.02.167-.038.248-.061.08-.023.152-.08.238-.103.08-.023.166-.037.247-.065.08-.024.166-.033.252-.056.081-.024.157-.07.243-.098.08-.028.171-.028.252-.056.076-.028.143-.08.219-.103.076-.023.157-.042.233-.066.08-.023.157-.046.233-.07.081-.023.157-.05.229-.074.08-.024.161-.033.238-.056.08-.024.157-.047.233-.066.08-.023.147-.08.223-.098.081-.023.167-.018.243-.037.081-.024.152-.075.224-.089.085-.018.166-.023.238-.037.095-.019.176-.024.238-.028.08-.005.161-.01.237-.01.081 0 .162-.009.243 0 .081.01.162.033.238.047.081.014.157.033.233.06.076.029.153.057.224.09.071.037.143.074.205.121a1.098 1.098 0 01.319.35c.038.066.066.14.09.215.024.07.033.15.047.229.01.075.048.15.048.233 0 .09-.024.173-.038.257a2.314 2.314 0 01-.152.495c-.038.08-.081.15-.129.224-.047.07-.08.15-.138.22-.052.065-.124.121-.185.182-.062.06-.11.13-.181.192-.067.056-.153.088-.224.14-.071.051-.128.116-.204.163l-.22.126c-.07.042-.152.07-.228.107-.076.038-.162.052-.238.09-.076.032-.147.074-.228.107-.076.028-.157.065-.238.093-.081.028-.167.033-.248.056-.08.023-.157.056-.242.08-.081.018-.162.032-.248.05-.08.02-.157.066-.242.08-.081.014-.167.024-.253.038-.08.014-.17 0-.257.009-.08.01-.161.06-.247.07-.086.01-.171-.005-.257 0-.086.01-.166.019-.257.023-.08.005-.166-.014-.247-.009-.081 0-.167.047-.248.047-.085 0-.166-.042-.247-.042-.086 0-.167.023-.248.023-.085 0-.166-.019-.247-.023-.086 0-.167-.01-.248-.019a4.49 4.49 0 01-.247-.037c-.08-.01-.167.009-.252-.005-.081-.014-.162-.051-.243-.065-.08-.014-.171 0-.247-.02-.081-.018-.157-.05-.238-.074-.081-.023-.162-.037-.238-.065-.081-.028-.157-.056-.233-.084-.077-.028-.153-.07-.224-.103-.076-.033-.148-.075-.219-.112-.076-.037-.152-.065-.219-.103-.071-.042-.128-.107-.19-.15-.072-.046-.152-.07-.214-.111-.067-.052-.133-.094-.19-.145-.063-.056-.11-.122-.162-.182-.058-.06-.12-.112-.162-.178-.048-.065-.067-.144-.105-.215-.038-.07-.057-.144-.08-.219-.025-.075-.058-.15-.067-.229-.015-.08-.038-.154-.038-.238m3.23-13.295c0-.085.024-.164.024-.248 0-.084-.019-.163-.019-.247 0-.085.038-.164.038-.243 0-.084-.019-.164-.014-.248.005-.084.014-.163.02-.247.004-.084.042-.164.047-.243l.028-.243c.01-.084.005-.168.02-.243.014-.084.023-.163.037-.243.015-.084.038-.163.058-.238.019-.084.023-.163.047-.238.024-.084.062-.154.09-.229.029-.08.024-.168.053-.243.033-.08.076-.15.114-.22.043-.079.114-.135.162-.205.052-.074.076-.163.133-.228.062-.066.148-.103.214-.155.067-.056.138-.102.214-.144.077-.047.138-.117.22-.15.08-.032.166-.056.251-.08.081-.023.172-.023.262-.037.086-.014.172-.042.262-.046.086-.005.171.018.252.023.086 0 .171-.019.252-.01.086.015.167.038.243.061.08.024.157.061.233.094.076.037.148.075.214.126.067.047.12.112.181.173.057.056.11.121.157.187.048.065.124.116.162.191.038.065.047.15.08.224.03.07.091.136.12.21.024.07.038.154.062.234.019.075.033.154.052.233.019.075.038.154.052.234.015.075.043.154.053.233.014.08.01.16.019.239l.028.238c.01.08.02.158.024.238.005.08.014.159.02.238l.013.238v.238c0 .08-.004.16-.004.239 0 .079-.005.158-.005.238 0 .088.028.172.028.256 0 .09-.023.173-.023.257 0 .09-.015.173-.02.257 0 .089-.009.173-.014.257-.004.089-.014.173-.024.257-.009.089 0 .173-.009.257-.01.088-.033.168-.048.252-.014.089-.004.173-.019.257-.014.084-.057.163-.076.247-.019.084-.019.173-.038.252-.024.085-.052.169-.076.243-.028.084-.071.16-.1.234-.033.084-.09.15-.128.22-.043.079-.072.158-.124.228-.052.075-.1.145-.157.21-.057.066-.133.108-.2.164-.067.056-.128.112-.205.159a1.607 1.607 0 01-.233.112c-.08.032-.152.088-.238.112-.08.023-.171.032-.257.046-.085.014-.176 0-.261 0-.086.005-.172.047-.248.047-.085 0-.166-.033-.247-.042a1.457 1.457 0 01-.248-.047c-.08-.023-.152-.07-.223-.107-.077-.033-.167-.042-.238-.089-.067-.046-.105-.13-.167-.187-.057-.056-.133-.098-.185-.168-.048-.065-.081-.14-.124-.21-.038-.07-.081-.145-.114-.224-.034-.075-.053-.154-.081-.238-.029-.075-.081-.15-.105-.234-.024-.08-.019-.163-.038-.252-.02-.08-.067-.154-.08-.238-.015-.08-.015-.164-.03-.252-.014-.08-.033-.164-.042-.248a3.88 3.88 0 01-.02-.252c-.009-.084 0-.168-.009-.252-.005-.084 0-.168-.01-.252 0-.084-.018-.164-.023-.252 0-.085.024-.168.024-.253 0-.084-.043-.168-.043-.252m-10.76 2.765c0 .084-.023.163-.023.247 0 .084.024.164.019.248 0 .084-.033.163-.038.243 0 .084.019.163.019.247 0 .084-.01.164-.014.243 0 .084-.034.163-.038.243 0 .084-.01.163-.015.243-.005.08.005.163 0 .243l-.014.242c-.005.08-.024.164-.029.243-.01.08 0 .164-.014.243-.01.084-.038.159-.047.238-.01.084.014.168 0 .248-.01.08-.034.163-.043.243-.014.079-.057.158-.072.233-.014.08.01.168-.01.248-.013.079-.066.154-.08.233l-.057.238c-.02.08-.005.168-.029.243-.023.08-.052.154-.076.234-.024.079-.066.15-.09.224-.029.08-.038.159-.067.233-.028.08-.09.145-.119.215-.033.08-.043.164-.08.234-.039.074-.086.144-.13.214-.042.075-.09.14-.137.206-.048.07-.095.135-.148.196-.052.065-.119.117-.176.173-.057.06-.119.112-.185.163-.067.052-.115.126-.186.168-.071.042-.157.056-.233.094-.076.032-.143.093-.224.117-.076.023-.162.032-.247.046-.081.014-.167.019-.248.024-.085.004-.171.009-.257.004-.085 0-.176 0-.257-.014-.085-.014-.166-.051-.247-.075a1.533 1.533 0 01-.457-.233 2.087 2.087 0 01-.371-.35c-.052-.066-.095-.136-.147-.21-.043-.066-.081-.145-.124-.22-.038-.07-.072-.15-.11-.229-.033-.074-.1-.14-.128-.22-.033-.074-.043-.163-.072-.242-.028-.075-.047-.159-.07-.243-.025-.08-.048-.159-.072-.243-.02-.08-.038-.159-.057-.242-.02-.08-.053-.16-.072-.243-.019-.08-.019-.164-.038-.248-.014-.08-.048-.159-.062-.243-.014-.08 0-.168-.014-.252-.01-.08-.048-.163-.057-.247l-.029-.248c-.01-.08-.004-.168-.014-.252-.01-.084 0-.168 0-.252-.01-.084-.029-.164-.033-.248-.005-.084-.02-.163-.024-.252-.005-.084.01-.168.005-.252 0-.084-.02-.164-.024-.248v-.252c0-.084-.033-.168-.038-.252v-.252c0-.084.024-.168.024-.252 0-.084-.043-.168-.043-.252 0-.085.024-.164.024-.248 0-.084-.005-.163 0-.243 0-.084.023-.163.028-.243 0-.084-.038-.163-.033-.247 0-.08.047-.164.052-.243 0-.084-.019-.164-.014-.243 0-.08.024-.163.029-.243l.014-.243c.005-.079.023-.163.028-.242.005-.08-.014-.164-.01-.243.01-.084.044-.159.048-.238.01-.085-.014-.169-.004-.248.01-.084.033-.159.042-.238.01-.08.015-.164.024-.243l.043-.238c.014-.08.038-.159.052-.238.015-.08.038-.16.057-.238.02-.08.024-.164.043-.239.02-.079.067-.154.086-.228.024-.08.014-.164.038-.243.024-.08.038-.16.067-.234.023-.08.066-.15.095-.224.028-.08.047-.159.076-.233.033-.08.09-.145.124-.215.038-.075.08-.145.123-.215.043-.075.077-.15.12-.215.047-.07.109-.126.156-.187.053-.065.105-.13.162-.187.057-.06.105-.135.167-.182.066-.051.138-.093.21-.135.07-.042.151-.065.228-.098.076-.033.152-.066.228-.094.076-.023.152-.065.238-.079.08-.014.166-.023.247-.028.053 0 .105.033.157.033.081 0 .167-.038.248-.028.08.01.152.065.233.084.08.018.152.046.228.08.076.032.162.032.234.074.066.042.119.107.185.159.062.051.138.088.195.144a2.7 2.7 0 01.162.183c.048.06.071.144.119.21.043.065.08.135.124.205.038.07.08.136.114.21.033.07.076.14.105.215.033.075.042.159.071.243.029.075.08.145.11.229.023.08.042.159.066.243.024.08.02.163.043.247.019.08.033.164.052.243.02.08.053.159.072.243.014.08.042.159.057.243.014.08.014.163.028.247.015.08.034.164.043.248.01.084.033.163.043.247.01.08-.014.168-.005.252l.029.248c.01.084.01.163.019.252.005.084.01.168.019.252.005.084.019.164.024.252 0 .084-.01.169-.005.253 0 .084 0 .168.005.252 0 .084.038.163.038.252 0 .084-.015.168-.015.252 0 .084.015.168.015.252 0 .084.019.168.019.252m-17.188 1.15c0 .083-.024.163-.024.242 0 .084.024.164.019.248 0 .084-.033.163-.033.242 0 .085.019.164.019.243 0 .084-.01.164-.015.243 0 .084-.033.164-.038.243 0 .08-.01.163-.014.243-.005.084.005.163 0 .243l-.014.243c-.005.079-.024.163-.029.242-.01.08 0 .164-.014.243-.01.08-.038.159-.048.238-.01.085.015.169 0 .248-.01.084-.033.163-.042.243-.015.084-.058.159-.072.233-.014.08.01.168-.01.248-.014.08-.066.154-.08.233l-.057.238c-.02.08-.005.169-.029.243-.024.08-.052.154-.076.234-.024.08-.067.15-.09.224-.029.08-.038.163-.067.233-.029.08-.09.145-.119.215-.033.08-.043.164-.08.234-.039.075-.087.145-.13.215-.042.074-.09.14-.137.205a2.13 2.13 0 01-.148.196c-.052.066-.119.117-.176.173-.062.06-.124.112-.186.163-.066.052-.114.126-.185.169-.072.042-.157.056-.233.093-.076.033-.143.093-.224.117-.076.023-.166.032-.247.046a2.08 2.08 0 01-.248.024c-.085.004-.171.01-.257 0-.085 0-.176 0-.257-.014-.085-.014-.166-.052-.247-.075a1.52 1.52 0 01-.238-.103 1.312 1.312 0 01-.219-.135c-.067-.052-.133-.103-.2-.164a2.183 2.183 0 01-.171-.186c-.053-.066-.095-.136-.148-.21-.047-.07-.08-.145-.123-.22-.038-.07-.072-.15-.11-.229-.033-.075-.095-.14-.128-.22-.029-.074-.043-.163-.072-.242-.028-.075-.047-.159-.071-.243a3.602 3.602 0 01-.067-.243l-.057-.243c-.019-.08-.052-.159-.071-.242-.02-.08-.02-.164-.038-.248-.015-.08-.048-.159-.062-.243-.014-.08 0-.168-.014-.252-.015-.08-.048-.163-.057-.248l-.03-.247c-.009-.08-.004-.168-.013-.252-.01-.084 0-.168 0-.252-.01-.085-.029-.164-.034-.248-.004-.084-.019-.163-.024-.252-.004-.084.01-.168.005-.252 0-.084-.019-.164-.023-.248v-.252c0-.084-.034-.168-.039-.252v-.252c0-.084.024-.168.024-.252 0-.085-.043-.169-.043-.253 0-.084.024-.163.024-.243v-.242c0-.085.024-.164.029-.243 0-.084-.038-.164-.034-.243 0-.084.048-.163.053-.243 0-.084-.02-.163-.014-.243 0-.084.023-.163.028-.243l.014-.242c.005-.08.024-.164.029-.243.005-.08-.014-.164-.01-.243.01-.084.038-.159.048-.238.01-.084-.014-.168-.005-.248.01-.08.034-.159.043-.238.01-.08.014-.163.029-.243l.042-.238c.015-.08.038-.159.053-.238.014-.08.038-.159.057-.238.019-.08.024-.164.043-.239.019-.079.066-.154.085-.228.02-.08.015-.164.038-.243.024-.08.038-.159.062-.234.024-.079.067-.15.095-.224.029-.08.048-.159.077-.233.033-.08.09-.145.123-.215a3.2 3.2 0 01.124-.215c.043-.075.076-.15.119-.215.048-.07.11-.126.157-.187.052-.065.105-.13.162-.186.057-.061.104-.136.166-.182a1.88 1.88 0 01.21-.136c.071-.042.152-.065.228-.098.076-.033.152-.065.229-.093.076-.024.152-.066.238-.08.08-.014.166-.023.247-.028.052 0 .105.033.157.033.086 0 .166-.037.247-.028.081.01.157.065.234.084.08.019.152.047.228.08.076.032.162.037.233.079.067.042.12.107.186.158.062.052.138.09.195.145.052.056.11.117.162.182.047.061.076.14.119.21.042.066.08.136.123.206.038.07.081.135.115.21.033.07.076.14.104.215.034.075.043.159.072.243.028.075.08.145.109.229.024.079.043.158.067.243.023.079.019.163.043.247.018.08.033.163.047.248.02.079.052.158.072.242.014.08.042.16.057.243.014.08.014.164.028.248.014.08.033.163.043.247.01.08.033.164.043.248.01.084-.015.168-.005.252l.029.247c.004.085.01.168.019.253.004.084.01.168.019.252.004.084.019.163.023.252.005.084-.01.168-.004.252 0 .084 0 .168.004.252 0 .084.039.164.043.252 0 .085-.014.169-.014.253 0 .084.014.168.019.252 0 .084.019.168.019.252m-18.54-5.132c-.023.084-.07.158-.104.243-.029.084-.038.172-.071.252-.034.08-.1.145-.138.224-.039.08-.062.163-.11.238a3.381 3.381 0 01-.147.215c-.053.07-.129.121-.181.191a3.24 3.24 0 01-.181.197c-.062.06-.114.135-.186.19-.066.057-.133.118-.204.17a3.658 3.658 0 01-.224.144c-.076.046-.143.103-.223.145-.077.042-.167.065-.248.102-.071.033-.133.098-.214.126-.076.028-.157.047-.233.075-.076.024-.162.019-.243.037-.076.024-.148.075-.228.094-.081.019-.167 0-.248.014-.08.014-.162.023-.242.033-.081.009-.158.056-.238.06-.081.01-.162.01-.248.014-.133.01-.133-.009-.271 0-.133.01-.133.028-.267.038-.133.009-.138-.019-.27-.01-.134.01-.134.038-.267.047a.21.21 0 01-.153-.06.199.199 0 01-.057-.145V11.8c0-.121.015-.126.015-.247v-.248c0-.121-.034-.126-.034-.247 0-.122.029-.127.029-.248s-.033-.121-.033-.248c0-.126.009-.12.009-.247 0-.126.005-.126.005-.248V9.82c0-.121-.014-.126-.014-.248 0-.12.009-.126.009-.247v-.99c0-.121.01-.126.01-.248 0-.121.01-.126.01-.247 0-.122.009-.126.009-.248 0-.121-.034-.126-.034-.247 0-.122.02-.126.02-.248 0-.121.009-.126.009-.247v-.495c0-.122-.02-.126-.02-.248 0-.121.015-.126.015-.247 0-.122-.019-.126-.019-.248 0-.121.024-.126.024-.247 0-.122-.024-.126-.024-.248V4.87c0-.122.014-.126.014-.252s.02-.126.02-.253c0-.126-.015-.126-.015-.252a.27.27 0 01.071-.187c.048-.05.115-.06.186-.065.133-.01.133-.023.267-.028.133-.01.133 0 .266-.014.133-.01.133-.037.266-.047.134-.009.134 0 .272-.009.133-.01.138.019.27.01.082-.005.153-.052.23-.052.08 0 .156.019.232.019h.238c.081 0 .157.032.234.037.08.005.161-.023.237-.014.081.01.153.065.224.084.081.019.162.01.233.033.077.023.148.06.22.088.075.029.147.057.218.09.072.032.138.079.205.116.071.037.152.056.219.098.066.047.114.112.176.163.062.052.143.08.195.136.057.056.1.121.152.182.048.06.105.121.148.187.042.065.08.135.123.205.038.07.067.145.1.215.034.07.057.145.086.22.028.074.067.144.086.224.023.075.019.159.033.238.019.075.062.15.076.224.014.08.038.154.052.234.015.079.005.158.02.238.009.08.033.154.038.233.009.08-.01.16-.005.238v.239c0 .079.019.158.019.238 0 .084-.014.168-.02.252 0 .084 0 .168-.004.252-.005.084.014.173 0 .257-.01.084-.029.168-.038.252-.01.084-.048.164-.062.248a3.785 3.785 0 01-.047.247c-.02.084-.015.173-.034.252M8.632 22.51c-.057 0-.11-.037-.148-.07-.038-.037-.085-.084-.085-.14 0-.121.033-.121.033-.247s-.024-.122-.024-.248v-.247c0-.126.029-.122.029-.248v-.247c0-.126-.014-.126-.014-.248v-.247c0-.127.01-.122.01-.248s-.015-.121-.015-.247c0-.127.019-.127.019-.248s-.033-.126-.033-.247c0-.122.009-.127.009-.248s.033-.126.033-.247c0-.122-.038-.122-.038-.248s.034-.121.034-.247v-.248c0-.121-.034-.121-.034-.247 0-.127.01-.127.01-.248s.019-.126.019-.248c0-.12-.02-.126-.02-.247s.03-.126.03-.247c0-.122-.03-.122-.03-.248s.01-.121.01-.247c0-.127.005-.122.005-.248v-.248c0-.121.014-.126.014-.247v-.248c0-.121-.033-.126-.033-.247s.029-.126.029-.248c0-.121-.034-.126-.034-.247 0-.122.01-.126.01-.248 0-.121.005-.126.005-.247v-.248c0-.121-.015-.126-.015-.252s.015-.126.015-.247c0-.07.033-.145.076-.196a.295.295 0 01.19-.094l.247-.019.248-.018c.124-.01.124 0 .247-.01.124-.009.124 0 .248-.004.124-.01.124 0 .247-.01.1-.009.195-.042.29-.046.1 0 .2.014.296.014.09 0 .18.01.266.014.09 0 .176.01.266.018.09.005.177.02.262.028.09.01.181.005.267.024.09.014.171.046.257.065.085.019.18.024.261.047.077.023.143.07.22.098.075.028.156.037.228.065.076.033.143.07.214.103.071.037.133.084.2.126.066.042.123.098.185.145.067.047.138.084.195.13.062.052.124.099.181.155.062.06.11.14.167.21.057.065.119.13.171.2.052.07.095.15.138.225.043.075.114.14.152.22.038.079.067.163.1.247.034.08.034.173.062.257.024.075.081.14.105.215.019.074.014.154.028.233.015.075.038.15.048.229.014.075 0 .154.014.233.01.075.062.15.067.23.01.079-.029.158-.024.237.005.08.033.154.038.234 0 .08-.01.154-.01.233v.253c0 .084-.014.168-.018.252-.005.084.019.173.01.252-.01.084-.044.168-.053.247-.01.084.01.173-.005.257-.014.084-.043.164-.057.248-.02.084-.029.168-.048.247a9.043 9.043 0 01-.071.243c-.024.08-.062.154-.09.234-.029.08-.067.15-.1.229-.034.074-.057.154-.096.228-.038.075-.1.131-.142.206-.043.07-.062.154-.11.224-.047.07-.09.14-.142.206-.053.065-.12.116-.172.177-.057.06-.105.135-.171.196-.062.056-.143.098-.21.154-.066.052-.138.098-.209.15-.071.046-.133.107-.21.154-.07.046-.156.074-.232.117-.077.037-.148.084-.229.12-.076.038-.147.094-.228.127-.076.033-.162.051-.243.084-.08.028-.166.033-.252.056-.081.023-.162.051-.248.07-.08.019-.157.06-.242.08-.081.018-.167.032-.253.046-.08.014-.17-.01-.261 0-.086.014-.162.066-.248.075-.085.01-.171-.023-.261-.014-.086.01-.172.014-.257.019-.134.009-.134.046-.267.056-.133.009-.138-.019-.271-.005-.133.01-.133.023-.267.042-.133.014-.133.014-.27.023"/><path d="M69.342 33.806a.55.55 0 01.033-.28.497.497 0 01.186-.21.526.526 0 01.266-.098c.124-.01.124 0 .252-.01.124-.01.124-.004.248-.014s.124-.014.247-.023l.248-.019c.123-.01.123-.004.252-.014.124-.01.124-.004.252-.014l.252-.019.252-.018c.129-.01.124-.014.248-.019l.247-.018c.124-.01.124 0 .253-.01.123-.01.123-.014.247-.023.124-.01.124 0 .252-.01.129-.009.124-.014.252-.018.129-.005.124-.01.253-.019.123-.01.123 0 .252-.014.124-.01.124-.014.252-.019.129-.004.124 0 .252-.014l.252-.018.253-.019c.123-.01.123-.014.252-.019.124-.009.124 0 .252-.014.124-.009.124-.004.252-.014l.252-.018c.124-.01.124-.014.248-.019.124-.01.124-.005.252-.014l.252-.019c.129-.009.124 0 .253-.009.123-.01.123-.019.252-.028.123-.01.123-.01.252-.014.124-.01.128 0 .252-.01.129-.009.124-.013.252-.018.124-.01.129 0 .252-.014l.253-.019c.128-.01.124-.014.252-.023.128-.01.128 0 .252-.01a.437.437 0 00.22-.074.471.471 0 00.151-.168.39.39 0 00.057-.22c0-.08-.014-.159-.019-.238-.004-.08-.014-.159-.019-.238-.01-.08-.019-.159-.033-.238-.01-.08-.019-.16-.033-.239a4.158 4.158 0 00-.048-.238 4.282 4.282 0 00-.11-.467c-.023-.079-.052-.15-.08-.228-.024-.075-.048-.155-.076-.23a4.279 4.279 0 00-.096-.223c-.033-.08-.061-.16-.1-.239-.037-.079-.08-.154-.118-.229a5.455 5.455 0 00-.124-.228c-.043-.075-.081-.15-.129-.224-.047-.075-.095-.145-.142-.215-.048-.07-.105-.14-.157-.206-.053-.07-.11-.135-.162-.2l-.172-.197a3.355 3.355 0 00-.18-.187l-.186-.182h-.005c-.061-.051-.123-.102-.185-.158-.062-.052-.124-.108-.19-.16-.067-.05-.139-.093-.205-.14-.067-.046-.133-.097-.205-.14-.071-.041-.143-.088-.214-.125-.071-.042-.148-.075-.224-.112a9.316 9.316 0 00-.223-.113c-.076-.037-.148-.074-.224-.107-.076-.033-.152-.06-.233-.093-.076-.029-.152-.066-.233-.094-.076-.028-.157-.047-.238-.075-.076-.023-.157-.05-.238-.07a4.413 4.413 0 00-.238-.06 4.038 4.038 0 00-.243-.052c-.08-.018-.161-.032-.242-.046a5.103 5.103 0 00-.243-.038c-.081-.01-.162-.014-.247-.023-.081-.01-.162-.023-.248-.028-.08-.005-.166-.005-.247-.01-.081 0-.162-.009-.248-.009-.08 0-.166-.005-.247-.005h-.248c-.08 0-.166.005-.247.01a2.29 2.29 0 00-.248.014c-.085.005-.171.014-.257.019l-.257.028c-.085.009-.17.018-.256.032-.086.01-.172.024-.257.038l-.258.042c-.085.014-.17.028-.256.046-.086.019-.172.033-.253.056-.085.02-.166.047-.252.066-.085.023-.166.042-.252.065s-.167.047-.248.07c-.08.024-.166.052-.247.08l-.243.084-.242.098a7.807 7.807 0 00-.238.098c-.081.032-.153.07-.233.107-.076.038-.157.07-.234.108a3.166 3.166 0 00-.223.121c-.076.037-.153.08-.224.122-.076.042-.147.084-.224.126-.07.042-.147.084-.218.13a3.277 3.277 0 00-.21.145 3.23 3.23 0 00-.204.15c-.072.05-.138.098-.205.149-.067.051-.133.107-.2.159-.067.051-.128.107-.195.163-.067.056-.124.117-.186.173-.061.056-.123.117-.185.173-.057.056-.12.112-.176.173-.057.06-.105.126-.162.186-.057.061-.114.122-.167.183l-.152.191c-.052.065-.105.126-.152.196-.048.07-.09.14-.138.206-.048.065-.1.13-.143.2-.043.07-.08.14-.124.21l-.128.21c-.038.07-.081.146-.119.22-.038.075-.076.145-.11.22-.038.074-.066.15-.1.224-.033.075-.07.15-.1.224-.028.075-.052.15-.08.224-.029.075-.057.15-.081.224l-.072.23a4.086 4.086 0 00-.066.228c-.02.075-.043.154-.062.233l-.057.234c-.02.08-.029.154-.048.233-.014.08-.033.155-.047.234-.015.08-.02.159-.029.238-.01.08-.019.159-.024.238-.01.08-.019.16-.023.239l-.015.238c0 .079-.01.158-.014.238 0 .08-.005.159-.005.238 0 .084 0 .173.005.257 0 .084 0 .173.01.257.004.084.014.172.019.257.01.084.019.168.033.252.01.084.019.168.033.252.014.084.024.168.038.252.014.084.034.168.053.252.019.084.042.164.062.248.018.084.042.163.066.247.024.084.043.164.072.248.028.08.061.158.095.238.028.08.052.163.085.238.034.08.072.159.105.234.038.079.08.149.124.228.038.075.076.155.119.23.042.074.09.144.138.219.047.075.095.145.142.215.048.07.096.144.143.214.053.07.105.136.157.206.053.065.11.13.167.196.057.065.114.126.176.187.057.06.119.126.18.187.063.06.13.112.196.172.062.052.124.108.185.16.062.05.124.107.19.153.067.047.134.098.2.145.067.047.138.089.205.13.072.043.143.085.21.127.07.042.137.084.214.121.071.038.147.075.219.112.07.038.147.07.223.103.076.033.148.07.224.103.076.033.152.06.228.089.076.028.153.056.234.084.076.028.156.051.233.074.08.024.166.047.252.07.085.024.166.047.252.066l.257.056c.086.018.171.023.262.042.085.014.171.033.257.042a37.84 37.84 0 00.523.056c.086.005.176.005.262.01.086 0 .176.013.262.018.085 0 .176-.005.261-.005h.514c.086 0 .171-.009.257-.014.086-.004.171-.018.257-.023.086-.01.171-.01.257-.019.086-.01.171-.014.257-.023.086-.01.171-.023.252-.033l.252-.042c.086-.014.167-.032.253-.047.085-.018.166-.027.252-.046a5.58 5.58 0 00.247-.06c.086-.02.167-.038.248-.062.08-.023.166-.046.247-.07.081-.023.162-.051.238-.074.081-.024.157-.052.238-.08l.238-.084c.08-.028.157-.06.233-.093.076-.033.152-.07.229-.103.076-.033.152-.065.228-.103.076-.037.152-.07.228-.107.076-.038.148-.084.22-.121.07-.043.142-.085.213-.127.077-.046.158-.088.229-.135.071-.047.147-.103.219-.154.071-.051.152-.098.223-.15a6.476 6.476 0 00.42-.331c.066-.056.137-.112.204-.173.066-.06.133-.117.195-.177.066-.061.124-.127.185-.192.058-.056.11-.117.167-.173l.162-.177c.052-.06.11-.117.162-.178a5.05 5.05 0 00.152-.182l.147-.187c.048-.06.096-.126.143-.191l.143-.192c.047-.065.09-.13.133-.196.048-.065.09-.13.133-.2a.124.124 0 00-.028-.173c-.043-.028-.043-.028-.081-.056a.448.448 0 00-.252-.08.469.469 0 00-.257.075c-.057.037-.11.084-.172.121-.057.038-.123.066-.185.108-.057.037-.114.08-.176.117-.072.042-.148.079-.224.116-.071.038-.152.075-.228.112-.076.038-.152.07-.233.108l-.234.098c-.071.028-.142.06-.218.089a3.102 3.102 0 01-.224.074c-.076.024-.148.047-.224.066-.076.023-.147.047-.224.065-.076.019-.152.042-.228.056-.085.019-.171.033-.257.052a4.286 4.286 0 01-.262.05 4.29 4.29 0 01-.261.038c-.086.01-.176.024-.262.033-.086.01-.176.01-.266.019-.086.004-.172.018-.257.018h-.257c-.086 0-.172-.004-.257-.009-.086 0-.172-.01-.257-.014-.086-.01-.172-.023-.257-.033l-.252-.042c-.086-.018-.172-.032-.253-.056a16.84 16.84 0 01-.247-.07 13.895 13.895 0 01-.248-.084c-.08-.032-.161-.07-.237-.103a3.647 3.647 0 01-.234-.116 3.26 3.26 0 01-.223-.131 2.182 2.182 0 01-.21-.154 2.305 2.305 0 01-.2-.164 3.363 3.363 0 01-.19-.177c-.057-.056-.114-.112-.171-.173-.053-.06-.11-.117-.162-.182-.052-.06-.1-.126-.148-.191-.047-.066-.095-.131-.138-.201l-.128-.206a4.58 4.58 0 01-.11-.215c-.033-.074-.066-.144-.095-.224a2.091 2.091 0 01-.071-.229c-.019-.079-.033-.158-.052-.233-.02-.08-.048-.154-.062-.229a4.09 4.09 0 01-.053-.233c-.019-.08-.028-.16-.047-.234-.014-.08-.034-.159-.048-.233-.014-.08-.023-.16-.038-.234-.014-.084-.033-.159-.047-.233-.015-.084-.02-.164-.029-.234m-.071-1.541v-.248c0-.084.014-.163.014-.247 0-.084 0-.168.01-.248.004-.084.014-.163.023-.247.005-.084.014-.163.02-.243.009-.084.009-.163.018-.243l.029-.243c.01-.084.024-.163.033-.242l.043-.257c.014-.089.024-.173.043-.257.014-.084.033-.173.047-.252.02-.084.034-.173.053-.252.019-.084.038-.173.062-.253.023-.084.057-.168.08-.247.03-.084.048-.168.077-.248.028-.084.066-.163.1-.242a1.63 1.63 0 01.11-.239c.042-.08.085-.154.127-.229.048-.074.1-.144.153-.21.057-.07.114-.135.171-.196.062-.06.133-.112.205-.163.071-.052.147-.094.223-.131a1.552 1.552 0 01.504-.126h.12a1.49 1.49 0 01.495.089c.076.032.152.065.223.112.067.046.129.102.19.168.053.06.11.121.158.196.042.065.08.14.119.22a2.07 2.07 0 01.185.448c.024.07.038.15.057.224.02.07.043.145.057.224l.043.229.043.229c.01.075.029.15.038.229.01.074.014.154.024.233a216.996 216.996 0 01.057.532c.005.09.005.178.01.267.004.084.01.172 0 .256a1.584 1.584 0 01-.143.49c-.038.08-.086.15-.133.22a1.67 1.67 0 01-.353.374 1.731 1.731 0 01-.214.15c-.076.046-.147.093-.228.125a2.065 2.065 0 01-.248.084 1.47 1.47 0 01-.257.057c-.118.014-.118.009-.237.023-.12.019-.12.023-.238.037-.12.019-.12.014-.238.033-.12.014-.12.01-.243.028-.119.014-.119.014-.238.033l-.238.037c-.119.019-.119.019-.238.033-.119.018-.119.014-.243.032-.118.02-.118.02-.242.038a.214.214 0 01-.157-.052.19.19 0 01-.067-.144m16.194-21.935l.252-.019.252-.019.252-.018c.124-.01.124 0 .252-.014l.253-.019c.123-.01.128-.005.252-.014l.252-.019c.124-.01.124-.01.252-.018l.252-.02c.124-.008.129-.004.253-.013l.252-.019c.124-.01.124-.014.252-.023.124-.01.124-.005.252-.014.129-.01.129-.005.252-.014.124-.01.124-.014.253-.024l.252-.018c.124-.01.128 0 .252-.01.124-.009.124-.014.252-.023.124-.01.129 0 .252-.01l.253-.018c.123-.01.123-.014.252-.023.128-.01.128-.005.252-.014.124-.01.129-.005.252-.014.124-.01.124-.014.252-.019l.253-.019.252-.018c.124-.01.128 0 .252-.014l.252-.019.252-.019.253-.018c.123-.01.123-.01.252-.014l.252-.019.252-.019c.129-.009.129 0 .253-.014.128-.01.128-.014.252-.018.128-.01.128 0 .252-.01a.46.46 0 00.219-.08.434.434 0 00.21-.382c0-.08-.01-.159-.015-.243-.005-.08-.02-.159-.029-.238-.01-.08-.014-.159-.023-.238-.01-.08-.029-.159-.043-.238-.014-.08-.02-.16-.038-.239-.02-.079-.043-.154-.062-.233l-.057-.234-.072-.228c-.023-.075-.052-.155-.076-.23-.028-.074-.062-.149-.095-.223-.033-.08-.062-.164-.1-.239a3.459 3.459 0 00-.119-.228 4.187 4.187 0 00-.124-.225 3.296 3.296 0 00-.133-.22c-.047-.074-.095-.144-.143-.214a2.85 2.85 0 00-.157-.205c-.052-.07-.104-.14-.157-.206a7.067 7.067 0 00-.171-.191c-.057-.061-.124-.122-.185-.182a3.54 3.54 0 00-.19-.178c-.063-.056-.12-.112-.186-.163-.062-.052-.134-.098-.2-.15-.067-.051-.129-.103-.2-.15-.067-.046-.138-.093-.205-.14l-.214-.125c-.071-.042-.143-.08-.219-.122-.071-.037-.147-.08-.224-.112-.076-.037-.152-.06-.228-.098l-.228-.098c-.076-.033-.157-.06-.234-.089-.076-.028-.157-.051-.237-.08-.076-.023-.157-.05-.238-.07-.081-.023-.157-.046-.238-.065l-.243-.056c-.08-.018-.162-.023-.243-.037l-.242-.042c-.081-.01-.162-.023-.248-.033a39.06 39.06 0 00-.247-.028c-.081-.004-.167 0-.248-.01-.08 0-.161-.013-.247-.013h-.495c-.08 0-.166.005-.247.01-.081 0-.167.009-.248.013l-.257.014-.257.028a4.83 4.83 0 00-.257.033c-.085.01-.171.028-.257.042-.085.014-.171.023-.257.037-.085.014-.171.038-.252.056-.086.02-.171.033-.252.052a4.916 4.916 0 00-.252.06c-.086.024-.167.052-.248.07a3.82 3.82 0 00-.247.075c-.081.024-.167.052-.248.075-.08.028-.161.056-.247.084-.081.028-.162.065-.243.098-.08.033-.162.065-.238.098-.08.033-.157.07-.233.108l-.228.112c-.076.037-.157.07-.229.107-.076.042-.147.089-.219.13-.076.043-.152.08-.223.127a8.095 8.095 0 00-.424.276 3.714 3.714 0 00-.21.144c-.07.052-.132.103-.199.154-.067.052-.138.103-.2.154-.067.056-.128.113-.19.164-.062.056-.129.112-.19.168-.062.056-.12.117-.181.177l-.176.173c-.057.061-.115.117-.172.182l-.162.187-.152.196c-.052.066-.1.131-.152.196-.048.066-.095.136-.143.201-.047.066-.095.136-.143.201-.042.07-.08.145-.123.215s-.081.14-.124.215c-.038.07-.086.14-.124.215a4.79 4.79 0 00-.104.224c-.038.074-.077.144-.11.22a3.622 3.622 0 00-.095.228c-.029.075-.052.15-.081.224-.028.075-.062.15-.086.224l-.071.23c-.024.074-.043.153-.062.228-.019.075-.047.154-.067.229-.018.08-.028.159-.047.233a4.03 4.03 0 00-.048.234c-.014.08-.023.159-.038.238-.014.08-.028.159-.038.238l-.028.238c-.01.08-.02.16-.024.239-.005.079-.014.158-.02.238v.238c0 .08-.009.159-.009.238 0 .084.005.168.01.257 0 .084 0 .173.005.257 0 .084.014.168.023.257.01.084.015.168.024.252.01.084.014.172.029.252.014.084.023.168.043.252.014.084.033.168.052.252.019.084.038.168.062.248.024.084.043.163.066.247.024.08.053.164.081.243.029.08.053.164.081.243.029.08.067.154.1.233.033.08.067.16.105.234.038.08.066.159.11.234.037.074.085.149.128.224.043.074.08.15.123.224.048.075.09.145.143.215.048.07.105.135.157.205.053.07.105.14.157.206.053.065.11.135.167.2.057.066.119.127.176.187.062.06.119.126.18.187.063.06.13.112.196.173.062.051.123.107.185.159.062.05.129.102.19.149.067.047.134.098.2.14.067.047.134.093.205.14.072.042.138.084.21.126.071.042.147.075.219.112.07.038.142.08.214.117.071.038.152.066.223.098.076.033.148.07.224.098.076.033.152.061.228.094l.233.084c.077.028.157.046.234.074.08.024.166.052.252.075.086.024.166.042.252.066l.257.056c.086.018.171.032.257.046.086.014.171.028.262.038.085.009.171.023.261.032l.262.028c.086.005.176.014.262.019h.262c.085 0 .176.01.261.01h.257c.086 0 .172-.005.257-.01.086 0 .172-.01.257-.014a5.45 5.45 0 00.257-.023c.086-.01.171-.014.257-.024.086-.009.171-.023.252-.032l.253-.028.252-.042c.085-.014.171-.028.252-.047.086-.014.166-.033.252-.047L89 18.47a3.8 3.8 0 00.248-.066c.08-.023.166-.046.247-.07l.243-.07.238-.084.238-.084c.076-.028.152-.065.228-.098.076-.033.157-.065.229-.098.076-.033.157-.065.228-.098.076-.037.148-.08.219-.121l.224-.113.214-.126c.076-.046.157-.088.228-.135.076-.047.143-.103.219-.154.071-.051.152-.093.224-.15.071-.05.138-.112.21-.163.07-.056.142-.107.208-.163.067-.056.134-.117.2-.173.067-.061.134-.117.195-.178.067-.06.124-.126.186-.191l.171-.168c.053-.056.105-.122.157-.182.053-.061.11-.117.162-.178.052-.06.1-.121.152-.182.053-.06.1-.121.153-.187l.147-.187.143-.191c.047-.066.09-.13.133-.196.048-.066.095-.126.138-.196a.126.126 0 00-.038-.173c-.038-.028-.043-.028-.08-.056a.406.406 0 00-.248-.084.46.46 0 00-.252.08c-.057.037-.12.07-.181.111-.057.038-.12.075-.181.112-.057.038-.12.075-.18.112-.072.042-.148.08-.225.122-.07.037-.147.08-.223.112l-.229.112c-.076.033-.157.065-.238.098-.07.028-.147.051-.223.08a3.102 3.102 0 01-.224.074c-.071.024-.147.052-.224.075-.076.023-.152.042-.228.065-.076.019-.152.033-.228.052-.086.018-.167.046-.257.065-.086.019-.172.023-.262.037-.086.014-.171.028-.262.038-.085.009-.171.028-.261.037-.086.01-.177.01-.267.019-.086.004-.171.014-.257.018-.086 0-.171.005-.257 0-.085 0-.171-.009-.257-.014-.086 0-.171-.009-.257-.018l-.257-.028c-.085-.014-.171-.024-.257-.042a3.859 3.859 0 01-.247-.061 2.143 2.143 0 01-.248-.065c-.08-.028-.166-.056-.247-.09-.081-.032-.157-.07-.238-.107a2.578 2.578 0 01-.228-.116 3.482 3.482 0 01-.224-.131c-.071-.047-.148-.093-.214-.145-.072-.051-.133-.107-.2-.163a2.242 2.242 0 01-.19-.178 1.875 1.875 0 01-.167-.177c-.052-.06-.1-.126-.148-.192-.047-.06-.1-.126-.142-.191-.048-.066-.09-.136-.133-.201-.043-.065-.081-.135-.124-.21a8.427 8.427 0 01-.114-.215c-.034-.07-.067-.145-.1-.22a4.376 4.376 0 01-.09-.224c-.03-.07-.063-.144-.086-.22-.024-.074-.043-.149-.067-.228-.024-.075-.048-.15-.067-.229-.019-.074-.033-.154-.052-.229a4.031 4.031 0 01-.052-.228c-.015-.075-.02-.154-.034-.234-.01-.08-.033-.154-.042-.233-.01-.08-.015-.155-.024-.234-.072-.682.476-.602.476-.602m-.495-.934v-.248c0-.084.01-.163.014-.247 0-.084.01-.164.014-.248l.015-.247c.004-.084.004-.164.014-.248l.028-.243c.01-.084.015-.163.024-.243.01-.084.029-.163.038-.242.014-.09.02-.173.029-.257.014-.089.033-.173.047-.257.015-.089.034-.173.048-.257l.057-.252c.02-.084.038-.173.057-.252a3.76 3.76 0 01.081-.248c.029-.084.052-.168.081-.247a2.88 2.88 0 01.095-.243c.038-.084.076-.159.114-.234a2.55 2.55 0 01.134-.224c.047-.075.095-.15.147-.215.057-.07.12-.13.18-.191a1.717 1.717 0 01.424-.304 1.229 1.229 0 01.505-.116c.038 0 .08-.01.119-.01a1.487 1.487 0 01.495.098c.076.033.152.07.223.117a1.258 1.258 0 01.343.369c.043.065.09.135.133.215a3.897 3.897 0 01.295.901l.043.229c.014.075.024.15.038.229.01.075.029.15.038.229.01.074.014.154.024.233.01.084.019.173.024.266.01.09.014.178.019.267.005.088.019.177.024.266.004.084 0 .173-.015.257-.01.084-.023.168-.047.252-.024.08-.057.163-.095.238a1.675 1.675 0 01-.29.425 1.426 1.426 0 01-.196.173 1.546 1.546 0 01-.442.27c-.081.033-.162.07-.243.094-.08.023-.171.037-.257.047-.119.014-.119.023-.238.037-.119.019-.119.01-.243.028-.119.019-.119.014-.237.033-.12.014-.12.023-.238.037-.12.019-.12.014-.238.033l-.243.028c-.119.018-.119.014-.243.028-.119.014-.119.018-.242.032-.124.014-.12.02-.243.033-.057.005-.114-.005-.157-.047a.173.173 0 01-.057-.144z"/></g><defs><clipPath id="clip0_4008_490"><path fill="#fff" d="M0 0h95v45H0z"/></clipPath></defs></svg>