<svg width="29" height="28" fill="none" xmlns="http://www.w3.org/2000/svg"><g clip-path="url(#clip0_4110_2722)"><mask id="a" style="mask-type:luminance" maskUnits="userSpaceOnUse" x="1" y="1" width="27" height="27"><path d="M14.5 1.97c6.92 0 12.519 5.542 12.519 12.366S21.419 26.7 14.499 26.7 1.98 21.16 1.98 14.336 7.58 1.97 14.5 1.97z" fill="#fff" stroke="#fff"/></mask><g mask="url(#a)"><path d="M17.77 17.502c1.872-1.157 3.123-3.2 3.123-5.536 0-3.62-2.962-6.547-6.624-6.547-3.663 0-6.625 2.939-6.625 6.547 0 2.337 1.252 4.379 3.123 5.536-4.661 1.464-8.048 5.786-8.048 10.88H25.83c0-5.094-3.375-9.405-8.048-10.88h-.011z" fill="#036EB8"/></g><path d="M14.5 27.202c7.19 0 13.02-5.76 13.02-12.866 0-7.105-5.83-12.865-13.02-12.865-7.19 0-13.02 5.76-13.02 12.865 0 7.106 5.83 12.866 13.02 12.866z" stroke="#036EB8" stroke-width="2" stroke-miterlimit="10"/></g><defs><clipPath id="clip0_4110_2722"><path fill="#fff" d="M0 0h29v28H0z"/></clipPath></defs></svg>