<svg width="55" height="55" fill="none" xmlns="http://www.w3.org/2000/svg"><g clip-path="url(#clip0_2036_3743)"><path d="M23.57.698c2.16 1.384 5.693 1.384 7.854 0 2.161-1.384 4.892-.656 6.07 1.627 1.178 2.282 4.237 4.048 6.805 3.927 2.567-.121 4.564 1.882 4.443 4.443-.122 2.562 1.65 5.627 3.927 6.805 2.276 1.177 3.01 3.909 1.627 6.07-1.384 2.16-1.384 5.693 0 7.854 1.384 2.161.655 4.893-1.627 6.07-2.282 1.178-4.049 4.237-3.927 6.805.121 2.567-1.882 4.564-4.443 4.443-2.562-.122-5.627 1.65-6.805 3.927-1.178 2.276-3.909 3.01-6.07 1.627-2.16-1.384-5.694-1.384-7.854 0-2.161 1.384-4.893.655-6.07-1.627-1.178-2.282-4.237-4.049-6.805-3.927-2.567.121-4.564-1.882-4.443-4.443.121-2.562-1.651-5.627-3.927-6.805-2.277-1.177-3.011-3.909-1.627-6.07 1.384-2.16 1.384-5.693 0-7.854-1.384-2.161-.65-4.893 1.627-6.07 2.276-1.178 4.048-4.237 3.927-6.805-.121-2.567 1.882-4.564 4.443-4.443 2.562.121 5.627-1.651 6.805-3.927C18.677.049 21.409-.685 23.57.698z" fill="#036EB8"/><path d="M12.146 24.772l5.657 6.646v-6.646H19.6v9.523h-1.584l-5.694-6.756v6.756h-1.797v-9.523h1.621zm16.826 0v1.438h-4.316v2.501h4.134v1.439h-4.134v2.707h4.413v1.438h-6.252v-9.523h6.155zm3.558 0l2.372 5.875 2.495-5.875h1.554l2.507 5.894 2.367-5.894h1.882l-3.921 9.645h-.62l-2.998-7.06-3.01 7.06h-.602l-3.927-9.645h1.9z" fill="#fff"/></g><defs><clipPath id="clip0_2036_3743"><path fill="#fff" d="M0 0h55v55H0z"/></clipPath></defs></svg>