<svg width="337" height="167" fill="none" xmlns="http://www.w3.org/2000/svg"><g clip-path="url(#clip0_2036_4083)" fill="#fff"><path d="M191.577 150.083c0-.315.251-.579.579-.579h5.163c.315 0 .579.252.579.579v.252c0 .391.202.718.466.718.265 0 .441-.315.454-.718.063-1.247-.781-1.247-.781-1.247-5.151-.126-6.045-2.242-6.045-4.232 0-5.24 3.501-7.117 6.763-7.117 4.407 0 7.052 2.343 7.253 6.437v1.814a.556.556 0 01-.554.579h-5.302a.59.59 0 01-.579-.554c-.025-.92-.252-1.298-.504-1.298-.289 0-.428.416-.428.781v.063c-.025 1.361.63 1.235.63 1.235 4.71.592 6.347 2.733 7.002 6.613 0 0 2.896 13.339-7.707 13.112-9.244-.201-7.015-16.45-7.015-16.45l.026.012zm16.975 16.249a.478.478 0 01-.479-.478v-27.17c0-.265.214-.479.479-.479h5.641c.265 0 .479.214.479.479v27.17a.478.478 0 01-.479.478h-5.641zm23.373-27.648v27.17a.479.479 0 01-.479.478h-6.699a.471.471 0 01-.466-.39l-1.285-7.822c-.101-.567-.315-.542-.302 0v7.734a.478.478 0 01-.479.478h-5.037a.478.478 0 01-.478-.478v-27.17c0-.265.214-.479.478-.479h6.322c.201 0 .39.126.453.328l.063.189c.328 1.032.68 2.116 1.033 3.199.164.516.957 3.3.957 2.759 0-.252-.038-3.401-.038-3.641v-2.355c0-.265.214-.479.479-.479h5.012c.264 0 .478.214.478.479h-.012zm16.823 10.807c.403 4.107 1.184 17.32-7.48 17.32-7.845 0-7.845-11.488-7.845-18.126 0-2.985.579-10.958 8.072-10.958 4.496 0 7.606 4.068 7.279 10.58 0 .202-.177.353-.378.353h-5.994a.376.376 0 01-.378-.365c-.013-1.575-.277-1.953-.617-1.953-.391 0-.718 1.033-.718 2.318 0 1.285.315 2.318.718 2.318.277 0 .554-.114.604-1.121 0-.202.177-.366.378-.366h6.359zm14.81 2.003v14.461a.37.37 0 01-.378.377h-12.278a.37.37 0 01-.378-.377v-27.359c0-.214.164-.378.378-.378h12.266c.214 0 .378.164.378.378v7.583a.368.368 0 01-.366.377h-5.843a.38.38 0 00-.378.378c0 .202.177.378.378.378h5.541c.214 0 .378.164.378.378v2.242a.39.39 0 01-.39.378h-5.541a.379.379 0 00-.378.378v.063c0 .214.164.378.378.378h5.855c.214 0 .378.164.378.378v-.013zm20.715.592l3.211-.126c.177 0 .315.139.315.315l-.038 13.768a.312.312 0 01-.314.315H275.08a.312.312 0 01-.314-.315v-1.109c0-4.963 1.599-15.745 5.037-18.441 1.423-1.108 1.561-1.095 1.586-1.612 0-.227-.226-.516-.591-.516-.58 0-.643.541-.668.818v.366a.327.327 0 01-.302.315l-4.836.214c-.189 0-.34-.139-.327-.328.126-2.229.73-4.509 1.75-5.781 1.146-1.436 2.808-2.154 4.937-2.154 5.969 0 6.611 5.126 6.611 7.331 0 3.476-1.335 4.963-3.173 6.247-.907.693-.492.706-.492.706l-.025-.013zm21.698 3.263c0 8.036-3.652 11.664-8.148 11.664-4.495 0-8.147-3.628-8.147-11.664 0-8.037 1.612-17.434 8.147-17.434 5.932 0 8.148 9.397 8.148 17.434zm-7.405-6.487c0-1.285-.327-2.318-.743-2.318-.415 0-.743 1.033-.743 2.318 0 1.284.328 2.317.743 2.317.416 0 .743-1.033.743-2.317zm18.638 3.224l3.211-.126c.176 0 .315.139.315.315l-.038 13.768a.312.312 0 01-.315.315h-12.366a.312.312 0 01-.315-.315v-1.109c0-4.963 1.6-15.745 5.037-18.441 1.423-1.108 1.562-1.095 1.587-1.612 0-.227-.227-.516-.592-.516-.579 0-.642.541-.667.818v.366a.328.328 0 01-.302.315l-4.836.214c-.189 0-.34-.139-.328-.328.126-2.229.731-4.509 1.751-5.781 1.146-1.436 2.808-2.154 4.936-2.154 5.969 0 6.612 5.126 6.612 7.331 0 3.476-1.335 4.963-3.174 6.247-.906.693-.491.706-.491.706l-.025-.013zm19.04-.491c0 6.877 1.159 14.863-6.888 15.115-7.782.24-6.359-10.631-6.586-13.515v-.479c0-.176.126-.315.302-.315l5.201-.063a.32.32 0 01.29.189c.101.239.277.39.466.39.315 0 .579-.428.579-.957 0-.529-.252-.957-.579-.957-.202 0-.365.164-.466.416a.331.331 0 01-.29.201l-5.15-.05a.312.312 0 01-.315-.315v-12.722c0-.177.138-.315.315-.315h12.353c.177 0 .315.138.315.315l-.075 5.995a.323.323 0 01-.328.315l-5.906-.252a.323.323 0 00-.327.315v.151c0 .164.138.315.302.315.579.013.818 0 1.398 0 3.299 0 5.402 1.928 5.402 6.235l-.013-.012zM10.906 131.151c-12.619 0-10.377-16.954-10.578-27.573 0-.554.428-.995.982-.995h8.26c.542 0 .983.441.983.983 0 1.448.05 3.577.541 3.59.555.012.617-2.028.617-2.734v-1.814a.981.981 0 00-1.07-.97C2.204 102.394.013 97.431.013 88.022v-2.935c0-.541.44-.982.982-.982h8.462c.542 0 .983.44.983.982v3.603c-.013 1.032.037 2.532.667 2.544.516.013.604-1.625.617-2.393v-3.754c0-.541.44-.982.982-.982h8.463c.541 0 .982.44.982.982v18.882c0 10.48.718 27.182-11.208 27.182h-.037zm39.869-19.284c0 13.175-5.982 19.121-13.374 19.121s-13.374-5.958-13.374-19.121c0-13.163 2.632-28.581 13.374-28.581 9.734 0 13.374 15.405 13.374 28.581zm-12.152-10.644c0-2.104-.542-3.792-1.21-3.792-.667 0-1.208 1.7-1.208 3.792 0 2.091.541 3.791 1.209 3.791.667 0 1.209-1.7 1.209-3.791zM75.192 85.05l.592 19.284c0 10.467-1.196 27.157-11.8 27.157-10.602 0-11.484-16.929-11.484-27.421l.592-19.02c0-.542.44-.983.982-.983h8.677c.541 0 .982.44.982.982v19.739c0 1.108.025 2.708.541 2.708.504 0 .517-2.003.517-2.708V85.049c0-.541.44-.982.982-.982h8.462c.542 0 .983.44.983.982h-.026zm15.099 44.199c.429-9.082-.49-14.032-.97-15.934-.037-.151-.264-.126-.264.038v15.896a.951.951 0 01-.944.945h-8.664a.951.951 0 01-.945-.945V85.024c0-.516.429-.945.945-.945h14.028c6.687 0 9.558 5.354 9.495 10.392-.037 3.376-1.599 5.114-3.06 7.319-1.813 2.733 6.083 3.338 2.846 27.333a1.247 1.247 0 01-1.234 1.071H91.198a.894.894 0 01-.894-.945h-.013zm.353-32.183c.453 0 1.209-.126 1.209-.97s-.693-1.008-1.272-1.008h-.58a.951.951 0 00-.944.945v.088c0 .517.428.945.945.945h.642zm59.225-12.961c.566 0 .995.15.995.932 0 0-.202 43.255-.177 44.288.025 1.033-.503.894-.503.894h-9.269a.774.774 0 01-.781-.768l-1.284-16.879c.025-1.058-.592-1.096-.579-.05v16.916a.775.775 0 01-.781.769h-9.18a.774.774 0 01-.781-.769l-.491-16.879c0-.428-.038-.818-.252-.818-.164 0-.239.138-.227.73l-.881 16.967a.775.775 0 01-.781.769h-9.268a.764.764 0 01-.769-.769V84.873c0-.428.353-.768.769-.768 1.574.025 13.675-.013 15.552 0 .705 0 .818.755.844 1.31.025.29.088.78.151 1.448.1.907 1.41.932 1.536.025.113-.806.189-1.347.214-1.549.025-.504.176-1.26.844-1.234h15.099zm26.294.945l.592 19.284c0 10.467-1.197 27.157-11.8 27.157-10.603 0-11.485-16.929-11.485-27.421l.592-19.02c0-.542.441-.983.982-.983h8.677c.541 0 .982.44.982.982v19.739c0 1.108.025 2.708.542 2.708.503 0 .516-2.003.516-2.708V85.049c0-.541.441-.982.982-.982h8.463c.541 0 .982.44.982.982h-.025zm2.77 18.478c0-.529.416-.957.945-.957h8.475a.95.95 0 01.944.944v.403c0 .655.34 1.172.756 1.172.415 0 .718-.529.755-1.172.101-2.04-1.272-2.04-1.272-2.04-8.449-.202-9.91-3.69-9.91-6.94 0-8.604 5.73-11.665 11.094-11.665 7.229 0 11.561 3.842 11.901 10.556l.025 2.96a.946.946 0 01-.945.957H193a.953.953 0 01-.945-.907c-.05-1.511-.416-2.128-.819-2.128-.465 0-.692.692-.692 1.284v.101c-.038 2.23 1.045 2.028 1.045 2.028 7.732.97 10.402 4.484 11.485 10.858 0 0 4.747 21.892-12.631 21.514-15.162-.327-11.497-26.981-11.497-26.981l-.013.013zm27.856 26.666a.785.785 0 01-.781-.781V84.848c0-.428.353-.781.781-.781h9.268c.429 0 .781.353.781.78v44.566a.785.785 0 01-.781.781h-9.268zm37.665-27.623c.655 6.739 1.952 28.404-12.265 28.404-12.87 0-12.87-18.844-12.87-29.727 0-4.9.957-17.987 13.235-17.987 7.367 0 12.48 6.676 11.938 17.357a.62.62 0 01-.617.592h-9.835a.607.607 0 01-.617-.604c-.025-2.57-.453-3.2-1.02-3.2-.642 0-1.171 1.7-1.171 3.792 0 2.091.529 3.791 1.171 3.791.453 0 .919-.189.995-1.839a.621.621 0 01.617-.592h10.439v.013zm31.294-.051c.428 0 .781.353.781.781v26.175a.785.785 0 01-.781.781l-17.58-.05a.774.774 0 01-.768-.781V84.86c0-.428.353-.78.781-.78h9.293c.428 0 .781.352.781.78v16.892c0 .428.353.781.781.781h6.737l-.025-.013zm3.891 27.674a.785.785 0 01-.781-.781V84.848c0-.428.353-.781.781-.781h9.269c.428 0 .78.353.78.78v44.566a.784.784 0 01-.78.781h-9.269zm32.792-46.114c.34 0 .617.276.617.617v12.432c0 .34-.277.617-.617.617h-8.122a.618.618 0 00-.617.618v.264c0 .34.277.617.617.617h7.165c.34 0 .617.277.617.617v4.233c0 .34-.277.617-.617.617h-7.165a.618.618 0 00-.617.617v24.248c0 .34-.277.617-.617.617h-9.433a.618.618 0 01-.617-.617v-44.88c0-.34.277-.618.617-.618h18.789zm23.687 21.766v23.731c0 .34-.264.617-.604.617h-20.149a.618.618 0 01-.617-.617v-44.88c0-.34.277-.618.617-.618h20.124c.34 0 .617.278.617.618v12.432a.6.6 0 01-.605.617h-9.596a.621.621 0 00-.617.63c0 .34.277.617.617.617h9.08c.34 0 .617.277.617.618v3.678a.638.638 0 01-.63.617h-9.092a.618.618 0 00-.617.617v.101c0 .34.277.617.617.617h9.609c.34 0 .617.277.617.617l.012-.012zM24.947 75.4H1.297a.997.997 0 01-.995-.994V2.494c0-.542.441-.995.995-.995h23.511c10.515 0 14.268 8.049 14.268 15.581 0 4.41-1.864 7.331-3.602 9.737-.277.39-.34 1.058.089 1.273 5.414 2.657 5.414 13.2 5.414 13.2.126 33.216-16.018 34.098-16.018 34.098l-.012.013zm-2.783-55.8c0-1.424-1.134-1.588-1.612-1.588H18.07a.997.997 0 00-.995.996v1.184c0 .541.44.995.995.995h2.518c1.046 0 1.562-.479 1.562-1.587h.013zM20.4 43.797c2.216 0 2.216-1.373 2.216-1.826 0-1.071-.693-1.613-2.078-1.613h-2.48a.997.997 0 00-.995.995v1.461c0 .542.44.995.994.995H20.4v-.012zm65.598 2.229c0 21.124-9.584 30.647-21.421 30.647s-21.42-9.535-21.42-30.647c0-21.11 4.218-45.8 21.42-45.8 15.603 0 21.42 24.69 21.42 45.813v-.013zM66.516 28.971c0-3.363-.869-6.084-1.94-6.084-1.07 0-1.938 2.721-1.938 6.084 0 3.363.869 6.084 1.939 6.084s1.94-2.72 1.94-6.084zm64.451 17.055c0 21.124-9.584 30.647-21.421 30.647s-21.42-9.535-21.42-30.647c0-21.11 4.218-45.8 21.408-45.8 15.602 0 21.42 24.69 21.42 45.813l.013-.013zm-19.482-17.055c0-3.363-.869-6.084-1.939-6.084s-1.939 2.721-1.939 6.084c0 3.363.869 6.084 1.939 6.084s1.939-2.72 1.939-6.084zm61.781 3.162l.202 42.336a.99.99 0 01-.995.995H156.87a.997.997 0 01-.994-.995V72.2c0-1.058-1.423-1.373-1.877-.428-1.398 2.847-3.324 4.686-5.805 4.673-13.135-.063-14.885-23.328-14.898-40.748C133.296 25.91 134.82 0 154.516 0c11.812 0 19.783 10.908 18.889 28.04a.996.996 0 01-.995.944h-15.527a.983.983 0 01-.982-.983c-.038-4.157-.731-5.328-1.625-5.328-1.032 0-1.876 2.72-1.876 6.084 0 3.363.844 6.021 1.876 6.084.504.025 1.423-.113 1.6-2.708.037-.53.453-.945.982-.945l15.439-.025c.541 0 .995.44.995.982l-.026-.012zm6.221 43.267a1.241 1.241 0 01-1.246-1.246V2.746c0-.68.554-1.247 1.246-1.247h14.848c.692 0 1.246.554 1.246 1.247v71.408a1.25 1.25 0 01-1.246 1.247h-14.848zm55.699-39.01v38.028a.978.978 0 01-.982.995h-32.276a.997.997 0 01-.995-.995V2.494c0-.542.441-.995.995-.995h32.251c.541 0 .994.44.994.982l.026 19.915a.997.997 0 01-.995.995h-15.376a.997.997 0 00-.995.995c0 .542.453.983.995.983h14.557a.99.99 0 01.995.995l-.025 5.882a.987.987 0 01-.995.983h-14.557c-.542 0-.983.44-.995.982v.177c0 .554.44.995.995.995h15.388c.542 0 .995.44.995.995v.012zm58.809-33.33l.945 30.9c0 16.765-1.927 43.519-18.915 43.519s-18.411-27.12-18.411-43.948l.945-30.47c0-.87.705-1.562 1.561-1.562h13.903a1.56 1.56 0 011.561 1.562v31.616c-.012 1.776.038 4.333.882 4.346.806 0 .831-3.212.831-4.333V3.06c0-.868.705-1.561 1.562-1.561h13.562c.869 0 1.562.705 1.562 1.562h.012zM337 20.985c0 12.055-5.856 19.55-15.288 19.55h-3.803c-.831 0-1.511.68-1.511 1.511v31.856c0 .831-.68 1.511-1.511 1.511h-14.079c-.831 0-1.511-.68-1.511-1.511V3.01c0-.83.68-1.511 1.511-1.511h20.438c9.571 0 15.754 7.646 15.754 19.474v.012zm-16.912 0c0-1.26-.705-1.902-2.078-1.902h-.101c-.831 0-1.511.68-1.511 1.512v.856c0 .832.68 1.512 1.511 1.512h.101c.944 0 2.078-.34 2.078-1.965v-.013z"/></g><defs><clipPath id="clip0_2036_4083"><path fill="#fff" d="M0 0h337v167H0z"/></clipPath></defs></svg>