<svg width="38" height="45" fill="none" xmlns="http://www.w3.org/2000/svg"><path d="M11.01 43.184c-.089 0-.176.018-.262.016-.088 0-.176-.003-.264-.006-.088-.002-.173-.03-.261-.035l-.262-.013c-.088-.005-.175.002-.263-.003-.088-.007-.174-.03-.262-.04-.088-.011-.176-.006-.261-.016-.088-.01-.176-.008-.261-.02-.088-.013-.174-.031-.26-.047-.087-.013-.17-.046-.256-.061-.085-.016-.176-.016-.261-.03-.085-.019-.173-.032-.259-.05-.085-.017-.166-.064-.251-.084-.086-.02-.171-.036-.256-.059-.086-.023-.174-.03-.257-.054-.085-.023-.168-.054-.251-.08-.083-.025-.166-.058-.249-.084-.083-.028-.163-.061-.246-.092-.083-.028-.163-.059-.246-.09l-.247-.092c-.08-.033-.168-.054-.248-.087-.08-.033-.161-.07-.242-.105-.08-.036-.155-.085-.233-.12-.08-.039-.161-.072-.24-.11-.077-.042-.165-.065-.24-.106-.078-.04-.151-.092-.227-.135-.075-.044-.145-.103-.22-.147L4 41.297c-.076-.046-.154-.084-.227-.136-.072-.048-.145-.1-.218-.148-.073-.051-.136-.113-.206-.164-.07-.054-.153-.087-.224-.144a4.43 4.43 0 01-.203-.166c-.068-.056-.131-.118-.199-.177-.065-.059-.136-.113-.198-.174-.066-.062-.136-.115-.196-.177-.063-.061-.121-.13-.181-.194-.06-.065-.111-.141-.169-.206-.058-.066-.123-.125-.18-.194a4.296 4.296 0 01-.17-.205c-.054-.07-.102-.144-.155-.215a6.773 6.773 0 01-.153-.218c-.05-.074-.103-.144-.151-.218-.048-.074-.098-.148-.143-.223-.045-.077-.07-.164-.113-.24-.043-.077-.096-.152-.133-.231-.04-.08-.063-.167-.101-.249-.038-.082-.083-.156-.118-.238-.035-.082-.073-.161-.103-.246-.03-.082-.065-.166-.096-.248-.027-.085-.027-.177-.052-.264-.026-.085-.058-.167-.08-.254a9.394 9.394 0 01-.066-.253c-.018-.087-.02-.175-.035-.262-.015-.087-.03-.171-.043-.258-.013-.088-.045-.172-.053-.26-.007-.086.01-.176.005-.263-.005-.087-.037-.174-.04-.261 0-.088.015-.177.015-.264 0-.087.003-.174.008-.264.005-.087.002-.177.012-.264.008-.087.04-.172.053-.259.013-.087.03-.171.045-.258.015-.088.033-.172.05-.257.018-.084.01-.176.033-.261.023-.084.07-.161.096-.246.025-.084.032-.172.062-.256.028-.082.073-.159.103-.24.03-.083.04-.172.073-.255l.103-.24c.036-.08.08-.157.118-.236.038-.077.083-.154.124-.23.04-.077.093-.15.135-.224.043-.074.09-.148.136-.222.045-.075.075-.162.123-.233.048-.072.113-.136.163-.208.05-.072.106-.138.159-.21.053-.07.098-.143.153-.213.055-.069.118-.128.174-.197.055-.067.1-.143.158-.21.058-.067.115-.13.176-.195.058-.064.12-.125.18-.19l.187-.184c.062-.061.113-.133.178-.194.063-.06.133-.113.199-.172.065-.059.143-.1.21-.156.066-.057.126-.12.194-.175.068-.056.133-.112.201-.166.068-.054.128-.118.199-.17.068-.053.15-.086.22-.137.071-.052.132-.118.202-.167.07-.049.156-.08.229-.128.072-.049.14-.103.213-.151.073-.046.151-.087.224-.134.073-.046.143-.1.218-.143.076-.043.146-.097.222-.138.075-.044.153-.082.228-.126.076-.04.149-.092.226-.133.076-.041.166-.059.244-.097l.234-.116c.078-.038.15-.084.231-.123.078-.035.15-.09.229-.125.08-.036.166-.054.246-.09.08-.033.158-.074.239-.107.08-.034.166-.054.246-.085.08-.03.153-.082.236-.113.08-.03.171-.035.254-.066.08-.029.163-.062.246-.09.083-.028.159-.074.242-.102.083-.029.165-.05.248-.077.083-.026.164-.062.247-.085.083-.025.168-.043.251-.066.083-.023.17-.036.254-.06.083-.022.17-.035.254-.056.083-.02.163-.056.248-.077.086-.02.171-.033.257-.05.085-.019.168-.047.253-.065l.257-.056c.088-.018.173-.041.261-.06.088-.014.179-.014.267-.027a9.29 9.29 0 01.263-.044c.088-.013.179-.018.267-.03.088-.013.176-.031.264-.042.088-.01.178-.002.266-.01.088-.008.176-.026.266-.033.088-.008.176-.036.264-.041.088-.005.179 0 .267-.005.088-.005.178-.008.266-.01.088-.003.178.007.266.007.09 0 .179-.005.267-.005.09 0 .178 0 .266.005.088 0 .179-.015.27-.013.087.003.175.026.265.031.088.005.179.005.267.013.088.005.178-.013.269-.005.088.008.178.023.266.03.088.01.176.036.264.047.088.01.176.02.264.033.088.013.178.005.266.018.088.013.174.038.262.054.087.015.173.048.258.066.088.018.179.01.267.031.088.018.17.054.256.074.143.034.244-.12.163-.246-.072-.11-.062-.117-.135-.228-.073-.11-.08-.105-.151-.217-.073-.11-.07-.113-.143-.223-.073-.11-.058-.12-.131-.233-.073-.11-.08-.105-.153-.218-.073-.11-.07-.113-.144-.223-.072-.113-.07-.113-.14-.226-.073-.11-.083-.105-.153-.215-.073-.112-.05-.128-.121-.238-.07-.11-.076-.108-.148-.22-.073-.11-.07-.113-.141-.226-.073-.11-.07-.112-.143-.223-.073-.11-.07-.112-.144-.222-.072-.11-.09-.098-.163-.21-.073-.11-.06-.12-.13-.231-.074-.11-.069-.113-.141-.226-.073-.11-.08-.107-.151-.217-.073-.11-.06-.12-.13-.23-.074-.111-.081-.106-.152-.219-.072-.11-.08-.105-.153-.215s-.063-.118-.136-.228c-.072-.11-.07-.113-.14-.225-.073-.11-.073-.113-.144-.223-.072-.11-.067-.115-.14-.226-.073-.11-.078-.107-.151-.217-.073-.113-.08-.108-.15-.218-.074-.113-.066-.115-.14-.228-.072-.11-.077-.108-.15-.218-.073-.113-.078-.107-.15-.22-.073-.11-.066-.115-.139-.228-.073-.11-.083-.103-.156-.215-.072-.11-.05-.126-.123-.239-.073-.11-.083-.105-.153-.215l-.146-.223c-.073-.11-.058-.12-.13-.23-.073-.11-.083-.103-.156-.215-.073-.11-.066-.118-.136-.228-.073-.11-.083-.105-.153-.216-.07-.11-.073-.11-.146-.223-.073-.11-.06-.12-.133-.23-.073-.11-.086-.102-.156-.215-.073-.11-.07-.113-.143-.223-.073-.11-.066-.115-.136-.228-.073-.11-.083-.105-.153-.215l-.146-.22a10.586 10.586 0 01-.143-.224c-.073-.11-.058-.12-.128-.23-.073-.11-.078-.108-.151-.218s-.078-.107-.151-.218c-.073-.11-.078-.107-.15-.217-.074-.11-.064-.116-.136-.228-.073-.11-.066-.116-.139-.226-.073-.11-.068-.115-.138-.225-.073-.11-.088-.1-.16-.213-.074-.11-.056-.123-.129-.236-.073-.112-.07-.112-.143-.225-.073-.113-.088-.102-.16-.213-.074-.112-.074-.112-.144-.223-.073-.11-.055-.123-.126-.235a9.84 9.84 0 01-.143-.223c-.073-.11-.08-.105-.153-.215s-.076-.108-.149-.22c-.073-.11-.07-.113-.143-.224-.073-.11-.063-.117-.133-.228-.073-.112-.096-.094-.168-.207-.073-.113-.063-.118-.136-.23-.073-.113-.07-.113-.143-.226-.073-.113-.068-.115-.139-.228-.072-.11-.07-.113-.143-.223-.073-.11-.078-.107-.148-.22-.073-.11-.078-.108-.15-.22-.074-.113-.079-.108-.152-.218-.073-.113-.062-.118-.135-.228-.073-.113-.068-.116-.141-.228-.073-.113-.07-.113-.14-.226-.074-.112-.066-.118-.137-.228-.072-.112-.075-.11-.148-.22-.073-.113-.07-.113-.143-.225-.073-.113-.093-.098-.163-.21-.073-.113-.06-.121-.134-.231-.072-.113-.06-.118-.133-.23-.073-.113-.073-.11-.145-.224-.073-.11-.088-.102-.161-.212-.073-.11-.066-.115-.139-.228-.072-.113-.08-.108-.153-.218-.073-.113-.08-.108-.153-.218-.073-.112-.07-.112-.143-.225-.073-.113-.07-.113-.144-.226-.072-.112-.075-.11-.145-.222-.073-.113-.076-.11-.149-.223-.072-.113-.067-.116-.14-.226-.073-.113-.066-.115-.139-.228-.072-.113-.082-.105-.155-.218-.073-.112-.063-.12-.136-.233-.073-.112-.068-.115-.14-.23-.074-.113-.076-.11-.149-.223-.048-.077-.098-.151-.126-.236-.027-.084-.02-.177-.025-.266a1.008 1.008 0 01.013-.262.959.959 0 01.073-.25c.035-.08.067-.165.125-.234.05-.064.118-.11.181-.156a.917.917 0 01.206-.118 1.15 1.15 0 01.226-.074c.078-.016.156-.036.237-.036h.261c.13 0 .13.02.261.02s.131-.012.264-.012.13-.016.264-.016c.133 0 .13.02.264.02.133 0 .13-.02.264-.02.133 0 .13.005.264.005.133 0 .13.02.264.02.133 0 .13-.004.263-.004h.262c.13 0 .13-.016.261-.016.13 0 .13.018.261.018s.131-.012.264-.012.131.007.262.007c.13 0 .13-.002.264-.002.133 0 .13-.005.263-.005h.264c.133 0 .13.007.264.007.133 0 .13.016.264.016.133 0 .13-.02.264-.02.133 0 .13-.006.264-.006.133 0 .13.01.264.01.133 0 .13-.007.26-.007.132 0 .132.01.265.01h.261c.13 0 .13-.016.264-.016.133 0 .13.018.264.018.133 0 .13-.02.264-.02.133 0 .13.025.264.025.133 0 .13-.023.26-.023h.262c.13 0 .13.008.262.008h.525c.133 0 .13.028.264.028.133 0 .13-.013.264-.013.133 0 .13-.017.263-.017.134 0 .131.025.262.025.13 0 .13-.01.261-.01.13 0 .13.018.261.018s.131-.008.262-.008c.13 0 .13-.01.261-.01.13 0 .13.013.261.013s.131-.018.264-.018c.134 0 .131.013.264.013s.13-.018.264-.018c.133 0 .13.03.264.03.133 0 .13-.01.264-.01.133 0 .13-.013.261-.013.13 0 .13.018.264.018.133 0 .13-.028.264-.028.133 0 .13.026.264.026.133 0 .133-.003.264-.003.13 0 .13-.008.264-.008h.263c.134 0 .131.01.264.01h.264c.133 0 .13.008.264.008.133 0 .13.003.264.003.133 0 .13-.018.264-.018.133 0 .133-.005.264-.005.13 0 .13.01.263.01.134 0 .131-.013.264-.013.134 0 .13.02.264.02.133 0 .13-.027.264-.027.133 0 .13.01.264.01.133 0 .13-.005.264-.005h.527c.134 0 .134.015.264.015.131 0 .131.008.264.008s.133-.02.264-.02c.13 0 .133.025.264.025.13 0 .133-.01.266-.01h.267c.093 0 .183.02.274.04.09.024.18.05.26.093.084.043.16.1.227.166a.873.873 0 01.171.223 1.1 1.1 0 01.093.26c.023.089.045.178.045.27a.987.987 0 01-.038.275c-.025.09-.047.182-.095.261-.045.077-.118.138-.184.205-.092.092-.087.097-.18.19-.093.092-.098.087-.191.179s-.096.09-.189.182-.09.095-.183.187-.083.102-.179.195c-.093.092-.108.076-.2.169-.094.092-.089.097-.182.19-.093.091-.088.097-.18.189-.094.092-.101.082-.197.177-.093.092-.09.094-.186.187-.093.092-.095.09-.188.181-.093.093-.088.1-.181.193-.093.092-.08.107-.173.2-.093.092-.096.09-.189.181-.093.093-.095.093-.188.185s-.106.08-.201.171c-.093.093-.078.108-.171.2-.093.092-.108.077-.201.17-.093.092-.088.097-.181.189s-.083.102-.179.197c-.093.092-.103.082-.196.174-.093.093-.098.087-.19.18-.094.092-.089.1-.182.192l-.188.184c-.093.092-.098.087-.194.18-.093.092-.098.087-.193.179-.093.092-.09.097-.183.192-.093.092-.086.103-.179.195-.093.092-.108.077-.204.169-.093.092-.082.105-.175.197-.096.092-.103.085-.199.177-.095.092-.093.095-.188.187-.096.092-.078.11-.174.205-.095.092-.103.084-.196.18a.252.252 0 00-.068.263c.033.084.123.14.229.14.13 0 .13.011.259.014.13 0 .13-.016.261-.016.13 0 .13.018.259.018.13 0 .13-.023.259-.02.13 0 .13.02.259.02.13 0 .13.005.259.005.13 0 .13-.023.258-.023.131 0 .131.018.26.018h.258c.13 0 .13-.007.259-.005.13 0 .13-.013.261-.013.128 0 .128.018.26.018.127 0 .127.005.258.005.13 0 .13-.018.259-.015.13 0 .13-.002.259-.002.13 0 .13.017.258.017h.26c.13 0 .13-.018.26-.018h.26c.13 0 .13-.005.258-.002.131 0 .131.03.26.03.13 0 .13-.01.258-.007.13 0 .13-.015.259-.015.13 0 .13.023.259.023.128 0 .13-.005.258-.005.131 0 .131.002.26.005.13 0 .13.005.258.005h.784c.13 0 .13-.003.262-.003.13 0 .13-.008.258-.008.129 0 .131.008.26.01.13 0 .13-.01.26-.01l.262-.002c.13 0 .13.01.261.01s.131-.018.262-.018c.13 0 .13.003.261.003.13 0 .13.026.261.026s.131-.031.262-.031c.13 0 .13.03.261.03.13 0 .13-.03.261-.03s.131.01.262.01h.261c.13 0 .13-.008.259-.008.13 0 .13.016.259.016.13 0 .13-.008.261-.008h.262c.13 0 .13.015.26.015.132 0 .132-.007.262-.007s.13-.008.262-.008l.26.002c.132 0 .132.019.262.019s.13.005.262.005h.26c.132 0 .132-.016.262-.016s.13-.002.264-.002h.264c.085 0 .173.005.254.025a.96.96 0 01.236.098c.075.04.148.09.209.146.06.056.115.128.16.2.046.069.088.148.116.23.03.082.04.17.048.254a1.055 1.055 0 01-.38.904c-.1.085-.088.1-.188.187-.1.085-.1.087-.201.172-.1.084-.113.069-.216.153-.1.085-.093.098-.194.182-.1.085-.095.093-.196.177-.1.085-.113.07-.216.154-.1.084-.108.077-.211.161-.1.085-.09.098-.191.185-.1.084-.1.087-.201.171l-.204.172c-.1.084-.105.082-.206.166-.1.085-.09.098-.193.182-.1.085-.106.082-.206.167-.1.084-.096.092-.196.177-.1.084-.11.074-.211.158l-.201.172c-.1.085-.108.074-.209.159-.1.084-.085.102-.186.187-.1.084-.115.066-.216.151-.1.085-.09.097-.191.182-.1.084-.106.077-.209.161-.1.085-.09.1-.19.185-.101.084-.104.084-.204.169-.1.084-.113.069-.214.156-.1.085-.098.09-.198.174-.1.085-.098.09-.199.175-.1.084-.093.097-.193.181-.1.085-.12.064-.221.149-.101.084-.08.11-.184.195-.1.084-.118.064-.221.148l-.204.17c-.068.056-.135.112-.2.168-.101.085-.094.095-.194.18-.1.084-.103.082-.206.166-.1.085-.096.093-.196.18-.1.084-.108.074-.211.161-.1.085-.096.092-.196.18-.1.084-.108.076-.211.16-.1.085-.098.09-.201.175-.1.084-.088.102-.189.187-.1.084-.11.074-.214.159-.1.084-.098.09-.198.174-.1.084-.113.072-.216.156-.1.085-.083.108-.186.192-.1.085-.108.077-.211.162-.1.084-.103.082-.206.169-.1.084-.106.082-.206.166-.1.085-.106.082-.206.167-.1.087-.088.102-.191.187-.1.084-.103.082-.206.169-.101.085-.096.092-.197.177l-.203.169c-.1.087-.103.084-.206.169l-.204.172c-.1.084-.105.079-.206.166l-.203.172c-.1.087-.106.082-.209.166-.1.085-.105.08-.208.164-.103.085-.096.093-.199.18-.103.084-.09.097-.193.184-.1.085-.106.082-.207.17-.1.086-.105.078-.208.166-.1.084-.103.084-.204.171-.103.087-.098.092-.198.18-.103.087-.118.064-.221.15-.103.088-.083.11-.186.195-.103.087-.11.077-.214.164a.655.655 0 00-.18.246.681.681 0 00-.044.303.643.643 0 00.078.294c.066.115.056.123.123.238.066.116.088.103.154.218.065.116.055.12.123.236.065.115.075.11.14.225.066.116.066.116.134.23.065.116.043.129.11.244.066.116.073.11.139.228.065.116.078.108.145.223.066.116.073.11.139.228.065.115.063.118.128.233.065.116.06.118.128.233.065.116.075.11.143.226.068.115.043.13.11.246.066.115.079.11.144.225.065.116.07.113.138.228.068.116.063.118.13.233.066.116.064.118.13.233l.132.231c.066.115.07.113.136.228.068.115.075.11.14.228.069.115.048.128.116.244.068.115.088.102.156.22.068.115.04.13.108.248.048.082.108.16.15.244.044.084.076.176.114.263.038.088.075.177.108.267.033.09.08.174.108.266.028.093.04.187.063.282.018.072.05.149.073.238.02.075.04.157.058.241.015.08.027.162.04.246.012.09.007.18.015.27.01.089.043.176.05.266.005.09-.017.179-.015.269.003.09.02.179.018.269 0 .09-.018.179-.023.269-.005.09.015.179.008.269-.008.09-.038.176-.048.264-.01.09-.015.179-.03.266-.015.087-.03.177-.048.264-.018.087-.055.171-.075.258-.02.088-.036.175-.06.262-.026.087-.049.172-.076.256l-.086.254c-.03.084-.037.176-.07.258-.033.082-.093.154-.128.236-.035.082-.068.164-.106.246-.037.082-.063.167-.103.248-.04.08-.095.152-.138.231-.043.08-.068.167-.113.243-.045.077-.105.144-.15.22-.049.075-.089.155-.139.231-.048.075-.083.16-.133.233-.05.072-.106.144-.159.216-.052.071-.12.13-.175.2-.053.069-.113.135-.169.204-.055.07-.098.152-.156.218-.057.067-.128.123-.188.19-.06.066-.11.14-.17.205l-.184.192c-.063.061-.131.12-.194.182-.063.061-.125.123-.19.184-.066.06-.134.118-.2.177-.065.059-.117.133-.185.192l-.204.17c-.068.056-.138.11-.209.166-.07.053-.143.102-.216.153-.07.054-.143.103-.216.154-.07.051-.15.09-.223.141-.073.051-.141.105-.216.154-.073.048-.136.115-.212.164-.072.046-.158.08-.233.125-.076.046-.143.103-.221.149-.076.043-.151.09-.23.133-.077.044-.162.07-.24.113-.078.04-.151.095-.229.136-.078.04-.158.079-.236.117-.078.039-.153.09-.231.126-.078.038-.164.067-.242.105l-.24.108c-.081.035-.167.061-.247.094-.08.034-.164.064-.247.098-.082.033-.155.082-.238.115-.083.03-.164.064-.246.095-.083.03-.171.04-.257.069-.083.028-.163.066-.246.095-.083.028-.168.053-.251.082-.083.025-.166.059-.252.082-.085.025-.176.025-.261.048-.085.023-.163.07-.249.093-.085.023-.176.017-.261.038-.086.02-.168.056-.254.077-.085.02-.173.025-.261.043l-.26.057c-.085.018-.165.054-.25.066a6.357 6.357 0 01-.254.041c-.086.013-.174.01-.257.023-.085.013-.168.031-.253.044-.086.01-.171.03-.254.04l-.256.032c-.086.007-.174-.005-.26 0-.085.007-.17.02-.256.028-.085.005-.17.008-.256.01-.085.005-.17 0-.259.003-.085.002-.17.02-.256.023-.086 0-.171-.01-.259-.01m2.902-17.447c-.082 0-.168.02-.25.02-.084 0-.17.006-.252.008-.083.003-.168-.017-.254-.012l-.251.018c-.083.005-.166.028-.252.035-.083.008-.168 0-.253.008-.083.008-.166.03-.25.041-.082.01-.165.034-.248.044l-.251.028c-.083.013-.169.008-.252.02-.082.013-.163.047-.246.06a8.515 8.515 0 00-.249.05c-.088.019-.178.01-.263.029-.086.018-.171.04-.257.061-.085.018-.168.054-.254.075l-.258.058c-.086.023-.174.036-.257.062-.085.023-.173.04-.256.064-.085.026-.17.049-.254.074a7.159 7.159 0 00-.251.082c-.083.028-.163.067-.246.095l-.252.085c-.083.03-.17.048-.254.079-.082.03-.163.07-.246.1-.083.033-.158.082-.239.118-.082.033-.168.059-.248.095-.08.035-.169.056-.25.092a9.91 9.91 0 00-.24.11c-.08.038-.156.087-.234.126-.08.038-.158.079-.236.12-.078.04-.164.072-.242.113-.077.04-.145.105-.22.148l-.232.13c-.078.047-.156.088-.231.134-.075.046-.148.097-.221.146-.076.049-.143.105-.216.154-.073.048-.151.095-.221.146-.073.051-.154.09-.224.143-.073.051-.136.115-.206.167-.07.054-.138.11-.209.166-.07.057-.143.108-.208.164a6.391 6.391 0 00-.201.174c-.068.06-.129.123-.194.182-.065.062-.126.126-.188.187-.063.062-.141.11-.201.175-.063.064-.113.138-.174.202-.06.067-.13.12-.188.187-.058.067-.106.146-.161.213-.055.069-.106.143-.16.212-.056.072-.104.146-.154.218-.053.072-.126.13-.174.202-.05.075-.09.154-.135.23-.048.078-.09.157-.136.237-.045.08-.1.15-.143.23-.043.082-.08.164-.12.244-.039.082-.056.174-.091.256-.036.084-.093.159-.123.243-.033.085-.036.18-.063.267-.028.087-.07.169-.096.253-.025.087-.045.177-.065.264-.02.09-.03.18-.045.269-.015.09-.053.174-.063.267a4.7 4.7 0 00-.048.543c-.002.09.025.181.025.271 0 .09-.022.182-.017.274.005.09.032.18.042.27.01.089.005.181.02.27.016.09.056.175.073.265.018.09.04.176.063.264.023.084.04.171.065.256.026.084.048.169.078.253.03.085.05.17.083.251l.1.246c.036.08.096.151.134.228.04.08.065.167.106.244.042.077.082.156.128.23.045.075.1.146.148.218.048.072.09.151.14.223.051.072.116.133.172.202a12.03 12.03 0 00.337.405c.057.064.115.13.175.195.06.064.133.112.196.174.063.062.12.126.186.184.066.06.116.134.184.19.065.056.138.105.208.161.068.054.138.105.209.16.07.05.148.091.218.143.07.05.131.118.204.166.073.049.156.08.231.126.073.046.136.113.211.156.076.044.156.08.231.123.076.041.149.09.227.13.078.042.158.072.238.11.078.04.161.067.24.106.077.036.155.074.235.11.08.033.164.059.244.092.08.033.15.087.234.12.08.031.163.062.244.09.082.028.168.046.25.075.084.028.172.033.255.061.083.026.16.067.243.09.083.023.169.04.254.064.083.02.166.056.249.077.083.02.173.018.259.038.085.018.163.062.249.08l.256.046c.085.015.173.01.261.023.086.013.171.03.257.04.085.014.173.014.258.024.086.01.171.025.26.033.085.008.17.028.258.033.086.008.173.023.259.029.085.005.173-.006.261 0 .086.002.174.012.26.015.087 0 .173-.005.26-.005.088 0 .174-.005.262-.005.088 0 .173-.013.261-.016.088-.002.174.01.262.005.088-.005.173-.01.26-.018.086-.005.174-.005.262-.012.086-.008.171-.026.26-.034.085-.01.172 0 .26-.013.086-.01.171-.03.26-.04.085-.013.168-.047.253-.06.085-.012.174-.017.259-.033l.256-.046c.086-.015.176-.02.262-.038.085-.018.17-.039.256-.06l.256-.058c.086-.02.166-.062.25-.085.085-.023.172-.025.258-.048.085-.023.168-.054.251-.077.086-.026.161-.075.244-.103.083-.028.168-.046.251-.074.083-.028.171-.04.254-.072.083-.03.166-.061.246-.092.083-.03.156-.082.24-.115.082-.034.165-.056.248-.09.08-.033.168-.054.249-.09.08-.035.15-.094.23-.13.081-.036.167-.062.245-.097.08-.039.15-.095.228-.134.078-.038.161-.071.239-.112.078-.041.15-.09.229-.134.078-.043.153-.084.228-.128.076-.043.161-.074.237-.12.075-.046.145-.1.218-.149.076-.046.148-.095.221-.14.073-.05.149-.095.221-.147.073-.048.139-.11.21-.161.072-.051.157-.082.228-.133.07-.054.138-.11.206-.167.07-.054.14-.107.208-.161l.204-.17c.068-.056.136-.115.201-.174.065-.058.116-.135.178-.197.066-.061.139-.11.201-.171.063-.062.129-.123.189-.185.063-.064.115-.133.176-.197.06-.064.13-.12.188-.187.058-.067.108-.141.166-.208.058-.069.103-.143.159-.212.055-.07.118-.134.168-.205.053-.072.108-.141.158-.213l.15-.22c.051-.074.102-.146.147-.223.045-.077.085-.156.128-.233.045-.077.08-.159.12-.238.043-.08.088-.154.126-.233.038-.08.07-.164.106-.244.035-.082.065-.166.098-.248.032-.082.073-.162.1-.246.03-.085.045-.172.07-.257.028-.084.076-.163.099-.248.022-.087.032-.177.052-.261.02-.087.035-.175.053-.262.015-.087.045-.174.058-.26.012-.088.007-.18.017-.267.008-.09.023-.177.028-.267.005-.09-.005-.18-.005-.266 0-.09-.002-.177-.007-.267-.005-.09.005-.179-.005-.266-.008-.09-.036-.174-.048-.264a3.724 3.724 0 00-.04-.233c-.018-.08-.028-.159-.048-.23h-.013c-.02-.078-.045-.154-.068-.231-.025-.077-.047-.156-.075-.23-.028-.078-.04-.16-.07-.237-.03-.074-.07-.148-.106-.22-.032-.074-.075-.143-.113-.215-.038-.072-.083-.138-.123-.21-.068-.118-.058-.123-.126-.238-.068-.118-.06-.12-.128-.239-.068-.117-.063-.12-.128-.238-.068-.118-.085-.107-.153-.223-.068-.117-.05-.128-.116-.246-.068-.117-.065-.117-.133-.235-.068-.118-.083-.108-.15-.226-.069-.118-.066-.118-.134-.236-.068-.117-.048-.128-.116-.245l-.133-.233c-.068-.118-.078-.11-.143-.228-.068-.118-.073-.116-.14-.234-.069-.117-.066-.117-.134-.235-.068-.118-.058-.123-.126-.241-.067-.118-.093-.103-.16-.22-.068-.118-.058-.123-.126-.241s-.066-.118-.133-.236c-.068-.118-.063-.12-.128-.238l-.134-.236c-.068-.118-.073-.115-.14-.233-.068-.118-.073-.115-.141-.233-.068-.118-.075-.115-.143-.233-.046-.08-.078-.17-.111-.251a1.647 1.647 0 01-.073-.264 1.66 1.66 0 01-.035-.272 1.624 1.624 0 01.015-.271c.01-.093.02-.18.043-.27a1.8 1.8 0 01.088-.255c.035-.082.057-.175.105-.254.048-.077.113-.141.174-.21.057-.067.13-.12.2-.18.101-.084.101-.084.202-.171.1-.085.088-.1.19-.185.101-.084.106-.079.207-.164.1-.084.095-.092.196-.176.1-.085.095-.093.196-.177l.203-.17c.1-.084.103-.081.204-.168.1-.085.1-.087.201-.172.1-.084.098-.087.201-.174.1-.085.103-.082.206-.167.1-.084.106-.08.206-.164.1-.084.093-.094.194-.179.1-.085.108-.074.208-.159.1-.084.106-.08.206-.164.1-.084.098-.087.199-.171.1-.085.093-.095.193-.18.1-.084.118-.064.219-.148l.201-.17c.1-.084.098-.089.199-.174.1-.084.09-.097.19-.181.101-.085.108-.075.209-.16.1-.084.1-.084.204-.168.1-.085.1-.088.2-.172.101-.085.096-.095.197-.18.1-.084.1-.086.2-.171.101-.085.114-.07.217-.156.1-.085.093-.095.193-.18.1-.084.093-.097.194-.181.1-.085.113-.07.213-.157.1-.084.088-.1.189-.187.1-.084.105-.082.206-.166.1-.085.113-.07.213-.154.101-.085.099-.09.2-.174l.2-.172c.1-.084.09-.097.194-.182.1-.084.113-.072.213-.156.1-.084.093-.095.194-.182.1-.084.105-.08.208-.164.1-.084.098-.087.201-.171.1-.085.098-.09.199-.175.1-.084.1-.084.2-.171.101-.085.106-.08.207-.167.1-.087.11-.074.214-.159.1-.084.087-.1.19-.187.101-.084.099-.09.2-.174.1-.085.107-.08.208-.164.1-.084.095-.092.198-.177.1-.084.108-.076.209-.164.1-.084.1-.084.2-.171.101-.085.094-.098.194-.182.1-.085.113-.072.216-.156.1-.085.088-.1.191-.187.1-.085.116-.067.216-.152.101-.084.088-.102.189-.19l.204-.17c.1-.085.105-.08.206-.167l.2-.172c.104-.085.101-.087.202-.174.1-.085.118-.064.22-.149.101-.084.094-.095.197-.182.1-.084.09-.1.19-.184.101-.085.119-.067.222-.151.103-.087.096-.095.196-.182.103-.087.113-.072.216-.159.103-.087.098-.092.201-.18.058-.048.063-.127.043-.186-.023-.062-.073-.12-.148-.12-.131 0-.131.017-.262.017-.13 0-.13-.013-.261-.013-.13 0-.13.018-.261.016-.131 0-.131-.03-.262-.03-.13 0-.13.01-.261.01-.13 0-.13.012-.262.012-.13 0-.13-.018-.26-.02-.131 0-.131.028-.262.025-.13 0-.13-.025-.262-.025h-.26c-.132 0-.132.007-.262.007h-.26c-.13 0-.13-.01-.258-.01h-.259c-.13 0-.13-.008-.261-.01-.13 0-.13-.003-.262-.005-.13 0-.13.015-.26.015-.132 0-.132.005-.262.005s-.13-.01-.262-.01c-.13 0-.13.013-.26.01-.132 0-.132-.02-.262-.02s-.13.025-.262.025c-.13 0-.13-.01-.26-.01-.132 0-.132.005-.262.005h-.523c-.13 0-.13-.015-.261-.015s-.131-.008-.262-.008c-.13 0-.13.02-.261.02-.13 0-.13-.025-.261-.025s-.131.01-.262.008h-.261c-.13 0-.13-.008-.261-.01-.131 0-.131.007-.262.007h-.522c-.131 0-.131-.01-.262-.01-.13 0-.13.01-.261.01h-.262c-.13 0-.13.013-.26.013-.132 0-.132-.02-.262-.02s-.13.007-.262.007c-.13 0-.13-.008-.26-.008-.132 0-.132-.002-.262-.005-.13 0-.13.003-.262.003-.13 0-.13.013-.261.013-.13 0-.13-.023-.261-.023s-.131.007-.262.007c-.13 0-.13.008-.261.005-.13 0-.13-.012-.261-.012h-.262c-.13 0-.13-.003-.261-.003-.13 0-.13.01-.261.008-.131 0-.131.018-.262.018-.13 0-.13-.003-.264-.003l-.264-.002c-.13 0-.13-.02-.263-.02s-.134.02-.264.02c-.093 0-.186-.034-.274-.054a1.143 1.143 0 01-.262-.095.977.977 0 01-.236-.156 1.04 1.04 0 01-.163-.233 1.248 1.248 0 01-.098-.26 1.023 1.023 0 01-.043-.273c0-.093.015-.187.038-.274.025-.09.068-.172.113-.251a.969.969 0 01.173-.21c.096-.095.09-.1.186-.193.096-.094.088-.102.181-.197.096-.095.11-.077.206-.172.096-.094.086-.105.179-.2.095-.094.105-.084.2-.179l.192-.19c.095-.094.078-.11.173-.204.096-.095.103-.087.199-.18.095-.094.105-.084.2-.176.096-.095.084-.105.18-.2.095-.095.102-.087.198-.182.095-.095.085-.105.18-.2.096-.095.106-.082.202-.177.095-.094.08-.11.176-.205.095-.094.108-.079.203-.174.096-.095.098-.092.194-.184.095-.095.078-.11.173-.205.095-.095.106-.082.201-.177l.191-.187c.096-.095.09-.1.186-.195.095-.094.088-.102.183-.197.096-.095.108-.082.201-.177.096-.095.098-.09.194-.184.096-.095.083-.108.178-.203.096-.094.093-.097.189-.192.095-.094.108-.082.203-.176l.191-.19c.096-.095.083-.108.179-.202l.19-.19c.096-.095.094-.097.19-.192.095-.095.117-.072.213-.167.095-.094.09-.102.186-.197.095-.095.085-.108.18-.202.096-.095.111-.08.21-.174.102-.103.025-.298-.121-.298-.13 0-.13-.002-.264-.002-.133 0-.13-.005-.264-.005h-.791c-.134 0-.131.002-.264.002-.134 0-.131.008-.262.008-.13 0-.13-.008-.264-.008-.133 0-.13.01-.261.01-.13 0-.13.006-.264.006-.133 0-.13-.01-.261-.01-.13 0-.13.017-.264.017h-.264c-.133 0-.13-.025-.264-.025-.133 0-.13.03-.264.03-.133 0-.13-.03-.264-.03-.133 0-.13.03-.263.03-.134 0-.131-.01-.264-.01h-.264c-.133 0-.13.01-.264.01-.133 0-.13-.012-.264-.012-.133 0-.13.007-.264.007h-.264c-.133 0-.13-.015-.263-.015-.134 0-.131.008-.264.008s-.13.007-.264.007h-.262c-.13 0-.13-.018-.26-.018-.131 0-.131-.005-.262-.005h-.261c-.131 0-.131.016-.264.016-.134 0-.131.002-.264.002h-.264c-.133 0-.13.008-.264.008-.133 0-.13-.003-.261-.003s-.131.003-.264.003-.13-.005-.261-.005l-.262.002c-.13 0-.13-.007-.261-.007h-.262c-.13 0-.13-.003-.263-.003-.134 0-.131-.003-.264-.003h-.264c-.133 0-.13.02-.264.02h-.264c-.133 0-.13-.02-.264-.02-.133 0-.13.016-.264.016-.133 0-.13.008-.264.008-.133 0-.13-.021-.263-.021s-.133-.013-.264-.013c-.13 0-.13.018-.264.018H9.91c-.133 0-.13-.005-.264-.005-.133 0-.13.015-.264.015-.133 0-.13-.005-.263-.005-.134 0-.131.008-.264.008s-.13-.015-.264-.015h-.264c-.133 0-.13-.013-.264-.013-.133 0-.13.023-.264.023-.133 0-.133-.023-.264-.023-.13 0-.13.015-.263.015-.134 0-.131-.01-.264-.01s-.133.018-.264.018H6.48c-.13 0-.133-.018-.264-.018-.13 0-.13.005-.264.005-.133 0-.133.005-.264.005-.13 0-.133.013-.266.013s-.133-.028-.266-.028c-.134 0-.134.033-.267.033s-.216.136-.145.246l.143.223c.048.075.097.15.146.223.072.112.082.105.155.215.073.113.068.115.141.225.073.113.08.108.153.218.073.113.063.118.136.23.073.113.08.108.153.218.073.113.063.118.136.231.073.113.075.11.148.223s.09.1.164.213c.073.112.06.12.133.233.073.112.078.107.15.22.073.113.058.123.129.233.073.113.095.097.168.208.073.112.063.117.136.23.073.113.07.113.14.226.073.112.068.115.141.228.073.112.068.115.141.225.073.113.088.1.16.213.074.112.071.112.142.225.072.113.077.108.15.22.073.113.07.113.144.226.072.113.07.113.143.225.048.076.097.15.146.223.072.113.067.116.138.228l.146.223c.072.11.067.115.14.228.073.113.066.115.138.228.073.113.08.108.154.218.073.113.085.102.158.215s.07.115.14.226c.074.112.069.115.139.227.073.113.07.113.143.226.073.113.078.108.151.22.073.113.05.128.123.239.073.112.096.094.169.207.072.113.062.118.135.23l.146.223c.073.11.08.108.153.218s.066.118.136.23c.073.114.063.119.136.231.073.113.093.098.166.21.072.113.062.118.135.231.073.113.08.105.154.218.072.112.07.112.143.223.073.112.05.125.123.238.073.11.078.107.15.218.074.11.086.102.157.215.072.11.077.107.15.218.073.11.068.115.141.225.073.113.068.115.138.228.073.113.083.105.154.218.072.113.05.125.123.238.072.113.083.105.155.218.073.113.078.11.151.22.073.113.07.115.143.228.073.113.068.115.141.228l.146.226c.073.112.075.11.148.223.073.112.08.107.151.22.073.113.055.123.128.235.073.113.093.098.166.21.073.113.048.129.12.241.073.113.086.103.159.216.073.112.065.117.138.228l.146.225c.073.113.088.102.16.215.074.113.061.12.134.233.073.113.08.108.153.218.073.113.076.11.146.223.073.113.07.115.143.225.073.113.058.123.13.236.074.113.096.097.17.21.072.113.05.128.122.241.073.113.086.102.159.215.073.113.06.12.133.233.073.113.093.098.166.21.073.113.055.123.128.236.073.113.08.108.153.22l.146.226c.073.113.058.123.13.236.074.112.079.107.151.22l.146.223c.073.112.07.112.143.225.073.113.093.1.166.213.073.113.048.128.12.24.074.113.076.11.15.223.072.113.085.105.157.218.073.113.06.12.134.236.073.113.088.102.16.215.073.113.058.123.131.236.073.113.078.107.151.22s.09.103.163.215c.073.113.068.116.144.23.072.114.057.124.13.24.073.112.07.114.143.23.048.071.101.138.129.217.027.082.03.167.037.252.008.084.02.169.008.253a1.051 1.051 0 01-.068.246c-.03.077-.08.146-.13.218a.947.947 0 01-.177.187 1.074 1.074 0 01-.22.13c-.079.036-.156.082-.242.098a1.24 1.24 0 01-.515-.026c-.083-.023-.164-.054-.249-.074-.083-.02-.166-.046-.251-.064-.083-.018-.166-.051-.252-.07-.082-.017-.17-.027-.256-.043-.085-.015-.173-.008-.259-.023-.085-.013-.168-.044-.254-.056-.085-.013-.173-.01-.258-.02a7.48 7.48 0 00-.257-.029c-.085-.01-.168-.036-.256-.044-.085-.007-.173 0-.259-.007l-.259-.018c-.085-.005-.173.005-.258 0-.086-.003-.171-.013-.26-.015-.085 0-.173-.021-.258-.021" fill="#fff"/></svg>