<svg width="29" height="28" viewBox="0 0 29 28" fill="none" xmlns="http://www.w3.org/2000/svg">
<g clip-path="url(#clip0_4110_2722)">
<mask id="mask0_4110_2722" style="mask-type:luminance" maskUnits="userSpaceOnUse" x="1" y="1" width="27" height="27">
<path d="M14.4995 1.9707C21.4195 1.9707 27.0189 7.51238 27.019 14.3359C27.019 21.1596 21.4196 26.7012 14.4995 26.7012C7.57952 26.7011 1.97998 21.1596 1.97998 14.3359C1.98011 7.51244 7.5796 1.97079 14.4995 1.9707Z" fill="white" stroke="white"/>
</mask>
<g mask="url(#mask0_4110_2722)">
<path d="M17.7706 17.5021C19.642 16.3449 20.8935 14.3027 20.8935 11.9656C20.8935 8.3465 17.9314 5.41943 14.2688 5.41943C10.6063 5.41943 7.64419 8.35785 7.64419 11.9656C7.64419 14.3027 8.89564 16.3449 10.7671 17.5021C6.10571 18.9656 2.71875 23.2882 2.71875 28.3822H25.8304C25.8304 23.2882 22.4549 18.977 17.7821 17.5021H17.7706Z" fill="#036EB8"/>
</g>
<path d="M14.4997 27.2017C21.6902 27.2017 27.5194 21.4416 27.5194 14.3362C27.5194 7.23077 21.6902 1.4707 14.4997 1.4707C7.30909 1.4707 1.47998 7.23077 1.47998 14.3362C1.47998 21.4416 7.30909 27.2017 14.4997 27.2017Z" stroke="#036EB8" stroke-width="2" stroke-miterlimit="10"/>
</g>
<defs>
<clipPath id="clip0_4110_2722">
<rect width="29" height="28" fill="white"/>
</clipPath>
</defs>
</svg>
