<svg width="55" height="55" viewBox="0 0 55 55" fill="none" xmlns="http://www.w3.org/2000/svg">
<g clip-path="url(#clip0_2036_3743)">
<path d="M23.5696 0.698024C25.7305 2.08198 29.2632 2.08198 31.4242 0.698024C33.5851 -0.685929 36.3165 0.042467 37.4941 2.32478C38.6717 4.60708 41.731 6.37345 44.2986 6.25205C46.8662 6.13065 48.8632 8.13374 48.7418 10.6953C48.6204 13.2568 50.3928 16.3221 52.669 17.4997C54.9453 18.6773 55.6797 21.4088 54.2958 23.5697C52.9118 25.7306 52.9118 29.2633 54.2958 31.4242C55.6797 33.5851 54.9514 36.3166 52.669 37.4942C50.3867 38.6718 48.6204 41.731 48.7418 44.2986C48.8632 46.8662 46.8601 48.8632 44.2986 48.7418C41.737 48.6204 38.6717 50.3929 37.4941 52.6691C36.3165 54.9453 33.5851 55.6798 31.4242 54.2959C29.2632 52.9119 25.7305 52.9119 23.5696 54.2959C21.4087 55.6798 18.6772 54.9514 17.4996 52.6691C16.3221 50.3868 13.2628 48.6204 10.6952 48.7418C8.1276 48.8632 6.13058 46.8601 6.25198 44.2986C6.37338 41.7371 4.60095 38.6718 2.32471 37.4942C0.0484727 36.3166 -0.685993 33.5851 0.69796 31.4242C2.08191 29.2633 2.08191 25.7306 0.69796 23.5697C-0.685993 21.4088 0.0484727 18.6773 2.32471 17.4997C4.60095 16.3221 6.37338 13.2629 6.25198 10.6953C6.13058 8.12767 8.13367 6.13065 10.6952 6.25205C13.2567 6.37345 16.3221 4.60101 17.4996 2.32478C18.6772 0.0485369 21.4087 -0.685929 23.5696 0.698024Z" fill="#036EB8"/>
<path d="M12.1461 24.7716L17.8033 31.4182V24.7716H19.6V34.2954H18.0157L12.3221 27.5395V34.2954H10.5254V24.7716H12.14H12.1461Z" fill="white"/>
<path d="M28.9721 24.7716V26.2102H24.6563V28.711H28.79V30.1496H24.6563V32.8568H29.0692V34.2954H22.8171V24.7716H28.9721Z" fill="white"/>
<path d="M32.5291 24.7716L34.9024 30.6473L37.3972 24.7716H38.9511L41.458 30.6655L43.8253 24.7716H45.707L41.7858 34.4168H41.1666L38.1681 27.3574L35.1573 34.4168H34.5564L30.6292 24.7716H32.5291Z" fill="white"/>
</g>
<defs>
<clipPath id="clip0_2036_3743">
<rect width="55" height="55" fill="white"/>
</clipPath>
</defs>
</svg>
