<svg width="337" height="167" viewBox="0 0 337 167" fill="none" xmlns="http://www.w3.org/2000/svg">
<g clip-path="url(#clip0_2036_4083)">
<path d="M191.577 150.083C191.577 149.768 191.828 149.504 192.156 149.504H197.319C197.634 149.504 197.898 149.756 197.898 150.083V150.335C197.898 150.726 198.1 151.053 198.364 151.053C198.629 151.053 198.805 150.738 198.818 150.335C198.881 149.088 198.037 149.088 198.037 149.088C192.886 148.962 191.992 146.846 191.992 144.856C191.992 139.616 195.493 137.739 198.755 137.739C203.162 137.739 205.807 140.082 206.008 144.176V145.99C206.021 146.305 205.769 146.569 205.454 146.569H200.152C199.85 146.569 199.586 146.317 199.573 146.015C199.548 145.095 199.321 144.717 199.069 144.717C198.78 144.717 198.641 145.133 198.641 145.498V145.561C198.616 146.922 199.271 146.796 199.271 146.796C203.981 147.388 205.618 149.529 206.273 153.409C206.273 153.409 209.169 166.748 198.566 166.521C189.322 166.32 191.551 150.071 191.551 150.071L191.577 150.083Z" fill="white"/>
<path d="M208.552 166.332C208.287 166.332 208.073 166.118 208.073 165.854V138.684C208.073 138.419 208.287 138.205 208.552 138.205H214.193C214.458 138.205 214.672 138.419 214.672 138.684V165.854C214.672 166.118 214.458 166.332 214.193 166.332H208.552Z" fill="white"/>
<path d="M231.925 138.684V165.854C231.925 166.118 231.71 166.332 231.446 166.332H224.747C224.52 166.332 224.318 166.169 224.281 165.942L222.996 158.12C222.895 157.553 222.681 157.578 222.694 158.12V165.854C222.694 166.118 222.48 166.332 222.215 166.332H217.178C216.914 166.332 216.7 166.118 216.7 165.854V138.684C216.7 138.419 216.914 138.205 217.178 138.205H223.5C223.701 138.205 223.89 138.331 223.953 138.533L224.016 138.722C224.344 139.754 224.696 140.838 225.049 141.921C225.213 142.437 226.006 145.221 226.006 144.68C226.006 144.428 225.968 141.279 225.968 141.039V138.684C225.968 138.419 226.182 138.205 226.447 138.205H231.459C231.723 138.205 231.937 138.419 231.937 138.684H231.925Z" fill="white"/>
<path d="M248.748 149.491C249.151 153.598 249.932 166.811 241.268 166.811C233.423 166.811 233.423 155.323 233.423 148.685C233.423 145.7 234.002 137.727 241.495 137.727C245.991 137.727 249.101 141.795 248.774 148.307C248.774 148.509 248.597 148.66 248.396 148.66H242.402C242.2 148.66 242.024 148.496 242.024 148.295C242.011 146.72 241.747 146.342 241.407 146.342C241.016 146.342 240.689 147.375 240.689 148.66C240.689 149.945 241.004 150.978 241.407 150.978C241.684 150.978 241.961 150.864 242.011 149.857C242.011 149.655 242.188 149.491 242.389 149.491H248.748Z" fill="white"/>
<path d="M263.558 151.494V165.955C263.558 166.169 263.394 166.332 263.18 166.332H250.902C250.688 166.332 250.524 166.169 250.524 165.955V138.596C250.524 138.382 250.688 138.218 250.902 138.218H263.168C263.382 138.218 263.546 138.382 263.546 138.596V146.179C263.546 146.393 263.382 146.556 263.18 146.556H257.337C257.123 146.556 256.959 146.733 256.959 146.934C256.959 147.136 257.136 147.312 257.337 147.312H262.878C263.092 147.312 263.256 147.476 263.256 147.69V149.932C263.256 150.134 263.08 150.31 262.866 150.31H257.325C257.123 150.31 256.947 150.474 256.947 150.688V150.751C256.947 150.965 257.111 151.129 257.325 151.129H263.18C263.394 151.129 263.558 151.293 263.558 151.507V151.494Z" fill="white"/>
<path d="M284.273 152.086L287.484 151.96C287.661 151.96 287.799 152.099 287.799 152.275L287.761 166.043C287.761 166.219 287.623 166.358 287.447 166.358H275.08C274.904 166.358 274.766 166.219 274.766 166.043V164.934C274.766 159.971 276.365 149.189 279.803 146.493C281.226 145.385 281.364 145.398 281.389 144.881C281.389 144.654 281.163 144.365 280.798 144.365C280.218 144.365 280.155 144.906 280.13 145.183V145.549C280.13 145.712 279.992 145.851 279.828 145.864L274.992 146.078C274.803 146.078 274.652 145.939 274.665 145.75C274.791 143.521 275.395 141.241 276.415 139.969C277.561 138.533 279.223 137.815 281.352 137.815C287.321 137.815 287.963 142.941 287.963 145.146C287.963 148.622 286.628 150.109 284.79 151.393C283.883 152.086 284.298 152.099 284.298 152.099L284.273 152.086Z" fill="white"/>
<path d="M305.971 155.349C305.971 163.385 302.319 167.013 297.823 167.013C293.328 167.013 289.676 163.385 289.676 155.349C289.676 147.312 291.288 137.915 297.823 137.915C303.755 137.915 305.971 147.312 305.971 155.349ZM298.566 148.862C298.566 147.577 298.239 146.544 297.823 146.544C297.408 146.544 297.08 147.577 297.08 148.862C297.08 150.146 297.408 151.179 297.823 151.179C298.239 151.179 298.566 150.146 298.566 148.862Z" fill="white"/>
<path d="M317.204 152.086L320.415 151.96C320.591 151.96 320.73 152.099 320.73 152.275L320.692 166.043C320.692 166.219 320.554 166.358 320.377 166.358H308.011C307.835 166.358 307.696 166.219 307.696 166.043V164.934C307.696 159.971 309.296 149.189 312.733 146.493C314.156 145.385 314.295 145.398 314.32 144.881C314.32 144.654 314.093 144.365 313.728 144.365C313.149 144.365 313.086 144.906 313.061 145.183V145.549C313.061 145.712 312.922 145.851 312.759 145.864L307.923 146.078C307.734 146.078 307.583 145.939 307.595 145.75C307.721 143.521 308.326 141.241 309.346 139.969C310.492 138.533 312.154 137.815 314.282 137.815C320.251 137.815 320.894 142.941 320.894 145.146C320.894 148.622 319.559 150.109 317.72 151.393C316.814 152.086 317.229 152.099 317.229 152.099L317.204 152.086Z" fill="white"/>
<path d="M336.244 151.595C336.244 158.472 337.403 166.458 329.356 166.71C321.574 166.95 322.997 156.079 322.77 153.195C322.77 153.195 322.77 153.182 322.77 153.169V152.716C322.77 152.54 322.896 152.401 323.072 152.401L328.273 152.338C328.399 152.338 328.512 152.414 328.563 152.527C328.664 152.766 328.84 152.917 329.029 152.917C329.344 152.917 329.608 152.489 329.608 151.96C329.608 151.431 329.356 151.003 329.029 151.003C328.827 151.003 328.664 151.167 328.563 151.419C328.512 151.532 328.399 151.62 328.273 151.62L323.123 151.57C322.946 151.57 322.808 151.431 322.808 151.255V138.533C322.808 138.356 322.946 138.218 323.123 138.218H335.476C335.653 138.218 335.791 138.356 335.791 138.533L335.716 144.528C335.716 144.705 335.564 144.843 335.388 144.843L329.482 144.591C329.306 144.591 329.155 144.73 329.155 144.906V145.057C329.155 145.221 329.293 145.372 329.457 145.372C330.036 145.385 330.275 145.372 330.855 145.372C334.154 145.372 336.257 147.3 336.257 151.607L336.244 151.595Z" fill="white"/>
<path d="M10.9056 131.151C-1.71254 131.151 0.529006 114.197 0.327519 103.578C0.327519 103.024 0.75568 102.583 1.30977 102.583H9.57075C10.1122 102.583 10.553 103.024 10.553 103.566C10.553 105.014 10.6034 107.143 11.0945 107.156C11.6486 107.168 11.7115 105.128 11.7115 104.422V102.608C11.7115 102.042 11.2204 101.588 10.6411 101.638C2.20387 102.394 0.0126953 97.4314 0.0126953 88.022V85.0871C0.0126953 84.5455 0.453449 84.1046 0.994946 84.1046H9.45741C9.99891 84.1046 10.4397 84.5455 10.4397 85.0871V88.6896C10.4271 89.7225 10.4774 91.2215 11.1071 91.2341C11.6234 91.2466 11.7115 89.6091 11.7241 88.8408V85.0871C11.7241 84.5455 12.1649 84.1046 12.7064 84.1046H21.1689C21.7104 84.1046 22.1511 84.5455 22.1511 85.0871V103.969C22.1511 114.449 22.8689 131.151 10.9434 131.151H10.9056Z" fill="white"/>
<path d="M50.7748 111.867C50.7748 125.042 44.7931 130.988 37.4011 130.988C30.009 130.988 24.0273 125.03 24.0273 111.867C24.0273 98.7036 26.6593 83.2859 37.4011 83.2859C47.1354 83.2859 50.7748 98.691 50.7748 111.867ZM38.6226 101.223C38.6226 99.1192 38.0811 97.4313 37.4137 97.4313C36.7462 97.4313 36.2047 99.1318 36.2047 101.223C36.2047 103.314 36.7462 105.014 37.4137 105.014C38.0811 105.014 38.6226 103.314 38.6226 101.223Z" fill="white"/>
<path d="M75.1925 85.0493L75.7844 104.334C75.7844 114.801 74.588 131.491 63.9848 131.491C53.3815 131.491 52.5 114.562 52.5 104.07L53.0919 85.0493C53.0919 84.5077 53.5326 84.0668 54.0741 84.0668H62.7507C63.2922 84.0668 63.7329 84.5077 63.7329 85.0493V104.788C63.7329 105.896 63.7581 107.496 64.2744 107.496C64.7781 107.496 64.7907 105.493 64.7907 104.788V85.0493C64.7907 84.5077 65.2315 84.0668 65.773 84.0668H74.2354C74.7769 84.0668 75.2177 84.5077 75.2177 85.0493H75.1925Z" fill="white"/>
<path d="M90.2914 129.249C90.7196 120.167 89.8003 115.217 89.3217 113.315C89.284 113.164 89.0573 113.189 89.0573 113.353V129.249C89.0573 129.766 88.6291 130.194 88.1128 130.194H79.4489C78.9326 130.194 78.5044 129.766 78.5044 129.249V85.0241C78.5044 84.5077 78.9326 84.0794 79.4489 84.0794H93.4774C100.164 84.0794 103.035 89.4328 102.972 94.4712C102.935 97.847 101.373 99.5853 99.9124 101.79C98.099 104.523 105.995 105.128 102.758 129.123C102.67 129.741 102.141 130.194 101.524 130.194H91.1981C90.6818 130.194 90.2788 129.766 90.304 129.249H90.2914ZM90.644 97.0661C91.0974 97.0661 91.8529 96.9401 91.8529 96.0962C91.8529 95.2522 91.1603 95.0885 90.581 95.0885H90.0018C89.4855 95.0885 89.0573 95.5167 89.0573 96.0332V96.1213C89.0573 96.6378 89.4855 97.0661 90.0018 97.0661H90.644Z" fill="white"/>
<path d="M149.869 84.1046C150.435 84.1046 150.864 84.2558 150.864 85.0367C150.864 85.0367 150.662 128.292 150.687 129.325C150.712 130.358 150.184 130.219 150.184 130.219H140.915C140.487 130.219 140.134 129.879 140.134 129.451L138.85 112.572C138.875 111.514 138.258 111.476 138.271 112.522V129.438C138.271 129.866 137.918 130.207 137.49 130.207H128.31C127.881 130.207 127.529 129.866 127.529 129.438L127.038 112.559C127.038 112.131 127 111.741 126.786 111.741C126.622 111.741 126.547 111.879 126.559 112.471L125.678 129.438C125.678 129.866 125.325 130.207 124.897 130.207H115.629C115.2 130.207 114.86 129.866 114.86 129.438V84.873C114.86 84.4447 115.213 84.1046 115.629 84.1046C117.203 84.1298 129.304 84.092 131.181 84.1046C131.886 84.1046 131.999 84.8604 132.025 85.4146C132.05 85.7043 132.113 86.1956 132.176 86.8632C132.276 87.7701 133.586 87.7953 133.712 86.8884C133.825 86.0822 133.901 85.5406 133.926 85.339C133.951 84.8352 134.102 84.0794 134.77 84.1046H149.844H149.869Z" fill="white"/>
<path d="M176.163 85.0493L176.755 104.334C176.755 114.801 175.558 131.491 164.955 131.491C154.352 131.491 153.47 114.562 153.47 104.07L154.062 85.0493C154.062 84.5077 154.503 84.0668 155.044 84.0668H163.721C164.262 84.0668 164.703 84.5077 164.703 85.0493V104.788C164.703 105.896 164.728 107.496 165.245 107.496C165.748 107.496 165.761 105.493 165.761 104.788V85.0493C165.761 84.5077 166.202 84.0668 166.743 84.0668H175.206C175.747 84.0668 176.188 84.5077 176.188 85.0493H176.163Z" fill="white"/>
<path d="M178.933 103.528C178.933 102.999 179.349 102.571 179.878 102.571H188.353C188.869 102.571 189.297 102.999 189.297 103.515V103.918C189.297 104.573 189.637 105.09 190.053 105.09C190.468 105.09 190.771 104.561 190.808 103.918C190.909 101.878 189.536 101.878 189.536 101.878C181.087 101.676 179.626 98.1871 179.626 94.9373C179.626 86.3341 185.356 83.2733 190.72 83.2733C197.949 83.2733 202.281 87.1151 202.621 93.8288L202.646 96.7889C202.646 97.318 202.23 97.7462 201.701 97.7462H193C192.496 97.7462 192.08 97.3432 192.055 96.8393C192.005 95.3278 191.639 94.7106 191.236 94.7106C190.771 94.7106 190.544 95.4034 190.544 95.9954V96.0962C190.506 98.3257 191.589 98.1241 191.589 98.1241C199.321 99.094 201.991 102.608 203.074 108.982C203.074 108.982 207.821 130.874 190.443 130.496C175.281 130.169 178.946 103.515 178.946 103.515L178.933 103.528Z" fill="white"/>
<path d="M206.789 130.194C206.361 130.194 206.008 129.841 206.008 129.413V84.8478C206.008 84.4195 206.361 84.0668 206.789 84.0668H216.057C216.486 84.0668 216.838 84.4195 216.838 84.8478V129.413C216.838 129.841 216.486 130.194 216.057 130.194H206.789Z" fill="white"/>
<path d="M244.454 102.571C245.109 109.31 246.406 130.975 232.189 130.975C219.319 130.975 219.319 112.131 219.319 101.248C219.319 96.3481 220.276 83.2607 232.554 83.2607C239.921 83.2607 245.034 89.9366 244.492 100.618C244.48 100.946 244.203 101.21 243.875 101.21H234.04C233.7 101.21 233.423 100.946 233.423 100.606C233.398 98.036 232.97 97.4062 232.403 97.4062C231.761 97.4062 231.232 99.1067 231.232 101.198C231.232 103.289 231.761 104.989 232.403 104.989C232.856 104.989 233.322 104.8 233.398 103.15C233.41 102.823 233.687 102.558 234.015 102.558H244.454V102.571Z" fill="white"/>
<path d="M275.748 102.52C276.176 102.52 276.529 102.873 276.529 103.301V129.476C276.529 129.904 276.176 130.257 275.748 130.257L258.168 130.207C257.74 130.207 257.4 129.854 257.4 129.426V84.8604C257.4 84.4321 257.753 84.0794 258.181 84.0794H267.474C267.902 84.0794 268.255 84.4321 268.255 84.8604V101.752C268.255 102.18 268.608 102.533 269.036 102.533H275.773L275.748 102.52Z" fill="white"/>
<path d="M279.639 130.194C279.211 130.194 278.858 129.841 278.858 129.413V84.8478C278.858 84.4195 279.211 84.0668 279.639 84.0668H288.908C289.336 84.0668 289.688 84.4195 289.688 84.8478V129.413C289.688 129.841 289.336 130.194 288.908 130.194H279.639Z" fill="white"/>
<path d="M312.431 84.0794C312.771 84.0794 313.048 84.3565 313.048 84.6966V97.129C313.048 97.4691 312.771 97.7462 312.431 97.7462H304.309C303.969 97.7462 303.692 98.0234 303.692 98.3635V98.628C303.692 98.9681 303.969 99.2452 304.309 99.2452H311.474C311.814 99.2452 312.091 99.5223 312.091 99.8624V104.095C312.091 104.435 311.814 104.712 311.474 104.712H304.309C303.969 104.712 303.692 104.989 303.692 105.329V129.577C303.692 129.917 303.415 130.194 303.075 130.194H293.642C293.302 130.194 293.025 129.917 293.025 129.577V84.6966C293.025 84.3565 293.302 84.0794 293.642 84.0794H312.431Z" fill="white"/>
<path d="M336.118 105.846V129.577C336.118 129.917 335.854 130.194 335.514 130.194H315.365C315.025 130.194 314.748 129.917 314.748 129.577V84.6966C314.748 84.3565 315.025 84.0794 315.365 84.0794H335.489C335.829 84.0794 336.106 84.3565 336.106 84.6966V97.129C336.118 97.4691 335.841 97.7462 335.501 97.7462H325.905C325.565 97.7462 325.288 98.0234 325.288 98.3761C325.288 98.7162 325.565 98.9933 325.905 98.9933H334.985C335.325 98.9933 335.602 99.2704 335.602 99.6105V103.289C335.589 103.629 335.312 103.906 334.972 103.906H325.88C325.54 103.906 325.263 104.183 325.263 104.523V104.624C325.263 104.964 325.54 105.241 325.88 105.241H335.489C335.829 105.241 336.106 105.518 336.106 105.858L336.118 105.846Z" fill="white"/>
<path d="M24.9467 75.4007H1.29709C0.755592 75.4007 0.302246 74.9598 0.302246 74.4056V2.49406C0.302246 1.95242 0.742999 1.49896 1.29709 1.49896H24.8081C35.3233 1.49896 39.076 9.54792 39.076 17.0804C39.076 21.4891 37.2122 24.4114 35.4744 26.8173C35.1973 27.2077 35.1344 27.8753 35.5625 28.0895C40.9775 30.7473 40.9775 41.2903 40.9775 41.2903C41.1034 74.5064 24.9593 75.3881 24.9593 75.3881L24.9467 75.4007ZM22.1636 19.5997C22.1636 18.1763 21.0302 18.0125 20.5517 18.0125H18.0709C17.5294 18.0125 17.0761 18.4534 17.0761 19.0076V20.1917C17.0761 20.7333 17.5168 21.1868 18.0709 21.1868H20.5895C21.6347 21.1868 22.151 20.7081 22.151 19.5997H22.1636ZM20.4006 43.7969C22.617 43.7969 22.617 42.4239 22.617 41.9705C22.617 40.8998 21.9243 40.3581 20.5391 40.3581H18.0583C17.5168 40.3581 17.0635 40.799 17.0635 41.3532V42.8144C17.0635 43.356 17.5042 43.8095 18.0583 43.8095H20.4006V43.7969Z" fill="white"/>
<path d="M85.9975 46.0264C85.9975 67.1502 76.4142 76.6729 64.5769 76.6729C52.7395 76.6729 43.1562 67.1376 43.1562 46.0264C43.1562 24.9152 47.3749 0.226715 64.5769 0.226715C80.1795 0.226715 85.9975 24.9152 85.9975 46.039V46.0264ZM66.5162 28.9712C66.5162 25.608 65.6473 22.8872 64.5769 22.8872C63.5065 22.8872 62.6376 25.608 62.6376 28.9712C62.6376 32.3343 63.5065 35.0551 64.5769 35.0551C65.6473 35.0551 66.5162 32.3343 66.5162 28.9712Z" fill="white"/>
<path d="M130.967 46.0264C130.967 67.1502 121.383 76.6729 109.546 76.6729C97.7087 76.6729 88.1255 67.1376 88.1255 46.0264C88.1255 24.9152 92.3441 0.226715 109.534 0.226715C125.136 0.226715 130.954 24.9152 130.954 46.039L130.967 46.0264ZM111.485 28.9712C111.485 25.608 110.616 22.8872 109.546 22.8872C108.476 22.8872 107.607 25.608 107.607 28.9712C107.607 32.3343 108.476 35.0551 109.546 35.0551C110.616 35.0551 111.485 32.3343 111.485 28.9712Z" fill="white"/>
<path d="M173.266 32.1328L173.468 74.4685C173.468 75.0228 173.027 75.4636 172.473 75.4636H156.87C156.329 75.4636 155.876 75.0228 155.876 74.4685V72.2012C155.876 71.1432 154.453 70.8283 153.999 71.773C152.601 74.6197 150.675 76.4587 148.194 76.4461C135.059 76.3832 133.309 53.118 133.296 35.6975C133.296 25.9103 134.82 0 154.516 0C166.328 0 174.299 10.9083 173.405 28.0391C173.38 28.5681 172.939 28.9838 172.41 28.9838H156.883C156.341 28.9838 155.901 28.5429 155.901 28.0013C155.863 23.8445 155.17 22.6731 154.276 22.6731C153.244 22.6731 152.4 25.3939 152.4 28.7571C152.4 32.1202 153.244 34.778 154.276 34.841C154.78 34.8662 155.699 34.7276 155.876 32.1328C155.913 31.6038 156.329 31.1881 156.858 31.1881L172.297 31.1629C172.838 31.1629 173.292 31.6038 173.292 32.1454L173.266 32.1328Z" fill="white"/>
<path d="M179.487 75.4007C178.795 75.4007 178.241 74.8465 178.241 74.1537V2.74598C178.241 2.06579 178.795 1.49896 179.487 1.49896H194.335C195.027 1.49896 195.581 2.05319 195.581 2.74598V74.1537C195.581 74.8339 195.027 75.4007 194.335 75.4007H179.487Z" fill="white"/>
<path d="M235.186 36.3903V74.4182C235.199 74.9598 234.758 75.4133 234.204 75.4133H201.928C201.386 75.4133 200.933 74.9724 200.933 74.4182V2.49406C200.933 1.95242 201.374 1.49896 201.928 1.49896H234.179C234.72 1.49896 235.173 1.93983 235.173 2.48146L235.199 22.396C235.199 22.9376 234.758 23.3911 234.204 23.3911H218.828C218.274 23.3911 217.833 23.8446 217.833 24.3862C217.833 24.9278 218.286 25.3687 218.828 25.3687H233.385C233.939 25.3687 234.38 25.8096 234.38 26.3638L234.355 32.2462C234.355 32.7878 233.914 33.2287 233.36 33.2287H218.803C218.261 33.2287 217.82 33.6696 217.808 34.2112V34.3876C217.808 34.9418 218.248 35.3827 218.803 35.3827H234.191C234.733 35.3827 235.186 35.8235 235.186 36.3778V36.3903Z" fill="white"/>
<path d="M293.995 3.06089L294.94 33.9593C294.94 50.7248 293.013 77.479 276.025 77.479C259.037 77.479 257.614 50.3595 257.614 33.531L258.559 3.06089C258.559 2.19175 259.264 1.49896 260.12 1.49896H274.023C274.892 1.49896 275.584 2.20435 275.584 3.06089V34.6773C275.572 36.4533 275.622 39.0103 276.466 39.0229C277.272 39.0229 277.297 35.8109 277.297 34.6899V3.06089C277.297 2.19175 278.002 1.49896 278.859 1.49896H292.421C293.29 1.49896 293.983 2.20435 293.983 3.06089H293.995Z" fill="white"/>
<path d="M337 20.9852C337 33.0398 331.144 40.5345 321.712 40.5345H317.909C317.078 40.5345 316.398 41.2147 316.398 42.046V73.9017C316.398 74.7331 315.718 75.4133 314.887 75.4133H300.808C299.977 75.4133 299.297 74.7331 299.297 73.9017V3.0105C299.297 2.17916 299.977 1.49896 300.808 1.49896H321.246C330.817 1.49896 337 9.14483 337 20.9726V20.9852ZM320.088 20.9852C320.088 19.7256 319.383 19.0832 318.01 19.0832H317.909C317.078 19.0832 316.398 19.7634 316.398 20.5948V21.4513C316.398 22.2826 317.078 22.9628 317.909 22.9628H318.01C318.954 22.9628 320.088 22.6227 320.088 20.9978V20.9852Z" fill="white"/>
</g>
<defs>
<clipPath id="clip0_2036_4083">
<rect width="337" height="167" fill="white"/>
</clipPath>
</defs>
</svg>
