<svg width="38" height="45" viewBox="0 0 38 45" fill="none" xmlns="http://www.w3.org/2000/svg">
<path d="M11.0094 43.1843C10.9214 43.1843 10.8335 43.2022 10.748 43.1996C10.6601 43.1996 10.5721 43.1971 10.4842 43.1945C10.3962 43.192 10.3108 43.1638 10.2228 43.1587C10.1348 43.1535 10.0469 43.151 9.96145 43.1458C9.8735 43.1407 9.78554 43.1484 9.69759 43.1433C9.60964 43.1356 9.52419 43.1125 9.43624 43.1023C9.34829 43.092 9.26033 43.0972 9.17489 43.0869C9.08694 43.0767 8.99898 43.0792 8.91354 43.0664C8.82559 43.0536 8.74014 43.0357 8.6547 43.0203C8.56675 43.0075 8.48382 42.9742 8.39838 42.9588C8.31294 42.9435 8.22247 42.9435 8.13703 42.9281C8.05159 42.9102 7.96363 42.8973 7.87819 42.8794C7.79275 42.8615 7.71234 42.8154 7.62689 42.7949C7.54145 42.7744 7.45601 42.759 7.37057 42.736C7.28513 42.7129 7.19718 42.7052 7.11425 42.6822C7.02881 42.6591 6.94588 42.6284 6.86295 42.6027C6.78002 42.5771 6.69709 42.5438 6.61416 42.5182C6.53124 42.49 6.45082 42.4567 6.36789 42.426C6.28496 42.3978 6.20455 42.367 6.12162 42.3363C6.03869 42.3056 5.95828 42.2748 5.87535 42.2441C5.79493 42.2108 5.70698 42.1903 5.62656 42.157C5.54615 42.1237 5.46573 42.0878 5.38532 42.0519C5.3049 42.0161 5.22951 41.9674 5.15161 41.9315C5.07119 41.8931 4.99078 41.8598 4.91288 41.8214C4.83497 41.7804 4.74702 41.7573 4.67163 41.7163C4.59373 41.6754 4.52085 41.6241 4.44546 41.5806C4.37007 41.537 4.29971 41.4781 4.22432 41.4345C4.14893 41.3884 4.07354 41.3423 4.00066 41.2962C3.92527 41.2501 3.84737 41.2117 3.7745 41.1604C3.70162 41.1117 3.62874 41.0605 3.55587 41.0118C3.48299 40.9606 3.42017 40.8991 3.3498 40.8479C3.27944 40.7941 3.19651 40.7608 3.12615 40.7044C3.05578 40.6506 2.98793 40.5943 2.9226 40.5379C2.85475 40.4815 2.79192 40.42 2.72407 40.3611C2.65873 40.3022 2.58837 40.2484 2.52555 40.1869C2.46021 40.1254 2.38984 40.0716 2.32953 40.0102C2.26671 39.9487 2.20891 39.8795 2.1486 39.8155C2.08829 39.7514 2.03803 39.6746 1.98023 39.6105C1.92243 39.5439 1.85709 39.485 1.79929 39.4158C1.7415 39.3492 1.6837 39.28 1.63092 39.2109C1.57564 39.1417 1.52789 39.0674 1.47512 38.9957C1.42235 38.9239 1.37209 38.8522 1.32183 38.7779C1.27157 38.7036 1.2188 38.6344 1.17105 38.5602C1.1233 38.4859 1.07304 38.4116 1.02781 38.3373C0.982575 38.2604 0.957445 38.1733 0.914725 38.0965C0.872004 38.0196 0.819232 37.9453 0.781537 37.8659C0.741329 37.7865 0.718712 37.6994 0.681018 37.6174C0.643323 37.5354 0.598089 37.4611 0.562908 37.3792C0.527726 37.2972 0.490031 37.2178 0.459875 37.1332C0.42972 37.0512 0.394538 36.9667 0.364382 36.8847C0.336739 36.8002 0.336739 36.708 0.31161 36.6208C0.28648 36.5363 0.253811 36.4543 0.231194 36.3672C0.208577 36.2827 0.185961 36.1981 0.165857 36.1136C0.148266 36.0265 0.145753 35.9394 0.130675 35.8523C0.115597 35.7652 0.100519 35.6806 0.0879543 35.5935C0.0753894 35.5064 0.0427207 35.4219 0.0351817 35.3348C0.0276428 35.2477 0.0452336 35.158 0.0402077 35.0709C0.0351817 34.9838 0.00251298 34.8967 0 34.8096C0 34.7225 0.0150779 34.6329 0.0150779 34.5458C0.0150779 34.4587 0.0175909 34.3716 0.0226168 34.2819C0.0276428 34.1948 0.0251298 34.1051 0.0351817 34.018C0.0427207 33.9309 0.0753894 33.8464 0.0879543 33.7593C0.100519 33.6722 0.11811 33.5876 0.133188 33.5005C0.148266 33.4134 0.165857 33.3289 0.183448 33.2443C0.201038 33.1598 0.193499 33.0676 0.216116 32.983C0.238733 32.8985 0.28648 32.8216 0.31161 32.7371C0.336739 32.6526 0.344278 32.5655 0.374434 32.4809C0.402077 32.3989 0.44731 32.3221 0.477466 32.2401C0.507622 32.1581 0.517674 32.0685 0.550343 31.9865C0.583011 31.9071 0.618193 31.8251 0.653375 31.7457C0.688557 31.6663 0.73379 31.5894 0.771485 31.51C0.80918 31.4331 0.854413 31.3563 0.894621 31.2794C0.934829 31.2026 0.987601 31.1308 1.03032 31.0565C1.07304 30.9822 1.12079 30.9079 1.16602 30.8337C1.21126 30.7594 1.24141 30.6723 1.28916 30.6005C1.33691 30.5288 1.40224 30.4648 1.4525 30.393C1.50276 30.3213 1.55805 30.2547 1.61082 30.1829C1.66359 30.1138 1.70883 30.0395 1.76411 29.9703C1.8194 29.9011 1.88222 29.8422 1.93751 29.7731C1.99279 29.7064 2.03803 29.6296 2.09583 29.563C2.15362 29.4964 2.21142 29.4323 2.27173 29.3683C2.32953 29.3042 2.39236 29.2428 2.45267 29.1787C2.51298 29.1172 2.5758 29.0557 2.63863 28.9943C2.70145 28.9328 2.75171 28.861 2.81705 28.7996C2.87988 28.7406 2.95024 28.6868 3.01558 28.6279C3.08091 28.569 3.15882 28.528 3.22667 28.4716C3.292 28.4153 3.35232 28.3512 3.42017 28.2974C3.48802 28.2411 3.55335 28.1847 3.6212 28.1309C3.68905 28.0771 3.74937 28.0131 3.81973 27.9618C3.88758 27.908 3.97051 27.8747 4.04087 27.8235C4.11124 27.7723 4.17155 27.7057 4.24191 27.657C4.31227 27.6083 4.39772 27.5776 4.47059 27.5289C4.54347 27.4802 4.61132 27.4264 4.68419 27.3777C4.75707 27.3316 4.83497 27.2906 4.90785 27.2445C4.98073 27.1984 5.05109 27.1446 5.12648 27.1011C5.20187 27.0575 5.27223 27.0037 5.34762 26.9627C5.42301 26.9192 5.50091 26.8807 5.5763 26.8372C5.65169 26.7962 5.72457 26.745 5.80247 26.704C5.87786 26.663 5.96833 26.6451 6.04623 26.6066C6.12413 26.5682 6.20203 26.5298 6.27994 26.4913C6.35784 26.4529 6.43072 26.4068 6.51113 26.3684C6.58903 26.3325 6.66191 26.2787 6.73981 26.2428C6.82023 26.207 6.90567 26.189 6.98608 26.1532C7.0665 26.1199 7.1444 26.0789 7.22482 26.0456C7.30523 26.0123 7.39067 25.9918 7.47109 25.961C7.55151 25.9303 7.62438 25.8791 7.70731 25.8483C7.78773 25.8176 7.87819 25.8125 7.96112 25.7817C8.04154 25.7535 8.12446 25.7202 8.20739 25.692C8.29032 25.6639 8.36571 25.6178 8.44864 25.5896C8.53157 25.5614 8.6145 25.5409 8.69742 25.5127C8.78035 25.4871 8.86077 25.4512 8.9437 25.4282C9.02662 25.4026 9.11207 25.3846 9.19499 25.3616C9.27792 25.3385 9.36588 25.3257 9.4488 25.3026C9.53173 25.2796 9.61969 25.2668 9.70262 25.2463C9.78554 25.2258 9.86596 25.1899 9.9514 25.1694C10.0368 25.1489 10.1223 25.1361 10.2077 25.1182C10.2932 25.1003 10.3761 25.0721 10.4615 25.0541C10.547 25.0362 10.6324 25.0157 10.7179 24.9978C10.8058 24.9799 10.8913 24.9568 10.9792 24.9389C11.0672 24.9235 11.1576 24.9235 11.2456 24.9107C11.3335 24.8953 11.4215 24.8799 11.5094 24.8671C11.5974 24.8543 11.6879 24.8492 11.7758 24.8364C11.8638 24.8236 11.9517 24.8057 12.0397 24.7954C12.1276 24.7852 12.2181 24.7928 12.3061 24.7852C12.394 24.7775 12.482 24.7595 12.5724 24.7519C12.6604 24.7442 12.7483 24.716 12.8363 24.7109C12.9243 24.7057 13.0147 24.7109 13.1027 24.7057C13.1906 24.7006 13.2811 24.6981 13.3691 24.6955C13.457 24.6929 13.5475 24.7032 13.6354 24.7032C13.7259 24.7032 13.8139 24.6981 13.9018 24.6981C13.9923 24.6981 14.0802 24.6981 14.1682 24.7032C14.2561 24.7032 14.3466 24.6878 14.4371 24.6904C14.525 24.6929 14.613 24.716 14.7034 24.7211C14.7914 24.7262 14.8819 24.7262 14.9698 24.7339C15.0578 24.739 15.1482 24.7211 15.2387 24.7288C15.3267 24.7365 15.4171 24.7519 15.5051 24.7595C15.593 24.7698 15.681 24.7954 15.769 24.8057C15.8569 24.8159 15.9449 24.8261 16.0328 24.839C16.1208 24.8518 16.2112 24.8441 16.2992 24.8569C16.3871 24.8697 16.4726 24.8953 16.5605 24.9107C16.6485 24.9261 16.7339 24.9594 16.8194 24.9773C16.9073 24.9952 16.9978 24.9875 17.0858 25.008C17.1737 25.026 17.2566 25.0618 17.3421 25.0823C17.4853 25.1156 17.5858 24.9619 17.5054 24.8364C17.4325 24.7262 17.4426 24.7185 17.3697 24.6084C17.2968 24.4982 17.2893 24.5034 17.2189 24.3906C17.1461 24.2805 17.1486 24.2779 17.0757 24.1678C17.0028 24.0576 17.0179 24.0473 16.945 23.9346C16.8721 23.8245 16.8646 23.8296 16.7917 23.7169C16.7189 23.6067 16.7214 23.6041 16.6485 23.494C16.5756 23.3813 16.5781 23.3813 16.5078 23.2685C16.4349 23.1584 16.4248 23.1635 16.3545 23.0534C16.2816 22.9406 16.3042 22.9253 16.2339 22.8151C16.1635 22.7049 16.1585 22.7075 16.0856 22.5948C16.0127 22.4846 16.0152 22.4821 15.9449 22.3693C15.872 22.2592 15.8745 22.2566 15.8016 22.1465C15.7287 22.0363 15.7313 22.0337 15.6584 21.9236C15.5855 21.8134 15.5679 21.8262 15.495 21.7135C15.4222 21.6034 15.4347 21.5931 15.3644 21.4829C15.2915 21.3728 15.2965 21.3702 15.2236 21.2575C15.1508 21.1473 15.1432 21.1499 15.0729 21.0397C15 20.9296 15.0125 20.9193 14.9422 20.8092C14.8693 20.699 14.8618 20.7041 14.7914 20.5914C14.7185 20.4813 14.711 20.4864 14.6381 20.3762C14.5652 20.2661 14.5753 20.2584 14.5024 20.1482C14.4295 20.0381 14.432 20.0355 14.3617 19.9228C14.2888 19.8126 14.2888 19.8101 14.2184 19.6999C14.1456 19.5898 14.1506 19.5846 14.0777 19.4745C14.0048 19.3643 13.9998 19.3669 13.9269 19.2567C13.8541 19.144 13.8465 19.1491 13.7762 19.039C13.7033 18.9262 13.7108 18.9237 13.6379 18.811C13.5651 18.7008 13.56 18.7034 13.4872 18.5932C13.4143 18.4805 13.4093 18.4856 13.3364 18.3729C13.2635 18.2627 13.271 18.2576 13.1982 18.1449C13.1253 18.0347 13.1152 18.0424 13.0424 17.9297C12.9695 17.8195 12.9921 17.8042 12.9192 17.6914C12.8464 17.5813 12.8363 17.5864 12.7659 17.4762C12.6931 17.3661 12.6931 17.3661 12.6202 17.2534C12.5473 17.1432 12.5624 17.133 12.4895 17.0228C12.4166 16.9126 12.4066 16.9203 12.3337 16.8076C12.2608 16.6974 12.2684 16.6898 12.198 16.5796C12.1251 16.4694 12.1151 16.4746 12.0447 16.3644C11.9743 16.2542 11.9718 16.2542 11.899 16.1415C11.8261 16.0314 11.8386 16.0211 11.7658 15.911C11.6929 15.8008 11.6803 15.8085 11.61 15.6958C11.5371 15.5856 11.5396 15.583 11.4667 15.4729C11.3939 15.3627 11.4014 15.3576 11.331 15.2449C11.2582 15.1347 11.2481 15.1398 11.1777 15.0297C11.1049 14.9195 11.1049 14.9195 11.032 14.8094C10.9834 14.7359 10.9357 14.6616 10.8887 14.5865C10.8159 14.4763 10.8309 14.4661 10.7606 14.3559C10.6877 14.2458 10.6827 14.2483 10.6098 14.1382C10.5369 14.028 10.5319 14.0306 10.459 13.9204C10.3861 13.8102 10.3811 13.8128 10.3082 13.7027C10.2354 13.5925 10.2454 13.5874 10.1725 13.4746C10.0997 13.3645 10.1072 13.3594 10.0343 13.2492C9.96145 13.139 9.96648 13.1339 9.89612 13.0238C9.82324 12.9136 9.80816 12.9239 9.73529 12.8111C9.66241 12.701 9.68 12.6882 9.60712 12.5754C9.53425 12.4627 9.53676 12.4627 9.46388 12.35C9.39101 12.2373 9.37593 12.2475 9.30305 12.1374C9.23018 12.0246 9.23018 12.0246 9.15981 11.9145C9.08694 11.8043 9.10453 11.7915 9.03416 11.6788C8.98558 11.6054 8.93783 11.5311 8.89092 11.4559C8.81805 11.3458 8.81051 11.3509 8.73763 11.2407C8.66476 11.1306 8.66224 11.1331 8.58937 11.0204C8.51649 10.9102 8.519 10.9077 8.44613 10.7975C8.37325 10.6874 8.3833 10.6797 8.31294 10.5695C8.24006 10.4568 8.21745 10.4747 8.14457 10.362C8.07169 10.2493 8.08174 10.2442 8.00887 10.1314C7.93599 10.0187 7.9385 10.0187 7.86563 9.90601C7.79275 9.79329 7.79778 9.79072 7.72741 9.678C7.65454 9.56784 7.65705 9.56528 7.58417 9.45512C7.5113 9.34496 7.50627 9.34753 7.43591 9.23481C7.36303 9.12465 7.35801 9.12721 7.28513 9.01449C7.21225 8.90177 7.20723 8.90689 7.13435 8.79673C7.06147 8.68401 7.07153 8.67889 6.99865 8.56873C6.92577 8.45601 6.9308 8.45345 6.85792 8.34072C6.78505 8.228 6.78756 8.228 6.7172 8.11528C6.64432 8.00256 6.65186 7.99744 6.58149 7.88728C6.50862 7.77456 6.50611 7.77712 6.43323 7.66696C6.36035 7.55424 6.36287 7.55424 6.28999 7.44152C6.21711 7.3288 6.19701 7.34417 6.12665 7.23145C6.05377 7.11873 6.06633 7.11104 5.99346 7.00088C5.92058 6.88816 5.93315 6.88304 5.86027 6.77032C5.78739 6.6576 5.78739 6.66016 5.71452 6.54744C5.64164 6.43728 5.62656 6.44496 5.55369 6.33481C5.48081 6.22465 5.48835 6.21952 5.41547 6.1068C5.3426 5.99408 5.33506 5.99921 5.26218 5.88905C5.1893 5.77633 5.18177 5.78145 5.10889 5.67129C5.03601 5.55857 5.03853 5.55857 4.96565 5.44585C4.89277 5.33313 4.89529 5.33313 4.82241 5.22041C4.74953 5.10769 4.74702 5.11025 4.67666 4.99753C4.60378 4.88481 4.60127 4.88737 4.52839 4.77465C4.45551 4.66193 4.46054 4.65936 4.38766 4.54921C4.31479 4.43648 4.32233 4.43392 4.24945 4.3212C4.17657 4.20848 4.16652 4.21617 4.09364 4.10345C4.02077 3.99073 4.03082 3.98304 3.95794 3.87032C3.88507 3.7576 3.89009 3.75504 3.81722 3.63975C3.74434 3.52703 3.74183 3.52959 3.66895 3.41687C3.6212 3.34002 3.57094 3.26573 3.5433 3.18118C3.51566 3.09664 3.5232 3.00442 3.51817 2.91475C3.51063 2.82509 3.51566 2.74055 3.53074 2.65345C3.54581 2.56634 3.56592 2.4818 3.60361 2.40239C3.6388 2.32297 3.67146 2.23843 3.72926 2.16926C3.77952 2.10521 3.84737 2.0591 3.9102 2.01299C3.97302 1.96431 4.04338 1.92588 4.11626 1.89514C4.18914 1.8644 4.26201 1.83622 4.34243 1.82085C4.42033 1.80548 4.49823 1.78498 4.57865 1.78498C4.70932 1.78498 4.70932 1.78498 4.84 1.78498C4.97067 1.78498 4.97067 1.80548 5.10135 1.80548C5.23202 1.80548 5.23202 1.79267 5.36521 1.79267C5.4984 1.79267 5.49589 1.7773 5.62908 1.7773C5.76226 1.7773 5.75975 1.79779 5.89294 1.79779C6.02613 1.79779 6.02361 1.7773 6.1568 1.7773C6.28999 1.7773 6.28748 1.78242 6.42066 1.78242C6.55385 1.78242 6.55134 1.80292 6.68453 1.80292C6.81772 1.80292 6.8152 1.79779 6.94839 1.79779C7.08158 1.79779 7.07907 1.79779 7.20974 1.79779C7.34042 1.79779 7.34042 1.78242 7.47109 1.78242C7.60176 1.78242 7.60177 1.80035 7.73244 1.80035C7.86311 1.80035 7.86311 1.78755 7.9963 1.78755C8.12949 1.78755 8.12698 1.79523 8.25765 1.79523C8.38833 1.79523 8.38833 1.79267 8.52152 1.79267C8.6547 1.79267 8.65219 1.78755 8.78538 1.78755C8.91857 1.78755 8.91605 1.78755 9.04924 1.78755C9.18243 1.78755 9.17992 1.79523 9.3131 1.79523C9.44629 1.79523 9.44378 1.8106 9.57697 1.8106C9.71016 1.8106 9.70764 1.79011 9.84083 1.79011C9.97402 1.79011 9.97151 1.78498 10.1047 1.78498C10.2379 1.78498 10.2354 1.79523 10.3686 1.79523C10.5017 1.79523 10.4992 1.78755 10.6299 1.78755C10.7606 1.78755 10.7606 1.79779 10.8938 1.79779C11.027 1.79779 11.0244 1.79779 11.1551 1.79779C11.2858 1.79779 11.2858 1.78242 11.419 1.78242C11.5522 1.78242 11.5497 1.80035 11.6828 1.80035C11.816 1.80035 11.8135 1.77986 11.9467 1.77986C12.0799 1.77986 12.0774 1.80548 12.2106 1.80548C12.3438 1.80548 12.3412 1.78242 12.4719 1.78242H12.7333C12.8639 1.78242 12.8639 1.79011 12.9946 1.79011C13.1253 1.79011 13.1253 1.79011 13.256 1.79011C13.3866 1.79011 13.3866 1.79011 13.5198 1.79011C13.653 1.79011 13.6505 1.81829 13.7837 1.81829C13.9169 1.81829 13.9144 1.80548 14.0476 1.80548C14.1807 1.80548 14.1782 1.78755 14.3114 1.78755C14.4446 1.78755 14.4421 1.81316 14.5728 1.81316C14.7034 1.81316 14.7034 1.80292 14.8341 1.80292C14.9648 1.80292 14.9648 1.82085 15.0955 1.82085C15.2261 1.82085 15.2261 1.81316 15.3568 1.81316C15.4875 1.81316 15.4875 1.80292 15.6182 1.80292C15.7488 1.80292 15.7488 1.81573 15.8795 1.81573C16.0102 1.81573 16.0102 1.79779 16.1434 1.79779C16.2766 1.79779 16.2741 1.8106 16.4072 1.8106C16.5404 1.8106 16.5379 1.79267 16.6711 1.79267C16.8043 1.79267 16.8018 1.82341 16.935 1.82341C17.0682 1.82341 17.0656 1.81316 17.1988 1.81316C17.332 1.81316 17.3295 1.80035 17.4602 1.80035C17.5909 1.80035 17.5909 1.81829 17.724 1.81829C17.8572 1.81829 17.8547 1.79011 17.9879 1.79011C18.1211 1.79011 18.1186 1.81573 18.2518 1.81573C18.385 1.81573 18.385 1.81316 18.5156 1.81316C18.6463 1.81316 18.6463 1.80548 18.7795 1.80548C18.9127 1.80548 18.9102 1.80548 19.0434 1.80548C19.1765 1.80548 19.174 1.81573 19.3072 1.81573C19.4404 1.81573 19.4379 1.81573 19.5711 1.81573C19.7043 1.81573 19.7018 1.82341 19.835 1.82341C19.9681 1.82341 19.9656 1.82597 20.0988 1.82597C20.232 1.82597 20.2295 1.80804 20.3627 1.80804C20.4959 1.80804 20.4959 1.80292 20.6265 1.80292C20.7572 1.80292 20.7572 1.81316 20.8904 1.81316C21.0236 1.81316 21.0211 1.80035 21.1543 1.80035C21.2875 1.80035 21.2849 1.82085 21.4181 1.82085C21.5513 1.82085 21.5488 1.79267 21.682 1.79267C21.8152 1.79267 21.8127 1.80292 21.9459 1.80292C22.079 1.80292 22.0765 1.79779 22.2097 1.79779C22.3429 1.79779 22.3429 1.79779 22.4736 1.79779H22.7374C22.8706 1.79779 22.8706 1.81316 23.0013 1.81316C23.132 1.81316 23.132 1.82085 23.2652 1.82085C23.3984 1.82085 23.3984 1.80035 23.529 1.80035C23.6597 1.80035 23.6622 1.82597 23.7929 1.82597C23.9236 1.82597 23.9261 1.81573 24.0593 1.81573C24.1925 1.81573 24.1925 1.81573 24.3256 1.81573C24.4186 1.81573 24.5091 1.83622 24.5996 1.85671C24.69 1.87977 24.7805 1.90539 24.8609 1.94894C24.9438 1.99249 25.0192 2.04885 25.0871 2.11546C25.1549 2.17951 25.2127 2.2538 25.258 2.33834C25.3032 2.42032 25.3283 2.50998 25.3509 2.59709C25.3736 2.68675 25.3962 2.77641 25.3962 2.86864C25.3962 2.96087 25.3836 3.05309 25.3585 3.14276C25.3334 3.23242 25.3107 3.32465 25.263 3.40406C25.2178 3.48092 25.1449 3.5424 25.0795 3.60901C24.9866 3.70124 24.9916 3.70636 24.8986 3.79859C24.8056 3.89081 24.8006 3.88569 24.7076 3.97792C24.6146 4.07014 24.6121 4.06758 24.5191 4.15981C24.4262 4.25203 24.4287 4.25459 24.3357 4.34682C24.2427 4.43905 24.2528 4.44929 24.1573 4.54152C24.0643 4.63375 24.0492 4.61838 23.9562 4.7106C23.8633 4.80283 23.8683 4.80795 23.7753 4.90018C23.6823 4.9924 23.6874 4.99753 23.5944 5.08975C23.5014 5.18198 23.4939 5.17173 23.3984 5.26652C23.3054 5.35875 23.3079 5.36131 23.2124 5.45353C23.1194 5.54576 23.1169 5.5432 23.0239 5.63542C22.9309 5.72765 22.936 5.73534 22.843 5.82756C22.75 5.91979 22.7626 5.93516 22.6696 6.02739C22.5766 6.11961 22.5741 6.11705 22.4811 6.20928C22.3881 6.3015 22.3856 6.3015 22.2926 6.39373C22.1997 6.48595 22.1871 6.47315 22.0916 6.56537C21.9986 6.6576 22.0137 6.67297 21.9207 6.76519C21.8277 6.85742 21.8127 6.84205 21.7197 6.93428C21.6267 7.0265 21.6317 7.03163 21.5388 7.12385C21.4458 7.21608 21.4558 7.22633 21.3603 7.32111C21.2674 7.41334 21.2573 7.40309 21.1643 7.49532C21.0713 7.58754 21.0663 7.58242 20.9733 7.67465C20.8804 7.76687 20.8854 7.77456 20.7924 7.86679C20.6994 7.95901 20.6969 7.95901 20.6039 8.05124C20.5109 8.14346 20.5059 8.13834 20.4104 8.23057C20.3174 8.32279 20.3124 8.31767 20.2169 8.40989C20.1239 8.50212 20.1265 8.50724 20.0335 8.60203C19.9405 8.69426 19.948 8.70451 19.8551 8.79673C19.7621 8.88896 19.747 8.87359 19.6515 8.96581C19.5585 9.05804 19.5686 9.07085 19.4756 9.16307C19.3801 9.2553 19.3726 9.24762 19.2771 9.33984C19.1816 9.43207 19.1841 9.43463 19.0886 9.52686C18.9931 9.61908 19.0107 9.63701 18.9152 9.7318C18.8197 9.82403 18.8122 9.81634 18.7192 9.91113C18.6438 9.98542 18.6187 10.093 18.6513 10.175C18.684 10.2595 18.7745 10.3159 18.88 10.3159C19.0107 10.3159 19.0107 10.3261 19.1389 10.3287C19.2695 10.3287 19.2695 10.3133 19.4002 10.3133C19.5309 10.3133 19.5309 10.3313 19.659 10.3313C19.7897 10.3313 19.7897 10.3082 19.9179 10.3108C20.0486 10.3108 20.0486 10.3313 20.1767 10.3313C20.3074 10.3313 20.3074 10.3364 20.4356 10.3364C20.5662 10.3364 20.5662 10.3133 20.6944 10.3133C20.8251 10.3133 20.8251 10.3313 20.9532 10.3313C21.0403 10.3313 21.1266 10.3313 21.2121 10.3313C21.3427 10.3313 21.3427 10.3236 21.4709 10.3261C21.6016 10.3261 21.6016 10.3133 21.7323 10.3133C21.8604 10.3133 21.8604 10.3313 21.9911 10.3313C22.1193 10.3313 22.1193 10.3364 22.2499 10.3364C22.3806 10.3364 22.3806 10.3185 22.5088 10.321C22.6394 10.321 22.6394 10.3185 22.7676 10.3185C22.8983 10.3185 22.8983 10.3364 23.0264 10.3364C23.1571 10.3364 23.1571 10.3364 23.2853 10.3364C23.4159 10.3364 23.4159 10.3185 23.5466 10.3185C23.6773 10.3185 23.6773 10.3185 23.8055 10.3185C23.9361 10.3185 23.9361 10.3133 24.0643 10.3159C24.195 10.3159 24.195 10.3466 24.3231 10.3466C24.4538 10.3466 24.4538 10.3364 24.582 10.339C24.7126 10.339 24.7126 10.3236 24.8408 10.3236C24.9715 10.3236 24.9715 10.3466 25.0996 10.3466C25.2278 10.3466 25.2303 10.3415 25.3585 10.3415C25.4892 10.3415 25.4892 10.3441 25.6173 10.3466C25.748 10.3466 25.748 10.3518 25.8762 10.3518C26.0068 10.3518 26.0068 10.3518 26.1375 10.3518C26.2682 10.3518 26.2682 10.3518 26.3989 10.3518C26.486 10.3518 26.5731 10.3518 26.6602 10.3518C26.7909 10.3518 26.7909 10.3492 26.9216 10.3492C27.0522 10.3492 27.0522 10.3415 27.1804 10.3415C27.3086 10.3415 27.3111 10.3492 27.4392 10.3518C27.5699 10.3518 27.5699 10.3415 27.7006 10.3415C27.8313 10.3415 27.8313 10.339 27.9619 10.339C28.0926 10.339 28.0926 10.3492 28.2233 10.3492C28.354 10.3492 28.354 10.3313 28.4846 10.3313C28.6153 10.3313 28.6153 10.3338 28.746 10.3338C28.8767 10.3338 28.8767 10.3595 29.0073 10.3595C29.138 10.3595 29.138 10.3287 29.2687 10.3287C29.3994 10.3287 29.3994 10.3595 29.53 10.3595C29.6607 10.3595 29.6607 10.3287 29.7914 10.3287C29.9221 10.3287 29.9221 10.339 30.0527 10.339C30.1834 10.339 30.1834 10.339 30.3141 10.339C30.4448 10.339 30.4448 10.3313 30.5729 10.3313C30.7036 10.3313 30.7036 10.3466 30.8318 10.3466C30.9624 10.3466 30.9624 10.339 31.0931 10.339C31.2238 10.339 31.2238 10.339 31.3545 10.339C31.4851 10.339 31.4851 10.3543 31.6158 10.3543C31.7465 10.3543 31.7465 10.3466 31.8772 10.3466C32.0078 10.3466 32.0078 10.339 32.1385 10.339C32.2692 10.339 32.2692 10.3415 32.3998 10.3415C32.5305 10.3415 32.5305 10.3595 32.6612 10.3595C32.7919 10.3595 32.7919 10.3646 32.9226 10.3646C33.0097 10.3646 33.0968 10.3646 33.1839 10.3646C33.3146 10.3646 33.3146 10.3492 33.4453 10.3492C33.5759 10.3492 33.5759 10.3466 33.7091 10.3466C33.7962 10.3466 33.8842 10.3466 33.973 10.3466C34.0584 10.3466 34.1464 10.3518 34.2268 10.3723C34.3097 10.3928 34.3901 10.4286 34.463 10.4696C34.5384 10.5106 34.6113 10.5593 34.6716 10.6156C34.7319 10.672 34.7872 10.7437 34.8324 10.8155C34.8777 10.8846 34.9204 10.964 34.948 11.046C34.9782 11.128 34.9882 11.2151 34.9958 11.2996C35.0033 11.3867 35.0008 11.4713 34.9882 11.5558C34.9757 11.6404 34.9505 11.7224 34.9179 11.8018C34.8852 11.8812 34.8425 11.9529 34.7897 12.0221C34.7394 12.0887 34.6816 12.1502 34.6163 12.204C34.5158 12.2885 34.5283 12.3039 34.4278 12.391C34.3273 12.4755 34.3273 12.4781 34.2268 12.5626C34.1263 12.6472 34.1137 12.6318 34.0107 12.7163C33.9102 12.8009 33.9177 12.8137 33.8172 12.8982C33.7167 12.9828 33.7217 12.9905 33.6212 13.075C33.5206 13.1595 33.5081 13.1442 33.405 13.2287C33.3045 13.3133 33.297 13.3056 33.194 13.3901C33.0934 13.4746 33.1035 13.4875 33.003 13.5746C32.9025 13.6591 32.9024 13.6617 32.8019 13.7462C32.7349 13.8026 32.6671 13.8598 32.5984 13.9178C32.4979 14.0024 32.4928 13.9998 32.3923 14.0844C32.2918 14.1689 32.3018 14.1817 32.1988 14.2663C32.0983 14.3508 32.0933 14.3482 31.9927 14.4328C31.8922 14.5173 31.8973 14.525 31.7967 14.6095C31.6962 14.6941 31.6862 14.6838 31.5856 14.7684C31.4851 14.8529 31.4851 14.8529 31.3846 14.94C31.2841 15.0246 31.2766 15.0143 31.176 15.0989C31.0755 15.1834 31.0906 15.2013 30.9901 15.2859C30.8896 15.3704 30.8745 15.3525 30.774 15.437C30.6734 15.5216 30.6835 15.5344 30.583 15.6189C30.4824 15.7034 30.4774 15.6958 30.3744 15.7803C30.2739 15.8648 30.2839 15.8802 30.1834 15.9648C30.0829 16.0493 30.0804 16.0493 29.9799 16.1338C29.8793 16.2184 29.8668 16.203 29.7662 16.2901C29.6657 16.3746 29.6682 16.3798 29.5677 16.4643C29.4672 16.5489 29.4697 16.554 29.3692 16.6385C29.2687 16.7231 29.2762 16.7359 29.1757 16.8204C29.0752 16.9049 29.0551 16.8845 28.9546 16.969C28.854 17.0535 28.8741 17.0792 28.7711 17.1637C28.6706 17.2482 28.653 17.2277 28.55 17.3123C28.483 17.3686 28.4151 17.425 28.3464 17.4814C28.2777 17.5377 28.2107 17.5941 28.1454 17.6504C28.0449 17.735 28.0524 17.7452 27.9519 17.8298C27.8514 17.9143 27.8488 17.9117 27.7458 17.9963C27.6453 18.0808 27.6503 18.0885 27.5498 18.1756C27.4493 18.2602 27.4417 18.2499 27.3387 18.337C27.2382 18.4216 27.2432 18.4292 27.1427 18.5163C27.0422 18.6009 27.0346 18.5932 26.9316 18.6777C26.8311 18.7623 26.8336 18.7674 26.7306 18.8519C26.6301 18.9365 26.6426 18.9544 26.5421 19.039C26.4416 19.1235 26.4315 19.1133 26.3285 19.1978C26.228 19.2823 26.2305 19.2875 26.13 19.372C26.0294 19.4565 26.0169 19.4437 25.9139 19.5283C25.8133 19.6128 25.8309 19.6359 25.7279 19.7204C25.6274 19.8049 25.6198 19.7973 25.5168 19.8818C25.4163 19.9663 25.4138 19.9638 25.3107 20.0509C25.2102 20.1354 25.2052 20.1329 25.1047 20.2174C25.0042 20.3019 24.9991 20.2994 24.8986 20.3839C24.7981 20.471 24.8107 20.4864 24.7076 20.5709C24.6071 20.6555 24.6046 20.6529 24.5016 20.74C24.401 20.8246 24.4061 20.8322 24.3055 20.9168C24.205 21.0013 24.2025 21.0013 24.102 21.0859C24.0015 21.173 23.999 21.1704 23.8959 21.2549C23.8289 21.3113 23.7611 21.3685 23.6924 21.4266C23.5919 21.5111 23.5868 21.506 23.4863 21.5931C23.3858 21.6776 23.3858 21.6776 23.2828 21.7647C23.1822 21.8519 23.1772 21.8467 23.0742 21.9313C22.9737 22.0158 22.9686 22.0107 22.8656 22.0952C22.7626 22.1798 22.7701 22.1875 22.6671 22.2746C22.564 22.3591 22.5766 22.3719 22.4736 22.459C22.3731 22.5435 22.368 22.541 22.2675 22.6281C22.167 22.7152 22.162 22.7075 22.0589 22.7946C21.9584 22.8792 21.9559 22.8792 21.8554 22.9663C21.7524 23.0534 21.7574 23.0585 21.6569 23.1456C21.5538 23.2327 21.5388 23.2096 21.4357 23.2967C21.3327 23.3838 21.3528 23.4069 21.2498 23.4914C21.1467 23.5785 21.1392 23.5683 21.0362 23.6554C20.9557 23.7246 20.8929 23.8091 20.8552 23.9013C20.815 23.9961 20.8075 24.0986 20.8125 24.2036C20.8175 24.3061 20.8376 24.406 20.8904 24.4982C20.9557 24.6135 20.9457 24.6212 21.0135 24.7365C21.0789 24.8518 21.1015 24.839 21.1668 24.9542C21.2322 25.0695 21.2221 25.0746 21.29 25.1899C21.3553 25.3052 21.3654 25.3001 21.4307 25.4154C21.496 25.5307 21.496 25.5307 21.5639 25.6459C21.6292 25.7612 21.6066 25.774 21.6745 25.8893C21.7398 26.0046 21.7473 25.9995 21.8127 26.1173C21.878 26.2326 21.8906 26.2249 21.9584 26.3402C22.0238 26.4555 22.0313 26.4503 22.0966 26.5682C22.162 26.6835 22.1595 26.686 22.2248 26.8013C22.2901 26.9166 22.2851 26.9192 22.353 27.0344C22.4183 27.1497 22.4283 27.1446 22.4962 27.2599C22.564 27.3752 22.5389 27.3905 22.6068 27.5058C22.6721 27.6211 22.6847 27.616 22.75 27.7313C22.8153 27.8466 22.8204 27.844 22.8882 27.9593C22.9561 28.0746 22.951 28.0771 23.0189 28.1924C23.0842 28.3077 23.0817 28.3102 23.1471 28.4255C23.1906 28.5024 23.235 28.5792 23.2802 28.6561C23.3456 28.7714 23.3506 28.7688 23.4159 28.8841C23.4838 28.9994 23.4913 28.9943 23.5567 29.1121C23.6245 29.2274 23.6044 29.2402 23.6723 29.3555C23.7401 29.4708 23.7602 29.4579 23.8281 29.5758C23.8959 29.6911 23.8683 29.7064 23.9361 29.8243C23.9839 29.9063 24.0442 29.9831 24.0869 30.0677C24.1296 30.1522 24.1623 30.2444 24.2 30.3315C24.2377 30.4186 24.2754 30.5083 24.3081 30.598C24.3407 30.6876 24.3885 30.7722 24.4161 30.8644C24.4438 30.9566 24.4563 31.0514 24.4789 31.1462C24.4965 31.2179 24.5292 31.2948 24.5518 31.3844C24.5719 31.4587 24.592 31.5407 24.6096 31.6253C24.6247 31.7047 24.6373 31.7867 24.6498 31.8712C24.6624 31.9609 24.6574 32.0505 24.6649 32.1402C24.675 32.2299 24.7076 32.317 24.7152 32.4066C24.7202 32.4963 24.6976 32.586 24.7001 32.6756C24.7026 32.7653 24.7202 32.8549 24.7177 32.9446C24.7177 33.0343 24.7001 33.1239 24.6951 33.2136C24.69 33.3033 24.7101 33.3929 24.7026 33.4826C24.6951 33.5723 24.6649 33.6594 24.6548 33.7465C24.6448 33.8361 24.6398 33.9258 24.6247 34.0129C24.6096 34.1 24.5945 34.1897 24.5769 34.2768C24.5594 34.3639 24.5217 34.4484 24.5016 34.5355C24.4815 34.6226 24.4664 34.7097 24.4412 34.7968C24.4161 34.8839 24.3935 34.9685 24.3659 35.053C24.3382 35.1375 24.3081 35.2221 24.2804 35.3066C24.2503 35.3912 24.2427 35.4834 24.21 35.5654C24.1774 35.6473 24.1171 35.7191 24.0819 35.8011C24.0467 35.883 24.014 35.965 23.9763 36.047C23.9387 36.129 23.9135 36.2135 23.8733 36.2955C23.8331 36.3749 23.7778 36.4466 23.7351 36.5261C23.6924 36.6055 23.6672 36.6926 23.622 36.7694C23.5768 36.8463 23.5165 36.9129 23.4712 36.9898C23.4235 37.064 23.3833 37.1435 23.333 37.2203C23.2853 37.2946 23.2501 37.3792 23.1998 37.4534C23.1496 37.5252 23.0943 37.5969 23.0415 37.6686C22.9887 37.7404 22.9209 37.7993 22.8656 37.8685C22.8128 37.9376 22.7525 38.0042 22.6972 38.0734C22.642 38.1426 22.5992 38.2246 22.5414 38.2912C22.4836 38.3578 22.4133 38.4141 22.353 38.4807C22.2926 38.5473 22.2424 38.6216 22.1821 38.6857C22.1218 38.7497 22.0589 38.8138 21.9986 38.8778C21.9358 38.9393 21.868 38.9982 21.8051 39.0597C21.7423 39.1212 21.6795 39.1827 21.6141 39.2442C21.5488 39.3031 21.481 39.362 21.4156 39.4209C21.3503 39.4799 21.2975 39.5541 21.2297 39.6131C21.1618 39.6694 21.094 39.7258 21.0261 39.7822C20.9583 39.8385 20.8879 39.8923 20.8175 39.9487C20.7472 40.0025 20.6743 40.0511 20.6014 40.1024C20.531 40.1562 20.4582 40.2049 20.3853 40.2561C20.3149 40.3073 20.2345 40.3458 20.1616 40.397C20.0888 40.4482 20.0209 40.502 19.9455 40.5507C19.8726 40.5994 19.8098 40.666 19.7344 40.7147C19.6616 40.7608 19.5761 40.7941 19.5007 40.8402C19.4253 40.8863 19.3575 40.9427 19.2796 40.9888C19.2042 41.0323 19.1288 41.0784 19.0509 41.122C18.973 41.1655 18.8876 41.1912 18.8097 41.2347C18.7318 41.2757 18.6589 41.3295 18.581 41.3705C18.5031 41.4115 18.4227 41.4499 18.3448 41.4883C18.2669 41.5268 18.1915 41.578 18.1136 41.6139C18.0357 41.6523 17.9502 41.6805 17.8723 41.7189C17.7919 41.7548 17.7115 41.7906 17.6311 41.8265C17.5507 41.8624 17.4652 41.888 17.3848 41.9213C17.3044 41.9546 17.2215 41.9853 17.1385 42.0186C17.0556 42.0519 16.9827 42.1006 16.8998 42.1339C16.8169 42.1647 16.7364 42.198 16.6535 42.2287C16.5706 42.2594 16.4826 42.2697 16.3972 42.2979C16.3143 42.3261 16.2339 42.3645 16.1509 42.3927C16.068 42.4208 15.9826 42.4465 15.8996 42.4746C15.8167 42.5003 15.7338 42.5336 15.6483 42.5566C15.5629 42.5822 15.4724 42.5822 15.387 42.6053C15.3015 42.6284 15.2236 42.6745 15.1382 42.6975C15.0528 42.7206 14.9623 42.7155 14.8768 42.736C14.7914 42.7564 14.7085 42.7923 14.623 42.8128C14.5376 42.8333 14.4496 42.8384 14.3617 42.8564C14.2762 42.8743 14.1883 42.8948 14.1028 42.9127C14.0174 42.9307 13.937 42.9665 13.8515 42.9793C13.7661 42.9947 13.6807 43.0075 13.5977 43.0203C13.5123 43.0331 13.4243 43.0306 13.3414 43.0434C13.256 43.0562 13.173 43.0741 13.0876 43.0869C13.0022 43.0972 12.9167 43.1177 12.8338 43.1279C12.7483 43.1382 12.6629 43.1484 12.5775 43.1587C12.492 43.1663 12.4041 43.1535 12.3186 43.1587C12.2332 43.1663 12.1477 43.1791 12.0623 43.1868C11.9769 43.192 11.8914 43.1945 11.806 43.1971C11.7205 43.2022 11.6351 43.1971 11.5471 43.1996C11.4617 43.2022 11.3763 43.2201 11.2908 43.2227C11.2054 43.2227 11.1199 43.2125 11.032 43.2125M13.9345 25.7663C13.8515 25.7663 13.7661 25.7868 13.6832 25.7868C13.6002 25.7868 13.5148 25.792 13.4319 25.7945C13.349 25.7971 13.2635 25.7766 13.1781 25.7817C13.0951 25.7868 13.0097 25.7945 12.9268 25.7996C12.8438 25.8048 12.7609 25.8278 12.6755 25.8355C12.5925 25.8432 12.5071 25.8355 12.4217 25.8432C12.3387 25.8509 12.2558 25.8739 12.1729 25.8842C12.0899 25.8944 12.007 25.9175 11.9241 25.9277C11.8412 25.938 11.7557 25.9457 11.6728 25.9559C11.5899 25.9687 11.5044 25.9636 11.4215 25.9764C11.3386 25.9892 11.2582 26.0225 11.1752 26.0353C11.0923 26.0507 11.0094 26.0686 10.9264 26.0866C10.8385 26.1045 10.748 26.0968 10.6626 26.1147C10.5771 26.1327 10.4917 26.1557 10.4063 26.1762C10.3208 26.1942 10.2379 26.23 10.1524 26.2505C10.067 26.271 9.97904 26.289 9.8936 26.3094C9.80816 26.3325 9.72021 26.3453 9.63728 26.3709C9.55184 26.394 9.46388 26.4119 9.38095 26.435C9.29551 26.4606 9.21007 26.4837 9.12714 26.5093C9.0417 26.5349 8.95877 26.5631 8.87585 26.5913C8.79292 26.6194 8.7125 26.6579 8.62957 26.686C8.54665 26.7142 8.4612 26.7424 8.37828 26.7706C8.29535 26.8013 8.20739 26.8193 8.12446 26.85C8.04154 26.8807 7.96112 26.9192 7.87819 26.9499C7.79526 26.9832 7.71987 27.0319 7.63946 27.0678C7.55653 27.1011 7.47109 27.1267 7.39067 27.1625C7.31026 27.1984 7.2223 27.2189 7.14189 27.2548C7.06147 27.2906 6.98106 27.3265 6.90064 27.3649C6.82023 27.4034 6.74484 27.452 6.66694 27.4905C6.58652 27.5289 6.50862 27.5699 6.43072 27.6109C6.35281 27.6519 6.26737 27.6826 6.18947 27.7236C6.11157 27.7646 6.04372 27.8286 5.96833 27.8722C5.89043 27.9157 5.81252 27.9593 5.73713 28.0028C5.65923 28.0489 5.58133 28.0899 5.50594 28.136C5.43055 28.1822 5.35767 28.2334 5.2848 28.2821C5.20941 28.3307 5.14156 28.3871 5.06868 28.4358C4.9958 28.4844 4.9179 28.5306 4.84754 28.5818C4.77466 28.633 4.69425 28.6715 4.62388 28.7253C4.55101 28.7765 4.48818 28.8405 4.41782 28.8918C4.34746 28.9456 4.2796 29.0019 4.20924 29.0583C4.13888 29.1147 4.066 29.1659 4.00066 29.2223C3.93281 29.2786 3.86496 29.3375 3.79963 29.3965C3.73178 29.4554 3.67146 29.5194 3.60613 29.5784C3.54079 29.6398 3.48048 29.7039 3.41765 29.7654C3.35483 29.8269 3.27693 29.8755 3.21661 29.9396C3.15379 30.0036 3.10353 30.0779 3.04322 30.142C2.98291 30.2086 2.91254 30.2624 2.85475 30.329C2.79695 30.3956 2.7492 30.475 2.69391 30.5416C2.63863 30.6108 2.58837 30.6851 2.53308 30.7542C2.4778 30.826 2.43005 30.9003 2.37979 30.972C2.32702 31.0437 2.25414 31.1026 2.2064 31.1744C2.15614 31.2487 2.11593 31.3281 2.0707 31.4049C2.02295 31.4818 1.98023 31.5612 1.93499 31.6406C1.88976 31.7201 1.83448 31.7918 1.79175 31.8712C1.74903 31.9532 1.71134 32.0352 1.67113 32.1146C1.63344 32.1966 1.61585 32.2888 1.58066 32.3708C1.54548 32.4553 1.48768 32.5296 1.45753 32.6141C1.42486 32.6987 1.42235 32.7935 1.3947 32.8806C1.36706 32.9677 1.32434 33.0496 1.29921 33.1342C1.27408 33.2213 1.25398 33.311 1.23387 33.3981C1.21377 33.4877 1.20372 33.5774 1.18864 33.667C1.17356 33.7567 1.13587 33.8413 1.12582 33.9335C1.11325 34.0231 1.10069 34.1128 1.09315 34.205C1.08561 34.2947 1.08058 34.3869 1.07807 34.4766C1.07556 34.5662 1.1032 34.6585 1.1032 34.7481C1.1032 34.8378 1.08058 34.93 1.08561 35.0223C1.09063 35.1119 1.11828 35.2016 1.12833 35.2913C1.13838 35.3809 1.13335 35.4731 1.14843 35.5628C1.16351 35.6525 1.20372 35.737 1.22131 35.8267C1.2389 35.9163 1.26152 36.0034 1.28413 36.0905C1.30675 36.1751 1.32434 36.2622 1.34947 36.3467C1.3746 36.4313 1.39722 36.5158 1.42737 36.6004C1.45753 36.6849 1.47763 36.7694 1.5103 36.8514C1.54297 36.9334 1.57564 37.0154 1.61082 37.0974C1.646 37.1768 1.70631 37.2485 1.74401 37.3254C1.78422 37.4048 1.80935 37.4919 1.84955 37.5687C1.89227 37.6456 1.93248 37.725 1.97772 37.7993C2.02295 37.8736 2.07823 37.9453 2.12598 38.017C2.17373 38.0888 2.21645 38.1682 2.26671 38.2399C2.31697 38.3117 2.38231 38.3731 2.43759 38.4423C2.49036 38.5115 2.54565 38.5807 2.60345 38.6473C2.65873 38.7139 2.71653 38.7805 2.77433 38.8471C2.83213 38.9111 2.88993 38.9777 2.95024 39.0418C3.01055 39.1058 3.08343 39.1545 3.14625 39.216C3.20908 39.2775 3.26687 39.3415 3.33221 39.4004C3.39755 39.4594 3.44781 39.5337 3.51566 39.59C3.581 39.6464 3.65387 39.6951 3.72424 39.7514C3.79209 39.8052 3.86245 39.8564 3.93281 39.9102C4.00318 39.9615 4.08108 40.0025 4.15144 40.0537C4.22181 40.1049 4.28212 40.1716 4.35499 40.2202C4.42787 40.2689 4.5108 40.2996 4.58619 40.3458C4.65907 40.3919 4.72189 40.4585 4.79728 40.502C4.87267 40.5456 4.95308 40.5814 5.02847 40.625C5.10386 40.666 5.17674 40.7147 5.25464 40.7557C5.33254 40.7966 5.41296 40.8274 5.49337 40.8658C5.57128 40.9042 5.65421 40.9324 5.73211 40.9708C5.81001 41.0067 5.88791 41.0451 5.96833 41.081C6.04874 41.1143 6.13167 41.1399 6.21209 41.1732C6.2925 41.2065 6.36287 41.2603 6.44579 41.2936C6.52621 41.3244 6.60914 41.3551 6.68955 41.3833C6.77248 41.4115 6.85792 41.4294 6.94085 41.4576C7.02378 41.4858 7.11173 41.4909 7.19466 41.5191C7.27759 41.5447 7.35549 41.5857 7.43842 41.6087C7.52135 41.6318 7.60679 41.6497 7.69223 41.6728C7.77516 41.6933 7.85809 41.7291 7.94102 41.7496C8.02395 41.7701 8.11441 41.7676 8.19985 41.7881C8.2853 41.806 8.3632 41.8496 8.44864 41.8675C8.53408 41.8829 8.61952 41.8982 8.70496 41.9136C8.7904 41.929 8.87836 41.9239 8.96631 41.9367C9.05175 41.9495 9.1372 41.9674 9.22264 41.9776C9.30808 41.9905 9.39603 41.9905 9.48147 42.0007C9.56692 42.011 9.65236 42.0263 9.74031 42.034C9.82575 42.0417 9.91119 42.0622 9.99915 42.0673C10.0846 42.075 10.1725 42.0904 10.258 42.0955C10.3434 42.1006 10.4314 42.0904 10.5193 42.0955C10.6048 42.0981 10.6927 42.1083 10.7782 42.1109C10.8661 42.1109 10.9516 42.1057 11.0395 42.1057C11.1275 42.1057 11.2129 42.1006 11.3009 42.1006C11.3888 42.1006 11.4743 42.0878 11.5622 42.0852C11.6502 42.0827 11.7356 42.0955 11.8236 42.0904C11.9115 42.0852 11.997 42.0801 12.0849 42.0724C12.1704 42.0673 12.2583 42.0673 12.3463 42.0596C12.4317 42.0519 12.5172 42.034 12.6051 42.0263C12.6905 42.0161 12.7785 42.0263 12.8665 42.0135C12.9519 42.0033 13.0373 41.9828 13.1253 41.9725C13.2107 41.9597 13.2937 41.9264 13.3791 41.9136C13.4645 41.9008 13.5525 41.8957 13.6379 41.8803C13.7234 41.8649 13.8088 41.8496 13.8943 41.8342C13.9797 41.8188 14.0702 41.8137 14.1556 41.7958C14.2411 41.7778 14.3265 41.7573 14.4119 41.7368C14.4974 41.7163 14.5828 41.6984 14.6683 41.6779C14.7537 41.6574 14.8341 41.6164 14.9171 41.5934C15.0025 41.5703 15.0904 41.5678 15.1759 41.5447C15.2613 41.5216 15.3443 41.4909 15.4272 41.4678C15.5126 41.4422 15.588 41.3935 15.6709 41.3654C15.7539 41.3372 15.8393 41.3193 15.9222 41.2911C16.0052 41.2629 16.0931 41.2501 16.1761 41.2193C16.259 41.1886 16.3419 41.1579 16.4223 41.1271C16.5053 41.0964 16.5781 41.0451 16.6611 41.0118C16.744 40.9785 16.8269 40.9555 16.9098 40.9222C16.9903 40.8889 17.0782 40.8684 17.1586 40.8325C17.239 40.7966 17.3094 40.7377 17.3898 40.7019C17.4702 40.666 17.5557 40.6404 17.6336 40.6045C17.714 40.5661 17.7844 40.5097 17.8623 40.4713C17.9402 40.4329 18.0231 40.3996 18.101 40.3586C18.1789 40.3176 18.2518 40.2689 18.3297 40.2253C18.4076 40.1818 18.483 40.1408 18.5584 40.0973C18.6337 40.0537 18.7192 40.023 18.7946 39.9769C18.87 39.9307 18.9403 39.8769 19.0132 39.8283C19.0886 39.7822 19.1615 39.7335 19.2344 39.6874C19.3072 39.6387 19.3826 39.5926 19.4555 39.5413C19.5284 39.4927 19.5937 39.4312 19.6641 39.3799C19.7369 39.3287 19.8224 39.298 19.8928 39.2467C19.9631 39.1929 20.031 39.1366 20.0988 39.0802C20.1692 39.0264 20.2395 38.9726 20.3074 38.9188C20.3752 38.8625 20.4431 38.8061 20.5109 38.7497C20.5788 38.6934 20.6466 38.6344 20.712 38.5755C20.7773 38.5166 20.8276 38.4398 20.8904 38.3783C20.9557 38.3168 21.0286 38.2681 21.0914 38.2066C21.1543 38.1451 21.2196 38.0837 21.2799 38.0222C21.3427 37.9581 21.3955 37.889 21.4558 37.8249C21.5161 37.7609 21.5865 37.7045 21.6443 37.6379C21.7021 37.5713 21.7524 37.497 21.8102 37.4304C21.868 37.3612 21.9132 37.2869 21.9685 37.2178C22.0238 37.1486 22.0866 37.0845 22.1368 37.0128C22.1896 36.9411 22.2449 36.8719 22.2952 36.8002C22.3454 36.7259 22.3957 36.6542 22.4459 36.5799C22.4962 36.5056 22.5465 36.4338 22.5917 36.357C22.6369 36.2801 22.6771 36.2007 22.7199 36.1239C22.7651 36.047 22.8003 35.965 22.8405 35.8856C22.8832 35.8062 22.9284 35.7319 22.9661 35.6525C23.0038 35.5731 23.0365 35.4885 23.0717 35.4091C23.1069 35.3271 23.137 35.2426 23.1697 35.1606C23.2023 35.0786 23.2426 34.9992 23.2702 34.9147C23.3004 34.8301 23.3154 34.743 23.3406 34.6585C23.3682 34.5739 23.4159 34.4945 23.4386 34.41C23.4612 34.3229 23.4712 34.2332 23.4913 34.1487C23.5114 34.0616 23.5265 33.9745 23.5441 33.8874C23.5592 33.8003 23.5893 33.7132 23.6019 33.6261C23.6145 33.539 23.6094 33.4467 23.6195 33.3596C23.627 33.27 23.6421 33.1829 23.6471 33.0932C23.6522 33.0035 23.6421 32.9139 23.6421 32.8268C23.6421 32.7371 23.6396 32.65 23.6346 32.5603C23.6296 32.4707 23.6396 32.381 23.6296 32.2939C23.622 32.2042 23.5944 32.1197 23.5818 32.03C23.5718 31.9532 23.5567 31.8738 23.5416 31.7969C23.524 31.7175 23.514 31.6381 23.4939 31.5663H23.4813C23.4612 31.4895 23.4361 31.4126 23.4134 31.3358C23.3883 31.2589 23.3657 31.1795 23.338 31.1052C23.3104 31.0284 23.2978 30.9464 23.2677 30.8695C23.2375 30.7952 23.1973 30.7209 23.1621 30.6492C23.1295 30.5749 23.0867 30.5057 23.0491 30.434C23.0114 30.3623 22.9661 30.2957 22.9259 30.2239C22.8581 30.1061 22.8681 30.101 22.8003 29.9857C22.7324 29.8678 22.74 29.8653 22.6721 29.7474C22.6043 29.6296 22.6093 29.627 22.5439 29.5092C22.4761 29.3913 22.4585 29.4016 22.3907 29.2863C22.3228 29.1685 22.3404 29.1582 22.2751 29.0404C22.2072 28.9225 22.2097 28.9225 22.1419 28.8047C22.074 28.6868 22.0589 28.6971 21.9911 28.5792C21.9232 28.4614 21.9258 28.4614 21.8579 28.3435C21.7901 28.2257 21.8102 28.2155 21.7423 28.0976L21.6091 27.8645C21.5413 27.7466 21.5312 27.7543 21.4659 27.6365C21.398 27.5186 21.393 27.5212 21.3251 27.4034C21.2573 27.2855 21.2598 27.2855 21.192 27.1677C21.1241 27.0498 21.1342 27.0447 21.0663 26.9269C20.9985 26.809 20.9733 26.8244 20.9055 26.7065C20.8376 26.5887 20.8477 26.5836 20.7798 26.4657C20.712 26.3479 20.7145 26.3479 20.6466 26.23C20.5788 26.1122 20.5838 26.1096 20.5185 25.9918C20.4506 25.8739 20.4506 25.8739 20.3853 25.7561C20.3174 25.6382 20.3124 25.6408 20.2446 25.523C20.1767 25.4051 20.1717 25.4077 20.1038 25.2898C20.036 25.172 20.0285 25.1746 19.9606 25.0567C19.9154 24.9773 19.8827 24.8876 19.85 24.8057C19.8174 24.7185 19.7947 24.6314 19.7772 24.5418C19.757 24.4521 19.747 24.3625 19.742 24.2702C19.7369 24.178 19.747 24.0883 19.757 23.9987C19.7671 23.9064 19.7772 23.8193 19.7998 23.7297C19.8224 23.64 19.8525 23.558 19.8877 23.4735C19.9229 23.3915 19.9455 23.2993 19.9933 23.2199C20.041 23.143 20.1064 23.079 20.1667 23.0098C20.2245 22.9432 20.2973 22.8894 20.3677 22.8305C20.4682 22.7459 20.4682 22.7459 20.5687 22.6588C20.6693 22.5743 20.6567 22.5589 20.7597 22.4744C20.8602 22.3898 20.8653 22.395 20.9658 22.3104C21.0663 22.2259 21.0613 22.2182 21.1618 22.1337C21.2623 22.0491 21.2573 22.0414 21.3578 21.9569C21.4583 21.8723 21.4583 21.8723 21.5614 21.7878C21.6619 21.7033 21.6644 21.7058 21.7649 21.6187C21.8654 21.5342 21.8654 21.5316 21.966 21.4471C22.0665 21.3625 22.064 21.36 22.167 21.2729C22.2675 21.1883 22.27 21.1909 22.3731 21.1064C22.4736 21.0218 22.4786 21.0269 22.5791 20.9424C22.6796 20.8579 22.6721 20.8476 22.7726 20.7631C22.8731 20.6785 22.8807 20.6888 22.9812 20.6042C23.0817 20.5197 23.0867 20.5248 23.1873 20.4403C23.2878 20.3557 23.2853 20.3532 23.3858 20.2686C23.4863 20.1841 23.4788 20.1738 23.5793 20.0893C23.6798 20.0048 23.6974 20.0253 23.7979 19.9407C23.8649 19.8844 23.9319 19.828 23.999 19.7716C24.0995 19.6871 24.097 19.682 24.1975 19.5974C24.298 19.5129 24.288 19.5001 24.3885 19.4155C24.489 19.331 24.4965 19.3413 24.597 19.2567C24.6976 19.1722 24.6976 19.1722 24.8006 19.0876C24.9011 19.0031 24.9011 19.0005 25.0016 18.916C25.1022 18.8314 25.0971 18.8212 25.1977 18.7367C25.2982 18.6521 25.2982 18.6496 25.3987 18.565C25.4992 18.4805 25.5118 18.4958 25.6148 18.4087C25.7153 18.3242 25.7078 18.314 25.8083 18.2294C25.9088 18.1449 25.9013 18.1321 26.0018 18.0475C26.1023 17.963 26.1149 17.9784 26.2154 17.8913C26.3159 17.8067 26.3034 17.7913 26.4039 17.7042C26.5044 17.6197 26.5094 17.6223 26.6099 17.5377C26.7105 17.4532 26.723 17.4686 26.8235 17.384C26.9241 17.2995 26.9216 17.2943 27.0221 17.2098C27.1226 17.1253 27.1226 17.1227 27.2231 17.0382C27.3236 16.9536 27.3136 16.9408 27.4166 16.8563C27.5171 16.7717 27.5297 16.7845 27.6302 16.7C27.7307 16.6155 27.7232 16.6052 27.8237 16.5181C27.9242 16.4336 27.9293 16.4387 28.0323 16.3542C28.1328 16.2696 28.1303 16.267 28.2333 16.1825C28.3339 16.098 28.3313 16.0928 28.4319 16.0083C28.5324 15.9238 28.5324 15.9238 28.6329 15.8367C28.7334 15.7521 28.7384 15.7572 28.839 15.6701C28.9395 15.583 28.9495 15.5958 29.0526 15.5113C29.1531 15.4268 29.1405 15.4114 29.2435 15.3243C29.3441 15.2398 29.3416 15.2346 29.4421 15.1501C29.5426 15.0655 29.5501 15.0707 29.6507 14.9861C29.7512 14.9016 29.7461 14.8939 29.8492 14.8094C29.9497 14.7248 29.9572 14.7325 30.0578 14.6454C30.1583 14.5609 30.1583 14.5609 30.2588 14.4738C30.3593 14.3892 30.3518 14.3764 30.4523 14.2919C30.5528 14.2073 30.5654 14.2201 30.6684 14.1356C30.7689 14.0511 30.7564 14.0357 30.8594 13.9486C30.9599 13.864 30.975 13.882 31.0755 13.7974C31.176 13.7129 31.1635 13.695 31.264 13.6079C31.331 13.5515 31.3988 13.4943 31.4675 13.4362C31.5681 13.3517 31.5731 13.3568 31.6736 13.2697C31.7741 13.1852 31.7741 13.1826 31.8746 13.0981C31.9777 13.0135 31.9752 13.011 32.0757 12.9239C32.1762 12.8393 32.1938 12.8598 32.2968 12.7753C32.3973 12.6907 32.3898 12.6805 32.4928 12.5934C32.5934 12.5088 32.5833 12.4935 32.6838 12.4089C32.7843 12.3244 32.8019 12.3423 32.905 12.2578C33.008 12.1707 33.0005 12.163 33.101 12.0759C33.204 11.9888 33.2141 12.0042 33.3171 11.917C33.4201 11.8299 33.4151 11.8248 33.5181 11.7377C33.5759 11.689 33.581 11.6096 33.5608 11.5507C33.5382 11.4892 33.488 11.4303 33.4126 11.4303C33.2819 11.4303 33.2819 11.4482 33.1512 11.4482C33.0206 11.4482 33.0206 11.4354 32.8899 11.4354C32.7592 11.4354 32.7592 11.4534 32.6285 11.4508C32.4979 11.4508 32.4979 11.4201 32.3672 11.4201C32.2365 11.4201 32.2365 11.4303 32.1058 11.4303C31.9752 11.4303 31.9752 11.4431 31.8445 11.4431C31.7138 11.4431 31.7138 11.4252 31.5831 11.4226C31.4525 11.4226 31.4525 11.4508 31.3218 11.4482C31.1911 11.4482 31.1911 11.4226 31.0604 11.4226C30.9298 11.4226 30.9298 11.4226 30.7991 11.4226C30.6684 11.4226 30.6684 11.4303 30.5377 11.4303C30.4071 11.4303 30.4071 11.4303 30.2789 11.4303C30.1482 11.4303 30.1482 11.4201 30.0201 11.4201C29.8894 11.4201 29.8894 11.4201 29.7612 11.4201C29.6305 11.4201 29.6305 11.4124 29.4999 11.4098C29.3692 11.4098 29.3692 11.4072 29.2385 11.4047C29.1078 11.4047 29.1078 11.4201 28.9772 11.4201C28.8465 11.4201 28.8465 11.4252 28.7158 11.4252C28.5851 11.4252 28.5851 11.4149 28.4545 11.4149C28.3238 11.4149 28.3238 11.4277 28.1931 11.4252C28.0624 11.4252 28.0624 11.4047 27.9318 11.4047C27.8011 11.4047 27.8011 11.4303 27.6704 11.4303C27.5397 11.4303 27.5397 11.4201 27.4091 11.4201C27.2784 11.4201 27.2784 11.4252 27.1477 11.4252C27.017 11.4252 27.017 11.4252 26.8864 11.4252C26.7993 11.4252 26.7121 11.4252 26.625 11.4252C26.4943 11.4252 26.4944 11.4098 26.3637 11.4098C26.233 11.4098 26.233 11.4021 26.1023 11.4021C25.9716 11.4021 25.9716 11.4226 25.841 11.4226C25.7103 11.4226 25.7103 11.397 25.5796 11.397C25.4489 11.397 25.4489 11.4072 25.3183 11.4047C25.1876 11.4047 25.1876 11.4047 25.0569 11.4047C24.9262 11.4047 24.9262 11.397 24.7956 11.3944C24.6649 11.3944 24.6649 11.4021 24.5342 11.4021C24.4035 11.4021 24.4035 11.4021 24.2729 11.4021C24.1858 11.4021 24.0986 11.4021 24.0115 11.4021C23.8808 11.4021 23.8808 11.3919 23.7502 11.3919C23.6195 11.3919 23.6195 11.4021 23.4888 11.4021C23.3582 11.4021 23.3582 11.4021 23.2275 11.4021C23.0968 11.4021 23.0968 11.4149 22.9661 11.4149C22.8354 11.4149 22.8354 11.3944 22.7048 11.3944C22.5741 11.3944 22.5741 11.4021 22.4434 11.4021C22.3127 11.4021 22.3127 11.3944 22.1821 11.3944C22.0514 11.3944 22.0514 11.3919 21.9207 11.3893C21.7901 11.3893 21.7901 11.3919 21.6594 11.3919C21.5287 11.3919 21.5287 11.4047 21.398 11.4047C21.2674 11.4047 21.2674 11.3816 21.1367 11.3816C21.006 11.3816 21.006 11.3893 20.8753 11.3893C20.7446 11.3893 20.7446 11.397 20.614 11.3944C20.4833 11.3944 20.4833 11.3816 20.3526 11.3816C20.222 11.3816 20.222 11.3816 20.0913 11.3816C19.9606 11.3816 19.9606 11.3791 19.8299 11.3791C19.6993 11.3791 19.6993 11.3893 19.5686 11.3867C19.4379 11.3867 19.4379 11.4047 19.3072 11.4047C19.1766 11.4047 19.1765 11.4021 19.0434 11.4021C18.9127 11.4021 18.9127 11.4021 18.7795 11.3996C18.6488 11.3996 18.6488 11.3791 18.5156 11.3791C18.3825 11.3791 18.3824 11.3996 18.2518 11.3996C18.1588 11.3996 18.0658 11.3663 17.9779 11.3458C17.8874 11.3227 17.7969 11.2945 17.7165 11.251C17.6336 11.2074 17.5481 11.1613 17.4803 11.0947C17.415 11.0307 17.3647 10.9461 17.3169 10.8616C17.2717 10.7796 17.2441 10.6899 17.2189 10.6028C17.1963 10.5132 17.1737 10.4209 17.1762 10.3287C17.1762 10.2365 17.1913 10.1417 17.2139 10.0546C17.239 9.96493 17.2818 9.88295 17.327 9.80353C17.3722 9.72668 17.4325 9.65751 17.5004 9.59346C17.5959 9.49868 17.5909 9.49355 17.6864 9.40133C17.7818 9.30654 17.7743 9.29885 17.8673 9.20406C17.9628 9.10928 17.9779 9.12721 18.0734 9.03242C18.1688 8.93763 18.1588 8.92739 18.2518 8.8326C18.3473 8.73781 18.3573 8.74806 18.4528 8.65327C18.5483 8.55848 18.5483 8.55848 18.6438 8.46369C18.7393 8.36891 18.7217 8.35353 18.8172 8.25875C18.9127 8.16396 18.9202 8.17164 19.0157 8.07942C19.1112 7.98463 19.1213 7.99488 19.2168 7.90265C19.3123 7.80786 19.2997 7.79762 19.3952 7.70283C19.4907 7.60804 19.4982 7.61573 19.5937 7.52094C19.6892 7.42615 19.6791 7.4159 19.7746 7.32111C19.8701 7.22633 19.8802 7.23913 19.9757 7.14435C20.0712 7.04956 20.0561 7.03419 20.1516 6.9394C20.2471 6.84461 20.2596 6.85998 20.3551 6.76519C20.4506 6.67041 20.4531 6.67297 20.5486 6.58074C20.6441 6.48595 20.6265 6.47058 20.722 6.3758C20.8175 6.28101 20.8276 6.29382 20.9231 6.19903C20.9867 6.13584 21.0504 6.0735 21.1141 6.01201C21.2096 5.91723 21.2045 5.9121 21.3 5.81732C21.3955 5.72253 21.388 5.71484 21.4835 5.62005C21.579 5.52527 21.5915 5.53807 21.6845 5.44329C21.78 5.3485 21.7825 5.35362 21.878 5.25883C21.9735 5.16405 21.9609 5.15124 22.0564 5.05645C22.1519 4.96166 22.1494 4.9591 22.2449 4.86431C22.3404 4.76952 22.353 4.78233 22.4485 4.68754C22.5121 4.62435 22.5758 4.56116 22.6394 4.49797C22.7349 4.40318 22.7224 4.39037 22.8179 4.29558C22.9134 4.2008 22.9134 4.2008 23.0088 4.10601C23.1043 4.01122 23.1018 4.00866 23.1973 3.91387C23.2928 3.81908 23.3154 3.84214 23.4109 3.74735C23.5064 3.65256 23.5014 3.64488 23.5969 3.55009C23.6924 3.4553 23.6823 3.44249 23.7778 3.3477C23.8733 3.25292 23.8884 3.26829 23.9864 3.1735C24.0894 3.07103 24.0115 2.87633 23.8658 2.87633C23.7351 2.87633 23.7351 2.87376 23.6019 2.87376C23.4687 2.87376 23.4712 2.86864 23.338 2.86864C23.2049 2.86864 23.2074 2.86864 23.0742 2.86864C22.941 2.86864 22.9435 2.86864 22.8103 2.86864C22.6771 2.86864 22.6796 2.86864 22.5465 2.86864C22.4133 2.86864 22.4158 2.8712 22.2826 2.8712C22.1494 2.8712 22.1519 2.87889 22.0212 2.87889C21.8906 2.87889 21.8906 2.8712 21.7574 2.8712C21.6242 2.8712 21.6267 2.88145 21.496 2.88145C21.3654 2.88145 21.3654 2.88657 21.2322 2.88657C21.099 2.88657 21.1015 2.87633 20.9708 2.87633C20.8401 2.87633 20.8401 2.89426 20.707 2.89426C20.5738 2.89426 20.5763 2.89426 20.4431 2.89426C20.3099 2.89426 20.3124 2.86864 20.1792 2.86864C20.046 2.86864 20.0486 2.89938 19.9154 2.89938C19.7822 2.89938 19.7847 2.86864 19.6515 2.86864C19.5183 2.86864 19.5208 2.89938 19.3876 2.89938C19.2545 2.89938 19.257 2.88914 19.1238 2.88914C18.9906 2.88914 18.9931 2.88914 18.8599 2.88914C18.7267 2.88914 18.7292 2.89938 18.5961 2.89938C18.4629 2.89938 18.4654 2.88657 18.3322 2.88657C18.199 2.88657 18.2015 2.89426 18.0683 2.89426C17.9351 2.89426 17.9377 2.89426 17.8045 2.89426C17.6713 2.89426 17.6738 2.87889 17.5406 2.87889C17.4074 2.87889 17.4099 2.88657 17.2767 2.88657C17.1436 2.88657 17.1461 2.89426 17.0129 2.89426C16.8797 2.89426 16.8822 2.89426 16.7515 2.89426C16.6209 2.89426 16.6209 2.87633 16.4902 2.87633C16.3595 2.87633 16.3595 2.8712 16.2288 2.8712C16.0982 2.8712 16.0982 2.8712 15.9675 2.8712C15.8368 2.8712 15.8368 2.88657 15.7036 2.88657C15.5704 2.88657 15.5729 2.88914 15.4397 2.88914C15.3066 2.88914 15.3091 2.88914 15.1759 2.88914C15.0427 2.88914 15.0452 2.89682 14.912 2.89682C14.7788 2.89682 14.7813 2.89426 14.6507 2.89426C14.52 2.89426 14.52 2.89682 14.3868 2.89682C14.2536 2.89682 14.2561 2.8917 14.1255 2.8917C13.9948 2.8917 13.9948 2.89426 13.8641 2.89426C13.7334 2.89426 13.7334 2.88657 13.6028 2.88657C13.4721 2.88657 13.4721 2.88657 13.3414 2.88657C13.2107 2.88657 13.2107 2.88401 13.0775 2.88401C12.9444 2.88401 12.9469 2.88145 12.8137 2.88145C12.6805 2.88145 12.683 2.88145 12.5498 2.88145C12.4166 2.88145 12.4191 2.90194 12.286 2.90194C12.1528 2.90194 12.1553 2.90194 12.0221 2.90194C11.8889 2.90194 11.8914 2.88145 11.7582 2.88145C11.625 2.88145 11.6276 2.89682 11.4944 2.89682C11.3612 2.89682 11.3637 2.90451 11.2305 2.90451C11.0973 2.90451 11.0998 2.88401 10.9666 2.88401C10.8335 2.88401 10.8335 2.8712 10.7028 2.8712C10.5721 2.8712 10.5721 2.88914 10.4389 2.88914C10.3057 2.88914 10.3082 2.88914 10.1751 2.88914C10.0419 2.88914 10.0444 2.88914 9.91119 2.88914C9.77801 2.88914 9.78052 2.88401 9.64733 2.88401C9.51414 2.88401 9.51666 2.89938 9.38347 2.89938C9.25028 2.89938 9.25279 2.89426 9.11961 2.89426C8.98642 2.89426 8.98893 2.90194 8.85574 2.90194C8.72255 2.90194 8.72507 2.88657 8.59188 2.88657C8.45869 2.88657 8.4612 2.88657 8.32802 2.88657C8.19483 2.88657 8.19734 2.87376 8.06415 2.87376C7.93097 2.87376 7.93348 2.89682 7.80029 2.89682C7.6671 2.89682 7.6671 2.87376 7.53643 2.87376C7.40575 2.87376 7.40575 2.88914 7.27256 2.88914C7.13938 2.88914 7.14189 2.87889 7.0087 2.87889C6.87551 2.87889 6.87551 2.89682 6.74484 2.89682C6.61416 2.89682 6.61165 2.89682 6.48098 2.89682C6.3503 2.89682 6.34779 2.87889 6.21711 2.87889C6.08644 2.87889 6.08644 2.88401 5.95325 2.88401C5.82006 2.88401 5.82006 2.88914 5.68939 2.88914C5.55871 2.88914 5.5562 2.90194 5.42301 2.90194C5.28982 2.90194 5.28982 2.87376 5.15664 2.87376C5.02345 2.87376 5.02345 2.90707 4.89026 2.90707C4.75707 2.90707 4.67414 3.04285 4.74451 3.153C4.79309 3.22815 4.84084 3.30244 4.88775 3.37588C4.93633 3.45103 4.98492 3.52532 5.0335 3.59876C5.10638 3.71148 5.11643 3.7038 5.1893 3.81396C5.26218 3.92668 5.25715 3.92924 5.33003 4.0394C5.40291 4.15212 5.41045 4.147 5.48332 4.25716C5.5562 4.36988 5.54615 4.375 5.61902 4.48772C5.6919 4.60044 5.69944 4.59532 5.77232 4.70548C5.84519 4.8182 5.83514 4.82332 5.90802 4.93604C5.98089 5.04876 5.98341 5.0462 6.05628 5.15892C6.12916 5.27164 6.14675 5.25883 6.21963 5.37156C6.2925 5.48428 6.27994 5.49196 6.35281 5.60468C6.42569 5.7174 6.43072 5.71228 6.50359 5.825C6.57647 5.93772 6.56139 5.94797 6.63175 6.05813C6.70463 6.17085 6.72725 6.15548 6.80012 6.26564C6.873 6.37836 6.86295 6.38348 6.93583 6.4962C7.0087 6.60892 7.00619 6.60892 7.07655 6.72164C7.14943 6.83436 7.1444 6.83693 7.21728 6.94965C7.29015 7.06237 7.28513 7.06493 7.35801 7.17509C7.43088 7.28781 7.44596 7.275 7.51884 7.38772C7.59171 7.50044 7.5892 7.50044 7.65956 7.61316C7.73244 7.72588 7.73747 7.72076 7.81034 7.83348C7.88322 7.9462 7.88071 7.9462 7.95358 8.05892C8.02646 8.17164 8.02395 8.17164 8.09682 8.28436C8.14541 8.35951 8.19399 8.4338 8.24257 8.50724C8.31545 8.61997 8.31042 8.62253 8.38079 8.73525C8.45366 8.84797 8.45366 8.84797 8.52654 8.95813C8.59942 9.06829 8.59439 9.07341 8.66727 9.18613C8.74015 9.29885 8.73261 9.30141 8.80548 9.41413C8.87836 9.52685 8.8859 9.52173 8.95877 9.63189C9.03165 9.74461 9.04422 9.73436 9.11709 9.84708C9.18997 9.95981 9.18746 9.96237 9.25782 10.0725C9.3307 10.1852 9.32567 10.1878 9.39603 10.3005C9.46891 10.4133 9.4664 10.4133 9.53927 10.526C9.61215 10.6387 9.61718 10.6336 9.69005 10.7463C9.76293 10.859 9.74031 10.8744 9.81319 10.9845C9.88606 11.0973 9.90868 11.0793 9.98156 11.192C10.0544 11.3048 10.0444 11.3099 10.1173 11.4226C10.1901 11.5353 10.1901 11.5353 10.263 11.6455C10.3359 11.7557 10.3434 11.7531 10.4163 11.8633C10.4892 11.9734 10.4816 11.9811 10.552 12.0938C10.6249 12.2065 10.6148 12.2117 10.6877 12.3244C10.7606 12.4371 10.7807 12.4217 10.8536 12.5345C10.9264 12.6472 10.9164 12.6523 10.9893 12.765C11.0621 12.8777 11.0697 12.8701 11.1426 12.9828C11.2154 13.0955 11.2129 13.0955 11.2858 13.2057C11.3587 13.3184 11.3361 13.3312 11.4089 13.4439C11.4818 13.5541 11.4868 13.5515 11.5597 13.6617C11.6326 13.7718 11.6451 13.7641 11.7155 13.8769C11.7884 13.987 11.7934 13.9845 11.8663 14.0946C11.9392 14.2048 11.9341 14.2099 12.007 14.3201C12.0799 14.4328 12.0749 14.4353 12.1452 14.5481C12.2181 14.6608 12.2282 14.6531 12.2985 14.7658C12.3714 14.8785 12.3488 14.8913 12.4217 15.0041C12.4945 15.1168 12.5046 15.1091 12.5775 15.2218C12.6503 15.3345 12.6554 15.332 12.7282 15.4421C12.8011 15.5549 12.7986 15.5574 12.8715 15.6701C12.9444 15.7829 12.9393 15.7854 13.0122 15.8981C13.0851 16.0109 13.0851 16.0109 13.158 16.1236C13.2308 16.2363 13.2334 16.2337 13.3062 16.3465C13.3791 16.4592 13.3866 16.4541 13.457 16.5668C13.5299 16.6795 13.5123 16.6898 13.5852 16.8025C13.658 16.9152 13.6782 16.8998 13.751 17.0125C13.8239 17.1253 13.7988 17.1406 13.8717 17.2534C13.9445 17.3661 13.9571 17.3558 14.03 17.4686C14.1028 17.5813 14.0953 17.5864 14.1682 17.6966C14.2411 17.8093 14.2411 17.8093 14.3139 17.922C14.3868 18.0347 14.4019 18.0245 14.4748 18.1372C14.5476 18.2499 14.5351 18.2576 14.608 18.3703C14.6808 18.483 14.6884 18.4779 14.7612 18.5881C14.8341 18.7008 14.8366 18.6982 14.907 18.811C14.9799 18.9237 14.9774 18.9262 15.0502 19.0364C15.1231 19.1491 15.108 19.1594 15.1809 19.2721C15.2538 19.3848 15.2764 19.3694 15.3493 19.4822C15.4222 19.5949 15.3995 19.6102 15.4724 19.723C15.5453 19.8357 15.5579 19.8254 15.6307 19.9382C15.7036 20.0509 15.691 20.0586 15.7639 20.1713C15.8368 20.284 15.8569 20.2686 15.9298 20.3814C16.0027 20.4941 15.9851 20.5043 16.0579 20.617C16.1308 20.7298 16.1384 20.7246 16.2112 20.8374C16.2598 20.9125 16.3084 20.9877 16.357 21.0628C16.4299 21.1755 16.4148 21.1858 16.4877 21.2985C16.5605 21.4112 16.5656 21.4061 16.6384 21.5188C16.7113 21.6315 16.7113 21.6315 16.7842 21.7417C16.8571 21.8544 16.8546 21.8544 16.9274 21.9671C17.0003 22.0799 17.0204 22.067 17.0933 22.1798C17.1662 22.2925 17.141 22.3079 17.2139 22.4206C17.2868 22.5333 17.2893 22.5307 17.3622 22.6435C17.4351 22.7562 17.4476 22.7485 17.5205 22.8612C17.5934 22.9739 17.5808 22.9816 17.6537 23.0969C17.7266 23.2096 17.7416 23.1994 17.8145 23.3121C17.8874 23.4248 17.8723 23.4351 17.9452 23.5478C18.0181 23.6605 18.0231 23.6554 18.096 23.7681C18.1688 23.8808 18.1864 23.8706 18.2593 23.9833C18.3322 24.096 18.3272 24.0986 18.4026 24.2139C18.4754 24.3266 18.4604 24.3368 18.5332 24.4521C18.6061 24.5648 18.6036 24.5674 18.6765 24.6827C18.7242 24.7544 18.777 24.821 18.8046 24.9004C18.8323 24.9824 18.8348 25.067 18.8423 25.1515C18.8499 25.236 18.8624 25.3206 18.8499 25.4051C18.8373 25.4897 18.8147 25.5716 18.782 25.6511C18.7519 25.7279 18.7016 25.7971 18.6513 25.8688C18.5986 25.9405 18.5408 26.0046 18.4754 26.0558C18.4076 26.1096 18.3322 26.1506 18.2543 26.1865C18.1764 26.2223 18.0985 26.2685 18.013 26.2838C17.9301 26.2992 17.8396 26.3043 17.7542 26.2992C17.6688 26.2941 17.5808 26.2813 17.4979 26.2582C17.415 26.2352 17.3345 26.2044 17.2491 26.1839C17.1662 26.1634 17.0832 26.1378 16.9978 26.1199C16.9149 26.1019 16.8319 26.0686 16.7465 26.0507C16.6636 26.0328 16.5756 26.0225 16.4902 26.0072C16.4047 25.9918 16.3168 25.9995 16.2313 25.9841C16.1459 25.9713 16.063 25.9405 15.9775 25.9277C15.8921 25.9149 15.8041 25.9175 15.7187 25.9072C15.6332 25.897 15.5478 25.8867 15.4624 25.8791C15.3769 25.8688 15.294 25.8432 15.206 25.8355C15.1206 25.8278 15.0326 25.8355 14.9472 25.8278C14.8618 25.8227 14.7738 25.815 14.6884 25.8099C14.6029 25.8048 14.515 25.815 14.4295 25.8099C14.3441 25.8073 14.2586 25.7971 14.1707 25.7945C14.0853 25.7945 13.9973 25.774 13.9119 25.774" fill="white"/>
</svg>
