<svg width="661" height="64" viewBox="0 0 661 64" fill="none" xmlns="http://www.w3.org/2000/svg">
<g clip-path="url(#clip0_4110_2642)">
<path d="M53.8054 43.1998H54.7404L53.4715 60.8736C50.2213 61.7684 47.038 62.462 43.9214 62.9765C40.8049 63.4911 37.6438 63.7819 34.505 63.8714C34.3714 63.8938 34.2378 63.9161 34.1043 63.9161H33.2806C28.4499 63.9161 24.02 63.1779 19.9462 61.7237C15.8724 60.2472 12.3551 58.189 9.41667 55.5491C6.4782 52.8868 4.16305 49.71 2.51572 46.0187C0.846137 42.3273 0.0224745 38.2557 0.0224745 33.8037C0.0224745 29.3517 0.801614 25.0786 2.33763 21.2307C3.89591 17.3827 6.09976 14.0493 8.94919 11.2529C11.8209 8.45638 15.2714 6.24157 19.3229 4.67554C23.3744 3.08714 27.9157 2.30413 32.9467 2.30413H33.5032C36.8201 2.3265 40.137 2.61733 43.4094 3.13189C46.6818 3.64644 50.0433 4.38471 53.4937 5.27958L54.7626 22.9981H53.8276C53.4715 21.8124 52.8704 20.3358 52.069 18.5908C51.2676 16.8458 50.2213 15.1008 48.9302 13.3334C47.639 11.5661 46.103 9.95529 44.2999 8.47875C42.4967 7.00221 40.4042 5.90599 38.0445 5.21247L37.8664 5.12298C37.0873 4.98875 36.3527 4.87689 35.6626 4.80977C34.9947 4.74266 34.3714 4.69791 33.8371 4.69791C31.1213 4.69791 28.7839 5.39144 26.7804 6.75612C24.7769 8.1208 23.1073 10.0672 21.7716 12.5728C20.4359 15.0784 19.4342 18.0986 18.7886 21.6558C18.143 25.1905 17.8091 29.1503 17.8091 33.4905C17.8091 37.8306 18.1876 41.8128 18.8999 45.2804C19.6345 48.748 20.7031 51.6788 22.0833 54.0725C23.4635 56.4663 25.1776 58.3232 27.1811 59.576C29.1846 60.8288 31.4552 61.4552 33.993 61.4552C34.4605 61.4552 35.0392 61.4329 35.6626 61.3658C36.3081 61.321 36.976 61.2092 37.7106 61.0749L38 60.9183C39.5805 60.4485 41.0275 59.7997 42.3632 58.972C43.6766 58.1442 44.9009 57.2046 45.9695 56.1531C47.0603 55.1016 48.0175 53.983 48.8857 52.7973C49.7539 51.6116 50.4885 50.4259 51.134 49.2626C51.7574 48.0993 52.2916 47.003 52.7369 45.9516C53.1821 44.9001 53.516 43.9828 53.7609 43.2222L53.8054 43.1998Z" fill="black"/>
<path d="M98.2377 62.1708V62.7748H79.4939V56.6449C78.8483 57.3608 78.2027 58.032 77.5349 58.6136C76.4218 59.6204 75.2865 60.4258 74.1289 61.0522C71.9919 62.1931 69.7435 62.7748 67.3838 62.7748C64.245 62.7748 61.6849 61.8352 59.7482 59.956C57.7892 58.0767 56.8098 55.6606 56.8098 52.7299C56.8098 49.2399 58.3013 46.2197 61.262 43.6245C64.245 41.0518 70.3223 37.8973 79.4939 34.1389V31.2529C79.4939 28.2327 79.1154 26.0626 78.4031 24.7651C77.6907 23.4451 76.4886 22.7963 74.8413 22.7963C73.4833 22.7963 72.3703 23.2214 71.4576 24.0715C70.5671 24.9217 70.1219 25.9732 70.1219 27.2483C70.1219 27.9195 70.1442 28.7025 70.1887 29.5974C70.2332 30.5146 70.2777 31.0739 70.2777 31.32C70.2777 33.2887 69.7657 34.8771 68.7195 36.0852C67.6955 37.2933 66.3153 37.8973 64.6012 37.8973C63.0429 37.8973 61.7963 37.3828 60.8613 36.3313C59.9041 35.3022 59.4366 33.9375 59.4366 32.2149C59.4366 28.5683 61.0839 25.5033 64.3785 23.0872C67.6732 20.671 71.9028 19.4629 77.0897 19.4629C79.9836 19.4629 82.6327 19.8433 84.9701 20.6263C87.3298 21.4093 89.2665 22.5503 90.758 24.0268C91.9824 25.2349 92.8505 26.6667 93.3625 28.2774C93.8745 29.8882 94.1194 32.3267 94.1194 35.6154V36.6669V49.732C94.1194 53.3563 95.0767 56.9134 96.8798 59.9112L98.2155 62.126L98.2377 62.1708ZM78.737 53.401C79.2267 52.26 79.4939 49.4188 79.4939 44.8773V37.1367C77.201 38.1211 75.4423 39.6423 74.2625 41.7229C73.0604 43.8259 72.4593 46.3763 72.4593 49.3965C72.4593 51.1191 72.7933 52.5061 73.4388 53.5129C74.0844 54.542 74.9303 55.0565 75.9989 55.0565C77.3345 55.0565 78.2695 54.4972 78.7592 53.3786L78.737 53.401Z" fill="black"/>
<path d="M130.405 56.5784C129.649 57.5404 128.714 58.48 127.667 59.3525C126.599 60.2474 125.397 61.008 124.083 61.6792C122.748 62.3503 121.301 62.8649 119.698 63.2676C118.095 63.6479 116.425 63.8492 114.644 63.8492C112.864 63.8492 111.038 63.6031 109.369 63.111C107.721 62.6188 106.274 61.8581 105.005 60.8738C103.759 59.8894 102.779 58.6142 102.045 57.0929C101.31 55.5717 100.954 53.7819 100.954 51.7461V22.26H95.678V21.2533L97.1918 21.2085C97.1918 21.2085 97.2363 21.2085 97.2808 21.2085C101.288 20.9624 111.639 19.4188 115.29 10.2016C115.468 9.7989 115.624 9.37384 115.735 8.94877H116.581L116.537 20.6269H129.092V22.2824H116.537V51.4776C116.537 53.6924 117.026 55.3479 118.006 56.4218C118.963 57.4956 120.343 58.0549 122.124 58.0549C123.772 58.0549 125.241 57.876 126.554 57.518C127.868 57.1601 129.003 56.6455 129.893 56.0191L130.361 56.6455L130.405 56.5784Z" fill="black"/>
<path d="M164.777 51.1649C164.777 51.1649 160.191 62.2837 148.994 63.7155C148.972 63.7155 148.949 63.7155 148.927 63.7155C148.571 63.7379 148.237 63.7826 147.881 63.7826C147.814 63.7826 147.747 63.7826 147.658 63.7826H147.591C146.745 63.8274 145.877 63.8497 144.987 63.7826C139.377 63.4918 134.747 61.4783 131.118 57.787C127.156 53.76 125.174 48.4803 125.174 41.9701C125.174 38.6143 125.842 35.4375 127.156 32.4173C128.491 29.3971 130.361 26.802 132.81 24.6319C134.858 22.8198 137.151 21.4327 139.644 20.4931C142.16 19.5535 144.764 19.0613 147.48 19.0613C152.199 19.0613 156.117 20.2694 159.212 22.6408C162.306 25.0122 163.864 27.9877 163.864 31.5672C163.864 33.5807 163.196 35.2362 161.883 36.5785C160.57 37.9208 158.922 38.5919 156.963 38.5919C155.205 38.5919 153.758 37.9655 152.578 36.7127C151.398 35.4375 150.819 33.9162 150.819 32.0594C150.819 27.9877 150.441 25.3254 149.706 24.095C148.972 22.8422 147.68 22.2381 145.855 22.2381C143.74 22.2381 142.16 23.1554 141.069 24.9675C139.978 26.802 139.444 29.4866 139.444 33.0214C139.444 39.4197 141.069 44.61 144.319 48.6593C147.569 52.6862 151.687 54.6997 156.696 54.6997C157.809 54.6997 158.878 54.5654 159.879 54.2522C160.28 54.1404 160.681 53.9838 161.059 53.8272C162.373 53.2455 163.642 52.3282 164.821 51.0978L164.777 51.1649Z" fill="black"/>
<path d="M214.53 62.1937V62.8648H190.421V62.1937C193.07 58.0773 194.473 53.2673 194.473 48.3679V31.9693C194.473 30.0677 193.961 28.5241 192.981 27.3831C191.979 26.2422 190.466 25.6605 188.44 25.6605C187.082 25.6605 185.835 25.9066 184.655 26.3764C183.476 26.8462 182.474 27.5173 181.628 28.4122V48.2337C181.628 53.1778 183.03 58.0325 185.679 62.2161V62.8872H161.593V62.2161C164.465 58.0996 166.001 53.2226 166.001 48.2113V15.3471C166.001 11.4544 164.687 7.69591 162.283 4.65334V4.07167L181.138 0L181.65 0.447437V26.2198C182.541 25.3025 183.542 24.4524 184.655 23.6247C185.746 22.7969 186.926 22.1034 188.195 21.477C189.464 20.8729 190.822 20.3807 192.269 20.0228C193.716 19.6648 195.252 19.4859 196.855 19.4859C198.702 19.4859 200.439 19.7767 202.064 20.3584C203.666 20.94 205.069 21.7454 206.249 22.7969C207.429 23.8484 208.364 25.1012 209.054 26.5777C209.744 28.0543 210.078 29.665 210.078 31.4324V47.4059C210.078 54.5873 212.86 59.6433 214.018 61.433L214.53 62.1489V62.1937Z" fill="black"/>
<path d="M277.974 56.5784C277.217 57.5404 276.282 58.48 275.236 59.3525C274.167 60.2474 272.965 61.008 271.652 61.6792C270.316 62.3503 268.869 62.8649 267.267 63.2676C265.664 63.6479 263.994 63.8492 262.213 63.8492C260.432 63.8492 258.607 63.6031 256.937 63.111C255.29 62.6188 253.843 61.8581 252.574 60.8738C251.328 59.8894 250.348 58.6142 249.613 57.0929C248.879 55.5717 248.523 53.7819 248.523 51.7461V22.26H243.247V21.2533L244.761 21.2085C244.761 21.2085 244.805 21.2085 244.85 21.2085C248.857 20.9624 259.208 19.4188 262.859 10.2016C263.037 9.7989 263.193 9.37384 263.304 8.94877H264.15L264.105 20.6269H276.661V22.2824H264.105V51.4776C264.105 53.6924 264.595 55.3479 265.575 56.4218C266.532 57.4956 267.912 58.0549 269.693 58.0549C271.34 58.0549 272.81 57.876 274.123 57.518C275.436 57.1601 276.572 56.6455 277.462 56.0191L277.93 56.6455L277.974 56.5784Z" fill="black"/>
<path d="M328.218 62.1937V62.8648H304.109V62.1937C306.758 58.0773 308.16 53.2673 308.16 48.3679V31.9693C308.16 30.0677 307.671 28.5241 306.669 27.3831C305.667 26.2422 304.153 25.6605 302.128 25.6605C300.77 25.6605 299.523 25.9066 298.343 26.3764C297.164 26.8462 296.162 27.5173 295.316 28.4122V48.2337C295.316 53.1778 296.718 58.0325 299.367 62.2161V62.8872H275.281V62.2161C278.152 58.0996 279.688 53.2226 279.688 48.2113V15.3471C279.688 11.4544 278.375 7.69591 275.971 4.65334V4.07167L294.826 0L295.338 0.447437V26.2198C296.251 25.3025 297.23 24.4524 298.343 23.6247C299.434 22.7969 300.614 22.1034 301.905 21.477C303.174 20.8729 304.532 20.3807 305.979 20.0228C307.426 19.6648 308.962 19.4859 310.565 19.4859C312.412 19.4859 314.149 19.7767 315.774 20.3584C317.377 20.94 318.779 21.7454 319.959 22.7969C321.139 23.8484 322.074 25.1012 322.764 26.5777C323.454 28.0543 323.788 29.665 323.788 31.4324V47.4059C323.788 54.5873 326.57 59.6433 327.728 61.433L328.24 62.1489L328.218 62.1937Z" fill="black"/>
<path d="M366.062 52.3945L366.73 52.9761C365.662 54.654 364.482 56.1753 363.191 57.5176C361.9 58.8599 360.43 60.0009 358.783 60.9405C357.158 61.8801 355.333 62.596 353.351 63.1106C351.37 63.6028 349.144 63.8489 346.695 63.8489C343.423 63.8489 340.484 63.3119 337.835 62.2605C335.208 61.1866 332.96 59.7101 331.09 57.7861C329.22 55.8621 327.796 53.6026 326.794 50.9851C325.792 48.3452 325.302 45.4816 325.302 42.3495C325.302 38.9938 325.859 35.9288 326.95 33.11C328.04 30.2911 329.599 27.8973 331.602 25.8839C333.606 23.8704 336.01 22.3044 338.815 21.1858C341.62 20.0672 344.714 19.5079 348.098 19.5079C351.236 19.5079 354.019 20.0224 356.468 21.0516C358.917 22.0807 360.987 23.4677 362.679 25.2351C364.371 27.0025 365.662 29.083 366.552 31.4545C367.443 33.8259 367.888 36.3762 367.888 39.0832H341.219C341.197 39.2175 341.174 39.4412 341.174 39.7097C341.286 42.3495 341.686 44.6538 342.377 46.6449C343.067 48.636 344.002 50.3139 345.181 51.701C346.361 53.088 347.786 54.0947 349.456 54.7883C351.125 55.4818 352.973 55.8174 355.043 55.8174C356.312 55.8174 357.492 55.7055 358.583 55.5042C359.673 55.3028 360.697 55.0344 361.632 54.6988C362.567 54.3632 363.391 53.9829 364.126 53.5802C364.86 53.1775 365.506 52.7748 366.062 52.3721V52.3945ZM341.197 37.7409L347.964 37.2488C350.613 37.0474 352.639 34.7655 352.483 32.1032C352.439 31.2531 352.372 30.4701 352.305 29.7542C352.105 27.8078 351.793 26.2194 351.37 25.0114C350.947 23.8033 350.391 22.9084 349.723 22.3491C349.055 21.7898 348.231 21.5214 347.274 21.5214C346.228 21.5214 345.337 21.9017 344.58 22.64C343.824 23.3782 343.2 24.4521 342.71 25.8615C342.221 27.2485 341.865 28.9712 341.62 30.9623C341.375 32.9534 341.219 35.2353 341.197 37.7409Z" fill="black"/>
<path d="M455.819 57.4516C454.728 58.0556 453.392 58.7491 451.834 59.4874C450.276 60.2257 448.45 60.9416 446.402 61.6127C444.354 62.2839 442.039 62.8208 439.501 63.2682C436.941 63.7157 434.136 63.9394 431.064 63.9394C426.1 63.9394 421.626 63.2011 417.596 61.7246C413.589 60.248 410.161 58.1675 407.312 55.5052C404.462 52.843 402.281 49.6214 400.745 45.8853C399.186 42.1492 398.43 38.0328 398.43 33.5137C398.43 28.9946 399.186 24.9229 400.745 21.0973C402.281 17.2718 404.485 13.9831 407.334 11.1866C410.183 8.41251 413.656 6.22007 417.752 4.65404C421.848 3.08802 426.434 2.28263 431.532 2.28263H432.177C435.494 2.32737 438.789 2.61821 442.017 3.13276C445.245 3.64731 448.562 4.36321 451.968 5.28046L453.236 22.9989H452.301C451.945 21.8132 451.344 20.3367 450.543 18.5917C449.741 16.8467 448.695 15.1017 447.404 13.3343C446.113 11.5669 444.577 9.95617 442.774 8.47963C440.971 7.00309 438.878 5.90687 436.518 5.21334L436.318 5.07911C435.517 4.94488 434.804 4.83302 434.136 4.7659C433.469 4.69879 432.868 4.65404 432.333 4.65404C429.551 4.65404 427.124 5.36994 425.098 6.77937C423.073 8.18879 421.403 10.1575 420.09 12.6855C418.776 15.2135 417.819 18.2561 417.196 21.7685C416.572 25.3032 416.261 29.1736 416.261 33.4018C416.261 37.9657 416.639 41.9926 417.374 45.505C418.131 48.995 419.177 51.9257 420.557 54.2748C421.937 56.6238 423.607 58.4135 425.588 59.6216C427.569 60.8297 429.751 61.4561 432.177 61.4561C434.648 61.3666 436.607 60.8297 438.054 59.8453C439.501 58.861 440.214 57.5187 440.214 55.8632V54.5209C440.214 47.6527 437.787 41.0083 433.313 35.7285V34.9455H455.796V57.4068L455.819 57.4516Z" fill="black"/>
<path d="M495.622 25.7504C495.622 27.2941 495.132 28.5916 494.108 29.6207C493.084 30.6498 491.837 31.1644 490.323 31.1644C489.032 31.1644 487.429 30.6275 485.537 29.5089C485.359 29.397 485.181 29.3075 485.003 29.1957C484.847 29.0838 484.691 28.972 484.491 28.8601C479.616 26.0636 477.813 28.8601 477.813 28.8601C477.813 28.8601 476.21 31.321 475.943 33.8714V47.8985C475.943 53.0217 477.501 58.0553 480.417 62.2612V62.8429H455.908V62.2612C458.779 58.1001 460.315 53.1559 460.315 48.0999V35.1242C460.315 31.0973 458.846 27.2046 456.219 24.1844V23.558L475.542 19.4863L475.965 19.9337V29.576L476.299 28.5245C477.367 25.7057 478.992 23.4909 481.196 21.8801C483.378 20.2693 485.849 19.4639 488.632 19.4639C490.657 19.4639 492.327 20.0456 493.663 21.2313C494.976 22.417 495.644 23.9159 495.644 25.7057L495.622 25.7504Z" fill="black"/>
<path d="M538.319 41.6784C538.319 44.8552 537.718 47.8083 536.493 50.5152C535.291 53.2222 533.599 55.5713 531.462 57.54C529.325 59.5087 526.765 61.0524 523.827 62.171C520.888 63.2896 517.682 63.8489 514.254 63.8489C510.826 63.8489 507.643 63.2896 504.726 62.171C501.81 61.0524 499.273 59.5087 497.135 57.54C494.998 55.5713 493.307 53.2446 492.104 50.5152C490.902 47.8083 490.279 44.8552 490.279 41.6784C490.279 38.5016 490.902 35.5932 492.127 32.8862C493.351 30.1793 495.043 27.8302 497.18 25.8391C499.317 23.8704 501.855 22.3044 504.771 21.1858C507.687 20.0672 510.848 19.5079 514.254 19.5079C517.66 19.5079 520.888 20.0672 523.827 21.1858C526.765 22.3044 529.325 23.848 531.462 25.8391C533.599 27.8302 535.291 30.1569 536.493 32.8862C537.695 35.5932 538.319 38.5239 538.319 41.6784ZM522.135 41.6784C522.135 34.9221 521.489 29.8213 520.22 26.3537C518.929 22.886 516.948 21.1634 514.277 21.1634C511.605 21.1634 509.646 22.886 508.4 26.3537C507.153 29.8213 506.53 34.9221 506.53 41.6784C506.53 48.4347 507.153 53.5802 508.4 57.0254C509.646 60.4707 511.627 62.1933 514.299 62.1933C516.97 62.1933 518.951 60.4707 520.22 57.0254C521.489 53.5802 522.112 48.457 522.112 41.6784H522.135Z" fill="black"/>
<path d="M587.56 41.6784C587.56 44.8552 586.959 47.8083 585.735 50.5152C584.533 53.2222 582.841 55.5713 580.704 57.54C578.567 59.5087 576.007 61.0524 573.068 62.171C570.13 63.2896 566.924 63.8489 563.496 63.8489C560.068 63.8489 556.884 63.2896 553.968 62.171C551.052 61.0524 548.514 59.5087 546.377 57.54C544.24 55.5713 542.548 53.2446 541.346 50.5152C540.144 47.8083 539.521 44.8552 539.521 41.6784C539.521 38.5016 540.144 35.5932 541.368 32.8862C542.593 30.1793 544.285 27.8302 546.422 25.8391C548.559 23.8704 551.097 22.3044 554.013 21.1858C556.929 20.0672 560.09 19.5079 563.496 19.5079C566.902 19.5079 570.13 20.0672 573.068 21.1858C576.007 22.3044 578.567 23.848 580.704 25.8391C582.841 27.8302 584.533 30.1569 585.735 32.8862C586.937 35.5932 587.56 38.5239 587.56 41.6784ZM571.376 41.6784C571.376 34.9221 570.731 29.8213 569.462 26.3537C568.171 22.886 566.19 21.1634 563.518 21.1634C560.847 21.1634 558.888 22.886 557.641 26.3537C556.395 29.8213 555.771 34.9221 555.771 41.6784C555.771 48.4347 556.395 53.5802 557.641 57.0254C558.888 60.4707 560.869 62.1933 563.54 62.1933C566.212 62.1933 568.193 60.4707 569.462 57.0254C570.731 53.5802 571.354 48.457 571.354 41.6784H571.376Z" fill="black"/>
<path d="M625.916 20.5817V21.1186L625.27 21.8793C622.042 25.7272 619.371 30.0226 617.345 34.6088L604.879 62.8421H600.404L587.248 33.6468C585.489 29.7318 583.375 25.9957 580.948 22.4609L580.035 21.1186V20.5817H605.703V21.1186L603.988 24.0269C602.697 26.2194 602.475 28.8816 603.387 31.253L609.799 47.8753L615.275 35.3023C618.102 28.8145 616.21 23.9822 615.119 22.0359L614.518 21.0962V20.5593H625.893L625.916 20.5817Z" fill="black"/>
<path d="M659.174 52.3945L659.842 52.9761C658.774 54.654 657.594 56.1753 656.303 57.5176C655.012 58.8599 653.542 60.0009 651.895 60.9405C650.27 61.8801 648.444 62.596 646.463 63.1106C644.482 63.6028 642.256 63.8489 639.807 63.8489C636.535 63.8489 633.596 63.3119 630.947 62.2605C628.32 61.1866 626.072 59.7101 624.202 57.7861C622.332 55.8621 620.907 53.6026 619.906 50.9851C618.904 48.3452 618.414 45.4816 618.414 42.3495C618.414 38.9938 618.971 35.9288 620.062 33.11C621.152 30.2911 622.711 27.8973 624.714 25.8839C626.718 23.8704 629.122 22.3044 631.927 21.1858C634.732 20.0672 637.826 19.5079 641.21 19.5079C644.348 19.5079 647.131 20.0224 649.58 21.0516C652.028 22.0807 654.099 23.4677 655.791 25.2351C657.482 27.0025 658.774 29.083 659.664 31.4545C660.555 33.8259 661 36.3762 661 39.0832H634.331C634.309 39.2175 634.286 39.4412 634.286 39.7097C634.398 42.3495 634.798 44.6538 635.489 46.6449C636.179 48.636 637.114 50.3139 638.293 51.701C639.473 53.088 640.898 54.0947 642.568 54.7883C644.237 55.4818 646.085 55.8174 648.155 55.8174C649.424 55.8174 650.604 55.7055 651.695 55.5042C652.785 55.3028 653.809 55.0344 654.744 54.6988C655.679 54.3632 656.503 53.9829 657.238 53.5802C657.972 53.1775 658.618 52.7748 659.174 52.3721V52.3945ZM634.331 37.7409L641.098 37.2488C643.747 37.0474 645.773 34.7655 645.617 32.1032C645.573 31.2531 645.506 30.4701 645.439 29.7542C645.239 27.8078 644.927 26.2194 644.504 25.0114C644.081 23.8033 643.525 22.9084 642.857 22.3491C642.189 21.7898 641.365 21.5214 640.408 21.5214C639.362 21.5214 638.471 21.9017 637.715 22.64C636.958 23.3782 636.334 24.4521 635.845 25.8615C635.355 27.2485 634.999 28.9712 634.754 30.9623C634.509 32.9534 634.353 35.2353 634.331 37.7409Z" fill="black"/>
</g>
<defs>
<clipPath id="clip0_4110_2642">
<rect width="660.6" height="63.9" fill="white" transform="scale(1.00061)"/>
</clipPath>
</defs>
</svg>
