<svg width="55" height="55" viewBox="0 0 55 55" fill="none" xmlns="http://www.w3.org/2000/svg">
<g clip-path="url(#clip0_2036_3569)">
<path d="M27.5 55C42.6878 55 55 42.6878 55 27.5C55 12.3122 42.6878 0 27.5 0C12.3122 0 0 12.3122 0 27.5C0 42.6878 12.3122 55 27.5 55Z" fill="white"/>
<path d="M35.9102 50.1152C35.9102 50.1152 42.1774 49.7696 44.3088 47.811C46.659 53.1912 51.9931 54.5737 50.841 55C41.6705 54.6774 35.9102 50.1152 35.9102 50.1152Z" fill="white"/>
<path d="M13.3986 27.4655C13.1106 27.4539 12.5576 27.4539 12.2926 27.4539H8.96309C8.69811 27.4539 8.14512 27.4539 7.86862 27.4655V26.5092C6.98152 27.2235 6.25572 27.6844 4.66585 28.5369C4.34327 27.7189 4.25111 27.5461 3.97461 27.2005C5.62207 26.3479 6.46309 25.8065 7.45387 24.977C8.62899 23.9977 9.26263 23.2373 10.1382 21.7627L11.4285 22.2005C11.5553 22.2466 11.6589 22.3618 11.6589 22.477C11.6589 22.5922 11.5783 22.6383 11.3594 22.6959C12.6612 24.5162 14.2857 25.6913 17.2926 26.9701C16.9585 27.3387 16.8318 27.5231 16.44 28.2834C15.2073 27.6844 14.2857 27.1659 13.4101 26.5323V27.477L13.3986 27.4655ZM7.77645 29.9079C7.20042 29.9079 6.38244 29.9194 5.84097 29.9539V28.5715C6.38244 28.583 7.20042 28.6175 7.77645 28.6175H13.917L14.1244 28.3295L15.1382 29.2512C15.2188 29.3203 15.2534 29.3779 15.2534 29.4355C15.2534 29.5622 15.1728 29.6198 14.8963 29.712L13.076 34.7466L11.6359 34.3779L13.3064 29.9309H7.78797L7.77645 29.9079ZM12.2926 26.1751C12.5 26.1751 12.7073 26.1751 12.9147 26.1636C11.9585 25.4263 11.3018 24.7235 10.5645 23.6291C9.89627 24.6429 9.23959 25.3572 8.27184 26.1636C8.50226 26.1751 8.73267 26.1751 8.96309 26.1751H12.2926Z" fill="black"/>
<path d="M24.8271 22.5459C24.9423 22.5689 25.0114 22.6381 25.0114 22.7302C25.0114 22.8224 24.9423 22.88 24.7349 22.9837C24.4008 23.8823 24.2395 24.3547 24.1359 24.562C24.8156 24.4007 25.3225 24.2049 25.8064 23.9514L26.3709 25.1841C25.4031 25.6104 24.7234 25.8063 23.6405 25.9906C23.387 26.6703 22.9607 27.7187 22.4654 28.7901C21.9815 29.85 21.6589 30.4491 21.0944 31.3708C20.8179 31.8431 20.6105 32.1772 20.4838 32.3846C19.9769 31.9468 19.7465 31.8086 19.228 31.6012C20.3455 30.0805 21.3594 28.1911 22.1658 26.0828C21.8778 26.1288 21.6359 26.1404 21.1981 26.1404C20.8064 26.1404 20.5068 26.1288 19.8386 26.0828L19.8156 24.6772C20.4838 24.7694 20.9101 24.804 21.4861 24.804C21.8778 24.804 22.1082 24.7924 22.6382 24.7464C23.0414 23.5712 23.3064 22.615 23.3525 22.1196L24.8156 22.5574L24.8271 22.5459ZM27.834 27.9722C27.4078 28.2602 27.2925 28.433 27.2925 28.8362C27.2925 29.1242 27.3041 29.3086 27.3847 29.9537C27.4308 30.2417 27.4423 30.3224 27.4769 30.7602C27.4884 30.9215 27.4999 30.9791 27.4999 31.0367C28.364 31.3823 29.2856 31.9353 30.5644 32.903C30.1612 33.2371 29.9308 33.4791 29.5852 33.9975C28.8248 33.2947 28.7557 33.2371 27.523 32.4768C27.3962 33.8477 26.6013 34.4814 24.9538 34.4814C23.4446 34.4814 22.4654 33.721 22.4654 32.5344C22.4654 31.3477 23.4792 30.5067 24.9538 30.5067C25.3916 30.5067 25.6912 30.5528 26.0829 30.6565C26.0368 30.3224 26.0368 30.2302 26.0022 29.8731C25.9561 29.5505 25.9331 28.9745 25.9331 28.8132C25.9331 28.0528 26.1981 27.615 26.9469 27.0966L27.8225 27.9837L27.834 27.9722ZM24.8847 31.7049C24.2511 31.7049 23.8018 32.0275 23.8018 32.4883C23.8018 32.9491 24.2165 33.2256 25.023 33.2256C25.5183 33.2256 25.8755 33.0874 26.0368 32.8339C26.152 32.6726 26.1866 32.3731 26.1866 31.9238C25.6912 31.7625 25.2995 31.7049 24.8847 31.7049ZM27.0736 25.357C28.6289 25.645 29.3893 25.9215 30.7257 26.7279L29.9884 27.9722C28.8018 27.1542 27.9953 26.8086 26.6819 26.5666L27.0736 25.3685V25.357Z" fill="black"/>
<path d="M35.7027 25.4722C35.8294 25.4953 35.8985 25.5875 35.8985 25.6796C35.8985 25.7718 35.8179 25.8409 35.599 25.91C35.4032 27.016 35.311 28.0068 35.2419 29.3778H35.311C36.3479 27.8686 38.099 26.9354 39.8847 26.9354C41.8548 26.9354 43.0644 27.9838 43.0644 29.7234C43.0644 31.3709 42.0737 32.6381 40.2188 33.3755C39.4124 33.698 38.1336 33.9976 36.7972 34.1934C36.728 33.6865 36.5898 33.1566 36.3939 32.6727C37.8686 32.5229 38.8363 32.3271 39.7119 31.9815C40.8755 31.5091 41.5668 30.6681 41.5668 29.6888C41.5668 28.7672 40.9561 28.2372 39.9078 28.2372C38.6866 28.2372 37.6382 28.7096 36.5667 29.7464C35.9331 30.3455 35.4377 31.175 35.2995 31.8202L33.8709 31.7971C33.8594 31.0944 33.8594 30.9446 33.8594 30.622C33.8594 29.6082 33.9285 28.4216 34.0898 26.728C34.1359 26.3133 34.1359 26.1865 34.1704 25.6796C34.182 25.4262 34.1935 25.2649 34.228 25.1266L35.7257 25.4838L35.7027 25.4722ZM35.4608 22.4769C36.7511 22.8225 37.7073 23.2833 38.8479 24.0782L38.0184 25.334C37.0045 24.5621 36.0829 24.0782 34.8041 23.6981L35.4723 22.4653L35.4608 22.4769Z" fill="black"/>
<path d="M48.8939 31.6937V33.5485H47.0391V31.6937H48.8939ZM48.8709 23.0186L48.6404 30.2305H47.304L47.0736 23.0186H48.8824H48.8709Z" fill="black"/>
</g>
<defs>
<clipPath id="clip0_2036_3569">
<rect width="55" height="55" fill="white"/>
</clipPath>
</defs>
</svg>
