<svg width="74" height="21" viewBox="0 0 74 21" fill="none" xmlns="http://www.w3.org/2000/svg">
<g clip-path="url(#clip0_2036_3531)">
<path d="M3.36 9.37996C4.17 8.87996 4.98 8.69996 5.78 8.85996C6.58 9.01996 7.21 9.45996 7.67 10.21C8.14 10.96 8.26 11.73 8.03 12.51C7.8 13.29 7.27 13.95 6.43 14.47L4.81 15.47L7.07 19.12L5.39 20.16L0 11.46L3.36 9.37996ZM5.26 13.37C5.71 13.09 5.99 12.77 6.12 12.41C6.24 12.05 6.18 11.67 5.93 11.26C5.43 10.46 4.67 10.38 3.64 11.02L2.49 11.73L3.99 14.15L5.25 13.37H5.26Z" fill="#040000"/>
<path d="M12.66 4.72987C13.55 4.36987 14.38 4.32987 15.14 4.59987C15.9 4.86987 16.44 5.39987 16.76 6.18987C16.98 6.72987 17.03 7.25987 16.91 7.76987C16.79 8.27987 16.51 8.76987 16.05 9.21987C16.42 9.25987 16.78 9.37987 17.13 9.55987C17.48 9.74987 17.96 10.0999 18.58 10.6299C19.62 11.5499 20.37 12.1699 20.83 12.4899L18.78 13.3099C18.56 13.1599 18.23 12.8999 17.81 12.5399C16.88 11.7399 16.22 11.2099 15.83 10.9599C15.44 10.7099 15.11 10.5499 14.82 10.4999C14.53 10.4499 14.24 10.4699 13.95 10.5899L13.28 10.8599L14.89 14.8699L13.06 15.6099L9.25 6.10987L12.67 4.73987L12.66 4.72987ZM13.87 8.94987C14.35 8.75987 14.68 8.48987 14.86 8.13987C15.04 7.78987 15.04 7.40987 14.88 6.98987C14.71 6.55987 14.44 6.27987 14.08 6.17987C13.72 6.06987 13.29 6.11987 12.79 6.31987L11.65 6.77987L12.71 9.41987L13.88 8.94987H13.87Z" fill="#040000"/>
<path d="M26.6099 0.800039L26.9299 2.31004L22.3899 3.27004L22.9499 5.90004L27.2899 4.98004L27.6099 6.49004L23.2699 7.41004L23.8699 10.25L28.5099 9.27004L28.8299 10.78L22.2599 12.17L20.1399 2.16004L26.6099 0.790039V0.800039Z" fill="#040000"/>
<path d="M35.3501 0.000223437C36.3501 -0.0197766 37.3101 0.210223 38.2401 0.690223L38.2801 2.45022C37.2101 1.83022 36.2601 1.53022 35.4401 1.55022C34.9401 1.55022 34.5501 1.66022 34.2801 1.86022C34.0001 2.06022 33.8701 2.32022 33.8701 2.64022C33.8701 3.03022 34.1501 3.38022 34.6801 3.69022C34.8301 3.78022 35.4001 4.05022 36.3901 4.48022C37.2401 4.86022 37.8501 5.28022 38.2301 5.76022C38.6101 6.24022 38.8101 6.81022 38.8201 7.49022C38.8401 8.37022 38.5401 9.08022 37.9201 9.64022C37.3001 10.1902 36.4901 10.4802 35.4801 10.5002C34.8301 10.5102 34.2601 10.4502 33.7901 10.3202C33.3201 10.1902 32.7801 9.95022 32.1901 9.61022L32.1501 7.66022C33.2601 8.54022 34.3001 8.98022 35.2701 8.96022C35.7501 8.96022 36.1401 8.84022 36.4401 8.62022C36.7301 8.40022 36.8801 8.12022 36.8701 7.78022C36.8701 7.31022 36.5901 6.93022 36.0701 6.64022C35.6401 6.41022 35.0801 6.14022 34.3901 5.83022C33.5801 5.48022 32.9701 5.07022 32.5601 4.59022C32.1501 4.11022 31.9401 3.55022 31.9301 2.90022C31.9101 2.04022 32.2201 1.35022 32.8501 0.830223C33.4801 0.310223 34.3201 0.0402234 35.3701 0.0102234L35.3501 0.000223437Z" fill="#040000"/>
<path d="M49.4099 1.29986L49.1899 2.82986L44.5999 2.15986L44.2099 4.81986L48.5999 5.45986L48.3799 6.98986L43.9899 6.34986L43.5699 9.22986L48.2599 9.91986L48.0399 11.4499L41.3899 10.4799L42.8699 0.359863L49.4099 1.31986V1.29986Z" fill="#040000"/>
<path d="M55.31 2.80998L58.63 11.58L61.04 4.85998L62.86 5.50998L59.41 15.14L57.81 14.57L54.5 5.67998L52.05 12.51L50.23 11.86L53.68 2.22998L55.31 2.80998Z" fill="#040000"/>
<path d="M73.7699 11.7502L72.9699 13.0702L69.8599 11.1902L65.3699 18.6202L63.6799 17.6002L68.1699 10.1702L65.0599 8.29022L65.8599 6.97021L73.7699 11.7502Z" fill="#040000"/>
</g>
<defs>
<clipPath id="clip0_2036_3531">
<rect width="73.77" height="20.16" fill="white"/>
</clipPath>
</defs>
</svg>
