<svg width="305" height="120" viewBox="0 0 305 120" fill="none" xmlns="http://www.w3.org/2000/svg">
<g clip-path="url(#clip0_2036_3542)">
<path d="M269.62 0C269.62 3.04 267.16 5.5 264.12 5.5C261.08 5.5 258.62 3.04 258.62 0H0V120H258.62C258.62 116.96 261.08 114.5 264.12 114.5C267.16 114.5 269.62 116.96 269.62 120H305V0H269.62Z" fill="#F9B1BF"/>
<path d="M282.02 86.6302C282.02 86.1302 282.08 85.6302 282.19 85.1502C282.3 84.6702 282.5 84.1502 282.77 83.5902H284.38C284.07 84.1402 283.84 84.6402 283.7 85.1002C283.56 85.5602 283.49 86.0502 283.49 86.5502C283.49 87.1802 283.62 87.7502 283.88 88.2602C284.14 88.7702 284.51 89.1602 284.98 89.4402C285.45 89.7202 285.98 89.8602 286.56 89.8602C287.14 89.8602 287.68 89.7202 288.15 89.4402C288.62 89.1602 288.98 88.7702 289.24 88.2602C289.5 87.7502 289.62 87.1802 289.62 86.5502C289.62 86.0602 289.55 85.6002 289.41 85.1602C289.27 84.7202 289.02 84.1602 288.65 83.4902H290.26C290.56 84.0702 290.77 84.5902 290.9 85.0802C291.03 85.5702 291.09 86.1202 291.09 86.7702C291.09 87.7002 290.9 88.5402 290.53 89.2802C290.16 90.0202 289.62 90.6002 288.92 91.0202C288.22 91.4402 287.45 91.6502 286.62 91.6502C285.73 91.6502 284.93 91.4302 284.21 91.0002C283.5 90.5702 282.95 89.9702 282.57 89.2102C282.19 88.4502 281.99 87.5902 281.99 86.6402L282.02 86.6302Z" fill="black"/>
<path d="M282.02 76.5301C282.02 75.6101 282.21 74.7801 282.59 74.0501C282.97 73.3201 283.51 72.7301 284.23 72.2901C284.95 71.8501 285.73 71.6401 286.58 71.6401C287.43 71.6401 288.18 71.8501 288.89 72.2801C289.6 72.7101 290.15 73.2901 290.54 74.0301C290.93 74.7701 291.13 75.6101 291.13 76.5401C291.13 77.4701 290.93 78.2901 290.53 79.0401C290.13 79.7901 289.59 80.3801 288.89 80.8001C288.19 81.2201 287.42 81.4301 286.58 81.4301C285.74 81.4301 285 81.2201 284.29 80.8001C283.58 80.3801 283.02 79.8001 282.62 79.0701C282.22 78.3401 282.03 77.4901 282.03 76.5301H282.02ZM286.57 79.6601C287.16 79.6601 287.69 79.5301 288.16 79.2601C288.63 78.9901 288.99 78.6201 289.25 78.1501C289.51 77.6801 289.64 77.1401 289.64 76.5301C289.64 75.6201 289.35 74.8701 288.78 74.2901C288.21 73.7101 287.47 73.4101 286.57 73.4101C285.98 73.4101 285.45 73.5401 284.98 73.8101C284.51 74.0701 284.14 74.4501 283.89 74.9301C283.63 75.4101 283.5 75.9501 283.5 76.5501C283.5 77.1501 283.63 77.6901 283.89 78.1701C284.15 78.6501 284.51 79.0201 284.98 79.2801C285.45 79.5401 285.98 79.6701 286.57 79.6701V79.6601Z" fill="black"/>
<path d="M282.13 67.61H287.29C287.82 67.61 288.24 67.53 288.55 67.37C288.86 67.21 289.12 66.95 289.32 66.59C289.52 66.23 289.62 65.81 289.62 65.33C289.62 64.81 289.52 64.36 289.33 63.99C289.14 63.62 288.87 63.36 288.54 63.19C288.21 63.02 287.75 62.94 287.16 62.94H282.11V61.23H287.38C288.57 61.23 289.49 61.59 290.13 62.3C290.77 63.01 291.09 64.03 291.09 65.33C291.09 66.15 290.94 66.86 290.65 67.47C290.36 68.07 289.94 68.53 289.38 68.85C288.83 69.17 288.18 69.33 287.43 69.33H282.1V67.61H282.13Z" fill="black"/>
<path d="M282.13 55.1301C282.13 54.3001 282.37 53.6301 282.85 53.1101C283.33 52.5901 283.95 52.3301 284.71 52.3301C285.47 52.3301 286.1 52.5901 286.57 53.1201C287.04 53.6501 287.28 54.3401 287.28 55.2001V56.8501H291V58.5601H282.13V55.1301ZM285.94 55.5501C285.94 55.0901 285.83 54.7401 285.63 54.4801C285.42 54.2201 285.11 54.1001 284.7 54.1001C283.88 54.1001 283.47 54.6301 283.47 55.6701V56.8401H285.94V55.5501Z" fill="black"/>
<path d="M282.02 45.6398C282.02 44.7198 282.21 43.8998 282.59 43.1598C282.97 42.4198 283.51 41.8398 284.23 41.4098C284.95 40.9798 285.73 40.7598 286.58 40.7598C287.43 40.7598 288.18 40.9698 288.89 41.3998C289.6 41.8298 290.15 42.4098 290.54 43.1498C290.93 43.8898 291.13 44.7298 291.13 45.6598C291.13 46.5898 290.93 47.4098 290.53 48.1598C290.13 48.9098 289.59 49.4998 288.89 49.9098C288.19 50.3198 287.42 50.5398 286.58 50.5398C285.74 50.5398 285 50.3298 284.29 49.9098C283.58 49.4898 283.02 48.9098 282.62 48.1798C282.22 47.4498 282.03 46.5998 282.03 45.6398H282.02ZM286.57 48.7698C287.16 48.7698 287.69 48.6398 288.16 48.3698C288.63 48.0998 288.99 47.7298 289.25 47.2498C289.51 46.7798 289.64 46.2398 289.64 45.6298C289.64 44.7198 289.35 43.9698 288.78 43.3898C288.21 42.7998 287.47 42.5098 286.57 42.5098C285.98 42.5098 285.45 42.6398 284.98 42.9098C284.51 43.1798 284.14 43.5498 283.89 44.0298C283.63 44.5098 283.5 45.0498 283.5 45.6498C283.5 46.2498 283.63 46.7898 283.89 47.2698C284.15 47.7498 284.51 48.1198 284.98 48.3798C285.45 48.6398 285.98 48.7698 286.57 48.7698Z" fill="black"/>
<path d="M282.13 36.8602L288.32 31.5902H282.13V29.9102H291V31.3802L284.71 36.6802H291V38.3602H282.13V36.8602Z" fill="black"/>
<path d="M83.72 36.1001V86.3001H74.52V36.1001H83.72Z" fill="#040000"/>
<path d="M124.4 36.1001V44.5801H108.48V55.4001L109.41 55.3301H110.16C113.23 55.3301 116 55.9901 118.5 57.3201C120.99 58.6501 122.94 60.5101 124.34 62.9101C125.74 65.3101 126.44 68.0001 126.44 70.9901C126.44 75.7101 124.85 79.5501 121.68 82.5101C118.51 85.4701 114.33 86.9501 109.16 86.9501C104.56 86.9501 100.49 86.0001 96.9399 84.1101V75.7001C100.68 78.0001 104.26 79.1501 107.68 79.1501C110.36 79.1501 112.6 78.4001 114.4 76.9001C116.2 75.4001 117.1 73.5001 117.1 71.2001C117.1 68.6101 116.07 66.5901 114.01 65.1501C111.95 63.7001 109.15 62.9801 105.6 62.9801C103.92 62.9801 102.07 63.2001 100.03 63.6301V36.1001H124.39H124.4Z" fill="#040000"/>
<path d="M141.16 59.3301C142.18 59.3301 143.13 59.5901 144.03 60.1001C144.92 60.6101 145.63 61.3201 146.15 62.2301C146.67 63.1401 146.93 64.1001 146.93 65.1301C146.93 66.1601 146.67 67.1201 146.16 68.0101C145.64 68.9001 144.94 69.6101 144.04 70.1301C143.14 70.6501 142.18 70.9101 141.16 70.9101C140.14 70.9101 139.14 70.6501 138.24 70.1401C137.34 69.6301 136.63 68.9201 136.11 68.0201C135.59 67.1201 135.34 66.1601 135.34 65.1301C135.34 64.1001 135.6 63.1101 136.13 62.2101C136.66 61.3101 137.37 60.6001 138.28 60.0901C139.19 59.5801 140.15 59.3301 141.16 59.3301ZM157.42 59.3301L140.32 85.0801H137.3L154.4 59.3301H157.42ZM138.4 65.1301C138.4 65.9101 138.67 66.5801 139.21 67.1301C139.75 67.6901 140.4 67.9701 141.17 67.9701C141.94 67.9701 142.57 67.7001 143.09 67.1501C143.62 66.6101 143.88 65.9301 143.88 65.1301C143.88 64.3301 143.62 63.6701 143.1 63.1101C142.58 62.5501 141.93 62.2701 141.17 62.2701C140.41 62.2701 139.77 62.5501 139.22 63.1101C138.67 63.6701 138.4 64.3401 138.4 65.1201V65.1301ZM153.6 73.4801C154.62 73.4801 155.58 73.7401 156.48 74.2701C157.38 74.8001 158.09 75.5101 158.6 76.4001C159.11 77.2901 159.36 78.2601 159.36 79.3001C159.36 80.3401 159.1 81.2901 158.59 82.1801C158.07 83.0701 157.37 83.7701 156.48 84.2901C155.59 84.8101 154.63 85.0701 153.6 85.0701C152.57 85.0701 151.59 84.8201 150.69 84.3101C149.79 83.8001 149.08 83.1001 148.56 82.2001C148.04 81.3001 147.78 80.3401 147.78 79.3101C147.78 78.2801 148.04 77.3101 148.57 76.4101C149.1 75.5101 149.82 74.7901 150.73 74.2701C151.64 73.7501 152.6 73.4901 153.6 73.4901V73.4801ZM150.83 79.3101C150.83 80.1201 151.11 80.8001 151.66 81.3401C152.21 81.8801 152.86 82.1501 153.6 82.1501C154.34 82.1501 154.98 81.8801 155.52 81.3501C156.06 80.8201 156.33 80.1401 156.33 79.3101C156.33 78.5601 156.06 77.8901 155.53 77.3101C155 76.7301 154.35 76.4401 153.6 76.4401C152.85 76.4401 152.18 76.7301 151.64 77.3001C151.1 77.8701 150.83 78.5501 150.83 79.3101Z" fill="#040000"/>
<path d="M178.8 59.3301C181.4 59.3301 183.74 59.8701 185.82 60.9401C187.9 62.0101 189.55 63.5601 190.79 65.5801C192.02 67.6001 192.64 69.8101 192.64 72.2201C192.64 74.6301 192.04 76.7401 190.83 78.7501C189.63 80.7601 187.97 82.3101 185.87 83.4201C183.77 84.5301 181.4 85.0801 178.76 85.0801C176.12 85.0801 173.8 84.5201 171.67 83.3901C169.54 82.2601 167.89 80.7201 166.7 78.7501C165.51 76.7801 164.92 74.6001 164.92 72.2201C164.92 69.8401 165.51 67.7601 166.7 65.7301C167.89 63.7001 169.52 62.1301 171.61 61.0101C173.69 59.8901 176.09 59.3301 178.8 59.3301ZM169.94 72.2101C169.94 73.8801 170.32 75.3701 171.07 76.7001C171.82 78.0301 172.88 79.0601 174.22 79.7901C175.56 80.5201 177.09 80.8901 178.79 80.8901C181.37 80.8901 183.48 80.0801 185.14 78.4601C186.8 76.8401 187.63 74.7601 187.63 72.2101C187.63 70.5401 187.26 69.0401 186.51 67.7101C185.76 66.3801 184.71 65.3401 183.35 64.6101C181.99 63.8801 180.46 63.5101 178.76 63.5101C177.06 63.5101 175.53 63.8801 174.17 64.6101C172.81 65.3501 171.77 66.3801 171.03 67.7001C170.29 69.0201 169.93 70.5201 169.93 72.2001L169.94 72.2101Z" fill="#040000"/>
<path d="M214.7 59.6499V63.4399H204.24V69.9299H214.7V73.7599H204.24V84.7599H199.39V59.6599H214.7V59.6499Z" fill="#040000"/>
<path d="M236.63 59.6499V63.4399H226.17V69.9299H236.63V73.7599H226.17V84.7599H221.32V59.6599H236.63V59.6499Z" fill="#040000"/>
<path d="M46 0H0V120H46V0Z" fill="#FCBF42"/>
<path d="M21.63 15.0799L22.67 16.0399C22.75 16.1199 22.77 16.1899 22.77 16.2499C22.77 16.3799 22.6 16.4899 22.22 16.6099C21.95 17.1099 21.67 17.5899 21.35 18.0499C21.06 18.4799 20.73 18.8699 20.39 19.2599V20.0699C20.52 20.1499 20.68 20.2199 20.81 20.2999C21.14 19.9399 21.44 19.5799 21.71 19.1799C21.92 18.8899 22.1 18.5999 22.28 18.2899L23.5 19.1199C23.59 19.1799 23.63 19.2499 23.63 19.3299C23.63 19.4499 23.51 19.4999 23.19 19.4799C22.61 20.1699 22.31 20.4999 21.86 20.9599C22.18 21.1999 22.25 21.2599 23.19 22.1299L22.19 23.2399C21.65 22.6099 21.07 21.9899 20.39 21.4999V23.8999C20.39 25.2799 20.41 26.3199 20.43 26.9899H18.95C18.98 26.3199 18.99 25.2799 18.99 23.8999V20.7199C18.46 21.2299 17.97 21.6399 17.28 22.1599C17.01 21.5399 16.75 21.0999 16.5 20.8099C18.5 19.3699 19.63 18.2399 20.55 16.7399H18.05C17.64 16.7399 17.17 16.7599 16.85 16.7699V15.3799C17.18 15.3899 17.72 15.3899 18.05 15.3899H19V14.4899C19 13.8199 19 13.6399 18.97 13.1099L20.43 13.1999C20.6 13.2099 20.7 13.2699 20.7 13.3499C20.7 13.4599 20.61 13.5299 20.4 13.6499V15.3899H21.42L21.64 15.0699L21.63 15.0799ZM29.49 14.5299L30.45 15.4099C30.53 15.4699 30.56 15.5499 30.56 15.6199C30.56 15.7299 30.56 15.7399 30.2 15.8799C30.2 17.8399 30.2 19.7899 30.12 21.7399C30.09 22.7899 30.06 25.0299 29.46 26.0599C28.9 27.0199 27.72 26.9399 26.75 26.9399H26.31C26.22 26.0799 26.21 25.9899 25.97 25.3299C26.4967 25.3499 26.83 25.3599 26.97 25.3599C28.02 25.3599 28.23 25.1899 28.43 24.1899C28.62 23.1199 28.72 20.7699 28.72 16.6599V16.2099H26.68V17.9299C26.68 21.3199 26.23 23.0899 24.94 24.6599C24.19 25.6099 23.48 26.1899 22.17 26.9999C21.9 26.4599 21.73 26.2199 21.28 25.7499C22.71 24.8799 23.38 24.2799 24.04 23.3199C24.91 22.0099 25.22 20.5899 25.22 17.8299V16.1999C24.6 16.2099 23.99 16.2099 23.38 16.2399V14.7699C24.01 14.7999 25.03 14.8099 25.76 14.8099H29.22L29.49 14.4899V14.5299Z" fill="black"/>
<path d="M19.05 44.8898H17.54C17.5467 44.4098 17.56 43.2365 17.58 41.3698V35.6698C17.5734 33.7498 17.56 32.6198 17.54 32.2798C18.33 32.3198 19.5 32.3398 20.52 32.3398H26.98C28 32.3398 29.17 32.3298 29.97 32.2798C29.95 32.6265 29.9367 33.7565 29.93 35.6698V41.3698C29.9367 43.2165 29.95 44.3965 29.97 44.9098H28.46V44.3398H19.05V44.8898ZM28.46 33.6998H19.05V42.9698H28.46V33.6998ZM22.17 41.7098H20.68C20.71 41.3698 20.71 40.8698 20.71 40.1198V36.5698C20.71 36.0898 20.7 35.5198 20.68 35.2498C21.01 35.2598 21.31 35.2798 21.76 35.2798H25.63C26.06 35.2798 26.38 35.2598 26.71 35.2498C26.68 35.5198 26.67 36.0898 26.67 36.5698V39.9098C26.67 40.6198 26.68 41.1198 26.71 41.4698H25.21V40.9898H22.17V41.7098ZM25.22 36.6198H22.18V39.6198H25.22V36.6198Z" fill="black"/>
<path d="M24.7201 49.0301C24.9201 49.1201 24.9301 49.1401 24.9301 49.2301C24.9301 49.3301 24.8901 49.3801 24.6001 49.4801C24.4801 49.7201 24.2701 50.1001 23.9701 50.6201H26.9301L27.1701 50.3501L28.3501 51.3401C28.5301 51.4901 28.5501 51.5001 28.5501 51.5901C28.5501 51.7101 28.4901 51.7601 28.1901 51.8901C27.1001 54.8901 26.0201 56.6101 24.1701 58.2801C23.2101 59.1501 22.3801 59.7201 20.5201 60.8201C20.2101 60.2001 20.0901 60.0401 19.4701 59.5101C23.3001 57.5001 25.1701 55.4901 26.4401 52.0401H23.1401C22.2601 53.3501 21.0001 54.6501 19.6601 55.6701C19.2701 55.0901 19.2301 55.0401 18.5701 54.4901C19.9901 53.4901 21.1201 52.3501 22.0001 50.9801C22.6601 49.9601 23.0501 49.1801 23.3001 48.3901L24.7101 49.0301H24.7201Z" fill="black"/>
<path d="M24.6001 64.2699C24.7501 64.2799 24.8501 64.3399 24.8501 64.4199C24.8501 64.5099 24.7701 64.5899 24.5601 64.7199C24.5501 65.3199 24.5501 65.8299 24.5501 67.2899V73.1199C24.5501 74.4099 24.5601 75.3399 24.5901 76.1899H22.8801C22.9101 75.5299 22.9201 74.4999 22.9201 73.1199V67.2899C22.9201 65.5899 22.9101 64.6499 22.8601 64.1699L24.5801 64.2799L24.6001 64.2699Z" fill="black"/>
<path d="M21.56 87.27C21.67 87.31 21.71 87.36 21.71 87.44C21.71 87.53 21.67 87.59 21.44 87.69C20.48 89.85 20.03 90.51 18.62 91.89C18.32 91.27 18 90.91 17.51 90.56C19 89.15 19.51 88.4 20.12 86.75L21.56 87.28V87.27ZM24.56 89.5C24.56 90.83 24.57 91.91 24.6 92.57H22.93C22.96 91.9 22.97 90.88 22.97 89.5V85.6H19.72C19.23 85.6 18.37 85.61 17.92 85.64V84.1C18.37 84.13 19.13 84.14 19.72 84.14H22.97C22.96 82.6 22.94 81.68 22.91 81.38L24.62 81.49C24.77 81.5 24.86 81.56 24.86 81.66C24.86 81.73 24.78 81.81 24.57 81.94C24.57 82.17 24.55 82.32 24.54 84.15H27.76C28.33 84.15 29.11 84.14 29.56 84.11V85.65C29.1 85.62 28.26 85.61 27.76 85.61H24.54V89.51L24.56 89.5ZM26.75 86.74C28.14 87.74 29.15 88.8 30.05 90.22L28.7 91.33C27.92 89.94 27.05 88.89 25.72 87.73L26.76 86.74H26.75ZM30.39 82.05C30.39 82.9 29.72 83.58 28.86 83.58C28 83.58 27.33 82.9 27.33 82.05C27.33 81.2 28.02 80.52 28.86 80.52C29.7 80.52 30.39 81.21 30.39 82.05ZM28.07 82.05C28.07 82.5 28.41 82.86 28.86 82.86C29.31 82.86 29.67 82.5 29.67 82.05C29.67 81.6 29.31 81.26 28.86 81.26C28.41 81.26 28.07 81.6 28.07 82.05Z" fill="black"/>
<path d="M19.49 97.4402C21.05 98.2502 21.62 98.6702 22.65 99.8102L21.47 101.11C20.39 99.9102 19.61 99.2802 18.5 98.6802L19.49 97.4302V97.4402ZM18.92 105.9C21.18 104.94 22.47 104.2 24.18 102.91C26.18 101.38 27.35 100.2 28.89 98.1002C29.19 98.6302 29.44 98.9602 29.93 99.5202C27.95 101.9 26.84 103 25.09 104.32C23.62 105.43 22.51 106.11 20.38 107.19C20.32 107.4 20.26 107.5 20.15 107.5C20.08 107.5 19.96 107.43 19.9 107.32L18.93 105.9H18.92Z" fill="black"/>
<path d="M264.12 7.37988V7.87988" stroke="#040000" stroke-linecap="round" stroke-linejoin="round"/>
<path d="M264.12 10.9199V110.6" stroke="#040000" stroke-linecap="round" stroke-linejoin="round" stroke-dasharray="1.01 3.04"/>
<path d="M264.12 112.12V112.62" stroke="#040000" stroke-linecap="round" stroke-linejoin="round"/>
</g>
<defs>
<clipPath id="clip0_2036_3542">
<rect width="305" height="120" fill="white"/>
</clipPath>
</defs>
</svg>
