<svg width="31" height="31" viewBox="0 0 31 31" fill="none" xmlns="http://www.w3.org/2000/svg">
<g clip-path="url(#clip0_2036_3566)">
<path d="M15.76 0H15.24C14.6711 0 14.21 0.461147 14.21 1.03V29.97C14.21 30.5389 14.6711 31 15.24 31H15.76C16.3288 31 16.79 30.5389 16.79 29.97V1.03C16.79 0.461147 16.3288 0 15.76 0Z" fill="black"/>
<path d="M0 15.24L0 15.76C0 16.3289 0.461147 16.79 1.03 16.79L29.97 16.79C30.5389 16.79 31 16.3289 31 15.76V15.24C31 14.6712 30.5389 14.21 29.97 14.21L1.03 14.21C0.461147 14.21 0 14.6712 0 15.24Z" fill="black"/>
</g>
<defs>
<clipPath id="clip0_2036_3566">
<rect width="31" height="31" fill="white"/>
</clipPath>
</defs>
</svg>
