<svg width="305" height="120" viewBox="0 0 305 120" fill="none" xmlns="http://www.w3.org/2000/svg">
<g clip-path="url(#clip0_2036_3592)">
<path d="M269.62 0C269.62 3.04 267.16 5.5 264.12 5.5C261.08 5.5 258.62 3.04 258.62 0H0V120H258.62C258.62 116.96 261.08 114.5 264.12 114.5C267.16 114.5 269.62 116.96 269.62 120H305V0H269.62Z" fill="#036EB8"/>
<path d="M282.02 86.6302C282.02 86.1302 282.08 85.6302 282.19 85.1502C282.3 84.6702 282.5 84.1502 282.77 83.5902H284.38C284.07 84.1402 283.84 84.6402 283.7 85.1002C283.56 85.5602 283.49 86.0502 283.49 86.5502C283.49 87.1802 283.62 87.7502 283.88 88.2602C284.14 88.7702 284.51 89.1602 284.98 89.4402C285.45 89.7202 285.98 89.8602 286.56 89.8602C287.14 89.8602 287.68 89.7202 288.15 89.4402C288.62 89.1602 288.98 88.7702 289.24 88.2602C289.5 87.7502 289.62 87.1802 289.62 86.5502C289.62 86.0602 289.55 85.6002 289.41 85.1602C289.27 84.7202 289.02 84.1602 288.65 83.4902H290.26C290.56 84.0702 290.77 84.5902 290.9 85.0802C291.03 85.5702 291.09 86.1202 291.09 86.7702C291.09 87.7002 290.9 88.5402 290.53 89.2802C290.16 90.0202 289.62 90.6002 288.92 91.0202C288.22 91.4402 287.45 91.6502 286.62 91.6502C285.73 91.6502 284.93 91.4302 284.21 91.0002C283.5 90.5702 282.95 89.9702 282.57 89.2102C282.19 88.4502 281.99 87.5902 281.99 86.6402L282.02 86.6302Z" fill="black"/>
<path d="M282.02 76.5301C282.02 75.6101 282.21 74.7801 282.59 74.0501C282.97 73.3201 283.51 72.7301 284.23 72.2901C284.95 71.8501 285.73 71.6401 286.58 71.6401C287.43 71.6401 288.18 71.8501 288.89 72.2801C289.6 72.7101 290.15 73.2901 290.54 74.0301C290.93 74.7701 291.13 75.6101 291.13 76.5401C291.13 77.4701 290.93 78.2901 290.53 79.0401C290.13 79.7901 289.59 80.3801 288.89 80.8001C288.19 81.2201 287.42 81.4301 286.58 81.4301C285.74 81.4301 285 81.2201 284.29 80.8001C283.58 80.3801 283.02 79.8001 282.62 79.0701C282.22 78.3401 282.03 77.4901 282.03 76.5301H282.02ZM286.57 79.6601C287.16 79.6601 287.69 79.5301 288.16 79.2601C288.63 78.9901 288.99 78.6201 289.25 78.1501C289.51 77.6801 289.64 77.1401 289.64 76.5301C289.64 75.6201 289.35 74.8701 288.78 74.2901C288.21 73.7101 287.47 73.4101 286.57 73.4101C285.98 73.4101 285.45 73.5401 284.98 73.8101C284.51 74.0701 284.14 74.4501 283.89 74.9301C283.63 75.4101 283.5 75.9501 283.5 76.5501C283.5 77.1501 283.63 77.6901 283.89 78.1701C284.15 78.6501 284.51 79.0201 284.98 79.2801C285.45 79.5401 285.98 79.6701 286.57 79.6701V79.6601Z" fill="black"/>
<path d="M282.13 67.61H287.29C287.82 67.61 288.24 67.53 288.55 67.37C288.86 67.21 289.12 66.95 289.32 66.59C289.52 66.23 289.62 65.81 289.62 65.33C289.62 64.81 289.52 64.36 289.33 63.99C289.14 63.62 288.87 63.36 288.54 63.19C288.21 63.02 287.75 62.94 287.16 62.94H282.11V61.23H287.38C288.57 61.23 289.49 61.59 290.13 62.3C290.77 63.01 291.09 64.03 291.09 65.33C291.09 66.15 290.94 66.86 290.65 67.47C290.36 68.07 289.94 68.53 289.38 68.85C288.83 69.17 288.18 69.33 287.43 69.33H282.1V67.61H282.13Z" fill="black"/>
<path d="M282.13 55.1301C282.13 54.3001 282.37 53.6301 282.85 53.1101C283.33 52.5901 283.95 52.3301 284.71 52.3301C285.47 52.3301 286.1 52.5901 286.57 53.1201C287.04 53.6501 287.28 54.3401 287.28 55.2001V56.8501H291V58.5601H282.13V55.1301ZM285.94 55.5501C285.94 55.0901 285.83 54.7401 285.63 54.4801C285.42 54.2201 285.11 54.1001 284.7 54.1001C283.88 54.1001 283.47 54.6301 283.47 55.6701V56.8401H285.94V55.5501Z" fill="black"/>
<path d="M282.02 45.6398C282.02 44.7198 282.21 43.8998 282.59 43.1598C282.97 42.4198 283.51 41.8398 284.23 41.4098C284.95 40.9798 285.73 40.7598 286.58 40.7598C287.43 40.7598 288.18 40.9698 288.89 41.3998C289.6 41.8298 290.15 42.4098 290.54 43.1498C290.93 43.8898 291.13 44.7298 291.13 45.6598C291.13 46.5898 290.93 47.4098 290.53 48.1598C290.13 48.9098 289.59 49.4998 288.89 49.9098C288.19 50.3198 287.42 50.5398 286.58 50.5398C285.74 50.5398 285 50.3298 284.29 49.9098C283.58 49.4898 283.02 48.9098 282.62 48.1798C282.22 47.4498 282.03 46.5998 282.03 45.6398H282.02ZM286.57 48.7698C287.16 48.7698 287.69 48.6398 288.16 48.3698C288.63 48.0998 288.99 47.7298 289.25 47.2498C289.51 46.7798 289.64 46.2398 289.64 45.6298C289.64 44.7198 289.35 43.9698 288.78 43.3898C288.21 42.7998 287.47 42.5098 286.57 42.5098C285.98 42.5098 285.45 42.6398 284.98 42.9098C284.51 43.1798 284.14 43.5498 283.89 44.0298C283.63 44.5098 283.5 45.0498 283.5 45.6498C283.5 46.2498 283.63 46.7898 283.89 47.2698C284.15 47.7498 284.51 48.1198 284.98 48.3798C285.45 48.6398 285.98 48.7698 286.57 48.7698Z" fill="black"/>
<path d="M282.13 36.8602L288.32 31.5902H282.13V29.9102H291V31.3802L284.71 36.6802H291V38.3602H282.13V36.8602Z" fill="black"/>
<path d="M78 0H0V120H78V0Z" fill="#DFDBBB"/>
<path d="M264.12 7.37988V7.87988" stroke="#040000" stroke-linecap="round" stroke-linejoin="round"/>
<path d="M264.12 10.9199V110.6" stroke="#040000" stroke-linecap="round" stroke-linejoin="round" stroke-dasharray="1.01 3.04"/>
<path d="M264.12 112.12V112.62" stroke="#040000" stroke-linecap="round" stroke-linejoin="round"/>
<path d="M100.13 25.27C102.11 25.27 103.71 25.76 104.93 26.75C106.15 27.74 106.75 29.04 106.75 30.67C106.75 32.87 105.75 34.5 103.76 35.58C104.9 35.99 105.77 36.66 106.35 37.58C106.93 38.5 107.22 39.61 107.22 40.88C107.22 42.78 106.56 44.32 105.23 45.49C103.9 46.66 102.15 47.25 99.9901 47.25C98.2801 47.25 96.6401 46.85 95.0701 46.04V42.27C95.9401 42.85 96.7401 43.27 97.4601 43.53C98.1901 43.79 98.9301 43.92 99.6801 43.92C100.68 43.92 101.5 43.64 102.14 43.07C102.78 42.5 103.1 41.76 103.1 40.85C103.1 39.85 102.75 39.05 102.04 38.45C101.33 37.85 100.37 37.55 99.1401 37.55H98.8901V34.22H99.0701C100.21 34.22 101.11 33.97 101.75 33.46C102.39 32.95 102.72 32.27 102.72 31.41C102.72 30.55 102.41 29.88 101.78 29.36C101.16 28.84 100.36 28.59 99.3901 28.59C98.1801 28.59 96.9201 28.91 95.5901 29.56V26.2C96.9301 25.58 98.4401 25.27 100.11 25.27H100.13Z" fill="#040000"/>
<path d="M122.66 25.27C121.52 26.22 120.25 27.63 118.87 29.49C117.48 31.35 116.5 32.98 115.9 34.38C116.7 34.04 117.51 33.87 118.35 33.87C119.45 33.87 120.46 34.15 121.36 34.7C122.26 35.26 122.97 36.03 123.47 37.02C123.97 38.01 124.22 39.1 124.22 40.31C124.22 41.59 123.92 42.76 123.33 43.82C122.74 44.88 121.92 45.72 120.88 46.33C119.84 46.94 118.7 47.24 117.48 47.24C115.4 47.24 113.71 46.54 112.41 45.13C111.11 43.72 110.47 41.9 110.47 39.65C110.47 37.4 111.14 35.02 112.49 32.46C113.83 29.91 115.67 27.51 117.99 25.27H122.67H122.66ZM114.46 40.31C114.46 41.3 114.74 42.12 115.3 42.76C115.86 43.4 116.57 43.73 117.45 43.73C118.33 43.73 119 43.43 119.53 42.82C120.06 42.21 120.33 41.41 120.33 40.4C120.33 39.46 120.06 38.68 119.51 38.06C118.96 37.44 118.26 37.13 117.39 37.13C116.52 37.13 115.85 37.43 115.3 38.04C114.74 38.65 114.46 39.4 114.46 40.3V40.31Z" fill="#040000"/>
<path d="M128.81 42.76C129.63 42.76 130.28 43.06 130.77 43.66C131.26 44.26 131.51 45.07 131.51 46.09C131.51 47.43 131.07 48.62 130.18 49.65C129.29 50.68 128.18 51.32 126.84 51.54V50.73C127.82 49.9 128.31 48.82 128.31 47.49V47.26L128.28 47.01C127.12 46.8 126.55 46.09 126.55 44.91C126.55 44.31 126.77 43.8 127.2 43.38C127.63 42.96 128.17 42.75 128.82 42.75L128.81 42.76Z" fill="#040000"/>
<path d="M140.46 25.27C142.63 25.27 144.35 26.25 145.62 28.2C146.89 30.15 147.53 32.82 147.53 36.2C147.53 39.58 146.9 42.31 145.64 44.28C144.38 46.25 142.67 47.24 140.49 47.24C138.31 47.24 136.54 46.26 135.25 44.3C133.97 42.34 133.33 39.66 133.33 36.26C133.33 32.86 133.97 30.19 135.25 28.22C136.53 26.25 138.26 25.27 140.46 25.27ZM137.32 36.38C137.32 41.28 138.37 43.72 140.46 43.72C142.55 43.72 143.53 41.14 143.53 35.99C143.53 31.18 142.5 28.77 140.43 28.77C138.36 28.77 137.32 31.3 137.32 36.37V36.38Z" fill="#040000"/>
<path d="M158.29 25.27C160.46 25.27 162.18 26.25 163.45 28.2C164.72 30.15 165.36 32.82 165.36 36.2C165.36 39.58 164.73 42.31 163.47 44.28C162.21 46.25 160.5 47.24 158.32 47.24C156.14 47.24 154.37 46.26 153.08 44.3C151.8 42.34 151.16 39.66 151.16 36.26C151.16 32.86 151.8 30.19 153.08 28.22C154.36 26.25 156.09 25.27 158.29 25.27ZM155.15 36.38C155.15 41.28 156.2 43.72 158.29 43.72C160.38 43.72 161.36 41.14 161.36 35.99C161.36 31.18 160.33 28.77 158.26 28.77C156.19 28.77 155.15 31.3 155.15 36.37V36.38Z" fill="#040000"/>
<path d="M175.49 25.27C177.66 25.27 179.38 26.25 180.65 28.2C181.92 30.15 182.56 32.82 182.56 36.2C182.56 39.58 181.93 42.31 180.67 44.28C179.41 46.25 177.7 47.24 175.52 47.24C173.34 47.24 171.57 46.26 170.28 44.3C169 42.34 168.36 39.66 168.36 36.26C168.36 32.86 169 30.19 170.28 28.22C171.56 26.25 173.29 25.27 175.49 25.27ZM172.35 36.38C172.35 41.28 173.4 43.72 175.49 43.72C177.58 43.72 178.56 41.14 178.56 35.99C178.56 31.18 177.53 28.77 175.46 28.77C173.39 28.77 172.35 31.3 172.35 36.37V36.38Z" fill="#040000"/>
<path d="M188.34 44.3298C188.34 46.2498 188.36 47.3598 188.39 48.0198H186.68C186.7 47.3898 186.73 46.2298 186.73 44.9598V37.6298C186.73 35.1798 186.71 35.0398 186.68 34.5698C187.51 34.5998 188.74 34.6298 189.8 34.6298H196.27C197.34 34.6298 198.58 34.5998 199.39 34.5698C199.37 35.0398 199.36 35.1798 199.36 37.6298V43.8198C199.36 44.1598 199.38 44.7598 199.39 45.3698C199.41 45.6798 199.41 45.9198 199.41 46.0598C199.41 46.9998 199.17 47.4598 198.55 47.7398C198.09 47.9398 197.5 47.9898 195.94 47.9898C195.89 47.0298 195.88 46.9098 195.64 46.1798C196.33 46.2298 196.69 46.2398 197.16 46.2398C197.66 46.2398 197.74 46.1498 197.74 45.5798V41.9898H188.34V44.3298ZM188.34 36.1198V40.5198H192.17V36.1198H188.34ZM193.79 40.5198H197.75V36.1198H193.79V40.5198Z" fill="#040000"/>
<path d="M102.16 62.5298C105.08 62.5298 107.44 63.2598 109.23 64.7098C111.02 66.1598 111.92 68.0898 111.92 70.4798C111.92 73.7198 110.45 76.1298 107.51 77.7098C109.2 78.3098 110.47 79.2898 111.33 80.6598C112.19 82.0198 112.62 83.6498 112.62 85.5298C112.62 88.3298 111.64 90.5898 109.68 92.3198C107.72 94.0498 105.15 94.9098 101.95 94.9098C99.43 94.9098 97.02 94.3198 94.7 93.1298V87.5698C95.98 88.4298 97.16 89.0498 98.22 89.4298C99.29 89.8098 100.38 90.0098 101.5 90.0098C102.98 90.0098 104.19 89.5898 105.13 88.7598C106.07 87.9298 106.54 86.8398 106.54 85.4998C106.54 84.0198 106.02 82.8398 104.98 81.9598C103.94 81.0798 102.52 80.6398 100.71 80.6398H100.35V75.7398H100.62C102.31 75.7398 103.62 75.3698 104.57 74.6198C105.52 73.8698 105.99 72.8698 105.99 71.5998C105.99 70.3298 105.53 69.3398 104.61 68.5798C103.69 67.8198 102.52 67.4398 101.09 67.4398C99.31 67.4398 97.44 67.9098 95.49 68.8598V63.9098C97.46 62.9898 99.68 62.5298 102.16 62.5298Z" fill="#040000"/>
<path d="M125.66 62.5298C128.58 62.5298 130.94 63.2598 132.73 64.7098C134.52 66.1598 135.42 68.0898 135.42 70.4798C135.42 73.7198 133.95 76.1298 131.01 77.7098C132.7 78.3098 133.97 79.2898 134.83 80.6598C135.69 82.0198 136.12 83.6498 136.12 85.5298C136.12 88.3298 135.14 90.5898 133.18 92.3198C131.22 94.0498 128.65 94.9098 125.45 94.9098C122.93 94.9098 120.52 94.3198 118.2 93.1298V87.5698C119.48 88.4298 120.66 89.0498 121.72 89.4298C122.79 89.8098 123.88 90.0098 125 90.0098C126.48 90.0098 127.69 89.5898 128.63 88.7598C129.57 87.9298 130.04 86.8398 130.04 85.4998C130.04 84.0198 129.52 82.8398 128.48 81.9598C127.44 81.0798 126.02 80.6398 124.21 80.6398H123.85V75.7398H124.12C125.81 75.7398 127.12 75.3698 128.07 74.6198C129.02 73.8698 129.49 72.8698 129.49 71.5998C129.49 70.3298 129.03 69.3398 128.11 68.5798C127.19 67.8198 126.02 67.4398 124.59 67.4398C122.81 67.4398 120.94 67.9098 118.99 68.8598V63.9098C120.96 62.9898 123.18 62.5298 125.66 62.5298Z" fill="#040000"/>
<path d="M144.43 88.31C145.64 88.31 146.6 88.75 147.32 89.63C148.04 90.51 148.4 91.71 148.4 93.21C148.4 95.18 147.74 96.93 146.43 98.46C145.12 99.99 143.48 100.92 141.5 101.25V100.05C142.95 98.83 143.67 97.24 143.67 95.28V94.94L143.63 94.58C141.93 94.26 141.08 93.23 141.08 91.48C141.08 90.59 141.4 89.84 142.04 89.22C142.68 88.6 143.48 88.29 144.42 88.29L144.43 88.31Z" fill="#040000"/>
<path d="M162.53 62.53C165.35 62.53 167.65 63.35 169.43 64.99C171.21 66.63 172.11 68.76 172.11 71.36C172.11 74.21 170.81 76.44 168.22 78.07C169.85 78.93 171.02 79.99 171.74 81.26C172.46 82.53 172.82 84.01 172.82 85.71C172.82 87.41 172.38 89.04 171.49 90.44C170.6 91.85 169.37 92.94 167.78 93.73C166.2 94.51 164.44 94.9 162.52 94.9C159.51 94.9 157.03 94.04 155.08 92.32C153.13 90.6 152.15 88.4 152.15 85.7C152.15 83.91 152.53 82.39 153.3 81.15C154.07 79.91 155.23 78.88 156.78 78.07C154.19 76.43 152.89 74.18 152.89 71.31C152.89 68.72 153.79 66.61 155.59 64.97C157.39 63.34 159.7 62.52 162.51 62.52L162.53 62.53ZM158.04 85.44C158.04 86.99 158.45 88.21 159.26 89.1C160.07 89.99 161.17 90.43 162.54 90.43C163.91 90.43 164.99 89.98 165.78 89.09C166.57 88.19 166.97 87.01 166.97 85.53C166.97 84.05 166.56 82.84 165.75 81.89C164.94 80.94 163.88 80.47 162.59 80.47C161.3 80.47 160.14 80.92 159.3 81.81C158.46 82.7 158.05 83.92 158.05 85.44H158.04ZM158.69 71.46C158.69 72.82 159.05 73.93 159.77 74.79C160.49 75.66 161.41 76.09 162.53 76.09C163.65 76.09 164.52 75.64 165.24 74.75C165.96 73.85 166.32 72.76 166.32 71.46C166.32 70.09 165.98 69 165.29 68.21C164.6 67.41 163.68 67.01 162.52 67.01C161.36 67.01 160.41 67.4 159.72 68.18C159.03 68.96 158.68 70.06 158.68 71.46H158.69Z" fill="#040000"/>
<path d="M196.02 62.53V80.94H198.71V85.57H196.02V94.49H190.24V85.57H177.34V81.86L192.7 62.52H196.02V62.53ZM190.1 72.11L183.12 80.94H190.24V72.11H190.1Z" fill="#040000"/>
<path d="M214.16 62.5298C217.35 62.5298 219.89 63.9698 221.76 66.8498C223.64 69.7298 224.57 73.6598 224.57 78.6398C224.57 83.6198 223.64 87.6398 221.79 90.5498C219.94 93.4598 217.41 94.9098 214.2 94.9098C210.99 94.9098 208.37 93.4698 206.48 90.5798C204.59 87.6998 203.64 83.7498 203.64 78.7298C203.64 73.7098 204.58 69.7798 206.46 66.8798C208.34 63.9798 210.9 62.5298 214.14 62.5298H214.16ZM209.53 78.9098C209.53 86.1198 211.07 89.7298 214.16 89.7298C217.25 89.7298 218.68 85.9298 218.68 78.3398C218.68 71.2498 217.16 67.6998 214.12 67.6998C211.08 67.6998 209.53 71.4398 209.53 78.9098Z" fill="#040000"/>
<path d="M232.17 90.6398C232.17 93.4598 232.19 95.0998 232.24 96.0798H229.72C229.74 95.1498 229.79 93.4398 229.79 91.5698V80.7698C229.79 77.1598 229.77 76.9498 229.72 76.2598C230.95 76.3098 232.75 76.3498 234.32 76.3498H243.85C245.42 76.3498 247.25 76.2998 248.45 76.2598C248.43 76.9498 248.4 77.1598 248.4 80.7698V89.8798C248.4 90.3898 248.42 91.2698 248.45 92.1698C248.47 92.6298 248.47 92.9798 248.47 93.1898C248.47 94.5798 248.12 95.2498 247.2 95.6598C246.53 95.9598 245.65 96.0298 243.36 96.0298C243.29 94.6198 243.27 94.4298 242.92 93.3698C243.94 93.4398 244.47 93.4598 245.16 93.4598C245.9 93.4598 246.02 93.3198 246.02 92.4898V87.1898H232.16V90.6398H232.17ZM232.17 78.5398V85.0198H237.81V78.5398H232.17ZM240.19 85.0098H246.02V78.5298H240.19V85.0098Z" fill="#040000"/>
<path d="M89.5 35.5H204.5" stroke="white" stroke-miterlimit="10"/>
<path d="M66.3301 88.8301H12.3301V92.8301H66.3301V88.8301Z" fill="#FCBF42"/>
<path d="M24.6099 28.7598C23.0499 29.9398 21.6099 31.6198 21.0799 32.8398C21.4699 32.6698 21.9499 32.5798 22.4899 32.5798C24.4899 32.5798 25.8699 34.1598 25.8699 36.4498C25.8699 38.8698 24.3699 40.5298 22.1999 40.5298C19.9099 40.5298 18.3899 38.8198 18.3899 36.2098C18.3899 33.4098 20.0499 30.5898 22.7799 28.7598H24.6099ZM24.0799 36.4998C24.0799 34.9998 23.2899 33.9698 22.1299 33.9698C20.9699 33.9698 20.1699 34.9998 20.1699 36.4998C20.1699 37.9998 20.9999 39.0398 22.1699 39.0398C23.3399 39.0398 24.0899 38.0198 24.0899 36.4998H24.0799Z" fill="black"/>
<path d="M32.03 41.2101H30.52C30.55 40.4901 30.56 39.6801 30.56 37.6901V31.9901C30.56 29.7301 30.55 29.1101 30.52 28.6001C31.31 28.6401 32.48 28.6601 33.5 28.6601H39.96C40.98 28.6601 42.15 28.6501 42.95 28.6001C42.91 29.1101 42.91 29.8301 42.91 31.9901V37.6901C42.91 39.9401 42.91 40.4901 42.95 41.2301H41.44V40.6601H32.03V41.2101ZM41.44 30.0201H32.03V39.2901H41.44V30.0201ZM35.15 38.0301H33.66C33.69 37.6901 33.69 37.1901 33.69 36.4401V32.8901C33.69 32.4101 33.68 31.8401 33.66 31.5701C33.99 31.5801 34.29 31.6001 34.74 31.6001H38.61C39.04 31.6001 39.36 31.5801 39.69 31.5701C39.66 31.8401 39.65 32.4101 39.65 32.8901V36.2301C39.65 36.9401 39.66 37.4401 39.69 37.7901H38.19V37.3101H35.15V38.0301ZM38.2 32.9401H35.16V35.9401H38.2V32.9401Z" fill="black"/>
<path d="M51.77 28.5802C51.96 28.6502 52.06 28.7302 52.06 28.8502C52.06 28.9802 51.95 29.0502 51.55 29.1402C51.01 30.5602 50.58 31.3602 49.71 32.5402C48.83 33.7602 48.21 34.4202 47 35.3602C46.59 34.7402 46.52 34.6502 46.04 34.1502C47.18 33.2302 47.77 32.6402 48.56 31.5402C49.44 30.3402 49.85 29.5502 50.37 28.0302L51.78 28.5902L51.77 28.5802ZM52.82 35.3002C52.6 36.3202 52.36 36.9502 51.92 37.7902C50.93 39.6502 49.63 40.6602 46.79 41.7502C46.61 41.2402 46.47 40.9602 46.14 40.4602C48.09 39.7102 49.03 39.1602 49.85 38.2402C50.56 37.4502 50.96 36.6202 51.29 35.3002C50.51 35.3002 49.34 35.3302 48.73 35.3402V33.8702C49.37 33.9002 50.65 33.9102 51.43 33.9102H56.65L56.9 33.6002L57.86 34.5602C57.95 34.6502 57.99 34.7302 57.99 34.8102C57.99 34.9202 57.93 34.9602 57.74 35.0302L57.62 35.0702C57.41 37.5002 57.33 38.1502 57.08 39.2602C56.81 40.4102 56.54 40.8502 55.87 41.1802C55.45 41.3702 54.94 41.4702 54.05 41.4702C53.87 41.4702 53.62 41.4502 53.27 41.4302C53.21 40.7202 53.16 40.4802 52.97 39.8702C53.14 39.8902 53.6 39.9302 53.87 39.9302C54.83 39.9302 55.04 39.8702 55.29 39.5502C55.54 39.2202 55.79 38.4302 55.94 37.2602C56.02 36.7302 56.06 36.2602 56.12 35.3002H52.82ZM55.66 27.7202C56.17 29.1402 56.62 30.0502 57.4 31.0502C58.15 32.0402 58.73 32.5302 60.31 33.5402C59.8 34.0202 59.68 34.1702 59.31 34.7602C57.75 33.6902 57 33.0102 56.19 31.9102C55.38 30.8302 54.92 29.9002 54.35 28.1802L55.67 27.7302L55.66 27.7202Z" fill="black"/>
<path d="M18.1001 61.2101H16.5901C16.6201 60.4901 16.6301 59.6801 16.6301 57.6901V51.9901C16.6301 49.7301 16.6201 49.1101 16.5901 48.6001C17.3801 48.6401 18.5501 48.6601 19.5701 48.6601H26.0301C27.0501 48.6601 28.2201 48.6501 29.0201 48.6001C28.9801 49.1101 28.9801 49.8301 28.9801 51.9901V57.6901C28.9801 59.9401 28.9801 60.4901 29.0201 61.2301H27.5101V60.6601H18.1001V61.2101ZM27.5101 50.0201H18.1001V59.2901H27.5101V50.0201ZM21.2201 58.0301H19.7301C19.7601 57.6901 19.7601 57.1901 19.7601 56.4401V52.8901C19.7601 52.4101 19.7501 51.8401 19.7301 51.5701C20.0601 51.5801 20.3601 51.6001 20.8101 51.6001H24.6801C25.1101 51.6001 25.4301 51.5801 25.7601 51.5701C25.7301 51.8401 25.7201 52.4101 25.7201 52.8901V56.2301C25.7201 56.9401 25.7301 57.4401 25.7601 57.7901H24.2601V57.3101H21.2201V58.0301ZM24.2701 52.9401H21.2301V55.9401H24.2701V52.9401Z" fill="black"/>
<path d="M35.6101 54.6502C35.6401 54.1902 35.6501 53.5702 35.6501 52.7702C34.8301 53.6902 34.0001 54.2802 32.7001 54.9202C32.5001 54.5002 32.31 54.1702 32.05 53.8502C33.42 53.1102 34.12 52.6502 34.85 51.9302H33.9501C33.5101 51.9302 32.8801 51.9402 32.4501 51.9602V50.6802C32.8401 50.7002 33.5101 50.7002 33.9501 50.7002H34.07C33.74 50.1202 33.24 49.4202 32.82 48.9302L33.78 48.2402C34.38 48.8202 34.8001 49.3502 35.2901 50.1602L34.4501 50.7002H35.6301V50.0802C35.6301 48.8902 35.62 48.2602 35.59 47.8302L37.01 47.9302C37.18 47.9502 37.2701 47.9902 37.2701 48.0802C37.2701 48.1702 37.19 48.2502 36.98 48.3802C36.96 48.8002 36.96 49.3102 36.96 50.0802V50.7002H38.01L37.28 50.3802C37.83 49.3902 38.0701 48.8802 38.3601 48.1002L39.59 48.5702C39.74 48.6302 39.7901 48.6602 39.7901 48.7302C39.7901 48.8002 39.7601 48.8202 39.7001 48.8502C39.6401 48.8802 39.55 48.9102 39.5 48.9302C38.98 49.8102 38.9501 49.8602 38.3801 50.7002H38.5C38.93 50.7002 39.6101 50.7002 39.9901 50.6802V51.9602C39.5701 51.9402 38.94 51.9302 38.5 51.9302H36.9701V52.0502C38.0701 52.4802 38.65 52.8102 39.46 53.4702L38.6301 54.4902C38.1801 54.0302 37.75 53.6802 36.96 53.1902C36.98 53.8102 36.9801 54.3002 36.9901 54.6502H35.5801H35.6101ZM34.18 59.5102L33 58.8302C33.3 58.4502 33.6701 57.9002 34.0401 57.2902H33.96C33.52 57.2902 32.89 57.3102 32.46 57.3202V56.0502C32.89 56.0602 33.52 56.0802 33.96 56.0802H34.7201C35.0101 55.5402 35.25 55.0202 35.41 54.6002L36.73 55.2402C36.84 55.2802 36.9001 55.3602 36.9001 55.4402C36.9001 55.5602 36.77 55.6202 36.44 55.6302C36.35 55.7802 36.27 55.9302 36.19 56.0802H38.53C38.96 56.0802 39.6 56.0702 40.0201 56.0502V57.3202C39.6701 57.3102 39.18 57.2902 38.7701 57.2902C38.47 57.8702 38.1501 58.4502 37.7701 58.9702C38.1501 59.1602 38.52 59.3702 38.91 59.6002L38.1 60.7702C37.66 60.4702 37.24 60.2002 36.84 59.9602C35.9 60.7402 34.67 61.2202 32.78 61.6902C32.6 61.1102 32.5601 61.0002 32.2001 60.4902C33.7601 60.1602 34.8101 59.8202 35.6101 59.2902C35.2801 59.1202 34.95 58.9802 34.62 58.8402L34.21 59.5202L34.18 59.5102ZM35.4701 57.2902C35.3701 57.4902 35.2501 57.6802 35.1301 57.8902C35.6101 58.0402 36.0701 58.2202 36.5401 58.4102C36.8401 58.0702 37.08 57.6802 37.3 57.2902H35.4701ZM46.2901 52.1002C46.0201 52.0902 45.6301 52.0702 45.2401 52.0702C45.1101 53.1902 44.9 54.3202 44.6 55.4102C44.37 56.2002 44.07 56.9902 43.67 57.7002C44.29 58.6202 44.9901 59.2602 46.4701 60.3402C46.0101 60.7302 45.84 60.9202 45.48 61.4902C44.49 60.7602 43.5201 59.8002 42.84 58.9002C41.97 59.9902 40.78 60.9302 39.39 61.6602C39.1 61.0902 39.07 61.0302 38.64 60.5102C40.43 59.4602 41.2901 58.7402 42.0601 57.6802C41.4901 56.6102 41.13 55.4302 40.94 54.2402C40.69 54.7502 40.3901 55.2602 40.0401 55.7802C39.6601 55.3602 39.52 55.2402 38.98 54.8802C39.81 53.7602 40.1601 53.0202 40.6301 51.5902C41.0501 50.3302 41.26 49.4202 41.55 47.7402L42.8301 48.1402C43.0401 48.2002 43.0801 48.2302 43.0801 48.3102C43.0801 48.4202 43 48.4802 42.75 48.5502C42.58 49.3402 42.43 50.0502 42.2701 50.6802H44.5201C45.09 50.6802 45.8501 50.6702 46.3101 50.6402V52.1002H46.2901ZM41.85 52.0602L41.82 52.1602C42.02 53.5902 42.3 54.9902 42.87 56.3202C43.49 54.9902 43.74 53.5002 43.94 52.0602H41.8601H41.85Z" fill="black"/>
<path d="M53.16 54.67C52.84 55.09 52.4999 55.48 52.1199 55.84C52.4599 55.86 52.95 55.87 53.24 55.87H57.7799L57.95 55.66L58.79 56.42C58.89 56.53 58.9199 56.59 58.9199 56.68C58.9199 56.75 58.91 56.81 58.84 56.86C58.78 56.9 58.5899 56.96 58.5099 56.98C58.2399 59.4 58.06 60.08 57.63 60.76C57.38 61.15 57.06 61.36 56.58 61.47C56.28 61.53 55.89 61.56 54.83 61.56C54.79 60.89 54.73 60.66 54.52 60.06C54.86 60.09 55.27 60.09 55.4 60.09C56.06 60.09 56.3 59.99 56.49 59.58C56.71 59.12 56.8799 58.42 57.0299 57.21H55.0499C54.4399 58.71 53.9599 59.36 52.9199 60.11C51.9599 60.8 51.08 61.17 49.22 61.68C49.04 61.1 48.9 60.75 48.66 60.36C50.57 59.92 51.5099 59.53 52.3499 58.83C52.8899 58.38 53.1899 58 53.5299 57.21H53.2299C52.82 57.21 52.3599 57.23 52.0499 57.24V55.92C51.9699 55.98 51.91 56.06 51.84 56.12C51 56.91 50.32 57.38 48.81 58.16C48.56 57.65 48.39 57.39 47.95 56.95C49.41 56.24 50.44 55.55 51.27 54.68C50.44 54.68 49.0999 54.71 48.2799 54.74V53.28C49.0499 53.31 50.41 53.34 51.27 53.34H52.33C52.56 53 52.78 52.61 52.9799 52.19H52.38C51.56 52.19 50.21 52.22 49.4 52.25V50.79C49.95 50.81 50.82 50.83 51.57 50.85C50.99 49.81 50.7 49.41 50.13 48.82L51.1899 48.11C51.9799 48.85 52.3699 49.34 52.9399 50.36L52.11 50.84H53.52C53.73 50.17 53.88 49.54 54.2299 47.75L55.5999 48.06C55.7899 48.1 55.8899 48.17 55.8899 48.27C55.8899 48.37 55.8 48.44 55.57 48.51C55.33 49.62 55.1599 50.31 55.0299 50.84H56.95L56.4399 50.43C57.3099 49.51 57.58 49.17 58.27 48.05L59.5999 48.74C59.6899 48.79 59.75 48.86 59.75 48.94C59.75 49.05 59.6699 49.07 59.4199 49.09C58.5399 50.15 58.31 50.42 57.88 50.84H58.0499C58.9999 50.84 60.27 50.81 61.04 50.78V52.24C60.25 52.21 58.9699 52.18 58.0499 52.18H57.3899C57.5999 52.58 57.82 52.97 58.09 53.33H59.08C60.03 53.33 61.2999 53.3 62.07 53.27V54.73C61.33 54.7 60.18 54.67 59.29 54.67C60.08 55.41 60.9199 55.93 62.3499 56.59C61.9499 57.03 61.7199 57.34 61.4799 57.81C59.75 56.85 58.73 56.1 57.79 55L57.5 54.67H53.1399H53.16ZM54.57 52.18C54.4 52.6 54.2199 52.97 54.0299 53.33H56.61C56.42 52.95 56.22 52.58 56.06 52.18H54.58H54.57Z" fill="black"/>
<path d="M20.0999 78.7598C18.5399 79.9398 17.0999 81.6198 16.5699 82.8398C16.9599 82.6698 17.4399 82.5798 17.9799 82.5798C19.9799 82.5798 21.3599 84.1598 21.3599 86.4498C21.3599 88.8698 19.8599 90.5298 17.6899 90.5298C15.3999 90.5298 13.8799 88.8198 13.8799 86.2098C13.8799 83.4098 15.5399 80.5898 18.2699 78.7598H20.0999ZM19.5699 86.4998C19.5699 84.9998 18.7799 83.9698 17.6199 83.9698C16.4599 83.9698 15.6599 84.9998 15.6599 86.4998C15.6599 87.9998 16.4899 89.0398 17.6599 89.0398C18.8299 89.0398 19.5799 88.0198 19.5799 86.4998H19.5699Z" fill="black"/>
<path d="M28.32 81.6199C28.32 83.1599 27.32 84.3699 26.03 84.3699C24.74 84.3699 23.74 83.1699 23.74 81.6199C23.74 80.0699 24.74 78.8799 26.03 78.8799C27.32 78.8799 28.32 80.0799 28.32 81.6199ZM32.82 78.9699L26.18 90.3699H24.74L31.38 78.9699H32.82ZM24.95 81.6199C24.95 82.5999 25.4 83.2599 26.03 83.2599C26.66 83.2599 27.09 82.5999 27.09 81.6199C27.09 80.6399 26.66 79.9899 26.03 79.9899C25.4 79.9899 24.95 80.6599 24.95 81.6199ZM33.82 87.7099C33.82 89.2399 32.82 90.4599 31.54 90.4599C30.26 90.4599 29.25 89.2499 29.25 87.7099C29.25 86.1699 30.25 84.9499 31.54 84.9499C32.83 84.9499 33.82 86.1599 33.82 87.7099ZM30.46 87.7099C30.46 88.6699 30.9 89.3499 31.53 89.3499C32.16 89.3499 32.61 88.6699 32.61 87.7099C32.61 86.7499 32.17 86.0799 31.53 86.0799C30.89 86.0799 30.46 86.7499 30.46 87.7099Z" fill="black"/>
<path d="M41.9901 78.7598C44.9301 78.7598 46.9101 81.1298 46.9101 84.6698C46.9101 88.2098 44.9301 90.5798 41.9901 90.5798C39.0501 90.5798 37.0801 88.1998 37.0801 84.6698C37.0801 81.1398 39.0401 78.7598 41.9901 78.7598ZM42.0001 89.0398C43.8801 89.0398 45.0401 87.3498 45.0401 84.6598C45.0401 81.9698 43.8701 80.2798 42.0001 80.2798C40.1301 80.2798 38.9401 81.9698 38.9401 84.6598C38.9401 87.3498 40.1101 89.0398 42.0001 89.0398Z" fill="black"/>
<path d="M55.5399 83.7102V85.2302H50.9599V90.3702H49.1899V78.9702H55.9399V80.4802H50.9599V83.7002H55.5399V83.7102Z" fill="black"/>
<path d="M64.3 83.7102V85.2302H59.72V90.3702H57.95V78.9702H64.6999V80.4802H59.72V83.7002H64.3V83.7102Z" fill="black"/>
</g>
<defs>
<clipPath id="clip0_2036_3592">
<rect width="305" height="120" fill="white"/>
</clipPath>
</defs>
</svg>
